%
M48
M72
T01C0.0200
T02C0.0236
T03C0.0354
T04C0.0380
T05C0.0394
T06C0.0400
T07C0.0472
T08C0.0590
T09C0.0670
T10C0.0787
T11C0.0850
T12C0.1770
T13C0.5000
%
T01
X33650Y5550
X35400Y5550
T02
X36500Y5450
X37250Y5550
X37900Y5550
X38600Y5550
X39250Y5550
X39350Y4950
X37250Y4800
X35350Y4800
X34750Y4700
X34100Y4700
X33500Y4750
X32650Y4650
X31950Y4650
X30800Y5050
X30200Y5050
X29400Y5000
X28750Y5050
X28100Y5050
X27250Y4900
X26350Y5050
X25750Y5050
X25250Y5050
X24600Y5000
X23850Y5050
X23150Y5050
X21650Y4750
X20200Y4550
X19300Y4500
X18600Y4550
X17750Y4550
X16900Y4550
X16150Y4550
X15200Y4550
X12150Y4950
X9750Y5400
X13300Y6150
X15200Y5350
X16150Y5350
X16900Y5350
X17750Y5350
X18600Y5350
X19300Y5400
X20000Y5650
X21650Y5550
X23150Y5850
X23850Y5850
X24600Y5900
X25150Y5900
X25750Y5850
X26350Y5850
X27250Y5950
X30100Y6600
X31850Y6450
X32800Y6450
X33550Y6450
X34300Y6450
X35000Y6450
X35650Y6450
X36500Y6550
X37250Y6350
X37900Y6350
X38600Y6350
X39250Y6350
X39350Y7000
X39300Y7700
X41050Y8050
X42250Y8100
X43450Y8050
X45250Y8050
X45250Y7000
X48100Y5250
X45400Y5000
X45250Y4150
X40750Y3450
X38100Y3300
X35850Y3300
X32700Y2300
X40200Y4250
X32300Y5350
X32300Y5900
X30550Y6050
X36750Y7650
X28200Y9350
X28450Y10150
X30900Y10550
X24750Y11400
X22650Y10950
X24650Y10650
X19300Y11200
X15100Y12300
X10400Y11250
X5450Y10150
X2250Y10100
X11550Y9050
X14000Y7700
X16300Y6950
X18450Y6150
X27600Y8200
X20100Y9050
X28400Y12250
X25950Y12850
X24750Y12550
X23150Y13250
X26600Y13850
X28000Y13850
X31800Y12600
X38700Y11900
X40350Y11750
X44000Y11750
X47400Y11950
X48200Y11950
X51950Y11400
X52050Y11950
X53900Y11950
X55300Y11950
X55600Y10300
X52200Y10200
X51050Y9250
X49750Y8650
X52800Y8850
X54550Y8900
X56775Y9275
X63250Y9900
X65000Y11600
X68100Y12000
X64600Y12550
X63850Y12900
X71750Y11350
X72050Y12050
X75900Y12000
X76600Y12400
X75900Y12800
X78100Y12800
X82650Y13100
X87750Y13100
X89750Y13500
X91700Y13150
X94300Y12900
X97000Y12600
X97600Y11900
X96700Y11300
X94300Y10700
X94150Y9650
X101850Y10400
X104900Y10350
X108600Y10350
X117200Y8750
X110000Y8200
X93700Y7050
X91550Y7650
X86650Y7350
X80200Y6350
X82150Y5600
X85500Y5700
X80900Y4300
X82150Y3650
X83950Y3600
X79850Y2350
X86550Y1300
X87100Y2050
X93800Y2100
X95800Y1950
X94700Y1350
X98200Y1850
X95650Y3200
X94100Y3500
X98850Y4450
X103100Y4400
X78200Y9700
X76600Y9700
X76600Y10600
X75900Y11300
X76600Y11600
X78100Y11300
X71800Y10150
X77450Y7800
X55650Y4950
X54900Y1750
X23400Y2350
X13200Y3150
X5100Y3150
X39250Y10000
X41000Y10550
X39150Y10900
X41150Y9850
X45350Y10650
X43500Y10700
X47300Y10350
X48150Y13850
X50150Y13900
X46200Y16800
X42350Y16900
X53900Y17750
X62300Y17850
X71150Y18800
X77400Y18750
X81700Y19750
X83000Y19500
X84000Y19400
X85200Y19900
X84700Y20400
X86300Y20600
X88000Y21150
X90500Y22350
X87500Y22400
X86800Y22400
X81450Y21300
X81100Y20800
X96100Y23000
X107000Y23500
X98600Y19450
X113200Y17550
X118050Y17900
X118200Y14000
X97750Y14800
X85500Y15600
X63400Y22250
X67450Y24200
X49500Y24100
X40050Y24150
X22100Y19700
X15350Y21900
X7250Y22350
X3150Y18050
X6800Y17200
X6900Y15000
X6400Y14350
X5700Y14450
X22200Y16750
X41950Y19550
T03
X105043Y11836
X105633Y11836
X106224Y11836
X106815Y11836
X107405Y11836
X107996Y11836
X108586Y11836
X109177Y11836
X109767Y11836
X110358Y11836
T04
X110700Y9200
X109700Y9200
X108700Y9200
X107700Y9200
X106700Y9200
X105700Y9200
X104700Y9200
X103700Y9200
X102700Y9200
X101700Y9200
X100700Y9200
X111700Y9200
X112700Y9200
X113700Y9200
X113700Y8200
X113700Y7200
X113700Y6200
X113700Y5200
X113700Y4200
X113700Y3200
X112700Y3200
X111700Y3200
X110700Y3200
X109700Y3200
X108700Y3200
X107700Y3200
X106700Y3200
X105700Y3200
X104700Y3200
X103700Y3200
X102700Y3200
X101700Y3200
X100700Y3200
T05
X93674Y14730
X92689Y14730
X91705Y14730
X76200Y17700
X75200Y17700
X58700Y17700
X57700Y17700
X36200Y17700
X35200Y17700
X18700Y17700
X17700Y17700
X91705Y20438
X93674Y20438
T06
X82300Y16300
X82300Y15300
X82400Y10500
X82400Y9500
X73300Y7200
X72300Y7200
X92850Y8350
X93850Y8350
X94850Y8350
X84100Y2100
X83100Y2100
X42300Y9800
X42300Y10800
X24950Y8700
X23950Y8700
T07
X99787Y11836
X115614Y11836
X115614Y20931
X99787Y20931
T08
X42300Y6000
X37100Y3300
X13300Y4950
T09
X12300Y3950
X14300Y3950
X14300Y5950
X12300Y5950
X36100Y4300
X38100Y4300
X41300Y5000
X43300Y5000
X43300Y7000
X41300Y7000
X38100Y2300
X36100Y2300
T10
X37200Y15700
X19700Y15700
X15700Y19700
X33200Y19700
X55700Y19700
X73200Y19700
X77200Y15700
X59700Y15700
X100889Y12604
X114511Y12604
T11
X94953Y17682
X90426Y17682
X68650Y17700
X66750Y17700
X66750Y19550
X68650Y19550
X68650Y15850
X66700Y15850
X51150Y15850
X49200Y15850
X49250Y17700
X51150Y17700
X51150Y19550
X49250Y19550
X28650Y19550
X26750Y19550
X26750Y17700
X28650Y17700
X28650Y15850
X26700Y15850
X11150Y15850
X9200Y15850
X9250Y17700
X11150Y17700
X11150Y19550
X9250Y19550
T12
X2700Y2700
X2700Y22700
X117700Y22700
X117700Y2700
T13
X67700Y7700
M30
