G75*
%MOIN*%
%OFA0B0*%
%FSLAX24Y24*%
%IPPOS*%
%LPD*%
%AMOC8*
5,1,8,0,0,1.08239X$1,22.5*
%
%ADD10C,0.0600*%
%ADD11C,0.1050*%
%ADD12C,0.0531*%
%ADD13C,0.0987*%
%ADD14C,0.0672*%
%ADD15C,0.0570*%
%ADD16C,0.0591*%
%ADD17C,0.0790*%
%ADD18C,0.0870*%
%ADD19C,0.0396*%
%ADD20C,0.0200*%
%ADD21C,0.0360*%
D10*
X023950Y008700D03*
X024950Y008700D03*
X042300Y009800D03*
X042300Y010800D03*
X072300Y007200D03*
X073300Y007200D03*
X082400Y009500D03*
X082400Y010500D03*
X092850Y008350D03*
X093850Y008350D03*
X094850Y008350D03*
X084100Y002100D03*
X083100Y002100D03*
X082300Y015300D03*
X082300Y016300D03*
D11*
X068650Y015850D03*
X066700Y015850D03*
X066750Y017700D03*
X068650Y017700D03*
X068650Y019550D03*
X066750Y019550D03*
X051150Y019550D03*
X049250Y019550D03*
X049250Y017700D03*
X051150Y017700D03*
X051150Y015850D03*
X049200Y015850D03*
X028650Y015850D03*
X026700Y015850D03*
X026750Y017700D03*
X028650Y017700D03*
X028650Y019550D03*
X026750Y019550D03*
X011150Y019550D03*
X009250Y019550D03*
X009250Y017700D03*
X011150Y017700D03*
X011150Y015850D03*
X009200Y015850D03*
D12*
X105043Y011836D03*
X105633Y011836D03*
X106224Y011836D03*
X106815Y011836D03*
X107405Y011836D03*
X107996Y011836D03*
X108586Y011836D03*
X109177Y011836D03*
X109767Y011836D03*
X110358Y011836D03*
D13*
X114511Y012604D03*
X100889Y012604D03*
X077200Y015700D03*
X059700Y015700D03*
X055700Y019700D03*
X073200Y019700D03*
X037200Y015700D03*
X019700Y015700D03*
X015700Y019700D03*
X033200Y019700D03*
D14*
X099787Y020931D03*
X115614Y020931D03*
X115614Y011836D03*
X099787Y011836D03*
D15*
X100700Y009200D03*
X101700Y009200D03*
X102700Y009200D03*
X103700Y009200D03*
X104700Y009200D03*
X105700Y009200D03*
X106700Y009200D03*
X107700Y009200D03*
X108700Y009200D03*
X109700Y009200D03*
X110700Y009200D03*
X111700Y009200D03*
X112700Y009200D03*
X113700Y009200D03*
X113700Y008200D03*
X113700Y007200D03*
X113700Y006200D03*
X113700Y005200D03*
X113700Y004200D03*
X113700Y003200D03*
X112700Y003200D03*
X111700Y003200D03*
X110700Y003200D03*
X109700Y003200D03*
X108700Y003200D03*
X107700Y003200D03*
X106700Y003200D03*
X105700Y003200D03*
X104700Y003200D03*
X103700Y003200D03*
X102700Y003200D03*
X101700Y003200D03*
X100700Y003200D03*
D16*
X093674Y014730D03*
X092689Y014730D03*
X091705Y014730D03*
X076200Y017700D03*
X075200Y017700D03*
X058700Y017700D03*
X057700Y017700D03*
X036200Y017700D03*
X035200Y017700D03*
X018700Y017700D03*
X017700Y017700D03*
X091705Y020438D03*
X093674Y020438D03*
D17*
X042300Y006000D03*
X037100Y003300D03*
X013300Y004950D03*
D18*
X012300Y003950D03*
X014300Y003950D03*
X014300Y005950D03*
X012300Y005950D03*
X036100Y004300D03*
X038100Y004300D03*
X041300Y005000D03*
X043300Y005000D03*
X043300Y007000D03*
X041300Y007000D03*
X038100Y002300D03*
X036100Y002300D03*
D19*
X032700Y002300D03*
X035850Y003300D03*
X038100Y003300D03*
X040750Y003450D03*
X040200Y004250D03*
X039350Y004950D03*
X039250Y005550D03*
X038600Y005550D03*
X037900Y005550D03*
X037250Y005550D03*
X036500Y005450D03*
X037250Y004800D03*
X035350Y004800D03*
X034750Y004700D03*
X034100Y004700D03*
X033500Y004750D03*
X032650Y004650D03*
X031950Y004650D03*
X030800Y005050D03*
X030200Y005050D03*
X029400Y005000D03*
X028750Y005050D03*
X028100Y005050D03*
X027250Y004900D03*
X026350Y005050D03*
X025750Y005050D03*
X025250Y005050D03*
X024600Y005000D03*
X023850Y005050D03*
X023150Y005050D03*
X021650Y004750D03*
X020200Y004550D03*
X019300Y004500D03*
X018600Y004550D03*
X017750Y004550D03*
X016900Y004550D03*
X016150Y004550D03*
X015200Y004550D03*
X012150Y004950D03*
X009750Y005400D03*
X013300Y006150D03*
X015200Y005350D03*
X016150Y005350D03*
X016900Y005350D03*
X017750Y005350D03*
X018600Y005350D03*
X019300Y005400D03*
X020000Y005650D03*
X021650Y005550D03*
X023150Y005850D03*
X023850Y005850D03*
X024600Y005900D03*
X025150Y005900D03*
X025750Y005850D03*
X026350Y005850D03*
X027250Y005950D03*
X030100Y006600D03*
X031850Y006450D03*
X032800Y006450D03*
X033550Y006450D03*
X034300Y006450D03*
X035000Y006450D03*
X035650Y006450D03*
X036500Y006550D03*
X037250Y006350D03*
X037900Y006350D03*
X038600Y006350D03*
X039250Y006350D03*
X039350Y007000D03*
X039300Y007700D03*
X041050Y008050D03*
X042250Y008100D03*
X043450Y008050D03*
X045250Y008050D03*
X045250Y007000D03*
X048100Y005250D03*
X045400Y005000D03*
X045250Y004150D03*
X055650Y004950D03*
X054900Y001750D03*
X032300Y005350D03*
X032300Y005900D03*
X030550Y006050D03*
X036750Y007650D03*
X028200Y009350D03*
X028450Y010150D03*
X030900Y010550D03*
X024750Y011400D03*
X022650Y010950D03*
X024650Y010650D03*
X019300Y011200D03*
X015100Y012300D03*
X010400Y011250D03*
X005450Y010150D03*
X002250Y010100D03*
X011550Y009050D03*
X014000Y007700D03*
X016300Y006950D03*
X018450Y006150D03*
X027600Y008200D03*
X020100Y009050D03*
X028400Y012250D03*
X025950Y012850D03*
X024750Y012550D03*
X023150Y013250D03*
X026600Y013850D03*
X028000Y013850D03*
X031800Y012600D03*
X038700Y011900D03*
X040350Y011750D03*
X044000Y011750D03*
X047400Y011950D03*
X048200Y011950D03*
X051950Y011400D03*
X052050Y011950D03*
X053900Y011950D03*
X055300Y011950D03*
X055600Y010300D03*
X052200Y010200D03*
X051050Y009250D03*
X049750Y008650D03*
X052800Y008850D03*
X054550Y008900D03*
X056775Y009275D03*
X063250Y009900D03*
X065000Y011600D03*
X068100Y012000D03*
X064600Y012550D03*
X063850Y012900D03*
X071750Y011350D03*
X072050Y012050D03*
X075900Y012000D03*
X076600Y012400D03*
X075900Y012800D03*
X078100Y012800D03*
X082650Y013100D03*
X087750Y013100D03*
X089750Y013500D03*
X091700Y013150D03*
X094300Y012900D03*
X097000Y012600D03*
X097600Y011900D03*
X096700Y011300D03*
X094300Y010700D03*
X094150Y009650D03*
X101850Y010400D03*
X104900Y010350D03*
X108600Y010350D03*
X117200Y008750D03*
X110000Y008200D03*
X093700Y007050D03*
X091550Y007650D03*
X086650Y007350D03*
X080200Y006350D03*
X082150Y005600D03*
X085500Y005700D03*
X080900Y004300D03*
X082150Y003650D03*
X083950Y003600D03*
X079850Y002350D03*
X086550Y001300D03*
X087100Y002050D03*
X093800Y002100D03*
X095800Y001950D03*
X094700Y001350D03*
X098200Y001850D03*
X095650Y003200D03*
X094100Y003500D03*
X098850Y004450D03*
X103100Y004400D03*
X078200Y009700D03*
X076600Y009700D03*
X076600Y010600D03*
X075900Y011300D03*
X076600Y011600D03*
X078100Y011300D03*
X071800Y010150D03*
X077450Y007800D03*
X050150Y013900D03*
X048150Y013850D03*
X046200Y016800D03*
X042350Y016900D03*
X053900Y017750D03*
X062300Y017850D03*
X071150Y018800D03*
X077400Y018750D03*
X081700Y019750D03*
X083000Y019500D03*
X084000Y019400D03*
X085200Y019900D03*
X084700Y020400D03*
X086300Y020600D03*
X088000Y021150D03*
X090500Y022350D03*
X087500Y022400D03*
X086800Y022400D03*
X081450Y021300D03*
X081100Y020800D03*
X096100Y023000D03*
X107000Y023500D03*
X098600Y019450D03*
X113200Y017550D03*
X118050Y017900D03*
X118200Y014000D03*
X097750Y014800D03*
X085500Y015600D03*
X063400Y022250D03*
X067450Y024200D03*
X049500Y024100D03*
X040050Y024150D03*
X022100Y019700D03*
X015350Y021900D03*
X007250Y022350D03*
X003150Y018050D03*
X006800Y017200D03*
X006900Y015000D03*
X006400Y014350D03*
X005700Y014450D03*
X022200Y016750D03*
X041950Y019550D03*
X043500Y010700D03*
X045350Y010650D03*
X047300Y010350D03*
X041150Y009850D03*
X039250Y010000D03*
X041000Y010550D03*
X039150Y010900D03*
X013200Y003150D03*
X005100Y003150D03*
X023400Y002350D03*
D20*
X000700Y000700D02*
X000700Y024700D01*
X119700Y024700D01*
X119700Y000700D01*
X000700Y000700D01*
X000700Y000796D02*
X119700Y000796D01*
X119700Y000994D02*
X000700Y000994D01*
X000700Y001193D02*
X119700Y001193D01*
X119700Y001391D02*
X118166Y001391D01*
X118235Y001409D02*
X118550Y001592D01*
X118808Y001850D01*
X118991Y002165D01*
X119085Y002518D01*
X119085Y002882D01*
X118991Y003235D01*
X118808Y003550D01*
X118550Y003808D01*
X118235Y003991D01*
X117882Y004085D01*
X117518Y004085D01*
X117165Y003991D01*
X116850Y003808D01*
X116592Y003550D01*
X116409Y003235D01*
X116315Y002882D01*
X116315Y002518D01*
X116409Y002165D01*
X116592Y001850D01*
X116850Y001592D01*
X117165Y001409D01*
X117518Y001315D01*
X117882Y001315D01*
X118235Y001409D01*
X118547Y001590D02*
X119700Y001590D01*
X119700Y001788D02*
X118747Y001788D01*
X118887Y001987D02*
X119700Y001987D01*
X119700Y002185D02*
X118996Y002185D01*
X119049Y002384D02*
X119700Y002384D01*
X119700Y002582D02*
X119085Y002582D01*
X119085Y002781D02*
X119700Y002781D01*
X119700Y002979D02*
X119059Y002979D01*
X119006Y003178D02*
X119700Y003178D01*
X119700Y003376D02*
X118909Y003376D01*
X118784Y003575D02*
X119700Y003575D01*
X119700Y003773D02*
X118586Y003773D01*
X118268Y003972D02*
X119700Y003972D01*
X119700Y004170D02*
X114185Y004170D01*
X114185Y004104D02*
X114111Y003925D01*
X113975Y003789D01*
X113796Y003715D01*
X113604Y003715D01*
X113425Y003789D01*
X113289Y003925D01*
X113215Y004104D01*
X113215Y004296D01*
X113289Y004475D01*
X113425Y004611D01*
X113604Y004685D01*
X113796Y004685D01*
X113975Y004611D01*
X114111Y004475D01*
X114185Y004296D01*
X114185Y004104D01*
X114130Y003972D02*
X117132Y003972D01*
X116814Y003773D02*
X113937Y003773D01*
X113796Y003685D02*
X113604Y003685D01*
X113425Y003611D01*
X113289Y003475D01*
X113215Y003296D01*
X113215Y003104D01*
X113289Y002925D01*
X113425Y002789D01*
X113604Y002715D01*
X113796Y002715D01*
X113975Y002789D01*
X114111Y002925D01*
X114185Y003104D01*
X114185Y003296D01*
X114111Y003475D01*
X113975Y003611D01*
X113796Y003685D01*
X114011Y003575D02*
X116616Y003575D01*
X116491Y003376D02*
X114152Y003376D01*
X114185Y003178D02*
X116394Y003178D01*
X116341Y002979D02*
X114133Y002979D01*
X113955Y002781D02*
X116315Y002781D01*
X116315Y002582D02*
X084243Y002582D01*
X084199Y002600D02*
X084001Y002600D01*
X083817Y002524D01*
X083676Y002383D01*
X083600Y002199D01*
X083600Y002001D01*
X083676Y001817D01*
X083817Y001676D01*
X084001Y001600D01*
X084199Y001600D01*
X084383Y001676D01*
X084524Y001817D01*
X084600Y002001D01*
X084600Y002199D01*
X084524Y002383D01*
X084383Y002524D01*
X084199Y002600D01*
X083957Y002582D02*
X004085Y002582D01*
X004085Y002518D02*
X003991Y002165D01*
X003808Y001850D01*
X003550Y001592D01*
X003235Y001409D01*
X002882Y001315D01*
X002518Y001315D01*
X002165Y001409D01*
X001850Y001592D01*
X001592Y001850D01*
X001409Y002165D01*
X001315Y002518D01*
X001315Y002882D01*
X001409Y003235D01*
X001592Y003550D01*
X001850Y003808D01*
X002165Y003991D01*
X002518Y004085D01*
X002882Y004085D01*
X003235Y003991D01*
X003550Y003808D01*
X003808Y003550D01*
X003991Y003235D01*
X004085Y002882D01*
X004085Y002518D01*
X004049Y002384D02*
X083676Y002384D01*
X083600Y002185D02*
X003996Y002185D01*
X003887Y001987D02*
X083606Y001987D01*
X083705Y001788D02*
X003747Y001788D01*
X003547Y001590D02*
X116853Y001590D01*
X116653Y001788D02*
X084495Y001788D01*
X084594Y001987D02*
X116513Y001987D01*
X116404Y002185D02*
X084600Y002185D01*
X084524Y002384D02*
X116351Y002384D01*
X113445Y002781D02*
X112955Y002781D01*
X112975Y002789D02*
X113111Y002925D01*
X113185Y003104D01*
X113185Y003296D01*
X113111Y003475D01*
X112975Y003611D01*
X112796Y003685D01*
X112604Y003685D01*
X112425Y003611D01*
X112289Y003475D01*
X112215Y003296D01*
X112215Y003104D01*
X112289Y002925D01*
X112425Y002789D01*
X112604Y002715D01*
X112796Y002715D01*
X112975Y002789D01*
X113133Y002979D02*
X113267Y002979D01*
X113215Y003178D02*
X113185Y003178D01*
X113152Y003376D02*
X113248Y003376D01*
X113389Y003575D02*
X113011Y003575D01*
X113270Y003972D02*
X003268Y003972D01*
X003586Y003773D02*
X036732Y003773D01*
X036763Y003804D02*
X036596Y003637D01*
X036505Y003418D01*
X036505Y003182D01*
X036596Y002963D01*
X036763Y002796D01*
X036982Y002705D01*
X037218Y002705D01*
X037437Y002796D01*
X037604Y002963D01*
X037695Y003182D01*
X037695Y003418D01*
X037604Y003637D01*
X037437Y003804D01*
X037218Y003895D01*
X036982Y003895D01*
X036763Y003804D01*
X036570Y003575D02*
X003784Y003575D01*
X003909Y003376D02*
X036505Y003376D01*
X036507Y003178D02*
X004006Y003178D01*
X004059Y002979D02*
X036589Y002979D01*
X036799Y002781D02*
X004085Y002781D01*
X001394Y003178D02*
X000700Y003178D01*
X000700Y003376D02*
X001491Y003376D01*
X001616Y003575D02*
X000700Y003575D01*
X000700Y003773D02*
X001814Y003773D01*
X002132Y003972D02*
X000700Y003972D01*
X000700Y004170D02*
X113215Y004170D01*
X113245Y004369D02*
X013451Y004369D01*
X013418Y004355D02*
X013637Y004446D01*
X013804Y004613D01*
X013895Y004832D01*
X013895Y005068D01*
X013804Y005287D01*
X013637Y005454D01*
X013418Y005545D01*
X013182Y005545D01*
X012963Y005454D01*
X012796Y005287D01*
X012705Y005068D01*
X012705Y004832D01*
X012796Y004613D01*
X012963Y004446D01*
X013182Y004355D01*
X013418Y004355D01*
X013149Y004369D02*
X000700Y004369D01*
X000700Y004567D02*
X012842Y004567D01*
X012732Y004766D02*
X000700Y004766D01*
X000700Y004964D02*
X012705Y004964D01*
X012744Y005163D02*
X000700Y005163D01*
X000700Y005361D02*
X012870Y005361D01*
X013730Y005361D02*
X019726Y005361D01*
X019774Y005312D02*
X019662Y005424D01*
X019602Y005571D01*
X019602Y005729D01*
X019662Y005876D01*
X019774Y005988D01*
X019921Y006048D01*
X020079Y006048D01*
X020226Y005988D01*
X020338Y005876D01*
X020398Y005729D01*
X020398Y005571D01*
X020338Y005424D01*
X020226Y005312D01*
X020079Y005252D01*
X019921Y005252D01*
X019774Y005312D01*
X019607Y005560D02*
X000700Y005560D01*
X000700Y005758D02*
X018356Y005758D01*
X018371Y005752D02*
X018529Y005752D01*
X018676Y005812D01*
X018788Y005924D01*
X018848Y006071D01*
X018848Y006229D01*
X018788Y006376D01*
X018676Y006488D01*
X018529Y006548D01*
X018371Y006548D01*
X018224Y006488D01*
X018112Y006376D01*
X018052Y006229D01*
X018052Y006071D01*
X018112Y005924D01*
X018224Y005812D01*
X018371Y005752D01*
X018544Y005758D02*
X019614Y005758D01*
X019743Y005957D02*
X018801Y005957D01*
X018848Y006155D02*
X030163Y006155D01*
X030152Y006129D02*
X030152Y005971D01*
X030212Y005824D01*
X030324Y005712D01*
X030471Y005652D01*
X030629Y005652D01*
X030776Y005712D01*
X030888Y005824D01*
X030948Y005971D01*
X030948Y006129D01*
X030888Y006276D01*
X030776Y006388D01*
X030629Y006448D01*
X030471Y006448D01*
X030467Y006447D01*
X030498Y006521D01*
X030498Y006679D01*
X030438Y006826D01*
X030326Y006938D01*
X030179Y006998D01*
X030021Y006998D01*
X029874Y006938D01*
X029762Y006826D01*
X029702Y006679D01*
X029702Y006521D01*
X029762Y006374D01*
X029874Y006262D01*
X030021Y006202D01*
X030179Y006202D01*
X030183Y006203D01*
X030152Y006129D01*
X030158Y005957D02*
X020257Y005957D01*
X020386Y005758D02*
X030279Y005758D01*
X030821Y005758D02*
X041756Y005758D01*
X041796Y005663D02*
X041963Y005496D01*
X042182Y005405D01*
X042418Y005405D01*
X042637Y005496D01*
X042804Y005663D01*
X042895Y005882D01*
X042895Y006118D01*
X042804Y006337D01*
X042637Y006504D01*
X042418Y006595D01*
X042182Y006595D01*
X041963Y006504D01*
X041796Y006337D01*
X041705Y006118D01*
X041705Y005882D01*
X041796Y005663D01*
X041899Y005560D02*
X020393Y005560D01*
X020274Y005361D02*
X065801Y005361D01*
X065788Y005370D02*
X066279Y005041D01*
X066825Y004815D01*
X067405Y004700D01*
X067995Y004700D01*
X068575Y004815D01*
X069121Y005041D01*
X069612Y005370D01*
X070030Y005788D01*
X070359Y006279D01*
X070585Y006825D01*
X070700Y007405D01*
X070700Y007995D01*
X070585Y008575D01*
X070359Y009121D01*
X070030Y009612D01*
X069612Y010030D01*
X069121Y010359D01*
X068575Y010585D01*
X067995Y010700D01*
X067405Y010700D01*
X066825Y010585D01*
X066279Y010359D01*
X065788Y010030D01*
X065370Y009612D01*
X065041Y009121D01*
X064815Y008575D01*
X064700Y007995D01*
X064700Y007405D01*
X064815Y006825D01*
X065041Y006279D01*
X065370Y005788D01*
X065788Y005370D01*
X065598Y005560D02*
X042701Y005560D01*
X042844Y005758D02*
X065399Y005758D01*
X065257Y005957D02*
X042895Y005957D01*
X042880Y006155D02*
X065124Y006155D01*
X065011Y006354D02*
X042788Y006354D01*
X042522Y006552D02*
X064928Y006552D01*
X064846Y006751D02*
X030469Y006751D01*
X030498Y006552D02*
X042078Y006552D01*
X041812Y006354D02*
X030810Y006354D01*
X030937Y006155D02*
X041720Y006155D01*
X041705Y005957D02*
X030942Y005957D01*
X029783Y006354D02*
X018797Y006354D01*
X018103Y006354D02*
X000700Y006354D01*
X000700Y006552D02*
X029702Y006552D01*
X029731Y006751D02*
X000700Y006751D01*
X000700Y006949D02*
X029902Y006949D01*
X030298Y006949D02*
X064791Y006949D01*
X064751Y007148D02*
X000700Y007148D01*
X000700Y007346D02*
X064712Y007346D01*
X064700Y007545D02*
X000700Y007545D01*
X000700Y007743D02*
X064700Y007743D01*
X064700Y007942D02*
X000700Y007942D01*
X000700Y008140D02*
X064729Y008140D01*
X064768Y008339D02*
X050002Y008339D01*
X049976Y008312D02*
X050088Y008424D01*
X050148Y008571D01*
X050148Y008729D01*
X050088Y008876D01*
X049976Y008988D01*
X049829Y009048D01*
X049671Y009048D01*
X049524Y008988D01*
X049412Y008876D01*
X049352Y008729D01*
X049352Y008571D01*
X049412Y008424D01*
X049524Y008312D01*
X049671Y008252D01*
X049829Y008252D01*
X049976Y008312D01*
X050134Y008537D02*
X064808Y008537D01*
X064882Y008736D02*
X050145Y008736D01*
X050029Y008934D02*
X056558Y008934D01*
X056549Y008937D02*
X056696Y008877D01*
X056854Y008877D01*
X057001Y008937D01*
X057113Y009049D01*
X057173Y009196D01*
X057173Y009354D01*
X057113Y009501D01*
X057001Y009613D01*
X056854Y009673D01*
X056696Y009673D01*
X056549Y009613D01*
X056437Y009501D01*
X056377Y009354D01*
X056377Y009196D01*
X056437Y009049D01*
X056549Y008937D01*
X056403Y009133D02*
X028541Y009133D01*
X028538Y009124D02*
X028598Y009271D01*
X028598Y009429D01*
X028538Y009576D01*
X028426Y009688D01*
X028279Y009748D01*
X028121Y009748D01*
X027974Y009688D01*
X027862Y009576D01*
X027802Y009429D01*
X027802Y009271D01*
X027862Y009124D01*
X027974Y009012D01*
X028121Y008952D01*
X028279Y008952D01*
X028426Y009012D01*
X028538Y009124D01*
X028598Y009331D02*
X042126Y009331D01*
X042201Y009300D02*
X042017Y009376D01*
X041876Y009517D01*
X041800Y009701D01*
X041800Y009899D01*
X041876Y010083D01*
X042017Y010224D01*
X042201Y010300D01*
X042399Y010300D01*
X042583Y010224D01*
X042724Y010083D01*
X042800Y009899D01*
X042800Y009701D01*
X042724Y009517D01*
X042583Y009376D01*
X042399Y009300D01*
X042201Y009300D01*
X042474Y009331D02*
X056377Y009331D01*
X056466Y009530D02*
X042729Y009530D01*
X042800Y009728D02*
X065485Y009728D01*
X065314Y009530D02*
X057083Y009530D01*
X057173Y009331D02*
X065182Y009331D01*
X065049Y009133D02*
X057147Y009133D01*
X056992Y008934D02*
X064964Y008934D01*
X065684Y009927D02*
X055739Y009927D01*
X055679Y009902D02*
X055826Y009962D01*
X055938Y010074D01*
X055998Y010221D01*
X055998Y010379D01*
X055938Y010526D01*
X055826Y010638D01*
X055679Y010698D01*
X055521Y010698D01*
X055374Y010638D01*
X055262Y010526D01*
X055202Y010379D01*
X055202Y010221D01*
X055262Y010074D01*
X055374Y009962D01*
X055521Y009902D01*
X055679Y009902D01*
X055461Y009927D02*
X052490Y009927D01*
X052538Y009974D02*
X052598Y010121D01*
X052598Y010279D01*
X052538Y010426D01*
X052426Y010538D01*
X052279Y010598D01*
X052121Y010598D01*
X051974Y010538D01*
X051862Y010426D01*
X051802Y010279D01*
X051802Y010121D01*
X051862Y009974D01*
X051974Y009862D01*
X052121Y009802D01*
X052279Y009802D01*
X052426Y009862D01*
X052538Y009974D01*
X052598Y010125D02*
X055242Y010125D01*
X055202Y010324D02*
X052580Y010324D01*
X052441Y010522D02*
X055261Y010522D01*
X055939Y010522D02*
X066674Y010522D01*
X066227Y010324D02*
X055998Y010324D01*
X055958Y010125D02*
X065929Y010125D01*
X068726Y010522D02*
X076202Y010522D01*
X076202Y010521D02*
X076262Y010374D01*
X076374Y010262D01*
X076521Y010202D01*
X076679Y010202D01*
X076826Y010262D01*
X076938Y010374D01*
X076998Y010521D01*
X076998Y010679D01*
X076938Y010826D01*
X076826Y010938D01*
X076679Y010998D01*
X076521Y010998D01*
X076374Y010938D01*
X076262Y010826D01*
X076202Y010679D01*
X076202Y010521D01*
X076219Y010721D02*
X000700Y010721D01*
X000700Y010919D02*
X075779Y010919D01*
X075821Y010902D02*
X075979Y010902D01*
X076126Y010962D01*
X076238Y011074D01*
X076298Y011221D01*
X076298Y011339D01*
X076374Y011262D01*
X076521Y011202D01*
X076679Y011202D01*
X076826Y011262D01*
X076938Y011374D01*
X076998Y011521D01*
X076998Y011679D01*
X076938Y011826D01*
X076826Y011938D01*
X076679Y011998D01*
X076521Y011998D01*
X076374Y011938D01*
X076262Y011826D01*
X076202Y011679D01*
X076202Y011561D01*
X076126Y011638D01*
X076095Y011650D01*
X076126Y011662D01*
X076238Y011774D01*
X076298Y011921D01*
X076298Y012079D01*
X076238Y012226D01*
X076126Y012338D01*
X075979Y012398D01*
X075821Y012398D01*
X075674Y012338D01*
X075562Y012226D01*
X075502Y012079D01*
X075502Y011921D01*
X075562Y011774D01*
X075674Y011662D01*
X075705Y011650D01*
X075674Y011638D01*
X075562Y011526D01*
X075502Y011379D01*
X075502Y011221D01*
X075562Y011074D01*
X075674Y010962D01*
X075821Y010902D01*
X076021Y010919D02*
X076356Y010919D01*
X076255Y011118D02*
X077745Y011118D01*
X077762Y011074D02*
X077874Y010962D01*
X078021Y010902D01*
X078179Y010902D01*
X078326Y010962D01*
X078438Y011074D01*
X078498Y011221D01*
X078498Y011379D01*
X078438Y011526D01*
X078326Y011638D01*
X078179Y011698D01*
X078021Y011698D01*
X077874Y011638D01*
X077762Y011526D01*
X077702Y011379D01*
X077702Y011221D01*
X077762Y011074D01*
X077702Y011316D02*
X076879Y011316D01*
X076996Y011515D02*
X077758Y011515D01*
X078442Y011515D02*
X099350Y011515D01*
X099332Y011532D02*
X099483Y011382D01*
X099680Y011300D01*
X099894Y011300D01*
X100091Y011382D01*
X100242Y011532D01*
X100323Y011730D01*
X100323Y011943D01*
X100242Y012140D01*
X100091Y012291D01*
X099894Y012372D01*
X099680Y012372D01*
X099483Y012291D01*
X099332Y012140D01*
X099251Y011943D01*
X099251Y011730D01*
X099332Y011532D01*
X099258Y011713D02*
X076984Y011713D01*
X076851Y011912D02*
X099251Y011912D01*
X099320Y012110D02*
X076873Y012110D01*
X076826Y012062D02*
X076938Y012174D01*
X076998Y012321D01*
X076998Y012479D01*
X076938Y012626D01*
X076826Y012738D01*
X076679Y012798D01*
X076521Y012798D01*
X076374Y012738D01*
X076262Y012626D01*
X076202Y012479D01*
X076202Y012321D01*
X076262Y012174D01*
X076374Y012062D01*
X076521Y012002D01*
X076679Y012002D01*
X076826Y012062D01*
X076993Y012309D02*
X099526Y012309D01*
X100048Y012309D02*
X113883Y012309D01*
X113923Y012211D02*
X114118Y012016D01*
X114373Y011910D01*
X114649Y011910D01*
X114904Y012016D01*
X115100Y012211D01*
X115205Y012466D01*
X115205Y012742D01*
X115100Y012997D01*
X114904Y013192D01*
X114649Y013298D01*
X114373Y013298D01*
X114118Y013192D01*
X113923Y012997D01*
X113818Y012742D01*
X113818Y012466D01*
X113923Y012211D01*
X114024Y012110D02*
X110743Y012110D01*
X110753Y012100D02*
X110622Y012231D01*
X110451Y012302D01*
X110265Y012302D01*
X110094Y012231D01*
X110063Y012200D01*
X110031Y012231D01*
X109860Y012302D01*
X109675Y012302D01*
X109503Y012231D01*
X109472Y012200D01*
X109441Y012231D01*
X109269Y012302D01*
X109084Y012302D01*
X108913Y012231D01*
X108881Y012200D01*
X108850Y012231D01*
X108679Y012302D01*
X108494Y012302D01*
X108322Y012231D01*
X108191Y012100D01*
X108120Y011929D01*
X108120Y011744D01*
X108191Y011572D01*
X108322Y011441D01*
X108494Y011370D01*
X108679Y011370D01*
X108850Y011441D01*
X108881Y011473D01*
X108913Y011441D01*
X109084Y011370D01*
X109269Y011370D01*
X109441Y011441D01*
X109472Y011473D01*
X109503Y011441D01*
X109675Y011370D01*
X109860Y011370D01*
X110031Y011441D01*
X110063Y011473D01*
X110094Y011441D01*
X110265Y011370D01*
X110451Y011370D01*
X110622Y011441D01*
X110753Y011572D01*
X110824Y011744D01*
X110824Y011929D01*
X110753Y012100D01*
X110824Y011912D02*
X114370Y011912D01*
X114652Y011912D02*
X115078Y011912D01*
X115078Y011943D02*
X115078Y011730D01*
X115159Y011532D01*
X115310Y011382D01*
X115507Y011300D01*
X115720Y011300D01*
X115918Y011382D01*
X116068Y011532D01*
X116150Y011730D01*
X116150Y011943D01*
X116068Y012140D01*
X115918Y012291D01*
X115720Y012372D01*
X115507Y012372D01*
X115310Y012291D01*
X115159Y012140D01*
X115078Y011943D01*
X115147Y012110D02*
X114999Y012110D01*
X115140Y012309D02*
X115353Y012309D01*
X115205Y012507D02*
X119700Y012507D01*
X119700Y012309D02*
X115875Y012309D01*
X116081Y012110D02*
X119700Y012110D01*
X119700Y011912D02*
X116150Y011912D01*
X116143Y011713D02*
X119700Y011713D01*
X119700Y011515D02*
X116050Y011515D01*
X115759Y011316D02*
X119700Y011316D01*
X119700Y011118D02*
X078455Y011118D01*
X078498Y011316D02*
X099642Y011316D01*
X099932Y011316D02*
X115468Y011316D01*
X115177Y011515D02*
X110695Y011515D01*
X110811Y011713D02*
X115084Y011713D01*
X113818Y012507D02*
X078370Y012507D01*
X078326Y012462D02*
X078438Y012574D01*
X078498Y012721D01*
X078498Y012879D01*
X078438Y013026D01*
X078326Y013138D01*
X078179Y013198D01*
X078021Y013198D01*
X077874Y013138D01*
X077762Y013026D01*
X077702Y012879D01*
X077702Y012721D01*
X077762Y012574D01*
X077874Y012462D01*
X078021Y012402D01*
X078179Y012402D01*
X078326Y012462D01*
X078492Y012706D02*
X113818Y012706D01*
X113885Y012904D02*
X078488Y012904D01*
X078360Y013103D02*
X114029Y013103D01*
X114994Y013103D02*
X119700Y013103D01*
X119700Y013301D02*
X000700Y013301D01*
X000700Y013103D02*
X025640Y013103D01*
X025612Y013076D02*
X025552Y012929D01*
X025552Y012771D01*
X025612Y012624D01*
X025724Y012512D01*
X025871Y012452D01*
X026029Y012452D01*
X026176Y012512D01*
X026288Y012624D01*
X026348Y012771D01*
X026348Y012929D01*
X026288Y013076D01*
X026176Y013188D01*
X026029Y013248D01*
X025871Y013248D01*
X025724Y013188D01*
X025612Y013076D01*
X025552Y012904D02*
X000700Y012904D01*
X000700Y012706D02*
X025579Y012706D01*
X025738Y012507D02*
X000700Y012507D01*
X000700Y012309D02*
X048025Y012309D01*
X047974Y012288D02*
X047862Y012176D01*
X047802Y012029D01*
X047802Y011871D01*
X047862Y011724D01*
X047974Y011612D01*
X048121Y011552D01*
X048279Y011552D01*
X048426Y011612D01*
X048538Y011724D01*
X048598Y011871D01*
X048598Y012029D01*
X048538Y012176D01*
X048426Y012288D01*
X048279Y012348D01*
X048121Y012348D01*
X047974Y012288D01*
X047835Y012110D02*
X000700Y012110D01*
X000700Y011912D02*
X047802Y011912D01*
X047874Y011713D02*
X000700Y011713D01*
X000700Y011515D02*
X051567Y011515D01*
X051552Y011479D02*
X051552Y011321D01*
X051612Y011174D01*
X051724Y011062D01*
X051871Y011002D01*
X052029Y011002D01*
X052176Y011062D01*
X052288Y011174D01*
X052348Y011321D01*
X052348Y011479D01*
X052288Y011626D01*
X052176Y011738D01*
X052029Y011798D01*
X051871Y011798D01*
X051724Y011738D01*
X051612Y011626D01*
X051552Y011479D01*
X051554Y011316D02*
X000700Y011316D01*
X000700Y011118D02*
X051669Y011118D01*
X052231Y011118D02*
X075545Y011118D01*
X075502Y011316D02*
X065279Y011316D01*
X065226Y011262D02*
X065338Y011374D01*
X065398Y011521D01*
X065398Y011679D01*
X065338Y011826D01*
X065226Y011938D01*
X065079Y011998D01*
X064921Y011998D01*
X064774Y011938D01*
X064662Y011826D01*
X064602Y011679D01*
X064602Y011521D01*
X064662Y011374D01*
X064774Y011262D01*
X064921Y011202D01*
X065079Y011202D01*
X065226Y011262D01*
X065396Y011515D02*
X075558Y011515D01*
X075624Y011713D02*
X068376Y011713D01*
X068326Y011662D02*
X068438Y011774D01*
X068498Y011921D01*
X068498Y012079D01*
X068438Y012226D01*
X068326Y012338D01*
X068179Y012398D01*
X068021Y012398D01*
X067874Y012338D01*
X067762Y012226D01*
X067702Y012079D01*
X067702Y011921D01*
X067762Y011774D01*
X067874Y011662D01*
X068021Y011602D01*
X068179Y011602D01*
X068326Y011662D01*
X068494Y011912D02*
X075506Y011912D01*
X075515Y012110D02*
X068485Y012110D01*
X068354Y012309D02*
X075646Y012309D01*
X075674Y012462D02*
X075821Y012402D01*
X075979Y012402D01*
X076126Y012462D01*
X076238Y012574D01*
X076298Y012721D01*
X076298Y012879D01*
X076238Y013026D01*
X076126Y013138D01*
X075979Y013198D01*
X075821Y013198D01*
X075674Y013138D01*
X075562Y013026D01*
X075502Y012879D01*
X075502Y012721D01*
X075562Y012574D01*
X075674Y012462D01*
X075630Y012507D02*
X064998Y012507D01*
X064998Y012471D02*
X064938Y012324D01*
X064826Y012212D01*
X064679Y012152D01*
X064521Y012152D01*
X064374Y012212D01*
X064262Y012324D01*
X064202Y012471D01*
X064202Y012629D01*
X064262Y012776D01*
X064374Y012888D01*
X064521Y012948D01*
X064679Y012948D01*
X064826Y012888D01*
X064938Y012776D01*
X064998Y012629D01*
X064998Y012471D01*
X064922Y012309D02*
X067846Y012309D01*
X067715Y012110D02*
X048565Y012110D01*
X048598Y011912D02*
X064749Y011912D01*
X064616Y011713D02*
X052200Y011713D01*
X052333Y011515D02*
X064604Y011515D01*
X064721Y011316D02*
X052346Y011316D01*
X051700Y011713D02*
X048526Y011713D01*
X048375Y012309D02*
X064278Y012309D01*
X064202Y012507D02*
X063942Y012507D01*
X063929Y012502D02*
X064076Y012562D01*
X064188Y012674D01*
X064248Y012821D01*
X064248Y012979D01*
X064188Y013126D01*
X064076Y013238D01*
X063929Y013298D01*
X063771Y013298D01*
X063624Y013238D01*
X063512Y013126D01*
X063452Y012979D01*
X063452Y012821D01*
X063512Y012674D01*
X063624Y012562D01*
X063771Y012502D01*
X063929Y012502D01*
X063758Y012507D02*
X026162Y012507D01*
X026321Y012706D02*
X063500Y012706D01*
X063452Y012904D02*
X026348Y012904D01*
X026260Y013103D02*
X063503Y013103D01*
X064197Y013103D02*
X075640Y013103D01*
X075512Y012904D02*
X064786Y012904D01*
X064966Y012706D02*
X075508Y012706D01*
X076170Y012507D02*
X076213Y012507D01*
X076207Y012309D02*
X076154Y012309D01*
X076285Y012110D02*
X076327Y012110D01*
X076349Y011912D02*
X076294Y011912D01*
X076216Y011713D02*
X076176Y011713D01*
X076298Y011316D02*
X076321Y011316D01*
X076844Y010919D02*
X077979Y010919D01*
X078221Y010919D02*
X119700Y010919D01*
X119700Y010721D02*
X076981Y010721D01*
X076998Y010522D02*
X119700Y010522D01*
X119700Y010324D02*
X076887Y010324D01*
X076826Y010038D02*
X076679Y010098D01*
X076521Y010098D01*
X076374Y010038D01*
X076262Y009926D01*
X076202Y009779D01*
X076202Y009621D01*
X076262Y009474D01*
X076374Y009362D01*
X076521Y009302D01*
X076679Y009302D01*
X076826Y009362D01*
X076938Y009474D01*
X076998Y009621D01*
X076998Y009779D01*
X076938Y009926D01*
X076826Y010038D01*
X076936Y009927D02*
X077864Y009927D01*
X077862Y009926D02*
X077802Y009779D01*
X077802Y009621D01*
X077862Y009474D01*
X077974Y009362D01*
X078121Y009302D01*
X078279Y009302D01*
X078426Y009362D01*
X078538Y009474D01*
X078598Y009621D01*
X078598Y009779D01*
X078538Y009926D01*
X078426Y010038D01*
X078279Y010098D01*
X078121Y010098D01*
X077974Y010038D01*
X077862Y009926D01*
X077802Y009728D02*
X076998Y009728D01*
X076960Y009530D02*
X077840Y009530D01*
X078051Y009331D02*
X076749Y009331D01*
X076451Y009331D02*
X070218Y009331D01*
X070086Y009530D02*
X076240Y009530D01*
X076202Y009728D02*
X069915Y009728D01*
X069716Y009927D02*
X076264Y009927D01*
X076313Y010324D02*
X069173Y010324D01*
X069471Y010125D02*
X119700Y010125D01*
X119700Y009927D02*
X082677Y009927D01*
X082683Y009924D02*
X082499Y010000D01*
X082301Y010000D01*
X082117Y009924D01*
X081976Y009783D01*
X081900Y009599D01*
X081900Y009401D01*
X081976Y009217D01*
X082117Y009076D01*
X082301Y009000D01*
X082499Y009000D01*
X082683Y009076D01*
X082824Y009217D01*
X082900Y009401D01*
X082900Y009599D01*
X082824Y009783D01*
X082683Y009924D01*
X082847Y009728D02*
X119700Y009728D01*
X119700Y009530D02*
X114056Y009530D01*
X114111Y009475D02*
X113975Y009611D01*
X113796Y009685D01*
X113604Y009685D01*
X113425Y009611D01*
X113289Y009475D01*
X113215Y009296D01*
X113215Y009104D01*
X113289Y008925D01*
X113425Y008789D01*
X113604Y008715D01*
X113796Y008715D01*
X113975Y008789D01*
X114111Y008925D01*
X114185Y009104D01*
X114185Y009296D01*
X114111Y009475D01*
X114171Y009331D02*
X119700Y009331D01*
X119700Y009133D02*
X114185Y009133D01*
X114115Y008934D02*
X119700Y008934D01*
X119700Y008736D02*
X113846Y008736D01*
X113796Y008685D02*
X113604Y008685D01*
X113425Y008611D01*
X113289Y008475D01*
X113215Y008296D01*
X113215Y008104D01*
X113289Y007925D01*
X113425Y007789D01*
X113604Y007715D01*
X113796Y007715D01*
X113975Y007789D01*
X114111Y007925D01*
X114185Y008104D01*
X114185Y008296D01*
X114111Y008475D01*
X113975Y008611D01*
X113796Y008685D01*
X113554Y008736D02*
X112846Y008736D01*
X112796Y008715D02*
X112975Y008789D01*
X113111Y008925D01*
X113185Y009104D01*
X113185Y009296D01*
X113111Y009475D01*
X112975Y009611D01*
X112796Y009685D01*
X112604Y009685D01*
X112425Y009611D01*
X112289Y009475D01*
X112215Y009296D01*
X112215Y009104D01*
X112289Y008925D01*
X112425Y008789D01*
X112604Y008715D01*
X112796Y008715D01*
X112554Y008736D02*
X111846Y008736D01*
X111796Y008715D02*
X111975Y008789D01*
X112111Y008925D01*
X112185Y009104D01*
X112185Y009296D01*
X112111Y009475D01*
X111975Y009611D01*
X111796Y009685D01*
X111604Y009685D01*
X111425Y009611D01*
X111289Y009475D01*
X111215Y009296D01*
X111215Y009104D01*
X111289Y008925D01*
X111425Y008789D01*
X111604Y008715D01*
X111796Y008715D01*
X111554Y008736D02*
X110846Y008736D01*
X110796Y008715D02*
X110975Y008789D01*
X111111Y008925D01*
X111185Y009104D01*
X111185Y009296D01*
X111111Y009475D01*
X110975Y009611D01*
X110796Y009685D01*
X110604Y009685D01*
X110425Y009611D01*
X110289Y009475D01*
X110215Y009296D01*
X110215Y009104D01*
X110289Y008925D01*
X110425Y008789D01*
X110604Y008715D01*
X110796Y008715D01*
X110554Y008736D02*
X109846Y008736D01*
X109796Y008715D02*
X109975Y008789D01*
X110111Y008925D01*
X110185Y009104D01*
X110185Y009296D01*
X110111Y009475D01*
X109975Y009611D01*
X109796Y009685D01*
X109604Y009685D01*
X109425Y009611D01*
X109289Y009475D01*
X109215Y009296D01*
X109215Y009104D01*
X109289Y008925D01*
X109425Y008789D01*
X109604Y008715D01*
X109796Y008715D01*
X109554Y008736D02*
X108846Y008736D01*
X108796Y008715D02*
X108975Y008789D01*
X109111Y008925D01*
X109185Y009104D01*
X109185Y009296D01*
X109111Y009475D01*
X108975Y009611D01*
X108796Y009685D01*
X108604Y009685D01*
X108425Y009611D01*
X108289Y009475D01*
X108215Y009296D01*
X108215Y009104D01*
X108289Y008925D01*
X108425Y008789D01*
X108604Y008715D01*
X108796Y008715D01*
X108554Y008736D02*
X107846Y008736D01*
X107796Y008715D02*
X107975Y008789D01*
X108111Y008925D01*
X108185Y009104D01*
X108185Y009296D01*
X108111Y009475D01*
X107975Y009611D01*
X107796Y009685D01*
X107604Y009685D01*
X107425Y009611D01*
X107289Y009475D01*
X107215Y009296D01*
X107215Y009104D01*
X107289Y008925D01*
X107425Y008789D01*
X107604Y008715D01*
X107796Y008715D01*
X107554Y008736D02*
X106846Y008736D01*
X106796Y008715D02*
X106975Y008789D01*
X107111Y008925D01*
X107185Y009104D01*
X107185Y009296D01*
X107111Y009475D01*
X106975Y009611D01*
X106796Y009685D01*
X106604Y009685D01*
X106425Y009611D01*
X106289Y009475D01*
X106215Y009296D01*
X106215Y009104D01*
X106289Y008925D01*
X106425Y008789D01*
X106604Y008715D01*
X106796Y008715D01*
X106554Y008736D02*
X105846Y008736D01*
X105796Y008715D02*
X105975Y008789D01*
X106111Y008925D01*
X106185Y009104D01*
X106185Y009296D01*
X106111Y009475D01*
X105975Y009611D01*
X105796Y009685D01*
X105604Y009685D01*
X105425Y009611D01*
X105289Y009475D01*
X105215Y009296D01*
X105215Y009104D01*
X105289Y008925D01*
X105425Y008789D01*
X105604Y008715D01*
X105796Y008715D01*
X105554Y008736D02*
X104846Y008736D01*
X104796Y008715D02*
X104975Y008789D01*
X105111Y008925D01*
X105185Y009104D01*
X105185Y009296D01*
X105111Y009475D01*
X104975Y009611D01*
X104796Y009685D01*
X104604Y009685D01*
X104425Y009611D01*
X104289Y009475D01*
X104215Y009296D01*
X104215Y009104D01*
X104289Y008925D01*
X104425Y008789D01*
X104604Y008715D01*
X104796Y008715D01*
X104554Y008736D02*
X103846Y008736D01*
X103796Y008715D02*
X103975Y008789D01*
X104111Y008925D01*
X104185Y009104D01*
X104185Y009296D01*
X104111Y009475D01*
X103975Y009611D01*
X103796Y009685D01*
X103604Y009685D01*
X103425Y009611D01*
X103289Y009475D01*
X103215Y009296D01*
X103215Y009104D01*
X103289Y008925D01*
X103425Y008789D01*
X103604Y008715D01*
X103796Y008715D01*
X103554Y008736D02*
X102846Y008736D01*
X102796Y008715D02*
X102975Y008789D01*
X103111Y008925D01*
X103185Y009104D01*
X103185Y009296D01*
X103111Y009475D01*
X102975Y009611D01*
X102796Y009685D01*
X102604Y009685D01*
X102425Y009611D01*
X102289Y009475D01*
X102215Y009296D01*
X102215Y009104D01*
X102289Y008925D01*
X102425Y008789D01*
X102604Y008715D01*
X102796Y008715D01*
X102554Y008736D02*
X101846Y008736D01*
X101796Y008715D02*
X101975Y008789D01*
X102111Y008925D01*
X102185Y009104D01*
X102185Y009296D01*
X102111Y009475D01*
X101975Y009611D01*
X101796Y009685D01*
X101604Y009685D01*
X101425Y009611D01*
X101289Y009475D01*
X101215Y009296D01*
X101215Y009104D01*
X101289Y008925D01*
X101425Y008789D01*
X101604Y008715D01*
X101796Y008715D01*
X101554Y008736D02*
X100846Y008736D01*
X100796Y008715D02*
X100975Y008789D01*
X101111Y008925D01*
X101185Y009104D01*
X101185Y009296D01*
X101111Y009475D01*
X100975Y009611D01*
X100796Y009685D01*
X100604Y009685D01*
X100425Y009611D01*
X100289Y009475D01*
X100215Y009296D01*
X100215Y009104D01*
X100289Y008925D01*
X100425Y008789D01*
X100604Y008715D01*
X100796Y008715D01*
X100554Y008736D02*
X095172Y008736D01*
X095133Y008774D02*
X094949Y008850D01*
X094751Y008850D01*
X094567Y008774D01*
X094426Y008633D01*
X094350Y008449D01*
X094350Y008251D01*
X094426Y008067D01*
X094567Y007926D01*
X094751Y007850D01*
X094949Y007850D01*
X095133Y007926D01*
X095274Y008067D01*
X095350Y008251D01*
X095350Y008449D01*
X095274Y008633D01*
X095133Y008774D01*
X095314Y008537D02*
X113351Y008537D01*
X113232Y008339D02*
X095350Y008339D01*
X095304Y008140D02*
X113215Y008140D01*
X113282Y007942D02*
X095149Y007942D01*
X094551Y007942D02*
X093149Y007942D01*
X093133Y007926D02*
X093274Y008067D01*
X093350Y008251D01*
X093350Y008449D01*
X093274Y008633D01*
X093133Y008774D01*
X092949Y008850D01*
X092751Y008850D01*
X092567Y008774D01*
X092426Y008633D01*
X092350Y008449D01*
X092350Y008251D01*
X092426Y008067D01*
X092567Y007926D01*
X092751Y007850D01*
X092949Y007850D01*
X093133Y007926D01*
X093304Y008140D02*
X094396Y008140D01*
X094350Y008339D02*
X093350Y008339D01*
X093314Y008537D02*
X094386Y008537D01*
X094528Y008736D02*
X093172Y008736D01*
X092528Y008736D02*
X070518Y008736D01*
X070592Y008537D02*
X092386Y008537D01*
X092350Y008339D02*
X070632Y008339D01*
X070671Y008140D02*
X092396Y008140D01*
X092551Y007942D02*
X070700Y007942D01*
X070700Y007743D02*
X113536Y007743D01*
X113604Y007685D02*
X113425Y007611D01*
X113289Y007475D01*
X113215Y007296D01*
X113215Y007104D01*
X113289Y006925D01*
X113425Y006789D01*
X113604Y006715D01*
X113796Y006715D01*
X113975Y006789D01*
X114111Y006925D01*
X114185Y007104D01*
X114185Y007296D01*
X114111Y007475D01*
X113975Y007611D01*
X113796Y007685D01*
X113604Y007685D01*
X113864Y007743D02*
X119700Y007743D01*
X119700Y007545D02*
X114041Y007545D01*
X114164Y007346D02*
X119700Y007346D01*
X119700Y007148D02*
X114185Y007148D01*
X114121Y006949D02*
X119700Y006949D01*
X119700Y006751D02*
X113882Y006751D01*
X113518Y006751D02*
X073521Y006751D01*
X073583Y006776D02*
X073724Y006917D01*
X073800Y007101D01*
X073800Y007299D01*
X073724Y007483D01*
X073583Y007624D01*
X073399Y007700D01*
X073201Y007700D01*
X073017Y007624D01*
X072876Y007483D01*
X072800Y007299D01*
X072800Y007101D01*
X072876Y006917D01*
X073017Y006776D01*
X073201Y006700D01*
X073399Y006700D01*
X073583Y006776D01*
X073737Y006949D02*
X113279Y006949D01*
X113215Y007148D02*
X073800Y007148D01*
X073781Y007346D02*
X113236Y007346D01*
X113359Y007545D02*
X073663Y007545D01*
X072937Y007545D02*
X070700Y007545D01*
X070688Y007346D02*
X072819Y007346D01*
X072800Y007148D02*
X070649Y007148D01*
X070609Y006949D02*
X072863Y006949D01*
X073079Y006751D02*
X070554Y006751D01*
X070472Y006552D02*
X079853Y006552D01*
X079862Y006576D02*
X079802Y006429D01*
X079802Y006271D01*
X079862Y006124D01*
X079974Y006012D01*
X080121Y005952D01*
X080279Y005952D01*
X080426Y006012D01*
X080538Y006124D01*
X080598Y006271D01*
X080598Y006429D01*
X080538Y006576D01*
X080426Y006688D01*
X080279Y006748D01*
X080121Y006748D01*
X079974Y006688D01*
X079862Y006576D01*
X079802Y006354D02*
X070389Y006354D01*
X070276Y006155D02*
X079850Y006155D01*
X080110Y005957D02*
X070143Y005957D01*
X070001Y005758D02*
X119700Y005758D01*
X119700Y005560D02*
X114026Y005560D01*
X113975Y005611D02*
X114111Y005475D01*
X114185Y005296D01*
X114185Y005104D01*
X114111Y004925D01*
X113975Y004789D01*
X113796Y004715D01*
X113604Y004715D01*
X113425Y004789D01*
X113289Y004925D01*
X113215Y005104D01*
X113215Y005296D01*
X113289Y005475D01*
X113425Y005611D01*
X113604Y005685D01*
X113796Y005685D01*
X113975Y005611D01*
X114158Y005361D02*
X119700Y005361D01*
X119700Y005163D02*
X114185Y005163D01*
X114127Y004964D02*
X119700Y004964D01*
X119700Y004766D02*
X113918Y004766D01*
X114019Y004567D02*
X119700Y004567D01*
X119700Y004369D02*
X114155Y004369D01*
X113482Y004766D02*
X068325Y004766D01*
X068934Y004964D02*
X113273Y004964D01*
X113215Y005163D02*
X069302Y005163D01*
X069599Y005361D02*
X113242Y005361D01*
X113374Y005560D02*
X069802Y005560D01*
X066466Y004964D02*
X013895Y004964D01*
X013868Y004766D02*
X067075Y004766D01*
X066098Y005163D02*
X013856Y005163D01*
X013758Y004567D02*
X113381Y004567D01*
X113463Y003773D02*
X037468Y003773D01*
X037630Y003575D02*
X101389Y003575D01*
X101425Y003611D02*
X101289Y003475D01*
X101215Y003296D01*
X101215Y003104D01*
X101289Y002925D01*
X101425Y002789D01*
X101604Y002715D01*
X101796Y002715D01*
X101975Y002789D01*
X102111Y002925D01*
X102185Y003104D01*
X102185Y003296D01*
X102111Y003475D01*
X101975Y003611D01*
X101796Y003685D01*
X101604Y003685D01*
X101425Y003611D01*
X101248Y003376D02*
X037695Y003376D01*
X037693Y003178D02*
X101215Y003178D01*
X101267Y002979D02*
X037611Y002979D01*
X037401Y002781D02*
X101445Y002781D01*
X101955Y002781D02*
X102445Y002781D01*
X102425Y002789D02*
X102604Y002715D01*
X102796Y002715D01*
X102975Y002789D01*
X103111Y002925D01*
X103185Y003104D01*
X103185Y003296D01*
X103111Y003475D01*
X102975Y003611D01*
X102796Y003685D01*
X102604Y003685D01*
X102425Y003611D01*
X102289Y003475D01*
X102215Y003296D01*
X102215Y003104D01*
X102289Y002925D01*
X102425Y002789D01*
X102267Y002979D02*
X102133Y002979D01*
X102185Y003178D02*
X102215Y003178D01*
X102248Y003376D02*
X102152Y003376D01*
X102011Y003575D02*
X102389Y003575D01*
X103011Y003575D02*
X103389Y003575D01*
X103425Y003611D02*
X103289Y003475D01*
X103215Y003296D01*
X103215Y003104D01*
X103289Y002925D01*
X103425Y002789D01*
X103604Y002715D01*
X103796Y002715D01*
X103975Y002789D01*
X104111Y002925D01*
X104185Y003104D01*
X104185Y003296D01*
X104111Y003475D01*
X103975Y003611D01*
X103796Y003685D01*
X103604Y003685D01*
X103425Y003611D01*
X103248Y003376D02*
X103152Y003376D01*
X103185Y003178D02*
X103215Y003178D01*
X103267Y002979D02*
X103133Y002979D01*
X102955Y002781D02*
X103445Y002781D01*
X103955Y002781D02*
X104445Y002781D01*
X104425Y002789D02*
X104604Y002715D01*
X104796Y002715D01*
X104975Y002789D01*
X105111Y002925D01*
X105185Y003104D01*
X105185Y003296D01*
X105111Y003475D01*
X104975Y003611D01*
X104796Y003685D01*
X104604Y003685D01*
X104425Y003611D01*
X104289Y003475D01*
X104215Y003296D01*
X104215Y003104D01*
X104289Y002925D01*
X104425Y002789D01*
X104267Y002979D02*
X104133Y002979D01*
X104185Y003178D02*
X104215Y003178D01*
X104248Y003376D02*
X104152Y003376D01*
X104011Y003575D02*
X104389Y003575D01*
X105011Y003575D02*
X105389Y003575D01*
X105425Y003611D02*
X105289Y003475D01*
X105215Y003296D01*
X105215Y003104D01*
X105289Y002925D01*
X105425Y002789D01*
X105604Y002715D01*
X105796Y002715D01*
X105975Y002789D01*
X106111Y002925D01*
X106185Y003104D01*
X106185Y003296D01*
X106111Y003475D01*
X105975Y003611D01*
X105796Y003685D01*
X105604Y003685D01*
X105425Y003611D01*
X105248Y003376D02*
X105152Y003376D01*
X105185Y003178D02*
X105215Y003178D01*
X105267Y002979D02*
X105133Y002979D01*
X104955Y002781D02*
X105445Y002781D01*
X105955Y002781D02*
X106445Y002781D01*
X106425Y002789D02*
X106604Y002715D01*
X106796Y002715D01*
X106975Y002789D01*
X107111Y002925D01*
X107185Y003104D01*
X107185Y003296D01*
X107111Y003475D01*
X106975Y003611D01*
X106796Y003685D01*
X106604Y003685D01*
X106425Y003611D01*
X106289Y003475D01*
X106215Y003296D01*
X106215Y003104D01*
X106289Y002925D01*
X106425Y002789D01*
X106267Y002979D02*
X106133Y002979D01*
X106185Y003178D02*
X106215Y003178D01*
X106248Y003376D02*
X106152Y003376D01*
X106011Y003575D02*
X106389Y003575D01*
X107011Y003575D02*
X107389Y003575D01*
X107425Y003611D02*
X107289Y003475D01*
X107215Y003296D01*
X107215Y003104D01*
X107289Y002925D01*
X107425Y002789D01*
X107604Y002715D01*
X107796Y002715D01*
X107975Y002789D01*
X108111Y002925D01*
X108185Y003104D01*
X108185Y003296D01*
X108111Y003475D01*
X107975Y003611D01*
X107796Y003685D01*
X107604Y003685D01*
X107425Y003611D01*
X107248Y003376D02*
X107152Y003376D01*
X107185Y003178D02*
X107215Y003178D01*
X107267Y002979D02*
X107133Y002979D01*
X106955Y002781D02*
X107445Y002781D01*
X107955Y002781D02*
X108445Y002781D01*
X108425Y002789D02*
X108604Y002715D01*
X108796Y002715D01*
X108975Y002789D01*
X109111Y002925D01*
X109185Y003104D01*
X109185Y003296D01*
X109111Y003475D01*
X108975Y003611D01*
X108796Y003685D01*
X108604Y003685D01*
X108425Y003611D01*
X108289Y003475D01*
X108215Y003296D01*
X108215Y003104D01*
X108289Y002925D01*
X108425Y002789D01*
X108267Y002979D02*
X108133Y002979D01*
X108185Y003178D02*
X108215Y003178D01*
X108248Y003376D02*
X108152Y003376D01*
X108011Y003575D02*
X108389Y003575D01*
X109011Y003575D02*
X109389Y003575D01*
X109425Y003611D02*
X109289Y003475D01*
X109215Y003296D01*
X109215Y003104D01*
X109289Y002925D01*
X109425Y002789D01*
X109604Y002715D01*
X109796Y002715D01*
X109975Y002789D01*
X110111Y002925D01*
X110185Y003104D01*
X110185Y003296D01*
X110111Y003475D01*
X109975Y003611D01*
X109796Y003685D01*
X109604Y003685D01*
X109425Y003611D01*
X109248Y003376D02*
X109152Y003376D01*
X109185Y003178D02*
X109215Y003178D01*
X109267Y002979D02*
X109133Y002979D01*
X108955Y002781D02*
X109445Y002781D01*
X109955Y002781D02*
X110445Y002781D01*
X110425Y002789D02*
X110604Y002715D01*
X110796Y002715D01*
X110975Y002789D01*
X111111Y002925D01*
X111185Y003104D01*
X111185Y003296D01*
X111111Y003475D01*
X110975Y003611D01*
X110796Y003685D01*
X110604Y003685D01*
X110425Y003611D01*
X110289Y003475D01*
X110215Y003296D01*
X110215Y003104D01*
X110289Y002925D01*
X110425Y002789D01*
X110267Y002979D02*
X110133Y002979D01*
X110185Y003178D02*
X110215Y003178D01*
X110248Y003376D02*
X110152Y003376D01*
X110011Y003575D02*
X110389Y003575D01*
X111011Y003575D02*
X111389Y003575D01*
X111425Y003611D02*
X111289Y003475D01*
X111215Y003296D01*
X111215Y003104D01*
X111289Y002925D01*
X111425Y002789D01*
X111604Y002715D01*
X111796Y002715D01*
X111975Y002789D01*
X112111Y002925D01*
X112185Y003104D01*
X112185Y003296D01*
X112111Y003475D01*
X111975Y003611D01*
X111796Y003685D01*
X111604Y003685D01*
X111425Y003611D01*
X111248Y003376D02*
X111152Y003376D01*
X111185Y003178D02*
X111215Y003178D01*
X111267Y002979D02*
X111133Y002979D01*
X110955Y002781D02*
X111445Y002781D01*
X111955Y002781D02*
X112445Y002781D01*
X112267Y002979D02*
X112133Y002979D01*
X112185Y003178D02*
X112215Y003178D01*
X112248Y003376D02*
X112152Y003376D01*
X112011Y003575D02*
X112389Y003575D01*
X117234Y001391D02*
X003166Y001391D01*
X002234Y001391D02*
X000700Y001391D01*
X000700Y001590D02*
X001853Y001590D01*
X001653Y001788D02*
X000700Y001788D01*
X000700Y001987D02*
X001513Y001987D01*
X001404Y002185D02*
X000700Y002185D01*
X000700Y002384D02*
X001351Y002384D01*
X001315Y002582D02*
X000700Y002582D01*
X000700Y002781D02*
X001315Y002781D01*
X001341Y002979D02*
X000700Y002979D01*
X000700Y005957D02*
X018099Y005957D01*
X018052Y006155D02*
X000700Y006155D01*
X000700Y008339D02*
X024604Y008339D01*
X024667Y008276D02*
X024851Y008200D01*
X025049Y008200D01*
X025233Y008276D01*
X025374Y008417D01*
X025450Y008601D01*
X025450Y008799D01*
X025374Y008983D01*
X025233Y009124D01*
X025049Y009200D01*
X024851Y009200D01*
X024667Y009124D01*
X024526Y008983D01*
X024450Y008799D01*
X024450Y008601D01*
X024526Y008417D01*
X024667Y008276D01*
X024476Y008537D02*
X000700Y008537D01*
X000700Y008736D02*
X024450Y008736D01*
X024506Y008934D02*
X000700Y008934D01*
X000700Y009133D02*
X024688Y009133D01*
X025212Y009133D02*
X027859Y009133D01*
X027802Y009331D02*
X000700Y009331D01*
X000700Y009530D02*
X027843Y009530D01*
X028072Y009728D02*
X000700Y009728D01*
X000700Y009927D02*
X041811Y009927D01*
X041800Y009728D02*
X028328Y009728D01*
X028557Y009530D02*
X041871Y009530D01*
X041918Y010125D02*
X000700Y010125D01*
X000700Y010324D02*
X051820Y010324D01*
X051802Y010125D02*
X042682Y010125D01*
X042789Y009927D02*
X051910Y009927D01*
X051959Y010522D02*
X000700Y010522D01*
X000700Y013500D02*
X026406Y013500D01*
X026374Y013512D02*
X026521Y013452D01*
X026679Y013452D01*
X026826Y013512D01*
X026938Y013624D01*
X026998Y013771D01*
X026998Y013929D01*
X026938Y014076D01*
X026826Y014188D01*
X026679Y014248D01*
X026521Y014248D01*
X026374Y014188D01*
X026262Y014076D01*
X026202Y013929D01*
X026202Y013771D01*
X026262Y013624D01*
X026374Y013512D01*
X026232Y013698D02*
X000700Y013698D01*
X000700Y013897D02*
X026202Y013897D01*
X026282Y014095D02*
X006708Y014095D01*
X006738Y014124D02*
X006798Y014271D01*
X006798Y014429D01*
X006738Y014576D01*
X006626Y014688D01*
X006479Y014748D01*
X006321Y014748D01*
X006174Y014688D01*
X006074Y014587D01*
X006038Y014676D01*
X005926Y014788D01*
X005779Y014848D01*
X005621Y014848D01*
X005474Y014788D01*
X005362Y014676D01*
X005302Y014529D01*
X005302Y014371D01*
X005362Y014224D01*
X005474Y014112D01*
X005621Y014052D01*
X005779Y014052D01*
X005926Y014112D01*
X006026Y014213D01*
X006062Y014124D01*
X006174Y014012D01*
X006321Y013952D01*
X006479Y013952D01*
X006626Y014012D01*
X006738Y014124D01*
X006798Y014294D02*
X050060Y014294D01*
X050071Y014298D02*
X049924Y014238D01*
X049812Y014126D01*
X049752Y013979D01*
X049752Y013821D01*
X049812Y013674D01*
X049924Y013562D01*
X050071Y013502D01*
X050229Y013502D01*
X050376Y013562D01*
X050488Y013674D01*
X050548Y013821D01*
X050548Y013979D01*
X050488Y014126D01*
X050376Y014238D01*
X050229Y014298D01*
X050071Y014298D01*
X050240Y014294D02*
X091464Y014294D01*
X091425Y014310D02*
X091607Y014234D01*
X091804Y014234D01*
X091986Y014310D01*
X092125Y014449D01*
X092197Y014624D01*
X092269Y014449D01*
X092409Y014310D01*
X092591Y014234D01*
X092788Y014234D01*
X092970Y014310D01*
X093109Y014449D01*
X093181Y014624D01*
X093254Y014449D01*
X093393Y014310D01*
X093575Y014234D01*
X093772Y014234D01*
X093954Y014310D01*
X094093Y014449D01*
X094169Y014631D01*
X094169Y014828D01*
X094093Y015010D01*
X093954Y015150D01*
X093772Y015225D01*
X093575Y015225D01*
X093393Y015150D01*
X093254Y015010D01*
X093181Y014836D01*
X093109Y015010D01*
X092970Y015150D01*
X092788Y015225D01*
X092591Y015225D01*
X092409Y015150D01*
X092269Y015010D01*
X092197Y014836D01*
X092125Y015010D01*
X091986Y015150D01*
X091804Y015225D01*
X091607Y015225D01*
X091425Y015150D01*
X091285Y015010D01*
X091210Y014828D01*
X091210Y014631D01*
X091285Y014449D01*
X091425Y014310D01*
X091267Y014492D02*
X006772Y014492D01*
X006821Y014602D02*
X006979Y014602D01*
X007126Y014662D01*
X007238Y014774D01*
X007298Y014921D01*
X007298Y015079D01*
X007238Y015226D01*
X007126Y015338D01*
X006979Y015398D01*
X006821Y015398D01*
X006674Y015338D01*
X006562Y015226D01*
X006502Y015079D01*
X006502Y014921D01*
X006562Y014774D01*
X006674Y014662D01*
X006821Y014602D01*
X006646Y014691D02*
X006618Y014691D01*
X006515Y014889D02*
X000700Y014889D01*
X000700Y014691D02*
X005378Y014691D01*
X005302Y014492D02*
X000700Y014492D01*
X000700Y014294D02*
X005334Y014294D01*
X005517Y014095D02*
X000700Y014095D01*
X000700Y015088D02*
X006505Y015088D01*
X006623Y015286D02*
X000700Y015286D01*
X000700Y015485D02*
X008567Y015485D01*
X008585Y015439D02*
X008789Y015235D01*
X009056Y015125D01*
X009344Y015125D01*
X009611Y015235D01*
X009815Y015439D01*
X009925Y015706D01*
X009925Y015994D01*
X009815Y016261D01*
X009611Y016465D01*
X009344Y016575D01*
X009056Y016575D01*
X008789Y016465D01*
X008585Y016261D01*
X008475Y015994D01*
X008475Y015706D01*
X008585Y015439D01*
X008739Y015286D02*
X007177Y015286D01*
X007295Y015088D02*
X019366Y015088D01*
X019307Y015112D02*
X019562Y015006D01*
X019838Y015006D01*
X020093Y015112D01*
X020288Y015307D01*
X020394Y015562D01*
X020394Y015838D01*
X020288Y016093D01*
X020093Y016288D01*
X019838Y016394D01*
X019562Y016394D01*
X019307Y016288D01*
X019112Y016093D01*
X019006Y015838D01*
X019006Y015562D01*
X019112Y015307D01*
X019307Y015112D01*
X019133Y015286D02*
X011611Y015286D01*
X011561Y015235D02*
X011765Y015439D01*
X011875Y015706D01*
X011875Y015994D01*
X011765Y016261D01*
X011561Y016465D01*
X011294Y016575D01*
X011006Y016575D01*
X010739Y016465D01*
X010535Y016261D01*
X010425Y015994D01*
X010425Y015706D01*
X010535Y015439D01*
X010739Y015235D01*
X011006Y015125D01*
X011294Y015125D01*
X011561Y015235D01*
X011783Y015485D02*
X019038Y015485D01*
X019006Y015683D02*
X011866Y015683D01*
X011875Y015882D02*
X019024Y015882D01*
X019107Y016080D02*
X011839Y016080D01*
X011747Y016279D02*
X019297Y016279D01*
X020103Y016279D02*
X028053Y016279D01*
X028035Y016261D02*
X027925Y015994D01*
X027925Y015706D01*
X028035Y015439D01*
X028239Y015235D01*
X028506Y015125D01*
X028794Y015125D01*
X029061Y015235D01*
X029265Y015439D01*
X029375Y015706D01*
X029375Y015994D01*
X029265Y016261D01*
X029061Y016465D01*
X028794Y016575D01*
X028506Y016575D01*
X028239Y016465D01*
X028035Y016261D01*
X027961Y016080D02*
X020293Y016080D01*
X020376Y015882D02*
X027925Y015882D01*
X027934Y015683D02*
X020394Y015683D01*
X020362Y015485D02*
X028017Y015485D01*
X028189Y015286D02*
X020267Y015286D01*
X020034Y015088D02*
X036866Y015088D01*
X036807Y015112D02*
X037062Y015006D01*
X037338Y015006D01*
X037593Y015112D01*
X037788Y015307D01*
X037894Y015562D01*
X037894Y015838D01*
X037788Y016093D01*
X037593Y016288D01*
X037338Y016394D01*
X037062Y016394D01*
X036807Y016288D01*
X036612Y016093D01*
X036506Y015838D01*
X036506Y015562D01*
X036612Y015307D01*
X036807Y015112D01*
X036633Y015286D02*
X029111Y015286D01*
X029283Y015485D02*
X036538Y015485D01*
X036506Y015683D02*
X029366Y015683D01*
X029375Y015882D02*
X036524Y015882D01*
X036607Y016080D02*
X029339Y016080D01*
X029247Y016279D02*
X036797Y016279D01*
X037603Y016279D02*
X050553Y016279D01*
X050535Y016261D02*
X050425Y015994D01*
X050425Y015706D01*
X050535Y015439D01*
X050739Y015235D01*
X051006Y015125D01*
X051294Y015125D01*
X051561Y015235D01*
X051765Y015439D01*
X051875Y015706D01*
X051875Y015994D01*
X051765Y016261D01*
X051561Y016465D01*
X051294Y016575D01*
X051006Y016575D01*
X050739Y016465D01*
X050535Y016261D01*
X050461Y016080D02*
X037793Y016080D01*
X037876Y015882D02*
X050425Y015882D01*
X050434Y015683D02*
X037894Y015683D01*
X037862Y015485D02*
X050517Y015485D01*
X050689Y015286D02*
X037767Y015286D01*
X037534Y015088D02*
X059366Y015088D01*
X059307Y015112D02*
X059562Y015006D01*
X059838Y015006D01*
X060093Y015112D01*
X060288Y015307D01*
X060394Y015562D01*
X060394Y015838D01*
X060288Y016093D01*
X060093Y016288D01*
X059838Y016394D01*
X059562Y016394D01*
X059307Y016288D01*
X059112Y016093D01*
X059006Y015838D01*
X059006Y015562D01*
X059112Y015307D01*
X059307Y015112D01*
X059133Y015286D02*
X051611Y015286D01*
X051783Y015485D02*
X059038Y015485D01*
X059006Y015683D02*
X051866Y015683D01*
X051875Y015882D02*
X059024Y015882D01*
X059107Y016080D02*
X051839Y016080D01*
X051747Y016279D02*
X059297Y016279D01*
X060103Y016279D02*
X066103Y016279D01*
X066085Y016261D02*
X065975Y015994D01*
X065975Y015706D01*
X066085Y015439D01*
X066289Y015235D01*
X066556Y015125D01*
X066844Y015125D01*
X067111Y015235D01*
X067315Y015439D01*
X067425Y015706D01*
X067425Y015994D01*
X067315Y016261D01*
X067111Y016465D01*
X066844Y016575D01*
X066556Y016575D01*
X066289Y016465D01*
X066085Y016261D01*
X066011Y016080D02*
X060293Y016080D01*
X060376Y015882D02*
X065975Y015882D01*
X065984Y015683D02*
X060394Y015683D01*
X060362Y015485D02*
X066067Y015485D01*
X066239Y015286D02*
X060267Y015286D01*
X060034Y015088D02*
X076866Y015088D01*
X076807Y015112D02*
X077062Y015006D01*
X077338Y015006D01*
X077593Y015112D01*
X077788Y015307D01*
X077894Y015562D01*
X077894Y015838D01*
X077788Y016093D01*
X077593Y016288D01*
X077338Y016394D01*
X077062Y016394D01*
X076807Y016288D01*
X076612Y016093D01*
X076506Y015838D01*
X076506Y015562D01*
X076612Y015307D01*
X076807Y015112D01*
X076633Y015286D02*
X069111Y015286D01*
X069061Y015235D02*
X069265Y015439D01*
X069375Y015706D01*
X069375Y015994D01*
X069265Y016261D01*
X069061Y016465D01*
X068794Y016575D01*
X068506Y016575D01*
X068239Y016465D01*
X068035Y016261D01*
X067925Y015994D01*
X067925Y015706D01*
X068035Y015439D01*
X068239Y015235D01*
X068506Y015125D01*
X068794Y015125D01*
X069061Y015235D01*
X069283Y015485D02*
X076538Y015485D01*
X076506Y015683D02*
X069366Y015683D01*
X069375Y015882D02*
X076524Y015882D01*
X076607Y016080D02*
X069339Y016080D01*
X069247Y016279D02*
X076797Y016279D01*
X077603Y016279D02*
X119700Y016279D01*
X119700Y016477D02*
X069031Y016477D01*
X068269Y016477D02*
X067081Y016477D01*
X067297Y016279D02*
X068053Y016279D01*
X067961Y016080D02*
X067389Y016080D01*
X067425Y015882D02*
X067925Y015882D01*
X067934Y015683D02*
X067416Y015683D01*
X067333Y015485D02*
X068017Y015485D01*
X068189Y015286D02*
X067161Y015286D01*
X066319Y016477D02*
X051531Y016477D01*
X050769Y016477D02*
X029031Y016477D01*
X028269Y016477D02*
X011531Y016477D01*
X010769Y016477D02*
X009581Y016477D01*
X009797Y016279D02*
X010553Y016279D01*
X010461Y016080D02*
X009889Y016080D01*
X009925Y015882D02*
X010425Y015882D01*
X010434Y015683D02*
X009916Y015683D01*
X009833Y015485D02*
X010517Y015485D01*
X010689Y015286D02*
X009661Y015286D01*
X008484Y015683D02*
X000700Y015683D01*
X000700Y015882D02*
X008475Y015882D01*
X008511Y016080D02*
X000700Y016080D01*
X000700Y016279D02*
X008603Y016279D01*
X008819Y016477D02*
X000700Y016477D01*
X000700Y016676D02*
X119700Y016676D01*
X119700Y016874D02*
X095418Y016874D01*
X095477Y016898D02*
X095737Y017159D01*
X095878Y017498D01*
X095878Y017866D01*
X095737Y018206D01*
X095477Y018467D01*
X095137Y018607D01*
X094769Y018607D01*
X094429Y018467D01*
X094169Y018206D01*
X094028Y017866D01*
X094028Y017498D01*
X094169Y017159D01*
X094429Y016898D01*
X094769Y016757D01*
X095137Y016757D01*
X095477Y016898D01*
X095651Y017073D02*
X119700Y017073D01*
X119700Y017271D02*
X095784Y017271D01*
X095866Y017470D02*
X119700Y017470D01*
X119700Y017668D02*
X095878Y017668D01*
X095878Y017867D02*
X119700Y017867D01*
X119700Y018065D02*
X095796Y018065D01*
X095680Y018264D02*
X119700Y018264D01*
X119700Y018462D02*
X095482Y018462D01*
X094425Y018462D02*
X090954Y018462D01*
X090950Y018467D02*
X090610Y018607D01*
X090242Y018607D01*
X089902Y018467D01*
X089641Y018206D01*
X089501Y017866D01*
X089501Y017498D01*
X089641Y017159D01*
X089902Y016898D01*
X090242Y016757D01*
X090610Y016757D01*
X090950Y016898D01*
X091210Y017159D01*
X091351Y017498D01*
X091351Y017866D01*
X091210Y018206D01*
X090950Y018467D01*
X091153Y018264D02*
X094226Y018264D01*
X094110Y018065D02*
X091268Y018065D01*
X091351Y017867D02*
X094028Y017867D01*
X094028Y017668D02*
X091351Y017668D01*
X091339Y017470D02*
X094040Y017470D01*
X094122Y017271D02*
X091256Y017271D01*
X091124Y017073D02*
X094255Y017073D01*
X094488Y016874D02*
X090891Y016874D01*
X089960Y016874D02*
X007037Y016874D01*
X007026Y016862D02*
X007138Y016974D01*
X007198Y017121D01*
X007198Y017279D01*
X007138Y017426D01*
X007026Y017538D01*
X006879Y017598D01*
X006721Y017598D01*
X006574Y017538D01*
X006462Y017426D01*
X006402Y017279D01*
X006402Y017121D01*
X006462Y016974D01*
X006574Y016862D01*
X006721Y016802D01*
X006879Y016802D01*
X007026Y016862D01*
X007178Y017073D02*
X008870Y017073D01*
X008839Y017085D02*
X009106Y016975D01*
X009394Y016975D01*
X009661Y017085D01*
X009865Y017289D01*
X009975Y017556D01*
X009975Y017844D01*
X009865Y018111D01*
X009661Y018315D01*
X009394Y018425D01*
X009106Y018425D01*
X008839Y018315D01*
X008635Y018111D01*
X008525Y017844D01*
X008525Y017556D01*
X008635Y017289D01*
X008839Y017085D01*
X008654Y017271D02*
X007198Y017271D01*
X007093Y017470D02*
X008561Y017470D01*
X008525Y017668D02*
X000700Y017668D01*
X000700Y017470D02*
X006507Y017470D01*
X006402Y017271D02*
X000700Y017271D01*
X000700Y017073D02*
X006422Y017073D01*
X006563Y016874D02*
X000700Y016874D01*
X000700Y017867D02*
X008534Y017867D01*
X008616Y018065D02*
X000700Y018065D01*
X000700Y018264D02*
X008788Y018264D01*
X009712Y018264D02*
X010688Y018264D01*
X010739Y018315D02*
X010535Y018111D01*
X010425Y017844D01*
X010425Y017556D01*
X010535Y017289D01*
X010739Y017085D01*
X011006Y016975D01*
X011294Y016975D01*
X011561Y017085D01*
X011765Y017289D01*
X011875Y017556D01*
X011875Y017844D01*
X011765Y018111D01*
X011561Y018315D01*
X011294Y018425D01*
X011006Y018425D01*
X010739Y018315D01*
X010516Y018065D02*
X009884Y018065D01*
X009966Y017867D02*
X010434Y017867D01*
X010425Y017668D02*
X009975Y017668D01*
X009939Y017470D02*
X010461Y017470D01*
X010554Y017271D02*
X009846Y017271D01*
X009630Y017073D02*
X010770Y017073D01*
X011530Y017073D02*
X026370Y017073D01*
X026339Y017085D02*
X026606Y016975D01*
X026894Y016975D01*
X027161Y017085D01*
X027365Y017289D01*
X027475Y017556D01*
X027475Y017844D01*
X027365Y018111D01*
X027161Y018315D01*
X026894Y018425D01*
X026606Y018425D01*
X026339Y018315D01*
X026135Y018111D01*
X026025Y017844D01*
X026025Y017556D01*
X026135Y017289D01*
X026339Y017085D01*
X026154Y017271D02*
X017959Y017271D01*
X017981Y017280D02*
X017799Y017205D01*
X017601Y017205D01*
X017419Y017280D01*
X017280Y017419D01*
X017205Y017601D01*
X017205Y017799D01*
X017280Y017981D01*
X017419Y018120D01*
X017601Y018195D01*
X017799Y018195D01*
X017981Y018120D01*
X018120Y017981D01*
X018195Y017799D01*
X018195Y017601D01*
X018120Y017419D01*
X017981Y017280D01*
X018141Y017470D02*
X026061Y017470D01*
X026025Y017668D02*
X018195Y017668D01*
X018167Y017867D02*
X026034Y017867D01*
X026116Y018065D02*
X018035Y018065D01*
X017365Y018065D02*
X011784Y018065D01*
X011866Y017867D02*
X017233Y017867D01*
X017205Y017668D02*
X011875Y017668D01*
X011839Y017470D02*
X017259Y017470D01*
X017441Y017271D02*
X011746Y017271D01*
X011612Y018264D02*
X026288Y018264D01*
X027212Y018264D02*
X028188Y018264D01*
X028239Y018315D02*
X028035Y018111D01*
X027925Y017844D01*
X027925Y017556D01*
X028035Y017289D01*
X028239Y017085D01*
X028506Y016975D01*
X028794Y016975D01*
X029061Y017085D01*
X029265Y017289D01*
X029375Y017556D01*
X029375Y017844D01*
X029265Y018111D01*
X029061Y018315D01*
X028794Y018425D01*
X028506Y018425D01*
X028239Y018315D01*
X028016Y018065D02*
X027384Y018065D01*
X027466Y017867D02*
X027934Y017867D01*
X027925Y017668D02*
X027475Y017668D01*
X027439Y017470D02*
X027961Y017470D01*
X028054Y017271D02*
X027346Y017271D01*
X027130Y017073D02*
X028270Y017073D01*
X029030Y017073D02*
X048870Y017073D01*
X048839Y017085D02*
X049106Y016975D01*
X049394Y016975D01*
X049661Y017085D01*
X049865Y017289D01*
X049975Y017556D01*
X049975Y017844D01*
X049865Y018111D01*
X049661Y018315D01*
X049394Y018425D01*
X049106Y018425D01*
X048839Y018315D01*
X048635Y018111D01*
X048525Y017844D01*
X048525Y017556D01*
X048635Y017289D01*
X048839Y017085D01*
X048654Y017271D02*
X035459Y017271D01*
X035481Y017280D02*
X035299Y017205D01*
X035101Y017205D01*
X034919Y017280D01*
X034780Y017419D01*
X034705Y017601D01*
X034705Y017799D01*
X034780Y017981D01*
X034919Y018120D01*
X035101Y018195D01*
X035299Y018195D01*
X035481Y018120D01*
X035620Y017981D01*
X035695Y017799D01*
X035695Y017601D01*
X035620Y017419D01*
X035481Y017280D01*
X035641Y017470D02*
X048561Y017470D01*
X048525Y017668D02*
X035695Y017668D01*
X035667Y017867D02*
X048534Y017867D01*
X048616Y018065D02*
X035535Y018065D01*
X034865Y018065D02*
X029284Y018065D01*
X029366Y017867D02*
X034733Y017867D01*
X034705Y017668D02*
X029375Y017668D01*
X029339Y017470D02*
X034759Y017470D01*
X034941Y017271D02*
X029246Y017271D01*
X029112Y018264D02*
X048788Y018264D01*
X049712Y018264D02*
X050688Y018264D01*
X050739Y018315D02*
X050535Y018111D01*
X050425Y017844D01*
X050425Y017556D01*
X050535Y017289D01*
X050739Y017085D01*
X051006Y016975D01*
X051294Y016975D01*
X051561Y017085D01*
X051765Y017289D01*
X051875Y017556D01*
X051875Y017844D01*
X051765Y018111D01*
X051561Y018315D01*
X051294Y018425D01*
X051006Y018425D01*
X050739Y018315D01*
X050516Y018065D02*
X049884Y018065D01*
X049966Y017867D02*
X050434Y017867D01*
X050425Y017668D02*
X049975Y017668D01*
X049939Y017470D02*
X050461Y017470D01*
X050554Y017271D02*
X049846Y017271D01*
X049630Y017073D02*
X050770Y017073D01*
X051530Y017073D02*
X066370Y017073D01*
X066339Y017085D02*
X066606Y016975D01*
X066894Y016975D01*
X067161Y017085D01*
X067365Y017289D01*
X067475Y017556D01*
X067475Y017844D01*
X067365Y018111D01*
X067161Y018315D01*
X066894Y018425D01*
X066606Y018425D01*
X066339Y018315D01*
X066135Y018111D01*
X066025Y017844D01*
X066025Y017556D01*
X066135Y017289D01*
X066339Y017085D01*
X066154Y017271D02*
X057959Y017271D01*
X057981Y017280D02*
X057799Y017205D01*
X057601Y017205D01*
X057419Y017280D01*
X057280Y017419D01*
X057205Y017601D01*
X057205Y017799D01*
X057280Y017981D01*
X057419Y018120D01*
X057601Y018195D01*
X057799Y018195D01*
X057981Y018120D01*
X058120Y017981D01*
X058195Y017799D01*
X058195Y017601D01*
X058120Y017419D01*
X057981Y017280D01*
X058141Y017470D02*
X066061Y017470D01*
X066025Y017668D02*
X058195Y017668D01*
X058167Y017867D02*
X066034Y017867D01*
X066116Y018065D02*
X058035Y018065D01*
X057365Y018065D02*
X051784Y018065D01*
X051866Y017867D02*
X057233Y017867D01*
X057205Y017668D02*
X051875Y017668D01*
X051839Y017470D02*
X057259Y017470D01*
X057441Y017271D02*
X051746Y017271D01*
X051612Y018264D02*
X066288Y018264D01*
X067212Y018264D02*
X068188Y018264D01*
X068239Y018315D02*
X068035Y018111D01*
X067925Y017844D01*
X067925Y017556D01*
X068035Y017289D01*
X068239Y017085D01*
X068506Y016975D01*
X068794Y016975D01*
X069061Y017085D01*
X069265Y017289D01*
X069375Y017556D01*
X069375Y017844D01*
X069265Y018111D01*
X069061Y018315D01*
X068794Y018425D01*
X068506Y018425D01*
X068239Y018315D01*
X068016Y018065D02*
X067384Y018065D01*
X067466Y017867D02*
X067934Y017867D01*
X067925Y017668D02*
X067475Y017668D01*
X067439Y017470D02*
X067961Y017470D01*
X068054Y017271D02*
X067346Y017271D01*
X067130Y017073D02*
X068270Y017073D01*
X069030Y017073D02*
X089727Y017073D01*
X089595Y017271D02*
X076459Y017271D01*
X076481Y017280D02*
X076299Y017205D01*
X076101Y017205D01*
X075919Y017280D01*
X075780Y017419D01*
X075705Y017601D01*
X075705Y017799D01*
X075780Y017981D01*
X075919Y018120D01*
X076101Y018195D01*
X076299Y018195D01*
X076481Y018120D01*
X076620Y017981D01*
X076695Y017799D01*
X076695Y017601D01*
X076620Y017419D01*
X076481Y017280D01*
X076641Y017470D02*
X089513Y017470D01*
X089501Y017668D02*
X076695Y017668D01*
X076667Y017867D02*
X089501Y017867D01*
X089583Y018065D02*
X076535Y018065D01*
X075865Y018065D02*
X075535Y018065D01*
X075481Y018120D02*
X075299Y018195D01*
X075101Y018195D01*
X074919Y018120D01*
X074780Y017981D01*
X074705Y017799D01*
X074705Y017601D01*
X074780Y017419D01*
X074919Y017280D01*
X075101Y017205D01*
X075299Y017205D01*
X075481Y017280D01*
X075620Y017419D01*
X075695Y017601D01*
X075695Y017799D01*
X075620Y017981D01*
X075481Y018120D01*
X075667Y017867D02*
X075733Y017867D01*
X075705Y017668D02*
X075695Y017668D01*
X075641Y017470D02*
X075759Y017470D01*
X075941Y017271D02*
X075459Y017271D01*
X074941Y017271D02*
X069246Y017271D01*
X069339Y017470D02*
X074759Y017470D01*
X074705Y017668D02*
X069375Y017668D01*
X069366Y017867D02*
X074733Y017867D01*
X074865Y018065D02*
X069284Y018065D01*
X069112Y018264D02*
X089698Y018264D01*
X089897Y018462D02*
X000700Y018462D01*
X000700Y018661D02*
X119700Y018661D01*
X119700Y018859D02*
X068876Y018859D01*
X068794Y018825D02*
X069061Y018935D01*
X069265Y019139D01*
X069375Y019406D01*
X069375Y019694D01*
X069265Y019961D01*
X069061Y020165D01*
X068794Y020275D01*
X068506Y020275D01*
X068239Y020165D01*
X068035Y019961D01*
X067925Y019694D01*
X067925Y019406D01*
X068035Y019139D01*
X068239Y018935D01*
X068506Y018825D01*
X068794Y018825D01*
X068424Y018859D02*
X049476Y018859D01*
X049394Y018825D02*
X049661Y018935D01*
X049865Y019139D01*
X049975Y019406D01*
X049975Y019694D01*
X049865Y019961D01*
X049661Y020165D01*
X049394Y020275D01*
X049106Y020275D01*
X048839Y020165D01*
X048635Y019961D01*
X048525Y019694D01*
X048525Y019406D01*
X048635Y019139D01*
X048839Y018935D01*
X049106Y018825D01*
X049394Y018825D01*
X049024Y018859D02*
X026976Y018859D01*
X026894Y018825D02*
X027161Y018935D01*
X027365Y019139D01*
X027475Y019406D01*
X027475Y019694D01*
X027365Y019961D01*
X027161Y020165D01*
X026894Y020275D01*
X026606Y020275D01*
X026339Y020165D01*
X026135Y019961D01*
X026025Y019694D01*
X026025Y019406D01*
X026135Y019139D01*
X026339Y018935D01*
X026606Y018825D01*
X026894Y018825D01*
X026524Y018859D02*
X011376Y018859D01*
X011294Y018825D02*
X011561Y018935D01*
X011765Y019139D01*
X011875Y019406D01*
X011875Y019694D01*
X011765Y019961D01*
X011561Y020165D01*
X011294Y020275D01*
X011006Y020275D01*
X010739Y020165D01*
X010535Y019961D01*
X010425Y019694D01*
X010425Y019406D01*
X010535Y019139D01*
X010739Y018935D01*
X011006Y018825D01*
X011294Y018825D01*
X010924Y018859D02*
X000700Y018859D01*
X000700Y019058D02*
X010617Y019058D01*
X010487Y019256D02*
X000700Y019256D01*
X000700Y019455D02*
X010425Y019455D01*
X010425Y019653D02*
X000700Y019653D01*
X000700Y019852D02*
X010490Y019852D01*
X010625Y020050D02*
X000700Y020050D01*
X000700Y020249D02*
X010942Y020249D01*
X011358Y020249D02*
X015267Y020249D01*
X015307Y020288D02*
X015112Y020093D01*
X015006Y019838D01*
X015006Y019562D01*
X015112Y019307D01*
X015307Y019112D01*
X015562Y019006D01*
X015838Y019006D01*
X016093Y019112D01*
X016288Y019307D01*
X016394Y019562D01*
X016394Y019838D01*
X016288Y020093D01*
X016093Y020288D01*
X015838Y020394D01*
X015562Y020394D01*
X015307Y020288D01*
X015094Y020050D02*
X011675Y020050D01*
X011810Y019852D02*
X015012Y019852D01*
X015006Y019653D02*
X011875Y019653D01*
X011875Y019455D02*
X015051Y019455D01*
X015163Y019256D02*
X011813Y019256D01*
X011683Y019058D02*
X015438Y019058D01*
X015962Y019058D02*
X026217Y019058D01*
X026087Y019256D02*
X016237Y019256D01*
X016349Y019455D02*
X026025Y019455D01*
X026025Y019653D02*
X016394Y019653D01*
X016388Y019852D02*
X026090Y019852D01*
X026225Y020050D02*
X016306Y020050D01*
X016133Y020249D02*
X026542Y020249D01*
X026958Y020249D02*
X032767Y020249D01*
X032807Y020288D02*
X032612Y020093D01*
X032506Y019838D01*
X032506Y019562D01*
X032612Y019307D01*
X032807Y019112D01*
X033062Y019006D01*
X033338Y019006D01*
X033593Y019112D01*
X033788Y019307D01*
X033894Y019562D01*
X033894Y019838D01*
X033788Y020093D01*
X033593Y020288D01*
X033338Y020394D01*
X033062Y020394D01*
X032807Y020288D01*
X032594Y020050D02*
X027275Y020050D01*
X027410Y019852D02*
X032512Y019852D01*
X032506Y019653D02*
X027475Y019653D01*
X027475Y019455D02*
X032551Y019455D01*
X032663Y019256D02*
X027413Y019256D01*
X027283Y019058D02*
X032938Y019058D01*
X033462Y019058D02*
X048717Y019058D01*
X048587Y019256D02*
X033737Y019256D01*
X033849Y019455D02*
X048525Y019455D01*
X048525Y019653D02*
X033894Y019653D01*
X033888Y019852D02*
X048590Y019852D01*
X048725Y020050D02*
X033806Y020050D01*
X033633Y020249D02*
X049042Y020249D01*
X049458Y020249D02*
X055267Y020249D01*
X055307Y020288D02*
X055112Y020093D01*
X055006Y019838D01*
X055006Y019562D01*
X055112Y019307D01*
X055307Y019112D01*
X055562Y019006D01*
X055838Y019006D01*
X056093Y019112D01*
X056288Y019307D01*
X056394Y019562D01*
X056394Y019838D01*
X056288Y020093D01*
X056093Y020288D01*
X055838Y020394D01*
X055562Y020394D01*
X055307Y020288D01*
X055094Y020050D02*
X049775Y020050D01*
X049910Y019852D02*
X055012Y019852D01*
X055006Y019653D02*
X049975Y019653D01*
X049975Y019455D02*
X055051Y019455D01*
X055163Y019256D02*
X049913Y019256D01*
X049783Y019058D02*
X055438Y019058D01*
X055962Y019058D02*
X068117Y019058D01*
X067987Y019256D02*
X056237Y019256D01*
X056349Y019455D02*
X067925Y019455D01*
X067925Y019653D02*
X056394Y019653D01*
X056388Y019852D02*
X067990Y019852D01*
X068125Y020050D02*
X056306Y020050D01*
X056133Y020249D02*
X068442Y020249D01*
X068858Y020249D02*
X072767Y020249D01*
X072807Y020288D02*
X072612Y020093D01*
X072506Y019838D01*
X072506Y019562D01*
X072612Y019307D01*
X072807Y019112D01*
X073062Y019006D01*
X073338Y019006D01*
X073593Y019112D01*
X073788Y019307D01*
X073894Y019562D01*
X073894Y019838D01*
X073788Y020093D01*
X073593Y020288D01*
X073338Y020394D01*
X073062Y020394D01*
X072807Y020288D01*
X072594Y020050D02*
X069175Y020050D01*
X069310Y019852D02*
X072512Y019852D01*
X072506Y019653D02*
X069375Y019653D01*
X069375Y019455D02*
X072551Y019455D01*
X072663Y019256D02*
X069313Y019256D01*
X069183Y019058D02*
X072938Y019058D01*
X073462Y019058D02*
X083786Y019058D01*
X083774Y019062D02*
X083921Y019002D01*
X084079Y019002D01*
X084226Y019062D01*
X084338Y019174D01*
X084398Y019321D01*
X084398Y019479D01*
X084338Y019626D01*
X084226Y019738D01*
X084079Y019798D01*
X083921Y019798D01*
X083774Y019738D01*
X083662Y019626D01*
X083602Y019479D01*
X083602Y019321D01*
X083662Y019174D01*
X083774Y019062D01*
X083629Y019256D02*
X083319Y019256D01*
X083338Y019274D02*
X083398Y019421D01*
X083398Y019579D01*
X083338Y019726D01*
X083226Y019838D01*
X083079Y019898D01*
X082921Y019898D01*
X082774Y019838D01*
X082662Y019726D01*
X082602Y019579D01*
X082602Y019421D01*
X082662Y019274D01*
X082774Y019162D01*
X082921Y019102D01*
X083079Y019102D01*
X083226Y019162D01*
X083338Y019274D01*
X083398Y019455D02*
X083602Y019455D01*
X083690Y019653D02*
X083368Y019653D01*
X083192Y019852D02*
X084802Y019852D01*
X084802Y019821D02*
X084862Y019674D01*
X084974Y019562D01*
X085121Y019502D01*
X085279Y019502D01*
X085426Y019562D01*
X085538Y019674D01*
X085598Y019821D01*
X085598Y019979D01*
X085538Y020126D01*
X085426Y020238D01*
X085279Y020298D01*
X085121Y020298D01*
X085082Y020282D01*
X085098Y020321D01*
X085098Y020479D01*
X085038Y020626D01*
X084926Y020738D01*
X084779Y020798D01*
X084621Y020798D01*
X084474Y020738D01*
X084362Y020626D01*
X084302Y020479D01*
X084302Y020321D01*
X084362Y020174D01*
X084474Y020062D01*
X084621Y020002D01*
X084779Y020002D01*
X084818Y020018D01*
X084802Y019979D01*
X084802Y019821D01*
X084884Y019653D02*
X084310Y019653D01*
X084398Y019455D02*
X119700Y019455D01*
X119700Y019653D02*
X085516Y019653D01*
X085598Y019852D02*
X119700Y019852D01*
X119700Y020050D02*
X093986Y020050D01*
X093954Y020019D02*
X094093Y020158D01*
X094169Y020340D01*
X094169Y020537D01*
X094093Y020719D01*
X093954Y020858D01*
X093772Y020934D01*
X093575Y020934D01*
X093393Y020858D01*
X093254Y020719D01*
X093178Y020537D01*
X093178Y020340D01*
X093254Y020158D01*
X093393Y020019D01*
X093575Y019943D01*
X093772Y019943D01*
X093954Y020019D01*
X094131Y020249D02*
X119700Y020249D01*
X119700Y020447D02*
X115847Y020447D01*
X115918Y020476D02*
X116068Y020627D01*
X116150Y020824D01*
X116150Y021037D01*
X116068Y021234D01*
X115918Y021385D01*
X115720Y021467D01*
X115507Y021467D01*
X115310Y021385D01*
X115159Y021234D01*
X115078Y021037D01*
X115078Y020824D01*
X115159Y020627D01*
X115310Y020476D01*
X115507Y020394D01*
X115720Y020394D01*
X115918Y020476D01*
X116076Y020646D02*
X119700Y020646D01*
X119700Y020844D02*
X116150Y020844D01*
X116148Y021043D02*
X119700Y021043D01*
X119700Y021241D02*
X116062Y021241D01*
X115787Y021440D02*
X117113Y021440D01*
X117165Y021409D02*
X117518Y021315D01*
X117882Y021315D01*
X118235Y021409D01*
X118550Y021592D01*
X118808Y021850D01*
X118991Y022165D01*
X119085Y022518D01*
X119085Y022882D01*
X118991Y023235D01*
X118808Y023550D01*
X118550Y023808D01*
X118235Y023991D01*
X117882Y024085D01*
X117518Y024085D01*
X117165Y023991D01*
X116850Y023808D01*
X116592Y023550D01*
X116409Y023235D01*
X116315Y022882D01*
X116315Y022518D01*
X116409Y022165D01*
X116592Y021850D01*
X116850Y021592D01*
X117165Y021409D01*
X116803Y021638D02*
X081674Y021638D01*
X081676Y021638D02*
X081529Y021698D01*
X081371Y021698D01*
X081224Y021638D01*
X081112Y021526D01*
X081052Y021379D01*
X081052Y021221D01*
X081061Y021198D01*
X081021Y021198D01*
X080874Y021138D01*
X080762Y021026D01*
X080702Y020879D01*
X080702Y020721D01*
X080762Y020574D01*
X080874Y020462D01*
X081021Y020402D01*
X081179Y020402D01*
X081326Y020462D01*
X081438Y020574D01*
X081498Y020721D01*
X081498Y020879D01*
X081489Y020902D01*
X081529Y020902D01*
X081676Y020962D01*
X081788Y021074D01*
X081848Y021221D01*
X081848Y021379D01*
X081788Y021526D01*
X081676Y021638D01*
X081823Y021440D02*
X099614Y021440D01*
X099680Y021467D02*
X099483Y021385D01*
X099332Y021234D01*
X099251Y021037D01*
X099251Y020824D01*
X099332Y020627D01*
X099483Y020476D01*
X099680Y020394D01*
X099894Y020394D01*
X100091Y020476D01*
X100242Y020627D01*
X100323Y020824D01*
X100323Y021037D01*
X100242Y021234D01*
X100091Y021385D01*
X099894Y021467D01*
X099680Y021467D01*
X099960Y021440D02*
X115441Y021440D01*
X115166Y021241D02*
X100235Y021241D01*
X100321Y021043D02*
X115080Y021043D01*
X115078Y020844D02*
X100323Y020844D01*
X100249Y020646D02*
X115152Y020646D01*
X115380Y020447D02*
X100021Y020447D01*
X099554Y020447D02*
X094169Y020447D01*
X094124Y020646D02*
X099325Y020646D01*
X099251Y020844D02*
X093968Y020844D01*
X093379Y020844D02*
X092000Y020844D01*
X091986Y020858D02*
X091804Y020934D01*
X091607Y020934D01*
X091425Y020858D01*
X091285Y020719D01*
X091210Y020537D01*
X091210Y020340D01*
X091285Y020158D01*
X091425Y020019D01*
X091607Y019943D01*
X091804Y019943D01*
X091986Y020019D01*
X092125Y020158D01*
X092200Y020340D01*
X092200Y020537D01*
X092125Y020719D01*
X091986Y020858D01*
X092155Y020646D02*
X093223Y020646D01*
X093178Y020447D02*
X092200Y020447D01*
X092163Y020249D02*
X093216Y020249D01*
X093362Y020050D02*
X092017Y020050D01*
X091393Y020050D02*
X085569Y020050D01*
X085399Y020249D02*
X091248Y020249D01*
X091210Y020447D02*
X085098Y020447D01*
X085017Y020646D02*
X091255Y020646D01*
X091410Y020844D02*
X081498Y020844D01*
X081467Y020646D02*
X084383Y020646D01*
X084302Y020447D02*
X081288Y020447D01*
X080912Y020447D02*
X000700Y020447D01*
X000700Y020646D02*
X080733Y020646D01*
X080702Y020844D02*
X000700Y020844D01*
X000700Y021043D02*
X080780Y021043D01*
X081052Y021241D02*
X000700Y021241D01*
X000700Y021440D02*
X002113Y021440D01*
X002165Y021409D02*
X002518Y021315D01*
X002882Y021315D01*
X003235Y021409D01*
X003550Y021592D01*
X003808Y021850D01*
X003991Y022165D01*
X004085Y022518D01*
X004085Y022882D01*
X003991Y023235D01*
X003808Y023550D01*
X003550Y023808D01*
X003235Y023991D01*
X002882Y024085D01*
X002518Y024085D01*
X002165Y023991D01*
X001850Y023808D01*
X001592Y023550D01*
X001409Y023235D01*
X001315Y022882D01*
X001315Y022518D01*
X001409Y022165D01*
X001592Y021850D01*
X001850Y021592D01*
X002165Y021409D01*
X001803Y021638D02*
X000700Y021638D01*
X000700Y021837D02*
X001605Y021837D01*
X001485Y022035D02*
X000700Y022035D01*
X000700Y022234D02*
X001391Y022234D01*
X001338Y022432D02*
X000700Y022432D01*
X000700Y022631D02*
X001315Y022631D01*
X001315Y022829D02*
X000700Y022829D01*
X000700Y023028D02*
X001354Y023028D01*
X001407Y023226D02*
X000700Y023226D01*
X000700Y023425D02*
X001519Y023425D01*
X001664Y023623D02*
X000700Y023623D01*
X000700Y023822D02*
X001873Y023822D01*
X002275Y024020D02*
X000700Y024020D01*
X000700Y024219D02*
X119700Y024219D01*
X119700Y024417D02*
X000700Y024417D01*
X000700Y024616D02*
X119700Y024616D01*
X119700Y024020D02*
X118125Y024020D01*
X118527Y023822D02*
X119700Y023822D01*
X119700Y023623D02*
X118736Y023623D01*
X118881Y023425D02*
X119700Y023425D01*
X119700Y023226D02*
X118993Y023226D01*
X119046Y023028D02*
X119700Y023028D01*
X119700Y022829D02*
X119085Y022829D01*
X119085Y022631D02*
X119700Y022631D01*
X119700Y022432D02*
X119062Y022432D01*
X119009Y022234D02*
X119700Y022234D01*
X119700Y022035D02*
X118915Y022035D01*
X118795Y021837D02*
X119700Y021837D01*
X119700Y021638D02*
X118597Y021638D01*
X118287Y021440D02*
X119700Y021440D01*
X116605Y021837D02*
X003795Y021837D01*
X003915Y022035D02*
X086641Y022035D01*
X086574Y022062D02*
X086721Y022002D01*
X086879Y022002D01*
X087026Y022062D01*
X087138Y022174D01*
X087150Y022205D01*
X087162Y022174D01*
X087274Y022062D01*
X087421Y022002D01*
X087579Y022002D01*
X087726Y022062D01*
X087838Y022174D01*
X087898Y022321D01*
X087898Y022479D01*
X087838Y022626D01*
X087726Y022738D01*
X087579Y022798D01*
X087421Y022798D01*
X087274Y022738D01*
X087162Y022626D01*
X087150Y022595D01*
X087138Y022626D01*
X087026Y022738D01*
X086879Y022798D01*
X086721Y022798D01*
X086574Y022738D01*
X086462Y022626D01*
X086402Y022479D01*
X086402Y022321D01*
X086462Y022174D01*
X086574Y022062D01*
X086438Y022234D02*
X004009Y022234D01*
X004062Y022432D02*
X086402Y022432D01*
X086468Y022631D02*
X004085Y022631D01*
X004085Y022829D02*
X116315Y022829D01*
X116315Y022631D02*
X087832Y022631D01*
X087898Y022432D02*
X116338Y022432D01*
X116391Y022234D02*
X087862Y022234D01*
X087659Y022035D02*
X116485Y022035D01*
X116354Y023028D02*
X004046Y023028D01*
X003993Y023226D02*
X116407Y023226D01*
X116519Y023425D02*
X003881Y023425D01*
X003736Y023623D02*
X116664Y023623D01*
X116873Y023822D02*
X003527Y023822D01*
X003125Y024020D02*
X117275Y024020D01*
X099339Y021241D02*
X081848Y021241D01*
X081756Y021043D02*
X099253Y021043D01*
X087341Y022035D02*
X086959Y022035D01*
X087132Y022631D02*
X087168Y022631D01*
X081226Y021638D02*
X003597Y021638D01*
X003287Y021440D02*
X081077Y021440D01*
X081621Y020148D02*
X081474Y020088D01*
X081362Y019976D01*
X081302Y019829D01*
X081302Y019671D01*
X081362Y019524D01*
X081474Y019412D01*
X081621Y019352D01*
X081779Y019352D01*
X081926Y019412D01*
X082038Y019524D01*
X082098Y019671D01*
X082098Y019829D01*
X082038Y019976D01*
X081926Y020088D01*
X081779Y020148D01*
X081621Y020148D01*
X081437Y020050D02*
X073806Y020050D01*
X073888Y019852D02*
X081311Y019852D01*
X081309Y019653D02*
X073894Y019653D01*
X073849Y019455D02*
X081432Y019455D01*
X081968Y019455D02*
X082602Y019455D01*
X082632Y019653D02*
X082091Y019653D01*
X082089Y019852D02*
X082808Y019852D01*
X081963Y020050D02*
X084505Y020050D01*
X084332Y020249D02*
X073633Y020249D01*
X073737Y019256D02*
X082681Y019256D01*
X084213Y019058D02*
X119700Y019058D01*
X119700Y019256D02*
X084371Y019256D01*
X077793Y016080D02*
X119700Y016080D01*
X119700Y015882D02*
X077876Y015882D01*
X077894Y015683D02*
X081976Y015683D01*
X082017Y015724D02*
X081876Y015583D01*
X081800Y015399D01*
X081800Y015201D01*
X081876Y015017D01*
X082017Y014876D01*
X082201Y014800D01*
X082399Y014800D01*
X082583Y014876D01*
X082724Y015017D01*
X082800Y015201D01*
X082800Y015399D01*
X082724Y015583D01*
X082583Y015724D01*
X082399Y015800D01*
X082201Y015800D01*
X082017Y015724D01*
X081835Y015485D02*
X077862Y015485D01*
X077767Y015286D02*
X081800Y015286D01*
X081847Y015088D02*
X077534Y015088D01*
X082004Y014889D02*
X007285Y014889D01*
X007154Y014691D02*
X091210Y014691D01*
X091235Y014889D02*
X082596Y014889D01*
X082753Y015088D02*
X091362Y015088D01*
X092048Y015088D02*
X092347Y015088D01*
X092219Y014889D02*
X092175Y014889D01*
X092143Y014492D02*
X092252Y014492D01*
X092448Y014294D02*
X091946Y014294D01*
X092930Y014294D02*
X093433Y014294D01*
X093236Y014492D02*
X093127Y014492D01*
X093159Y014889D02*
X093204Y014889D01*
X093331Y015088D02*
X093032Y015088D01*
X094016Y015088D02*
X119700Y015088D01*
X119700Y015286D02*
X082800Y015286D01*
X082765Y015485D02*
X119700Y015485D01*
X119700Y015683D02*
X082624Y015683D01*
X077840Y013103D02*
X076160Y013103D01*
X076288Y012904D02*
X077712Y012904D01*
X077708Y012706D02*
X076857Y012706D01*
X076987Y012507D02*
X077830Y012507D01*
X076343Y012706D02*
X076292Y012706D01*
X067824Y011713D02*
X065384Y011713D01*
X065251Y011912D02*
X067706Y011912D01*
X064414Y012904D02*
X064248Y012904D01*
X064234Y012706D02*
X064200Y012706D01*
X050548Y013897D02*
X119700Y013897D01*
X119700Y014095D02*
X050500Y014095D01*
X049800Y014095D02*
X048468Y014095D01*
X048488Y014076D02*
X048376Y014188D01*
X048229Y014248D01*
X048071Y014248D01*
X047924Y014188D01*
X047812Y014076D01*
X047752Y013929D01*
X047752Y013771D01*
X047812Y013624D01*
X047924Y013512D01*
X048071Y013452D01*
X048229Y013452D01*
X048376Y013512D01*
X048488Y013624D01*
X048548Y013771D01*
X048548Y013929D01*
X048488Y014076D01*
X048548Y013897D02*
X049752Y013897D01*
X049803Y013698D02*
X048518Y013698D01*
X048344Y013500D02*
X119700Y013500D01*
X119700Y013698D02*
X050497Y013698D01*
X047956Y013500D02*
X028194Y013500D01*
X028226Y013512D02*
X028338Y013624D01*
X028398Y013771D01*
X028398Y013929D01*
X028338Y014076D01*
X028226Y014188D01*
X028079Y014248D01*
X027921Y014248D01*
X027774Y014188D01*
X027662Y014076D01*
X027602Y013929D01*
X027602Y013771D01*
X027662Y013624D01*
X027774Y013512D01*
X027921Y013452D01*
X028079Y013452D01*
X028226Y013512D01*
X028368Y013698D02*
X047782Y013698D01*
X047752Y013897D02*
X028398Y013897D01*
X028318Y014095D02*
X047832Y014095D01*
X027806Y013500D02*
X026794Y013500D01*
X026968Y013698D02*
X027632Y013698D01*
X027602Y013897D02*
X026998Y013897D01*
X026918Y014095D02*
X027682Y014095D01*
X006182Y014691D02*
X006022Y014691D01*
X006092Y014095D02*
X005883Y014095D01*
X025394Y008934D02*
X049471Y008934D01*
X049355Y008736D02*
X025450Y008736D01*
X025424Y008537D02*
X049366Y008537D01*
X049498Y008339D02*
X025296Y008339D01*
X070351Y009133D02*
X082060Y009133D01*
X081929Y009331D02*
X078349Y009331D01*
X078560Y009530D02*
X081900Y009530D01*
X081953Y009728D02*
X078598Y009728D01*
X078536Y009927D02*
X082123Y009927D01*
X082900Y009530D02*
X100344Y009530D01*
X100229Y009331D02*
X082871Y009331D01*
X082740Y009133D02*
X100215Y009133D01*
X100285Y008934D02*
X070436Y008934D01*
X080547Y006552D02*
X119700Y006552D01*
X119700Y006354D02*
X080598Y006354D01*
X080550Y006155D02*
X119700Y006155D01*
X119700Y005957D02*
X080290Y005957D01*
X101115Y008934D02*
X101285Y008934D01*
X101215Y009133D02*
X101185Y009133D01*
X101171Y009331D02*
X101229Y009331D01*
X101344Y009530D02*
X101056Y009530D01*
X102056Y009530D02*
X102344Y009530D01*
X102229Y009331D02*
X102171Y009331D01*
X102185Y009133D02*
X102215Y009133D01*
X102285Y008934D02*
X102115Y008934D01*
X103115Y008934D02*
X103285Y008934D01*
X103215Y009133D02*
X103185Y009133D01*
X103171Y009331D02*
X103229Y009331D01*
X103344Y009530D02*
X103056Y009530D01*
X104056Y009530D02*
X104344Y009530D01*
X104229Y009331D02*
X104171Y009331D01*
X104185Y009133D02*
X104215Y009133D01*
X104285Y008934D02*
X104115Y008934D01*
X105115Y008934D02*
X105285Y008934D01*
X105215Y009133D02*
X105185Y009133D01*
X105171Y009331D02*
X105229Y009331D01*
X105344Y009530D02*
X105056Y009530D01*
X106056Y009530D02*
X106344Y009530D01*
X106229Y009331D02*
X106171Y009331D01*
X106185Y009133D02*
X106215Y009133D01*
X106285Y008934D02*
X106115Y008934D01*
X107115Y008934D02*
X107285Y008934D01*
X107215Y009133D02*
X107185Y009133D01*
X107171Y009331D02*
X107229Y009331D01*
X107344Y009530D02*
X107056Y009530D01*
X108056Y009530D02*
X108344Y009530D01*
X108229Y009331D02*
X108171Y009331D01*
X108185Y009133D02*
X108215Y009133D01*
X108285Y008934D02*
X108115Y008934D01*
X109115Y008934D02*
X109285Y008934D01*
X109215Y009133D02*
X109185Y009133D01*
X109171Y009331D02*
X109229Y009331D01*
X109344Y009530D02*
X109056Y009530D01*
X110056Y009530D02*
X110344Y009530D01*
X110229Y009331D02*
X110171Y009331D01*
X110185Y009133D02*
X110215Y009133D01*
X110285Y008934D02*
X110115Y008934D01*
X111115Y008934D02*
X111285Y008934D01*
X111215Y009133D02*
X111185Y009133D01*
X111171Y009331D02*
X111229Y009331D01*
X111344Y009530D02*
X111056Y009530D01*
X112056Y009530D02*
X112344Y009530D01*
X112229Y009331D02*
X112171Y009331D01*
X112185Y009133D02*
X112215Y009133D01*
X112285Y008934D02*
X112115Y008934D01*
X113115Y008934D02*
X113285Y008934D01*
X113215Y009133D02*
X113185Y009133D01*
X113171Y009331D02*
X113229Y009331D01*
X113344Y009530D02*
X113056Y009530D01*
X114049Y008537D02*
X119700Y008537D01*
X119700Y008339D02*
X114168Y008339D01*
X114185Y008140D02*
X119700Y008140D01*
X119700Y007942D02*
X114118Y007942D01*
X107669Y011441D02*
X107498Y011370D01*
X107312Y011370D01*
X107141Y011441D01*
X107110Y011473D01*
X107078Y011441D01*
X106907Y011370D01*
X106722Y011370D01*
X106551Y011441D01*
X106519Y011473D01*
X106488Y011441D01*
X106317Y011370D01*
X106131Y011370D01*
X105960Y011441D01*
X105929Y011473D01*
X105897Y011441D01*
X105726Y011370D01*
X105541Y011370D01*
X105370Y011441D01*
X105338Y011473D01*
X105307Y011441D01*
X105136Y011370D01*
X104950Y011370D01*
X104779Y011441D01*
X104648Y011572D01*
X104577Y011744D01*
X104577Y011929D01*
X104648Y012100D01*
X104779Y012231D01*
X104950Y012302D01*
X105136Y012302D01*
X105307Y012231D01*
X105338Y012200D01*
X105370Y012231D01*
X105541Y012302D01*
X105726Y012302D01*
X105897Y012231D01*
X105929Y012200D01*
X105960Y012231D01*
X106131Y012302D01*
X106317Y012302D01*
X106488Y012231D01*
X106519Y012200D01*
X106551Y012231D01*
X106722Y012302D01*
X106907Y012302D01*
X107078Y012231D01*
X107110Y012200D01*
X107141Y012231D01*
X107312Y012302D01*
X107498Y012302D01*
X107669Y012231D01*
X107800Y012100D01*
X107871Y011929D01*
X107871Y011744D01*
X107800Y011572D01*
X107669Y011441D01*
X107742Y011515D02*
X108249Y011515D01*
X108133Y011713D02*
X107858Y011713D01*
X107871Y011912D02*
X108120Y011912D01*
X108201Y012110D02*
X107790Y012110D01*
X104658Y012110D02*
X100254Y012110D01*
X100323Y011912D02*
X104577Y011912D01*
X104590Y011713D02*
X100316Y011713D01*
X100224Y011515D02*
X104706Y011515D01*
X115138Y012904D02*
X119700Y012904D01*
X119700Y012706D02*
X115205Y012706D01*
X119700Y014294D02*
X093915Y014294D01*
X094111Y014492D02*
X119700Y014492D01*
X119700Y014691D02*
X094169Y014691D01*
X094144Y014889D02*
X119700Y014889D01*
D21*
X035400Y005550D03*
X033650Y005550D03*
M02*
