G75*
%MOIN*%
%OFA0B0*%
%FSLAX24Y24*%
%IPPOS*%
%LPD*%
%AMOC8*
5,1,8,0,0,1.08239X$1,22.5*
%
%ADD10C,0.0000*%
%ADD11C,0.0100*%
%ADD12C,0.0040*%
%ADD13C,0.0050*%
D10*
X000200Y000200D02*
X120200Y000200D01*
X120200Y025200D01*
X000200Y025200D01*
X000200Y000200D01*
X001815Y002700D02*
X001817Y002759D01*
X001823Y002818D01*
X001833Y002876D01*
X001846Y002934D01*
X001864Y002990D01*
X001885Y003045D01*
X001910Y003099D01*
X001939Y003151D01*
X001970Y003201D01*
X002005Y003248D01*
X002044Y003294D01*
X002085Y003336D01*
X002129Y003376D01*
X002175Y003412D01*
X002224Y003446D01*
X002275Y003476D01*
X002327Y003503D01*
X002382Y003526D01*
X002438Y003545D01*
X002495Y003561D01*
X002553Y003573D01*
X002611Y003581D01*
X002670Y003585D01*
X002730Y003585D01*
X002789Y003581D01*
X002847Y003573D01*
X002905Y003561D01*
X002962Y003545D01*
X003018Y003526D01*
X003073Y003503D01*
X003125Y003476D01*
X003176Y003446D01*
X003225Y003412D01*
X003271Y003376D01*
X003315Y003336D01*
X003356Y003294D01*
X003395Y003248D01*
X003430Y003201D01*
X003461Y003151D01*
X003490Y003099D01*
X003515Y003045D01*
X003536Y002990D01*
X003554Y002934D01*
X003567Y002876D01*
X003577Y002818D01*
X003583Y002759D01*
X003585Y002700D01*
X003583Y002641D01*
X003577Y002582D01*
X003567Y002524D01*
X003554Y002466D01*
X003536Y002410D01*
X003515Y002355D01*
X003490Y002301D01*
X003461Y002249D01*
X003430Y002199D01*
X003395Y002152D01*
X003356Y002106D01*
X003315Y002064D01*
X003271Y002024D01*
X003225Y001988D01*
X003176Y001954D01*
X003125Y001924D01*
X003073Y001897D01*
X003018Y001874D01*
X002962Y001855D01*
X002905Y001839D01*
X002847Y001827D01*
X002789Y001819D01*
X002730Y001815D01*
X002670Y001815D01*
X002611Y001819D01*
X002553Y001827D01*
X002495Y001839D01*
X002438Y001855D01*
X002382Y001874D01*
X002327Y001897D01*
X002275Y001924D01*
X002224Y001954D01*
X002175Y001988D01*
X002129Y002024D01*
X002085Y002064D01*
X002044Y002106D01*
X002005Y002152D01*
X001970Y002199D01*
X001939Y002249D01*
X001910Y002301D01*
X001885Y002355D01*
X001864Y002410D01*
X001846Y002466D01*
X001833Y002524D01*
X001823Y002582D01*
X001817Y002641D01*
X001815Y002700D01*
X065200Y007700D02*
X065202Y007799D01*
X065208Y007899D01*
X065218Y007998D01*
X065232Y008096D01*
X065249Y008194D01*
X065271Y008291D01*
X065296Y008387D01*
X065325Y008482D01*
X065358Y008576D01*
X065395Y008668D01*
X065435Y008759D01*
X065479Y008848D01*
X065527Y008936D01*
X065578Y009021D01*
X065632Y009104D01*
X065689Y009186D01*
X065750Y009264D01*
X065814Y009341D01*
X065880Y009414D01*
X065950Y009485D01*
X066022Y009553D01*
X066097Y009619D01*
X066175Y009681D01*
X066255Y009740D01*
X066337Y009796D01*
X066421Y009848D01*
X066508Y009897D01*
X066596Y009943D01*
X066686Y009985D01*
X066778Y010024D01*
X066871Y010059D01*
X066965Y010090D01*
X067061Y010117D01*
X067158Y010140D01*
X067255Y010160D01*
X067353Y010176D01*
X067452Y010188D01*
X067551Y010196D01*
X067650Y010200D01*
X067750Y010200D01*
X067849Y010196D01*
X067948Y010188D01*
X068047Y010176D01*
X068145Y010160D01*
X068242Y010140D01*
X068339Y010117D01*
X068435Y010090D01*
X068529Y010059D01*
X068622Y010024D01*
X068714Y009985D01*
X068804Y009943D01*
X068892Y009897D01*
X068979Y009848D01*
X069063Y009796D01*
X069145Y009740D01*
X069225Y009681D01*
X069303Y009619D01*
X069378Y009553D01*
X069450Y009485D01*
X069520Y009414D01*
X069586Y009341D01*
X069650Y009264D01*
X069711Y009186D01*
X069768Y009104D01*
X069822Y009021D01*
X069873Y008936D01*
X069921Y008848D01*
X069965Y008759D01*
X070005Y008668D01*
X070042Y008576D01*
X070075Y008482D01*
X070104Y008387D01*
X070129Y008291D01*
X070151Y008194D01*
X070168Y008096D01*
X070182Y007998D01*
X070192Y007899D01*
X070198Y007799D01*
X070200Y007700D01*
X070198Y007601D01*
X070192Y007501D01*
X070182Y007402D01*
X070168Y007304D01*
X070151Y007206D01*
X070129Y007109D01*
X070104Y007013D01*
X070075Y006918D01*
X070042Y006824D01*
X070005Y006732D01*
X069965Y006641D01*
X069921Y006552D01*
X069873Y006464D01*
X069822Y006379D01*
X069768Y006296D01*
X069711Y006214D01*
X069650Y006136D01*
X069586Y006059D01*
X069520Y005986D01*
X069450Y005915D01*
X069378Y005847D01*
X069303Y005781D01*
X069225Y005719D01*
X069145Y005660D01*
X069063Y005604D01*
X068979Y005552D01*
X068892Y005503D01*
X068804Y005457D01*
X068714Y005415D01*
X068622Y005376D01*
X068529Y005341D01*
X068435Y005310D01*
X068339Y005283D01*
X068242Y005260D01*
X068145Y005240D01*
X068047Y005224D01*
X067948Y005212D01*
X067849Y005204D01*
X067750Y005200D01*
X067650Y005200D01*
X067551Y005204D01*
X067452Y005212D01*
X067353Y005224D01*
X067255Y005240D01*
X067158Y005260D01*
X067061Y005283D01*
X066965Y005310D01*
X066871Y005341D01*
X066778Y005376D01*
X066686Y005415D01*
X066596Y005457D01*
X066508Y005503D01*
X066421Y005552D01*
X066337Y005604D01*
X066255Y005660D01*
X066175Y005719D01*
X066097Y005781D01*
X066022Y005847D01*
X065950Y005915D01*
X065880Y005986D01*
X065814Y006059D01*
X065750Y006136D01*
X065689Y006214D01*
X065632Y006296D01*
X065578Y006379D01*
X065527Y006464D01*
X065479Y006552D01*
X065435Y006641D01*
X065395Y006732D01*
X065358Y006824D01*
X065325Y006918D01*
X065296Y007013D01*
X065271Y007109D01*
X065249Y007206D01*
X065232Y007304D01*
X065218Y007402D01*
X065208Y007501D01*
X065202Y007601D01*
X065200Y007700D01*
X090001Y017682D02*
X090003Y017723D01*
X090009Y017764D01*
X090019Y017804D01*
X090032Y017842D01*
X090050Y017880D01*
X090071Y017915D01*
X090095Y017948D01*
X090122Y017979D01*
X090152Y018007D01*
X090185Y018032D01*
X090219Y018053D01*
X090256Y018072D01*
X090295Y018086D01*
X090334Y018097D01*
X090375Y018104D01*
X090416Y018107D01*
X090457Y018106D01*
X090498Y018101D01*
X090538Y018092D01*
X090577Y018079D01*
X090614Y018063D01*
X090650Y018043D01*
X090684Y018020D01*
X090715Y017993D01*
X090744Y017964D01*
X090770Y017932D01*
X090792Y017897D01*
X090811Y017861D01*
X090827Y017823D01*
X090839Y017784D01*
X090847Y017743D01*
X090851Y017703D01*
X090851Y017661D01*
X090847Y017621D01*
X090839Y017580D01*
X090827Y017541D01*
X090811Y017503D01*
X090792Y017467D01*
X090770Y017432D01*
X090744Y017400D01*
X090715Y017371D01*
X090684Y017344D01*
X090650Y017321D01*
X090614Y017301D01*
X090577Y017285D01*
X090538Y017272D01*
X090498Y017263D01*
X090457Y017258D01*
X090416Y017257D01*
X090375Y017260D01*
X090334Y017267D01*
X090295Y017278D01*
X090256Y017292D01*
X090219Y017311D01*
X090185Y017332D01*
X090152Y017357D01*
X090122Y017385D01*
X090095Y017416D01*
X090071Y017449D01*
X090050Y017484D01*
X090032Y017522D01*
X090019Y017560D01*
X090009Y017600D01*
X090003Y017641D01*
X090001Y017682D01*
X094528Y017682D02*
X094530Y017723D01*
X094536Y017764D01*
X094546Y017804D01*
X094559Y017842D01*
X094577Y017880D01*
X094598Y017915D01*
X094622Y017948D01*
X094649Y017979D01*
X094679Y018007D01*
X094712Y018032D01*
X094746Y018053D01*
X094783Y018072D01*
X094822Y018086D01*
X094861Y018097D01*
X094902Y018104D01*
X094943Y018107D01*
X094984Y018106D01*
X095025Y018101D01*
X095065Y018092D01*
X095104Y018079D01*
X095141Y018063D01*
X095177Y018043D01*
X095211Y018020D01*
X095242Y017993D01*
X095271Y017964D01*
X095297Y017932D01*
X095319Y017897D01*
X095338Y017861D01*
X095354Y017823D01*
X095366Y017784D01*
X095374Y017743D01*
X095378Y017703D01*
X095378Y017661D01*
X095374Y017621D01*
X095366Y017580D01*
X095354Y017541D01*
X095338Y017503D01*
X095319Y017467D01*
X095297Y017432D01*
X095271Y017400D01*
X095242Y017371D01*
X095211Y017344D01*
X095177Y017321D01*
X095141Y017301D01*
X095104Y017285D01*
X095065Y017272D01*
X095025Y017263D01*
X094984Y017258D01*
X094943Y017257D01*
X094902Y017260D01*
X094861Y017267D01*
X094822Y017278D01*
X094783Y017292D01*
X094746Y017311D01*
X094712Y017332D01*
X094679Y017357D01*
X094649Y017385D01*
X094622Y017416D01*
X094598Y017449D01*
X094577Y017484D01*
X094559Y017522D01*
X094546Y017560D01*
X094536Y017600D01*
X094530Y017641D01*
X094528Y017682D01*
X116815Y022700D02*
X116817Y022759D01*
X116823Y022818D01*
X116833Y022876D01*
X116846Y022934D01*
X116864Y022990D01*
X116885Y023045D01*
X116910Y023099D01*
X116939Y023151D01*
X116970Y023201D01*
X117005Y023248D01*
X117044Y023294D01*
X117085Y023336D01*
X117129Y023376D01*
X117175Y023412D01*
X117224Y023446D01*
X117275Y023476D01*
X117327Y023503D01*
X117382Y023526D01*
X117438Y023545D01*
X117495Y023561D01*
X117553Y023573D01*
X117611Y023581D01*
X117670Y023585D01*
X117730Y023585D01*
X117789Y023581D01*
X117847Y023573D01*
X117905Y023561D01*
X117962Y023545D01*
X118018Y023526D01*
X118073Y023503D01*
X118125Y023476D01*
X118176Y023446D01*
X118225Y023412D01*
X118271Y023376D01*
X118315Y023336D01*
X118356Y023294D01*
X118395Y023248D01*
X118430Y023201D01*
X118461Y023151D01*
X118490Y023099D01*
X118515Y023045D01*
X118536Y022990D01*
X118554Y022934D01*
X118567Y022876D01*
X118577Y022818D01*
X118583Y022759D01*
X118585Y022700D01*
X118583Y022641D01*
X118577Y022582D01*
X118567Y022524D01*
X118554Y022466D01*
X118536Y022410D01*
X118515Y022355D01*
X118490Y022301D01*
X118461Y022249D01*
X118430Y022199D01*
X118395Y022152D01*
X118356Y022106D01*
X118315Y022064D01*
X118271Y022024D01*
X118225Y021988D01*
X118176Y021954D01*
X118125Y021924D01*
X118073Y021897D01*
X118018Y021874D01*
X117962Y021855D01*
X117905Y021839D01*
X117847Y021827D01*
X117789Y021819D01*
X117730Y021815D01*
X117670Y021815D01*
X117611Y021819D01*
X117553Y021827D01*
X117495Y021839D01*
X117438Y021855D01*
X117382Y021874D01*
X117327Y021897D01*
X117275Y021924D01*
X117224Y021954D01*
X117175Y021988D01*
X117129Y022024D01*
X117085Y022064D01*
X117044Y022106D01*
X117005Y022152D01*
X116970Y022199D01*
X116939Y022249D01*
X116910Y022301D01*
X116885Y022355D01*
X116864Y022410D01*
X116846Y022466D01*
X116833Y022524D01*
X116823Y022582D01*
X116817Y022641D01*
X116815Y022700D01*
X116815Y002700D02*
X116817Y002759D01*
X116823Y002818D01*
X116833Y002876D01*
X116846Y002934D01*
X116864Y002990D01*
X116885Y003045D01*
X116910Y003099D01*
X116939Y003151D01*
X116970Y003201D01*
X117005Y003248D01*
X117044Y003294D01*
X117085Y003336D01*
X117129Y003376D01*
X117175Y003412D01*
X117224Y003446D01*
X117275Y003476D01*
X117327Y003503D01*
X117382Y003526D01*
X117438Y003545D01*
X117495Y003561D01*
X117553Y003573D01*
X117611Y003581D01*
X117670Y003585D01*
X117730Y003585D01*
X117789Y003581D01*
X117847Y003573D01*
X117905Y003561D01*
X117962Y003545D01*
X118018Y003526D01*
X118073Y003503D01*
X118125Y003476D01*
X118176Y003446D01*
X118225Y003412D01*
X118271Y003376D01*
X118315Y003336D01*
X118356Y003294D01*
X118395Y003248D01*
X118430Y003201D01*
X118461Y003151D01*
X118490Y003099D01*
X118515Y003045D01*
X118536Y002990D01*
X118554Y002934D01*
X118567Y002876D01*
X118577Y002818D01*
X118583Y002759D01*
X118585Y002700D01*
X118583Y002641D01*
X118577Y002582D01*
X118567Y002524D01*
X118554Y002466D01*
X118536Y002410D01*
X118515Y002355D01*
X118490Y002301D01*
X118461Y002249D01*
X118430Y002199D01*
X118395Y002152D01*
X118356Y002106D01*
X118315Y002064D01*
X118271Y002024D01*
X118225Y001988D01*
X118176Y001954D01*
X118125Y001924D01*
X118073Y001897D01*
X118018Y001874D01*
X117962Y001855D01*
X117905Y001839D01*
X117847Y001827D01*
X117789Y001819D01*
X117730Y001815D01*
X117670Y001815D01*
X117611Y001819D01*
X117553Y001827D01*
X117495Y001839D01*
X117438Y001855D01*
X117382Y001874D01*
X117327Y001897D01*
X117275Y001924D01*
X117224Y001954D01*
X117175Y001988D01*
X117129Y002024D01*
X117085Y002064D01*
X117044Y002106D01*
X117005Y002152D01*
X116970Y002199D01*
X116939Y002249D01*
X116910Y002301D01*
X116885Y002355D01*
X116864Y002410D01*
X116846Y002466D01*
X116833Y002524D01*
X116823Y002582D01*
X116817Y002641D01*
X116815Y002700D01*
X001815Y022700D02*
X001817Y022759D01*
X001823Y022818D01*
X001833Y022876D01*
X001846Y022934D01*
X001864Y022990D01*
X001885Y023045D01*
X001910Y023099D01*
X001939Y023151D01*
X001970Y023201D01*
X002005Y023248D01*
X002044Y023294D01*
X002085Y023336D01*
X002129Y023376D01*
X002175Y023412D01*
X002224Y023446D01*
X002275Y023476D01*
X002327Y023503D01*
X002382Y023526D01*
X002438Y023545D01*
X002495Y023561D01*
X002553Y023573D01*
X002611Y023581D01*
X002670Y023585D01*
X002730Y023585D01*
X002789Y023581D01*
X002847Y023573D01*
X002905Y023561D01*
X002962Y023545D01*
X003018Y023526D01*
X003073Y023503D01*
X003125Y023476D01*
X003176Y023446D01*
X003225Y023412D01*
X003271Y023376D01*
X003315Y023336D01*
X003356Y023294D01*
X003395Y023248D01*
X003430Y023201D01*
X003461Y023151D01*
X003490Y023099D01*
X003515Y023045D01*
X003536Y022990D01*
X003554Y022934D01*
X003567Y022876D01*
X003577Y022818D01*
X003583Y022759D01*
X003585Y022700D01*
X003583Y022641D01*
X003577Y022582D01*
X003567Y022524D01*
X003554Y022466D01*
X003536Y022410D01*
X003515Y022355D01*
X003490Y022301D01*
X003461Y022249D01*
X003430Y022199D01*
X003395Y022152D01*
X003356Y022106D01*
X003315Y022064D01*
X003271Y022024D01*
X003225Y021988D01*
X003176Y021954D01*
X003125Y021924D01*
X003073Y021897D01*
X003018Y021874D01*
X002962Y021855D01*
X002905Y021839D01*
X002847Y021827D01*
X002789Y021819D01*
X002730Y021815D01*
X002670Y021815D01*
X002611Y021819D01*
X002553Y021827D01*
X002495Y021839D01*
X002438Y021855D01*
X002382Y021874D01*
X002327Y021897D01*
X002275Y021924D01*
X002224Y021954D01*
X002175Y021988D01*
X002129Y022024D01*
X002085Y022064D01*
X002044Y022106D01*
X002005Y022152D01*
X001970Y022199D01*
X001939Y022249D01*
X001910Y022301D01*
X001885Y022355D01*
X001864Y022410D01*
X001846Y022466D01*
X001833Y022524D01*
X001823Y022582D01*
X001817Y022641D01*
X001815Y022700D01*
D11*
X007950Y020200D02*
X007950Y015200D01*
X012450Y015200D01*
X012450Y020200D01*
X008200Y020200D01*
X008200Y018950D01*
X008200Y020200D02*
X007950Y020200D01*
X025450Y020200D02*
X025450Y015200D01*
X029950Y015200D01*
X029950Y020200D01*
X025700Y020200D01*
X025700Y018950D01*
X025700Y020200D02*
X025450Y020200D01*
X047950Y020200D02*
X047950Y015200D01*
X052450Y015200D01*
X052450Y020200D01*
X048200Y020200D01*
X048200Y018950D01*
X048200Y020200D02*
X047950Y020200D01*
X065450Y020200D02*
X065450Y015200D01*
X069950Y015200D01*
X069950Y020200D01*
X065700Y020200D01*
X065700Y018950D01*
X065700Y020200D02*
X065450Y020200D01*
D12*
X059680Y020180D02*
X059680Y019873D01*
X059527Y019720D01*
X059373Y019873D01*
X059373Y020180D01*
X059220Y020104D02*
X059220Y019797D01*
X059143Y019720D01*
X058989Y019720D01*
X058913Y019797D01*
X058759Y019797D02*
X058682Y019720D01*
X058529Y019720D01*
X058452Y019797D01*
X058452Y020104D01*
X058529Y020180D01*
X058682Y020180D01*
X058759Y020104D01*
X058759Y019797D01*
X058299Y019643D02*
X057992Y019643D01*
X057838Y019720D02*
X057532Y019720D01*
X057378Y019720D02*
X057071Y020180D01*
X056918Y020180D02*
X056611Y020180D01*
X056764Y020180D02*
X056764Y019720D01*
X057071Y019720D02*
X057378Y020180D01*
X057532Y020180D02*
X057838Y020180D01*
X057838Y019720D01*
X057838Y019950D02*
X057685Y019950D01*
X058913Y020104D02*
X058989Y020180D01*
X059143Y020180D01*
X059220Y020104D01*
X074571Y019720D02*
X074878Y019720D01*
X074878Y020180D01*
X075032Y020180D02*
X075338Y020180D01*
X075338Y019720D01*
X075032Y019720D01*
X075185Y019950D02*
X075338Y019950D01*
X075492Y019873D02*
X075492Y019797D01*
X075569Y019720D01*
X075722Y019720D01*
X075799Y019797D01*
X075722Y019950D02*
X075569Y019950D01*
X075492Y019873D01*
X075492Y020104D02*
X075569Y020180D01*
X075722Y020180D01*
X075799Y020104D01*
X075799Y020027D01*
X075722Y019950D01*
X075952Y019643D02*
X076259Y019643D01*
X076566Y019950D02*
X076720Y019950D01*
X076873Y019950D02*
X076950Y019873D01*
X077180Y019873D01*
X077180Y019720D02*
X077180Y020180D01*
X076950Y020180D01*
X076873Y020104D01*
X076873Y019950D01*
X077027Y019873D02*
X076873Y019720D01*
X076720Y019720D02*
X076720Y020180D01*
X076413Y020180D01*
X095389Y019816D02*
X095389Y019509D01*
X095465Y019356D02*
X095926Y019356D01*
X095619Y019202D02*
X095465Y019356D01*
X095619Y019202D02*
X095465Y019049D01*
X095926Y019049D01*
X095849Y018895D02*
X095926Y018819D01*
X095926Y018665D01*
X095849Y018588D01*
X095772Y018588D01*
X095695Y018665D01*
X095695Y018819D01*
X095619Y018895D01*
X095542Y018895D01*
X095465Y018819D01*
X095465Y018665D01*
X095542Y018588D01*
X095465Y019969D02*
X095465Y020276D01*
X095465Y020430D02*
X095926Y020430D01*
X095465Y020737D01*
X095926Y020737D01*
X095849Y020890D02*
X095542Y020890D01*
X095465Y020967D01*
X095465Y021120D01*
X095542Y021197D01*
X095849Y021197D02*
X095926Y021120D01*
X095926Y020967D01*
X095849Y020890D01*
X095926Y020276D02*
X095926Y019969D01*
X095465Y019969D01*
X095695Y019969D02*
X095695Y020123D01*
X106925Y018185D02*
X106925Y017878D01*
X107002Y017801D01*
X107232Y017801D01*
X107232Y018261D01*
X107002Y018261D01*
X106925Y018185D01*
X107386Y018185D02*
X107462Y018261D01*
X107616Y018261D01*
X107692Y018185D01*
X107692Y017878D01*
X107616Y017801D01*
X107462Y017801D01*
X107386Y017878D01*
X107846Y017801D02*
X108153Y017801D01*
X108153Y018261D01*
X093850Y015647D02*
X093850Y015340D01*
X093850Y015570D02*
X093544Y015570D01*
X093544Y015647D02*
X093544Y015340D01*
X093544Y015647D02*
X093697Y015801D01*
X093850Y015647D01*
X091784Y015570D02*
X091553Y015570D01*
X091477Y015494D01*
X091477Y015417D01*
X091553Y015340D01*
X091784Y015340D01*
X091784Y015801D01*
X091553Y015801D01*
X091477Y015724D01*
X091477Y015647D01*
X091553Y015570D01*
X070180Y014680D02*
X070180Y014220D01*
X070180Y014373D02*
X069950Y014373D01*
X069873Y014450D01*
X069873Y014604D01*
X069950Y014680D01*
X070180Y014680D01*
X070027Y014373D02*
X069873Y014220D01*
X069720Y014220D02*
X069720Y014680D01*
X069413Y014680D01*
X069566Y014450D02*
X069720Y014450D01*
X069259Y014143D02*
X068952Y014143D01*
X068799Y014297D02*
X068722Y014220D01*
X068569Y014220D01*
X068492Y014297D01*
X068492Y014373D01*
X068569Y014450D01*
X068722Y014450D01*
X068799Y014527D01*
X068799Y014604D01*
X068722Y014680D01*
X068569Y014680D01*
X068492Y014604D01*
X068338Y014680D02*
X068338Y014220D01*
X068032Y014220D01*
X067878Y014220D02*
X067571Y014220D01*
X067418Y014220D02*
X067111Y014220D01*
X066957Y014297D02*
X066881Y014220D01*
X066727Y014220D01*
X066650Y014297D01*
X066650Y014604D02*
X066727Y014680D01*
X066881Y014680D01*
X066957Y014604D01*
X066957Y014297D01*
X067264Y014450D02*
X067418Y014450D01*
X067418Y014680D02*
X067418Y014220D01*
X067878Y014220D02*
X067878Y014680D01*
X068032Y014680D02*
X068338Y014680D01*
X068338Y014450D02*
X068185Y014450D01*
X067418Y014680D02*
X067111Y014680D01*
X066497Y014680D02*
X066190Y014680D01*
X066343Y014680D02*
X066343Y014220D01*
X052680Y014373D02*
X052527Y014220D01*
X052373Y014373D01*
X052373Y014680D01*
X052220Y014604D02*
X052220Y014297D01*
X052143Y014220D01*
X051989Y014220D01*
X051913Y014297D01*
X051759Y014297D02*
X051682Y014220D01*
X051529Y014220D01*
X051452Y014297D01*
X051452Y014604D01*
X051529Y014680D01*
X051682Y014680D01*
X051759Y014604D01*
X051759Y014297D01*
X051913Y014604D02*
X051989Y014680D01*
X052143Y014680D01*
X052220Y014604D01*
X052680Y014680D02*
X052680Y014373D01*
X051299Y014143D02*
X050992Y014143D01*
X050685Y014220D02*
X050685Y014680D01*
X050838Y014680D02*
X050532Y014680D01*
X050378Y014680D02*
X050378Y014297D01*
X050301Y014220D01*
X050148Y014220D01*
X050071Y014297D01*
X050071Y014680D01*
X049918Y014680D02*
X049611Y014220D01*
X049611Y014680D01*
X049457Y014680D02*
X049457Y014220D01*
X049150Y014220D01*
X049304Y014450D02*
X049457Y014450D01*
X049457Y014680D02*
X049150Y014680D01*
X049918Y014680D02*
X049918Y014220D01*
X030180Y014220D02*
X030180Y014527D01*
X030027Y014680D01*
X029873Y014527D01*
X029873Y014220D01*
X029873Y014450D02*
X030180Y014450D01*
X029720Y014680D02*
X029413Y014680D01*
X029566Y014680D02*
X029566Y014220D01*
X029106Y014220D02*
X029106Y014680D01*
X029259Y014680D02*
X028952Y014680D01*
X028799Y014680D02*
X028799Y014220D01*
X028492Y014220D01*
X028338Y014220D02*
X028338Y014680D01*
X028032Y014220D01*
X028032Y014680D01*
X027878Y014680D02*
X027878Y014297D01*
X027801Y014220D01*
X027648Y014220D01*
X027571Y014297D01*
X027571Y014680D01*
X027418Y014527D02*
X027264Y014680D01*
X027111Y014527D01*
X027111Y014220D01*
X027111Y014450D02*
X027418Y014450D01*
X027418Y014527D02*
X027418Y014220D01*
X026804Y014220D02*
X026804Y014680D01*
X026957Y014680D02*
X026650Y014680D01*
X026497Y014680D02*
X026343Y014680D01*
X026420Y014680D02*
X026420Y014220D01*
X026497Y014220D02*
X026343Y014220D01*
X026190Y014297D02*
X026113Y014220D01*
X025960Y014220D01*
X025883Y014297D01*
X025883Y014604D01*
X025960Y014680D01*
X026113Y014680D01*
X026190Y014604D01*
X026190Y014297D01*
X025730Y014220D02*
X025730Y014680D01*
X025423Y014220D01*
X025423Y014680D01*
X028492Y014680D02*
X028799Y014680D01*
X028799Y014450D02*
X028645Y014450D01*
X012680Y014297D02*
X012603Y014220D01*
X012450Y014220D01*
X012373Y014297D01*
X012373Y014604D01*
X012450Y014680D01*
X012603Y014680D01*
X012680Y014604D01*
X012680Y014297D01*
X012220Y014297D02*
X012143Y014220D01*
X011989Y014220D01*
X011913Y014297D01*
X011913Y014680D01*
X011759Y014680D02*
X011452Y014680D01*
X011299Y014680D02*
X011069Y014680D01*
X010992Y014604D01*
X010992Y014450D01*
X011069Y014373D01*
X011299Y014373D01*
X011299Y014220D02*
X011299Y014680D01*
X011606Y014680D02*
X011606Y014220D01*
X012220Y014297D02*
X012220Y014680D01*
X010838Y014680D02*
X010838Y014297D01*
X010762Y014220D01*
X010608Y014220D01*
X010532Y014297D01*
X010532Y014680D01*
X010378Y014680D02*
X010071Y014680D01*
X010225Y014680D02*
X010225Y014220D01*
X009918Y014143D02*
X009611Y014143D01*
X009304Y014220D02*
X009304Y014680D01*
X009457Y014680D02*
X009150Y014680D01*
X008997Y014680D02*
X008690Y014680D01*
X008843Y014680D02*
X008843Y014220D01*
X008536Y014220D02*
X008230Y014220D01*
X008536Y014220D02*
X008536Y014680D01*
X015383Y019720D02*
X015383Y020180D01*
X015536Y020180D02*
X015230Y020180D01*
X015690Y020180D02*
X015997Y019720D01*
X016150Y019720D02*
X016457Y019720D01*
X016457Y020180D01*
X016150Y020180D01*
X015997Y020180D02*
X015690Y019720D01*
X016304Y019950D02*
X016457Y019950D01*
X016611Y019643D02*
X016918Y019643D01*
X017225Y019720D02*
X017225Y020180D01*
X017378Y020180D02*
X017071Y020180D01*
X017532Y020180D02*
X017532Y019797D01*
X017608Y019720D01*
X017762Y019720D01*
X017838Y019797D01*
X017838Y020180D01*
X017992Y020104D02*
X017992Y019950D01*
X018069Y019873D01*
X018299Y019873D01*
X018299Y019720D02*
X018299Y020180D01*
X018069Y020180D01*
X017992Y020104D01*
X018452Y020180D02*
X018759Y020180D01*
X018606Y020180D02*
X018606Y019720D01*
X018913Y019797D02*
X018913Y020180D01*
X019220Y020180D02*
X019220Y019797D01*
X019143Y019720D01*
X018989Y019720D01*
X018913Y019797D01*
X019373Y019797D02*
X019373Y020104D01*
X019450Y020180D01*
X019603Y020180D01*
X019680Y020104D01*
X019680Y019797D01*
X019603Y019720D01*
X019450Y019720D01*
X019373Y019797D01*
X034111Y020180D02*
X034418Y020180D01*
X034571Y020180D02*
X034878Y019720D01*
X035032Y019720D02*
X035338Y019720D01*
X035338Y020180D01*
X035032Y020180D01*
X034878Y020180D02*
X034571Y019720D01*
X034264Y019720D02*
X034264Y020180D01*
X035185Y019950D02*
X035338Y019950D01*
X035492Y019643D02*
X035799Y019643D01*
X036106Y019720D02*
X036106Y020180D01*
X036259Y020180D02*
X035952Y020180D01*
X036413Y020180D02*
X036720Y020180D01*
X036566Y020180D02*
X036566Y019720D01*
X036873Y019720D02*
X036873Y020027D01*
X037027Y020180D01*
X037180Y020027D01*
X037180Y019720D01*
X037180Y019950D02*
X036873Y019950D01*
D13*
X038100Y020880D02*
X032300Y020880D01*
X032300Y014830D01*
X038100Y014830D01*
X038100Y020880D01*
X054800Y020880D02*
X054800Y014830D01*
X060600Y014830D01*
X060600Y020880D01*
X054800Y020880D01*
X072300Y020880D02*
X072300Y014830D01*
X078100Y014830D01*
X078100Y020880D01*
X072300Y020880D01*
X090229Y020340D02*
X090229Y015025D01*
X095150Y015025D01*
X095150Y020340D01*
X090229Y020340D01*
X091665Y019848D02*
X091667Y019871D01*
X091673Y019893D01*
X091682Y019914D01*
X091694Y019933D01*
X091710Y019950D01*
X091728Y019964D01*
X091748Y019975D01*
X091770Y019983D01*
X091793Y019987D01*
X091815Y019987D01*
X091838Y019983D01*
X091860Y019975D01*
X091880Y019964D01*
X091898Y019950D01*
X091914Y019933D01*
X091926Y019914D01*
X091935Y019893D01*
X091941Y019871D01*
X091943Y019848D01*
X091941Y019825D01*
X091935Y019803D01*
X091926Y019782D01*
X091914Y019763D01*
X091898Y019746D01*
X091880Y019732D01*
X091860Y019721D01*
X091838Y019713D01*
X091815Y019709D01*
X091793Y019709D01*
X091770Y019713D01*
X091748Y019721D01*
X091728Y019732D01*
X091710Y019746D01*
X091694Y019763D01*
X091682Y019782D01*
X091673Y019803D01*
X091667Y019825D01*
X091665Y019848D01*
X091804Y019356D02*
X093575Y019848D01*
X099551Y021167D02*
X115850Y021167D01*
X115850Y011600D01*
X099551Y011600D01*
X099551Y021167D01*
X099905Y020813D02*
X115496Y020813D01*
X115496Y014592D01*
X099905Y014592D01*
X099905Y020813D01*
X092788Y015714D02*
X092591Y015714D01*
X092493Y015517D02*
X092886Y015517D01*
X092985Y015320D02*
X092394Y015320D01*
X020600Y014830D02*
X020600Y020880D01*
X014800Y020880D01*
X014800Y014830D01*
X020600Y014830D01*
M02*
