%
M48
M72
T01C0.0100
T02C0.0236
T03C0.0360
T04C0.0380
T05C0.0394
T06C0.0400
T07C0.0590
T08C0.0670
T09C0.0787
T10C0.0850
T11C0.1102
T12C0.1160
T13C0.5000
%
T01
X26160Y9593
X29160Y10993
X30160Y10593
X30910Y10918
X32510Y10318
X31910Y9918
X32260Y11493
X32260Y11993
X32660Y11893
X33160Y11893
X33660Y11893
X34060Y11993
X34460Y11993
X34860Y11993
X35460Y12193
X35960Y12093
X36560Y12093
X37060Y12193
X37560Y11993
X38060Y11993
X38560Y11993
X39060Y11993
X39560Y11993
X40060Y11993
X40560Y11993
X41060Y12093
X41560Y12093
X41560Y11693
X41460Y11193
X43460Y11493
X43460Y11993
X44360Y11493
X44760Y11293
X44860Y10693
X45560Y10793
X46660Y10993
X46360Y11493
X46760Y11993
X48060Y12193
X47560Y12493
X46560Y13093
X46060Y13093
X46360Y12493
X44560Y12293
X45160Y11993
X43460Y12493
X43460Y12993
X41560Y12793
X41060Y12793
X39160Y12593
X38960Y13393
X37160Y13593
X39060Y14193
X40760Y14593
X39060Y14793
X39360Y15293
X39760Y15693
X40460Y15293
X41660Y15693
X40560Y15793
X40760Y16193
X40960Y16693
X41260Y17193
X40360Y17393
X40760Y17793
X41160Y18293
X41660Y17693
X42160Y18093
X42960Y18593
X43560Y18893
X44260Y18993
X44960Y19093
X45760Y19093
X46460Y19093
X47260Y19093
X47960Y19093
X48760Y19093
X49560Y19093
X50260Y19093
X51060Y19093
X51860Y19093
X52560Y19093
X53560Y19093
X54260Y19093
X54960Y19093
X55660Y19093
X56360Y19093
X56860Y18893
X56960Y18393
X57860Y18793
X57960Y18393
X57960Y17893
X57860Y17393
X57060Y17393
X56960Y17893
X53760Y17393
X51660Y17293
X50760Y17293
X49760Y17293
X48760Y17393
X47760Y17293
X47060Y16593
X46260Y16393
X46660Y15793
X47160Y15693
X47460Y15393
X46560Y15193
X45460Y14693
X46560Y14593
X46560Y13993
X48160Y13493
X48960Y13093
X49760Y13393
X51260Y13793
X50960Y14093
X50360Y14093
X49260Y13993
X48660Y13993
X48660Y14993
X49260Y14993
X49760Y14993
X50360Y14993
X50860Y14993
X51260Y14793
X52560Y14493
X52960Y14193
X53460Y13993
X53960Y14593
X54260Y14093
X54360Y13493
X54460Y12893
X53360Y12693
X52660Y12293
X53360Y12093
X53560Y11493
X54360Y11393
X54460Y11893
X54460Y12393
X56360Y12593
X53460Y13393
X52060Y13793
X52060Y14293
X52060Y12893
X48460Y11393
X48760Y11093
X49260Y11093
X49760Y10993
X50260Y10193
X50860Y10193
X51460Y10193
X52260Y10193
X52760Y10193
X53260Y10193
X53760Y10393
X54160Y10793
X51360Y10993
X49260Y10093
X48760Y10093
X47660Y9993
X46660Y9993
X46260Y9593
X45860Y9893
X45360Y9593
X45160Y10093
X37060Y12893
X36560Y12993
X35960Y12993
X35460Y12893
X34560Y13093
X33660Y12693
X33160Y12793
X32660Y12793
X32160Y12693
X31660Y12693
X30910Y12618
X30910Y12118
X29360Y12493
X28860Y12493
X28360Y12393
X27760Y12393
X27160Y12393
X26660Y12393
X26660Y11693
X27160Y11693
X27760Y11693
X28360Y11693
X28860Y11593
X29360Y11593
X30910Y11518
X29860Y13593
X29260Y13593
X31660Y14993
X32260Y14993
X32760Y15293
X33060Y15693
X33760Y15493
X34560Y15493
X34660Y15993
X34860Y16393
X33660Y16593
X33060Y16493
X32260Y17193
X31660Y17193
X26060Y18293
X30160Y19393
X31960Y18793
X32060Y19493
X32060Y20593
X30360Y21593
X33460Y21793
X35560Y22193
X36460Y20193
X38260Y18893
X40260Y18593
X41660Y18693
X42160Y18993
X43060Y19493
X43660Y19693
X44260Y19793
X44960Y19893
X45760Y19893
X46460Y19893
X47360Y19893
X47960Y19893
X48660Y19893
X49560Y19893
X50260Y19893
X51060Y19893
X51860Y19893
X52560Y19893
X53560Y19893
X54260Y19893
X54960Y19893
X55660Y19893
X56260Y19893
X56860Y19793
X57460Y19293
X59660Y19793
X62560Y19293
X67660Y18993
X68960Y19693
X69060Y20393
X70960Y21593
X70960Y22293
X71860Y22643
X70960Y22993
X70960Y23693
X74160Y22893
X75760Y21793
X75360Y21093
X73960Y21293
X73660Y20193
X75260Y19493
X76060Y19593
X79160Y19693
X79860Y20693
X77460Y20793
X79160Y18293
X78960Y16993
X71460Y17393
X68460Y15493
X66660Y14493
X69360Y13293
X71660Y13293
X71660Y12593
X71660Y11893
X71660Y11193
X72860Y9993
X73560Y9193
X66260Y11993
X62460Y10993
X58860Y10393
X57260Y13693
X61060Y13893
X53160Y15693
X52360Y15693
X50760Y15693
X49660Y15693
X48660Y15593
X43460Y15093
X42560Y14293
X43660Y13693
X40860Y13493
X37060Y14593
X35060Y14093
X35260Y13593
X34560Y13693
X34560Y14293
X33760Y14293
X33760Y13693
X33760Y14893
X34560Y14893
X37660Y15293
X38360Y15293
X38460Y16293
X37960Y16693
X37460Y16293
X39860Y16293
X40060Y16793
X43460Y17093
X44460Y17693
X48760Y18193
X55360Y16193
X57060Y16593
X57860Y16593
X75360Y12793
X79060Y13593
X89360Y13793
X92160Y13293
X92760Y13793
X91260Y11793
X89260Y11793
X94360Y10293
X101160Y10293
X103060Y10093
X102060Y9393
X102860Y11293
X101260Y11493
X101060Y15293
X96260Y15493
X98060Y16893
X99160Y17693
X103160Y19393
X104060Y20193
X101860Y20793
X103460Y20993
X97060Y21693
X87860Y21493
X99060Y25093
X99960Y24993
X100960Y24993
X100960Y26893
X93360Y28793
X95160Y29293
X91660Y30293
X90960Y30693
X89760Y30093
X89960Y28893
X88660Y28493
X87760Y27393
X87360Y25993
X70160Y27693
X67360Y25993
X61160Y26093
X54460Y25393
X52460Y25393
X51960Y24393
X53860Y24393
X47960Y24293
X47860Y26293
X50860Y26993
X50860Y27693
X53460Y28393
X47860Y27693
X44360Y27393
X40660Y26493
X30660Y28293
X26360Y27693
X26960Y26593
X30360Y26493
X30060Y23993
X23860Y24093
X17360Y23093
X17360Y21293
X20060Y19393
X13560Y18293
X10360Y19093
X19660Y15293
X12160Y14293
X17460Y12593
X19260Y10893
X13960Y10293
X27160Y20293
X11160Y25193
X9260Y28493
X16560Y31293
X26160Y31593
X32460Y30693
X40760Y30893
X46560Y31693
X52360Y31293
X59760Y31993
X68160Y30893
X71760Y30893
X80660Y30593
X83260Y31393
X88760Y31893
X105960Y31393
X110660Y19893
X107360Y16893
X86960Y16593
X60660Y23993
X56060Y21893
X54860Y21893
X54360Y21393
X53060Y21893
X51960Y21893
X51060Y22293
X50660Y21793
X45960Y21793
T02
X50310Y22443
X51960Y22593
X55360Y22593
X51710Y23793
X48760Y25743
X33210Y21243
X35460Y17543
X83160Y19493
X83860Y19793
X83160Y20193
X83860Y20593
X83160Y20993
X85360Y20993
X85360Y19493
X83860Y18793
X83860Y17893
X85460Y17893
X87460Y14543
X90260Y27693
X91260Y27593
X92460Y28093
X91960Y28593
X88960Y27943
X88063Y28990
X88710Y29493
X94060Y30593
X94760Y30593
T03
X114060Y18943
X115060Y18943
X116060Y18943
X117060Y18943
X117060Y17943
X116060Y17943
X115060Y17943
X114060Y17943
X123660Y17993
X124660Y17993
X124660Y16993
X123660Y16993
X123660Y15993
X124660Y15993
X124660Y14993
X123660Y14993
X123660Y13993
X124660Y13993
X124660Y12993
X123660Y12993
X123660Y11993
X124660Y11993
X124660Y10993
X123660Y10993
T04
X120960Y11393
X120960Y12393
X120960Y13393
X120960Y14393
X120960Y15393
X119960Y15393
X118960Y15393
X117960Y15393
X116960Y15393
X115960Y15393
X114960Y15393
X113960Y15393
X112960Y15393
X111960Y15393
X110960Y15393
X109960Y15393
X108960Y15393
X107960Y15393
X120960Y10393
X120960Y9393
X119960Y9393
X118960Y9393
X117960Y9393
X116960Y9393
X115960Y9393
X114960Y9393
X113960Y9393
X112960Y9393
X111960Y9393
X110960Y9393
X109960Y9393
X108960Y9393
X107960Y9393
T05
X58460Y15893
X57460Y15893
X64960Y25893
X65960Y25893
X82460Y25893
X83460Y25893
X99015Y23098
X99999Y23098
X100983Y23098
X100983Y28807
X99015Y28807
X43460Y25893
X42460Y25893
X25960Y25893
X24960Y25893
T06
X47260Y21993
X48260Y21993
X30310Y16093
X29310Y16093
X76560Y12193
X76560Y11193
X90360Y10293
X91360Y10293
X80560Y15393
X79560Y15393
X89460Y17493
X89460Y18493
X100110Y16543
X101110Y16543
X102110Y16543
X89360Y21693
X89360Y22693
T07
X52760Y17293
X51660Y12293
X26060Y12043
T08
X27060Y11043
X25060Y11043
X25060Y13043
X27060Y13043
X50660Y13293
X52660Y13293
X52660Y11293
X50660Y11293
X51760Y16293
X53760Y16293
X53760Y18293
X51760Y18293
T09
X55460Y17893
X59460Y13893
X66960Y23893
X62960Y27893
X80460Y27893
X84460Y23893
X44460Y23893
X40460Y27893
X26960Y23893
X22960Y27893
T10
X18410Y27743
X16510Y27743
X16510Y25893
X18410Y25893
X18410Y24043
X16460Y24043
X33960Y24043
X35910Y24043
X35910Y25893
X34010Y25893
X34010Y27743
X35910Y27743
X56510Y27743
X58410Y27743
X58410Y25893
X56510Y25893
X56460Y24043
X58410Y24043
X73960Y24043
X75910Y24043
X75910Y25893
X74010Y25893
X74010Y27743
X75910Y27743
T11
X97735Y26051
X102263Y26051
T12
X99960Y30893
X104960Y10893
X9960Y10893
X9960Y30893
T13
X74960Y15893
M30
