G75*
%MOIN*%
%OFA0B0*%
%FSLAX24Y24*%
%IPPOS*%
%LPD*%
%AMOC8*
5,1,8,0,0,1.08239X$1,22.5*
%
%ADD10C,0.0600*%
%ADD11R,0.1050X0.1050*%
%ADD12C,0.0570*%
%ADD13C,0.0700*%
%ADD14C,0.0987*%
%ADD15R,0.0591X0.0591*%
%ADD16C,0.0790*%
%ADD17C,0.0870*%
%ADD18OC8,0.0540*%
%ADD19C,0.0260*%
%ADD20C,0.0100*%
%ADD21C,0.0200*%
%ADD22C,0.0396*%
%ADD23C,0.0160*%
%ADD24C,0.0180*%
D10*
X029310Y015793D02*
X029310Y016393D01*
X030310Y016393D02*
X030310Y015793D01*
X047260Y021693D02*
X047260Y022293D01*
X048260Y022293D02*
X048260Y021693D01*
X079560Y015693D02*
X079560Y015093D01*
X080560Y015093D02*
X080560Y015693D01*
X089160Y017493D02*
X089760Y017493D01*
X089760Y018493D02*
X089160Y018493D01*
X100110Y016843D02*
X100110Y016243D01*
X101110Y016243D02*
X101110Y016843D01*
X102110Y016843D02*
X102110Y016243D01*
X089660Y021693D02*
X089060Y021693D01*
X089060Y022693D02*
X089660Y022693D01*
X076860Y012193D02*
X076260Y012193D01*
X076260Y011193D02*
X076860Y011193D01*
X090360Y010593D02*
X090360Y009993D01*
X091360Y009993D02*
X091360Y010593D01*
D11*
X075910Y024043D03*
X073960Y024043D03*
X074010Y025893D03*
X075910Y025893D03*
X075910Y027743D03*
X074010Y027743D03*
X058410Y027743D03*
X056510Y027743D03*
X056510Y025893D03*
X058410Y025893D03*
X058410Y024043D03*
X056460Y024043D03*
X035910Y024043D03*
X033960Y024043D03*
X034010Y025893D03*
X035910Y025893D03*
X035910Y027743D03*
X034010Y027743D03*
X018410Y027743D03*
X016510Y027743D03*
X016510Y025893D03*
X018410Y025893D03*
X018410Y024043D03*
X016460Y024043D03*
D12*
X107960Y015393D03*
X108960Y015393D03*
X109960Y015393D03*
X110960Y015393D03*
X111960Y015393D03*
X112960Y015393D03*
X113960Y015393D03*
X114960Y015393D03*
X115960Y015393D03*
X116960Y015393D03*
X117960Y015393D03*
X118960Y015393D03*
X119960Y015393D03*
X120960Y015393D03*
X120960Y014393D03*
X120960Y013393D03*
X120960Y012393D03*
X120960Y011393D03*
X120960Y010393D03*
X120960Y009393D03*
X119960Y009393D03*
X118960Y009393D03*
X117960Y009393D03*
X116960Y009393D03*
X115960Y009393D03*
X114960Y009393D03*
X113960Y009393D03*
X112960Y009393D03*
X111960Y009393D03*
X110960Y009393D03*
X109960Y009393D03*
X108960Y009393D03*
X107960Y009393D03*
D13*
X058460Y015893D03*
X057460Y015893D03*
X064960Y025893D03*
X065960Y025893D03*
X082460Y025893D03*
X083460Y025893D03*
X043460Y025893D03*
X042460Y025893D03*
X025960Y025893D03*
X024960Y025893D03*
D14*
X026960Y023893D03*
X022960Y027893D03*
X040460Y027893D03*
X044460Y023893D03*
X062960Y027893D03*
X066960Y023893D03*
X080460Y027893D03*
X084460Y023893D03*
X055460Y017893D03*
X059460Y013893D03*
D15*
X099015Y023098D03*
X099999Y023098D03*
X100983Y023098D03*
X100983Y028807D03*
X099015Y028807D03*
D16*
X052760Y017293D03*
X051660Y012293D03*
X026060Y012043D03*
D17*
X027060Y011043D03*
X025060Y011043D03*
X025060Y013043D03*
X027060Y013043D03*
X050660Y013293D03*
X052660Y013293D03*
X052660Y011293D03*
X050660Y011293D03*
X051760Y016293D03*
X053760Y016293D03*
X053760Y018293D03*
X051760Y018293D03*
D18*
X114060Y017943D03*
X115060Y017943D03*
X116060Y017943D03*
X117060Y017943D03*
X117060Y018943D03*
X116060Y018943D03*
X115060Y018943D03*
X114060Y018943D03*
X123660Y017993D03*
X124660Y017993D03*
X124660Y016993D03*
X123660Y016993D03*
X123660Y015993D03*
X124660Y015993D03*
X124660Y014993D03*
X123660Y014993D03*
X123660Y013993D03*
X124660Y013993D03*
X124660Y012993D03*
X123660Y012993D03*
X123660Y011993D03*
X124660Y011993D03*
X124660Y010993D03*
X123660Y010993D03*
D19*
X103060Y010093D03*
X102060Y009393D03*
X101160Y010293D03*
X102860Y011293D03*
X101260Y011493D03*
X094360Y010293D03*
X091260Y011793D03*
X089260Y011793D03*
X092160Y013293D03*
X092760Y013793D03*
X089360Y013793D03*
X096260Y015493D03*
X101060Y015293D03*
X098060Y016893D03*
X099160Y017693D03*
X103160Y019393D03*
X104060Y020193D03*
X101860Y020793D03*
X103460Y020993D03*
X097060Y021693D03*
X087860Y021493D03*
X079860Y020693D03*
X077460Y020793D03*
X075360Y021093D03*
X073960Y021293D03*
X075760Y021793D03*
X074160Y022893D03*
X071860Y022643D03*
X070960Y022293D03*
X070960Y021593D03*
X069060Y020393D03*
X068960Y019693D03*
X067660Y018993D03*
X071460Y017393D03*
X068460Y015493D03*
X066660Y014493D03*
X069360Y013293D03*
X071660Y013293D03*
X071660Y012593D03*
X071660Y011893D03*
X071660Y011193D03*
X072860Y009993D03*
X073560Y009193D03*
X066260Y011993D03*
X062460Y010993D03*
X058860Y010393D03*
X054360Y011393D03*
X054460Y011893D03*
X054460Y012393D03*
X053360Y012093D03*
X053560Y011493D03*
X054160Y010793D03*
X053760Y010393D03*
X053260Y010193D03*
X052760Y010193D03*
X052260Y010193D03*
X051460Y010193D03*
X050860Y010193D03*
X050260Y010193D03*
X049260Y010093D03*
X048760Y010093D03*
X047660Y009993D03*
X046660Y009993D03*
X046260Y009593D03*
X045860Y009893D03*
X045360Y009593D03*
X045160Y010093D03*
X044860Y010693D03*
X044760Y011293D03*
X044360Y011493D03*
X043460Y011493D03*
X043460Y011993D03*
X044560Y012293D03*
X045160Y011993D03*
X046360Y011493D03*
X046760Y011993D03*
X048060Y012193D03*
X047560Y012493D03*
X046560Y013093D03*
X046060Y013093D03*
X046360Y012493D03*
X048160Y013493D03*
X048960Y013093D03*
X049760Y013393D03*
X051260Y013793D03*
X050960Y014093D03*
X050360Y014093D03*
X049260Y013993D03*
X048660Y013993D03*
X048660Y014993D03*
X049260Y014993D03*
X049760Y014993D03*
X050360Y014993D03*
X050860Y014993D03*
X051260Y014793D03*
X052560Y014493D03*
X052960Y014193D03*
X053460Y013993D03*
X053960Y014593D03*
X054260Y014093D03*
X054360Y013493D03*
X054460Y012893D03*
X053360Y012693D03*
X052660Y012293D03*
X052060Y012893D03*
X053460Y013393D03*
X052060Y013793D03*
X052060Y014293D03*
X047460Y015393D03*
X047160Y015693D03*
X046660Y015793D03*
X046260Y016393D03*
X047060Y016593D03*
X047760Y017293D03*
X048760Y017393D03*
X049760Y017293D03*
X050760Y017293D03*
X051660Y017293D03*
X053760Y017393D03*
X056960Y017893D03*
X057060Y017393D03*
X057860Y017393D03*
X057960Y017893D03*
X057960Y018393D03*
X057860Y018793D03*
X057460Y019293D03*
X056860Y018893D03*
X056960Y018393D03*
X056360Y019093D03*
X055660Y019093D03*
X054960Y019093D03*
X054260Y019093D03*
X053560Y019093D03*
X052560Y019093D03*
X051860Y019093D03*
X051060Y019093D03*
X050260Y019093D03*
X049560Y019093D03*
X048760Y019093D03*
X047960Y019093D03*
X047260Y019093D03*
X046460Y019093D03*
X045760Y019093D03*
X044960Y019093D03*
X044260Y018993D03*
X043560Y018893D03*
X042960Y018593D03*
X042160Y018993D03*
X041660Y018693D03*
X040260Y018593D03*
X041160Y018293D03*
X040760Y017793D03*
X040360Y017393D03*
X041260Y017193D03*
X040960Y016693D03*
X040760Y016193D03*
X040560Y015793D03*
X039760Y015693D03*
X039360Y015293D03*
X039060Y014793D03*
X038360Y015293D03*
X037660Y015293D03*
X037060Y014593D03*
X035060Y014093D03*
X035260Y013593D03*
X034560Y013693D03*
X034560Y014293D03*
X033760Y014293D03*
X033760Y013693D03*
X034560Y013093D03*
X035460Y012893D03*
X035960Y012993D03*
X036560Y012993D03*
X037060Y012893D03*
X037060Y012193D03*
X036560Y012093D03*
X035960Y012093D03*
X035460Y012193D03*
X034860Y011993D03*
X034460Y011993D03*
X034060Y011993D03*
X033660Y011893D03*
X033160Y011893D03*
X032660Y011893D03*
X032260Y011993D03*
X032260Y011493D03*
X030910Y011518D03*
X029360Y011593D03*
X028860Y011593D03*
X028360Y011693D03*
X027760Y011693D03*
X027160Y011693D03*
X026660Y011693D03*
X026660Y012393D03*
X027160Y012393D03*
X027760Y012393D03*
X028360Y012393D03*
X028860Y012493D03*
X029360Y012493D03*
X030910Y012618D03*
X030910Y012118D03*
X031660Y012693D03*
X032160Y012693D03*
X032660Y012793D03*
X033160Y012793D03*
X033660Y012693D03*
X037160Y013593D03*
X038960Y013393D03*
X040860Y013493D03*
X041060Y012793D03*
X041560Y012793D03*
X043460Y012993D03*
X043460Y012493D03*
X041560Y012093D03*
X041560Y011693D03*
X041460Y011193D03*
X041060Y012093D03*
X040560Y011993D03*
X040060Y011993D03*
X039560Y011993D03*
X039060Y011993D03*
X038560Y011993D03*
X038060Y011993D03*
X037560Y011993D03*
X039160Y012593D03*
X043660Y013693D03*
X042560Y014293D03*
X040760Y014593D03*
X039060Y014193D03*
X040460Y015293D03*
X041660Y015693D03*
X043460Y015093D03*
X045460Y014693D03*
X046560Y014593D03*
X046560Y013993D03*
X046560Y015193D03*
X048660Y015593D03*
X049660Y015693D03*
X050760Y015693D03*
X052360Y015693D03*
X053160Y015693D03*
X055360Y016193D03*
X057060Y016593D03*
X057860Y016593D03*
X048760Y018193D03*
X044460Y017693D03*
X043460Y017093D03*
X041660Y017693D03*
X042160Y018093D03*
X038260Y018893D03*
X036460Y020193D03*
X032060Y020593D03*
X030360Y021593D03*
X033460Y021793D03*
X035560Y022193D03*
X030060Y023993D03*
X023860Y024093D03*
X017360Y023093D03*
X017360Y021293D03*
X020060Y019393D03*
X026060Y018293D03*
X030160Y019393D03*
X031960Y018793D03*
X032060Y019493D03*
X027160Y020293D03*
X031660Y017193D03*
X032260Y017193D03*
X033660Y016593D03*
X033060Y016493D03*
X034660Y015993D03*
X034860Y016393D03*
X034560Y015493D03*
X033760Y015493D03*
X033060Y015693D03*
X032760Y015293D03*
X032260Y014993D03*
X031660Y014993D03*
X033760Y014893D03*
X034560Y014893D03*
X037460Y016293D03*
X037960Y016693D03*
X038460Y016293D03*
X039860Y016293D03*
X040060Y016793D03*
X043060Y019493D03*
X043660Y019693D03*
X044260Y019793D03*
X044960Y019893D03*
X045760Y019893D03*
X046460Y019893D03*
X047360Y019893D03*
X047960Y019893D03*
X048660Y019893D03*
X049560Y019893D03*
X050260Y019893D03*
X051060Y019893D03*
X051860Y019893D03*
X052560Y019893D03*
X053560Y019893D03*
X054260Y019893D03*
X054960Y019893D03*
X055660Y019893D03*
X056260Y019893D03*
X056860Y019793D03*
X059660Y019793D03*
X062560Y019293D03*
X054360Y021393D03*
X054860Y021893D03*
X056060Y021893D03*
X053060Y021893D03*
X051960Y021893D03*
X051060Y022293D03*
X050660Y021793D03*
X045960Y021793D03*
X047960Y024293D03*
X051960Y024393D03*
X053860Y024393D03*
X054460Y025393D03*
X052460Y025393D03*
X047860Y026293D03*
X050860Y026993D03*
X050860Y027693D03*
X053460Y028393D03*
X047860Y027693D03*
X044360Y027393D03*
X040660Y026493D03*
X030660Y028293D03*
X026360Y027693D03*
X026960Y026593D03*
X030360Y026493D03*
X032460Y030693D03*
X026160Y031593D03*
X016560Y031293D03*
X009260Y028493D03*
X011160Y025193D03*
X010360Y019093D03*
X013560Y018293D03*
X019660Y015293D03*
X012160Y014293D03*
X017460Y012593D03*
X019260Y010893D03*
X013960Y010293D03*
X026160Y009593D03*
X029160Y010993D03*
X030160Y010593D03*
X030910Y010918D03*
X032510Y010318D03*
X031910Y009918D03*
X045560Y010793D03*
X046660Y010993D03*
X048460Y011393D03*
X048760Y011093D03*
X049260Y011093D03*
X049760Y010993D03*
X051360Y010993D03*
X056360Y012593D03*
X057260Y013693D03*
X061060Y013893D03*
X075360Y012793D03*
X079060Y013593D03*
X086960Y016593D03*
X079160Y018293D03*
X078960Y016993D03*
X079160Y019693D03*
X076060Y019593D03*
X075260Y019493D03*
X073660Y020193D03*
X070960Y022993D03*
X070960Y023693D03*
X067360Y025993D03*
X070160Y027693D03*
X061160Y026093D03*
X060660Y023993D03*
X080660Y030593D03*
X083260Y031393D03*
X088760Y031893D03*
X090960Y030693D03*
X091660Y030293D03*
X089760Y030093D03*
X089960Y028893D03*
X088660Y028493D03*
X087760Y027393D03*
X087360Y025993D03*
X093360Y028793D03*
X095160Y029293D03*
X100960Y026893D03*
X100960Y024993D03*
X099960Y024993D03*
X099060Y025093D03*
X110660Y019893D03*
X107360Y016893D03*
X071760Y030893D03*
X068160Y030893D03*
X059760Y031993D03*
X052360Y031293D03*
X046560Y031693D03*
X040760Y030893D03*
X105960Y031393D03*
X029860Y013593D03*
X029260Y013593D03*
D20*
X007910Y008843D02*
X007910Y032943D01*
X107010Y032943D01*
X107010Y020804D01*
X107078Y020638D01*
X107205Y020512D01*
X107370Y020443D01*
X127010Y020443D01*
X127010Y008843D01*
X123118Y008843D01*
X123903Y009629D01*
X124024Y009750D01*
X124090Y009908D01*
X124090Y010546D01*
X124280Y010736D01*
X124280Y011250D01*
X124036Y011493D01*
X124280Y011736D01*
X124280Y012119D01*
X124303Y012129D01*
X124403Y012229D01*
X124524Y012350D01*
X124590Y012508D01*
X124590Y013579D01*
X124524Y013737D01*
X124403Y013858D01*
X124280Y013981D01*
X124280Y014250D01*
X124036Y014493D01*
X124280Y014736D01*
X124280Y015250D01*
X124036Y015493D01*
X124280Y015736D01*
X124280Y016250D01*
X124036Y016493D01*
X124280Y016736D01*
X124280Y017250D01*
X124036Y017493D01*
X124280Y017736D01*
X124280Y018250D01*
X123916Y018613D01*
X123403Y018613D01*
X123213Y018423D01*
X119474Y018423D01*
X119316Y018358D01*
X119195Y018237D01*
X118190Y017231D01*
X118190Y018329D01*
X118124Y018487D01*
X118003Y018608D01*
X117680Y018931D01*
X117680Y019200D01*
X117316Y019563D01*
X116803Y019563D01*
X116560Y019320D01*
X116316Y019563D01*
X115803Y019563D01*
X115440Y019200D01*
X115440Y018686D01*
X115683Y018443D01*
X115560Y018320D01*
X115316Y018563D01*
X114803Y018563D01*
X114560Y018320D01*
X114316Y018563D01*
X113803Y018563D01*
X113563Y018323D01*
X111674Y018323D01*
X111516Y018258D01*
X111395Y018137D01*
X109595Y016337D01*
X109530Y016179D01*
X109530Y015861D01*
X109460Y015791D01*
X109319Y015932D01*
X109086Y016028D01*
X108833Y016028D01*
X108600Y015932D01*
X108460Y015791D01*
X108319Y015932D01*
X108086Y016028D01*
X107833Y016028D01*
X107600Y015932D01*
X107421Y015753D01*
X107359Y015602D01*
X105940Y017021D01*
X105940Y026229D01*
X105874Y026387D01*
X105753Y026508D01*
X103803Y028458D01*
X103645Y028523D01*
X101628Y028523D01*
X101628Y029172D01*
X101575Y029300D01*
X101477Y029399D01*
X101348Y029452D01*
X100618Y029452D01*
X100490Y029399D01*
X100391Y029300D01*
X100338Y029172D01*
X100338Y028523D01*
X093338Y028523D01*
X092903Y028958D01*
X092745Y029023D01*
X092305Y029023D01*
X092270Y029058D01*
X092069Y029141D01*
X091850Y029141D01*
X091649Y029058D01*
X091495Y028904D01*
X091411Y028702D01*
X091411Y028484D01*
X091495Y028283D01*
X091649Y028129D01*
X091850Y028045D01*
X091911Y028045D01*
X091911Y027984D01*
X091995Y027783D01*
X092149Y027629D01*
X092350Y027545D01*
X092400Y027545D01*
X092616Y027329D01*
X092774Y027263D01*
X103181Y027263D01*
X104530Y025915D01*
X104530Y021231D01*
X102803Y022958D01*
X102624Y023137D01*
X101524Y024237D01*
X101403Y024358D01*
X101245Y024423D01*
X098138Y024423D01*
X097494Y025067D01*
X097536Y025050D01*
X097934Y025050D01*
X098302Y025202D01*
X098584Y025484D01*
X098736Y025852D01*
X098736Y026250D01*
X098584Y026618D01*
X098302Y026900D01*
X097934Y027052D01*
X097536Y027052D01*
X097168Y026900D01*
X096886Y026618D01*
X096734Y026250D01*
X096734Y025852D01*
X096751Y025810D01*
X096203Y026358D01*
X096045Y026423D01*
X093038Y026423D01*
X091808Y027653D01*
X091808Y027702D01*
X091724Y027904D01*
X091570Y028058D01*
X091369Y028141D01*
X091150Y028141D01*
X090949Y028058D01*
X090795Y027904D01*
X090780Y027868D01*
X090724Y028004D01*
X090570Y028158D01*
X090369Y028241D01*
X090150Y028241D01*
X089949Y028158D01*
X089795Y028004D01*
X089711Y027802D01*
X089711Y027800D01*
X089508Y028003D01*
X089508Y028052D01*
X089424Y028254D01*
X089270Y028408D01*
X089069Y028491D01*
X088850Y028491D01*
X088649Y028408D01*
X088495Y028254D01*
X088411Y028052D01*
X088411Y027834D01*
X088495Y027633D01*
X088649Y027479D01*
X088850Y027395D01*
X088900Y027395D01*
X091745Y024550D01*
X091866Y024429D01*
X092024Y024363D01*
X095181Y024363D01*
X102051Y017493D01*
X101980Y017493D01*
X101741Y017394D01*
X101558Y017212D01*
X101460Y016973D01*
X101460Y016114D01*
X101558Y015875D01*
X101741Y015692D01*
X101980Y015593D01*
X102239Y015593D01*
X102478Y015692D01*
X102661Y015875D01*
X102760Y016114D01*
X102760Y016785D01*
X102930Y016615D01*
X102930Y014908D01*
X102995Y014750D01*
X108325Y009420D01*
X108325Y009267D01*
X108421Y009034D01*
X108600Y008855D01*
X108628Y008843D01*
X069932Y008843D01*
X071835Y010746D01*
X071931Y010786D01*
X072066Y010921D01*
X072140Y011098D01*
X072140Y011289D01*
X072066Y011465D01*
X071988Y011543D01*
X072066Y011621D01*
X072140Y011798D01*
X072140Y011989D01*
X072066Y012165D01*
X071988Y012243D01*
X072066Y012321D01*
X072140Y012498D01*
X072140Y012689D01*
X072066Y012865D01*
X071988Y012943D01*
X072066Y013021D01*
X072140Y013198D01*
X072140Y013389D01*
X072066Y013565D01*
X071931Y013700D01*
X071755Y013773D01*
X071564Y013773D01*
X071388Y013700D01*
X071253Y013565D01*
X071207Y013454D01*
X068170Y010233D01*
X052342Y010233D01*
X052300Y010276D01*
X052300Y011181D01*
X052233Y011343D01*
X052109Y011466D01*
X051963Y011612D01*
X052082Y011662D01*
X052291Y011871D01*
X052405Y012145D01*
X052405Y012441D01*
X052291Y012715D01*
X052082Y012925D01*
X051963Y012974D01*
X052033Y013044D01*
X052100Y013206D01*
X052100Y014511D01*
X052142Y014553D01*
X058926Y014553D01*
X058744Y014371D01*
X058616Y014061D01*
X058616Y013725D01*
X058744Y013415D01*
X058982Y013178D01*
X059292Y013050D01*
X059627Y013050D01*
X059937Y013178D01*
X060175Y013415D01*
X060303Y013725D01*
X060303Y014061D01*
X060175Y014371D01*
X059993Y014553D01*
X062047Y014553D01*
X062209Y014620D01*
X062333Y014744D01*
X068742Y021153D01*
X070767Y021153D01*
X070864Y021113D01*
X071055Y021113D01*
X071231Y021186D01*
X071366Y021321D01*
X071440Y021498D01*
X071440Y021689D01*
X071366Y021865D01*
X071288Y021943D01*
X071366Y022021D01*
X071440Y022198D01*
X071440Y022389D01*
X071366Y022565D01*
X071288Y022643D01*
X071366Y022721D01*
X071440Y022898D01*
X071440Y023089D01*
X071366Y023265D01*
X071288Y023343D01*
X071366Y023421D01*
X071440Y023598D01*
X071440Y023789D01*
X071413Y023853D01*
X071577Y023853D01*
X074710Y020720D01*
X074872Y020653D01*
X075167Y020653D01*
X075264Y020613D01*
X075455Y020613D01*
X075631Y020686D01*
X075766Y020821D01*
X075840Y020998D01*
X075840Y021189D01*
X075788Y021313D01*
X075855Y021313D01*
X076031Y021386D01*
X076166Y021521D01*
X076240Y021698D01*
X076240Y021889D01*
X076166Y022065D01*
X076031Y022200D01*
X075855Y022273D01*
X075664Y022273D01*
X075488Y022200D01*
X075353Y022065D01*
X075280Y021889D01*
X075280Y021698D01*
X075331Y021573D01*
X075264Y021573D01*
X075167Y021533D01*
X075142Y021533D01*
X073507Y023168D01*
X074554Y023168D01*
X074683Y023222D01*
X074781Y023320D01*
X074835Y023449D01*
X074835Y024182D01*
X075035Y024382D01*
X075035Y023449D01*
X075088Y023320D01*
X075186Y023222D01*
X075315Y023168D01*
X076504Y023168D01*
X076633Y023222D01*
X076731Y023320D01*
X076785Y023449D01*
X076785Y023593D01*
X080699Y023593D01*
X080864Y023662D01*
X080991Y023788D01*
X082396Y025193D01*
X082599Y025193D01*
X082856Y025300D01*
X083053Y025497D01*
X083160Y025754D01*
X083160Y026033D01*
X083053Y026290D01*
X082856Y026487D01*
X082599Y026593D01*
X082320Y026593D01*
X082063Y026487D01*
X081866Y026290D01*
X081760Y026033D01*
X081760Y025830D01*
X080423Y024493D01*
X076785Y024493D01*
X076785Y024638D01*
X076731Y024767D01*
X076633Y024865D01*
X076504Y024918D01*
X075571Y024918D01*
X075671Y025018D01*
X076504Y025018D01*
X076633Y025072D01*
X076731Y025170D01*
X076785Y025299D01*
X076785Y026488D01*
X076731Y026617D01*
X076633Y026715D01*
X076504Y026768D01*
X075457Y026768D01*
X075557Y026868D01*
X076504Y026868D01*
X076633Y026922D01*
X076731Y027020D01*
X076785Y027149D01*
X076785Y028338D01*
X076731Y028467D01*
X076633Y028565D01*
X076504Y028618D01*
X075315Y028618D01*
X075186Y028565D01*
X075088Y028467D01*
X075035Y028338D01*
X075035Y027591D01*
X074677Y027233D01*
X072472Y027233D01*
X072310Y027166D01*
X070577Y025433D01*
X065489Y025433D01*
X065553Y025497D01*
X065660Y025754D01*
X065660Y026033D01*
X065553Y026290D01*
X065356Y026487D01*
X065099Y026593D01*
X064820Y026593D01*
X064563Y026487D01*
X064366Y026290D01*
X064260Y026033D01*
X064260Y025754D01*
X064366Y025497D01*
X064430Y025433D01*
X059285Y025433D01*
X059285Y026488D01*
X059231Y026617D01*
X059133Y026715D01*
X059004Y026768D01*
X057815Y026768D01*
X057686Y026715D01*
X057588Y026617D01*
X057535Y026488D01*
X057535Y025433D01*
X057385Y025433D01*
X057385Y026488D01*
X057331Y026617D01*
X057233Y026715D01*
X057104Y026768D01*
X055915Y026768D01*
X055786Y026715D01*
X055688Y026617D01*
X055635Y026488D01*
X055635Y025433D01*
X049224Y025433D01*
X049308Y025634D01*
X049308Y025852D01*
X049224Y026054D01*
X049070Y026208D01*
X048869Y026291D01*
X048650Y026291D01*
X048449Y026208D01*
X048295Y026054D01*
X048211Y025852D01*
X048211Y025634D01*
X048295Y025433D01*
X042989Y025433D01*
X043053Y025497D01*
X043160Y025754D01*
X043160Y026033D01*
X043053Y026290D01*
X042856Y026487D01*
X042599Y026593D01*
X042320Y026593D01*
X042063Y026487D01*
X041866Y026290D01*
X041760Y026033D01*
X041760Y025754D01*
X041866Y025497D01*
X041930Y025433D01*
X036785Y025433D01*
X036785Y026488D01*
X036731Y026617D01*
X036633Y026715D01*
X036504Y026768D01*
X035315Y026768D01*
X035186Y026715D01*
X035088Y026617D01*
X035035Y026488D01*
X035035Y025433D01*
X034885Y025433D01*
X034885Y026488D01*
X034831Y026617D01*
X034733Y026715D01*
X034604Y026768D01*
X033415Y026768D01*
X033286Y026715D01*
X033188Y026617D01*
X033135Y026488D01*
X033135Y025433D01*
X025489Y025433D01*
X025553Y025497D01*
X025660Y025754D01*
X025660Y026033D01*
X025553Y026290D01*
X025356Y026487D01*
X025099Y026593D01*
X024820Y026593D01*
X024563Y026487D01*
X024420Y026343D01*
X020446Y026343D01*
X019285Y027505D01*
X019285Y028338D01*
X019231Y028467D01*
X019133Y028565D01*
X019004Y028618D01*
X017815Y028618D01*
X017686Y028565D01*
X017588Y028467D01*
X017535Y028338D01*
X017535Y027149D01*
X017588Y027020D01*
X017686Y026922D01*
X017815Y026868D01*
X018648Y026868D01*
X018748Y026768D01*
X017815Y026768D01*
X017686Y026715D01*
X017588Y026617D01*
X017535Y026488D01*
X017535Y025755D01*
X017385Y025605D01*
X017385Y026488D01*
X017331Y026617D01*
X017233Y026715D01*
X017104Y026768D01*
X015915Y026768D01*
X015786Y026715D01*
X015688Y026617D01*
X015635Y026488D01*
X015635Y025299D01*
X015688Y025170D01*
X015786Y025072D01*
X015915Y025018D01*
X016798Y025018D01*
X016698Y024918D01*
X015865Y024918D01*
X015736Y024865D01*
X015638Y024767D01*
X015585Y024638D01*
X015585Y023449D01*
X015638Y023320D01*
X015736Y023222D01*
X015865Y023168D01*
X016880Y023168D01*
X016880Y022998D01*
X016953Y022821D01*
X017088Y022686D01*
X017264Y022613D01*
X017455Y022613D01*
X017552Y022653D01*
X035416Y022653D01*
X035288Y022600D01*
X035153Y022465D01*
X035080Y022289D01*
X035080Y022098D01*
X035153Y021921D01*
X035288Y021786D01*
X035464Y021713D01*
X035655Y021713D01*
X035831Y021786D01*
X035966Y021921D01*
X036040Y022098D01*
X036040Y022289D01*
X035966Y022465D01*
X035831Y022600D01*
X035703Y022653D01*
X047705Y022653D01*
X047610Y022423D01*
X047610Y021564D01*
X047664Y021433D01*
X041372Y021433D01*
X041210Y021366D01*
X037277Y017433D01*
X036007Y017433D01*
X036008Y017434D01*
X036008Y017652D01*
X037496Y017652D01*
X037398Y017554D02*
X036008Y017554D01*
X036008Y017652D02*
X035924Y017854D01*
X035770Y018008D01*
X035569Y018091D01*
X035350Y018091D01*
X035149Y018008D01*
X034995Y017854D01*
X034911Y017652D01*
X024723Y017652D01*
X024821Y017554D02*
X034911Y017554D01*
X034911Y017652D02*
X034911Y017434D01*
X034912Y017433D01*
X032772Y017433D01*
X032610Y017366D01*
X032486Y017243D01*
X030960Y015716D01*
X030960Y016523D01*
X030861Y016762D01*
X030678Y016944D01*
X030439Y017043D01*
X030180Y017043D01*
X029941Y016944D01*
X029758Y016762D01*
X029660Y016523D01*
X029660Y015664D01*
X029758Y015425D01*
X029941Y015242D01*
X030180Y015143D01*
X030387Y015143D01*
X029610Y014366D01*
X029486Y014243D01*
X029420Y014081D01*
X029420Y013785D01*
X029380Y013689D01*
X029380Y013633D01*
X028742Y013633D01*
X020833Y021543D01*
X020709Y021666D01*
X020547Y021733D01*
X017552Y021733D01*
X017455Y021773D01*
X017264Y021773D01*
X017088Y021700D01*
X016953Y021565D01*
X016880Y021389D01*
X016880Y021198D01*
X016953Y021021D01*
X017088Y020886D01*
X017264Y020813D01*
X017455Y020813D01*
X017552Y020853D01*
X020277Y020853D01*
X028310Y012820D01*
X028472Y012753D01*
X030820Y012753D01*
X030820Y011906D01*
X030886Y011744D01*
X031010Y011620D01*
X031210Y011420D01*
X031372Y011353D01*
X031777Y011353D01*
X031813Y011318D01*
X031853Y011221D01*
X031988Y011086D01*
X032164Y011013D01*
X032355Y011013D01*
X032531Y011086D01*
X032666Y011221D01*
X032740Y011398D01*
X032740Y011589D01*
X032666Y011765D01*
X032531Y011900D01*
X032435Y011940D01*
X032333Y012043D01*
X032209Y012166D01*
X032047Y012233D01*
X031700Y012233D01*
X031700Y013081D01*
X031633Y013243D01*
X031433Y013443D01*
X031309Y013566D01*
X031147Y013633D01*
X030340Y013633D01*
X030340Y013689D01*
X030300Y013785D01*
X030300Y013811D01*
X033042Y016553D01*
X037547Y016553D01*
X037709Y016620D01*
X037833Y016744D01*
X041642Y020553D01*
X042497Y020553D01*
X042186Y020243D01*
X042120Y020081D01*
X042120Y014485D01*
X042080Y014389D01*
X042080Y014198D01*
X042153Y014021D01*
X042288Y013886D01*
X042464Y013813D01*
X042655Y013813D01*
X042831Y013886D01*
X042966Y014021D01*
X043040Y014198D01*
X043040Y014389D01*
X043000Y014485D01*
X043000Y019811D01*
X043442Y020253D01*
X065997Y020253D01*
X061477Y015733D01*
X058151Y015733D01*
X058160Y015754D01*
X058160Y016033D01*
X058053Y016290D01*
X057856Y016487D01*
X057599Y016593D01*
X057320Y016593D01*
X057063Y016487D01*
X056866Y016290D01*
X056760Y016033D01*
X056760Y015754D01*
X056768Y015733D01*
X047798Y015733D01*
X047731Y015800D01*
X047555Y015873D01*
X047364Y015873D01*
X047188Y015800D01*
X047053Y015665D01*
X047013Y015569D01*
X046910Y015466D01*
X046786Y015343D01*
X046720Y015181D01*
X046720Y009806D01*
X046786Y009644D01*
X046797Y009633D01*
X041342Y009633D01*
X041200Y009776D01*
X041200Y011111D01*
X041242Y011153D01*
X041547Y011153D01*
X041709Y011220D01*
X041735Y011246D01*
X041831Y011286D01*
X041966Y011421D01*
X042040Y011598D01*
X042040Y011789D01*
X041966Y011965D01*
X041831Y012100D01*
X041655Y012173D01*
X041464Y012173D01*
X041288Y012100D01*
X041221Y012033D01*
X040972Y012033D01*
X040810Y011966D01*
X040686Y011843D01*
X040386Y011543D01*
X040320Y011381D01*
X040320Y009506D01*
X040386Y009344D01*
X040397Y009333D01*
X031142Y009333D01*
X029621Y010854D01*
X029640Y010898D01*
X029640Y011089D01*
X029566Y011265D01*
X029431Y011400D01*
X029255Y011473D01*
X029064Y011473D01*
X028888Y011400D01*
X028753Y011265D01*
X028713Y011169D01*
X028686Y011143D01*
X028620Y010981D01*
X028620Y010706D01*
X028686Y010544D01*
X028810Y010420D01*
X030387Y008843D01*
X007910Y008843D01*
X007910Y008886D02*
X030345Y008886D01*
X030246Y008984D02*
X007910Y008984D01*
X007910Y009083D02*
X030148Y009083D01*
X030049Y009181D02*
X007910Y009181D01*
X007910Y009280D02*
X029951Y009280D01*
X029852Y009378D02*
X007910Y009378D01*
X007910Y009477D02*
X029754Y009477D01*
X029655Y009575D02*
X007910Y009575D01*
X007910Y009674D02*
X029557Y009674D01*
X029458Y009772D02*
X007910Y009772D01*
X007910Y009871D02*
X009796Y009871D01*
X009824Y009863D02*
X010095Y009863D01*
X010357Y009934D01*
X010592Y010069D01*
X010784Y010261D01*
X010919Y010496D01*
X010990Y010758D01*
X010990Y011029D01*
X010919Y011291D01*
X010784Y011526D01*
X010592Y011718D01*
X010357Y011853D01*
X010095Y011923D01*
X009824Y011923D01*
X009562Y011853D01*
X009327Y011718D01*
X009135Y011526D01*
X009000Y011291D01*
X008930Y011029D01*
X008930Y010758D01*
X009000Y010496D01*
X009135Y010261D01*
X009327Y010069D01*
X009562Y009934D01*
X009824Y009863D01*
X010123Y009871D02*
X029360Y009871D01*
X029261Y009969D02*
X010419Y009969D01*
X010590Y010068D02*
X029163Y010068D01*
X029064Y010166D02*
X010689Y010166D01*
X010786Y010265D02*
X028966Y010265D01*
X028867Y010363D02*
X010843Y010363D01*
X010900Y010462D02*
X028769Y010462D01*
X028680Y010560D02*
X010937Y010560D01*
X010963Y010659D02*
X028639Y010659D01*
X028620Y010757D02*
X010989Y010757D01*
X010990Y010856D02*
X028620Y010856D01*
X028620Y010954D02*
X010990Y010954D01*
X010983Y011053D02*
X028649Y011053D01*
X028695Y011151D02*
X010957Y011151D01*
X010930Y011250D02*
X028746Y011250D01*
X028836Y011348D02*
X026328Y011348D01*
X026208Y011298D02*
X026482Y011412D01*
X026691Y011621D01*
X026805Y011895D01*
X026805Y012191D01*
X026691Y012465D01*
X026482Y012675D01*
X026208Y012788D01*
X025911Y012788D01*
X025638Y012675D01*
X025428Y012465D01*
X025315Y012191D01*
X025315Y011895D01*
X025428Y011621D01*
X025638Y011412D01*
X025911Y011298D01*
X026208Y011298D01*
X026517Y011447D02*
X029000Y011447D01*
X029319Y011447D02*
X031184Y011447D01*
X031085Y011545D02*
X026615Y011545D01*
X026700Y011644D02*
X030987Y011644D01*
X030888Y011742D02*
X026741Y011742D01*
X026782Y011841D02*
X030846Y011841D01*
X030820Y011939D02*
X026805Y011939D01*
X026805Y012038D02*
X030820Y012038D01*
X030820Y012136D02*
X026805Y012136D01*
X026787Y012235D02*
X030820Y012235D01*
X030820Y012333D02*
X026746Y012333D01*
X026705Y012432D02*
X030820Y012432D01*
X030820Y012530D02*
X026626Y012530D01*
X026528Y012629D02*
X030820Y012629D01*
X030820Y012727D02*
X026355Y012727D01*
X025764Y012727D02*
X007910Y012727D01*
X007910Y012629D02*
X025591Y012629D01*
X025493Y012530D02*
X007910Y012530D01*
X007910Y012432D02*
X025414Y012432D01*
X025373Y012333D02*
X007910Y012333D01*
X007910Y012235D02*
X025332Y012235D01*
X025315Y012136D02*
X007910Y012136D01*
X007910Y012038D02*
X025315Y012038D01*
X025315Y011939D02*
X007910Y011939D01*
X007910Y011841D02*
X009541Y011841D01*
X009370Y011742D02*
X007910Y011742D01*
X007910Y011644D02*
X009253Y011644D01*
X009155Y011545D02*
X007910Y011545D01*
X007910Y011447D02*
X009090Y011447D01*
X009033Y011348D02*
X007910Y011348D01*
X007910Y011250D02*
X008989Y011250D01*
X008962Y011151D02*
X007910Y011151D01*
X007910Y011053D02*
X008936Y011053D01*
X008930Y010954D02*
X007910Y010954D01*
X007910Y010856D02*
X008930Y010856D01*
X008930Y010757D02*
X007910Y010757D01*
X007910Y010659D02*
X008956Y010659D01*
X008982Y010560D02*
X007910Y010560D01*
X007910Y010462D02*
X009019Y010462D01*
X009076Y010363D02*
X007910Y010363D01*
X007910Y010265D02*
X009133Y010265D01*
X009230Y010166D02*
X007910Y010166D01*
X007910Y010068D02*
X009329Y010068D01*
X009500Y009969D02*
X007910Y009969D01*
X010886Y011348D02*
X025791Y011348D01*
X025602Y011447D02*
X010829Y011447D01*
X010764Y011545D02*
X025504Y011545D01*
X025419Y011644D02*
X010666Y011644D01*
X010549Y011742D02*
X025378Y011742D01*
X025337Y011841D02*
X010378Y011841D01*
X007910Y012826D02*
X028305Y012826D01*
X028206Y012924D02*
X007910Y012924D01*
X007910Y013023D02*
X028108Y013023D01*
X028009Y013121D02*
X007910Y013121D01*
X007910Y013220D02*
X027911Y013220D01*
X027812Y013318D02*
X007910Y013318D01*
X007910Y013417D02*
X027714Y013417D01*
X027615Y013515D02*
X007910Y013515D01*
X007910Y013614D02*
X027517Y013614D01*
X027418Y013712D02*
X007910Y013712D01*
X007910Y013811D02*
X027320Y013811D01*
X027221Y013909D02*
X007910Y013909D01*
X007910Y014008D02*
X027123Y014008D01*
X027024Y014106D02*
X007910Y014106D01*
X007910Y014205D02*
X026926Y014205D01*
X026827Y014303D02*
X007910Y014303D01*
X007910Y014402D02*
X026729Y014402D01*
X026630Y014500D02*
X007910Y014500D01*
X007910Y014599D02*
X026532Y014599D01*
X026433Y014697D02*
X007910Y014697D01*
X007910Y014796D02*
X026335Y014796D01*
X026236Y014894D02*
X007910Y014894D01*
X007910Y014993D02*
X026138Y014993D01*
X026039Y015091D02*
X007910Y015091D01*
X007910Y015190D02*
X025941Y015190D01*
X025842Y015288D02*
X007910Y015288D01*
X007910Y015387D02*
X025744Y015387D01*
X025645Y015485D02*
X007910Y015485D01*
X007910Y015584D02*
X025547Y015584D01*
X025448Y015682D02*
X007910Y015682D01*
X007910Y015781D02*
X025350Y015781D01*
X025251Y015879D02*
X007910Y015879D01*
X007910Y015978D02*
X025153Y015978D01*
X025054Y016076D02*
X007910Y016076D01*
X007910Y016175D02*
X024956Y016175D01*
X024857Y016273D02*
X007910Y016273D01*
X007910Y016372D02*
X024759Y016372D01*
X024660Y016470D02*
X007910Y016470D01*
X007910Y016569D02*
X024562Y016569D01*
X024463Y016667D02*
X007910Y016667D01*
X007910Y016766D02*
X024365Y016766D01*
X024266Y016864D02*
X007910Y016864D01*
X007910Y016963D02*
X024168Y016963D01*
X024069Y017061D02*
X007910Y017061D01*
X007910Y017160D02*
X023971Y017160D01*
X023872Y017258D02*
X007910Y017258D01*
X007910Y017357D02*
X023774Y017357D01*
X023675Y017455D02*
X007910Y017455D01*
X007910Y017554D02*
X023577Y017554D01*
X023478Y017652D02*
X007910Y017652D01*
X007910Y017751D02*
X023380Y017751D01*
X023281Y017849D02*
X007910Y017849D01*
X007910Y017948D02*
X023183Y017948D01*
X023084Y018046D02*
X007910Y018046D01*
X007910Y018145D02*
X022986Y018145D01*
X022887Y018243D02*
X007910Y018243D01*
X007910Y018342D02*
X022789Y018342D01*
X022690Y018440D02*
X007910Y018440D01*
X007910Y018539D02*
X022592Y018539D01*
X022493Y018637D02*
X007910Y018637D01*
X007910Y018736D02*
X022395Y018736D01*
X022296Y018834D02*
X007910Y018834D01*
X007910Y018933D02*
X022198Y018933D01*
X022099Y019031D02*
X007910Y019031D01*
X007910Y019130D02*
X022001Y019130D01*
X021902Y019228D02*
X007910Y019228D01*
X007910Y019327D02*
X021804Y019327D01*
X021705Y019425D02*
X007910Y019425D01*
X007910Y019524D02*
X021607Y019524D01*
X021508Y019622D02*
X007910Y019622D01*
X007910Y019721D02*
X021410Y019721D01*
X021311Y019819D02*
X007910Y019819D01*
X007910Y019918D02*
X021213Y019918D01*
X021114Y020016D02*
X007910Y020016D01*
X007910Y020115D02*
X021016Y020115D01*
X020917Y020213D02*
X007910Y020213D01*
X007910Y020312D02*
X020819Y020312D01*
X020720Y020410D02*
X007910Y020410D01*
X007910Y020509D02*
X020622Y020509D01*
X020523Y020607D02*
X007910Y020607D01*
X007910Y020706D02*
X020425Y020706D01*
X020326Y020804D02*
X007910Y020804D01*
X007910Y020903D02*
X017071Y020903D01*
X016973Y021001D02*
X007910Y021001D01*
X007910Y021100D02*
X016920Y021100D01*
X016880Y021198D02*
X007910Y021198D01*
X007910Y021297D02*
X016880Y021297D01*
X016882Y021395D02*
X007910Y021395D01*
X007910Y021494D02*
X016923Y021494D01*
X016980Y021592D02*
X007910Y021592D01*
X007910Y021691D02*
X017078Y021691D01*
X017113Y022676D02*
X007910Y022676D01*
X007910Y022774D02*
X017000Y022774D01*
X016931Y022873D02*
X007910Y022873D01*
X007910Y022971D02*
X016890Y022971D01*
X016880Y023070D02*
X007910Y023070D01*
X007910Y023168D02*
X015865Y023168D01*
X015691Y023267D02*
X007910Y023267D01*
X007910Y023365D02*
X015619Y023365D01*
X015585Y023464D02*
X007910Y023464D01*
X007910Y023562D02*
X015585Y023562D01*
X015585Y023661D02*
X007910Y023661D01*
X007910Y023759D02*
X015585Y023759D01*
X015585Y023858D02*
X007910Y023858D01*
X007910Y023956D02*
X015585Y023956D01*
X015585Y024055D02*
X007910Y024055D01*
X007910Y024153D02*
X015585Y024153D01*
X015585Y024252D02*
X007910Y024252D01*
X007910Y024350D02*
X015585Y024350D01*
X015585Y024449D02*
X007910Y024449D01*
X007910Y024547D02*
X015585Y024547D01*
X015588Y024646D02*
X007910Y024646D01*
X007910Y024744D02*
X015629Y024744D01*
X015714Y024843D02*
X007910Y024843D01*
X007910Y024941D02*
X016721Y024941D01*
X015863Y025040D02*
X007910Y025040D01*
X007910Y025138D02*
X015719Y025138D01*
X015660Y025237D02*
X007910Y025237D01*
X007910Y025335D02*
X015635Y025335D01*
X015635Y025434D02*
X007910Y025434D01*
X007910Y025532D02*
X015635Y025532D01*
X015635Y025631D02*
X007910Y025631D01*
X007910Y025729D02*
X015635Y025729D01*
X015635Y025828D02*
X007910Y025828D01*
X007910Y025926D02*
X015635Y025926D01*
X015635Y026025D02*
X007910Y026025D01*
X007910Y026123D02*
X015635Y026123D01*
X015635Y026222D02*
X007910Y026222D01*
X007910Y026320D02*
X015635Y026320D01*
X015635Y026419D02*
X007910Y026419D01*
X007910Y026517D02*
X015647Y026517D01*
X015688Y026616D02*
X007910Y026616D01*
X007910Y026714D02*
X015786Y026714D01*
X017233Y026714D02*
X017686Y026714D01*
X017588Y026616D02*
X017332Y026616D01*
X017372Y026517D02*
X017547Y026517D01*
X017535Y026419D02*
X017385Y026419D01*
X017385Y026320D02*
X017535Y026320D01*
X017535Y026222D02*
X017385Y026222D01*
X017385Y026123D02*
X017535Y026123D01*
X017535Y026025D02*
X017385Y026025D01*
X017385Y025926D02*
X017535Y025926D01*
X017535Y025828D02*
X017385Y025828D01*
X017385Y025729D02*
X017509Y025729D01*
X017411Y025631D02*
X017385Y025631D01*
X019285Y024296D02*
X019285Y023533D01*
X026195Y023533D01*
X026116Y023725D01*
X026116Y024061D01*
X026244Y024371D01*
X026426Y024553D01*
X019542Y024553D01*
X019285Y024296D01*
X019285Y024252D02*
X026195Y024252D01*
X026236Y024350D02*
X019339Y024350D01*
X019437Y024449D02*
X026322Y024449D01*
X026420Y024547D02*
X019536Y024547D01*
X019285Y024153D02*
X026154Y024153D01*
X026116Y024055D02*
X019285Y024055D01*
X019285Y023956D02*
X026116Y023956D01*
X026116Y023858D02*
X019285Y023858D01*
X019285Y023759D02*
X026116Y023759D01*
X026143Y023661D02*
X019285Y023661D01*
X019285Y023562D02*
X026183Y023562D01*
X027724Y023533D02*
X027803Y023725D01*
X027803Y024061D01*
X027675Y024371D01*
X027493Y024553D01*
X033085Y024553D01*
X033085Y023533D01*
X027724Y023533D01*
X027736Y023562D02*
X033085Y023562D01*
X033085Y023661D02*
X027776Y023661D01*
X027803Y023759D02*
X033085Y023759D01*
X033085Y023858D02*
X027803Y023858D01*
X027803Y023956D02*
X033085Y023956D01*
X033085Y024055D02*
X027803Y024055D01*
X027765Y024153D02*
X033085Y024153D01*
X033085Y024252D02*
X027724Y024252D01*
X027683Y024350D02*
X033085Y024350D01*
X033085Y024449D02*
X027597Y024449D01*
X027499Y024547D02*
X033085Y024547D01*
X034835Y024547D02*
X043920Y024547D01*
X043926Y024553D02*
X043744Y024371D01*
X043616Y024061D01*
X043616Y023725D01*
X043695Y023533D01*
X034835Y023533D01*
X034835Y024553D01*
X043926Y024553D01*
X043822Y024449D02*
X034835Y024449D01*
X034835Y024350D02*
X043736Y024350D01*
X043695Y024252D02*
X034835Y024252D01*
X034835Y024153D02*
X043654Y024153D01*
X043616Y024055D02*
X034835Y024055D01*
X034835Y023956D02*
X043616Y023956D01*
X043616Y023858D02*
X034835Y023858D01*
X034835Y023759D02*
X043616Y023759D01*
X043643Y023661D02*
X034835Y023661D01*
X034835Y023562D02*
X043683Y023562D01*
X045224Y023533D02*
X045303Y023725D01*
X045303Y024061D01*
X045175Y024371D01*
X044993Y024553D01*
X055585Y024553D01*
X055585Y023533D01*
X052195Y023533D01*
X052258Y023684D01*
X052258Y023902D01*
X052174Y024104D01*
X052020Y024258D01*
X051819Y024341D01*
X051600Y024341D01*
X051399Y024258D01*
X051245Y024104D01*
X051161Y023902D01*
X051161Y023684D01*
X051224Y023533D01*
X045224Y023533D01*
X045236Y023562D02*
X051212Y023562D01*
X051171Y023661D02*
X045276Y023661D01*
X045303Y023759D02*
X051161Y023759D01*
X051161Y023858D02*
X045303Y023858D01*
X045303Y023956D02*
X051184Y023956D01*
X051225Y024055D02*
X045303Y024055D01*
X045265Y024153D02*
X051294Y024153D01*
X051393Y024252D02*
X045224Y024252D01*
X045183Y024350D02*
X055585Y024350D01*
X055585Y024252D02*
X052026Y024252D01*
X052125Y024153D02*
X055585Y024153D01*
X055585Y024055D02*
X052194Y024055D01*
X052235Y023956D02*
X055585Y023956D01*
X055585Y023858D02*
X052258Y023858D01*
X052258Y023759D02*
X055585Y023759D01*
X055585Y023661D02*
X052248Y023661D01*
X052207Y023562D02*
X055585Y023562D01*
X055585Y024449D02*
X045097Y024449D01*
X044999Y024547D02*
X055585Y024547D01*
X057335Y024547D02*
X066420Y024547D01*
X066426Y024553D02*
X066244Y024371D01*
X066116Y024061D01*
X066116Y023725D01*
X066195Y023533D01*
X057335Y023533D01*
X057335Y024553D01*
X066426Y024553D01*
X066322Y024449D02*
X057335Y024449D01*
X057335Y024350D02*
X066236Y024350D01*
X066195Y024252D02*
X057335Y024252D01*
X057335Y024153D02*
X066154Y024153D01*
X066116Y024055D02*
X057335Y024055D01*
X057335Y023956D02*
X066116Y023956D01*
X066116Y023858D02*
X057335Y023858D01*
X057335Y023759D02*
X066116Y023759D01*
X066143Y023661D02*
X057335Y023661D01*
X057335Y023562D02*
X066183Y023562D01*
X071310Y023365D02*
X072065Y023365D01*
X072164Y023267D02*
X071365Y023267D01*
X071407Y023168D02*
X072262Y023168D01*
X072361Y023070D02*
X072084Y023070D01*
X072131Y023050D02*
X071955Y023123D01*
X071764Y023123D01*
X071588Y023050D01*
X071453Y022915D01*
X071380Y022739D01*
X071380Y022548D01*
X071453Y022371D01*
X071588Y022236D01*
X071764Y022163D01*
X071955Y022163D01*
X072131Y022236D01*
X072266Y022371D01*
X072340Y022548D01*
X072340Y022739D01*
X072266Y022915D01*
X072131Y023050D01*
X072210Y022971D02*
X072459Y022971D01*
X072558Y022873D02*
X072284Y022873D01*
X072325Y022774D02*
X072656Y022774D01*
X072755Y022676D02*
X072340Y022676D01*
X072340Y022577D02*
X072853Y022577D01*
X072952Y022479D02*
X072311Y022479D01*
X072270Y022380D02*
X073050Y022380D01*
X073149Y022282D02*
X072177Y022282D01*
X072003Y022183D02*
X073247Y022183D01*
X073346Y022085D02*
X071393Y022085D01*
X071434Y022183D02*
X071716Y022183D01*
X071542Y022282D02*
X071440Y022282D01*
X071440Y022380D02*
X071449Y022380D01*
X071408Y022479D02*
X071402Y022479D01*
X071380Y022577D02*
X071354Y022577D01*
X071380Y022676D02*
X071321Y022676D01*
X071388Y022774D02*
X071394Y022774D01*
X071429Y022873D02*
X071435Y022873D01*
X071440Y022971D02*
X071509Y022971D01*
X071440Y023070D02*
X071635Y023070D01*
X073605Y023070D02*
X084243Y023070D01*
X084292Y023050D02*
X084627Y023050D01*
X084937Y023178D01*
X085175Y023415D01*
X085303Y023725D01*
X085303Y024061D01*
X085175Y024371D01*
X084937Y024609D01*
X084627Y024737D01*
X084292Y024737D01*
X083982Y024609D01*
X083744Y024371D01*
X083616Y024061D01*
X083616Y023725D01*
X083744Y023415D01*
X083982Y023178D01*
X084292Y023050D01*
X084005Y023168D02*
X076504Y023168D01*
X076678Y023267D02*
X083893Y023267D01*
X083794Y023365D02*
X076750Y023365D01*
X076785Y023464D02*
X083724Y023464D01*
X083683Y023562D02*
X076785Y023562D01*
X075315Y023168D02*
X074554Y023168D01*
X074728Y023267D02*
X075141Y023267D01*
X075069Y023365D02*
X074800Y023365D01*
X074835Y023464D02*
X075035Y023464D01*
X075035Y023562D02*
X074835Y023562D01*
X074835Y023661D02*
X075035Y023661D01*
X075035Y023759D02*
X074835Y023759D01*
X074835Y023858D02*
X075035Y023858D01*
X075035Y023956D02*
X074835Y023956D01*
X074835Y024055D02*
X075035Y024055D01*
X075035Y024153D02*
X074835Y024153D01*
X074904Y024252D02*
X075035Y024252D01*
X075035Y024350D02*
X075003Y024350D01*
X076655Y024843D02*
X080773Y024843D01*
X080871Y024941D02*
X075594Y024941D01*
X076556Y025040D02*
X080970Y025040D01*
X081068Y025138D02*
X076700Y025138D01*
X076759Y025237D02*
X081167Y025237D01*
X081265Y025335D02*
X076785Y025335D01*
X076785Y025434D02*
X081364Y025434D01*
X081462Y025532D02*
X076785Y025532D01*
X076785Y025631D02*
X081561Y025631D01*
X081659Y025729D02*
X076785Y025729D01*
X076785Y025828D02*
X081758Y025828D01*
X081760Y025926D02*
X076785Y025926D01*
X076785Y026025D02*
X081760Y026025D01*
X081797Y026123D02*
X076785Y026123D01*
X076785Y026222D02*
X081838Y026222D01*
X081897Y026320D02*
X076785Y026320D01*
X076785Y026419D02*
X081995Y026419D01*
X082137Y026517D02*
X076772Y026517D01*
X076732Y026616D02*
X089679Y026616D01*
X089580Y026714D02*
X076633Y026714D01*
X076608Y026911D02*
X089383Y026911D01*
X089285Y027010D02*
X076721Y027010D01*
X076768Y027108D02*
X080150Y027108D01*
X080292Y027050D02*
X080627Y027050D01*
X080937Y027178D01*
X081175Y027415D01*
X081303Y027725D01*
X081303Y028061D01*
X081175Y028371D01*
X080937Y028609D01*
X080627Y028737D01*
X080292Y028737D01*
X079982Y028609D01*
X079744Y028371D01*
X079616Y028061D01*
X079616Y027725D01*
X079744Y027415D01*
X079982Y027178D01*
X080292Y027050D01*
X079953Y027207D02*
X076785Y027207D01*
X076785Y027305D02*
X079854Y027305D01*
X079756Y027404D02*
X076785Y027404D01*
X076785Y027502D02*
X079708Y027502D01*
X079667Y027601D02*
X076785Y027601D01*
X076785Y027699D02*
X079627Y027699D01*
X079616Y027798D02*
X076785Y027798D01*
X076785Y027896D02*
X079616Y027896D01*
X079616Y027995D02*
X076785Y027995D01*
X076785Y028093D02*
X079629Y028093D01*
X079670Y028192D02*
X076785Y028192D01*
X076785Y028290D02*
X079711Y028290D01*
X079762Y028389D02*
X076763Y028389D01*
X076710Y028487D02*
X079860Y028487D01*
X079959Y028586D02*
X076582Y028586D01*
X075237Y028586D02*
X063460Y028586D01*
X063437Y028609D02*
X063675Y028371D01*
X063803Y028061D01*
X063803Y027725D01*
X063675Y027415D01*
X063437Y027178D01*
X063127Y027050D01*
X062792Y027050D01*
X062482Y027178D01*
X062244Y027415D01*
X062116Y027725D01*
X062116Y028061D01*
X062244Y028371D01*
X062482Y028609D01*
X062792Y028737D01*
X063127Y028737D01*
X063437Y028609D01*
X063559Y028487D02*
X075109Y028487D01*
X075056Y028389D02*
X063657Y028389D01*
X063708Y028290D02*
X075035Y028290D01*
X075035Y028192D02*
X063749Y028192D01*
X063790Y028093D02*
X075035Y028093D01*
X075035Y027995D02*
X063803Y027995D01*
X063803Y027896D02*
X075035Y027896D01*
X075035Y027798D02*
X063803Y027798D01*
X063792Y027699D02*
X075035Y027699D01*
X075035Y027601D02*
X063752Y027601D01*
X063711Y027502D02*
X074946Y027502D01*
X074848Y027404D02*
X063663Y027404D01*
X063565Y027305D02*
X074749Y027305D01*
X075501Y026813D02*
X089482Y026813D01*
X089186Y027108D02*
X080769Y027108D01*
X080966Y027207D02*
X089088Y027207D01*
X088989Y027305D02*
X081065Y027305D01*
X081163Y027404D02*
X088830Y027404D01*
X088625Y027502D02*
X081211Y027502D01*
X081252Y027601D02*
X088527Y027601D01*
X088467Y027699D02*
X081292Y027699D01*
X081303Y027798D02*
X088426Y027798D01*
X088411Y027896D02*
X081303Y027896D01*
X081303Y027995D02*
X088411Y027995D01*
X088428Y028093D02*
X081290Y028093D01*
X081249Y028192D02*
X088469Y028192D01*
X088531Y028290D02*
X081208Y028290D01*
X081157Y028389D02*
X088630Y028389D01*
X088841Y028487D02*
X088281Y028487D01*
X088373Y028525D02*
X088527Y028680D01*
X088611Y028881D01*
X088611Y028945D01*
X088819Y028945D01*
X089020Y029029D01*
X089174Y029183D01*
X089258Y029384D01*
X089258Y029602D01*
X089174Y029804D01*
X089020Y029958D01*
X088819Y030041D01*
X088600Y030041D01*
X088399Y029958D01*
X088245Y029804D01*
X088161Y029602D01*
X088161Y029538D01*
X087954Y029538D01*
X087752Y029455D01*
X087598Y029301D01*
X087515Y029099D01*
X087515Y028881D01*
X087598Y028680D01*
X087752Y028525D01*
X087954Y028442D01*
X088172Y028442D01*
X088373Y028525D01*
X088434Y028586D02*
X091411Y028586D01*
X091411Y028684D02*
X088529Y028684D01*
X088570Y028783D02*
X091445Y028783D01*
X091486Y028881D02*
X088611Y028881D01*
X088902Y028980D02*
X091571Y028980D01*
X091698Y029078D02*
X089070Y029078D01*
X089168Y029177D02*
X100340Y029177D01*
X100338Y029078D02*
X092221Y029078D01*
X092850Y028980D02*
X100338Y028980D01*
X100338Y028881D02*
X092980Y028881D01*
X093078Y028783D02*
X100338Y028783D01*
X100338Y028684D02*
X093177Y028684D01*
X093275Y028586D02*
X100338Y028586D01*
X101628Y028586D02*
X107010Y028586D01*
X107010Y028684D02*
X101628Y028684D01*
X101628Y028783D02*
X107010Y028783D01*
X107010Y028881D02*
X101628Y028881D01*
X101628Y028980D02*
X107010Y028980D01*
X107010Y029078D02*
X101628Y029078D01*
X101626Y029177D02*
X107010Y029177D01*
X107010Y029275D02*
X101585Y029275D01*
X101501Y029374D02*
X107010Y029374D01*
X107010Y029472D02*
X089258Y029472D01*
X089253Y029374D02*
X100465Y029374D01*
X100381Y029275D02*
X089213Y029275D01*
X089258Y029571D02*
X107010Y029571D01*
X107010Y029669D02*
X089230Y029669D01*
X089189Y029768D02*
X107010Y029768D01*
X107010Y029866D02*
X100107Y029866D01*
X100095Y029863D02*
X100357Y029934D01*
X100592Y030069D01*
X100784Y030261D01*
X100919Y030496D01*
X100990Y030758D01*
X100990Y031029D01*
X100919Y031291D01*
X100784Y031526D01*
X100592Y031718D01*
X100357Y031853D01*
X100095Y031923D01*
X099824Y031923D01*
X099562Y031853D01*
X099327Y031718D01*
X099135Y031526D01*
X099000Y031291D01*
X098930Y031029D01*
X098930Y030758D01*
X099000Y030496D01*
X099135Y030261D01*
X099327Y030069D01*
X099562Y029934D01*
X099824Y029863D01*
X100095Y029863D01*
X099813Y029866D02*
X089112Y029866D01*
X089003Y029965D02*
X099508Y029965D01*
X099337Y030063D02*
X094912Y030063D01*
X094869Y030045D02*
X095070Y030129D01*
X095224Y030283D01*
X095308Y030484D01*
X095308Y030702D01*
X095224Y030904D01*
X095070Y031058D01*
X094869Y031141D01*
X094650Y031141D01*
X094449Y031058D01*
X094410Y031018D01*
X094370Y031058D01*
X094169Y031141D01*
X093950Y031141D01*
X093749Y031058D01*
X093595Y030904D01*
X093511Y030702D01*
X093511Y030484D01*
X093595Y030283D01*
X093749Y030129D01*
X093950Y030045D01*
X094169Y030045D01*
X094370Y030129D01*
X094410Y030168D01*
X094449Y030129D01*
X094650Y030045D01*
X094869Y030045D01*
X095103Y030162D02*
X099234Y030162D01*
X099136Y030260D02*
X095202Y030260D01*
X095256Y030359D02*
X099079Y030359D01*
X099022Y030457D02*
X095296Y030457D01*
X095308Y030556D02*
X098984Y030556D01*
X098957Y030654D02*
X095308Y030654D01*
X095287Y030753D02*
X098931Y030753D01*
X098930Y030851D02*
X095246Y030851D01*
X095178Y030950D02*
X098930Y030950D01*
X098935Y031048D02*
X095080Y031048D01*
X094439Y031048D02*
X094380Y031048D01*
X093739Y031048D02*
X010984Y031048D01*
X010990Y031029D02*
X010919Y031291D01*
X010784Y031526D01*
X010592Y031718D01*
X010357Y031853D01*
X010095Y031923D01*
X009824Y031923D01*
X009562Y031853D01*
X009327Y031718D01*
X009135Y031526D01*
X009000Y031291D01*
X008930Y031029D01*
X008930Y030758D01*
X009000Y030496D01*
X009135Y030261D01*
X009327Y030069D01*
X009562Y029934D01*
X009824Y029863D01*
X010095Y029863D01*
X010357Y029934D01*
X010592Y030069D01*
X010784Y030261D01*
X010919Y030496D01*
X010990Y030758D01*
X010990Y031029D01*
X010990Y030950D02*
X093641Y030950D01*
X093573Y030851D02*
X010990Y030851D01*
X010988Y030753D02*
X093532Y030753D01*
X093511Y030654D02*
X010962Y030654D01*
X010935Y030556D02*
X093511Y030556D01*
X093523Y030457D02*
X010897Y030457D01*
X010840Y030359D02*
X093563Y030359D01*
X093617Y030260D02*
X010783Y030260D01*
X010685Y030162D02*
X093716Y030162D01*
X093907Y030063D02*
X010582Y030063D01*
X010411Y029965D02*
X088416Y029965D01*
X088307Y029866D02*
X010107Y029866D01*
X009813Y029866D02*
X007910Y029866D01*
X007910Y029768D02*
X088230Y029768D01*
X088189Y029669D02*
X007910Y029669D01*
X007910Y029571D02*
X088161Y029571D01*
X087795Y029472D02*
X007910Y029472D01*
X007910Y029374D02*
X087671Y029374D01*
X087588Y029275D02*
X007910Y029275D01*
X007910Y029177D02*
X087547Y029177D01*
X087515Y029078D02*
X007910Y029078D01*
X007910Y028980D02*
X087515Y028980D01*
X087515Y028881D02*
X007910Y028881D01*
X007910Y028783D02*
X087555Y028783D01*
X087596Y028684D02*
X080754Y028684D01*
X080960Y028586D02*
X087692Y028586D01*
X087844Y028487D02*
X081059Y028487D01*
X080165Y028684D02*
X063254Y028684D01*
X062665Y028684D02*
X040754Y028684D01*
X040627Y028737D02*
X040292Y028737D01*
X039982Y028609D01*
X039744Y028371D01*
X039616Y028061D01*
X039616Y027725D01*
X039744Y027415D01*
X039982Y027178D01*
X040292Y027050D01*
X040627Y027050D01*
X040937Y027178D01*
X041175Y027415D01*
X041303Y027725D01*
X041303Y028061D01*
X041175Y028371D01*
X040937Y028609D01*
X040627Y028737D01*
X040960Y028586D02*
X057737Y028586D01*
X057686Y028565D02*
X057588Y028467D01*
X057535Y028338D01*
X057535Y027149D01*
X057588Y027020D01*
X057686Y026922D01*
X057815Y026868D01*
X059004Y026868D01*
X059133Y026922D01*
X059231Y027020D01*
X059285Y027149D01*
X059285Y028338D01*
X059231Y028467D01*
X059133Y028565D01*
X059004Y028618D01*
X057815Y028618D01*
X057686Y028565D01*
X057609Y028487D02*
X041059Y028487D01*
X041157Y028389D02*
X057556Y028389D01*
X057535Y028290D02*
X041208Y028290D01*
X041249Y028192D02*
X057535Y028192D01*
X057535Y028093D02*
X051138Y028093D01*
X051131Y028100D02*
X050955Y028173D01*
X050764Y028173D01*
X050588Y028100D01*
X050453Y027965D01*
X050380Y027789D01*
X050380Y027598D01*
X050453Y027421D01*
X050531Y027343D01*
X050453Y027265D01*
X050380Y027089D01*
X050380Y026898D01*
X050453Y026721D01*
X050588Y026586D01*
X050764Y026513D01*
X050955Y026513D01*
X051131Y026586D01*
X051266Y026721D01*
X051340Y026898D01*
X051340Y027089D01*
X051266Y027265D01*
X051188Y027343D01*
X051266Y027421D01*
X051340Y027598D01*
X051340Y027789D01*
X051266Y027965D01*
X051131Y028100D01*
X051237Y027995D02*
X057535Y027995D01*
X057535Y027896D02*
X051295Y027896D01*
X051336Y027798D02*
X057535Y027798D01*
X057535Y027699D02*
X051340Y027699D01*
X051340Y027601D02*
X057535Y027601D01*
X057535Y027502D02*
X051300Y027502D01*
X051249Y027404D02*
X057535Y027404D01*
X057535Y027305D02*
X051226Y027305D01*
X051291Y027207D02*
X057535Y027207D01*
X057551Y027108D02*
X051331Y027108D01*
X051340Y027010D02*
X057598Y027010D01*
X057711Y026911D02*
X051340Y026911D01*
X051304Y026813D02*
X071957Y026813D01*
X072055Y026911D02*
X059108Y026911D01*
X059221Y027010D02*
X072154Y027010D01*
X072252Y027108D02*
X063269Y027108D01*
X063466Y027207D02*
X072408Y027207D01*
X071858Y026714D02*
X059133Y026714D01*
X059232Y026616D02*
X071760Y026616D01*
X071661Y026517D02*
X065282Y026517D01*
X065424Y026419D02*
X071563Y026419D01*
X071464Y026320D02*
X065522Y026320D01*
X065581Y026222D02*
X071366Y026222D01*
X071267Y026123D02*
X065622Y026123D01*
X065660Y026025D02*
X071169Y026025D01*
X071070Y025926D02*
X065660Y025926D01*
X065660Y025828D02*
X070972Y025828D01*
X070873Y025729D02*
X065649Y025729D01*
X065608Y025631D02*
X070775Y025631D01*
X070676Y025532D02*
X065568Y025532D01*
X065490Y025434D02*
X070578Y025434D01*
X064637Y026517D02*
X059272Y026517D01*
X059285Y026419D02*
X064495Y026419D01*
X064397Y026320D02*
X059285Y026320D01*
X059285Y026222D02*
X064338Y026222D01*
X064297Y026123D02*
X059285Y026123D01*
X059285Y026025D02*
X064260Y026025D01*
X064260Y025926D02*
X059285Y025926D01*
X059285Y025828D02*
X064260Y025828D01*
X064270Y025729D02*
X059285Y025729D01*
X059285Y025631D02*
X064311Y025631D01*
X064351Y025532D02*
X059285Y025532D01*
X059285Y025434D02*
X064429Y025434D01*
X062650Y027108D02*
X059268Y027108D01*
X059285Y027207D02*
X062453Y027207D01*
X062354Y027305D02*
X059285Y027305D01*
X059285Y027404D02*
X062256Y027404D01*
X062208Y027502D02*
X059285Y027502D01*
X059285Y027601D02*
X062167Y027601D01*
X062127Y027699D02*
X059285Y027699D01*
X059285Y027798D02*
X062116Y027798D01*
X062116Y027896D02*
X059285Y027896D01*
X059285Y027995D02*
X062116Y027995D01*
X062129Y028093D02*
X059285Y028093D01*
X059285Y028192D02*
X062170Y028192D01*
X062211Y028290D02*
X059285Y028290D01*
X059263Y028389D02*
X062262Y028389D01*
X062360Y028487D02*
X059210Y028487D01*
X059082Y028586D02*
X062459Y028586D01*
X057686Y026714D02*
X057233Y026714D01*
X057332Y026616D02*
X057588Y026616D01*
X057547Y026517D02*
X057372Y026517D01*
X057385Y026419D02*
X057535Y026419D01*
X057535Y026320D02*
X057385Y026320D01*
X057385Y026222D02*
X057535Y026222D01*
X057535Y026123D02*
X057385Y026123D01*
X057385Y026025D02*
X057535Y026025D01*
X057535Y025926D02*
X057385Y025926D01*
X057385Y025828D02*
X057535Y025828D01*
X057535Y025729D02*
X057385Y025729D01*
X057385Y025631D02*
X057535Y025631D01*
X057535Y025532D02*
X057385Y025532D01*
X057385Y025434D02*
X057535Y025434D01*
X055635Y025434D02*
X049225Y025434D01*
X049265Y025532D02*
X055635Y025532D01*
X055635Y025631D02*
X049306Y025631D01*
X049308Y025729D02*
X055635Y025729D01*
X055635Y025828D02*
X049308Y025828D01*
X049277Y025926D02*
X055635Y025926D01*
X055635Y026025D02*
X049236Y026025D01*
X049155Y026123D02*
X055635Y026123D01*
X055635Y026222D02*
X049036Y026222D01*
X048483Y026222D02*
X043081Y026222D01*
X043122Y026123D02*
X048364Y026123D01*
X048283Y026025D02*
X043160Y026025D01*
X043160Y025926D02*
X048242Y025926D01*
X048211Y025828D02*
X043160Y025828D01*
X043149Y025729D02*
X048211Y025729D01*
X048213Y025631D02*
X043108Y025631D01*
X043068Y025532D02*
X048254Y025532D01*
X048294Y025434D02*
X042990Y025434D01*
X041929Y025434D02*
X036785Y025434D01*
X036785Y025532D02*
X041851Y025532D01*
X041811Y025631D02*
X036785Y025631D01*
X036785Y025729D02*
X041770Y025729D01*
X041760Y025828D02*
X036785Y025828D01*
X036785Y025926D02*
X041760Y025926D01*
X041760Y026025D02*
X036785Y026025D01*
X036785Y026123D02*
X041797Y026123D01*
X041838Y026222D02*
X036785Y026222D01*
X036785Y026320D02*
X041897Y026320D01*
X041995Y026419D02*
X036785Y026419D01*
X036772Y026517D02*
X042137Y026517D01*
X042782Y026517D02*
X050754Y026517D01*
X050965Y026517D02*
X055647Y026517D01*
X055635Y026419D02*
X042924Y026419D01*
X043022Y026320D02*
X055635Y026320D01*
X055688Y026616D02*
X051161Y026616D01*
X051259Y026714D02*
X055786Y026714D01*
X050558Y026616D02*
X036732Y026616D01*
X036633Y026714D02*
X050460Y026714D01*
X050415Y026813D02*
X019976Y026813D01*
X019878Y026911D02*
X035211Y026911D01*
X035186Y026922D02*
X035315Y026868D01*
X036504Y026868D01*
X036633Y026922D01*
X036731Y027020D01*
X036785Y027149D01*
X036785Y028338D01*
X036731Y028467D01*
X036633Y028565D01*
X036504Y028618D01*
X035315Y028618D01*
X035186Y028565D01*
X035088Y028467D01*
X035035Y028338D01*
X035035Y027149D01*
X035088Y027020D01*
X035186Y026922D01*
X035098Y027010D02*
X019779Y027010D01*
X019681Y027108D02*
X022650Y027108D01*
X022792Y027050D02*
X023127Y027050D01*
X023437Y027178D01*
X023675Y027415D01*
X023803Y027725D01*
X023803Y028061D01*
X023675Y028371D01*
X023437Y028609D01*
X023127Y028737D01*
X022792Y028737D01*
X022482Y028609D01*
X022244Y028371D01*
X022116Y028061D01*
X022116Y027725D01*
X022244Y027415D01*
X022482Y027178D01*
X022792Y027050D01*
X022453Y027207D02*
X019582Y027207D01*
X019484Y027305D02*
X022354Y027305D01*
X022256Y027404D02*
X019385Y027404D01*
X019287Y027502D02*
X022208Y027502D01*
X022167Y027601D02*
X019285Y027601D01*
X019285Y027699D02*
X022127Y027699D01*
X022116Y027798D02*
X019285Y027798D01*
X019285Y027896D02*
X022116Y027896D01*
X022116Y027995D02*
X019285Y027995D01*
X019285Y028093D02*
X022129Y028093D01*
X022170Y028192D02*
X019285Y028192D01*
X019285Y028290D02*
X022211Y028290D01*
X022262Y028389D02*
X019263Y028389D01*
X019210Y028487D02*
X022360Y028487D01*
X022459Y028586D02*
X019082Y028586D01*
X017737Y028586D02*
X007910Y028586D01*
X007910Y028684D02*
X022665Y028684D01*
X023254Y028684D02*
X040165Y028684D01*
X039959Y028586D02*
X036582Y028586D01*
X036710Y028487D02*
X039860Y028487D01*
X039762Y028389D02*
X036763Y028389D01*
X036785Y028290D02*
X039711Y028290D01*
X039670Y028192D02*
X036785Y028192D01*
X036785Y028093D02*
X039629Y028093D01*
X039616Y027995D02*
X036785Y027995D01*
X036785Y027896D02*
X039616Y027896D01*
X039616Y027798D02*
X036785Y027798D01*
X036785Y027699D02*
X039627Y027699D01*
X039667Y027601D02*
X036785Y027601D01*
X036785Y027502D02*
X039708Y027502D01*
X039756Y027404D02*
X036785Y027404D01*
X036785Y027305D02*
X039854Y027305D01*
X039953Y027207D02*
X036785Y027207D01*
X036768Y027108D02*
X040150Y027108D01*
X040769Y027108D02*
X050388Y027108D01*
X050380Y027010D02*
X036721Y027010D01*
X036608Y026911D02*
X050380Y026911D01*
X050428Y027207D02*
X040966Y027207D01*
X041065Y027305D02*
X050493Y027305D01*
X050470Y027404D02*
X041163Y027404D01*
X041211Y027502D02*
X050419Y027502D01*
X050380Y027601D02*
X041252Y027601D01*
X041292Y027699D02*
X050380Y027699D01*
X050383Y027798D02*
X041303Y027798D01*
X041303Y027896D02*
X050424Y027896D01*
X050482Y027995D02*
X041303Y027995D01*
X041290Y028093D02*
X050581Y028093D01*
X035237Y028586D02*
X023460Y028586D01*
X023559Y028487D02*
X035109Y028487D01*
X035056Y028389D02*
X023657Y028389D01*
X023708Y028290D02*
X035035Y028290D01*
X035035Y028192D02*
X023749Y028192D01*
X023790Y028093D02*
X035035Y028093D01*
X035035Y027995D02*
X023803Y027995D01*
X023803Y027896D02*
X035035Y027896D01*
X035035Y027798D02*
X023803Y027798D01*
X023792Y027699D02*
X035035Y027699D01*
X035035Y027601D02*
X023752Y027601D01*
X023711Y027502D02*
X035035Y027502D01*
X035035Y027404D02*
X023663Y027404D01*
X023565Y027305D02*
X035035Y027305D01*
X035035Y027207D02*
X023466Y027207D01*
X023269Y027108D02*
X035051Y027108D01*
X035186Y026714D02*
X034733Y026714D01*
X034832Y026616D02*
X035088Y026616D01*
X035047Y026517D02*
X034872Y026517D01*
X034885Y026419D02*
X035035Y026419D01*
X035035Y026320D02*
X034885Y026320D01*
X034885Y026222D02*
X035035Y026222D01*
X035035Y026123D02*
X034885Y026123D01*
X034885Y026025D02*
X035035Y026025D01*
X035035Y025926D02*
X034885Y025926D01*
X034885Y025828D02*
X035035Y025828D01*
X035035Y025729D02*
X034885Y025729D01*
X034885Y025631D02*
X035035Y025631D01*
X035035Y025532D02*
X034885Y025532D01*
X034885Y025434D02*
X035035Y025434D01*
X033135Y025434D02*
X025490Y025434D01*
X025568Y025532D02*
X033135Y025532D01*
X033135Y025631D02*
X025608Y025631D01*
X025649Y025729D02*
X033135Y025729D01*
X033135Y025828D02*
X025660Y025828D01*
X025660Y025926D02*
X033135Y025926D01*
X033135Y026025D02*
X025660Y026025D01*
X025622Y026123D02*
X033135Y026123D01*
X033135Y026222D02*
X025581Y026222D01*
X025522Y026320D02*
X033135Y026320D01*
X033135Y026419D02*
X025424Y026419D01*
X025282Y026517D02*
X033147Y026517D01*
X033188Y026616D02*
X020173Y026616D01*
X020075Y026714D02*
X033286Y026714D01*
X024637Y026517D02*
X020272Y026517D01*
X020370Y026419D02*
X024495Y026419D01*
X018704Y026813D02*
X007910Y026813D01*
X007910Y026911D02*
X017711Y026911D01*
X017598Y027010D02*
X007910Y027010D01*
X007910Y027108D02*
X017551Y027108D01*
X017535Y027207D02*
X007910Y027207D01*
X007910Y027305D02*
X017535Y027305D01*
X017535Y027404D02*
X007910Y027404D01*
X007910Y027502D02*
X017535Y027502D01*
X017535Y027601D02*
X007910Y027601D01*
X007910Y027699D02*
X017535Y027699D01*
X017535Y027798D02*
X007910Y027798D01*
X007910Y027896D02*
X017535Y027896D01*
X017535Y027995D02*
X007910Y027995D01*
X007910Y028093D02*
X017535Y028093D01*
X017535Y028192D02*
X007910Y028192D01*
X007910Y028290D02*
X017535Y028290D01*
X017556Y028389D02*
X007910Y028389D01*
X007910Y028487D02*
X017609Y028487D01*
X009508Y029965D02*
X007910Y029965D01*
X007910Y030063D02*
X009337Y030063D01*
X009234Y030162D02*
X007910Y030162D01*
X007910Y030260D02*
X009136Y030260D01*
X009079Y030359D02*
X007910Y030359D01*
X007910Y030457D02*
X009022Y030457D01*
X008984Y030556D02*
X007910Y030556D01*
X007910Y030654D02*
X008957Y030654D01*
X008931Y030753D02*
X007910Y030753D01*
X007910Y030851D02*
X008930Y030851D01*
X008930Y030950D02*
X007910Y030950D01*
X007910Y031048D02*
X008935Y031048D01*
X008961Y031147D02*
X007910Y031147D01*
X007910Y031245D02*
X008988Y031245D01*
X009030Y031344D02*
X007910Y031344D01*
X007910Y031442D02*
X009087Y031442D01*
X009150Y031541D02*
X007910Y031541D01*
X007910Y031639D02*
X009249Y031639D01*
X009362Y031738D02*
X007910Y031738D01*
X007910Y031836D02*
X009533Y031836D01*
X010386Y031836D02*
X099533Y031836D01*
X099362Y031738D02*
X010557Y031738D01*
X010670Y031639D02*
X099249Y031639D01*
X099150Y031541D02*
X010769Y031541D01*
X010832Y031442D02*
X099087Y031442D01*
X099030Y031344D02*
X010889Y031344D01*
X010932Y031245D02*
X098988Y031245D01*
X098961Y031147D02*
X010958Y031147D01*
X007910Y031935D02*
X107010Y031935D01*
X107010Y032033D02*
X007910Y032033D01*
X007910Y032132D02*
X107010Y032132D01*
X107010Y032230D02*
X007910Y032230D01*
X007910Y032329D02*
X107010Y032329D01*
X107010Y032427D02*
X007910Y032427D01*
X007910Y032526D02*
X107010Y032526D01*
X107010Y032624D02*
X007910Y032624D01*
X007910Y032723D02*
X107010Y032723D01*
X107010Y032821D02*
X007910Y032821D01*
X007910Y032920D02*
X107010Y032920D01*
X107010Y031836D02*
X100386Y031836D01*
X100557Y031738D02*
X107010Y031738D01*
X107010Y031639D02*
X100670Y031639D01*
X100769Y031541D02*
X107010Y031541D01*
X107010Y031442D02*
X100832Y031442D01*
X100889Y031344D02*
X107010Y031344D01*
X107010Y031245D02*
X100932Y031245D01*
X100958Y031147D02*
X107010Y031147D01*
X107010Y031048D02*
X100984Y031048D01*
X100990Y030950D02*
X107010Y030950D01*
X107010Y030851D02*
X100990Y030851D01*
X100988Y030753D02*
X107010Y030753D01*
X107010Y030654D02*
X100962Y030654D01*
X100935Y030556D02*
X107010Y030556D01*
X107010Y030457D02*
X100897Y030457D01*
X100840Y030359D02*
X107010Y030359D01*
X107010Y030260D02*
X100783Y030260D01*
X100685Y030162D02*
X107010Y030162D01*
X107010Y030063D02*
X100582Y030063D01*
X100411Y029965D02*
X107010Y029965D01*
X107010Y028487D02*
X103732Y028487D01*
X103872Y028389D02*
X107010Y028389D01*
X107010Y028290D02*
X103971Y028290D01*
X104069Y028192D02*
X107010Y028192D01*
X107010Y028093D02*
X104168Y028093D01*
X104266Y027995D02*
X107010Y027995D01*
X107010Y027896D02*
X104365Y027896D01*
X104463Y027798D02*
X107010Y027798D01*
X107010Y027699D02*
X104562Y027699D01*
X104660Y027601D02*
X107010Y027601D01*
X107010Y027502D02*
X104759Y027502D01*
X104857Y027404D02*
X107010Y027404D01*
X107010Y027305D02*
X104956Y027305D01*
X105054Y027207D02*
X107010Y027207D01*
X107010Y027108D02*
X105153Y027108D01*
X105251Y027010D02*
X107010Y027010D01*
X107010Y026911D02*
X105350Y026911D01*
X105448Y026813D02*
X107010Y026813D01*
X107010Y026714D02*
X105547Y026714D01*
X105645Y026616D02*
X107010Y026616D01*
X107010Y026517D02*
X105744Y026517D01*
X105842Y026419D02*
X107010Y026419D01*
X107010Y026320D02*
X105902Y026320D01*
X105940Y026222D02*
X107010Y026222D01*
X107010Y026123D02*
X105940Y026123D01*
X105940Y026025D02*
X107010Y026025D01*
X107010Y025926D02*
X105940Y025926D01*
X105940Y025828D02*
X107010Y025828D01*
X107010Y025729D02*
X105940Y025729D01*
X105940Y025631D02*
X107010Y025631D01*
X107010Y025532D02*
X105940Y025532D01*
X105940Y025434D02*
X107010Y025434D01*
X107010Y025335D02*
X105940Y025335D01*
X105940Y025237D02*
X107010Y025237D01*
X107010Y025138D02*
X105940Y025138D01*
X105940Y025040D02*
X107010Y025040D01*
X107010Y024941D02*
X105940Y024941D01*
X105940Y024843D02*
X107010Y024843D01*
X107010Y024744D02*
X105940Y024744D01*
X105940Y024646D02*
X107010Y024646D01*
X107010Y024547D02*
X105940Y024547D01*
X105940Y024449D02*
X107010Y024449D01*
X107010Y024350D02*
X105940Y024350D01*
X105940Y024252D02*
X107010Y024252D01*
X107010Y024153D02*
X105940Y024153D01*
X105940Y024055D02*
X107010Y024055D01*
X107010Y023956D02*
X105940Y023956D01*
X105940Y023858D02*
X107010Y023858D01*
X107010Y023759D02*
X105940Y023759D01*
X105940Y023661D02*
X107010Y023661D01*
X107010Y023562D02*
X105940Y023562D01*
X105940Y023464D02*
X107010Y023464D01*
X107010Y023365D02*
X105940Y023365D01*
X105940Y023267D02*
X107010Y023267D01*
X107010Y023168D02*
X105940Y023168D01*
X105940Y023070D02*
X107010Y023070D01*
X107010Y022971D02*
X105940Y022971D01*
X105940Y022873D02*
X107010Y022873D01*
X107010Y022774D02*
X105940Y022774D01*
X105940Y022676D02*
X107010Y022676D01*
X107010Y022577D02*
X105940Y022577D01*
X105940Y022479D02*
X107010Y022479D01*
X107010Y022380D02*
X105940Y022380D01*
X105940Y022282D02*
X107010Y022282D01*
X107010Y022183D02*
X105940Y022183D01*
X105940Y022085D02*
X107010Y022085D01*
X107010Y021986D02*
X105940Y021986D01*
X105940Y021888D02*
X107010Y021888D01*
X107010Y021789D02*
X105940Y021789D01*
X105940Y021691D02*
X107010Y021691D01*
X107010Y021592D02*
X105940Y021592D01*
X105940Y021494D02*
X107010Y021494D01*
X107010Y021395D02*
X105940Y021395D01*
X105940Y021297D02*
X107010Y021297D01*
X107010Y021198D02*
X105940Y021198D01*
X105940Y021100D02*
X107010Y021100D01*
X107010Y021001D02*
X105940Y021001D01*
X105940Y020903D02*
X107010Y020903D01*
X107010Y020804D02*
X105940Y020804D01*
X105940Y020706D02*
X107050Y020706D01*
X107109Y020607D02*
X105940Y020607D01*
X105940Y020509D02*
X107212Y020509D01*
X105940Y020410D02*
X127010Y020410D01*
X127010Y020312D02*
X105940Y020312D01*
X105940Y020213D02*
X127010Y020213D01*
X127010Y020115D02*
X105940Y020115D01*
X105940Y020016D02*
X127010Y020016D01*
X127010Y019918D02*
X105940Y019918D01*
X105940Y019819D02*
X127010Y019819D01*
X127010Y019721D02*
X105940Y019721D01*
X105940Y019622D02*
X127010Y019622D01*
X127010Y019524D02*
X117356Y019524D01*
X117454Y019425D02*
X127010Y019425D01*
X127010Y019327D02*
X117553Y019327D01*
X117651Y019228D02*
X127010Y019228D01*
X127010Y019130D02*
X117680Y019130D01*
X117680Y019031D02*
X127010Y019031D01*
X127010Y018933D02*
X117680Y018933D01*
X117777Y018834D02*
X127010Y018834D01*
X127010Y018736D02*
X117875Y018736D01*
X117974Y018637D02*
X127010Y018637D01*
X127010Y018539D02*
X123991Y018539D01*
X124089Y018440D02*
X127010Y018440D01*
X127010Y018342D02*
X124188Y018342D01*
X124280Y018243D02*
X127010Y018243D01*
X127010Y018145D02*
X124280Y018145D01*
X124280Y018046D02*
X127010Y018046D01*
X127010Y017948D02*
X124280Y017948D01*
X124280Y017849D02*
X127010Y017849D01*
X127010Y017751D02*
X124280Y017751D01*
X124195Y017652D02*
X127010Y017652D01*
X127010Y017554D02*
X124097Y017554D01*
X124074Y017455D02*
X127010Y017455D01*
X127010Y017357D02*
X124173Y017357D01*
X124271Y017258D02*
X127010Y017258D01*
X127010Y017160D02*
X124280Y017160D01*
X124280Y017061D02*
X127010Y017061D01*
X127010Y016963D02*
X124280Y016963D01*
X124280Y016864D02*
X127010Y016864D01*
X127010Y016766D02*
X124280Y016766D01*
X124210Y016667D02*
X127010Y016667D01*
X127010Y016569D02*
X124112Y016569D01*
X124059Y016470D02*
X127010Y016470D01*
X127010Y016372D02*
X124158Y016372D01*
X124256Y016273D02*
X127010Y016273D01*
X127010Y016175D02*
X124280Y016175D01*
X124280Y016076D02*
X127010Y016076D01*
X127010Y015978D02*
X124280Y015978D01*
X124280Y015879D02*
X127010Y015879D01*
X127010Y015781D02*
X124280Y015781D01*
X124225Y015682D02*
X127010Y015682D01*
X127010Y015584D02*
X124127Y015584D01*
X124044Y015485D02*
X127010Y015485D01*
X127010Y015387D02*
X124143Y015387D01*
X124241Y015288D02*
X127010Y015288D01*
X127010Y015190D02*
X124280Y015190D01*
X124280Y015091D02*
X127010Y015091D01*
X127010Y014993D02*
X124280Y014993D01*
X124280Y014894D02*
X127010Y014894D01*
X127010Y014796D02*
X124280Y014796D01*
X124240Y014697D02*
X127010Y014697D01*
X127010Y014599D02*
X124142Y014599D01*
X124043Y014500D02*
X127010Y014500D01*
X127010Y014402D02*
X124128Y014402D01*
X124226Y014303D02*
X127010Y014303D01*
X127010Y014205D02*
X124280Y014205D01*
X124280Y014106D02*
X127010Y014106D01*
X127010Y014008D02*
X124280Y014008D01*
X124352Y013909D02*
X127010Y013909D01*
X127010Y013811D02*
X124450Y013811D01*
X124403Y013858D02*
X124403Y013858D01*
X124534Y013712D02*
X127010Y013712D01*
X127010Y013614D02*
X124575Y013614D01*
X124590Y013515D02*
X127010Y013515D01*
X127010Y013417D02*
X124590Y013417D01*
X124590Y013318D02*
X127010Y013318D01*
X127010Y013220D02*
X124590Y013220D01*
X124590Y013121D02*
X127010Y013121D01*
X127010Y013023D02*
X124590Y013023D01*
X124590Y012924D02*
X127010Y012924D01*
X127010Y012826D02*
X124590Y012826D01*
X124590Y012727D02*
X127010Y012727D01*
X127010Y012629D02*
X124590Y012629D01*
X124590Y012530D02*
X127010Y012530D01*
X127010Y012432D02*
X124558Y012432D01*
X124508Y012333D02*
X127010Y012333D01*
X127010Y012235D02*
X124409Y012235D01*
X124311Y012136D02*
X127010Y012136D01*
X127010Y012038D02*
X124280Y012038D01*
X124280Y011939D02*
X127010Y011939D01*
X127010Y011841D02*
X124280Y011841D01*
X124280Y011742D02*
X127010Y011742D01*
X127010Y011644D02*
X124187Y011644D01*
X124088Y011545D02*
X127010Y011545D01*
X127010Y011447D02*
X124083Y011447D01*
X124181Y011348D02*
X127010Y011348D01*
X127010Y011250D02*
X124280Y011250D01*
X124280Y011151D02*
X127010Y011151D01*
X127010Y011053D02*
X124280Y011053D01*
X124280Y010954D02*
X127010Y010954D01*
X127010Y010856D02*
X124280Y010856D01*
X124280Y010757D02*
X127010Y010757D01*
X127010Y010659D02*
X124202Y010659D01*
X124103Y010560D02*
X127010Y010560D01*
X127010Y010462D02*
X124090Y010462D01*
X124090Y010363D02*
X127010Y010363D01*
X127010Y010265D02*
X124090Y010265D01*
X124090Y010166D02*
X127010Y010166D01*
X127010Y010068D02*
X124090Y010068D01*
X124090Y009969D02*
X127010Y009969D01*
X127010Y009871D02*
X124074Y009871D01*
X124033Y009772D02*
X127010Y009772D01*
X127010Y009674D02*
X123948Y009674D01*
X123850Y009575D02*
X127010Y009575D01*
X127010Y009477D02*
X123751Y009477D01*
X123653Y009378D02*
X127010Y009378D01*
X127010Y009280D02*
X123554Y009280D01*
X123456Y009181D02*
X127010Y009181D01*
X127010Y009083D02*
X123357Y009083D01*
X123259Y008984D02*
X127010Y008984D01*
X127010Y008886D02*
X123160Y008886D01*
X120354Y010196D02*
X120295Y010137D01*
X120157Y009999D01*
X120086Y010028D01*
X119933Y010028D01*
X117724Y012237D01*
X117603Y012358D01*
X117445Y012423D01*
X115238Y012423D01*
X112903Y014758D01*
X113050Y014758D01*
X113095Y014650D01*
X113216Y014529D01*
X113816Y013929D01*
X113974Y013863D01*
X119945Y013863D01*
X120103Y013929D01*
X120224Y014050D01*
X120359Y014184D01*
X120421Y014034D01*
X120561Y013893D01*
X120421Y013753D01*
X120325Y013520D01*
X120325Y013267D01*
X120421Y013034D01*
X120600Y012855D01*
X120833Y012758D01*
X121086Y012758D01*
X121319Y012855D01*
X121498Y013034D01*
X121595Y013267D01*
X121595Y013520D01*
X121498Y013753D01*
X121358Y013893D01*
X121498Y014034D01*
X121560Y014184D01*
X122821Y012923D01*
X122174Y012923D01*
X122016Y012858D01*
X121895Y012737D01*
X121695Y012537D01*
X121630Y012379D01*
X121630Y010771D01*
X121531Y010673D01*
X121498Y010753D01*
X121358Y010893D01*
X121498Y011034D01*
X121595Y011267D01*
X121595Y011520D01*
X121498Y011753D01*
X121319Y011932D01*
X121086Y012028D01*
X120833Y012028D01*
X120600Y011932D01*
X120421Y011753D01*
X120325Y011520D01*
X120325Y011267D01*
X120421Y011034D01*
X120561Y010893D01*
X120421Y010753D01*
X120325Y010520D01*
X120325Y010267D01*
X120354Y010196D01*
X120324Y010166D02*
X119795Y010166D01*
X119893Y010068D02*
X120226Y010068D01*
X120325Y010265D02*
X119696Y010265D01*
X119598Y010363D02*
X120325Y010363D01*
X120325Y010462D02*
X119499Y010462D01*
X119401Y010560D02*
X120341Y010560D01*
X120382Y010659D02*
X119302Y010659D01*
X119204Y010757D02*
X120425Y010757D01*
X120524Y010856D02*
X119105Y010856D01*
X119007Y010954D02*
X120500Y010954D01*
X120413Y011053D02*
X118908Y011053D01*
X118810Y011151D02*
X120372Y011151D01*
X120332Y011250D02*
X118711Y011250D01*
X118613Y011348D02*
X120325Y011348D01*
X120325Y011447D02*
X118514Y011447D01*
X118416Y011545D02*
X120335Y011545D01*
X120376Y011644D02*
X118317Y011644D01*
X118219Y011742D02*
X120417Y011742D01*
X120509Y011841D02*
X118120Y011841D01*
X118022Y011939D02*
X120618Y011939D01*
X121301Y011939D02*
X121630Y011939D01*
X121630Y011841D02*
X121410Y011841D01*
X121502Y011742D02*
X121630Y011742D01*
X121630Y011644D02*
X121543Y011644D01*
X121584Y011545D02*
X121630Y011545D01*
X121630Y011447D02*
X121595Y011447D01*
X121595Y011348D02*
X121630Y011348D01*
X121630Y011250D02*
X121587Y011250D01*
X121547Y011151D02*
X121630Y011151D01*
X121630Y011053D02*
X121506Y011053D01*
X121419Y010954D02*
X121630Y010954D01*
X121630Y010856D02*
X121395Y010856D01*
X121494Y010757D02*
X121615Y010757D01*
X121630Y012038D02*
X117923Y012038D01*
X117825Y012136D02*
X121630Y012136D01*
X121630Y012235D02*
X117726Y012235D01*
X117628Y012333D02*
X121630Y012333D01*
X121651Y012432D02*
X115229Y012432D01*
X115131Y012530D02*
X121692Y012530D01*
X121787Y012629D02*
X115032Y012629D01*
X114934Y012727D02*
X121885Y012727D01*
X121984Y012826D02*
X121249Y012826D01*
X121389Y012924D02*
X122820Y012924D01*
X122722Y013023D02*
X121487Y013023D01*
X121534Y013121D02*
X122623Y013121D01*
X122525Y013220D02*
X121575Y013220D01*
X121595Y013318D02*
X122426Y013318D01*
X122328Y013417D02*
X121595Y013417D01*
X121595Y013515D02*
X122229Y013515D01*
X122131Y013614D02*
X121555Y013614D01*
X121515Y013712D02*
X122032Y013712D01*
X121934Y013811D02*
X121440Y013811D01*
X121374Y013909D02*
X121835Y013909D01*
X121737Y014008D02*
X121472Y014008D01*
X121528Y014106D02*
X121638Y014106D01*
X120545Y013909D02*
X120056Y013909D01*
X120182Y014008D02*
X120447Y014008D01*
X120391Y014106D02*
X120281Y014106D01*
X120479Y013811D02*
X113850Y013811D01*
X113863Y013909D02*
X113752Y013909D01*
X113737Y014008D02*
X113653Y014008D01*
X113638Y014106D02*
X113555Y014106D01*
X113540Y014205D02*
X113456Y014205D01*
X113441Y014303D02*
X113358Y014303D01*
X113343Y014402D02*
X113259Y014402D01*
X113244Y014500D02*
X113161Y014500D01*
X113146Y014599D02*
X113062Y014599D01*
X113075Y014697D02*
X112964Y014697D01*
X113949Y013712D02*
X120404Y013712D01*
X120364Y013614D02*
X114047Y013614D01*
X114146Y013515D02*
X120325Y013515D01*
X120325Y013417D02*
X114244Y013417D01*
X114343Y013318D02*
X120325Y013318D01*
X120344Y013220D02*
X114441Y013220D01*
X114540Y013121D02*
X120385Y013121D01*
X120432Y013023D02*
X114638Y013023D01*
X114737Y012924D02*
X120530Y012924D01*
X120670Y012826D02*
X114835Y012826D01*
X107086Y010659D02*
X105963Y010659D01*
X105989Y010757D02*
X106987Y010757D01*
X106889Y010856D02*
X105990Y010856D01*
X105990Y010758D02*
X105919Y010496D01*
X105784Y010261D01*
X105592Y010069D01*
X105357Y009934D01*
X105095Y009863D01*
X104824Y009863D01*
X104562Y009934D01*
X104327Y010069D01*
X104135Y010261D01*
X104000Y010496D01*
X103930Y010758D01*
X103930Y011029D01*
X104000Y011291D01*
X104135Y011526D01*
X104327Y011718D01*
X104562Y011853D01*
X104824Y011923D01*
X105095Y011923D01*
X105357Y011853D01*
X105592Y011718D01*
X105784Y011526D01*
X105919Y011291D01*
X105990Y011029D01*
X105990Y010758D01*
X105990Y010954D02*
X106790Y010954D01*
X106692Y011053D02*
X105983Y011053D01*
X105957Y011151D02*
X106593Y011151D01*
X106495Y011250D02*
X105930Y011250D01*
X105886Y011348D02*
X106396Y011348D01*
X106298Y011447D02*
X105829Y011447D01*
X105764Y011545D02*
X106199Y011545D01*
X106101Y011644D02*
X105666Y011644D01*
X105549Y011742D02*
X106002Y011742D01*
X105904Y011841D02*
X105378Y011841D01*
X105608Y012136D02*
X072078Y012136D01*
X072119Y012038D02*
X105707Y012038D01*
X105805Y011939D02*
X072140Y011939D01*
X072140Y011841D02*
X076124Y011841D01*
X076130Y011843D02*
X075891Y011744D01*
X075708Y011562D01*
X075610Y011323D01*
X075610Y011064D01*
X075708Y010825D01*
X075891Y010642D01*
X076130Y010543D01*
X076989Y010543D01*
X077228Y010642D01*
X077411Y010825D01*
X077510Y011064D01*
X077510Y011323D01*
X077411Y011562D01*
X077228Y011744D01*
X076989Y011843D01*
X076130Y011843D01*
X075889Y011742D02*
X072117Y011742D01*
X072076Y011644D02*
X075791Y011644D01*
X075702Y011545D02*
X071990Y011545D01*
X072074Y011447D02*
X075661Y011447D01*
X075620Y011348D02*
X072115Y011348D01*
X072140Y011250D02*
X075610Y011250D01*
X075610Y011151D02*
X072140Y011151D01*
X072121Y011053D02*
X075614Y011053D01*
X075655Y010954D02*
X072080Y010954D01*
X072001Y010856D02*
X075696Y010856D01*
X075776Y010757D02*
X071861Y010757D01*
X071747Y010659D02*
X075875Y010659D01*
X076089Y010560D02*
X071649Y010560D01*
X071550Y010462D02*
X090710Y010462D01*
X090710Y010560D02*
X077030Y010560D01*
X077244Y010659D02*
X090710Y010659D01*
X090710Y010723D02*
X090710Y009864D01*
X090808Y009625D01*
X090991Y009442D01*
X091230Y009343D01*
X091489Y009343D01*
X091728Y009442D01*
X091911Y009625D01*
X092010Y009864D01*
X092010Y010723D01*
X091911Y010962D01*
X091728Y011144D01*
X091489Y011243D01*
X091230Y011243D01*
X090991Y011144D01*
X090808Y010962D01*
X090710Y010723D01*
X090724Y010757D02*
X077343Y010757D01*
X077423Y010856D02*
X090765Y010856D01*
X090805Y010954D02*
X077464Y010954D01*
X077505Y011053D02*
X090900Y011053D01*
X091008Y011151D02*
X077510Y011151D01*
X077510Y011250D02*
X103989Y011250D01*
X103962Y011151D02*
X091711Y011151D01*
X091819Y011053D02*
X103936Y011053D01*
X103930Y010954D02*
X091914Y010954D01*
X091954Y010856D02*
X103930Y010856D01*
X103930Y010757D02*
X091995Y010757D01*
X092010Y010659D02*
X103956Y010659D01*
X103982Y010560D02*
X092010Y010560D01*
X092010Y010462D02*
X104019Y010462D01*
X104076Y010363D02*
X092010Y010363D01*
X092010Y010265D02*
X104133Y010265D01*
X104230Y010166D02*
X092010Y010166D01*
X092010Y010068D02*
X104329Y010068D01*
X104500Y009969D02*
X092010Y009969D01*
X092010Y009871D02*
X104796Y009871D01*
X105123Y009871D02*
X107874Y009871D01*
X107775Y009969D02*
X105419Y009969D01*
X105590Y010068D02*
X107677Y010068D01*
X107578Y010166D02*
X105689Y010166D01*
X105786Y010265D02*
X107480Y010265D01*
X107381Y010363D02*
X105843Y010363D01*
X105900Y010462D02*
X107283Y010462D01*
X107184Y010560D02*
X105937Y010560D01*
X104033Y011348D02*
X077499Y011348D01*
X077458Y011447D02*
X104090Y011447D01*
X104155Y011545D02*
X077417Y011545D01*
X077328Y011644D02*
X104253Y011644D01*
X104370Y011742D02*
X077230Y011742D01*
X076995Y011841D02*
X104541Y011841D01*
X105313Y012432D02*
X072112Y012432D01*
X072140Y012530D02*
X105214Y012530D01*
X105116Y012629D02*
X072140Y012629D01*
X072124Y012727D02*
X105017Y012727D01*
X104919Y012826D02*
X072083Y012826D01*
X072007Y012924D02*
X104820Y012924D01*
X104722Y013023D02*
X075650Y013023D01*
X075820Y013057D02*
X076357Y013279D01*
X076840Y013602D01*
X077251Y014013D01*
X077574Y014496D01*
X077796Y015033D01*
X077910Y015603D01*
X077910Y016184D01*
X077796Y016754D01*
X077574Y017291D01*
X077251Y017774D01*
X076840Y018185D01*
X076357Y018508D01*
X075820Y018730D01*
X075250Y018843D01*
X074669Y018843D01*
X074099Y018730D01*
X073562Y018508D01*
X073079Y018185D01*
X072668Y017774D01*
X072345Y017291D01*
X072123Y016754D01*
X072010Y016184D01*
X072010Y015603D01*
X072123Y015033D01*
X072345Y014496D01*
X072668Y014013D01*
X073079Y013602D01*
X073562Y013279D01*
X074099Y013057D01*
X074669Y012943D01*
X075250Y012943D01*
X075820Y013057D01*
X075976Y013121D02*
X104623Y013121D01*
X104525Y013220D02*
X076214Y013220D01*
X076416Y013318D02*
X104426Y013318D01*
X104328Y013417D02*
X076563Y013417D01*
X076710Y013515D02*
X104229Y013515D01*
X104131Y013614D02*
X076852Y013614D01*
X076950Y013712D02*
X104032Y013712D01*
X103934Y013811D02*
X077049Y013811D01*
X077147Y013909D02*
X103835Y013909D01*
X103737Y014008D02*
X087599Y014008D01*
X087569Y013995D02*
X087770Y014079D01*
X087924Y014233D01*
X088008Y014434D01*
X088008Y014652D01*
X087924Y014854D01*
X087770Y015008D01*
X087569Y015091D01*
X102930Y015091D01*
X102930Y014993D02*
X087785Y014993D01*
X087884Y014894D02*
X102935Y014894D01*
X102976Y014796D02*
X087948Y014796D01*
X087989Y014697D02*
X103047Y014697D01*
X103146Y014599D02*
X088008Y014599D01*
X088008Y014500D02*
X103244Y014500D01*
X103343Y014402D02*
X087994Y014402D01*
X087953Y014303D02*
X103441Y014303D01*
X103540Y014205D02*
X087896Y014205D01*
X087798Y014106D02*
X103638Y014106D01*
X102930Y015190D02*
X081210Y015190D01*
X081210Y015288D02*
X102930Y015288D01*
X102930Y015387D02*
X081210Y015387D01*
X081210Y015485D02*
X102930Y015485D01*
X102930Y015584D02*
X081210Y015584D01*
X081210Y015682D02*
X099765Y015682D01*
X099741Y015692D02*
X099980Y015593D01*
X100239Y015593D01*
X100478Y015692D01*
X100661Y015875D01*
X100760Y016114D01*
X100760Y016973D01*
X100661Y017212D01*
X100478Y017394D01*
X100239Y017493D01*
X099980Y017493D01*
X099741Y017394D01*
X099558Y017212D01*
X099460Y016973D01*
X099460Y016114D01*
X099558Y015875D01*
X099741Y015692D01*
X099653Y015781D02*
X081210Y015781D01*
X081210Y015823D02*
X081111Y016062D01*
X080928Y016244D01*
X080689Y016343D01*
X080430Y016343D01*
X080191Y016244D01*
X080008Y016062D01*
X079910Y015823D01*
X079910Y014964D01*
X080008Y014725D01*
X080191Y014542D01*
X080430Y014443D01*
X080689Y014443D01*
X080928Y014542D01*
X081111Y014725D01*
X081210Y014964D01*
X081210Y015823D01*
X081186Y015879D02*
X099557Y015879D01*
X099516Y015978D02*
X081145Y015978D01*
X081096Y016076D02*
X099475Y016076D01*
X099460Y016175D02*
X080997Y016175D01*
X080858Y016273D02*
X099460Y016273D01*
X099460Y016372D02*
X077872Y016372D01*
X077853Y016470D02*
X099460Y016470D01*
X099460Y016569D02*
X077833Y016569D01*
X077813Y016667D02*
X099460Y016667D01*
X099460Y016766D02*
X077791Y016766D01*
X077750Y016864D02*
X088979Y016864D01*
X089030Y016843D02*
X088791Y016942D01*
X088608Y017125D01*
X088510Y017364D01*
X088510Y017623D01*
X088608Y017862D01*
X088791Y018044D01*
X089030Y018143D01*
X089889Y018143D01*
X090128Y018044D01*
X090311Y017862D01*
X090410Y017623D01*
X090410Y017364D01*
X090311Y017125D01*
X090128Y016942D01*
X089889Y016843D01*
X089030Y016843D01*
X088771Y016963D02*
X077710Y016963D01*
X077669Y017061D02*
X088672Y017061D01*
X088594Y017160D02*
X077628Y017160D01*
X077587Y017258D02*
X088553Y017258D01*
X088512Y017357D02*
X085597Y017357D01*
X085569Y017345D02*
X085770Y017429D01*
X085924Y017583D01*
X086008Y017784D01*
X086008Y018002D01*
X085924Y018204D01*
X085770Y018358D01*
X085569Y018441D01*
X085350Y018441D01*
X085149Y018358D01*
X084995Y018204D01*
X084911Y018002D01*
X084911Y017784D01*
X084995Y017583D01*
X085149Y017429D01*
X085350Y017345D01*
X085569Y017345D01*
X085322Y017357D02*
X083997Y017357D01*
X083969Y017345D02*
X084170Y017429D01*
X084324Y017583D01*
X084408Y017784D01*
X084408Y018002D01*
X084324Y018204D01*
X084185Y018343D01*
X084324Y018483D01*
X084408Y018684D01*
X084408Y018902D01*
X084324Y019104D01*
X084170Y019258D01*
X084085Y019293D01*
X084170Y019329D01*
X084324Y019483D01*
X084408Y019684D01*
X084408Y019902D01*
X084324Y020104D01*
X084235Y020193D01*
X084324Y020283D01*
X084408Y020484D01*
X084408Y020702D01*
X084324Y020904D01*
X084170Y021058D01*
X083969Y021141D01*
X083750Y021141D01*
X083700Y021121D01*
X083624Y021304D01*
X083470Y021458D01*
X083269Y021541D01*
X083050Y021541D01*
X082849Y021458D01*
X082695Y021304D01*
X082611Y021102D01*
X082611Y020884D01*
X082695Y020683D01*
X082784Y020593D01*
X082695Y020504D01*
X082611Y020302D01*
X082611Y020084D01*
X082695Y019883D01*
X082734Y019843D01*
X082695Y019804D01*
X082611Y019602D01*
X082611Y019384D01*
X082695Y019183D01*
X082849Y019029D01*
X083050Y018945D01*
X083269Y018945D01*
X083342Y018976D01*
X083311Y018902D01*
X083311Y018684D01*
X083395Y018483D01*
X083534Y018343D01*
X083395Y018204D01*
X083311Y018002D01*
X083311Y017784D01*
X083395Y017583D01*
X083549Y017429D01*
X083750Y017345D01*
X083969Y017345D01*
X083722Y017357D02*
X077530Y017357D01*
X077464Y017455D02*
X083522Y017455D01*
X083424Y017554D02*
X077398Y017554D01*
X077332Y017652D02*
X083366Y017652D01*
X083325Y017751D02*
X077266Y017751D01*
X077175Y017849D02*
X083311Y017849D01*
X083311Y017948D02*
X077077Y017948D01*
X076978Y018046D02*
X083330Y018046D01*
X083370Y018145D02*
X076880Y018145D01*
X076752Y018243D02*
X083434Y018243D01*
X083533Y018342D02*
X076605Y018342D01*
X076457Y018440D02*
X083437Y018440D01*
X083372Y018539D02*
X076281Y018539D01*
X076044Y018637D02*
X083331Y018637D01*
X083311Y018736D02*
X075790Y018736D01*
X075531Y019086D02*
X075666Y019221D01*
X075740Y019398D01*
X075740Y019589D01*
X075666Y019765D01*
X075531Y019900D01*
X075355Y019973D01*
X075164Y019973D01*
X074988Y019900D01*
X074853Y019765D01*
X074780Y019589D01*
X074780Y019398D01*
X074853Y019221D01*
X074988Y019086D01*
X075164Y019013D01*
X075355Y019013D01*
X075531Y019086D01*
X075575Y019130D02*
X082748Y019130D01*
X082676Y019228D02*
X075669Y019228D01*
X075710Y019327D02*
X082635Y019327D01*
X082611Y019425D02*
X075740Y019425D01*
X075740Y019524D02*
X082611Y019524D01*
X082620Y019622D02*
X075726Y019622D01*
X075685Y019721D02*
X082660Y019721D01*
X082710Y019819D02*
X075612Y019819D01*
X075489Y019918D02*
X082680Y019918D01*
X082640Y020016D02*
X069361Y020016D01*
X069338Y019993D02*
X069466Y020121D01*
X069540Y020298D01*
X069540Y020489D01*
X069466Y020665D01*
X069331Y020800D01*
X069155Y020873D01*
X068964Y020873D01*
X068788Y020800D01*
X068653Y020665D01*
X068580Y020489D01*
X068580Y020298D01*
X068653Y020121D01*
X068681Y020093D01*
X068553Y019965D01*
X068480Y019789D01*
X068480Y019598D01*
X068553Y019421D01*
X068688Y019286D01*
X068864Y019213D01*
X069055Y019213D01*
X069231Y019286D01*
X069366Y019421D01*
X069440Y019598D01*
X069440Y019789D01*
X069366Y019965D01*
X069338Y019993D01*
X069386Y019918D02*
X075030Y019918D01*
X074907Y019819D02*
X069427Y019819D01*
X069440Y019721D02*
X074834Y019721D01*
X074793Y019622D02*
X069440Y019622D01*
X069409Y019524D02*
X074780Y019524D01*
X074780Y019425D02*
X069368Y019425D01*
X069272Y019327D02*
X074809Y019327D01*
X074850Y019228D02*
X069091Y019228D01*
X068828Y019228D02*
X068082Y019228D01*
X068066Y019265D02*
X067931Y019400D01*
X067755Y019473D01*
X067564Y019473D01*
X067388Y019400D01*
X067253Y019265D01*
X067180Y019089D01*
X067180Y018898D01*
X067253Y018721D01*
X067388Y018586D01*
X067564Y018513D01*
X067755Y018513D01*
X067931Y018586D01*
X068066Y018721D01*
X068140Y018898D01*
X068140Y019089D01*
X068066Y019265D01*
X068005Y019327D02*
X068647Y019327D01*
X068551Y019425D02*
X067871Y019425D01*
X068123Y019130D02*
X074944Y019130D01*
X075121Y019031D02*
X068140Y019031D01*
X068140Y018933D02*
X083324Y018933D01*
X083311Y018834D02*
X075295Y018834D01*
X075399Y019031D02*
X082846Y019031D01*
X084166Y019327D02*
X084835Y019327D01*
X084811Y019384D02*
X084895Y019183D01*
X085049Y019029D01*
X085250Y018945D01*
X085469Y018945D01*
X085670Y019029D01*
X085824Y019183D01*
X085908Y019384D01*
X085908Y019602D01*
X085824Y019804D01*
X085670Y019958D01*
X085469Y020041D01*
X085250Y020041D01*
X085049Y019958D01*
X084895Y019804D01*
X084811Y019602D01*
X084811Y019384D01*
X084811Y019425D02*
X084267Y019425D01*
X084341Y019524D02*
X084811Y019524D01*
X084820Y019622D02*
X084382Y019622D01*
X084408Y019721D02*
X084860Y019721D01*
X084910Y019819D02*
X084408Y019819D01*
X084401Y019918D02*
X085009Y019918D01*
X085190Y020016D02*
X084360Y020016D01*
X084313Y020115D02*
X099430Y020115D01*
X099331Y020213D02*
X084255Y020213D01*
X084336Y020312D02*
X099233Y020312D01*
X099134Y020410D02*
X084377Y020410D01*
X084408Y020509D02*
X085097Y020509D01*
X085049Y020529D02*
X085250Y020445D01*
X085469Y020445D01*
X085670Y020529D01*
X085824Y020683D01*
X085908Y020884D01*
X085908Y021102D01*
X085824Y021304D01*
X085670Y021458D01*
X085469Y021541D01*
X085250Y021541D01*
X085049Y021458D01*
X084895Y021304D01*
X084811Y021102D01*
X084811Y020884D01*
X084895Y020683D01*
X085049Y020529D01*
X084970Y020607D02*
X084408Y020607D01*
X084406Y020706D02*
X084885Y020706D01*
X084845Y020804D02*
X084365Y020804D01*
X084325Y020903D02*
X084811Y020903D01*
X084811Y021001D02*
X084227Y021001D01*
X084069Y021100D02*
X084811Y021100D01*
X084851Y021198D02*
X083668Y021198D01*
X083627Y021297D02*
X084892Y021297D01*
X084986Y021395D02*
X083533Y021395D01*
X083383Y021494D02*
X085136Y021494D01*
X085583Y021494D02*
X098051Y021494D01*
X097952Y021592D02*
X076196Y021592D01*
X076237Y021691D02*
X097854Y021691D01*
X097755Y021789D02*
X076240Y021789D01*
X076240Y021888D02*
X097657Y021888D01*
X097558Y021986D02*
X076199Y021986D01*
X076147Y022085D02*
X088830Y022085D01*
X088930Y022043D02*
X089789Y022043D01*
X090028Y022142D01*
X090211Y022325D01*
X090310Y022564D01*
X090310Y022823D01*
X090211Y023062D01*
X090028Y023244D01*
X089789Y023343D01*
X088930Y023343D01*
X088691Y023244D01*
X088508Y023062D01*
X088410Y022823D01*
X088410Y022564D01*
X088508Y022325D01*
X088691Y022142D01*
X088930Y022043D01*
X088650Y022183D02*
X076048Y022183D01*
X075471Y022183D02*
X074492Y022183D01*
X074590Y022085D02*
X075372Y022085D01*
X075320Y021986D02*
X074689Y021986D01*
X074787Y021888D02*
X075280Y021888D01*
X075280Y021789D02*
X074886Y021789D01*
X074984Y021691D02*
X075282Y021691D01*
X075323Y021592D02*
X075083Y021592D01*
X075795Y021297D02*
X082692Y021297D01*
X082651Y021198D02*
X077733Y021198D01*
X077731Y021200D02*
X077555Y021273D01*
X077364Y021273D01*
X077188Y021200D01*
X077053Y021065D01*
X076980Y020889D01*
X076980Y020698D01*
X077053Y020521D01*
X077188Y020386D01*
X077364Y020313D01*
X077555Y020313D01*
X077731Y020386D01*
X077866Y020521D01*
X077940Y020698D01*
X077940Y020889D01*
X077866Y021065D01*
X077731Y021200D01*
X077832Y021100D02*
X082611Y021100D01*
X082611Y021001D02*
X077893Y021001D01*
X077934Y020903D02*
X082611Y020903D01*
X082645Y020804D02*
X077940Y020804D01*
X077940Y020706D02*
X082685Y020706D01*
X082770Y020607D02*
X077902Y020607D01*
X077854Y020509D02*
X082700Y020509D01*
X082656Y020410D02*
X077755Y020410D01*
X077164Y020410D02*
X069540Y020410D01*
X069540Y020312D02*
X082615Y020312D01*
X082611Y020213D02*
X069505Y020213D01*
X069460Y020115D02*
X082611Y020115D01*
X084200Y019228D02*
X084876Y019228D01*
X084948Y019130D02*
X084298Y019130D01*
X084354Y019031D02*
X085046Y019031D01*
X085673Y019031D02*
X100513Y019031D01*
X100415Y019130D02*
X085771Y019130D01*
X085843Y019228D02*
X100316Y019228D01*
X100218Y019327D02*
X085884Y019327D01*
X085908Y019425D02*
X100119Y019425D01*
X100021Y019524D02*
X085908Y019524D01*
X085899Y019622D02*
X099922Y019622D01*
X099824Y019721D02*
X085859Y019721D01*
X085809Y019819D02*
X099725Y019819D01*
X099627Y019918D02*
X085710Y019918D01*
X085529Y020016D02*
X099528Y020016D01*
X099036Y020509D02*
X085622Y020509D01*
X085749Y020607D02*
X098937Y020607D01*
X098839Y020706D02*
X085834Y020706D01*
X085875Y020804D02*
X098740Y020804D01*
X098642Y020903D02*
X085908Y020903D01*
X085908Y021001D02*
X098543Y021001D01*
X098445Y021100D02*
X085908Y021100D01*
X085868Y021198D02*
X098346Y021198D01*
X098248Y021297D02*
X085827Y021297D01*
X085733Y021395D02*
X098149Y021395D01*
X099575Y021986D02*
X102558Y021986D01*
X102460Y022085D02*
X099476Y022085D01*
X099378Y022183D02*
X102361Y022183D01*
X102263Y022282D02*
X099279Y022282D01*
X099181Y022380D02*
X102164Y022380D01*
X102195Y022350D02*
X102016Y022529D01*
X101628Y022916D01*
X101628Y022733D01*
X101575Y022604D01*
X101477Y022506D01*
X101348Y022453D01*
X100618Y022453D01*
X100490Y022506D01*
X100391Y022604D01*
X100338Y022733D01*
X100338Y023463D01*
X100379Y023563D01*
X099618Y023563D01*
X099660Y023463D01*
X099660Y022733D01*
X099607Y022604D01*
X099508Y022506D01*
X099380Y022453D01*
X099108Y022453D01*
X104030Y017531D01*
X104030Y020515D01*
X102195Y022350D01*
X102066Y022479D02*
X101411Y022479D01*
X101548Y022577D02*
X101967Y022577D01*
X101869Y022676D02*
X101605Y022676D01*
X101628Y022774D02*
X101770Y022774D01*
X101672Y022873D02*
X101628Y022873D01*
X102396Y023365D02*
X104530Y023365D01*
X104530Y023267D02*
X102494Y023267D01*
X102593Y023168D02*
X104530Y023168D01*
X104530Y023070D02*
X102691Y023070D01*
X102790Y022971D02*
X104530Y022971D01*
X104530Y022873D02*
X102888Y022873D01*
X102987Y022774D02*
X104530Y022774D01*
X104530Y022676D02*
X103085Y022676D01*
X103184Y022577D02*
X104530Y022577D01*
X104530Y022479D02*
X103282Y022479D01*
X103381Y022380D02*
X104530Y022380D01*
X104530Y022282D02*
X103479Y022282D01*
X103578Y022183D02*
X104530Y022183D01*
X104530Y022085D02*
X103676Y022085D01*
X103775Y021986D02*
X104530Y021986D01*
X104530Y021888D02*
X103873Y021888D01*
X103972Y021789D02*
X104530Y021789D01*
X104530Y021691D02*
X104070Y021691D01*
X104169Y021592D02*
X104530Y021592D01*
X104530Y021494D02*
X104267Y021494D01*
X104366Y021395D02*
X104530Y021395D01*
X104530Y021297D02*
X104464Y021297D01*
X103642Y020903D02*
X100658Y020903D01*
X100560Y021001D02*
X103543Y021001D01*
X103445Y021100D02*
X100461Y021100D01*
X100363Y021198D02*
X103346Y021198D01*
X103248Y021297D02*
X100264Y021297D01*
X100166Y021395D02*
X103149Y021395D01*
X103051Y021494D02*
X100067Y021494D01*
X099969Y021592D02*
X102952Y021592D01*
X102854Y021691D02*
X099870Y021691D01*
X099772Y021789D02*
X102755Y021789D01*
X102657Y021888D02*
X099673Y021888D01*
X097460Y022085D02*
X089889Y022085D01*
X090069Y022183D02*
X097361Y022183D01*
X097263Y022282D02*
X090167Y022282D01*
X090233Y022380D02*
X097164Y022380D01*
X097066Y022479D02*
X090274Y022479D01*
X090310Y022577D02*
X096967Y022577D01*
X096869Y022676D02*
X090310Y022676D01*
X090310Y022774D02*
X096770Y022774D01*
X096672Y022873D02*
X090289Y022873D01*
X090248Y022971D02*
X096573Y022971D01*
X096475Y023070D02*
X090202Y023070D01*
X090104Y023168D02*
X096376Y023168D01*
X096278Y023267D02*
X089973Y023267D01*
X088746Y023267D02*
X085026Y023267D01*
X085125Y023365D02*
X096179Y023365D01*
X096081Y023464D02*
X085195Y023464D01*
X085236Y023562D02*
X095982Y023562D01*
X095884Y023661D02*
X085276Y023661D01*
X085303Y023759D02*
X095785Y023759D01*
X095687Y023858D02*
X085303Y023858D01*
X085303Y023956D02*
X095588Y023956D01*
X095490Y024055D02*
X085303Y024055D01*
X085265Y024153D02*
X095391Y024153D01*
X095293Y024252D02*
X085224Y024252D01*
X085183Y024350D02*
X095194Y024350D01*
X097521Y025040D02*
X104530Y025040D01*
X104530Y025138D02*
X102676Y025138D01*
X102830Y025202D02*
X103111Y025484D01*
X103264Y025852D01*
X103264Y026250D01*
X103111Y026618D01*
X102830Y026900D01*
X102462Y027052D01*
X102064Y027052D01*
X101696Y026900D01*
X101414Y026618D01*
X101261Y026250D01*
X101261Y025852D01*
X101414Y025484D01*
X101696Y025202D01*
X102064Y025050D01*
X102462Y025050D01*
X102830Y025202D01*
X102865Y025237D02*
X104530Y025237D01*
X104530Y025335D02*
X102963Y025335D01*
X103062Y025434D02*
X104530Y025434D01*
X104530Y025532D02*
X103132Y025532D01*
X103172Y025631D02*
X104530Y025631D01*
X104530Y025729D02*
X103213Y025729D01*
X103254Y025828D02*
X104530Y025828D01*
X104518Y025926D02*
X103264Y025926D01*
X103264Y026025D02*
X104420Y026025D01*
X104321Y026123D02*
X103264Y026123D01*
X103264Y026222D02*
X104223Y026222D01*
X104124Y026320D02*
X103235Y026320D01*
X103194Y026419D02*
X104026Y026419D01*
X103927Y026517D02*
X103153Y026517D01*
X103112Y026616D02*
X103829Y026616D01*
X103730Y026714D02*
X103015Y026714D01*
X102916Y026813D02*
X103632Y026813D01*
X103533Y026911D02*
X102801Y026911D01*
X102563Y027010D02*
X103435Y027010D01*
X103336Y027108D02*
X092353Y027108D01*
X092451Y027010D02*
X097434Y027010D01*
X097196Y026911D02*
X092550Y026911D01*
X092648Y026813D02*
X097081Y026813D01*
X096983Y026714D02*
X092747Y026714D01*
X092845Y026616D02*
X096885Y026616D01*
X096845Y026517D02*
X092944Y026517D01*
X092672Y027305D02*
X092156Y027305D01*
X092254Y027207D02*
X103238Y027207D01*
X101962Y027010D02*
X098036Y027010D01*
X098274Y026911D02*
X101724Y026911D01*
X101609Y026813D02*
X098389Y026813D01*
X098487Y026714D02*
X101510Y026714D01*
X101413Y026616D02*
X098585Y026616D01*
X098626Y026517D02*
X101372Y026517D01*
X101331Y026419D02*
X098666Y026419D01*
X098707Y026320D02*
X101291Y026320D01*
X101261Y026222D02*
X098736Y026222D01*
X098736Y026123D02*
X101261Y026123D01*
X101261Y026025D02*
X098736Y026025D01*
X098736Y025926D02*
X101261Y025926D01*
X101271Y025828D02*
X098726Y025828D01*
X098686Y025729D02*
X101312Y025729D01*
X101353Y025631D02*
X098645Y025631D01*
X098604Y025532D02*
X101394Y025532D01*
X101464Y025434D02*
X098534Y025434D01*
X098436Y025335D02*
X101562Y025335D01*
X101661Y025237D02*
X098337Y025237D01*
X098148Y025138D02*
X101849Y025138D01*
X101411Y024350D02*
X104530Y024350D01*
X104530Y024252D02*
X101509Y024252D01*
X101608Y024153D02*
X104530Y024153D01*
X104530Y024055D02*
X101706Y024055D01*
X101805Y023956D02*
X104530Y023956D01*
X104530Y023858D02*
X101903Y023858D01*
X102002Y023759D02*
X104530Y023759D01*
X104530Y023661D02*
X102100Y023661D01*
X102199Y023562D02*
X104530Y023562D01*
X104530Y023464D02*
X102297Y023464D01*
X100379Y023562D02*
X099619Y023562D01*
X099660Y023464D02*
X100338Y023464D01*
X100338Y023365D02*
X099660Y023365D01*
X099660Y023267D02*
X100338Y023267D01*
X100338Y023168D02*
X099660Y023168D01*
X099660Y023070D02*
X100338Y023070D01*
X100338Y022971D02*
X099660Y022971D01*
X099660Y022873D02*
X100338Y022873D01*
X100338Y022774D02*
X099660Y022774D01*
X099636Y022676D02*
X100362Y022676D01*
X100418Y022577D02*
X099579Y022577D01*
X099443Y022479D02*
X100555Y022479D01*
X100757Y020804D02*
X103740Y020804D01*
X103839Y020706D02*
X100855Y020706D01*
X100954Y020607D02*
X103937Y020607D01*
X104030Y020509D02*
X101052Y020509D01*
X101151Y020410D02*
X104030Y020410D01*
X104030Y020312D02*
X101249Y020312D01*
X101348Y020213D02*
X104030Y020213D01*
X104030Y020115D02*
X101446Y020115D01*
X101545Y020016D02*
X104030Y020016D01*
X104030Y019918D02*
X101643Y019918D01*
X101742Y019819D02*
X104030Y019819D01*
X104030Y019721D02*
X101840Y019721D01*
X101939Y019622D02*
X104030Y019622D01*
X104030Y019524D02*
X102037Y019524D01*
X102136Y019425D02*
X104030Y019425D01*
X104030Y019327D02*
X102234Y019327D01*
X102333Y019228D02*
X104030Y019228D01*
X104030Y019130D02*
X102431Y019130D01*
X102530Y019031D02*
X104030Y019031D01*
X104030Y018933D02*
X102628Y018933D01*
X102727Y018834D02*
X104030Y018834D01*
X104030Y018736D02*
X102825Y018736D01*
X102924Y018637D02*
X104030Y018637D01*
X104030Y018539D02*
X103022Y018539D01*
X103121Y018440D02*
X104030Y018440D01*
X104030Y018342D02*
X103219Y018342D01*
X103318Y018243D02*
X104030Y018243D01*
X104030Y018145D02*
X103416Y018145D01*
X103515Y018046D02*
X104030Y018046D01*
X104030Y017948D02*
X103613Y017948D01*
X103712Y017849D02*
X104030Y017849D01*
X104030Y017751D02*
X103810Y017751D01*
X103909Y017652D02*
X104030Y017652D01*
X104030Y017554D02*
X104007Y017554D01*
X101991Y017554D02*
X090410Y017554D01*
X090410Y017455D02*
X099889Y017455D01*
X099704Y017357D02*
X090407Y017357D01*
X090366Y017258D02*
X099605Y017258D01*
X099537Y017160D02*
X090325Y017160D01*
X090247Y017061D02*
X099496Y017061D01*
X099460Y016963D02*
X090148Y016963D01*
X089940Y016864D02*
X099460Y016864D01*
X100330Y017455D02*
X101889Y017455D01*
X101892Y017652D02*
X090397Y017652D01*
X090356Y017751D02*
X101794Y017751D01*
X101695Y017849D02*
X090316Y017849D01*
X090224Y017948D02*
X101597Y017948D01*
X101498Y018046D02*
X090123Y018046D01*
X088796Y018046D02*
X085989Y018046D01*
X086008Y017948D02*
X088695Y017948D01*
X088603Y017849D02*
X086008Y017849D01*
X085994Y017751D02*
X088563Y017751D01*
X088522Y017652D02*
X085953Y017652D01*
X085895Y017554D02*
X088510Y017554D01*
X088510Y017455D02*
X085797Y017455D01*
X085122Y017455D02*
X084197Y017455D01*
X084295Y017554D02*
X085024Y017554D01*
X084966Y017652D02*
X084353Y017652D01*
X084394Y017751D02*
X084925Y017751D01*
X084911Y017849D02*
X084408Y017849D01*
X084408Y017948D02*
X084911Y017948D01*
X084930Y018046D02*
X084389Y018046D01*
X084349Y018145D02*
X084970Y018145D01*
X085034Y018243D02*
X084285Y018243D01*
X084186Y018342D02*
X085133Y018342D01*
X085348Y018440D02*
X084282Y018440D01*
X084347Y018539D02*
X101006Y018539D01*
X100907Y018637D02*
X084388Y018637D01*
X084408Y018736D02*
X100809Y018736D01*
X100710Y018834D02*
X084408Y018834D01*
X084395Y018933D02*
X100612Y018933D01*
X101104Y018440D02*
X085571Y018440D01*
X085786Y018342D02*
X101203Y018342D01*
X101301Y018243D02*
X085885Y018243D01*
X085949Y018145D02*
X101400Y018145D01*
X101704Y017357D02*
X100515Y017357D01*
X100614Y017258D02*
X101605Y017258D01*
X101537Y017160D02*
X100682Y017160D01*
X100723Y017061D02*
X101496Y017061D01*
X101460Y016963D02*
X100760Y016963D01*
X100760Y016864D02*
X101460Y016864D01*
X101460Y016766D02*
X100760Y016766D01*
X100760Y016667D02*
X101460Y016667D01*
X101460Y016569D02*
X100760Y016569D01*
X100760Y016470D02*
X101460Y016470D01*
X101460Y016372D02*
X100760Y016372D01*
X100760Y016273D02*
X101460Y016273D01*
X101460Y016175D02*
X100760Y016175D01*
X100744Y016076D02*
X101475Y016076D01*
X101516Y015978D02*
X100703Y015978D01*
X100662Y015879D02*
X101557Y015879D01*
X101653Y015781D02*
X100566Y015781D01*
X100454Y015682D02*
X101765Y015682D01*
X102454Y015682D02*
X102930Y015682D01*
X102930Y015781D02*
X102566Y015781D01*
X102662Y015879D02*
X102930Y015879D01*
X102930Y015978D02*
X102703Y015978D01*
X102744Y016076D02*
X102930Y016076D01*
X102930Y016175D02*
X102760Y016175D01*
X102760Y016273D02*
X102930Y016273D01*
X102930Y016372D02*
X102760Y016372D01*
X102760Y016470D02*
X102930Y016470D01*
X102930Y016569D02*
X102760Y016569D01*
X102760Y016667D02*
X102877Y016667D01*
X102779Y016766D02*
X102760Y016766D01*
X105940Y017061D02*
X106910Y017061D01*
X106880Y016989D02*
X106880Y016798D01*
X106953Y016621D01*
X107088Y016486D01*
X107264Y016413D01*
X107455Y016413D01*
X107631Y016486D01*
X107766Y016621D01*
X107840Y016798D01*
X107840Y016989D01*
X107766Y017165D01*
X107631Y017300D01*
X107455Y017373D01*
X107264Y017373D01*
X107088Y017300D01*
X106953Y017165D01*
X106880Y016989D01*
X106880Y016963D02*
X105998Y016963D01*
X106097Y016864D02*
X106880Y016864D01*
X106893Y016766D02*
X106195Y016766D01*
X106294Y016667D02*
X106934Y016667D01*
X107005Y016569D02*
X106392Y016569D01*
X106491Y016470D02*
X107126Y016470D01*
X106786Y016175D02*
X109530Y016175D01*
X109530Y016076D02*
X106885Y016076D01*
X106983Y015978D02*
X107711Y015978D01*
X107548Y015879D02*
X107082Y015879D01*
X107180Y015781D02*
X107449Y015781D01*
X107392Y015682D02*
X107279Y015682D01*
X108208Y015978D02*
X108711Y015978D01*
X108548Y015879D02*
X108372Y015879D01*
X109208Y015978D02*
X109530Y015978D01*
X109530Y015879D02*
X109372Y015879D01*
X109569Y016273D02*
X106688Y016273D01*
X106589Y016372D02*
X109630Y016372D01*
X109728Y016470D02*
X107593Y016470D01*
X107714Y016569D02*
X109827Y016569D01*
X109925Y016667D02*
X107785Y016667D01*
X107826Y016766D02*
X110024Y016766D01*
X110122Y016864D02*
X107840Y016864D01*
X107840Y016963D02*
X110221Y016963D01*
X110319Y017061D02*
X107809Y017061D01*
X107769Y017160D02*
X110418Y017160D01*
X110516Y017258D02*
X107673Y017258D01*
X107495Y017357D02*
X110615Y017357D01*
X110713Y017455D02*
X105940Y017455D01*
X105940Y017357D02*
X107224Y017357D01*
X107046Y017258D02*
X105940Y017258D01*
X105940Y017160D02*
X106950Y017160D01*
X105940Y017554D02*
X110812Y017554D01*
X110910Y017652D02*
X105940Y017652D01*
X105940Y017751D02*
X111009Y017751D01*
X111107Y017849D02*
X105940Y017849D01*
X105940Y017948D02*
X111206Y017948D01*
X111304Y018046D02*
X105940Y018046D01*
X105940Y018145D02*
X111403Y018145D01*
X111501Y018243D02*
X105940Y018243D01*
X105940Y018342D02*
X113581Y018342D01*
X113680Y018440D02*
X105940Y018440D01*
X105940Y018539D02*
X113778Y018539D01*
X114341Y018539D02*
X114778Y018539D01*
X114680Y018440D02*
X114439Y018440D01*
X114538Y018342D02*
X114581Y018342D01*
X115341Y018539D02*
X115587Y018539D01*
X115680Y018440D02*
X115439Y018440D01*
X115538Y018342D02*
X115581Y018342D01*
X115489Y018637D02*
X105940Y018637D01*
X105940Y018736D02*
X115440Y018736D01*
X115440Y018834D02*
X105940Y018834D01*
X105940Y018933D02*
X115440Y018933D01*
X115440Y019031D02*
X105940Y019031D01*
X105940Y019130D02*
X115440Y019130D01*
X115468Y019228D02*
X105940Y019228D01*
X105940Y019327D02*
X115566Y019327D01*
X115665Y019425D02*
X105940Y019425D01*
X105940Y019524D02*
X115763Y019524D01*
X116356Y019524D02*
X116763Y019524D01*
X116665Y019425D02*
X116454Y019425D01*
X116553Y019327D02*
X116566Y019327D01*
X118072Y018539D02*
X123328Y018539D01*
X123230Y018440D02*
X118143Y018440D01*
X118184Y018342D02*
X119300Y018342D01*
X119201Y018243D02*
X118190Y018243D01*
X118190Y018145D02*
X119103Y018145D01*
X119004Y018046D02*
X118190Y018046D01*
X118190Y017948D02*
X118906Y017948D01*
X118807Y017849D02*
X118190Y017849D01*
X118190Y017751D02*
X118709Y017751D01*
X118610Y017652D02*
X118190Y017652D01*
X118190Y017554D02*
X118512Y017554D01*
X118413Y017455D02*
X118190Y017455D01*
X118190Y017357D02*
X118315Y017357D01*
X118216Y017258D02*
X118190Y017258D01*
X105510Y012235D02*
X071997Y012235D01*
X072071Y012333D02*
X105411Y012333D01*
X107972Y009772D02*
X091972Y009772D01*
X091931Y009674D02*
X108071Y009674D01*
X108169Y009575D02*
X091861Y009575D01*
X091762Y009477D02*
X108268Y009477D01*
X108325Y009378D02*
X091573Y009378D01*
X091146Y009378D02*
X070467Y009378D01*
X070368Y009280D02*
X108325Y009280D01*
X108360Y009181D02*
X070270Y009181D01*
X070171Y009083D02*
X108401Y009083D01*
X108470Y008984D02*
X070073Y008984D01*
X069974Y008886D02*
X108569Y008886D01*
X090957Y009477D02*
X070565Y009477D01*
X070664Y009575D02*
X090858Y009575D01*
X090788Y009674D02*
X070762Y009674D01*
X070861Y009772D02*
X090747Y009772D01*
X090710Y009871D02*
X070959Y009871D01*
X071058Y009969D02*
X090710Y009969D01*
X090710Y010068D02*
X071156Y010068D01*
X071255Y010166D02*
X090710Y010166D01*
X090710Y010265D02*
X071353Y010265D01*
X071452Y010363D02*
X090710Y010363D01*
X087569Y013995D02*
X087350Y013995D01*
X087149Y014079D01*
X086995Y014233D01*
X086911Y014434D01*
X086911Y014652D01*
X086995Y014854D01*
X087149Y015008D01*
X087350Y015091D01*
X081210Y015091D01*
X081210Y014993D02*
X087134Y014993D01*
X087035Y014894D02*
X081181Y014894D01*
X081140Y014796D02*
X086971Y014796D01*
X086930Y014697D02*
X081083Y014697D01*
X080984Y014599D02*
X086911Y014599D01*
X086911Y014500D02*
X080826Y014500D01*
X080293Y014500D02*
X077576Y014500D01*
X077616Y014599D02*
X080135Y014599D01*
X080036Y014697D02*
X077657Y014697D01*
X077698Y014796D02*
X079979Y014796D01*
X079938Y014894D02*
X077739Y014894D01*
X077780Y014993D02*
X079910Y014993D01*
X079910Y015091D02*
X077808Y015091D01*
X077827Y015190D02*
X079910Y015190D01*
X079910Y015288D02*
X077847Y015288D01*
X077867Y015387D02*
X079910Y015387D01*
X079910Y015485D02*
X077886Y015485D01*
X077906Y015584D02*
X079910Y015584D01*
X079910Y015682D02*
X077910Y015682D01*
X077910Y015781D02*
X079910Y015781D01*
X079933Y015879D02*
X077910Y015879D01*
X077910Y015978D02*
X079974Y015978D01*
X080023Y016076D02*
X077910Y016076D01*
X077910Y016175D02*
X080122Y016175D01*
X080261Y016273D02*
X077892Y016273D01*
X072842Y017948D02*
X065536Y017948D01*
X065438Y017849D02*
X072744Y017849D01*
X072653Y017751D02*
X065339Y017751D01*
X065241Y017652D02*
X072587Y017652D01*
X072521Y017554D02*
X065142Y017554D01*
X065044Y017455D02*
X072455Y017455D01*
X072389Y017357D02*
X064945Y017357D01*
X064847Y017258D02*
X072332Y017258D01*
X072291Y017160D02*
X064748Y017160D01*
X064650Y017061D02*
X072250Y017061D01*
X072209Y016963D02*
X064551Y016963D01*
X064453Y016864D02*
X072169Y016864D01*
X072128Y016766D02*
X064354Y016766D01*
X064256Y016667D02*
X072106Y016667D01*
X072086Y016569D02*
X064157Y016569D01*
X064059Y016470D02*
X072066Y016470D01*
X072047Y016372D02*
X063960Y016372D01*
X063862Y016273D02*
X072027Y016273D01*
X072010Y016175D02*
X063763Y016175D01*
X063665Y016076D02*
X072010Y016076D01*
X072010Y015978D02*
X063566Y015978D01*
X063468Y015879D02*
X072010Y015879D01*
X072010Y015781D02*
X063369Y015781D01*
X063271Y015682D02*
X072010Y015682D01*
X072013Y015584D02*
X063172Y015584D01*
X063074Y015485D02*
X072033Y015485D01*
X072052Y015387D02*
X062975Y015387D01*
X062877Y015288D02*
X072072Y015288D01*
X072092Y015190D02*
X062778Y015190D01*
X062680Y015091D02*
X072111Y015091D01*
X072139Y014993D02*
X062581Y014993D01*
X062483Y014894D02*
X072180Y014894D01*
X072221Y014796D02*
X062384Y014796D01*
X062286Y014697D02*
X072262Y014697D01*
X072303Y014599D02*
X062157Y014599D01*
X060284Y014106D02*
X072606Y014106D01*
X072673Y014008D02*
X060303Y014008D01*
X060303Y013909D02*
X072772Y013909D01*
X072870Y013811D02*
X060303Y013811D01*
X060298Y013712D02*
X071417Y013712D01*
X071301Y013614D02*
X060257Y013614D01*
X060216Y013515D02*
X071232Y013515D01*
X071171Y013417D02*
X060175Y013417D01*
X060078Y013318D02*
X071078Y013318D01*
X070985Y013220D02*
X059979Y013220D01*
X059800Y013121D02*
X070893Y013121D01*
X070800Y013023D02*
X052011Y013023D01*
X052065Y013121D02*
X059119Y013121D01*
X058940Y013220D02*
X052100Y013220D01*
X052100Y013318D02*
X058841Y013318D01*
X058744Y013417D02*
X052100Y013417D01*
X052100Y013515D02*
X058703Y013515D01*
X058662Y013614D02*
X052100Y013614D01*
X052100Y013712D02*
X058621Y013712D01*
X058616Y013811D02*
X052100Y013811D01*
X052100Y013909D02*
X058616Y013909D01*
X058616Y014008D02*
X052100Y014008D01*
X052100Y014106D02*
X058635Y014106D01*
X058675Y014205D02*
X052100Y014205D01*
X052100Y014303D02*
X058716Y014303D01*
X058775Y014402D02*
X052100Y014402D01*
X052100Y014500D02*
X058873Y014500D01*
X060046Y014500D02*
X072343Y014500D01*
X072408Y014402D02*
X060144Y014402D01*
X060203Y014303D02*
X072474Y014303D01*
X072540Y014205D02*
X060244Y014205D01*
X061525Y015781D02*
X058160Y015781D01*
X058160Y015879D02*
X061623Y015879D01*
X061722Y015978D02*
X058160Y015978D01*
X058141Y016076D02*
X061820Y016076D01*
X061919Y016175D02*
X058101Y016175D01*
X058060Y016273D02*
X062017Y016273D01*
X062116Y016372D02*
X057971Y016372D01*
X057872Y016470D02*
X062214Y016470D01*
X062313Y016569D02*
X057658Y016569D01*
X057261Y016569D02*
X052957Y016569D01*
X052908Y016548D02*
X053182Y016662D01*
X053391Y016871D01*
X053505Y017145D01*
X053505Y017441D01*
X053391Y017715D01*
X053182Y017925D01*
X052908Y018038D01*
X052611Y018038D01*
X052338Y017925D01*
X052128Y017715D01*
X052015Y017441D01*
X052015Y017145D01*
X052128Y016871D01*
X052338Y016662D01*
X052611Y016548D01*
X052908Y016548D01*
X053187Y016667D02*
X062411Y016667D01*
X062510Y016766D02*
X053286Y016766D01*
X053384Y016864D02*
X062608Y016864D01*
X062707Y016963D02*
X053429Y016963D01*
X053470Y017061D02*
X055263Y017061D01*
X055292Y017050D02*
X055627Y017050D01*
X055937Y017178D01*
X056175Y017415D01*
X056303Y017725D01*
X056303Y018061D01*
X056175Y018371D01*
X055937Y018609D01*
X055627Y018737D01*
X055292Y018737D01*
X054982Y018609D01*
X054744Y018371D01*
X054616Y018061D01*
X054616Y017725D01*
X054744Y017415D01*
X054982Y017178D01*
X055292Y017050D01*
X055026Y017160D02*
X053505Y017160D01*
X053505Y017258D02*
X054901Y017258D01*
X054803Y017357D02*
X053505Y017357D01*
X053499Y017455D02*
X054728Y017455D01*
X054687Y017554D02*
X053458Y017554D01*
X053417Y017652D02*
X054646Y017652D01*
X054616Y017751D02*
X053356Y017751D01*
X053257Y017849D02*
X054616Y017849D01*
X054616Y017948D02*
X053126Y017948D01*
X052393Y017948D02*
X043000Y017948D01*
X043000Y018046D02*
X054616Y018046D01*
X054650Y018145D02*
X043000Y018145D01*
X043000Y018243D02*
X054691Y018243D01*
X054732Y018342D02*
X043000Y018342D01*
X043000Y018440D02*
X054813Y018440D01*
X054912Y018539D02*
X043000Y018539D01*
X043000Y018637D02*
X055051Y018637D01*
X055289Y018736D02*
X043000Y018736D01*
X043000Y018834D02*
X064578Y018834D01*
X064480Y018736D02*
X055630Y018736D01*
X055868Y018637D02*
X064381Y018637D01*
X064283Y018539D02*
X056007Y018539D01*
X056106Y018440D02*
X064184Y018440D01*
X064086Y018342D02*
X056187Y018342D01*
X056228Y018243D02*
X063987Y018243D01*
X063889Y018145D02*
X056269Y018145D01*
X056303Y018046D02*
X063790Y018046D01*
X063692Y017948D02*
X056303Y017948D01*
X056303Y017849D02*
X063593Y017849D01*
X063495Y017751D02*
X056303Y017751D01*
X056273Y017652D02*
X063396Y017652D01*
X063298Y017554D02*
X056232Y017554D01*
X056191Y017455D02*
X063199Y017455D01*
X063101Y017357D02*
X056116Y017357D01*
X056018Y017258D02*
X063002Y017258D01*
X062904Y017160D02*
X055893Y017160D01*
X055656Y017061D02*
X062805Y017061D01*
X065635Y018046D02*
X072941Y018046D01*
X073039Y018145D02*
X065733Y018145D01*
X065832Y018243D02*
X073167Y018243D01*
X073314Y018342D02*
X065930Y018342D01*
X066029Y018440D02*
X073462Y018440D01*
X073638Y018539D02*
X067817Y018539D01*
X067982Y018637D02*
X073875Y018637D01*
X074129Y018736D02*
X068072Y018736D01*
X068113Y018834D02*
X074624Y018834D01*
X077065Y020509D02*
X069531Y020509D01*
X069490Y020607D02*
X077017Y020607D01*
X076980Y020706D02*
X075651Y020706D01*
X075749Y020804D02*
X076980Y020804D01*
X076985Y020903D02*
X075800Y020903D01*
X075840Y021001D02*
X077026Y021001D01*
X077087Y021100D02*
X075840Y021100D01*
X075836Y021198D02*
X077186Y021198D01*
X076139Y021494D02*
X082936Y021494D01*
X082786Y021395D02*
X076040Y021395D01*
X074528Y020903D02*
X068491Y020903D01*
X068393Y020804D02*
X068798Y020804D01*
X068693Y020706D02*
X068294Y020706D01*
X068196Y020607D02*
X068629Y020607D01*
X068588Y020509D02*
X068097Y020509D01*
X067999Y020410D02*
X068580Y020410D01*
X068580Y020312D02*
X067900Y020312D01*
X067802Y020213D02*
X068615Y020213D01*
X068659Y020115D02*
X067703Y020115D01*
X067605Y020016D02*
X068604Y020016D01*
X068533Y019918D02*
X067506Y019918D01*
X067408Y019819D02*
X068492Y019819D01*
X068480Y019721D02*
X067309Y019721D01*
X067211Y019622D02*
X068480Y019622D01*
X068510Y019524D02*
X067112Y019524D01*
X067014Y019425D02*
X067448Y019425D01*
X067314Y019327D02*
X066915Y019327D01*
X066817Y019228D02*
X067237Y019228D01*
X067197Y019130D02*
X066718Y019130D01*
X066620Y019031D02*
X067180Y019031D01*
X067180Y018933D02*
X066521Y018933D01*
X066423Y018834D02*
X067206Y018834D01*
X067247Y018736D02*
X066324Y018736D01*
X066226Y018637D02*
X067337Y018637D01*
X067502Y018539D02*
X066127Y018539D01*
X064775Y019031D02*
X043000Y019031D01*
X043000Y018933D02*
X064677Y018933D01*
X064874Y019130D02*
X043000Y019130D01*
X043000Y019228D02*
X064972Y019228D01*
X065071Y019327D02*
X043000Y019327D01*
X043000Y019425D02*
X065169Y019425D01*
X065268Y019524D02*
X043000Y019524D01*
X043000Y019622D02*
X065366Y019622D01*
X065465Y019721D02*
X043000Y019721D01*
X043008Y019819D02*
X065563Y019819D01*
X065662Y019918D02*
X043106Y019918D01*
X043205Y020016D02*
X065760Y020016D01*
X065859Y020115D02*
X043303Y020115D01*
X043402Y020213D02*
X065957Y020213D01*
X068590Y021001D02*
X074429Y021001D01*
X074331Y021100D02*
X068688Y021100D01*
X069321Y020804D02*
X074626Y020804D01*
X074745Y020706D02*
X069426Y020706D01*
X071243Y021198D02*
X074232Y021198D01*
X074134Y021297D02*
X071342Y021297D01*
X071397Y021395D02*
X074035Y021395D01*
X073937Y021494D02*
X071438Y021494D01*
X071440Y021592D02*
X073838Y021592D01*
X073740Y021691D02*
X071439Y021691D01*
X071398Y021789D02*
X073641Y021789D01*
X073543Y021888D02*
X071344Y021888D01*
X071331Y021986D02*
X073444Y021986D01*
X074393Y022282D02*
X088552Y022282D01*
X088486Y022380D02*
X074295Y022380D01*
X074196Y022479D02*
X088445Y022479D01*
X088410Y022577D02*
X074098Y022577D01*
X073999Y022676D02*
X088410Y022676D01*
X088410Y022774D02*
X073901Y022774D01*
X073802Y022873D02*
X088430Y022873D01*
X088471Y022971D02*
X073704Y022971D01*
X071967Y023464D02*
X071384Y023464D01*
X071425Y023562D02*
X071868Y023562D01*
X071770Y023661D02*
X071440Y023661D01*
X071440Y023759D02*
X071671Y023759D01*
X076740Y024744D02*
X080674Y024744D01*
X080576Y024646D02*
X076781Y024646D01*
X076785Y024547D02*
X080477Y024547D01*
X081159Y023956D02*
X083616Y023956D01*
X083616Y023858D02*
X081060Y023858D01*
X080962Y023759D02*
X083616Y023759D01*
X083643Y023661D02*
X080862Y023661D01*
X081257Y024055D02*
X083616Y024055D01*
X083654Y024153D02*
X081356Y024153D01*
X081454Y024252D02*
X083695Y024252D01*
X083736Y024350D02*
X081553Y024350D01*
X081651Y024449D02*
X083822Y024449D01*
X083920Y024547D02*
X081750Y024547D01*
X081848Y024646D02*
X084072Y024646D01*
X084847Y024646D02*
X091649Y024646D01*
X091550Y024744D02*
X081947Y024744D01*
X082045Y024843D02*
X091452Y024843D01*
X091353Y024941D02*
X082144Y024941D01*
X082242Y025040D02*
X091255Y025040D01*
X091156Y025138D02*
X082341Y025138D01*
X082704Y025237D02*
X091058Y025237D01*
X090959Y025335D02*
X082892Y025335D01*
X082990Y025434D02*
X090861Y025434D01*
X090762Y025532D02*
X083068Y025532D01*
X083108Y025631D02*
X090664Y025631D01*
X090565Y025729D02*
X083149Y025729D01*
X083160Y025828D02*
X090467Y025828D01*
X090368Y025926D02*
X083160Y025926D01*
X083160Y026025D02*
X090270Y026025D01*
X090171Y026123D02*
X083122Y026123D01*
X083081Y026222D02*
X090073Y026222D01*
X089974Y026320D02*
X083022Y026320D01*
X082924Y026419D02*
X089876Y026419D01*
X089777Y026517D02*
X082782Y026517D01*
X089450Y028192D02*
X090031Y028192D01*
X089884Y028093D02*
X089491Y028093D01*
X089516Y027995D02*
X089791Y027995D01*
X089750Y027896D02*
X089615Y027896D01*
X089388Y028290D02*
X091492Y028290D01*
X091451Y028389D02*
X089289Y028389D01*
X089078Y028487D02*
X091411Y028487D01*
X091586Y028192D02*
X090488Y028192D01*
X090635Y028093D02*
X091034Y028093D01*
X090886Y027995D02*
X090728Y027995D01*
X090769Y027896D02*
X090792Y027896D01*
X091485Y028093D02*
X091734Y028093D01*
X091633Y027995D02*
X091911Y027995D01*
X091948Y027896D02*
X091727Y027896D01*
X091768Y027798D02*
X091989Y027798D01*
X092078Y027699D02*
X091808Y027699D01*
X091860Y027601D02*
X092216Y027601D01*
X092442Y027502D02*
X091959Y027502D01*
X092057Y027404D02*
X092541Y027404D01*
X096056Y026419D02*
X096804Y026419D01*
X096763Y026320D02*
X096241Y026320D01*
X096339Y026222D02*
X096734Y026222D01*
X096734Y026123D02*
X096438Y026123D01*
X096536Y026025D02*
X096734Y026025D01*
X096734Y025926D02*
X096635Y025926D01*
X096733Y025828D02*
X096744Y025828D01*
X097620Y024941D02*
X104530Y024941D01*
X104530Y024843D02*
X097718Y024843D01*
X097817Y024744D02*
X104530Y024744D01*
X104530Y024646D02*
X097915Y024646D01*
X098014Y024547D02*
X104530Y024547D01*
X104530Y024449D02*
X098112Y024449D01*
X091846Y024449D02*
X085097Y024449D01*
X084999Y024547D02*
X091747Y024547D01*
X088615Y023168D02*
X084914Y023168D01*
X084676Y023070D02*
X088517Y023070D01*
X094212Y030063D02*
X094607Y030063D01*
X094416Y030162D02*
X094403Y030162D01*
X055916Y021433D02*
X048855Y021433D01*
X048910Y021564D01*
X048910Y022423D01*
X048814Y022653D01*
X049803Y022653D01*
X049761Y022552D01*
X049761Y022334D01*
X049845Y022133D01*
X049999Y021979D01*
X050200Y021895D01*
X050419Y021895D01*
X050620Y021979D01*
X050774Y022133D01*
X050858Y022334D01*
X050858Y022552D01*
X050816Y022653D01*
X051411Y022653D01*
X051411Y022484D01*
X051495Y022283D01*
X051649Y022129D01*
X051850Y022045D01*
X052069Y022045D01*
X052270Y022129D01*
X052424Y022283D01*
X052508Y022484D01*
X052508Y022653D01*
X054811Y022653D01*
X054811Y022484D01*
X054895Y022283D01*
X055049Y022129D01*
X055250Y022045D01*
X055469Y022045D01*
X055631Y022112D01*
X055580Y021989D01*
X055580Y021798D01*
X055653Y021621D01*
X055788Y021486D01*
X055916Y021433D01*
X055780Y021494D02*
X048880Y021494D01*
X048910Y021592D02*
X055682Y021592D01*
X055624Y021691D02*
X048910Y021691D01*
X048910Y021789D02*
X055583Y021789D01*
X055580Y021888D02*
X048910Y021888D01*
X048910Y021986D02*
X049991Y021986D01*
X049893Y022085D02*
X048910Y022085D01*
X048910Y022183D02*
X049824Y022183D01*
X049783Y022282D02*
X048910Y022282D01*
X048910Y022380D02*
X049761Y022380D01*
X049761Y022479D02*
X048886Y022479D01*
X048845Y022577D02*
X049772Y022577D01*
X050726Y022085D02*
X051755Y022085D01*
X051594Y022183D02*
X050795Y022183D01*
X050836Y022282D02*
X051496Y022282D01*
X051454Y022380D02*
X050858Y022380D01*
X050858Y022479D02*
X051414Y022479D01*
X051411Y022577D02*
X050847Y022577D01*
X052164Y022085D02*
X055155Y022085D01*
X054994Y022183D02*
X052325Y022183D01*
X052423Y022282D02*
X054896Y022282D01*
X054854Y022380D02*
X052465Y022380D01*
X052505Y022479D02*
X054814Y022479D01*
X054811Y022577D02*
X052508Y022577D01*
X050628Y021986D02*
X055580Y021986D01*
X055564Y022085D02*
X055619Y022085D01*
X047674Y022577D02*
X035854Y022577D01*
X035953Y022479D02*
X047633Y022479D01*
X047610Y022380D02*
X036002Y022380D01*
X036040Y022282D02*
X047610Y022282D01*
X047610Y022183D02*
X036040Y022183D01*
X036034Y022085D02*
X047610Y022085D01*
X047610Y021986D02*
X035993Y021986D01*
X035933Y021888D02*
X047610Y021888D01*
X047610Y021789D02*
X035834Y021789D01*
X035285Y021789D02*
X033940Y021789D01*
X033940Y021698D02*
X033866Y021521D01*
X033740Y021395D01*
X033758Y021352D01*
X033758Y021134D01*
X033674Y020933D01*
X033520Y020779D01*
X033319Y020695D01*
X033100Y020695D01*
X032899Y020779D01*
X032745Y020933D01*
X032661Y021134D01*
X032661Y021352D01*
X032745Y021554D01*
X032899Y021708D01*
X032980Y021741D01*
X032980Y021889D01*
X033053Y022065D01*
X033188Y022200D01*
X033364Y022273D01*
X033555Y022273D01*
X033731Y022200D01*
X033866Y022065D01*
X033940Y021889D01*
X033940Y021698D01*
X033937Y021691D02*
X047610Y021691D01*
X047610Y021592D02*
X033896Y021592D01*
X033839Y021494D02*
X047639Y021494D01*
X042453Y020509D02*
X041597Y020509D01*
X041499Y020410D02*
X042354Y020410D01*
X042256Y020312D02*
X041400Y020312D01*
X041302Y020213D02*
X042174Y020213D01*
X042134Y020115D02*
X041203Y020115D01*
X041105Y020016D02*
X042120Y020016D01*
X042120Y019918D02*
X041006Y019918D01*
X040908Y019819D02*
X042120Y019819D01*
X042120Y019721D02*
X040809Y019721D01*
X040711Y019622D02*
X042120Y019622D01*
X042120Y019524D02*
X040612Y019524D01*
X040514Y019425D02*
X042120Y019425D01*
X042120Y019327D02*
X040415Y019327D01*
X040317Y019228D02*
X042120Y019228D01*
X042120Y019130D02*
X040218Y019130D01*
X040120Y019031D02*
X042120Y019031D01*
X042120Y018933D02*
X040021Y018933D01*
X039923Y018834D02*
X042120Y018834D01*
X042120Y018736D02*
X039824Y018736D01*
X039726Y018637D02*
X042120Y018637D01*
X042120Y018539D02*
X039627Y018539D01*
X039529Y018440D02*
X042120Y018440D01*
X042120Y018342D02*
X039430Y018342D01*
X039332Y018243D02*
X042120Y018243D01*
X042120Y018145D02*
X039233Y018145D01*
X039135Y018046D02*
X042120Y018046D01*
X042120Y017948D02*
X039036Y017948D01*
X038938Y017849D02*
X042120Y017849D01*
X042120Y017751D02*
X038839Y017751D01*
X038741Y017652D02*
X042120Y017652D01*
X042120Y017554D02*
X038642Y017554D01*
X038544Y017455D02*
X042120Y017455D01*
X042120Y017357D02*
X038445Y017357D01*
X038347Y017258D02*
X042120Y017258D01*
X042120Y017160D02*
X038248Y017160D01*
X038150Y017061D02*
X042120Y017061D01*
X042120Y016963D02*
X038051Y016963D01*
X037953Y016864D02*
X042120Y016864D01*
X042120Y016766D02*
X037854Y016766D01*
X037756Y016667D02*
X042120Y016667D01*
X042120Y016569D02*
X037585Y016569D01*
X037299Y017455D02*
X036008Y017455D01*
X035967Y017751D02*
X037595Y017751D01*
X037693Y017849D02*
X035926Y017849D01*
X035830Y017948D02*
X037792Y017948D01*
X037890Y018046D02*
X035677Y018046D01*
X035242Y018046D02*
X024329Y018046D01*
X024427Y017948D02*
X035089Y017948D01*
X034993Y017849D02*
X024526Y017849D01*
X024624Y017751D02*
X034952Y017751D01*
X034911Y017455D02*
X024920Y017455D01*
X025018Y017357D02*
X032601Y017357D01*
X032502Y017258D02*
X025117Y017258D01*
X025215Y017160D02*
X032404Y017160D01*
X032305Y017061D02*
X025314Y017061D01*
X025412Y016963D02*
X029986Y016963D01*
X029861Y016864D02*
X025511Y016864D01*
X025609Y016766D02*
X029763Y016766D01*
X029719Y016667D02*
X025708Y016667D01*
X025806Y016569D02*
X029679Y016569D01*
X029660Y016470D02*
X025905Y016470D01*
X026003Y016372D02*
X029660Y016372D01*
X029660Y016273D02*
X026102Y016273D01*
X026200Y016175D02*
X029660Y016175D01*
X029660Y016076D02*
X026299Y016076D01*
X026397Y015978D02*
X029660Y015978D01*
X029660Y015879D02*
X026496Y015879D01*
X026594Y015781D02*
X029660Y015781D01*
X029660Y015682D02*
X026693Y015682D01*
X026791Y015584D02*
X029693Y015584D01*
X029734Y015485D02*
X026890Y015485D01*
X026988Y015387D02*
X029797Y015387D01*
X029895Y015288D02*
X027087Y015288D01*
X027185Y015190D02*
X030068Y015190D01*
X030237Y014993D02*
X027382Y014993D01*
X027284Y015091D02*
X030335Y015091D01*
X030138Y014894D02*
X027481Y014894D01*
X027579Y014796D02*
X030040Y014796D01*
X029941Y014697D02*
X027678Y014697D01*
X027776Y014599D02*
X029843Y014599D01*
X029744Y014500D02*
X027875Y014500D01*
X027973Y014402D02*
X029646Y014402D01*
X029547Y014303D02*
X028072Y014303D01*
X028170Y014205D02*
X029471Y014205D01*
X029430Y014106D02*
X028269Y014106D01*
X028367Y014008D02*
X029420Y014008D01*
X029420Y013909D02*
X028466Y013909D01*
X028564Y013811D02*
X029420Y013811D01*
X029389Y013712D02*
X028663Y013712D01*
X030300Y013811D02*
X046720Y013811D01*
X046720Y013909D02*
X042854Y013909D01*
X042953Y014008D02*
X046720Y014008D01*
X046720Y014106D02*
X043002Y014106D01*
X043040Y014205D02*
X046720Y014205D01*
X046720Y014303D02*
X045748Y014303D01*
X045731Y014286D02*
X045866Y014421D01*
X045940Y014598D01*
X045940Y014789D01*
X045866Y014965D01*
X045731Y015100D01*
X045555Y015173D01*
X045364Y015173D01*
X045188Y015100D01*
X045053Y014965D01*
X044980Y014789D01*
X044980Y014598D01*
X045053Y014421D01*
X045188Y014286D01*
X045364Y014213D01*
X045555Y014213D01*
X045731Y014286D01*
X045847Y014402D02*
X046720Y014402D01*
X046720Y014500D02*
X045899Y014500D01*
X045940Y014599D02*
X046720Y014599D01*
X046720Y014697D02*
X045940Y014697D01*
X045937Y014796D02*
X046720Y014796D01*
X046720Y014894D02*
X045896Y014894D01*
X045839Y014993D02*
X046720Y014993D01*
X046720Y015091D02*
X045740Y015091D01*
X045179Y015091D02*
X043000Y015091D01*
X043000Y014993D02*
X045080Y014993D01*
X045023Y014894D02*
X043000Y014894D01*
X043000Y014796D02*
X044982Y014796D01*
X044980Y014697D02*
X043000Y014697D01*
X043000Y014599D02*
X044980Y014599D01*
X045020Y014500D02*
X043000Y014500D01*
X043034Y014402D02*
X045072Y014402D01*
X045171Y014303D02*
X043040Y014303D01*
X042166Y014008D02*
X030496Y014008D01*
X030398Y013909D02*
X042265Y013909D01*
X042117Y014106D02*
X030595Y014106D01*
X030693Y014205D02*
X042080Y014205D01*
X042080Y014303D02*
X030792Y014303D01*
X030890Y014402D02*
X042085Y014402D01*
X042120Y014500D02*
X030989Y014500D01*
X031087Y014599D02*
X042120Y014599D01*
X042120Y014697D02*
X031186Y014697D01*
X031284Y014796D02*
X042120Y014796D01*
X042120Y014894D02*
X031383Y014894D01*
X031481Y014993D02*
X042120Y014993D01*
X042120Y015091D02*
X031580Y015091D01*
X031678Y015190D02*
X042120Y015190D01*
X042120Y015288D02*
X031777Y015288D01*
X031875Y015387D02*
X042120Y015387D01*
X042120Y015485D02*
X031974Y015485D01*
X032072Y015584D02*
X042120Y015584D01*
X042120Y015682D02*
X032171Y015682D01*
X032269Y015781D02*
X042120Y015781D01*
X042120Y015879D02*
X032368Y015879D01*
X032466Y015978D02*
X042120Y015978D01*
X042120Y016076D02*
X032565Y016076D01*
X032663Y016175D02*
X042120Y016175D01*
X042120Y016273D02*
X032762Y016273D01*
X032860Y016372D02*
X042120Y016372D01*
X042120Y016470D02*
X032959Y016470D01*
X032010Y016766D02*
X030856Y016766D01*
X030900Y016667D02*
X031911Y016667D01*
X031813Y016569D02*
X030940Y016569D01*
X030960Y016470D02*
X031714Y016470D01*
X031616Y016372D02*
X030960Y016372D01*
X030960Y016273D02*
X031517Y016273D01*
X031419Y016175D02*
X030960Y016175D01*
X030960Y016076D02*
X031320Y016076D01*
X031222Y015978D02*
X030960Y015978D01*
X030960Y015879D02*
X031123Y015879D01*
X031025Y015781D02*
X030960Y015781D01*
X030758Y016864D02*
X032108Y016864D01*
X032207Y016963D02*
X030633Y016963D01*
X024230Y018145D02*
X037989Y018145D01*
X038087Y018243D02*
X024132Y018243D01*
X024033Y018342D02*
X038186Y018342D01*
X038284Y018440D02*
X023935Y018440D01*
X023836Y018539D02*
X038383Y018539D01*
X038481Y018637D02*
X023738Y018637D01*
X023639Y018736D02*
X038580Y018736D01*
X038678Y018834D02*
X023541Y018834D01*
X023442Y018933D02*
X038777Y018933D01*
X038875Y019031D02*
X023344Y019031D01*
X023245Y019130D02*
X038974Y019130D01*
X039072Y019228D02*
X023147Y019228D01*
X023048Y019327D02*
X039171Y019327D01*
X039269Y019425D02*
X022950Y019425D01*
X022851Y019524D02*
X039368Y019524D01*
X039466Y019622D02*
X022753Y019622D01*
X022654Y019721D02*
X039565Y019721D01*
X039663Y019819D02*
X022556Y019819D01*
X022457Y019918D02*
X039762Y019918D01*
X039860Y020016D02*
X022359Y020016D01*
X022260Y020115D02*
X039959Y020115D01*
X040057Y020213D02*
X022162Y020213D01*
X022063Y020312D02*
X040156Y020312D01*
X040254Y020410D02*
X021965Y020410D01*
X021866Y020509D02*
X040353Y020509D01*
X040451Y020607D02*
X021768Y020607D01*
X021669Y020706D02*
X033075Y020706D01*
X032873Y020804D02*
X021571Y020804D01*
X021472Y020903D02*
X032775Y020903D01*
X032716Y021001D02*
X021374Y021001D01*
X021275Y021100D02*
X032676Y021100D01*
X032661Y021198D02*
X021177Y021198D01*
X021078Y021297D02*
X032661Y021297D01*
X032679Y021395D02*
X020980Y021395D01*
X020881Y021494D02*
X032720Y021494D01*
X032783Y021592D02*
X020783Y021592D01*
X020650Y021691D02*
X032882Y021691D01*
X032980Y021789D02*
X007910Y021789D01*
X007910Y021888D02*
X032980Y021888D01*
X033020Y021986D02*
X007910Y021986D01*
X007910Y022085D02*
X033072Y022085D01*
X033171Y022183D02*
X007910Y022183D01*
X007910Y022282D02*
X035080Y022282D01*
X035080Y022183D02*
X033748Y022183D01*
X033847Y022085D02*
X035085Y022085D01*
X035126Y021986D02*
X033899Y021986D01*
X033940Y021888D02*
X035186Y021888D01*
X033740Y021395D02*
X041280Y021395D01*
X041141Y021297D02*
X033758Y021297D01*
X033758Y021198D02*
X041042Y021198D01*
X040944Y021100D02*
X033743Y021100D01*
X033703Y021001D02*
X040845Y021001D01*
X040747Y020903D02*
X033644Y020903D01*
X033546Y020804D02*
X040648Y020804D01*
X040550Y020706D02*
X033344Y020706D01*
X035117Y022380D02*
X007910Y022380D01*
X007910Y022479D02*
X035166Y022479D01*
X035265Y022577D02*
X007910Y022577D01*
X030330Y013712D02*
X046720Y013712D01*
X046720Y013614D02*
X031194Y013614D01*
X031360Y013515D02*
X046720Y013515D01*
X046720Y013417D02*
X031458Y013417D01*
X031557Y013318D02*
X046720Y013318D01*
X046720Y013220D02*
X031642Y013220D01*
X031683Y013121D02*
X046720Y013121D01*
X046720Y013023D02*
X031700Y013023D01*
X031700Y012924D02*
X046720Y012924D01*
X046720Y012826D02*
X031700Y012826D01*
X031700Y012727D02*
X044353Y012727D01*
X044288Y012700D02*
X044153Y012565D01*
X044080Y012389D01*
X044080Y012198D01*
X044153Y012021D01*
X044288Y011886D01*
X044464Y011813D01*
X044655Y011813D01*
X044831Y011886D01*
X044966Y012021D01*
X045040Y012198D01*
X045040Y012389D01*
X044966Y012565D01*
X044831Y012700D01*
X044655Y012773D01*
X044464Y012773D01*
X044288Y012700D01*
X044216Y012629D02*
X031700Y012629D01*
X031700Y012530D02*
X044138Y012530D01*
X044097Y012432D02*
X031700Y012432D01*
X031700Y012333D02*
X044080Y012333D01*
X044080Y012235D02*
X031700Y012235D01*
X032239Y012136D02*
X041375Y012136D01*
X041225Y012038D02*
X032337Y012038D01*
X032437Y011939D02*
X040783Y011939D01*
X040685Y011841D02*
X032591Y011841D01*
X032676Y011742D02*
X040586Y011742D01*
X040488Y011644D02*
X032717Y011644D01*
X032740Y011545D02*
X040389Y011545D01*
X040347Y011447D02*
X032740Y011447D01*
X032719Y011348D02*
X040320Y011348D01*
X040320Y011250D02*
X032678Y011250D01*
X032596Y011151D02*
X040320Y011151D01*
X040320Y011053D02*
X032450Y011053D01*
X032069Y011053D02*
X029640Y011053D01*
X029640Y010954D02*
X040320Y010954D01*
X040320Y010856D02*
X029622Y010856D01*
X029718Y010757D02*
X040320Y010757D01*
X040320Y010659D02*
X029816Y010659D01*
X029915Y010560D02*
X040320Y010560D01*
X040320Y010462D02*
X030013Y010462D01*
X030112Y010363D02*
X040320Y010363D01*
X040320Y010265D02*
X030210Y010265D01*
X030309Y010166D02*
X040320Y010166D01*
X040320Y010068D02*
X030407Y010068D01*
X030506Y009969D02*
X040320Y009969D01*
X040320Y009871D02*
X030604Y009871D01*
X030703Y009772D02*
X040320Y009772D01*
X040320Y009674D02*
X030801Y009674D01*
X030900Y009575D02*
X040320Y009575D01*
X040332Y009477D02*
X030998Y009477D01*
X031097Y009378D02*
X040372Y009378D01*
X041203Y009772D02*
X046733Y009772D01*
X046720Y009871D02*
X041200Y009871D01*
X041200Y009969D02*
X046720Y009969D01*
X046720Y010068D02*
X041200Y010068D01*
X041200Y010166D02*
X046720Y010166D01*
X046720Y010265D02*
X041200Y010265D01*
X041200Y010363D02*
X045343Y010363D01*
X045288Y010386D02*
X045464Y010313D01*
X045655Y010313D01*
X045831Y010386D01*
X045966Y010521D01*
X046040Y010698D01*
X046040Y010889D01*
X045966Y011065D01*
X045831Y011200D01*
X045655Y011273D01*
X045464Y011273D01*
X045288Y011200D01*
X045153Y011065D01*
X045080Y010889D01*
X045080Y010698D01*
X045153Y010521D01*
X045288Y010386D01*
X045212Y010462D02*
X041200Y010462D01*
X041200Y010560D02*
X045136Y010560D01*
X045096Y010659D02*
X041200Y010659D01*
X041200Y010757D02*
X045080Y010757D01*
X045080Y010856D02*
X041200Y010856D01*
X041200Y010954D02*
X045107Y010954D01*
X045147Y011053D02*
X041200Y011053D01*
X041240Y011151D02*
X045239Y011151D01*
X045407Y011250D02*
X041743Y011250D01*
X041893Y011348D02*
X046720Y011348D01*
X046720Y011250D02*
X045712Y011250D01*
X045880Y011151D02*
X046720Y011151D01*
X046720Y011053D02*
X045972Y011053D01*
X046012Y010954D02*
X046720Y010954D01*
X046720Y010856D02*
X046040Y010856D01*
X046040Y010757D02*
X046720Y010757D01*
X046720Y010659D02*
X046023Y010659D01*
X045983Y010560D02*
X046720Y010560D01*
X046720Y010462D02*
X045907Y010462D01*
X045776Y010363D02*
X046720Y010363D01*
X048100Y010363D02*
X051420Y010363D01*
X051420Y010265D02*
X048100Y010265D01*
X048100Y010185D02*
X048100Y010911D01*
X048181Y010993D01*
X048188Y010986D01*
X048364Y010913D01*
X048555Y010913D01*
X048731Y010986D01*
X048866Y011121D01*
X048906Y011218D01*
X049242Y011553D01*
X050777Y011553D01*
X051420Y010911D01*
X051420Y010006D01*
X051450Y009933D01*
X048140Y009933D01*
X048140Y010089D01*
X048100Y010185D01*
X048107Y010166D02*
X051420Y010166D01*
X051420Y010068D02*
X048140Y010068D01*
X048140Y009969D02*
X051435Y009969D01*
X051420Y010462D02*
X048100Y010462D01*
X048100Y010560D02*
X051420Y010560D01*
X051420Y010659D02*
X048100Y010659D01*
X048100Y010757D02*
X051420Y010757D01*
X051420Y010856D02*
X048100Y010856D01*
X048143Y010954D02*
X048265Y010954D01*
X048654Y010954D02*
X051376Y010954D01*
X051278Y011053D02*
X048798Y011053D01*
X048879Y011151D02*
X051179Y011151D01*
X051081Y011250D02*
X048938Y011250D01*
X049037Y011348D02*
X050982Y011348D01*
X050884Y011447D02*
X049135Y011447D01*
X049234Y011545D02*
X050785Y011545D01*
X052030Y011545D02*
X069407Y011545D01*
X069314Y011447D02*
X052128Y011447D01*
X052227Y011348D02*
X069221Y011348D01*
X069128Y011250D02*
X052271Y011250D01*
X052300Y011151D02*
X069035Y011151D01*
X068942Y011053D02*
X052300Y011053D01*
X052300Y010954D02*
X068849Y010954D01*
X068757Y010856D02*
X052300Y010856D01*
X052300Y010757D02*
X068664Y010757D01*
X068571Y010659D02*
X052300Y010659D01*
X052300Y010560D02*
X068478Y010560D01*
X068385Y010462D02*
X052300Y010462D01*
X052300Y010363D02*
X068292Y010363D01*
X068199Y010265D02*
X052310Y010265D01*
X052038Y011644D02*
X069500Y011644D01*
X069592Y011742D02*
X052162Y011742D01*
X052261Y011841D02*
X069685Y011841D01*
X069778Y011939D02*
X052319Y011939D01*
X052360Y012038D02*
X069871Y012038D01*
X069964Y012136D02*
X052401Y012136D01*
X052405Y012235D02*
X070057Y012235D01*
X070150Y012333D02*
X052405Y012333D01*
X052405Y012432D02*
X070243Y012432D01*
X070335Y012530D02*
X052368Y012530D01*
X052327Y012629D02*
X070428Y012629D01*
X070521Y012727D02*
X052279Y012727D01*
X052181Y012826D02*
X070614Y012826D01*
X070707Y012924D02*
X052082Y012924D01*
X051220Y013476D02*
X050677Y012933D01*
X048972Y012933D01*
X048810Y012866D01*
X048686Y012743D01*
X048686Y012743D01*
X047600Y011656D01*
X047600Y012013D01*
X047655Y012013D01*
X047831Y012086D01*
X047966Y012221D01*
X048040Y012398D01*
X048040Y012589D01*
X048000Y012685D01*
X048000Y014811D01*
X048042Y014853D01*
X051250Y014853D01*
X051220Y014781D01*
X051220Y013476D01*
X051220Y013515D02*
X048000Y013515D01*
X048000Y013417D02*
X051161Y013417D01*
X051062Y013318D02*
X048000Y013318D01*
X048000Y013220D02*
X050964Y013220D01*
X050865Y013121D02*
X048000Y013121D01*
X048000Y013023D02*
X050767Y013023D01*
X048950Y012924D02*
X048000Y012924D01*
X048000Y012826D02*
X048770Y012826D01*
X048671Y012727D02*
X048000Y012727D01*
X048023Y012629D02*
X048573Y012629D01*
X048474Y012530D02*
X048040Y012530D01*
X048040Y012432D02*
X048376Y012432D01*
X048277Y012333D02*
X048013Y012333D01*
X047972Y012235D02*
X048179Y012235D01*
X048080Y012136D02*
X047881Y012136D01*
X047982Y012038D02*
X047714Y012038D01*
X047600Y011939D02*
X047883Y011939D01*
X047785Y011841D02*
X047600Y011841D01*
X047600Y011742D02*
X047686Y011742D01*
X046720Y011742D02*
X042040Y011742D01*
X042040Y011644D02*
X046720Y011644D01*
X046720Y011545D02*
X042018Y011545D01*
X041977Y011447D02*
X046720Y011447D01*
X046720Y011841D02*
X044721Y011841D01*
X044884Y011939D02*
X046720Y011939D01*
X046720Y012038D02*
X044973Y012038D01*
X045014Y012136D02*
X046720Y012136D01*
X046720Y012235D02*
X045040Y012235D01*
X045040Y012333D02*
X046720Y012333D01*
X046720Y012432D02*
X045022Y012432D01*
X044981Y012530D02*
X046720Y012530D01*
X046720Y012629D02*
X044903Y012629D01*
X044766Y012727D02*
X046720Y012727D01*
X044398Y011841D02*
X042018Y011841D01*
X041977Y011939D02*
X044235Y011939D01*
X044146Y012038D02*
X041894Y012038D01*
X041744Y012136D02*
X044105Y012136D01*
X048000Y013614D02*
X051220Y013614D01*
X051220Y013712D02*
X048000Y013712D01*
X048000Y013811D02*
X051220Y013811D01*
X051220Y013909D02*
X048000Y013909D01*
X048000Y014008D02*
X051220Y014008D01*
X051220Y014106D02*
X048000Y014106D01*
X048000Y014205D02*
X051220Y014205D01*
X051220Y014303D02*
X048000Y014303D01*
X048000Y014402D02*
X051220Y014402D01*
X051220Y014500D02*
X048000Y014500D01*
X048000Y014599D02*
X051220Y014599D01*
X051220Y014697D02*
X048000Y014697D01*
X048000Y014796D02*
X051226Y014796D01*
X047070Y015682D02*
X043000Y015682D01*
X043000Y015584D02*
X047019Y015584D01*
X046929Y015485D02*
X043000Y015485D01*
X043000Y015387D02*
X046831Y015387D01*
X046910Y015466D02*
X046910Y015466D01*
X046764Y015288D02*
X043000Y015288D01*
X043000Y015190D02*
X046723Y015190D01*
X047168Y015781D02*
X043000Y015781D01*
X043000Y015879D02*
X056760Y015879D01*
X056760Y015781D02*
X047751Y015781D01*
X052015Y017160D02*
X043000Y017160D01*
X043000Y017258D02*
X052015Y017258D01*
X052015Y017357D02*
X043000Y017357D01*
X043000Y017455D02*
X052020Y017455D01*
X052061Y017554D02*
X043000Y017554D01*
X043000Y017652D02*
X052102Y017652D01*
X052163Y017751D02*
X043000Y017751D01*
X043000Y017849D02*
X052262Y017849D01*
X052049Y017061D02*
X043000Y017061D01*
X043000Y016963D02*
X052090Y016963D01*
X052135Y016864D02*
X043000Y016864D01*
X043000Y016766D02*
X052233Y016766D01*
X052332Y016667D02*
X043000Y016667D01*
X043000Y016569D02*
X052562Y016569D01*
X056760Y015978D02*
X043000Y015978D01*
X043000Y016076D02*
X056778Y016076D01*
X056818Y016175D02*
X043000Y016175D01*
X043000Y016273D02*
X056859Y016273D01*
X056948Y016372D02*
X043000Y016372D01*
X043000Y016470D02*
X057047Y016470D01*
X071902Y013712D02*
X072969Y013712D01*
X073067Y013614D02*
X072018Y013614D01*
X072087Y013515D02*
X073209Y013515D01*
X073356Y013417D02*
X072128Y013417D01*
X072140Y013318D02*
X073503Y013318D01*
X073705Y013220D02*
X072140Y013220D01*
X072108Y013121D02*
X073943Y013121D01*
X074269Y013023D02*
X072067Y013023D01*
X077246Y014008D02*
X087320Y014008D01*
X087121Y014106D02*
X077313Y014106D01*
X077379Y014205D02*
X087023Y014205D01*
X086966Y014303D02*
X077445Y014303D01*
X077511Y014402D02*
X086925Y014402D01*
X087350Y015091D02*
X087569Y015091D01*
X046774Y009674D02*
X041301Y009674D01*
X031923Y011151D02*
X029614Y011151D01*
X029573Y011250D02*
X031841Y011250D01*
X031782Y011348D02*
X029483Y011348D01*
D21*
X016460Y024043D02*
X018310Y025893D01*
X018410Y025893D01*
X020260Y025893D02*
X018410Y027743D01*
X020260Y025893D02*
X024960Y025893D01*
X073960Y024043D02*
X074060Y024043D01*
X075910Y025893D01*
X080610Y024043D02*
X082460Y025893D01*
X080610Y024043D02*
X075910Y024043D01*
D22*
X083160Y020993D03*
X083860Y020593D03*
X083160Y020193D03*
X083860Y019793D03*
X083160Y019493D03*
X085360Y019493D03*
X083860Y018793D03*
X083860Y017893D03*
X085460Y017893D03*
X085360Y020993D03*
X087460Y014543D03*
X055360Y022593D03*
X051960Y022593D03*
X050310Y022443D03*
X051710Y023793D03*
X048760Y025743D03*
X033210Y021243D03*
X035460Y017543D03*
X088063Y028990D03*
X088710Y029493D03*
X091960Y028593D03*
X092460Y028093D03*
X091260Y027593D03*
X090260Y027693D03*
X088960Y027943D03*
X094060Y030593D03*
X094760Y030593D03*
D23*
X092660Y028593D02*
X093160Y028093D01*
X103560Y028093D01*
X105510Y026143D01*
X105510Y016843D01*
X112960Y009393D01*
X111960Y009393D02*
X104960Y016393D01*
X104960Y026093D01*
X103360Y027693D01*
X092860Y027693D01*
X092460Y028093D01*
X091260Y027593D02*
X092860Y025993D01*
X095960Y025993D01*
X097960Y023993D01*
X101160Y023993D01*
X102260Y022893D01*
X102560Y022593D01*
X104460Y020693D01*
X104460Y015893D01*
X110960Y009393D01*
X109960Y009393D02*
X103860Y015493D01*
X103860Y017093D01*
X095560Y025393D01*
X092560Y025393D01*
X090260Y027693D01*
X088960Y027943D02*
X092110Y024793D01*
X095360Y024793D01*
X103360Y016793D01*
X103360Y014993D01*
X108960Y009393D01*
X112460Y014593D02*
X115060Y011993D01*
X117360Y011993D01*
X119960Y009393D01*
X120160Y009393D01*
X120660Y009893D01*
X121360Y009893D01*
X122060Y010593D01*
X122060Y012293D01*
X122260Y012493D01*
X124060Y012493D01*
X124160Y012593D01*
X124160Y013493D01*
X123660Y013993D01*
X123660Y014993D02*
X122660Y014993D01*
X121660Y015993D01*
X120560Y015993D01*
X119960Y015393D01*
X120960Y015393D02*
X123360Y012993D01*
X123660Y012993D01*
X123660Y011993D02*
X122760Y011993D01*
X122560Y011793D01*
X122560Y010393D01*
X121560Y009393D01*
X120960Y009393D01*
X119460Y008893D02*
X122560Y008893D01*
X123660Y009993D01*
X123660Y010993D01*
X123560Y010993D01*
X119460Y008893D02*
X118960Y009393D01*
X119860Y014293D02*
X114060Y014293D01*
X113460Y014893D01*
X113460Y016093D01*
X113960Y016593D01*
X114710Y016593D01*
X116060Y017943D01*
X116560Y017393D02*
X115360Y016193D01*
X114260Y016193D01*
X113960Y015893D01*
X113960Y015393D01*
X114960Y015393D02*
X115160Y015393D01*
X117060Y017293D01*
X117060Y017943D01*
X116560Y018493D02*
X116560Y017393D01*
X117760Y017193D02*
X117760Y018243D01*
X117060Y018943D01*
X116560Y018493D02*
X116110Y018943D01*
X116060Y018943D01*
X119560Y017993D02*
X123660Y017993D01*
X123660Y016993D02*
X119560Y016993D01*
X117960Y015393D01*
X118960Y015393D02*
X120060Y016493D01*
X121760Y016493D01*
X122260Y015993D01*
X123660Y015993D01*
X120960Y015393D02*
X119860Y014293D01*
X116960Y015393D02*
X119560Y017993D01*
X117760Y017193D02*
X115960Y015393D01*
X112460Y014593D02*
X112460Y016593D01*
X113060Y017193D01*
X114310Y017193D01*
X115060Y017943D01*
X114060Y017943D02*
X114010Y017893D01*
X111760Y017893D01*
X109960Y016093D01*
X109960Y015393D01*
X092660Y028593D02*
X091960Y028593D01*
D24*
X075910Y027743D02*
X075810Y027743D01*
X074860Y026793D01*
X072560Y026793D01*
X070760Y024993D01*
X019360Y024993D01*
X018410Y024043D01*
X017360Y023093D02*
X067460Y023093D01*
X068660Y024293D01*
X071760Y024293D01*
X074960Y021093D01*
X075360Y021093D01*
X070960Y021593D02*
X068560Y021593D01*
X061960Y014993D01*
X051960Y014993D01*
X051660Y014693D01*
X051660Y013293D01*
X050860Y012493D01*
X049060Y012493D01*
X047660Y011093D01*
X047660Y009993D01*
X047160Y009893D02*
X047560Y009493D01*
X068760Y009493D01*
X071660Y012593D01*
X071660Y011893D02*
X069160Y009193D01*
X041160Y009193D01*
X040760Y009593D01*
X040760Y011293D01*
X041060Y011593D01*
X041460Y011593D01*
X041560Y011693D01*
X047560Y012493D02*
X047560Y014993D01*
X047860Y015293D01*
X061660Y015293D01*
X068660Y022293D01*
X070960Y022293D01*
X070960Y022993D02*
X068760Y022993D01*
X066460Y020693D01*
X043260Y020693D01*
X042560Y019993D01*
X042560Y014293D01*
X047160Y015093D02*
X047160Y009893D01*
X051860Y010093D02*
X052160Y009793D01*
X068360Y009793D01*
X071660Y013293D01*
X071660Y011193D02*
X069360Y008893D01*
X030960Y008893D01*
X029060Y010793D01*
X029060Y010893D01*
X029160Y010993D01*
X031960Y011793D02*
X032260Y011493D01*
X031960Y011793D02*
X031460Y011793D01*
X031260Y011993D01*
X031260Y012993D01*
X031060Y013193D01*
X028560Y013193D01*
X020460Y021293D01*
X017360Y021293D01*
X029860Y013993D02*
X032860Y016993D01*
X037460Y016993D01*
X041460Y020993D01*
X066160Y020993D01*
X068860Y023693D01*
X070960Y023693D01*
X047460Y015393D02*
X047160Y015093D01*
X049060Y011993D02*
X050960Y011993D01*
X051860Y011093D01*
X051860Y010093D01*
X049060Y011993D02*
X048460Y011393D01*
X029860Y013593D02*
X029860Y013993D01*
M02*
