G75*
%MOIN*%
%OFA0B0*%
%FSLAX24Y24*%
%IPPOS*%
%LPD*%
%AMOC8*
5,1,8,0,0,1.08239X$1,22.5*
%
%ADD10C,0.0000*%
%ADD11C,0.0180*%
%ADD12C,0.0020*%
%ADD13C,0.0040*%
%ADD14C,0.0060*%
%ADD15C,0.0030*%
%ADD16C,0.0080*%
%ADD17C,0.0050*%
%ADD18C,0.0020*%
%ADD19R,0.0660X0.0380*%
D10*
X007460Y008393D02*
X127460Y008393D01*
X127460Y020893D01*
X107460Y020893D01*
X107460Y033393D01*
X007460Y033393D01*
X007460Y008393D01*
X009380Y010893D02*
X009382Y010941D01*
X009388Y010988D01*
X009398Y011035D01*
X009411Y011081D01*
X009429Y011126D01*
X009450Y011169D01*
X009474Y011210D01*
X009502Y011249D01*
X009533Y011286D01*
X009567Y011320D01*
X009604Y011351D01*
X009643Y011379D01*
X009684Y011403D01*
X009727Y011424D01*
X009772Y011442D01*
X009818Y011455D01*
X009865Y011465D01*
X009912Y011471D01*
X009960Y011473D01*
X010008Y011471D01*
X010055Y011465D01*
X010102Y011455D01*
X010148Y011442D01*
X010193Y011424D01*
X010236Y011403D01*
X010277Y011379D01*
X010316Y011351D01*
X010353Y011320D01*
X010387Y011286D01*
X010418Y011249D01*
X010446Y011210D01*
X010470Y011169D01*
X010491Y011126D01*
X010509Y011081D01*
X010522Y011035D01*
X010532Y010988D01*
X010538Y010941D01*
X010540Y010893D01*
X010538Y010845D01*
X010532Y010798D01*
X010522Y010751D01*
X010509Y010705D01*
X010491Y010660D01*
X010470Y010617D01*
X010446Y010576D01*
X010418Y010537D01*
X010387Y010500D01*
X010353Y010466D01*
X010316Y010435D01*
X010277Y010407D01*
X010236Y010383D01*
X010193Y010362D01*
X010148Y010344D01*
X010102Y010331D01*
X010055Y010321D01*
X010008Y010315D01*
X009960Y010313D01*
X009912Y010315D01*
X009865Y010321D01*
X009818Y010331D01*
X009772Y010344D01*
X009727Y010362D01*
X009684Y010383D01*
X009643Y010407D01*
X009604Y010435D01*
X009567Y010466D01*
X009533Y010500D01*
X009502Y010537D01*
X009474Y010576D01*
X009450Y010617D01*
X009429Y010660D01*
X009411Y010705D01*
X009398Y010751D01*
X009388Y010798D01*
X009382Y010845D01*
X009380Y010893D01*
X072460Y015893D02*
X072462Y015992D01*
X072468Y016092D01*
X072478Y016191D01*
X072492Y016289D01*
X072509Y016387D01*
X072531Y016484D01*
X072556Y016580D01*
X072585Y016675D01*
X072618Y016769D01*
X072655Y016861D01*
X072695Y016952D01*
X072739Y017041D01*
X072787Y017129D01*
X072838Y017214D01*
X072892Y017297D01*
X072949Y017379D01*
X073010Y017457D01*
X073074Y017534D01*
X073140Y017607D01*
X073210Y017678D01*
X073282Y017746D01*
X073357Y017812D01*
X073435Y017874D01*
X073515Y017933D01*
X073597Y017989D01*
X073681Y018041D01*
X073768Y018090D01*
X073856Y018136D01*
X073946Y018178D01*
X074038Y018217D01*
X074131Y018252D01*
X074225Y018283D01*
X074321Y018310D01*
X074418Y018333D01*
X074515Y018353D01*
X074613Y018369D01*
X074712Y018381D01*
X074811Y018389D01*
X074910Y018393D01*
X075010Y018393D01*
X075109Y018389D01*
X075208Y018381D01*
X075307Y018369D01*
X075405Y018353D01*
X075502Y018333D01*
X075599Y018310D01*
X075695Y018283D01*
X075789Y018252D01*
X075882Y018217D01*
X075974Y018178D01*
X076064Y018136D01*
X076152Y018090D01*
X076239Y018041D01*
X076323Y017989D01*
X076405Y017933D01*
X076485Y017874D01*
X076563Y017812D01*
X076638Y017746D01*
X076710Y017678D01*
X076780Y017607D01*
X076846Y017534D01*
X076910Y017457D01*
X076971Y017379D01*
X077028Y017297D01*
X077082Y017214D01*
X077133Y017129D01*
X077181Y017041D01*
X077225Y016952D01*
X077265Y016861D01*
X077302Y016769D01*
X077335Y016675D01*
X077364Y016580D01*
X077389Y016484D01*
X077411Y016387D01*
X077428Y016289D01*
X077442Y016191D01*
X077452Y016092D01*
X077458Y015992D01*
X077460Y015893D01*
X077458Y015794D01*
X077452Y015694D01*
X077442Y015595D01*
X077428Y015497D01*
X077411Y015399D01*
X077389Y015302D01*
X077364Y015206D01*
X077335Y015111D01*
X077302Y015017D01*
X077265Y014925D01*
X077225Y014834D01*
X077181Y014745D01*
X077133Y014657D01*
X077082Y014572D01*
X077028Y014489D01*
X076971Y014407D01*
X076910Y014329D01*
X076846Y014252D01*
X076780Y014179D01*
X076710Y014108D01*
X076638Y014040D01*
X076563Y013974D01*
X076485Y013912D01*
X076405Y013853D01*
X076323Y013797D01*
X076239Y013745D01*
X076152Y013696D01*
X076064Y013650D01*
X075974Y013608D01*
X075882Y013569D01*
X075789Y013534D01*
X075695Y013503D01*
X075599Y013476D01*
X075502Y013453D01*
X075405Y013433D01*
X075307Y013417D01*
X075208Y013405D01*
X075109Y013397D01*
X075010Y013393D01*
X074910Y013393D01*
X074811Y013397D01*
X074712Y013405D01*
X074613Y013417D01*
X074515Y013433D01*
X074418Y013453D01*
X074321Y013476D01*
X074225Y013503D01*
X074131Y013534D01*
X074038Y013569D01*
X073946Y013608D01*
X073856Y013650D01*
X073768Y013696D01*
X073681Y013745D01*
X073597Y013797D01*
X073515Y013853D01*
X073435Y013912D01*
X073357Y013974D01*
X073282Y014040D01*
X073210Y014108D01*
X073140Y014179D01*
X073074Y014252D01*
X073010Y014329D01*
X072949Y014407D01*
X072892Y014489D01*
X072838Y014572D01*
X072787Y014657D01*
X072739Y014745D01*
X072695Y014834D01*
X072655Y014925D01*
X072618Y015017D01*
X072585Y015111D01*
X072556Y015206D01*
X072531Y015302D01*
X072509Y015399D01*
X072492Y015497D01*
X072478Y015595D01*
X072468Y015694D01*
X072462Y015794D01*
X072460Y015893D01*
X104380Y010893D02*
X104382Y010941D01*
X104388Y010988D01*
X104398Y011035D01*
X104411Y011081D01*
X104429Y011126D01*
X104450Y011169D01*
X104474Y011210D01*
X104502Y011249D01*
X104533Y011286D01*
X104567Y011320D01*
X104604Y011351D01*
X104643Y011379D01*
X104684Y011403D01*
X104727Y011424D01*
X104772Y011442D01*
X104818Y011455D01*
X104865Y011465D01*
X104912Y011471D01*
X104960Y011473D01*
X105008Y011471D01*
X105055Y011465D01*
X105102Y011455D01*
X105148Y011442D01*
X105193Y011424D01*
X105236Y011403D01*
X105277Y011379D01*
X105316Y011351D01*
X105353Y011320D01*
X105387Y011286D01*
X105418Y011249D01*
X105446Y011210D01*
X105470Y011169D01*
X105491Y011126D01*
X105509Y011081D01*
X105522Y011035D01*
X105532Y010988D01*
X105538Y010941D01*
X105540Y010893D01*
X105538Y010845D01*
X105532Y010798D01*
X105522Y010751D01*
X105509Y010705D01*
X105491Y010660D01*
X105470Y010617D01*
X105446Y010576D01*
X105418Y010537D01*
X105387Y010500D01*
X105353Y010466D01*
X105316Y010435D01*
X105277Y010407D01*
X105236Y010383D01*
X105193Y010362D01*
X105148Y010344D01*
X105102Y010331D01*
X105055Y010321D01*
X105008Y010315D01*
X104960Y010313D01*
X104912Y010315D01*
X104865Y010321D01*
X104818Y010331D01*
X104772Y010344D01*
X104727Y010362D01*
X104684Y010383D01*
X104643Y010407D01*
X104604Y010435D01*
X104567Y010466D01*
X104533Y010500D01*
X104502Y010537D01*
X104474Y010576D01*
X104450Y010617D01*
X104429Y010660D01*
X104411Y010705D01*
X104398Y010751D01*
X104388Y010798D01*
X104382Y010845D01*
X104380Y010893D01*
X101712Y026051D02*
X101714Y026098D01*
X101720Y026144D01*
X101730Y026190D01*
X101743Y026235D01*
X101761Y026278D01*
X101782Y026320D01*
X101806Y026360D01*
X101834Y026397D01*
X101865Y026432D01*
X101899Y026465D01*
X101935Y026494D01*
X101974Y026520D01*
X102015Y026543D01*
X102058Y026562D01*
X102102Y026578D01*
X102147Y026590D01*
X102193Y026598D01*
X102240Y026602D01*
X102286Y026602D01*
X102333Y026598D01*
X102379Y026590D01*
X102424Y026578D01*
X102468Y026562D01*
X102511Y026543D01*
X102552Y026520D01*
X102591Y026494D01*
X102627Y026465D01*
X102661Y026432D01*
X102692Y026397D01*
X102720Y026360D01*
X102744Y026320D01*
X102765Y026278D01*
X102783Y026235D01*
X102796Y026190D01*
X102806Y026144D01*
X102812Y026098D01*
X102814Y026051D01*
X102812Y026004D01*
X102806Y025958D01*
X102796Y025912D01*
X102783Y025867D01*
X102765Y025824D01*
X102744Y025782D01*
X102720Y025742D01*
X102692Y025705D01*
X102661Y025670D01*
X102627Y025637D01*
X102591Y025608D01*
X102552Y025582D01*
X102511Y025559D01*
X102468Y025540D01*
X102424Y025524D01*
X102379Y025512D01*
X102333Y025504D01*
X102286Y025500D01*
X102240Y025500D01*
X102193Y025504D01*
X102147Y025512D01*
X102102Y025524D01*
X102058Y025540D01*
X102015Y025559D01*
X101974Y025582D01*
X101935Y025608D01*
X101899Y025637D01*
X101865Y025670D01*
X101834Y025705D01*
X101806Y025742D01*
X101782Y025782D01*
X101761Y025824D01*
X101743Y025867D01*
X101730Y025912D01*
X101720Y025958D01*
X101714Y026004D01*
X101712Y026051D01*
X097184Y026051D02*
X097186Y026098D01*
X097192Y026144D01*
X097202Y026190D01*
X097215Y026235D01*
X097233Y026278D01*
X097254Y026320D01*
X097278Y026360D01*
X097306Y026397D01*
X097337Y026432D01*
X097371Y026465D01*
X097407Y026494D01*
X097446Y026520D01*
X097487Y026543D01*
X097530Y026562D01*
X097574Y026578D01*
X097619Y026590D01*
X097665Y026598D01*
X097712Y026602D01*
X097758Y026602D01*
X097805Y026598D01*
X097851Y026590D01*
X097896Y026578D01*
X097940Y026562D01*
X097983Y026543D01*
X098024Y026520D01*
X098063Y026494D01*
X098099Y026465D01*
X098133Y026432D01*
X098164Y026397D01*
X098192Y026360D01*
X098216Y026320D01*
X098237Y026278D01*
X098255Y026235D01*
X098268Y026190D01*
X098278Y026144D01*
X098284Y026098D01*
X098286Y026051D01*
X098284Y026004D01*
X098278Y025958D01*
X098268Y025912D01*
X098255Y025867D01*
X098237Y025824D01*
X098216Y025782D01*
X098192Y025742D01*
X098164Y025705D01*
X098133Y025670D01*
X098099Y025637D01*
X098063Y025608D01*
X098024Y025582D01*
X097983Y025559D01*
X097940Y025540D01*
X097896Y025524D01*
X097851Y025512D01*
X097805Y025504D01*
X097758Y025500D01*
X097712Y025500D01*
X097665Y025504D01*
X097619Y025512D01*
X097574Y025524D01*
X097530Y025540D01*
X097487Y025559D01*
X097446Y025582D01*
X097407Y025608D01*
X097371Y025637D01*
X097337Y025670D01*
X097306Y025705D01*
X097278Y025742D01*
X097254Y025782D01*
X097233Y025824D01*
X097215Y025867D01*
X097202Y025912D01*
X097192Y025958D01*
X097186Y026004D01*
X097184Y026051D01*
X099380Y030893D02*
X099382Y030941D01*
X099388Y030988D01*
X099398Y031035D01*
X099411Y031081D01*
X099429Y031126D01*
X099450Y031169D01*
X099474Y031210D01*
X099502Y031249D01*
X099533Y031286D01*
X099567Y031320D01*
X099604Y031351D01*
X099643Y031379D01*
X099684Y031403D01*
X099727Y031424D01*
X099772Y031442D01*
X099818Y031455D01*
X099865Y031465D01*
X099912Y031471D01*
X099960Y031473D01*
X100008Y031471D01*
X100055Y031465D01*
X100102Y031455D01*
X100148Y031442D01*
X100193Y031424D01*
X100236Y031403D01*
X100277Y031379D01*
X100316Y031351D01*
X100353Y031320D01*
X100387Y031286D01*
X100418Y031249D01*
X100446Y031210D01*
X100470Y031169D01*
X100491Y031126D01*
X100509Y031081D01*
X100522Y031035D01*
X100532Y030988D01*
X100538Y030941D01*
X100540Y030893D01*
X100538Y030845D01*
X100532Y030798D01*
X100522Y030751D01*
X100509Y030705D01*
X100491Y030660D01*
X100470Y030617D01*
X100446Y030576D01*
X100418Y030537D01*
X100387Y030500D01*
X100353Y030466D01*
X100316Y030435D01*
X100277Y030407D01*
X100236Y030383D01*
X100193Y030362D01*
X100148Y030344D01*
X100102Y030331D01*
X100055Y030321D01*
X100008Y030315D01*
X099960Y030313D01*
X099912Y030315D01*
X099865Y030321D01*
X099818Y030331D01*
X099772Y030344D01*
X099727Y030362D01*
X099684Y030383D01*
X099643Y030407D01*
X099604Y030435D01*
X099567Y030466D01*
X099533Y030500D01*
X099502Y030537D01*
X099474Y030576D01*
X099450Y030617D01*
X099429Y030660D01*
X099411Y030705D01*
X099398Y030751D01*
X099388Y030798D01*
X099382Y030845D01*
X099380Y030893D01*
X009380Y030893D02*
X009382Y030941D01*
X009388Y030988D01*
X009398Y031035D01*
X009411Y031081D01*
X009429Y031126D01*
X009450Y031169D01*
X009474Y031210D01*
X009502Y031249D01*
X009533Y031286D01*
X009567Y031320D01*
X009604Y031351D01*
X009643Y031379D01*
X009684Y031403D01*
X009727Y031424D01*
X009772Y031442D01*
X009818Y031455D01*
X009865Y031465D01*
X009912Y031471D01*
X009960Y031473D01*
X010008Y031471D01*
X010055Y031465D01*
X010102Y031455D01*
X010148Y031442D01*
X010193Y031424D01*
X010236Y031403D01*
X010277Y031379D01*
X010316Y031351D01*
X010353Y031320D01*
X010387Y031286D01*
X010418Y031249D01*
X010446Y031210D01*
X010470Y031169D01*
X010491Y031126D01*
X010509Y031081D01*
X010522Y031035D01*
X010532Y030988D01*
X010538Y030941D01*
X010540Y030893D01*
X010538Y030845D01*
X010532Y030798D01*
X010522Y030751D01*
X010509Y030705D01*
X010491Y030660D01*
X010470Y030617D01*
X010446Y030576D01*
X010418Y030537D01*
X010387Y030500D01*
X010353Y030466D01*
X010316Y030435D01*
X010277Y030407D01*
X010236Y030383D01*
X010193Y030362D01*
X010148Y030344D01*
X010102Y030331D01*
X010055Y030321D01*
X010008Y030315D01*
X009960Y030313D01*
X009912Y030315D01*
X009865Y030321D01*
X009818Y030331D01*
X009772Y030344D01*
X009727Y030362D01*
X009684Y030383D01*
X009643Y030407D01*
X009604Y030435D01*
X009567Y030466D01*
X009533Y030500D01*
X009502Y030537D01*
X009474Y030576D01*
X009450Y030617D01*
X009429Y030660D01*
X009411Y030705D01*
X009398Y030751D01*
X009388Y030798D01*
X009382Y030845D01*
X009380Y030893D01*
D11*
X044610Y022143D02*
X044910Y022443D01*
X044960Y022443D02*
X046360Y022443D01*
X046110Y022693D01*
X046110Y022193D01*
X046360Y022443D01*
D12*
X049054Y022581D02*
X049054Y022721D01*
X049101Y022768D01*
X049194Y022768D01*
X049241Y022721D01*
X049241Y022581D01*
X049241Y022674D02*
X049335Y022768D01*
X049288Y022857D02*
X049335Y022904D01*
X049335Y022997D01*
X049288Y023044D01*
X049101Y023044D01*
X049054Y022997D01*
X049054Y022904D01*
X049101Y022857D01*
X049148Y022857D01*
X049194Y022904D01*
X049194Y023044D01*
X049335Y022581D02*
X049054Y022581D01*
X051308Y022965D02*
X051354Y022918D01*
X051448Y022918D01*
X051495Y022965D01*
X051584Y022965D02*
X051631Y022918D01*
X051724Y022918D01*
X051771Y022965D01*
X051771Y023012D01*
X051724Y023058D01*
X051677Y023058D01*
X051724Y023058D02*
X051771Y023105D01*
X051771Y023152D01*
X051724Y023199D01*
X051631Y023199D01*
X051584Y023152D01*
X051495Y023152D02*
X051448Y023199D01*
X051354Y023199D01*
X051308Y023152D01*
X051308Y022965D01*
X051463Y022297D02*
X051603Y022157D01*
X051603Y022344D01*
X051743Y022297D02*
X051463Y022297D01*
X051510Y022068D02*
X051463Y022021D01*
X051463Y021927D01*
X051510Y021881D01*
X051510Y021791D02*
X051463Y021745D01*
X051463Y021651D01*
X051510Y021605D01*
X051697Y021605D01*
X051743Y021651D01*
X051743Y021745D01*
X051697Y021791D01*
X051743Y021881D02*
X051556Y022068D01*
X051510Y022068D01*
X051743Y022068D02*
X051743Y021881D01*
X053397Y021868D02*
X053397Y022149D01*
X053673Y022102D02*
X053720Y022149D01*
X053813Y022149D01*
X053860Y022102D01*
X053860Y022055D01*
X053813Y022008D01*
X053860Y021962D01*
X053860Y021915D01*
X053813Y021868D01*
X053720Y021868D01*
X053673Y021915D01*
X053584Y021868D02*
X053397Y021868D01*
X053767Y022008D02*
X053813Y022008D01*
X055163Y022004D02*
X055210Y021957D01*
X055163Y022004D02*
X055163Y022097D01*
X055210Y022144D01*
X055256Y022144D01*
X055303Y022097D01*
X055350Y022144D01*
X055397Y022144D01*
X055443Y022097D01*
X055443Y022004D01*
X055397Y021957D01*
X055443Y021868D02*
X055443Y021681D01*
X055256Y021868D01*
X055210Y021868D01*
X055163Y021821D01*
X055163Y021727D01*
X055210Y021681D01*
X055210Y021591D02*
X055163Y021545D01*
X055163Y021451D01*
X055210Y021405D01*
X055397Y021405D01*
X055443Y021451D01*
X055443Y021545D01*
X055397Y021591D01*
X055369Y020934D02*
X055322Y020887D01*
X055322Y020700D01*
X055369Y020653D01*
X055462Y020653D01*
X055509Y020700D01*
X055509Y020887D01*
X055462Y020934D01*
X055369Y020934D01*
X055233Y020887D02*
X055186Y020934D01*
X055092Y020934D01*
X055046Y020887D01*
X055046Y020700D01*
X055092Y020653D01*
X055186Y020653D01*
X055233Y020700D01*
X054956Y020747D02*
X054956Y020934D01*
X054770Y020934D02*
X054770Y020747D01*
X054863Y020653D01*
X054956Y020747D01*
X055303Y022050D02*
X055303Y022097D01*
X048785Y023731D02*
X048504Y023731D01*
X048504Y023871D01*
X048551Y023918D01*
X048644Y023918D01*
X048691Y023871D01*
X048691Y023731D01*
X048691Y023824D02*
X048785Y023918D01*
X048785Y024007D02*
X048598Y024194D01*
X048551Y024194D01*
X048504Y024147D01*
X048504Y024054D01*
X048551Y024007D01*
X048785Y024007D02*
X048785Y024194D01*
X047985Y024094D02*
X047985Y023907D01*
X047985Y023818D02*
X047891Y023724D01*
X047891Y023771D02*
X047891Y023631D01*
X047985Y023631D02*
X047704Y023631D01*
X047704Y023771D01*
X047751Y023818D01*
X047844Y023818D01*
X047891Y023771D01*
X047798Y023907D02*
X047704Y024001D01*
X047985Y024001D01*
X051319Y024817D02*
X051319Y024910D01*
X051319Y024863D02*
X051600Y024863D01*
X051600Y024817D02*
X051600Y024910D01*
X051553Y025001D02*
X051600Y025048D01*
X051600Y025141D01*
X051553Y025188D01*
X051600Y025277D02*
X051600Y025464D01*
X051600Y025370D02*
X051319Y025370D01*
X051413Y025277D01*
X051366Y025188D02*
X051319Y025141D01*
X051319Y025048D01*
X051366Y025001D01*
X051553Y025001D01*
X051876Y024914D02*
X051922Y024960D01*
X051876Y024914D02*
X051876Y024820D01*
X051922Y024773D01*
X052109Y024773D01*
X052156Y024820D01*
X052156Y024914D01*
X052109Y024960D01*
X052156Y025050D02*
X051969Y025236D01*
X051922Y025236D01*
X051876Y025190D01*
X051876Y025096D01*
X051922Y025050D01*
X052156Y025050D02*
X052156Y025236D01*
X052156Y025326D02*
X051969Y025513D01*
X051922Y025513D01*
X051876Y025466D01*
X051876Y025373D01*
X051922Y025326D01*
X052156Y025326D02*
X052156Y025513D01*
X053876Y025469D02*
X054156Y025469D01*
X054156Y025376D02*
X054156Y025563D01*
X053969Y025376D02*
X053876Y025469D01*
X053922Y025286D02*
X053876Y025240D01*
X053876Y025146D01*
X053922Y025100D01*
X053922Y025010D02*
X053876Y024964D01*
X053876Y024870D01*
X053922Y024823D01*
X054109Y024823D01*
X054156Y024870D01*
X054156Y024964D01*
X054109Y025010D01*
X054156Y025100D02*
X053969Y025286D01*
X053922Y025286D01*
X054156Y025286D02*
X054156Y025100D01*
X053613Y024399D02*
X053520Y024399D01*
X053473Y024352D01*
X053613Y024399D02*
X053660Y024352D01*
X053660Y024305D01*
X053473Y024118D01*
X053660Y024118D01*
X053384Y024118D02*
X053197Y024118D01*
X053197Y024399D01*
X048371Y026765D02*
X048324Y026718D01*
X048231Y026718D01*
X048184Y026765D01*
X048095Y026765D02*
X048048Y026718D01*
X047954Y026718D01*
X047908Y026765D01*
X047908Y026952D01*
X047954Y026999D01*
X048048Y026999D01*
X048095Y026952D01*
X048184Y026999D02*
X048184Y026858D01*
X048277Y026905D01*
X048324Y026905D01*
X048371Y026858D01*
X048371Y026765D01*
X048371Y026999D02*
X048184Y026999D01*
X048947Y026962D02*
X049087Y026962D01*
X049134Y027008D01*
X049134Y027102D01*
X049087Y027149D01*
X048947Y027149D01*
X048947Y026868D01*
X049040Y026962D02*
X049134Y026868D01*
X049223Y026915D02*
X049270Y026868D01*
X049363Y026868D01*
X049410Y026915D01*
X049410Y026962D01*
X049363Y027008D01*
X049317Y027008D01*
X049363Y027008D02*
X049410Y027055D01*
X049410Y027102D01*
X049363Y027149D01*
X049270Y027149D01*
X049223Y027102D01*
X049134Y027518D02*
X049040Y027612D01*
X049087Y027612D02*
X048947Y027612D01*
X048947Y027518D02*
X048947Y027799D01*
X049087Y027799D01*
X049134Y027752D01*
X049134Y027658D01*
X049087Y027612D01*
X049223Y027658D02*
X049410Y027658D01*
X049363Y027518D02*
X049363Y027799D01*
X049223Y027658D01*
X034410Y022402D02*
X034410Y022355D01*
X034363Y022308D01*
X034270Y022308D01*
X034223Y022355D01*
X034223Y022402D01*
X034270Y022449D01*
X034363Y022449D01*
X034410Y022402D01*
X034363Y022308D02*
X034410Y022262D01*
X034410Y022215D01*
X034363Y022168D01*
X034270Y022168D01*
X034223Y022215D01*
X034223Y022262D01*
X034270Y022308D01*
X034134Y022308D02*
X034134Y022402D01*
X034087Y022449D01*
X033947Y022449D01*
X033947Y022168D01*
X033947Y022262D02*
X034087Y022262D01*
X034134Y022308D01*
X034040Y022262D02*
X034134Y022168D01*
X035889Y021919D02*
X036030Y021919D01*
X036076Y021872D01*
X036076Y021778D01*
X036030Y021732D01*
X035889Y021732D01*
X035889Y021638D02*
X035889Y021919D01*
X035983Y021732D02*
X036076Y021638D01*
X036166Y021685D02*
X036212Y021638D01*
X036306Y021638D01*
X036353Y021685D01*
X036353Y021778D01*
X036306Y021825D01*
X036259Y021825D01*
X036166Y021778D01*
X036166Y021919D01*
X036353Y021919D01*
X032871Y021199D02*
X032777Y021152D01*
X032684Y021058D01*
X032824Y021058D01*
X032871Y021012D01*
X032871Y020965D01*
X032824Y020918D01*
X032731Y020918D01*
X032684Y020965D01*
X032684Y021058D01*
X032595Y020965D02*
X032548Y020918D01*
X032454Y020918D01*
X032408Y020965D01*
X032408Y021152D01*
X032454Y021199D01*
X032548Y021199D01*
X032595Y021152D01*
X031910Y019699D02*
X031910Y019652D01*
X031723Y019465D01*
X031723Y019418D01*
X031634Y019418D02*
X031540Y019512D01*
X031587Y019512D02*
X031447Y019512D01*
X031447Y019418D02*
X031447Y019699D01*
X031587Y019699D01*
X031634Y019652D01*
X031634Y019558D01*
X031587Y019512D01*
X031723Y019699D02*
X031910Y019699D01*
X034170Y019484D02*
X034263Y019484D01*
X034216Y019484D02*
X034216Y019203D01*
X034170Y019203D02*
X034263Y019203D01*
X034354Y019250D02*
X034400Y019203D01*
X034494Y019203D01*
X034540Y019250D01*
X034630Y019203D02*
X034817Y019390D01*
X034817Y019437D01*
X034770Y019484D01*
X034677Y019484D01*
X034630Y019437D01*
X034540Y019437D02*
X034494Y019484D01*
X034400Y019484D01*
X034354Y019437D01*
X034354Y019250D01*
X034630Y019203D02*
X034817Y019203D01*
X036154Y019221D02*
X036201Y019268D01*
X036294Y019268D01*
X036341Y019221D01*
X036341Y019081D01*
X036341Y019174D02*
X036435Y019268D01*
X036388Y019357D02*
X036435Y019404D01*
X036435Y019497D01*
X036388Y019544D01*
X036341Y019544D01*
X036294Y019497D01*
X036294Y019357D01*
X036388Y019357D01*
X036294Y019357D02*
X036201Y019451D01*
X036154Y019544D01*
X036154Y019221D02*
X036154Y019081D01*
X036435Y019081D01*
X031592Y018972D02*
X031545Y019019D01*
X031452Y019019D01*
X031405Y018972D01*
X031592Y018972D02*
X031592Y018925D01*
X031405Y018738D01*
X031592Y018738D01*
X031316Y018738D02*
X031129Y018738D01*
X031222Y018738D02*
X031222Y019019D01*
X031129Y018925D01*
X031039Y018972D02*
X030993Y019019D01*
X030899Y019019D01*
X030853Y018972D01*
X030853Y018785D01*
X030899Y018738D01*
X030993Y018738D01*
X031039Y018785D01*
X033454Y017623D02*
X033501Y017670D01*
X033688Y017483D01*
X033735Y017530D01*
X033735Y017623D01*
X033688Y017670D01*
X033501Y017670D01*
X033454Y017623D02*
X033454Y017530D01*
X033501Y017483D01*
X033688Y017483D01*
X033735Y017394D02*
X033735Y017207D01*
X033735Y017118D02*
X033641Y017024D01*
X033641Y017071D02*
X033641Y016931D01*
X033735Y016931D02*
X033454Y016931D01*
X033454Y017071D01*
X033501Y017118D01*
X033594Y017118D01*
X033641Y017071D01*
X033548Y017207D02*
X033454Y017301D01*
X033735Y017301D01*
X035284Y017029D02*
X035424Y016889D01*
X035424Y017076D01*
X035564Y017029D02*
X035284Y017029D01*
X035331Y016799D02*
X035284Y016753D01*
X035284Y016659D01*
X035331Y016613D01*
X035518Y016613D01*
X035564Y016659D01*
X035564Y016753D01*
X035518Y016799D01*
X035552Y016169D02*
X035505Y016122D01*
X035552Y016169D02*
X035645Y016169D01*
X035692Y016122D01*
X035692Y016075D01*
X035505Y015888D01*
X035692Y015888D01*
X035416Y016028D02*
X035229Y016028D01*
X035369Y016169D01*
X035369Y015888D01*
X035139Y015935D02*
X035093Y015888D01*
X034999Y015888D01*
X034953Y015935D01*
X034953Y016122D01*
X034999Y016169D01*
X035093Y016169D01*
X035139Y016122D01*
X036697Y015999D02*
X036697Y015718D01*
X036697Y015812D02*
X036837Y015812D01*
X036884Y015858D01*
X036884Y015952D01*
X036837Y015999D01*
X036697Y015999D01*
X036790Y015812D02*
X036884Y015718D01*
X036973Y015765D02*
X037020Y015718D01*
X037113Y015718D01*
X037160Y015765D01*
X037160Y015812D01*
X037113Y015858D01*
X037067Y015858D01*
X037113Y015858D02*
X037160Y015905D01*
X037160Y015952D01*
X037113Y015999D01*
X037020Y015999D01*
X036973Y015952D01*
X037250Y015952D02*
X037296Y015999D01*
X037390Y015999D01*
X037436Y015952D01*
X037436Y015905D01*
X037390Y015858D01*
X037436Y015812D01*
X037436Y015765D01*
X037390Y015718D01*
X037296Y015718D01*
X037250Y015765D01*
X037343Y015858D02*
X037390Y015858D01*
X032133Y016003D02*
X031946Y016003D01*
X031856Y016003D02*
X031670Y016284D01*
X031856Y016284D02*
X031670Y016003D01*
X031946Y016190D02*
X032039Y016284D01*
X032039Y016003D01*
X031387Y013334D02*
X031247Y013193D01*
X031434Y013193D01*
X031387Y013053D02*
X031387Y013334D01*
X031158Y013334D02*
X031158Y013053D01*
X031064Y013147D01*
X030971Y013053D01*
X030971Y013334D01*
X030881Y013287D02*
X030835Y013334D01*
X030741Y013334D01*
X030695Y013287D01*
X030695Y013240D01*
X030741Y013193D01*
X030835Y013193D01*
X030881Y013147D01*
X030881Y013100D01*
X030835Y013053D01*
X030741Y013053D01*
X030695Y013100D01*
X028897Y013012D02*
X028850Y013058D01*
X028710Y013058D01*
X028710Y012965D01*
X028757Y012918D01*
X028850Y012918D01*
X028897Y012965D01*
X028897Y013012D01*
X028804Y013152D02*
X028710Y013058D01*
X028621Y013012D02*
X028621Y012965D01*
X028574Y012918D01*
X028481Y012918D01*
X028434Y012965D01*
X028345Y012965D02*
X028298Y012918D01*
X028204Y012918D01*
X028158Y012965D01*
X028158Y013152D01*
X028204Y013199D01*
X028298Y013199D01*
X028345Y013152D01*
X028434Y013152D02*
X028481Y013199D01*
X028574Y013199D01*
X028621Y013152D01*
X028621Y013105D01*
X028574Y013058D01*
X028621Y013012D01*
X028574Y013058D02*
X028527Y013058D01*
X028804Y013152D02*
X028897Y013199D01*
X033120Y013284D02*
X033120Y013003D01*
X033120Y013097D02*
X033260Y013097D01*
X033306Y013143D01*
X033306Y013237D01*
X033260Y013284D01*
X033120Y013284D01*
X033213Y013097D02*
X033306Y013003D01*
X033396Y013003D02*
X033396Y013284D01*
X033583Y013284D01*
X033672Y013190D02*
X033765Y013284D01*
X033765Y013003D01*
X033672Y013003D02*
X033859Y013003D01*
X033489Y013143D02*
X033396Y013143D01*
X035958Y011802D02*
X035958Y011615D01*
X036004Y011568D01*
X036098Y011568D01*
X036145Y011615D01*
X036234Y011568D02*
X036421Y011568D01*
X036327Y011568D02*
X036327Y011849D01*
X036234Y011755D01*
X036145Y011802D02*
X036098Y011849D01*
X036004Y011849D01*
X035958Y011802D01*
X036510Y011708D02*
X036604Y011802D01*
X036697Y011849D01*
X036650Y011708D02*
X036510Y011708D01*
X036510Y011615D01*
X036557Y011568D01*
X036650Y011568D01*
X036697Y011615D01*
X036697Y011662D01*
X036650Y011708D01*
X038741Y011534D02*
X038741Y011253D01*
X038741Y011347D02*
X038881Y011347D01*
X038928Y011393D01*
X038928Y011487D01*
X038881Y011534D01*
X038741Y011534D01*
X038834Y011347D02*
X038928Y011253D01*
X039017Y011253D02*
X039017Y011534D01*
X039204Y011534D01*
X039293Y011534D02*
X039293Y011393D01*
X039387Y011440D01*
X039433Y011440D01*
X039480Y011393D01*
X039480Y011300D01*
X039433Y011253D01*
X039340Y011253D01*
X039293Y011300D01*
X039110Y011393D02*
X039017Y011393D01*
X039293Y011534D02*
X039480Y011534D01*
X042454Y011384D02*
X042454Y011291D01*
X042501Y011244D01*
X042501Y011155D02*
X042548Y011155D01*
X042594Y011108D01*
X042641Y011155D01*
X042688Y011155D01*
X042735Y011108D01*
X042735Y011014D01*
X042688Y010968D01*
X042688Y010878D02*
X042735Y010832D01*
X042735Y010738D01*
X042688Y010691D01*
X042501Y010691D01*
X042454Y010738D01*
X042454Y010832D01*
X042501Y010878D01*
X042501Y010968D02*
X042454Y011014D01*
X042454Y011108D01*
X042501Y011155D01*
X042594Y011108D02*
X042594Y011061D01*
X042688Y011244D02*
X042735Y011291D01*
X042735Y011384D01*
X042688Y011431D01*
X042641Y011431D01*
X042594Y011384D01*
X042594Y011337D01*
X042594Y011384D02*
X042548Y011431D01*
X042501Y011431D01*
X042454Y011384D01*
X045597Y012318D02*
X045597Y012599D01*
X045737Y012599D01*
X045784Y012552D01*
X045784Y012458D01*
X045737Y012412D01*
X045597Y012412D01*
X045690Y012412D02*
X045784Y012318D01*
X045873Y012318D02*
X046060Y012318D01*
X045967Y012318D02*
X045967Y012599D01*
X045873Y012505D01*
X046150Y012505D02*
X046150Y012552D01*
X046196Y012599D01*
X046290Y012599D01*
X046336Y012552D01*
X046336Y012505D01*
X046290Y012458D01*
X046196Y012458D01*
X046150Y012505D01*
X046196Y012458D02*
X046150Y012412D01*
X046150Y012365D01*
X046196Y012318D01*
X046290Y012318D01*
X046336Y012365D01*
X046336Y012412D01*
X046290Y012458D01*
X048384Y011926D02*
X048431Y011926D01*
X048618Y011739D01*
X048664Y011739D01*
X048618Y011649D02*
X048664Y011603D01*
X048664Y011509D01*
X048618Y011463D01*
X048618Y011373D02*
X048664Y011327D01*
X048664Y011233D01*
X048618Y011186D01*
X048431Y011186D01*
X048384Y011233D01*
X048384Y011327D01*
X048431Y011373D01*
X048431Y011463D02*
X048384Y011509D01*
X048384Y011603D01*
X048431Y011649D01*
X048478Y011649D01*
X048524Y011603D01*
X048571Y011649D01*
X048618Y011649D01*
X048524Y011603D02*
X048524Y011556D01*
X048384Y011739D02*
X048384Y011926D01*
X047430Y011637D02*
X047383Y011684D01*
X047290Y011684D01*
X047243Y011637D01*
X047154Y011684D02*
X047154Y011403D01*
X047060Y011497D01*
X046967Y011403D01*
X046967Y011684D01*
X046878Y011637D02*
X046831Y011684D01*
X046738Y011684D01*
X046691Y011637D01*
X046691Y011590D01*
X046738Y011543D01*
X046831Y011543D01*
X046878Y011497D01*
X046878Y011450D01*
X046831Y011403D01*
X046738Y011403D01*
X046691Y011450D01*
X047243Y011403D02*
X047430Y011590D01*
X047430Y011637D01*
X047430Y011403D02*
X047243Y011403D01*
X049669Y011597D02*
X049763Y011690D01*
X049950Y011690D01*
X049903Y011780D02*
X049950Y011826D01*
X049950Y011920D01*
X049903Y011966D01*
X049669Y011966D01*
X049669Y012056D02*
X049950Y012243D01*
X049996Y012332D02*
X049996Y012519D01*
X049950Y012608D02*
X049669Y012608D01*
X049669Y012748D01*
X049716Y012795D01*
X049809Y012795D01*
X049856Y012748D01*
X049856Y012608D01*
X049856Y012702D02*
X049950Y012795D01*
X049950Y012884D02*
X049669Y012884D01*
X049669Y013071D01*
X049809Y012978D02*
X049809Y012884D01*
X047497Y013465D02*
X047497Y013652D01*
X047450Y013699D01*
X047357Y013699D01*
X047310Y013652D01*
X047310Y013605D01*
X047357Y013558D01*
X047497Y013558D01*
X047497Y013465D02*
X047450Y013418D01*
X047357Y013418D01*
X047310Y013465D01*
X047221Y013465D02*
X047174Y013418D01*
X047081Y013418D01*
X047034Y013465D01*
X046945Y013465D02*
X046898Y013418D01*
X046804Y013418D01*
X046758Y013465D01*
X046758Y013652D01*
X046804Y013699D01*
X046898Y013699D01*
X046945Y013652D01*
X047034Y013652D02*
X047081Y013699D01*
X047174Y013699D01*
X047221Y013652D01*
X047221Y013605D01*
X047174Y013558D01*
X047221Y013512D01*
X047221Y013465D01*
X047174Y013558D02*
X047127Y013558D01*
X046130Y013597D02*
X046130Y013550D01*
X046083Y013503D01*
X045990Y013503D01*
X045943Y013550D01*
X045854Y013503D02*
X045854Y013784D01*
X045943Y013737D02*
X045990Y013784D01*
X046083Y013784D01*
X046130Y013737D01*
X046130Y013690D01*
X046083Y013643D01*
X046130Y013597D01*
X046083Y013643D02*
X046037Y013643D01*
X045854Y013503D02*
X045760Y013597D01*
X045667Y013503D01*
X045667Y013784D01*
X045578Y013737D02*
X045531Y013784D01*
X045438Y013784D01*
X045391Y013737D01*
X045391Y013690D01*
X045438Y013643D01*
X045531Y013643D01*
X045578Y013597D01*
X045578Y013550D01*
X045531Y013503D01*
X045438Y013503D01*
X045391Y013550D01*
X044465Y013384D02*
X044465Y013103D01*
X044372Y013103D02*
X044559Y013103D01*
X044372Y013290D02*
X044465Y013384D01*
X044283Y013384D02*
X044283Y013103D01*
X044189Y013197D01*
X044096Y013103D01*
X044096Y013384D01*
X044006Y013337D02*
X043960Y013384D01*
X043866Y013384D01*
X043820Y013337D01*
X043820Y013290D01*
X043866Y013243D01*
X043960Y013243D01*
X044006Y013197D01*
X044006Y013150D01*
X043960Y013103D01*
X043866Y013103D01*
X043820Y013150D01*
X043645Y014088D02*
X043645Y014369D01*
X043505Y014228D01*
X043692Y014228D01*
X043416Y014182D02*
X043416Y014135D01*
X043369Y014088D01*
X043276Y014088D01*
X043229Y014135D01*
X043139Y014135D02*
X043093Y014088D01*
X042999Y014088D01*
X042953Y014135D01*
X042953Y014322D01*
X042999Y014369D01*
X043093Y014369D01*
X043139Y014322D01*
X043229Y014322D02*
X043276Y014369D01*
X043369Y014369D01*
X043416Y014322D01*
X043416Y014275D01*
X043369Y014228D01*
X043416Y014182D01*
X043369Y014228D02*
X043322Y014228D01*
X048384Y015133D02*
X048431Y015086D01*
X048618Y015086D01*
X048664Y015133D01*
X048664Y015227D01*
X048618Y015273D01*
X048524Y015363D02*
X048524Y015549D01*
X048431Y015639D02*
X048618Y015639D01*
X048431Y015826D01*
X048618Y015826D01*
X048664Y015779D01*
X048664Y015686D01*
X048618Y015639D01*
X048664Y015503D02*
X048384Y015503D01*
X048524Y015363D01*
X048431Y015273D02*
X048384Y015227D01*
X048384Y015133D01*
X048497Y015099D02*
X048497Y014818D01*
X048497Y014912D02*
X048637Y014912D01*
X048684Y014958D01*
X048684Y015052D01*
X048637Y015099D01*
X048497Y015099D01*
X048590Y014912D02*
X048684Y014818D01*
X048773Y014865D02*
X048820Y014818D01*
X048913Y014818D01*
X048960Y014865D01*
X048960Y014912D01*
X048913Y014958D01*
X048867Y014958D01*
X048913Y014958D02*
X048960Y015005D01*
X048960Y015052D01*
X048913Y015099D01*
X048820Y015099D01*
X048773Y015052D01*
X049050Y014958D02*
X049190Y015099D01*
X049190Y014818D01*
X049236Y014958D02*
X049050Y014958D01*
X048718Y014586D02*
X048764Y014540D01*
X048764Y014446D01*
X048718Y014400D01*
X048718Y014310D02*
X048764Y014263D01*
X048764Y014170D01*
X048718Y014123D01*
X048764Y014034D02*
X048671Y013940D01*
X048671Y013987D02*
X048671Y013847D01*
X048764Y013847D02*
X048484Y013847D01*
X048484Y013987D01*
X048531Y014034D01*
X048624Y014034D01*
X048671Y013987D01*
X048531Y014123D02*
X048484Y014170D01*
X048484Y014263D01*
X048531Y014310D01*
X048578Y014310D01*
X048624Y014263D01*
X048671Y014310D01*
X048718Y014310D01*
X048624Y014263D02*
X048624Y014217D01*
X048624Y014400D02*
X048578Y014493D01*
X048578Y014540D01*
X048624Y014586D01*
X048718Y014586D01*
X048624Y014400D02*
X048484Y014400D01*
X048484Y014586D01*
X050084Y014586D02*
X050131Y014493D01*
X050224Y014400D01*
X050224Y014540D01*
X050271Y014586D01*
X050318Y014586D01*
X050364Y014540D01*
X050364Y014446D01*
X050318Y014400D01*
X050224Y014400D01*
X050178Y014310D02*
X050224Y014263D01*
X050271Y014310D01*
X050318Y014310D01*
X050364Y014263D01*
X050364Y014170D01*
X050318Y014123D01*
X050364Y014034D02*
X050271Y013940D01*
X050271Y013987D02*
X050271Y013847D01*
X050364Y013847D02*
X050084Y013847D01*
X050084Y013987D01*
X050131Y014034D01*
X050224Y014034D01*
X050271Y013987D01*
X050131Y014123D02*
X050084Y014170D01*
X050084Y014263D01*
X050131Y014310D01*
X050178Y014310D01*
X050224Y014263D02*
X050224Y014217D01*
X050248Y014818D02*
X050295Y014865D01*
X050248Y014818D02*
X050154Y014818D01*
X050108Y014865D01*
X050108Y015052D01*
X050154Y015099D01*
X050248Y015099D01*
X050295Y015052D01*
X050384Y015005D02*
X050477Y015099D01*
X050477Y014818D01*
X050384Y014818D02*
X050571Y014818D01*
X050660Y014865D02*
X050707Y014818D01*
X050800Y014818D01*
X050847Y014865D01*
X050847Y014958D01*
X050800Y015005D01*
X050754Y015005D01*
X050660Y014958D01*
X050660Y015099D01*
X050847Y015099D01*
X048431Y015639D02*
X048384Y015686D01*
X048384Y015779D01*
X048431Y015826D01*
X046236Y016265D02*
X046236Y016452D01*
X046190Y016499D01*
X046096Y016499D01*
X046050Y016452D01*
X046050Y016405D01*
X046096Y016358D01*
X046236Y016358D01*
X046236Y016265D02*
X046190Y016218D01*
X046096Y016218D01*
X046050Y016265D01*
X045960Y016218D02*
X045773Y016218D01*
X045684Y016218D02*
X045590Y016312D01*
X045637Y016312D02*
X045497Y016312D01*
X045497Y016218D02*
X045497Y016499D01*
X045637Y016499D01*
X045684Y016452D01*
X045684Y016358D01*
X045637Y016312D01*
X045773Y016405D02*
X045867Y016499D01*
X045867Y016218D01*
X048836Y017653D02*
X048836Y017840D01*
X048929Y017934D01*
X049023Y017840D01*
X049023Y017653D01*
X049112Y017700D02*
X049159Y017653D01*
X049252Y017653D01*
X049299Y017700D01*
X049299Y017934D01*
X049388Y017934D02*
X049575Y017653D01*
X049665Y017607D02*
X049851Y017607D01*
X049941Y017747D02*
X050034Y017653D01*
X050128Y017747D01*
X050128Y017934D01*
X050217Y017887D02*
X050217Y017700D01*
X050264Y017653D01*
X050357Y017653D01*
X050404Y017700D01*
X050493Y017700D02*
X050540Y017653D01*
X050633Y017653D01*
X050680Y017700D01*
X050680Y017887D01*
X050633Y017934D01*
X050540Y017934D01*
X050493Y017887D01*
X050493Y017700D01*
X050404Y017887D02*
X050357Y017934D01*
X050264Y017934D01*
X050217Y017887D01*
X049941Y017934D02*
X049941Y017747D01*
X049575Y017934D02*
X049388Y017653D01*
X049112Y017700D02*
X049112Y017934D01*
X049023Y017793D02*
X048836Y017793D01*
X058254Y017832D02*
X058254Y017738D01*
X058301Y017691D01*
X058488Y017691D01*
X058535Y017738D01*
X058535Y017832D01*
X058488Y017878D01*
X058394Y017968D02*
X058394Y018155D01*
X058348Y018244D02*
X058254Y018337D01*
X058535Y018337D01*
X058535Y018244D02*
X058535Y018431D01*
X058535Y018108D02*
X058254Y018108D01*
X058394Y017968D01*
X058301Y017878D02*
X058254Y017832D01*
X069313Y018888D02*
X069313Y019169D01*
X069453Y019169D01*
X069500Y019122D01*
X069500Y019028D01*
X069453Y018982D01*
X069313Y018982D01*
X069407Y018982D02*
X069500Y018888D01*
X069589Y018888D02*
X069776Y019075D01*
X069776Y019122D01*
X069730Y019169D01*
X069636Y019169D01*
X069589Y019122D01*
X069589Y018888D02*
X069776Y018888D01*
X069866Y018888D02*
X070053Y018888D01*
X069959Y018888D02*
X069959Y019169D01*
X069866Y019075D01*
X069850Y019518D02*
X070036Y019705D01*
X070036Y019752D01*
X069990Y019799D01*
X069896Y019799D01*
X069850Y019752D01*
X069760Y019752D02*
X069760Y019705D01*
X069713Y019658D01*
X069760Y019612D01*
X069760Y019565D01*
X069713Y019518D01*
X069620Y019518D01*
X069573Y019565D01*
X069484Y019518D02*
X069390Y019612D01*
X069437Y019612D02*
X069297Y019612D01*
X069297Y019518D02*
X069297Y019799D01*
X069437Y019799D01*
X069484Y019752D01*
X069484Y019658D01*
X069437Y019612D01*
X069573Y019752D02*
X069620Y019799D01*
X069713Y019799D01*
X069760Y019752D01*
X069713Y019658D02*
X069667Y019658D01*
X069850Y019518D02*
X070036Y019518D01*
X071570Y019697D02*
X071570Y019884D01*
X071756Y019884D02*
X071756Y019697D01*
X071663Y019603D01*
X071570Y019697D01*
X071663Y019184D02*
X071756Y019090D01*
X071756Y018903D01*
X071756Y019043D02*
X071570Y019043D01*
X071570Y019090D02*
X071570Y018903D01*
X071570Y019090D02*
X071663Y019184D01*
X073982Y019134D02*
X074075Y019134D01*
X074028Y019134D02*
X074028Y018853D01*
X073982Y018853D02*
X074075Y018853D01*
X074166Y018900D02*
X074166Y019087D01*
X074213Y019134D01*
X074306Y019134D01*
X074353Y019087D01*
X074442Y019040D02*
X074535Y019134D01*
X074535Y018853D01*
X074442Y018853D02*
X074629Y018853D01*
X074718Y018900D02*
X074905Y019087D01*
X074905Y018900D01*
X074858Y018853D01*
X074765Y018853D01*
X074718Y018900D01*
X074718Y019087D01*
X074765Y019134D01*
X074858Y019134D01*
X074905Y019087D01*
X074353Y018900D02*
X074306Y018853D01*
X074213Y018853D01*
X074166Y018900D01*
X077419Y019667D02*
X077419Y019760D01*
X077419Y019713D02*
X077700Y019713D01*
X077700Y019667D02*
X077700Y019760D01*
X077653Y019851D02*
X077700Y019898D01*
X077700Y019991D01*
X077653Y020038D01*
X077653Y020127D02*
X077700Y020174D01*
X077700Y020267D01*
X077653Y020314D01*
X077466Y020314D01*
X077419Y020267D01*
X077419Y020174D01*
X077466Y020127D01*
X077513Y020127D01*
X077559Y020174D01*
X077559Y020314D01*
X077466Y020038D02*
X077419Y019991D01*
X077419Y019898D01*
X077466Y019851D01*
X077653Y019851D01*
X078797Y020118D02*
X078797Y020399D01*
X078937Y020399D01*
X078984Y020352D01*
X078984Y020258D01*
X078937Y020212D01*
X078797Y020212D01*
X078890Y020212D02*
X078984Y020118D01*
X079073Y020118D02*
X079260Y020118D01*
X079167Y020118D02*
X079167Y020399D01*
X079073Y020305D01*
X079350Y020352D02*
X079396Y020399D01*
X079490Y020399D01*
X079536Y020352D01*
X079536Y020305D01*
X079490Y020258D01*
X079536Y020212D01*
X079536Y020165D01*
X079490Y020118D01*
X079396Y020118D01*
X079350Y020165D01*
X079443Y020258D02*
X079490Y020258D01*
X079263Y019390D02*
X079310Y019343D01*
X079123Y019156D01*
X079170Y019110D01*
X079263Y019110D01*
X079310Y019156D01*
X079310Y019343D01*
X079263Y019390D02*
X079170Y019390D01*
X079123Y019343D01*
X079123Y019156D01*
X079034Y019110D02*
X078847Y019110D01*
X079034Y019296D01*
X079034Y019343D01*
X078987Y019390D01*
X078894Y019390D01*
X078847Y019343D01*
X078758Y019343D02*
X078711Y019390D01*
X078617Y019390D01*
X078571Y019343D01*
X078571Y019156D01*
X078617Y019110D01*
X078711Y019110D01*
X078758Y019156D01*
X078840Y018040D02*
X078840Y017760D01*
X078747Y017760D02*
X078934Y017760D01*
X079023Y017806D02*
X079070Y017760D01*
X079163Y017760D01*
X079210Y017806D01*
X079210Y017993D01*
X079163Y018040D01*
X079070Y018040D01*
X079023Y017993D01*
X079023Y017946D01*
X079070Y017900D01*
X079210Y017900D01*
X078840Y018040D02*
X078747Y017946D01*
X078658Y017993D02*
X078611Y018040D01*
X078517Y018040D01*
X078471Y017993D01*
X078471Y017806D01*
X078517Y017760D01*
X078611Y017760D01*
X078658Y017806D01*
X083683Y015184D02*
X083776Y015184D01*
X083730Y015184D02*
X083730Y014903D01*
X083776Y014903D02*
X083683Y014903D01*
X083867Y014950D02*
X083914Y014903D01*
X084007Y014903D01*
X084054Y014950D01*
X084143Y015043D02*
X084330Y015043D01*
X084283Y014903D02*
X084283Y015184D01*
X084143Y015043D01*
X084054Y015137D02*
X084007Y015184D01*
X083914Y015184D01*
X083867Y015137D01*
X083867Y014950D01*
X088240Y014531D02*
X088240Y014344D01*
X088286Y014297D01*
X088380Y014297D01*
X088426Y014344D01*
X088516Y014297D02*
X088703Y014297D01*
X088609Y014297D02*
X088609Y014577D01*
X088516Y014484D01*
X088426Y014531D02*
X088380Y014577D01*
X088286Y014577D01*
X088240Y014531D01*
X088792Y014531D02*
X088792Y014484D01*
X088839Y014437D01*
X088932Y014437D01*
X088979Y014390D01*
X088979Y014344D01*
X088932Y014297D01*
X088839Y014297D01*
X088792Y014344D01*
X088792Y014390D01*
X088839Y014437D01*
X088932Y014437D02*
X088979Y014484D01*
X088979Y014531D01*
X088932Y014577D01*
X088839Y014577D01*
X088792Y014531D01*
X092076Y014513D02*
X092076Y014326D01*
X092216Y014326D01*
X092169Y014419D01*
X092169Y014466D01*
X092216Y014513D01*
X092309Y014513D01*
X092356Y014466D01*
X092356Y014373D01*
X092309Y014326D01*
X092356Y014236D02*
X092356Y014050D01*
X092169Y014236D01*
X092122Y014236D01*
X092076Y014190D01*
X092076Y014096D01*
X092122Y014050D01*
X092122Y013960D02*
X092076Y013914D01*
X092076Y013820D01*
X092122Y013773D01*
X092309Y013773D01*
X092356Y013820D01*
X092356Y013914D01*
X092309Y013960D01*
X091636Y012499D02*
X091450Y012499D01*
X091450Y012358D01*
X091543Y012405D01*
X091590Y012405D01*
X091636Y012358D01*
X091636Y012265D01*
X091590Y012218D01*
X091496Y012218D01*
X091450Y012265D01*
X091360Y012218D02*
X091173Y012218D01*
X091084Y012218D02*
X090990Y012312D01*
X091037Y012312D02*
X090897Y012312D01*
X090897Y012218D02*
X090897Y012499D01*
X091037Y012499D01*
X091084Y012452D01*
X091084Y012358D01*
X091037Y012312D01*
X091173Y012405D02*
X091267Y012499D01*
X091267Y012218D01*
X088953Y011472D02*
X088906Y011519D01*
X088812Y011519D01*
X088766Y011472D01*
X088953Y011472D02*
X088953Y011425D01*
X088766Y011238D01*
X088953Y011238D01*
X088676Y011238D02*
X088489Y011238D01*
X088400Y011238D02*
X088307Y011332D01*
X088353Y011332D02*
X088213Y011332D01*
X088213Y011238D02*
X088213Y011519D01*
X088353Y011519D01*
X088400Y011472D01*
X088400Y011378D01*
X088353Y011332D01*
X088489Y011425D02*
X088583Y011519D01*
X088583Y011238D01*
X092184Y011240D02*
X092324Y011100D01*
X092324Y011286D01*
X092464Y011240D02*
X092184Y011240D01*
X092184Y010917D02*
X092464Y010917D01*
X092464Y011010D02*
X092464Y010823D01*
X092464Y010734D02*
X092371Y010640D01*
X092371Y010687D02*
X092371Y010547D01*
X092464Y010547D02*
X092184Y010547D01*
X092184Y010687D01*
X092231Y010734D01*
X092324Y010734D01*
X092371Y010687D01*
X092278Y010823D02*
X092184Y010917D01*
X093940Y009631D02*
X093940Y009444D01*
X093986Y009397D01*
X094080Y009397D01*
X094126Y009444D01*
X094216Y009397D02*
X094403Y009584D01*
X094403Y009631D01*
X094356Y009677D01*
X094263Y009677D01*
X094216Y009631D01*
X094126Y009631D02*
X094080Y009677D01*
X093986Y009677D01*
X093940Y009631D01*
X094216Y009397D02*
X094403Y009397D01*
X094492Y009444D02*
X094539Y009397D01*
X094632Y009397D01*
X094679Y009444D01*
X094679Y009490D01*
X094632Y009537D01*
X094492Y009537D01*
X094492Y009444D01*
X094492Y009537D02*
X094585Y009631D01*
X094679Y009677D01*
X097470Y009903D02*
X097563Y009903D01*
X097516Y009903D02*
X097516Y010184D01*
X097470Y010184D02*
X097563Y010184D01*
X097654Y010137D02*
X097654Y009950D01*
X097700Y009903D01*
X097794Y009903D01*
X097840Y009950D01*
X097930Y009950D02*
X097977Y009903D01*
X098070Y009903D01*
X098117Y009950D01*
X098117Y009997D01*
X098070Y010043D01*
X097930Y010043D01*
X097930Y009950D01*
X097930Y010043D02*
X098023Y010137D01*
X098117Y010184D01*
X097840Y010137D02*
X097794Y010184D01*
X097700Y010184D01*
X097654Y010137D01*
X103931Y012037D02*
X103978Y011990D01*
X104165Y011990D01*
X104211Y012037D01*
X104211Y012130D01*
X104165Y012177D01*
X104211Y012266D02*
X104024Y012453D01*
X103978Y012453D01*
X103931Y012406D01*
X103931Y012313D01*
X103978Y012266D01*
X103978Y012177D02*
X103931Y012130D01*
X103931Y012037D01*
X104211Y012266D02*
X104211Y012453D01*
X108669Y011549D02*
X108950Y011549D01*
X108950Y011456D02*
X108950Y011643D01*
X108763Y011456D02*
X108669Y011549D01*
X108716Y011366D02*
X108669Y011320D01*
X108669Y011226D01*
X108716Y011180D01*
X108763Y011180D01*
X108809Y011226D01*
X108809Y011320D01*
X108856Y011366D01*
X108903Y011366D01*
X108950Y011320D01*
X108950Y011226D01*
X108903Y011180D01*
X108903Y011090D02*
X108669Y011090D01*
X108669Y010903D02*
X108903Y010903D01*
X108950Y010950D01*
X108950Y011043D01*
X108903Y011090D01*
X108996Y011273D02*
X108623Y011273D01*
X122810Y011193D02*
X122810Y009393D01*
X125510Y009393D01*
X125510Y019593D01*
X122810Y019593D01*
X122810Y016793D01*
X122810Y016193D02*
X122810Y015293D01*
X122810Y013693D02*
X122810Y011793D01*
X118660Y017093D02*
X116860Y017093D01*
X116360Y017093D02*
X118260Y017093D01*
X118660Y017093D02*
X118660Y019793D01*
X112460Y019793D01*
X112460Y017093D01*
X113860Y017093D01*
X114760Y017093D01*
X108647Y017318D02*
X108460Y017318D01*
X108371Y017318D02*
X108184Y017318D01*
X108277Y017318D02*
X108277Y017599D01*
X108184Y017505D01*
X108095Y017552D02*
X108048Y017599D01*
X107954Y017599D01*
X107908Y017552D01*
X107908Y017365D01*
X107954Y017318D01*
X108048Y017318D01*
X108095Y017365D01*
X108460Y017505D02*
X108554Y017599D01*
X108554Y017318D01*
X101869Y019191D02*
X101682Y019191D01*
X101776Y019191D02*
X101776Y019472D01*
X101682Y019378D01*
X101593Y019425D02*
X101546Y019472D01*
X101453Y019472D01*
X101406Y019425D01*
X101406Y019238D01*
X101453Y019191D01*
X101546Y019191D01*
X101593Y019238D01*
X098809Y018569D02*
X098809Y018288D01*
X098716Y018288D02*
X098903Y018288D01*
X098716Y018475D02*
X098809Y018569D01*
X098533Y018569D02*
X098533Y018288D01*
X098626Y018288D02*
X098439Y018288D01*
X098350Y018288D02*
X098257Y018382D01*
X098303Y018382D02*
X098163Y018382D01*
X098163Y018288D02*
X098163Y018569D01*
X098303Y018569D01*
X098350Y018522D01*
X098350Y018428D01*
X098303Y018382D01*
X098439Y018475D02*
X098533Y018569D01*
X096459Y020673D02*
X096506Y020720D01*
X096506Y020814D01*
X096459Y020860D01*
X096506Y020950D02*
X096506Y021136D01*
X096506Y021226D02*
X096459Y021226D01*
X096272Y021413D01*
X096226Y021413D01*
X096226Y021226D01*
X096226Y021043D02*
X096506Y021043D01*
X096319Y020950D02*
X096226Y021043D01*
X096272Y020860D02*
X096226Y020814D01*
X096226Y020720D01*
X096272Y020673D01*
X096459Y020673D01*
X098181Y023786D02*
X098368Y023786D01*
X098414Y023833D01*
X098414Y023927D01*
X098368Y023973D01*
X098368Y024063D02*
X098414Y024109D01*
X098414Y024203D01*
X098368Y024249D01*
X098321Y024249D01*
X098274Y024203D01*
X098274Y024156D01*
X098274Y024203D02*
X098228Y024249D01*
X098181Y024249D01*
X098134Y024203D01*
X098134Y024109D01*
X098181Y024063D01*
X098181Y023973D02*
X098134Y023927D01*
X098134Y023833D01*
X098181Y023786D01*
X098228Y024339D02*
X098134Y024432D01*
X098414Y024432D01*
X098414Y024339D02*
X098414Y024526D01*
X101454Y024534D02*
X101501Y024581D01*
X101688Y024394D01*
X101735Y024441D01*
X101735Y024534D01*
X101688Y024581D01*
X101501Y024581D01*
X101454Y024534D02*
X101454Y024441D01*
X101501Y024394D01*
X101688Y024394D01*
X101688Y024305D02*
X101735Y024258D01*
X101735Y024164D01*
X101688Y024118D01*
X101688Y024028D02*
X101735Y023982D01*
X101735Y023888D01*
X101688Y023841D01*
X101501Y023841D01*
X101454Y023888D01*
X101454Y023982D01*
X101501Y024028D01*
X101501Y024118D02*
X101454Y024164D01*
X101454Y024258D01*
X101501Y024305D01*
X101548Y024305D01*
X101594Y024258D01*
X101641Y024305D01*
X101688Y024305D01*
X101594Y024258D02*
X101594Y024211D01*
X101631Y027286D02*
X101818Y027286D01*
X101864Y027333D01*
X101864Y027427D01*
X101818Y027473D01*
X101864Y027563D02*
X101678Y027749D01*
X101631Y027749D01*
X101584Y027703D01*
X101584Y027609D01*
X101631Y027563D01*
X101631Y027473D02*
X101584Y027427D01*
X101584Y027333D01*
X101631Y027286D01*
X101864Y027563D02*
X101864Y027749D01*
X101818Y027839D02*
X101864Y027886D01*
X101864Y027979D01*
X101818Y028026D01*
X101631Y028026D01*
X101584Y027979D01*
X101584Y027886D01*
X101631Y027839D01*
X101678Y027839D01*
X101724Y027886D01*
X101724Y028026D01*
X095143Y029827D02*
X095143Y029921D01*
X095097Y029968D01*
X095097Y030057D02*
X095050Y030057D01*
X095003Y030104D01*
X095003Y030197D01*
X095050Y030244D01*
X095097Y030244D01*
X095143Y030197D01*
X095143Y030104D01*
X095097Y030057D01*
X095003Y030104D02*
X094956Y030057D01*
X094910Y030057D01*
X094863Y030104D01*
X094863Y030197D01*
X094910Y030244D01*
X094956Y030244D01*
X095003Y030197D01*
X094910Y029968D02*
X094863Y029921D01*
X094863Y029827D01*
X094910Y029781D01*
X095097Y029781D01*
X095143Y029827D01*
X093560Y030418D02*
X093373Y030418D01*
X093284Y030418D02*
X093097Y030418D01*
X093097Y030699D01*
X093373Y030605D02*
X093467Y030699D01*
X093467Y030418D01*
X093397Y029694D02*
X093210Y029694D01*
X093163Y029647D01*
X093163Y029554D01*
X093210Y029507D01*
X093256Y029507D01*
X093303Y029554D01*
X093303Y029694D01*
X093397Y029694D02*
X093443Y029647D01*
X093443Y029554D01*
X093397Y029507D01*
X093397Y029418D02*
X093443Y029371D01*
X093443Y029277D01*
X093397Y029231D01*
X093210Y029231D01*
X093163Y029277D01*
X093163Y029371D01*
X093210Y029418D01*
X091235Y029405D02*
X091235Y029218D01*
X091235Y029311D02*
X090954Y029311D01*
X091048Y029218D01*
X091001Y029128D02*
X090954Y029082D01*
X090954Y028988D01*
X091001Y028941D01*
X091188Y028941D01*
X091235Y028988D01*
X091235Y029082D01*
X091188Y029128D01*
X091188Y029494D02*
X091001Y029681D01*
X091188Y029681D01*
X091235Y029634D01*
X091235Y029541D01*
X091188Y029494D01*
X091001Y029494D01*
X090954Y029541D01*
X090954Y029634D01*
X091001Y029681D01*
X090635Y029668D02*
X090448Y029855D01*
X090401Y029855D01*
X090354Y029808D01*
X090354Y029714D01*
X090401Y029668D01*
X090401Y029578D02*
X090354Y029532D01*
X090354Y029438D01*
X090401Y029391D01*
X090588Y029391D01*
X090635Y029438D01*
X090635Y029532D01*
X090588Y029578D01*
X090635Y029668D02*
X090635Y029855D01*
X090635Y029944D02*
X090588Y029944D01*
X090401Y030131D01*
X090354Y030131D01*
X090354Y029944D01*
X070336Y023652D02*
X070336Y023605D01*
X070290Y023558D01*
X070196Y023558D01*
X070150Y023605D01*
X070150Y023652D01*
X070196Y023699D01*
X070290Y023699D01*
X070336Y023652D01*
X070290Y023558D02*
X070336Y023512D01*
X070336Y023465D01*
X070290Y023418D01*
X070196Y023418D01*
X070150Y023465D01*
X070150Y023512D01*
X070196Y023558D01*
X070060Y023605D02*
X070060Y023652D01*
X070013Y023699D01*
X069920Y023699D01*
X069873Y023652D01*
X069784Y023652D02*
X069784Y023558D01*
X069737Y023512D01*
X069597Y023512D01*
X069690Y023512D02*
X069784Y023418D01*
X069873Y023418D02*
X070060Y023605D01*
X070060Y023418D02*
X069873Y023418D01*
X069784Y023652D02*
X069737Y023699D01*
X069597Y023699D01*
X069597Y023418D01*
X069597Y023099D02*
X069737Y023099D01*
X069784Y023052D01*
X069784Y022958D01*
X069737Y022912D01*
X069597Y022912D01*
X069690Y022912D02*
X069784Y022818D01*
X069873Y022818D02*
X070060Y023005D01*
X070060Y023052D01*
X070013Y023099D01*
X069920Y023099D01*
X069873Y023052D01*
X069873Y022818D02*
X070060Y022818D01*
X070150Y022865D02*
X070196Y022818D01*
X070290Y022818D01*
X070336Y022865D01*
X070336Y022958D01*
X070290Y023005D01*
X070243Y023005D01*
X070150Y022958D01*
X070150Y023099D01*
X070336Y023099D01*
X069597Y023099D02*
X069597Y022818D01*
X069697Y022399D02*
X069837Y022399D01*
X069884Y022352D01*
X069884Y022258D01*
X069837Y022212D01*
X069697Y022212D01*
X069790Y022212D02*
X069884Y022118D01*
X069973Y022118D02*
X070160Y022305D01*
X070160Y022352D01*
X070113Y022399D01*
X070020Y022399D01*
X069973Y022352D01*
X069973Y022118D02*
X070160Y022118D01*
X070250Y022118D02*
X070436Y022305D01*
X070436Y022352D01*
X070390Y022399D01*
X070296Y022399D01*
X070250Y022352D01*
X070250Y022118D02*
X070436Y022118D01*
X070290Y021799D02*
X070336Y021752D01*
X070150Y021565D01*
X070196Y021518D01*
X070290Y021518D01*
X070336Y021565D01*
X070336Y021752D01*
X070290Y021799D02*
X070196Y021799D01*
X070150Y021752D01*
X070150Y021565D01*
X070060Y021565D02*
X070013Y021518D01*
X069920Y021518D01*
X069873Y021565D01*
X069784Y021518D02*
X069690Y021612D01*
X069737Y021612D02*
X069597Y021612D01*
X069597Y021518D02*
X069597Y021799D01*
X069737Y021799D01*
X069784Y021752D01*
X069784Y021658D01*
X069737Y021612D01*
X069873Y021752D02*
X069920Y021799D01*
X070013Y021799D01*
X070060Y021752D01*
X070060Y021705D01*
X070013Y021658D01*
X070060Y021612D01*
X070060Y021565D01*
X070013Y021658D02*
X069967Y021658D01*
X069697Y022118D02*
X069697Y022399D01*
X073333Y022434D02*
X073426Y022434D01*
X073380Y022434D02*
X073380Y022153D01*
X073426Y022153D02*
X073333Y022153D01*
X073517Y022200D02*
X073564Y022153D01*
X073657Y022153D01*
X073704Y022200D01*
X073793Y022200D02*
X073793Y022247D01*
X073840Y022293D01*
X073933Y022293D01*
X073980Y022247D01*
X073980Y022200D01*
X073933Y022153D01*
X073840Y022153D01*
X073793Y022200D01*
X073840Y022293D02*
X073793Y022340D01*
X073793Y022387D01*
X073840Y022434D01*
X073933Y022434D01*
X073980Y022387D01*
X073980Y022340D01*
X073933Y022293D01*
X073704Y022387D02*
X073657Y022434D01*
X073564Y022434D01*
X073517Y022387D01*
X073517Y022200D01*
X072897Y020584D02*
X072897Y020303D01*
X072851Y020303D02*
X072944Y020303D01*
X072761Y020397D02*
X072574Y020397D01*
X072574Y020443D02*
X072621Y020490D01*
X072715Y020490D01*
X072761Y020443D01*
X072761Y020397D01*
X072715Y020303D02*
X072621Y020303D01*
X072574Y020350D01*
X072574Y020443D01*
X072485Y020397D02*
X072485Y020350D01*
X072438Y020303D01*
X072345Y020303D01*
X072298Y020350D01*
X072345Y020443D02*
X072438Y020443D01*
X072485Y020397D01*
X072485Y020537D02*
X072438Y020584D01*
X072345Y020584D01*
X072298Y020537D01*
X072298Y020490D01*
X072345Y020443D01*
X071933Y020584D02*
X071746Y020584D01*
X071746Y020303D01*
X071656Y020303D02*
X071563Y020397D01*
X071610Y020397D02*
X071470Y020397D01*
X071470Y020303D02*
X071470Y020584D01*
X071610Y020584D01*
X071656Y020537D01*
X071656Y020443D01*
X071610Y020397D01*
X071746Y020443D02*
X071839Y020443D01*
X072851Y020584D02*
X072897Y020584D01*
X070153Y020469D02*
X070059Y020422D01*
X069966Y020328D01*
X070106Y020328D01*
X070153Y020282D01*
X070153Y020235D01*
X070106Y020188D01*
X070012Y020188D01*
X069966Y020235D01*
X069966Y020328D01*
X069876Y020375D02*
X069876Y020422D01*
X069830Y020469D01*
X069736Y020469D01*
X069689Y020422D01*
X069600Y020422D02*
X069600Y020328D01*
X069553Y020282D01*
X069413Y020282D01*
X069413Y020188D02*
X069413Y020469D01*
X069553Y020469D01*
X069600Y020422D01*
X069507Y020282D02*
X069600Y020188D01*
X069689Y020188D02*
X069876Y020375D01*
X069876Y020188D02*
X069689Y020188D01*
X084320Y022003D02*
X084413Y022003D01*
X084366Y022003D02*
X084366Y022284D01*
X084320Y022284D02*
X084413Y022284D01*
X084504Y022237D02*
X084504Y022050D01*
X084550Y022003D01*
X084644Y022003D01*
X084690Y022050D01*
X084780Y022050D02*
X084827Y022003D01*
X084920Y022003D01*
X084967Y022050D01*
X084967Y022143D01*
X084920Y022190D01*
X084873Y022190D01*
X084780Y022143D01*
X084780Y022284D01*
X084967Y022284D01*
X084690Y022237D02*
X084644Y022284D01*
X084550Y022284D01*
X084504Y022237D01*
X093583Y015884D02*
X093676Y015884D01*
X093630Y015884D02*
X093630Y015603D01*
X093676Y015603D02*
X093583Y015603D01*
X093767Y015650D02*
X093814Y015603D01*
X093907Y015603D01*
X093954Y015650D01*
X094043Y015650D02*
X094090Y015603D01*
X094183Y015603D01*
X094230Y015650D01*
X094230Y015697D01*
X094183Y015743D01*
X094137Y015743D01*
X094183Y015743D02*
X094230Y015790D01*
X094230Y015837D01*
X094183Y015884D01*
X094090Y015884D01*
X094043Y015837D01*
X093954Y015837D02*
X093907Y015884D01*
X093814Y015884D01*
X093767Y015837D01*
X093767Y015650D01*
X074656Y012413D02*
X074656Y012226D01*
X074469Y012413D01*
X074422Y012413D01*
X074376Y012366D01*
X074376Y012273D01*
X074422Y012226D01*
X074422Y012136D02*
X074469Y012136D01*
X074516Y012090D01*
X074562Y012136D01*
X074609Y012136D01*
X074656Y012090D01*
X074656Y011996D01*
X074609Y011950D01*
X074609Y011860D02*
X074656Y011814D01*
X074656Y011720D01*
X074609Y011673D01*
X074422Y011673D01*
X074376Y011720D01*
X074376Y011814D01*
X074422Y011860D01*
X074422Y011950D02*
X074376Y011996D01*
X074376Y012090D01*
X074422Y012136D01*
X074516Y012090D02*
X074516Y012043D01*
X072636Y012358D02*
X072450Y012358D01*
X072590Y012499D01*
X072590Y012218D01*
X072360Y012218D02*
X072173Y012218D01*
X072360Y012405D01*
X072360Y012452D01*
X072313Y012499D01*
X072220Y012499D01*
X072173Y012452D01*
X072084Y012452D02*
X072084Y012358D01*
X072037Y012312D01*
X071897Y012312D01*
X071990Y012312D02*
X072084Y012218D01*
X071897Y012218D02*
X071897Y012499D01*
X072037Y012499D01*
X072084Y012452D01*
X072084Y012918D02*
X071990Y013012D01*
X072037Y013012D02*
X071897Y013012D01*
X071897Y012918D02*
X071897Y013199D01*
X072037Y013199D01*
X072084Y013152D01*
X072084Y013058D01*
X072037Y013012D01*
X072173Y012918D02*
X072360Y013105D01*
X072360Y013152D01*
X072313Y013199D01*
X072220Y013199D01*
X072173Y013152D01*
X072173Y012918D02*
X072360Y012918D01*
X072450Y012965D02*
X072496Y012918D01*
X072590Y012918D01*
X072636Y012965D01*
X072636Y013012D01*
X072590Y013058D01*
X072543Y013058D01*
X072590Y013058D02*
X072636Y013105D01*
X072636Y013152D01*
X072590Y013199D01*
X072496Y013199D01*
X072450Y013152D01*
X072450Y013618D02*
X072636Y013618D01*
X072543Y013618D02*
X072543Y013899D01*
X072450Y013805D01*
X072360Y013805D02*
X072313Y013758D01*
X072360Y013712D01*
X072360Y013665D01*
X072313Y013618D01*
X072220Y013618D01*
X072173Y013665D01*
X072084Y013618D02*
X071990Y013712D01*
X072037Y013712D02*
X071897Y013712D01*
X071897Y013618D02*
X071897Y013899D01*
X072037Y013899D01*
X072084Y013852D01*
X072084Y013758D01*
X072037Y013712D01*
X072173Y013852D02*
X072220Y013899D01*
X072313Y013899D01*
X072360Y013852D01*
X072360Y013805D01*
X072313Y013758D02*
X072267Y013758D01*
X072336Y010869D02*
X072289Y010822D01*
X072336Y010869D02*
X072430Y010869D01*
X072476Y010822D01*
X072476Y010775D01*
X072289Y010588D01*
X072476Y010588D01*
X072566Y010588D02*
X072566Y010635D01*
X072753Y010822D01*
X072753Y010869D01*
X072566Y010869D01*
X072200Y010822D02*
X072200Y010728D01*
X072153Y010682D01*
X072013Y010682D01*
X072013Y010588D02*
X072013Y010869D01*
X072153Y010869D01*
X072200Y010822D01*
X072107Y010682D02*
X072200Y010588D01*
X073319Y010683D02*
X073600Y010683D01*
X073600Y010590D02*
X073600Y010777D01*
X073413Y010590D02*
X073319Y010683D01*
X073319Y010407D02*
X073600Y010407D01*
X073600Y010314D02*
X073600Y010501D01*
X073413Y010314D02*
X073319Y010407D01*
X073366Y010224D02*
X073319Y010178D01*
X073319Y010084D01*
X073366Y010037D01*
X073553Y010037D01*
X073600Y010084D01*
X073600Y010178D01*
X073553Y010224D01*
X073600Y009947D02*
X073600Y009853D01*
X073600Y009900D02*
X073319Y009900D01*
X073319Y009853D02*
X073319Y009947D01*
X075871Y009343D02*
X075871Y009156D01*
X075917Y009110D01*
X076011Y009110D01*
X076058Y009156D01*
X076147Y009110D02*
X076334Y009296D01*
X076334Y009343D01*
X076287Y009390D01*
X076194Y009390D01*
X076147Y009343D01*
X076058Y009343D02*
X076011Y009390D01*
X075917Y009390D01*
X075871Y009343D01*
X076147Y009110D02*
X076334Y009110D01*
X076423Y009156D02*
X076423Y009203D01*
X076470Y009250D01*
X076563Y009250D01*
X076610Y009203D01*
X076610Y009156D01*
X076563Y009110D01*
X076470Y009110D01*
X076423Y009156D01*
X076470Y009250D02*
X076423Y009296D01*
X076423Y009343D01*
X076470Y009390D01*
X076563Y009390D01*
X076610Y009343D01*
X076610Y009296D01*
X076563Y009250D01*
X055085Y012138D02*
X055038Y012091D01*
X054851Y012091D01*
X054804Y012138D01*
X054804Y012232D01*
X054851Y012278D01*
X054804Y012368D02*
X054804Y012555D01*
X054851Y012555D01*
X055038Y012368D01*
X055085Y012368D01*
X055038Y012278D02*
X055085Y012232D01*
X055085Y012138D01*
X049950Y012056D02*
X049669Y012243D01*
X049669Y011780D02*
X049903Y011780D01*
X049809Y011690D02*
X049809Y011503D01*
X049763Y011503D02*
X049669Y011597D01*
X049763Y011503D02*
X049950Y011503D01*
X049731Y009686D02*
X049918Y009500D01*
X049964Y009500D01*
X049918Y009410D02*
X049964Y009363D01*
X049964Y009270D01*
X049918Y009223D01*
X049964Y009134D02*
X049871Y009040D01*
X049871Y009087D02*
X049871Y008947D01*
X049964Y008947D02*
X049684Y008947D01*
X049684Y009087D01*
X049731Y009134D01*
X049824Y009134D01*
X049871Y009087D01*
X049731Y009223D02*
X049684Y009270D01*
X049684Y009363D01*
X049731Y009410D01*
X049778Y009410D01*
X049824Y009363D01*
X049871Y009410D01*
X049918Y009410D01*
X049824Y009363D02*
X049824Y009317D01*
X049684Y009500D02*
X049684Y009686D01*
X049731Y009686D01*
X049253Y009722D02*
X049206Y009769D01*
X049112Y009769D01*
X049066Y009722D01*
X049066Y009675D01*
X049112Y009628D01*
X049253Y009628D01*
X049253Y009535D02*
X049253Y009722D01*
X049253Y009535D02*
X049206Y009488D01*
X049112Y009488D01*
X049066Y009535D01*
X048976Y009535D02*
X048930Y009488D01*
X048836Y009488D01*
X048789Y009535D01*
X048700Y009488D02*
X048607Y009582D01*
X048653Y009582D02*
X048513Y009582D01*
X048513Y009488D02*
X048513Y009769D01*
X048653Y009769D01*
X048700Y009722D01*
X048700Y009628D01*
X048653Y009582D01*
X048789Y009722D02*
X048836Y009769D01*
X048930Y009769D01*
X048976Y009722D01*
X048976Y009675D01*
X048930Y009628D01*
X048976Y009582D01*
X048976Y009535D01*
X048930Y009628D02*
X048883Y009628D01*
X048364Y009640D02*
X048364Y009546D01*
X048318Y009500D01*
X048271Y009500D01*
X048224Y009546D01*
X048224Y009640D01*
X048271Y009686D01*
X048318Y009686D01*
X048364Y009640D01*
X048224Y009640D02*
X048178Y009686D01*
X048131Y009686D01*
X048084Y009640D01*
X048084Y009546D01*
X048131Y009500D01*
X048178Y009500D01*
X048224Y009546D01*
X048178Y009410D02*
X048224Y009363D01*
X048271Y009410D01*
X048318Y009410D01*
X048364Y009363D01*
X048364Y009270D01*
X048318Y009223D01*
X048364Y009134D02*
X048271Y009040D01*
X048271Y009087D02*
X048271Y008947D01*
X048364Y008947D02*
X048084Y008947D01*
X048084Y009087D01*
X048131Y009134D01*
X048224Y009134D01*
X048271Y009087D01*
X048131Y009223D02*
X048084Y009270D01*
X048084Y009363D01*
X048131Y009410D01*
X048178Y009410D01*
X048224Y009363D02*
X048224Y009317D01*
X046592Y009222D02*
X046592Y009175D01*
X046545Y009128D01*
X046452Y009128D01*
X046405Y009175D01*
X046405Y009222D01*
X046452Y009269D01*
X046545Y009269D01*
X046592Y009222D01*
X046545Y009128D02*
X046592Y009082D01*
X046592Y009035D01*
X046545Y008988D01*
X046452Y008988D01*
X046405Y009035D01*
X046405Y009082D01*
X046452Y009128D01*
X046316Y009082D02*
X046316Y009035D01*
X046269Y008988D01*
X046176Y008988D01*
X046129Y009035D01*
X046039Y009035D02*
X045993Y008988D01*
X045899Y008988D01*
X045853Y009035D01*
X045853Y009222D01*
X045899Y009269D01*
X045993Y009269D01*
X046039Y009222D01*
X046129Y009222D02*
X046176Y009269D01*
X046269Y009269D01*
X046316Y009222D01*
X046316Y009175D01*
X046269Y009128D01*
X046316Y009082D01*
X046269Y009128D02*
X046222Y009128D01*
X033597Y011390D02*
X033550Y011343D01*
X033457Y011343D01*
X033410Y011390D01*
X033321Y011343D02*
X033134Y011343D01*
X033227Y011343D02*
X033227Y011624D01*
X033134Y011530D01*
X033045Y011577D02*
X032998Y011624D01*
X032904Y011624D01*
X032858Y011577D01*
X032858Y011390D01*
X032904Y011343D01*
X032998Y011343D01*
X033045Y011390D01*
X033410Y011577D02*
X033457Y011624D01*
X033550Y011624D01*
X033597Y011577D01*
X033597Y011530D01*
X033550Y011483D01*
X033597Y011437D01*
X033597Y011390D01*
X033550Y011483D02*
X033504Y011483D01*
X031564Y010540D02*
X031564Y010446D01*
X031518Y010400D01*
X031331Y010586D01*
X031518Y010586D01*
X031564Y010540D01*
X031518Y010400D02*
X031331Y010400D01*
X031284Y010446D01*
X031284Y010540D01*
X031331Y010586D01*
X031331Y010310D02*
X031284Y010263D01*
X031284Y010170D01*
X031331Y010123D01*
X031331Y010034D02*
X031424Y010034D01*
X031471Y009987D01*
X031471Y009847D01*
X031471Y009940D02*
X031564Y010034D01*
X031564Y010123D02*
X031378Y010310D01*
X031331Y010310D01*
X031564Y010310D02*
X031564Y010123D01*
X031331Y010034D02*
X031284Y009987D01*
X031284Y009847D01*
X031564Y009847D01*
X029835Y009814D02*
X029788Y009768D01*
X029835Y009814D02*
X029835Y009908D01*
X029788Y009955D01*
X029741Y009955D01*
X029694Y009908D01*
X029694Y009861D01*
X029694Y009908D02*
X029648Y009955D01*
X029601Y009955D01*
X029554Y009908D01*
X029554Y009814D01*
X029601Y009768D01*
X029601Y009678D02*
X029554Y009632D01*
X029554Y009538D01*
X029601Y009491D01*
X029788Y009491D01*
X029835Y009538D01*
X029835Y009632D01*
X029788Y009678D01*
X029788Y010044D02*
X029835Y010091D01*
X029835Y010184D01*
X029788Y010231D01*
X029694Y010231D01*
X029648Y010184D01*
X029648Y010137D01*
X029694Y010044D01*
X029554Y010044D01*
X029554Y010231D01*
X026138Y009834D02*
X025951Y009834D01*
X025861Y009834D02*
X025861Y009600D01*
X025815Y009553D01*
X025721Y009553D01*
X025674Y009600D01*
X025674Y009834D01*
X025585Y009787D02*
X025538Y009834D01*
X025445Y009834D01*
X025398Y009787D01*
X025398Y009600D01*
X025445Y009553D01*
X025538Y009553D01*
X025585Y009600D01*
X025585Y009787D01*
X025309Y009507D02*
X025122Y009507D01*
X024939Y009693D02*
X024846Y009693D01*
X024756Y009693D02*
X024710Y009647D01*
X024570Y009647D01*
X024663Y009647D02*
X024756Y009553D01*
X024846Y009553D02*
X024846Y009834D01*
X025033Y009834D01*
X024756Y009787D02*
X024756Y009693D01*
X024756Y009787D02*
X024710Y009834D01*
X024570Y009834D01*
X024570Y009553D01*
X026044Y009553D02*
X026044Y009834D01*
X028058Y011115D02*
X028104Y011068D01*
X028198Y011068D01*
X028245Y011115D01*
X028334Y011068D02*
X028521Y011068D01*
X028427Y011068D02*
X028427Y011349D01*
X028334Y011255D01*
X028245Y011302D02*
X028198Y011349D01*
X028104Y011349D01*
X028058Y011302D01*
X028058Y011115D01*
X028610Y011208D02*
X028797Y011208D01*
X028750Y011068D02*
X028750Y011349D01*
X028610Y011208D01*
X016835Y021831D02*
X016554Y021831D01*
X016554Y021971D01*
X016601Y022018D01*
X016694Y022018D01*
X016741Y021971D01*
X016741Y021831D01*
X016741Y021924D02*
X016835Y022018D01*
X016835Y022107D02*
X016648Y022294D01*
X016601Y022294D01*
X016554Y022247D01*
X016554Y022154D01*
X016601Y022107D01*
X016835Y022107D02*
X016835Y022294D01*
X016788Y022383D02*
X016835Y022430D01*
X016835Y022523D01*
X016788Y022570D01*
X016601Y022570D01*
X016554Y022523D01*
X016554Y022430D01*
X016601Y022383D01*
X016648Y022383D01*
X016694Y022430D01*
X016694Y022570D01*
D13*
X099945Y020902D02*
X099945Y020587D01*
X099945Y020902D02*
X100851Y021807D01*
X103174Y021807D01*
X103174Y020587D01*
X103076Y020547D02*
X103056Y020624D01*
X103033Y020699D01*
X103005Y020773D01*
X102974Y020845D01*
X102939Y020916D01*
X102901Y020985D01*
X102859Y021051D01*
X102814Y021116D01*
X102766Y021178D01*
X102714Y021238D01*
X102660Y021295D01*
X102603Y021349D01*
X102543Y021401D01*
X102481Y021449D01*
X102416Y021494D01*
X102349Y021535D01*
X102280Y021573D01*
X102209Y021608D01*
X102137Y021639D01*
X102063Y021667D01*
X101988Y021690D01*
X101912Y021710D01*
X101834Y021726D01*
X101756Y021738D01*
X101678Y021746D01*
X101599Y021750D01*
X101521Y021750D01*
X101442Y021746D01*
X101364Y021738D01*
X101286Y021726D01*
X101208Y021710D01*
X101132Y021690D01*
X101057Y021667D01*
X100983Y021639D01*
X100911Y021608D01*
X100840Y021573D01*
X100771Y021535D01*
X100704Y021494D01*
X100639Y021449D01*
X100577Y021401D01*
X100517Y021349D01*
X100460Y021295D01*
X100406Y021238D01*
X100354Y021178D01*
X100306Y021116D01*
X100261Y021051D01*
X100219Y020985D01*
X100181Y020916D01*
X100146Y020845D01*
X100115Y020773D01*
X100087Y020699D01*
X100064Y020624D01*
X100044Y020547D01*
X100044Y019839D02*
X100064Y019762D01*
X100087Y019687D01*
X100115Y019613D01*
X100146Y019541D01*
X100181Y019470D01*
X100219Y019401D01*
X100261Y019335D01*
X100306Y019270D01*
X100354Y019208D01*
X100406Y019148D01*
X100460Y019091D01*
X100517Y019037D01*
X100577Y018985D01*
X100639Y018937D01*
X100704Y018892D01*
X100771Y018851D01*
X100840Y018813D01*
X100911Y018778D01*
X100983Y018747D01*
X101057Y018719D01*
X101132Y018696D01*
X101208Y018676D01*
X101286Y018660D01*
X101364Y018648D01*
X101442Y018640D01*
X101521Y018636D01*
X101599Y018636D01*
X101678Y018640D01*
X101756Y018648D01*
X101834Y018660D01*
X101912Y018676D01*
X101988Y018696D01*
X102063Y018719D01*
X102137Y018747D01*
X102209Y018778D01*
X102280Y018813D01*
X102349Y018851D01*
X102416Y018892D01*
X102481Y018937D01*
X102543Y018985D01*
X102603Y019037D01*
X102660Y019091D01*
X102714Y019148D01*
X102766Y019208D01*
X102814Y019270D01*
X102859Y019335D01*
X102901Y019401D01*
X102939Y019470D01*
X102974Y019541D01*
X103005Y019613D01*
X103033Y019687D01*
X103056Y019762D01*
X103076Y019839D01*
X103174Y019800D02*
X103174Y018579D01*
X100851Y018579D01*
X099945Y019485D01*
X099945Y019800D01*
X119679Y018964D02*
X119679Y018734D01*
X120140Y018734D01*
X120140Y018964D01*
X120063Y019041D01*
X119756Y019041D01*
X119679Y018964D01*
X119756Y018581D02*
X119679Y018504D01*
X119679Y018350D01*
X119756Y018274D01*
X120063Y018274D01*
X120140Y018350D01*
X120140Y018504D01*
X120063Y018581D01*
X120140Y018120D02*
X120140Y017813D01*
X119679Y017813D01*
X126179Y013564D02*
X126179Y013411D01*
X126256Y013334D01*
X126333Y013334D01*
X126409Y013411D01*
X126409Y013564D01*
X126486Y013641D01*
X126563Y013641D01*
X126640Y013564D01*
X126640Y013411D01*
X126563Y013334D01*
X126563Y013181D02*
X126256Y013181D01*
X126179Y013104D01*
X126179Y012874D01*
X126640Y012874D01*
X126640Y013104D01*
X126563Y013181D01*
X126563Y012720D02*
X126256Y012720D01*
X126179Y012644D01*
X126179Y012413D01*
X126640Y012413D01*
X126640Y012644D01*
X126563Y012720D01*
X126179Y013564D02*
X126256Y013641D01*
X103724Y013757D02*
X103724Y011435D01*
X102818Y010529D01*
X102503Y010529D01*
X101716Y010529D02*
X101401Y010529D01*
X100495Y011435D01*
X100495Y013757D01*
X101716Y013757D01*
X102503Y013757D02*
X103724Y013757D01*
X101756Y013659D02*
X101679Y013639D01*
X101604Y013616D01*
X101530Y013588D01*
X101458Y013557D01*
X101387Y013522D01*
X101318Y013484D01*
X101252Y013442D01*
X101187Y013397D01*
X101125Y013349D01*
X101065Y013297D01*
X101008Y013243D01*
X100954Y013186D01*
X100902Y013126D01*
X100854Y013064D01*
X100809Y012999D01*
X100768Y012932D01*
X100730Y012863D01*
X100695Y012792D01*
X100664Y012720D01*
X100636Y012646D01*
X100613Y012571D01*
X100593Y012495D01*
X100577Y012417D01*
X100565Y012339D01*
X100557Y012261D01*
X100553Y012182D01*
X100553Y012104D01*
X100557Y012025D01*
X100565Y011947D01*
X100577Y011869D01*
X100593Y011791D01*
X100613Y011715D01*
X100636Y011640D01*
X100664Y011566D01*
X100695Y011494D01*
X100730Y011423D01*
X100768Y011354D01*
X100809Y011287D01*
X100854Y011222D01*
X100902Y011160D01*
X100954Y011100D01*
X101008Y011043D01*
X101065Y010989D01*
X101125Y010937D01*
X101187Y010889D01*
X101252Y010844D01*
X101318Y010802D01*
X101387Y010764D01*
X101458Y010729D01*
X101530Y010698D01*
X101604Y010670D01*
X101679Y010647D01*
X101756Y010627D01*
X102464Y010627D02*
X102541Y010647D01*
X102616Y010670D01*
X102690Y010698D01*
X102762Y010729D01*
X102833Y010764D01*
X102902Y010802D01*
X102968Y010844D01*
X103033Y010889D01*
X103095Y010937D01*
X103155Y010989D01*
X103212Y011043D01*
X103266Y011100D01*
X103318Y011160D01*
X103366Y011222D01*
X103411Y011287D01*
X103452Y011354D01*
X103490Y011423D01*
X103525Y011494D01*
X103556Y011566D01*
X103584Y011640D01*
X103607Y011715D01*
X103627Y011791D01*
X103643Y011869D01*
X103655Y011947D01*
X103663Y012025D01*
X103667Y012104D01*
X103667Y012182D01*
X103663Y012261D01*
X103655Y012339D01*
X103643Y012417D01*
X103627Y012495D01*
X103607Y012571D01*
X103584Y012646D01*
X103556Y012720D01*
X103525Y012792D01*
X103490Y012863D01*
X103452Y012932D01*
X103411Y012999D01*
X103366Y013064D01*
X103318Y013126D01*
X103266Y013186D01*
X103212Y013243D01*
X103155Y013297D01*
X103095Y013349D01*
X103033Y013397D01*
X102968Y013442D01*
X102902Y013484D01*
X102833Y013522D01*
X102762Y013557D01*
X102690Y013588D01*
X102616Y013616D01*
X102541Y013639D01*
X102464Y013659D01*
D14*
X102360Y016043D02*
X102610Y016293D01*
X102610Y016793D01*
X102360Y017043D01*
X101860Y017043D01*
X101610Y016793D01*
X101360Y017043D01*
X100860Y017043D01*
X100610Y016793D01*
X100360Y017043D01*
X099860Y017043D01*
X099610Y016793D01*
X099610Y016293D01*
X099860Y016043D01*
X100360Y016043D01*
X100610Y016293D01*
X100610Y016793D01*
X100610Y016293D02*
X100860Y016043D01*
X101360Y016043D01*
X101610Y016293D01*
X101610Y016793D01*
X101610Y016293D02*
X101860Y016043D01*
X102360Y016043D01*
X112060Y016693D02*
X113760Y016693D01*
X113760Y016743D01*
X114360Y016743D01*
X114360Y016693D01*
X114310Y016893D01*
X113860Y016893D01*
X113860Y017093D01*
X113860Y017193D01*
X112560Y017193D01*
X112560Y019693D01*
X118560Y019693D01*
X118560Y017193D01*
X118260Y017193D01*
X116860Y017193D01*
X116860Y017093D01*
X116860Y016893D01*
X117060Y016893D01*
X118060Y016893D01*
X118260Y016893D01*
X118260Y017093D01*
X118260Y017193D01*
X118060Y016893D02*
X117910Y016693D01*
X116360Y016693D01*
X116360Y017093D01*
X116360Y017193D01*
X116860Y017193D01*
X117060Y016893D02*
X117210Y016693D01*
X119060Y016693D01*
X119060Y020193D01*
X118560Y020193D01*
X118560Y020293D01*
X118060Y020293D01*
X118060Y020193D01*
X115810Y020193D01*
X115810Y020293D01*
X115310Y020293D01*
X115310Y020193D01*
X113060Y020193D01*
X113060Y020293D01*
X112560Y020293D01*
X112560Y020193D01*
X112060Y020193D01*
X112060Y016693D01*
X113860Y017193D02*
X114760Y017193D01*
X114760Y017093D01*
X114760Y016893D01*
X114760Y016693D01*
X114360Y016693D01*
X114310Y016893D02*
X114760Y016893D01*
X114760Y016693D02*
X116360Y016693D01*
X116360Y017193D02*
X116360Y017493D01*
X114760Y017493D01*
X114760Y017193D01*
X122410Y017143D02*
X122610Y016993D01*
X122610Y016793D01*
X122610Y016193D01*
X122610Y015993D01*
X122410Y015843D01*
X122410Y015293D01*
X122810Y015293D01*
X122910Y015293D01*
X122910Y016193D01*
X122910Y016793D01*
X122910Y019493D01*
X125410Y019493D01*
X125410Y009493D01*
X122910Y009493D01*
X122910Y011193D01*
X122910Y011793D01*
X122910Y013693D01*
X122810Y013693D01*
X122410Y013693D01*
X122410Y015293D01*
X122910Y015293D02*
X123210Y015293D01*
X123210Y013693D01*
X122910Y013693D01*
X122410Y013693D02*
X122410Y012143D01*
X122610Y011993D01*
X122610Y011793D01*
X122610Y011193D01*
X122810Y011193D01*
X122910Y011193D01*
X122610Y011193D02*
X122610Y010993D01*
X122410Y010843D01*
X122410Y008993D01*
X125910Y008993D01*
X125910Y009493D01*
X126010Y009493D01*
X126010Y009993D01*
X125910Y009993D01*
X125910Y014243D01*
X126010Y014243D01*
X126010Y014743D01*
X125910Y014743D01*
X125910Y018993D01*
X126010Y018993D01*
X126010Y019493D01*
X125910Y019493D01*
X125910Y019993D01*
X122410Y019993D01*
X122410Y018293D01*
X122460Y018293D01*
X122460Y017693D01*
X122410Y017693D01*
X122410Y017143D01*
X122610Y016793D02*
X122810Y016793D01*
X122910Y016793D01*
X122910Y016193D02*
X122810Y016193D01*
X122610Y016193D01*
X122610Y011793D02*
X122810Y011793D01*
X122910Y011793D01*
X091860Y010543D02*
X091860Y010043D01*
X091610Y009793D01*
X091110Y009793D01*
X090860Y010043D01*
X090610Y009793D01*
X090110Y009793D01*
X089860Y010043D01*
X089860Y010543D01*
X090110Y010793D01*
X090610Y010793D01*
X090860Y010543D01*
X091110Y010793D01*
X091610Y010793D01*
X091860Y010543D01*
X090860Y010543D02*
X090860Y010043D01*
X077060Y010943D02*
X077060Y011443D01*
X076810Y011693D01*
X077060Y011943D01*
X077060Y012443D01*
X076810Y012693D01*
X076310Y012693D01*
X076060Y012443D01*
X076060Y011943D01*
X076310Y011693D01*
X076810Y011693D01*
X076310Y011693D02*
X076060Y011443D01*
X076060Y010943D01*
X076310Y010693D01*
X076810Y010693D01*
X077060Y010943D01*
X074978Y010953D02*
X074978Y010916D01*
X074978Y010953D02*
X074341Y010953D01*
X074341Y010916D01*
X074341Y010599D02*
X074341Y010562D01*
X074341Y010225D02*
X074341Y010188D01*
X074341Y009870D02*
X074341Y009833D01*
X074978Y009833D01*
X074978Y009870D01*
X074978Y010188D02*
X074978Y010599D01*
X079310Y014893D02*
X079060Y015143D01*
X079060Y015643D01*
X079310Y015893D01*
X079810Y015893D01*
X080060Y015643D01*
X080310Y015893D01*
X080810Y015893D01*
X081060Y015643D01*
X081060Y015143D01*
X080810Y014893D01*
X080310Y014893D01*
X080060Y015143D01*
X079810Y014893D01*
X079310Y014893D01*
X080060Y015143D02*
X080060Y015643D01*
X088960Y017243D02*
X088960Y017743D01*
X089210Y017993D01*
X088960Y018243D01*
X088960Y018743D01*
X089210Y018993D01*
X089710Y018993D01*
X089960Y018743D01*
X089960Y018243D01*
X089710Y017993D01*
X089960Y017743D01*
X089960Y017243D01*
X089710Y016993D01*
X089210Y016993D01*
X088960Y017243D01*
X089210Y017993D02*
X089710Y017993D01*
X089610Y021193D02*
X089110Y021193D01*
X088860Y021443D01*
X088860Y021943D01*
X089110Y022193D01*
X088860Y022443D01*
X088860Y022943D01*
X089110Y023193D01*
X089610Y023193D01*
X089860Y022943D01*
X089860Y022443D01*
X089610Y022193D01*
X089860Y021943D01*
X089860Y021443D01*
X089610Y021193D01*
X089610Y022193D02*
X089110Y022193D01*
X076678Y020903D02*
X076678Y020866D01*
X076678Y020903D02*
X076041Y020903D01*
X076041Y020866D01*
X076041Y020549D02*
X076041Y020512D01*
X076041Y020175D02*
X076041Y020138D01*
X076041Y019820D02*
X076041Y019783D01*
X076678Y019783D01*
X076678Y019820D01*
X076678Y020138D02*
X076678Y020549D01*
X075094Y020512D02*
X075057Y020512D01*
X075094Y020512D02*
X075094Y019874D01*
X075057Y019874D01*
X074740Y019874D02*
X074329Y019874D01*
X074012Y019874D02*
X073975Y019874D01*
X073975Y020512D01*
X074012Y020512D01*
X074329Y020512D02*
X074366Y020512D01*
X074703Y020512D02*
X074740Y020512D01*
X074704Y021974D02*
X075115Y021974D01*
X075432Y021974D02*
X075469Y021974D01*
X075469Y022612D01*
X075432Y022612D01*
X075115Y022612D02*
X075078Y022612D01*
X074741Y022612D02*
X074704Y022612D01*
X074387Y022612D02*
X074350Y022612D01*
X074350Y021974D01*
X074387Y021974D01*
X048760Y021743D02*
X048510Y021493D01*
X048010Y021493D01*
X047760Y021743D01*
X047510Y021493D01*
X047010Y021493D01*
X046760Y021743D01*
X046760Y022243D01*
X047010Y022493D01*
X047510Y022493D01*
X047760Y022243D01*
X048010Y022493D01*
X048510Y022493D01*
X048760Y022243D01*
X048760Y021743D01*
X047760Y021743D02*
X047760Y022243D01*
X030810Y016343D02*
X030560Y016593D01*
X030060Y016593D01*
X029810Y016343D01*
X029560Y016593D01*
X029060Y016593D01*
X028810Y016343D01*
X028810Y015843D01*
X029060Y015593D01*
X029560Y015593D01*
X029810Y015843D01*
X029810Y016343D01*
X029810Y015843D02*
X030060Y015593D01*
X030560Y015593D01*
X030810Y015843D01*
X030810Y016343D01*
X033950Y013362D02*
X033987Y013362D01*
X033950Y013362D02*
X033950Y012724D01*
X033987Y012724D01*
X034304Y012724D02*
X034341Y012724D01*
X034678Y012724D02*
X034715Y012724D01*
X035032Y012724D02*
X035069Y012724D01*
X035069Y013362D01*
X035032Y013362D01*
X034715Y013362D02*
X034304Y013362D01*
D15*
X030958Y014988D02*
X030958Y015259D01*
X030778Y015259D02*
X030958Y014988D01*
X030778Y014988D02*
X030778Y015259D01*
X030682Y015259D02*
X030502Y015259D01*
X030502Y014988D01*
X030682Y014988D01*
X030592Y015123D02*
X030502Y015123D01*
X030406Y015259D02*
X030226Y015259D01*
X030316Y015259D02*
X030316Y014988D01*
X030040Y014988D02*
X030040Y015259D01*
X029950Y015259D02*
X030130Y015259D01*
X029853Y015168D02*
X029853Y014988D01*
X029853Y015123D02*
X029673Y015123D01*
X029673Y015168D02*
X029763Y015259D01*
X029853Y015168D01*
X029673Y015168D02*
X029673Y014988D01*
X029577Y014943D02*
X029397Y014943D01*
X029301Y014988D02*
X029121Y015259D01*
X029025Y015259D02*
X029025Y015033D01*
X028980Y014988D01*
X028890Y014988D01*
X028845Y015033D01*
X028845Y015259D01*
X028749Y015168D02*
X028749Y014988D01*
X028749Y015123D02*
X028568Y015123D01*
X028568Y015168D02*
X028658Y015259D01*
X028749Y015168D01*
X028568Y015168D02*
X028568Y014988D01*
X029121Y014988D02*
X029301Y015259D01*
X041645Y021578D02*
X041645Y021758D01*
X041735Y021849D01*
X041825Y021758D01*
X041825Y021578D01*
X041921Y021623D02*
X041966Y021578D01*
X042056Y021578D01*
X042101Y021623D01*
X042101Y021849D01*
X042197Y021849D02*
X042377Y021578D01*
X042473Y021533D02*
X042653Y021533D01*
X042749Y021668D02*
X042840Y021578D01*
X042930Y021668D01*
X042930Y021849D01*
X043026Y021803D02*
X043026Y021623D01*
X043071Y021578D01*
X043161Y021578D01*
X043206Y021623D01*
X043302Y021623D02*
X043347Y021578D01*
X043437Y021578D01*
X043482Y021623D01*
X043482Y021803D01*
X043437Y021849D01*
X043347Y021849D01*
X043302Y021803D01*
X043302Y021623D01*
X043206Y021803D02*
X043161Y021849D01*
X043071Y021849D01*
X043026Y021803D01*
X042749Y021849D02*
X042749Y021668D01*
X042377Y021849D02*
X042197Y021578D01*
X041921Y021623D02*
X041921Y021849D01*
X041825Y021713D02*
X041645Y021713D01*
X043578Y021533D02*
X043758Y021533D01*
X043944Y021578D02*
X043944Y021849D01*
X043854Y021849D02*
X044035Y021849D01*
X044131Y021849D02*
X044131Y021623D01*
X044176Y021578D01*
X044266Y021578D01*
X044311Y021623D01*
X044311Y021849D01*
X044407Y021849D02*
X044587Y021578D01*
X044587Y021849D01*
X044683Y021849D02*
X044683Y021578D01*
X044863Y021578D01*
X044773Y021713D02*
X044683Y021713D01*
X044683Y021849D02*
X044863Y021849D01*
X044407Y021849D02*
X044407Y021578D01*
X080394Y013997D02*
X080394Y013907D01*
X080439Y013862D01*
X080439Y013766D02*
X080394Y013721D01*
X080394Y013631D01*
X080439Y013586D01*
X080484Y013586D01*
X080529Y013631D01*
X080529Y013721D01*
X080574Y013766D01*
X080619Y013766D01*
X080665Y013721D01*
X080665Y013631D01*
X080619Y013586D01*
X080619Y013490D02*
X080439Y013490D01*
X080394Y013445D01*
X080394Y013355D01*
X080439Y013310D01*
X080619Y013310D01*
X080665Y013355D01*
X080665Y013445D01*
X080619Y013490D01*
X080529Y013214D02*
X080574Y013168D01*
X080574Y013033D01*
X080665Y013033D02*
X080394Y013033D01*
X080394Y013168D01*
X080439Y013214D01*
X080529Y013214D01*
X080574Y012937D02*
X080394Y012937D01*
X080394Y012757D02*
X080574Y012757D01*
X080665Y012847D01*
X080574Y012937D01*
X080710Y012661D02*
X080710Y012481D01*
X080665Y012385D02*
X080394Y012205D01*
X080394Y012109D02*
X080619Y012109D01*
X080665Y012064D01*
X080665Y011973D01*
X080619Y011928D01*
X080394Y011928D01*
X080484Y011832D02*
X080665Y011832D01*
X080529Y011832D02*
X080529Y011652D01*
X080484Y011652D02*
X080394Y011742D01*
X080484Y011832D01*
X080484Y011652D02*
X080665Y011652D01*
X079718Y011059D02*
X079718Y010788D01*
X079628Y010788D02*
X079808Y010788D01*
X079628Y010968D02*
X079718Y011059D01*
X079532Y011013D02*
X079487Y011059D01*
X079397Y011059D01*
X079352Y011013D01*
X079352Y010833D01*
X079397Y010788D01*
X079487Y010788D01*
X079532Y010833D01*
X079532Y010923D01*
X079442Y010923D01*
X079256Y010788D02*
X079076Y010788D01*
X079076Y011059D01*
X079256Y011059D01*
X079166Y010923D02*
X079076Y010923D01*
X078980Y010788D02*
X078980Y011059D01*
X078800Y011059D02*
X078980Y010788D01*
X078800Y010788D02*
X078800Y011059D01*
X078703Y011059D02*
X078703Y010878D01*
X078613Y010788D01*
X078523Y010878D01*
X078523Y011059D01*
X078427Y010743D02*
X078247Y010743D01*
X078151Y010788D02*
X077971Y011059D01*
X077875Y011059D02*
X077875Y010833D01*
X077830Y010788D01*
X077740Y010788D01*
X077695Y010833D01*
X077695Y011059D01*
X077599Y010968D02*
X077508Y011059D01*
X077418Y010968D01*
X077418Y010788D01*
X077418Y010923D02*
X077599Y010923D01*
X077599Y010968D02*
X077599Y010788D01*
X077971Y010788D02*
X078151Y011059D01*
X080394Y012385D02*
X080665Y012205D01*
X080665Y013862D02*
X080484Y014042D01*
X080439Y014042D01*
X080394Y013997D01*
X080665Y014042D02*
X080665Y013862D01*
X091345Y009108D02*
X091435Y009199D01*
X091525Y009108D01*
X091525Y008928D01*
X091621Y008973D02*
X091666Y008928D01*
X091756Y008928D01*
X091801Y008973D01*
X091801Y009199D01*
X091897Y009199D02*
X092077Y008928D01*
X092173Y008883D02*
X092353Y008883D01*
X092449Y009018D02*
X092540Y008928D01*
X092630Y009018D01*
X092630Y009199D01*
X092726Y009199D02*
X092906Y008928D01*
X092906Y009199D01*
X093002Y009199D02*
X093002Y008928D01*
X093182Y008928D01*
X093278Y008973D02*
X093323Y008928D01*
X093413Y008928D01*
X093458Y008973D01*
X093458Y009063D01*
X093368Y009063D01*
X093278Y009153D02*
X093278Y008973D01*
X093278Y009153D02*
X093323Y009199D01*
X093413Y009199D01*
X093458Y009153D01*
X093182Y009199D02*
X093002Y009199D01*
X093002Y009063D02*
X093092Y009063D01*
X092726Y008928D02*
X092726Y009199D01*
X092449Y009199D02*
X092449Y009018D01*
X092077Y009199D02*
X091897Y008928D01*
X091621Y008973D02*
X091621Y009199D01*
X091525Y009063D02*
X091345Y009063D01*
X091345Y009108D02*
X091345Y008928D01*
X101826Y015583D02*
X101871Y015538D01*
X101916Y015538D01*
X101961Y015583D01*
X101961Y015809D01*
X101916Y015809D02*
X102006Y015809D01*
X102102Y015809D02*
X102237Y015809D01*
X102282Y015763D01*
X102282Y015673D01*
X102237Y015628D01*
X102102Y015628D01*
X102102Y015538D02*
X102102Y015809D01*
X102378Y015718D02*
X102468Y015809D01*
X102468Y015538D01*
X102378Y015538D02*
X102558Y015538D01*
X111324Y018298D02*
X111324Y018388D01*
X111324Y018343D02*
X111549Y018343D01*
X111595Y018298D01*
X111595Y018253D01*
X111549Y018208D01*
X111504Y018485D02*
X111504Y018620D01*
X111459Y018665D01*
X111369Y018665D01*
X111324Y018620D01*
X111324Y018485D01*
X111595Y018485D01*
X111595Y018761D02*
X111414Y018941D01*
X111369Y018941D01*
X111324Y018896D01*
X111324Y018806D01*
X111369Y018761D01*
X111595Y018761D02*
X111595Y018941D01*
X126174Y019225D02*
X126219Y019180D01*
X126264Y019180D01*
X126309Y019225D01*
X126309Y019315D01*
X126354Y019360D01*
X126399Y019360D01*
X126445Y019315D01*
X126445Y019225D01*
X126399Y019180D01*
X126174Y019225D02*
X126174Y019315D01*
X126219Y019360D01*
X126174Y019456D02*
X126354Y019456D01*
X126445Y019546D01*
X126354Y019636D01*
X126174Y019636D01*
X126264Y019732D02*
X126174Y019822D01*
X126445Y019822D01*
X126445Y019732D02*
X126445Y019912D01*
X090608Y019488D02*
X090428Y019488D01*
X090518Y019488D02*
X090518Y019759D01*
X090428Y019668D01*
X090332Y019713D02*
X090287Y019759D01*
X090197Y019759D01*
X090152Y019713D01*
X090152Y019668D01*
X090197Y019623D01*
X090287Y019623D01*
X090332Y019578D01*
X090332Y019533D01*
X090287Y019488D01*
X090197Y019488D01*
X090152Y019533D01*
X090056Y019533D02*
X090056Y019713D01*
X090011Y019759D01*
X089921Y019759D01*
X089876Y019713D01*
X089876Y019533D01*
X089921Y019488D01*
X090011Y019488D01*
X090056Y019533D01*
X089780Y019623D02*
X089735Y019578D01*
X089600Y019578D01*
X089600Y019488D02*
X089600Y019759D01*
X089735Y019759D01*
X089780Y019713D01*
X089780Y019623D01*
X089503Y019578D02*
X089503Y019759D01*
X089323Y019759D02*
X089323Y019578D01*
X089413Y019488D01*
X089503Y019578D01*
X089227Y019443D02*
X089047Y019443D01*
X088951Y019488D02*
X088771Y019759D01*
X088675Y019759D02*
X088675Y019533D01*
X088630Y019488D01*
X088540Y019488D01*
X088495Y019533D01*
X088495Y019759D01*
X088399Y019668D02*
X088399Y019488D01*
X088399Y019623D02*
X088218Y019623D01*
X088218Y019668D02*
X088308Y019759D01*
X088399Y019668D01*
X088218Y019668D02*
X088218Y019488D01*
X088771Y019488D02*
X088951Y019759D01*
X089473Y023783D02*
X089653Y023783D01*
X089749Y023873D02*
X089794Y023828D01*
X089885Y023828D01*
X089930Y023873D01*
X089930Y023963D01*
X089885Y024008D01*
X089840Y024008D01*
X089749Y023963D01*
X089749Y024099D01*
X089930Y024099D01*
X090026Y024099D02*
X090026Y023918D01*
X090116Y023828D01*
X090206Y023918D01*
X090206Y024099D01*
X089377Y024099D02*
X089197Y023828D01*
X089101Y023873D02*
X089101Y024099D01*
X089197Y024099D02*
X089377Y023828D01*
X089101Y023873D02*
X089056Y023828D01*
X088966Y023828D01*
X088921Y023873D01*
X088921Y024099D01*
X088825Y024008D02*
X088825Y023828D01*
X088825Y023963D02*
X088645Y023963D01*
X088645Y024008D02*
X088735Y024099D01*
X088825Y024008D01*
X088645Y024008D02*
X088645Y023828D01*
X089075Y029608D02*
X089210Y029608D01*
X089255Y029653D01*
X089255Y029833D01*
X089210Y029879D01*
X089075Y029879D01*
X089075Y029608D01*
X089351Y029608D02*
X089351Y029788D01*
X089441Y029879D01*
X089531Y029788D01*
X089531Y029608D01*
X089627Y029653D02*
X089672Y029608D01*
X089762Y029608D01*
X089807Y029653D01*
X089627Y029653D02*
X089627Y029833D01*
X089672Y029879D01*
X089762Y029879D01*
X089807Y029833D01*
X089531Y029743D02*
X089351Y029743D01*
D16*
X089508Y029344D02*
X090611Y029344D01*
X090611Y028242D01*
X089508Y028242D01*
X089508Y029344D01*
X089626Y029108D02*
X089863Y029108D01*
X089861Y029128D01*
X089856Y029148D01*
X089847Y029167D01*
X089835Y029184D01*
X089821Y029198D01*
X089804Y029210D01*
X089785Y029219D01*
X089765Y029224D01*
X089745Y029226D01*
X089725Y029224D01*
X089705Y029219D01*
X089686Y029210D01*
X089669Y029198D01*
X089655Y029184D01*
X089643Y029167D01*
X089634Y029148D01*
X089629Y029128D01*
X089627Y029108D01*
X082676Y021499D02*
X082676Y017488D01*
X086043Y014499D02*
X086043Y010488D01*
X095126Y010488D02*
X095126Y014499D01*
X095943Y016388D02*
X095943Y020399D01*
X107460Y015893D02*
X121460Y015893D01*
X121460Y008893D01*
X107460Y008893D01*
X107460Y011893D01*
X107960Y011893D01*
X107960Y012893D01*
X107460Y012893D01*
X107460Y015893D01*
D17*
X107708Y016618D02*
X108711Y016618D01*
X108711Y017169D01*
X107708Y017169D01*
X107708Y016618D01*
X113085Y017718D02*
X113385Y017718D01*
X113235Y017718D02*
X113235Y018169D01*
X113085Y018019D01*
X113085Y018718D02*
X113385Y019019D01*
X113385Y019094D01*
X113310Y019169D01*
X113160Y019169D01*
X113085Y019094D01*
X113085Y018718D02*
X113385Y018718D01*
X115435Y017244D02*
X115435Y017169D01*
X115510Y017093D01*
X115660Y017093D01*
X115735Y017018D01*
X115735Y016943D01*
X115660Y016868D01*
X115510Y016868D01*
X115435Y016943D01*
X115435Y017018D01*
X115510Y017093D01*
X115660Y017093D02*
X115735Y017169D01*
X115735Y017244D01*
X115660Y017319D01*
X115510Y017319D01*
X115435Y017244D01*
X123434Y018708D02*
X123584Y018558D01*
X123434Y018708D02*
X123885Y018708D01*
X123885Y018558D02*
X123885Y018858D01*
X124434Y018783D02*
X124434Y018633D01*
X124509Y018558D01*
X124434Y018783D02*
X124509Y018858D01*
X124584Y018858D01*
X124885Y018558D01*
X124885Y018858D01*
X122959Y014758D02*
X122884Y014758D01*
X122809Y014683D01*
X122809Y014458D01*
X122959Y014458D01*
X123035Y014533D01*
X123035Y014683D01*
X122959Y014758D01*
X122659Y014608D02*
X122809Y014458D01*
X122659Y014608D02*
X122584Y014758D01*
X123035Y014298D02*
X123035Y013998D01*
X123035Y014148D02*
X122584Y014148D01*
X122734Y013998D01*
X097474Y020087D02*
X096745Y020087D01*
X096745Y021300D01*
X097474Y021300D01*
X097474Y020087D01*
X098734Y023791D02*
X099285Y023791D01*
X099285Y024795D01*
X098734Y024795D01*
X098734Y023791D01*
X100684Y023741D02*
X100684Y024745D01*
X101235Y024745D01*
X101235Y023741D01*
X100684Y023741D01*
X100684Y027191D02*
X101235Y027191D01*
X101235Y028195D01*
X100684Y028195D01*
X100684Y027191D01*
X094824Y029087D02*
X094095Y029087D01*
X094095Y030300D01*
X094824Y030300D01*
X094824Y029087D01*
X093124Y028537D02*
X092395Y028537D01*
X092395Y029750D01*
X093124Y029750D01*
X093124Y028537D01*
X091835Y028941D02*
X091835Y029945D01*
X091284Y029945D01*
X091284Y028941D01*
X091835Y028941D01*
X091235Y029391D02*
X091235Y030395D01*
X090684Y030395D01*
X090684Y029391D01*
X091235Y029391D01*
X054724Y024650D02*
X054724Y023437D01*
X053995Y023437D01*
X053995Y024650D01*
X054724Y024650D01*
X052924Y024600D02*
X052924Y023387D01*
X052195Y023387D01*
X052195Y024600D01*
X052924Y024600D01*
X049061Y026018D02*
X049061Y026569D01*
X048058Y026569D01*
X048058Y026018D01*
X049061Y026018D01*
X050158Y023269D02*
X051161Y023269D01*
X051161Y022718D01*
X050158Y022718D01*
X050158Y023269D01*
X052195Y022900D02*
X052924Y022900D01*
X052924Y021687D01*
X052195Y021687D01*
X052195Y022900D01*
X053995Y022900D02*
X054724Y022900D01*
X054724Y021687D01*
X053995Y021687D01*
X053995Y022900D01*
X053860Y021068D02*
X046760Y021068D01*
X046760Y016068D01*
X054760Y016068D01*
X054760Y020193D01*
X053860Y021068D01*
X054260Y018793D02*
X051260Y018793D01*
X051260Y015793D01*
X054260Y015793D01*
X054260Y018793D01*
X057184Y018495D02*
X057184Y017491D01*
X057735Y017491D01*
X057735Y018495D01*
X057184Y018495D01*
X048335Y015895D02*
X048335Y014891D01*
X047784Y014891D01*
X047784Y015895D01*
X048335Y015895D01*
X047200Y015233D02*
X045920Y015233D01*
X045920Y013953D01*
X047200Y013953D01*
X047200Y015233D01*
X045619Y015393D02*
X045621Y015416D01*
X045627Y015439D01*
X045636Y015460D01*
X045649Y015480D01*
X045665Y015497D01*
X045683Y015511D01*
X045703Y015522D01*
X045725Y015530D01*
X045748Y015534D01*
X045772Y015534D01*
X045795Y015530D01*
X045817Y015522D01*
X045837Y015511D01*
X045855Y015497D01*
X045871Y015480D01*
X045884Y015460D01*
X045893Y015439D01*
X045899Y015416D01*
X045901Y015393D01*
X045899Y015370D01*
X045893Y015347D01*
X045884Y015326D01*
X045871Y015306D01*
X045855Y015289D01*
X045837Y015275D01*
X045817Y015264D01*
X045795Y015256D01*
X045772Y015252D01*
X045748Y015252D01*
X045725Y015256D01*
X045703Y015264D01*
X045683Y015275D01*
X045665Y015289D01*
X045649Y015306D01*
X045636Y015326D01*
X045627Y015347D01*
X045621Y015370D01*
X045619Y015393D01*
X043361Y013969D02*
X042358Y013969D01*
X042358Y013418D01*
X043361Y013418D01*
X043361Y013969D01*
X046758Y013369D02*
X047761Y013369D01*
X047761Y012818D01*
X046758Y012818D01*
X046758Y013369D01*
X044100Y012933D02*
X042820Y012933D01*
X042820Y011653D01*
X044100Y011653D01*
X044100Y012933D01*
X042235Y011995D02*
X041684Y011995D01*
X041684Y010991D01*
X042235Y010991D01*
X042235Y011995D01*
X044119Y011493D02*
X044121Y011516D01*
X044127Y011539D01*
X044136Y011560D01*
X044149Y011580D01*
X044165Y011597D01*
X044183Y011611D01*
X044203Y011622D01*
X044225Y011630D01*
X044248Y011634D01*
X044272Y011634D01*
X044295Y011630D01*
X044317Y011622D01*
X044337Y011611D01*
X044355Y011597D01*
X044371Y011580D01*
X044384Y011560D01*
X044393Y011539D01*
X044399Y011516D01*
X044401Y011493D01*
X044399Y011470D01*
X044393Y011447D01*
X044384Y011426D01*
X044371Y011406D01*
X044355Y011389D01*
X044337Y011375D01*
X044317Y011364D01*
X044295Y011356D01*
X044272Y011352D01*
X044248Y011352D01*
X044225Y011356D01*
X044203Y011364D01*
X044183Y011375D01*
X044165Y011389D01*
X044149Y011406D01*
X044136Y011426D01*
X044127Y011447D01*
X044121Y011470D01*
X044119Y011493D01*
X045719Y011493D02*
X045721Y011516D01*
X045727Y011539D01*
X045736Y011560D01*
X045749Y011580D01*
X045765Y011597D01*
X045783Y011611D01*
X045803Y011622D01*
X045825Y011630D01*
X045848Y011634D01*
X045872Y011634D01*
X045895Y011630D01*
X045917Y011622D01*
X045937Y011611D01*
X045955Y011597D01*
X045971Y011580D01*
X045984Y011560D01*
X045993Y011539D01*
X045999Y011516D01*
X046001Y011493D01*
X045999Y011470D01*
X045993Y011447D01*
X045984Y011426D01*
X045971Y011406D01*
X045955Y011389D01*
X045937Y011375D01*
X045917Y011364D01*
X045895Y011356D01*
X045872Y011352D01*
X045848Y011352D01*
X045825Y011356D01*
X045803Y011364D01*
X045783Y011375D01*
X045765Y011389D01*
X045749Y011406D01*
X045736Y011426D01*
X045727Y011447D01*
X045721Y011470D01*
X045719Y011493D01*
X046020Y011333D02*
X047300Y011333D01*
X047300Y010053D01*
X046020Y010053D01*
X046020Y011333D01*
X047784Y010991D02*
X048335Y010991D01*
X048335Y011995D01*
X047784Y011995D01*
X047784Y010991D01*
X050160Y010793D02*
X050160Y013793D01*
X053160Y013793D01*
X053160Y010793D01*
X050160Y010793D01*
X047435Y009895D02*
X046884Y009895D01*
X046884Y008891D01*
X047435Y008891D01*
X047435Y009895D01*
X053634Y011891D02*
X053634Y012895D01*
X054185Y012895D01*
X054185Y011891D01*
X053634Y011891D01*
X051111Y014218D02*
X051111Y014769D01*
X050108Y014769D01*
X050108Y014218D01*
X051111Y014218D01*
X036761Y012819D02*
X036761Y012268D01*
X035758Y012268D01*
X035758Y012819D01*
X036761Y012819D01*
X033561Y012594D02*
X033561Y012043D01*
X032558Y012043D01*
X032558Y012594D01*
X033561Y012594D01*
X031550Y012558D02*
X030270Y012558D01*
X030270Y011278D01*
X031550Y011278D01*
X031550Y012558D01*
X030061Y012718D02*
X030061Y013269D01*
X029058Y013269D01*
X029058Y012718D01*
X030061Y012718D01*
X029561Y012319D02*
X028558Y012319D01*
X028558Y011768D01*
X029561Y011768D01*
X029561Y012319D01*
X029484Y011395D02*
X029484Y010391D01*
X030035Y010391D01*
X030035Y011395D01*
X029484Y011395D01*
X031569Y011118D02*
X031571Y011141D01*
X031577Y011164D01*
X031586Y011185D01*
X031599Y011205D01*
X031615Y011222D01*
X031633Y011236D01*
X031653Y011247D01*
X031675Y011255D01*
X031698Y011259D01*
X031722Y011259D01*
X031745Y011255D01*
X031767Y011247D01*
X031787Y011236D01*
X031805Y011222D01*
X031821Y011205D01*
X031834Y011185D01*
X031843Y011164D01*
X031849Y011141D01*
X031851Y011118D01*
X031849Y011095D01*
X031843Y011072D01*
X031834Y011051D01*
X031821Y011031D01*
X031805Y011014D01*
X031787Y011000D01*
X031767Y010989D01*
X031745Y010981D01*
X031722Y010977D01*
X031698Y010977D01*
X031675Y010981D01*
X031653Y010989D01*
X031633Y011000D01*
X031615Y011014D01*
X031599Y011031D01*
X031586Y011051D01*
X031577Y011072D01*
X031571Y011095D01*
X031569Y011118D01*
X027560Y010543D02*
X024560Y010543D01*
X024560Y013543D01*
X027560Y013543D01*
X027560Y010543D01*
X031335Y015468D02*
X031335Y016718D01*
X032585Y016718D01*
X032585Y015468D01*
X031335Y015468D01*
X033358Y015818D02*
X033358Y016369D01*
X034361Y016369D01*
X034361Y015818D01*
X033358Y015818D01*
X034584Y016741D02*
X035135Y016741D01*
X035135Y017745D01*
X034584Y017745D01*
X034584Y016741D01*
X033261Y018568D02*
X032258Y018568D01*
X032258Y019119D01*
X033261Y019119D01*
X033261Y018568D01*
X033411Y020318D02*
X032408Y020318D01*
X032408Y020869D01*
X033411Y020869D01*
X033411Y020318D01*
X074253Y009657D02*
X075466Y009657D01*
X075466Y008929D01*
X074253Y008929D01*
X074253Y009657D01*
X074895Y011187D02*
X075624Y011187D01*
X075624Y012400D01*
X074895Y012400D01*
X074895Y011187D01*
X087853Y013429D02*
X087853Y014157D01*
X089066Y014157D01*
X089066Y013429D01*
X087853Y013429D01*
X092495Y013500D02*
X092495Y012287D01*
X093224Y012287D01*
X093224Y013500D01*
X092495Y013500D01*
X092753Y010657D02*
X092753Y009929D01*
X093966Y009929D01*
X093966Y010657D01*
X092753Y010657D01*
X080666Y017979D02*
X079453Y017979D01*
X079453Y018707D01*
X080666Y018707D01*
X080666Y017979D01*
X080666Y019129D02*
X079453Y019129D01*
X079453Y019857D01*
X080666Y019857D01*
X080666Y019129D01*
D18*
X080622Y019908D02*
X079697Y019908D01*
X079697Y020479D01*
X080622Y020479D01*
X080622Y019908D01*
X072022Y021308D02*
X072022Y021879D01*
X071097Y021879D01*
X071097Y021308D01*
X072022Y021308D01*
X072022Y022008D02*
X071097Y022008D01*
X071097Y022579D01*
X072022Y022579D01*
X072022Y022008D01*
X072022Y022708D02*
X071097Y022708D01*
X071097Y023279D01*
X072022Y023279D01*
X072022Y022708D01*
X072022Y023408D02*
X071097Y023408D01*
X071097Y023979D01*
X072022Y023979D01*
X072022Y023408D01*
X071222Y020679D02*
X070297Y020679D01*
X070297Y020108D01*
X071222Y020108D01*
X071222Y020679D01*
X071222Y019979D02*
X070297Y019979D01*
X070297Y019408D01*
X071222Y019408D01*
X071222Y019979D01*
X071222Y019279D02*
X070297Y019279D01*
X070297Y018708D01*
X071222Y018708D01*
X071222Y019279D01*
X053922Y022358D02*
X053922Y022929D01*
X052997Y022929D01*
X052997Y022358D01*
X053922Y022358D01*
X050045Y022181D02*
X050045Y023106D01*
X049474Y023106D01*
X049474Y022181D01*
X050045Y022181D01*
X052997Y023408D02*
X053922Y023408D01*
X053922Y023979D01*
X052997Y023979D01*
X052997Y023408D01*
X048895Y024481D02*
X048895Y025406D01*
X048324Y025406D01*
X048324Y024481D01*
X048895Y024481D01*
X048245Y024481D02*
X048245Y025406D01*
X047674Y025406D01*
X047674Y024481D01*
X048245Y024481D01*
X049647Y026708D02*
X050572Y026708D01*
X050572Y027279D01*
X049647Y027279D01*
X049647Y026708D01*
X049647Y027408D02*
X050572Y027408D01*
X050572Y027979D01*
X049647Y027979D01*
X049647Y027408D01*
X035722Y022029D02*
X034797Y022029D01*
X034797Y021458D01*
X035722Y021458D01*
X035722Y022029D01*
X034572Y022029D02*
X033647Y022029D01*
X033647Y021458D01*
X034572Y021458D01*
X034572Y022029D01*
X035474Y019806D02*
X035474Y018881D01*
X036045Y018881D01*
X036045Y019806D01*
X035474Y019806D01*
X033272Y019779D02*
X032347Y019779D01*
X032347Y019208D01*
X033272Y019208D01*
X033272Y019779D01*
X033874Y017656D02*
X033874Y016731D01*
X034445Y016731D01*
X034445Y017656D01*
X033874Y017656D01*
X037674Y016456D02*
X037674Y015531D01*
X038245Y015531D01*
X038245Y016456D01*
X037674Y016456D01*
X045497Y016179D02*
X045497Y015608D01*
X046422Y015608D01*
X046422Y016179D01*
X045497Y016179D01*
X048497Y014779D02*
X049422Y014779D01*
X049422Y014208D01*
X048497Y014208D01*
X048497Y014779D01*
X048445Y014656D02*
X048445Y013731D01*
X047874Y013731D01*
X047874Y014656D01*
X048445Y014656D01*
X049474Y014656D02*
X049474Y013731D01*
X050045Y013731D01*
X050045Y014656D01*
X049474Y014656D01*
X046522Y012279D02*
X045597Y012279D01*
X045597Y011708D01*
X046522Y011708D01*
X046522Y012279D01*
X047874Y010756D02*
X047874Y009831D01*
X048445Y009831D01*
X048445Y010756D01*
X047874Y010756D01*
X048497Y010879D02*
X048497Y010308D01*
X049422Y010308D01*
X049422Y010879D01*
X048497Y010879D01*
X049474Y010756D02*
X049474Y009831D01*
X050045Y009831D01*
X050045Y010756D01*
X049474Y010756D01*
X032245Y011056D02*
X032245Y010131D01*
X031674Y010131D01*
X031674Y011056D01*
X032245Y011056D01*
X071897Y010908D02*
X072822Y010908D01*
X072822Y011479D01*
X071897Y011479D01*
X071897Y010908D01*
X071897Y011608D02*
X072822Y011608D01*
X072822Y012179D01*
X071897Y012179D01*
X071897Y011608D01*
X071897Y012308D02*
X072822Y012308D01*
X072822Y012879D01*
X071897Y012879D01*
X071897Y012308D01*
X071897Y013008D02*
X072822Y013008D01*
X072822Y013579D01*
X071897Y013579D01*
X071897Y013008D01*
X088097Y012129D02*
X088097Y011558D01*
X089022Y011558D01*
X089022Y012129D01*
X088097Y012129D01*
X091597Y012079D02*
X091597Y011508D01*
X092522Y011508D01*
X092522Y012079D01*
X091597Y012079D01*
X092674Y011956D02*
X092674Y011031D01*
X093245Y011031D01*
X093245Y011956D01*
X092674Y011956D01*
X097947Y017408D02*
X098872Y017408D01*
X098872Y017979D01*
X097947Y017979D01*
X097947Y017408D01*
X094022Y029808D02*
X094022Y030379D01*
X093097Y030379D01*
X093097Y029808D01*
X094022Y029808D01*
X017645Y022656D02*
X017645Y021731D01*
X017074Y021731D01*
X017074Y022656D01*
X017645Y022656D01*
D19*
X082380Y020833D03*
X082380Y020163D03*
X082380Y019493D03*
X082380Y018823D03*
X082380Y018153D03*
X096240Y018393D03*
X096240Y017723D03*
X096240Y017053D03*
X096240Y019063D03*
X096240Y019733D03*
X094830Y013833D03*
X094830Y013163D03*
X094830Y012493D03*
X094830Y011823D03*
X094830Y011153D03*
X086340Y011153D03*
X086340Y011823D03*
X086340Y012493D03*
X086340Y013163D03*
X086340Y013833D03*
M02*
