G75*
%MOIN*%
%OFA0B0*%
%FSLAX24Y24*%
%IPPOS*%
%LPD*%
%AMOC8*
5,1,8,0,0,1.08239X$1,22.5*
%
%ADD10C,0.0000*%
%ADD11C,0.0100*%
%ADD12C,0.0040*%
%ADD13C,0.0050*%
D10*
X007460Y008393D02*
X127460Y008393D01*
X127460Y020893D01*
X107460Y020893D01*
X107460Y033393D01*
X007460Y033393D01*
X007460Y008393D01*
X009380Y010893D02*
X009382Y010941D01*
X009388Y010988D01*
X009398Y011035D01*
X009411Y011081D01*
X009429Y011126D01*
X009450Y011169D01*
X009474Y011210D01*
X009502Y011249D01*
X009533Y011286D01*
X009567Y011320D01*
X009604Y011351D01*
X009643Y011379D01*
X009684Y011403D01*
X009727Y011424D01*
X009772Y011442D01*
X009818Y011455D01*
X009865Y011465D01*
X009912Y011471D01*
X009960Y011473D01*
X010008Y011471D01*
X010055Y011465D01*
X010102Y011455D01*
X010148Y011442D01*
X010193Y011424D01*
X010236Y011403D01*
X010277Y011379D01*
X010316Y011351D01*
X010353Y011320D01*
X010387Y011286D01*
X010418Y011249D01*
X010446Y011210D01*
X010470Y011169D01*
X010491Y011126D01*
X010509Y011081D01*
X010522Y011035D01*
X010532Y010988D01*
X010538Y010941D01*
X010540Y010893D01*
X010538Y010845D01*
X010532Y010798D01*
X010522Y010751D01*
X010509Y010705D01*
X010491Y010660D01*
X010470Y010617D01*
X010446Y010576D01*
X010418Y010537D01*
X010387Y010500D01*
X010353Y010466D01*
X010316Y010435D01*
X010277Y010407D01*
X010236Y010383D01*
X010193Y010362D01*
X010148Y010344D01*
X010102Y010331D01*
X010055Y010321D01*
X010008Y010315D01*
X009960Y010313D01*
X009912Y010315D01*
X009865Y010321D01*
X009818Y010331D01*
X009772Y010344D01*
X009727Y010362D01*
X009684Y010383D01*
X009643Y010407D01*
X009604Y010435D01*
X009567Y010466D01*
X009533Y010500D01*
X009502Y010537D01*
X009474Y010576D01*
X009450Y010617D01*
X009429Y010660D01*
X009411Y010705D01*
X009398Y010751D01*
X009388Y010798D01*
X009382Y010845D01*
X009380Y010893D01*
X072460Y015893D02*
X072462Y015992D01*
X072468Y016092D01*
X072478Y016191D01*
X072492Y016289D01*
X072509Y016387D01*
X072531Y016484D01*
X072556Y016580D01*
X072585Y016675D01*
X072618Y016769D01*
X072655Y016861D01*
X072695Y016952D01*
X072739Y017041D01*
X072787Y017129D01*
X072838Y017214D01*
X072892Y017297D01*
X072949Y017379D01*
X073010Y017457D01*
X073074Y017534D01*
X073140Y017607D01*
X073210Y017678D01*
X073282Y017746D01*
X073357Y017812D01*
X073435Y017874D01*
X073515Y017933D01*
X073597Y017989D01*
X073681Y018041D01*
X073768Y018090D01*
X073856Y018136D01*
X073946Y018178D01*
X074038Y018217D01*
X074131Y018252D01*
X074225Y018283D01*
X074321Y018310D01*
X074418Y018333D01*
X074515Y018353D01*
X074613Y018369D01*
X074712Y018381D01*
X074811Y018389D01*
X074910Y018393D01*
X075010Y018393D01*
X075109Y018389D01*
X075208Y018381D01*
X075307Y018369D01*
X075405Y018353D01*
X075502Y018333D01*
X075599Y018310D01*
X075695Y018283D01*
X075789Y018252D01*
X075882Y018217D01*
X075974Y018178D01*
X076064Y018136D01*
X076152Y018090D01*
X076239Y018041D01*
X076323Y017989D01*
X076405Y017933D01*
X076485Y017874D01*
X076563Y017812D01*
X076638Y017746D01*
X076710Y017678D01*
X076780Y017607D01*
X076846Y017534D01*
X076910Y017457D01*
X076971Y017379D01*
X077028Y017297D01*
X077082Y017214D01*
X077133Y017129D01*
X077181Y017041D01*
X077225Y016952D01*
X077265Y016861D01*
X077302Y016769D01*
X077335Y016675D01*
X077364Y016580D01*
X077389Y016484D01*
X077411Y016387D01*
X077428Y016289D01*
X077442Y016191D01*
X077452Y016092D01*
X077458Y015992D01*
X077460Y015893D01*
X077458Y015794D01*
X077452Y015694D01*
X077442Y015595D01*
X077428Y015497D01*
X077411Y015399D01*
X077389Y015302D01*
X077364Y015206D01*
X077335Y015111D01*
X077302Y015017D01*
X077265Y014925D01*
X077225Y014834D01*
X077181Y014745D01*
X077133Y014657D01*
X077082Y014572D01*
X077028Y014489D01*
X076971Y014407D01*
X076910Y014329D01*
X076846Y014252D01*
X076780Y014179D01*
X076710Y014108D01*
X076638Y014040D01*
X076563Y013974D01*
X076485Y013912D01*
X076405Y013853D01*
X076323Y013797D01*
X076239Y013745D01*
X076152Y013696D01*
X076064Y013650D01*
X075974Y013608D01*
X075882Y013569D01*
X075789Y013534D01*
X075695Y013503D01*
X075599Y013476D01*
X075502Y013453D01*
X075405Y013433D01*
X075307Y013417D01*
X075208Y013405D01*
X075109Y013397D01*
X075010Y013393D01*
X074910Y013393D01*
X074811Y013397D01*
X074712Y013405D01*
X074613Y013417D01*
X074515Y013433D01*
X074418Y013453D01*
X074321Y013476D01*
X074225Y013503D01*
X074131Y013534D01*
X074038Y013569D01*
X073946Y013608D01*
X073856Y013650D01*
X073768Y013696D01*
X073681Y013745D01*
X073597Y013797D01*
X073515Y013853D01*
X073435Y013912D01*
X073357Y013974D01*
X073282Y014040D01*
X073210Y014108D01*
X073140Y014179D01*
X073074Y014252D01*
X073010Y014329D01*
X072949Y014407D01*
X072892Y014489D01*
X072838Y014572D01*
X072787Y014657D01*
X072739Y014745D01*
X072695Y014834D01*
X072655Y014925D01*
X072618Y015017D01*
X072585Y015111D01*
X072556Y015206D01*
X072531Y015302D01*
X072509Y015399D01*
X072492Y015497D01*
X072478Y015595D01*
X072468Y015694D01*
X072462Y015794D01*
X072460Y015893D01*
X104380Y010893D02*
X104382Y010941D01*
X104388Y010988D01*
X104398Y011035D01*
X104411Y011081D01*
X104429Y011126D01*
X104450Y011169D01*
X104474Y011210D01*
X104502Y011249D01*
X104533Y011286D01*
X104567Y011320D01*
X104604Y011351D01*
X104643Y011379D01*
X104684Y011403D01*
X104727Y011424D01*
X104772Y011442D01*
X104818Y011455D01*
X104865Y011465D01*
X104912Y011471D01*
X104960Y011473D01*
X105008Y011471D01*
X105055Y011465D01*
X105102Y011455D01*
X105148Y011442D01*
X105193Y011424D01*
X105236Y011403D01*
X105277Y011379D01*
X105316Y011351D01*
X105353Y011320D01*
X105387Y011286D01*
X105418Y011249D01*
X105446Y011210D01*
X105470Y011169D01*
X105491Y011126D01*
X105509Y011081D01*
X105522Y011035D01*
X105532Y010988D01*
X105538Y010941D01*
X105540Y010893D01*
X105538Y010845D01*
X105532Y010798D01*
X105522Y010751D01*
X105509Y010705D01*
X105491Y010660D01*
X105470Y010617D01*
X105446Y010576D01*
X105418Y010537D01*
X105387Y010500D01*
X105353Y010466D01*
X105316Y010435D01*
X105277Y010407D01*
X105236Y010383D01*
X105193Y010362D01*
X105148Y010344D01*
X105102Y010331D01*
X105055Y010321D01*
X105008Y010315D01*
X104960Y010313D01*
X104912Y010315D01*
X104865Y010321D01*
X104818Y010331D01*
X104772Y010344D01*
X104727Y010362D01*
X104684Y010383D01*
X104643Y010407D01*
X104604Y010435D01*
X104567Y010466D01*
X104533Y010500D01*
X104502Y010537D01*
X104474Y010576D01*
X104450Y010617D01*
X104429Y010660D01*
X104411Y010705D01*
X104398Y010751D01*
X104388Y010798D01*
X104382Y010845D01*
X104380Y010893D01*
X101712Y026051D02*
X101714Y026098D01*
X101720Y026144D01*
X101730Y026190D01*
X101743Y026235D01*
X101761Y026278D01*
X101782Y026320D01*
X101806Y026360D01*
X101834Y026397D01*
X101865Y026432D01*
X101899Y026465D01*
X101935Y026494D01*
X101974Y026520D01*
X102015Y026543D01*
X102058Y026562D01*
X102102Y026578D01*
X102147Y026590D01*
X102193Y026598D01*
X102240Y026602D01*
X102286Y026602D01*
X102333Y026598D01*
X102379Y026590D01*
X102424Y026578D01*
X102468Y026562D01*
X102511Y026543D01*
X102552Y026520D01*
X102591Y026494D01*
X102627Y026465D01*
X102661Y026432D01*
X102692Y026397D01*
X102720Y026360D01*
X102744Y026320D01*
X102765Y026278D01*
X102783Y026235D01*
X102796Y026190D01*
X102806Y026144D01*
X102812Y026098D01*
X102814Y026051D01*
X102812Y026004D01*
X102806Y025958D01*
X102796Y025912D01*
X102783Y025867D01*
X102765Y025824D01*
X102744Y025782D01*
X102720Y025742D01*
X102692Y025705D01*
X102661Y025670D01*
X102627Y025637D01*
X102591Y025608D01*
X102552Y025582D01*
X102511Y025559D01*
X102468Y025540D01*
X102424Y025524D01*
X102379Y025512D01*
X102333Y025504D01*
X102286Y025500D01*
X102240Y025500D01*
X102193Y025504D01*
X102147Y025512D01*
X102102Y025524D01*
X102058Y025540D01*
X102015Y025559D01*
X101974Y025582D01*
X101935Y025608D01*
X101899Y025637D01*
X101865Y025670D01*
X101834Y025705D01*
X101806Y025742D01*
X101782Y025782D01*
X101761Y025824D01*
X101743Y025867D01*
X101730Y025912D01*
X101720Y025958D01*
X101714Y026004D01*
X101712Y026051D01*
X097184Y026051D02*
X097186Y026098D01*
X097192Y026144D01*
X097202Y026190D01*
X097215Y026235D01*
X097233Y026278D01*
X097254Y026320D01*
X097278Y026360D01*
X097306Y026397D01*
X097337Y026432D01*
X097371Y026465D01*
X097407Y026494D01*
X097446Y026520D01*
X097487Y026543D01*
X097530Y026562D01*
X097574Y026578D01*
X097619Y026590D01*
X097665Y026598D01*
X097712Y026602D01*
X097758Y026602D01*
X097805Y026598D01*
X097851Y026590D01*
X097896Y026578D01*
X097940Y026562D01*
X097983Y026543D01*
X098024Y026520D01*
X098063Y026494D01*
X098099Y026465D01*
X098133Y026432D01*
X098164Y026397D01*
X098192Y026360D01*
X098216Y026320D01*
X098237Y026278D01*
X098255Y026235D01*
X098268Y026190D01*
X098278Y026144D01*
X098284Y026098D01*
X098286Y026051D01*
X098284Y026004D01*
X098278Y025958D01*
X098268Y025912D01*
X098255Y025867D01*
X098237Y025824D01*
X098216Y025782D01*
X098192Y025742D01*
X098164Y025705D01*
X098133Y025670D01*
X098099Y025637D01*
X098063Y025608D01*
X098024Y025582D01*
X097983Y025559D01*
X097940Y025540D01*
X097896Y025524D01*
X097851Y025512D01*
X097805Y025504D01*
X097758Y025500D01*
X097712Y025500D01*
X097665Y025504D01*
X097619Y025512D01*
X097574Y025524D01*
X097530Y025540D01*
X097487Y025559D01*
X097446Y025582D01*
X097407Y025608D01*
X097371Y025637D01*
X097337Y025670D01*
X097306Y025705D01*
X097278Y025742D01*
X097254Y025782D01*
X097233Y025824D01*
X097215Y025867D01*
X097202Y025912D01*
X097192Y025958D01*
X097186Y026004D01*
X097184Y026051D01*
X099380Y030893D02*
X099382Y030941D01*
X099388Y030988D01*
X099398Y031035D01*
X099411Y031081D01*
X099429Y031126D01*
X099450Y031169D01*
X099474Y031210D01*
X099502Y031249D01*
X099533Y031286D01*
X099567Y031320D01*
X099604Y031351D01*
X099643Y031379D01*
X099684Y031403D01*
X099727Y031424D01*
X099772Y031442D01*
X099818Y031455D01*
X099865Y031465D01*
X099912Y031471D01*
X099960Y031473D01*
X100008Y031471D01*
X100055Y031465D01*
X100102Y031455D01*
X100148Y031442D01*
X100193Y031424D01*
X100236Y031403D01*
X100277Y031379D01*
X100316Y031351D01*
X100353Y031320D01*
X100387Y031286D01*
X100418Y031249D01*
X100446Y031210D01*
X100470Y031169D01*
X100491Y031126D01*
X100509Y031081D01*
X100522Y031035D01*
X100532Y030988D01*
X100538Y030941D01*
X100540Y030893D01*
X100538Y030845D01*
X100532Y030798D01*
X100522Y030751D01*
X100509Y030705D01*
X100491Y030660D01*
X100470Y030617D01*
X100446Y030576D01*
X100418Y030537D01*
X100387Y030500D01*
X100353Y030466D01*
X100316Y030435D01*
X100277Y030407D01*
X100236Y030383D01*
X100193Y030362D01*
X100148Y030344D01*
X100102Y030331D01*
X100055Y030321D01*
X100008Y030315D01*
X099960Y030313D01*
X099912Y030315D01*
X099865Y030321D01*
X099818Y030331D01*
X099772Y030344D01*
X099727Y030362D01*
X099684Y030383D01*
X099643Y030407D01*
X099604Y030435D01*
X099567Y030466D01*
X099533Y030500D01*
X099502Y030537D01*
X099474Y030576D01*
X099450Y030617D01*
X099429Y030660D01*
X099411Y030705D01*
X099398Y030751D01*
X099388Y030798D01*
X099382Y030845D01*
X099380Y030893D01*
X009380Y030893D02*
X009382Y030941D01*
X009388Y030988D01*
X009398Y031035D01*
X009411Y031081D01*
X009429Y031126D01*
X009450Y031169D01*
X009474Y031210D01*
X009502Y031249D01*
X009533Y031286D01*
X009567Y031320D01*
X009604Y031351D01*
X009643Y031379D01*
X009684Y031403D01*
X009727Y031424D01*
X009772Y031442D01*
X009818Y031455D01*
X009865Y031465D01*
X009912Y031471D01*
X009960Y031473D01*
X010008Y031471D01*
X010055Y031465D01*
X010102Y031455D01*
X010148Y031442D01*
X010193Y031424D01*
X010236Y031403D01*
X010277Y031379D01*
X010316Y031351D01*
X010353Y031320D01*
X010387Y031286D01*
X010418Y031249D01*
X010446Y031210D01*
X010470Y031169D01*
X010491Y031126D01*
X010509Y031081D01*
X010522Y031035D01*
X010532Y030988D01*
X010538Y030941D01*
X010540Y030893D01*
X010538Y030845D01*
X010532Y030798D01*
X010522Y030751D01*
X010509Y030705D01*
X010491Y030660D01*
X010470Y030617D01*
X010446Y030576D01*
X010418Y030537D01*
X010387Y030500D01*
X010353Y030466D01*
X010316Y030435D01*
X010277Y030407D01*
X010236Y030383D01*
X010193Y030362D01*
X010148Y030344D01*
X010102Y030331D01*
X010055Y030321D01*
X010008Y030315D01*
X009960Y030313D01*
X009912Y030315D01*
X009865Y030321D01*
X009818Y030331D01*
X009772Y030344D01*
X009727Y030362D01*
X009684Y030383D01*
X009643Y030407D01*
X009604Y030435D01*
X009567Y030466D01*
X009533Y030500D01*
X009502Y030537D01*
X009474Y030576D01*
X009450Y030617D01*
X009429Y030660D01*
X009411Y030705D01*
X009398Y030751D01*
X009388Y030798D01*
X009382Y030845D01*
X009380Y030893D01*
D11*
X015210Y028393D02*
X015210Y023393D01*
X019710Y023393D01*
X019710Y028393D01*
X015460Y028393D01*
X015460Y027143D01*
X015460Y028393D02*
X015210Y028393D01*
X032710Y028393D02*
X032710Y023393D01*
X037210Y023393D01*
X037210Y028393D01*
X032960Y028393D01*
X032960Y027143D01*
X032960Y028393D02*
X032710Y028393D01*
X055210Y028393D02*
X055210Y023393D01*
X059710Y023393D01*
X059710Y028393D01*
X055460Y028393D01*
X055460Y027143D01*
X055460Y028393D02*
X055210Y028393D01*
X072710Y028393D02*
X072710Y023393D01*
X077210Y023393D01*
X077210Y028393D01*
X072960Y028393D01*
X072960Y027143D01*
X072960Y028393D02*
X072710Y028393D01*
D12*
X066940Y028374D02*
X066940Y028067D01*
X066786Y027913D01*
X066633Y028067D01*
X066633Y028374D01*
X066479Y028297D02*
X066479Y027990D01*
X066402Y027913D01*
X066249Y027913D01*
X066172Y027990D01*
X066019Y027990D02*
X065942Y027913D01*
X065789Y027913D01*
X065712Y027990D01*
X065712Y028297D01*
X065789Y028374D01*
X065942Y028374D01*
X066019Y028297D01*
X066019Y027990D01*
X066172Y028297D02*
X066249Y028374D01*
X066402Y028374D01*
X066479Y028297D01*
X065098Y028374D02*
X065098Y027913D01*
X064791Y027913D01*
X064638Y027913D02*
X064331Y028374D01*
X064177Y028374D02*
X063870Y028374D01*
X064024Y028374D02*
X064024Y027913D01*
X064331Y027913D02*
X064638Y028374D01*
X064791Y028374D02*
X065098Y028374D01*
X065098Y028144D02*
X064944Y028144D01*
X065251Y027837D02*
X065558Y027837D01*
X081831Y027913D02*
X082138Y027913D01*
X082138Y028374D01*
X082291Y028374D02*
X082598Y028374D01*
X082598Y027913D01*
X082291Y027913D01*
X082444Y028144D02*
X082598Y028144D01*
X082751Y028067D02*
X082751Y027990D01*
X082828Y027913D01*
X082982Y027913D01*
X083058Y027990D01*
X082982Y028144D02*
X082828Y028144D01*
X082751Y028067D01*
X082751Y028297D02*
X082828Y028374D01*
X082982Y028374D01*
X083058Y028297D01*
X083058Y028220D01*
X082982Y028144D01*
X083212Y027837D02*
X083519Y027837D01*
X083826Y028144D02*
X083979Y028144D01*
X084133Y028144D02*
X084133Y028297D01*
X084209Y028374D01*
X084440Y028374D01*
X084440Y027913D01*
X084440Y028067D02*
X084209Y028067D01*
X084133Y028144D01*
X084286Y028067D02*
X084133Y027913D01*
X083979Y027913D02*
X083979Y028374D01*
X083672Y028374D01*
X098786Y024092D02*
X098786Y024016D01*
X098863Y023939D01*
X099093Y023939D01*
X099093Y024169D02*
X098863Y024169D01*
X098786Y024092D01*
X098863Y023939D02*
X098786Y023862D01*
X098786Y023785D01*
X098863Y023709D01*
X099093Y023709D01*
X099093Y024169D01*
X100853Y024016D02*
X100853Y023709D01*
X100853Y023939D02*
X101160Y023939D01*
X101160Y024016D02*
X101007Y024169D01*
X100853Y024016D01*
X101160Y024016D02*
X101160Y023709D01*
X102852Y026957D02*
X102775Y027033D01*
X102775Y027187D01*
X102852Y027264D01*
X102928Y027264D01*
X103005Y027187D01*
X103005Y027033D01*
X103082Y026957D01*
X103158Y026957D01*
X103235Y027033D01*
X103235Y027187D01*
X103158Y027264D01*
X103235Y027417D02*
X102775Y027417D01*
X102928Y027570D01*
X102775Y027724D01*
X103235Y027724D01*
X102698Y027877D02*
X102698Y028184D01*
X102775Y028338D02*
X102775Y028645D01*
X102775Y028798D02*
X103235Y028798D01*
X102775Y029105D01*
X103235Y029105D01*
X103158Y029259D02*
X102852Y029259D01*
X102775Y029335D01*
X102775Y029489D01*
X102852Y029566D01*
X103158Y029566D02*
X103235Y029489D01*
X103235Y029335D01*
X103158Y029259D01*
X103235Y028645D02*
X103235Y028338D01*
X102775Y028338D01*
X103005Y028338D02*
X103005Y028491D01*
X077440Y022874D02*
X077440Y022413D01*
X077440Y022567D02*
X077209Y022567D01*
X077133Y022644D01*
X077133Y022797D01*
X077209Y022874D01*
X077440Y022874D01*
X077286Y022567D02*
X077133Y022413D01*
X076979Y022413D02*
X076979Y022874D01*
X076672Y022874D01*
X076826Y022644D02*
X076979Y022644D01*
X076519Y022337D02*
X076212Y022337D01*
X076058Y022490D02*
X075982Y022413D01*
X075828Y022413D01*
X075751Y022490D01*
X075751Y022567D01*
X075828Y022644D01*
X075982Y022644D01*
X076058Y022720D01*
X076058Y022797D01*
X075982Y022874D01*
X075828Y022874D01*
X075751Y022797D01*
X075598Y022874D02*
X075598Y022413D01*
X075291Y022413D01*
X075138Y022413D02*
X074831Y022413D01*
X074677Y022413D02*
X074370Y022413D01*
X074217Y022490D02*
X074140Y022413D01*
X073987Y022413D01*
X073910Y022490D01*
X074217Y022490D02*
X074217Y022797D01*
X074140Y022874D01*
X073987Y022874D01*
X073910Y022797D01*
X073756Y022874D02*
X073449Y022874D01*
X073603Y022874D02*
X073603Y022413D01*
X074370Y022874D02*
X074677Y022874D01*
X074677Y022413D01*
X074677Y022644D02*
X074524Y022644D01*
X075138Y022874D02*
X075138Y022413D01*
X075444Y022644D02*
X075598Y022644D01*
X075598Y022874D02*
X075291Y022874D01*
X059940Y022874D02*
X059940Y022567D01*
X059786Y022413D01*
X059633Y022567D01*
X059633Y022874D01*
X059479Y022797D02*
X059479Y022490D01*
X059402Y022413D01*
X059249Y022413D01*
X059172Y022490D01*
X059019Y022490D02*
X058942Y022413D01*
X058789Y022413D01*
X058712Y022490D01*
X058712Y022797D01*
X058789Y022874D01*
X058942Y022874D01*
X059019Y022797D01*
X059019Y022490D01*
X059172Y022797D02*
X059249Y022874D01*
X059402Y022874D01*
X059479Y022797D01*
X058098Y022874D02*
X057791Y022874D01*
X057638Y022874D02*
X057638Y022490D01*
X057561Y022413D01*
X057407Y022413D01*
X057331Y022490D01*
X057331Y022874D01*
X057177Y022874D02*
X056870Y022413D01*
X056870Y022874D01*
X056717Y022874D02*
X056717Y022413D01*
X056410Y022413D01*
X056563Y022644D02*
X056717Y022644D01*
X056717Y022874D02*
X056410Y022874D01*
X057177Y022874D02*
X057177Y022413D01*
X057944Y022413D02*
X057944Y022874D01*
X058251Y022337D02*
X058558Y022337D01*
X058519Y018374D02*
X058212Y017913D01*
X058212Y018374D01*
X058519Y018374D02*
X058519Y017913D01*
X058672Y017990D02*
X058749Y017913D01*
X058902Y017913D01*
X058979Y017990D01*
X058979Y018297D01*
X058902Y018374D01*
X058749Y018374D01*
X058672Y018297D01*
X058672Y017990D01*
X059133Y017913D02*
X059133Y018374D01*
X059286Y018220D01*
X059440Y018374D01*
X059440Y017913D01*
X037440Y022413D02*
X037440Y022720D01*
X037286Y022874D01*
X037133Y022720D01*
X037133Y022413D01*
X037133Y022644D02*
X037440Y022644D01*
X036979Y022874D02*
X036672Y022874D01*
X036519Y022874D02*
X036212Y022874D01*
X036365Y022874D02*
X036365Y022413D01*
X036058Y022413D02*
X035751Y022413D01*
X035598Y022413D02*
X035598Y022874D01*
X035291Y022413D01*
X035291Y022874D01*
X035138Y022874D02*
X035138Y022490D01*
X035061Y022413D01*
X034907Y022413D01*
X034831Y022490D01*
X034831Y022874D01*
X034677Y022720D02*
X034524Y022874D01*
X034370Y022720D01*
X034370Y022413D01*
X034370Y022644D02*
X034677Y022644D01*
X034677Y022720D02*
X034677Y022413D01*
X034063Y022413D02*
X034063Y022874D01*
X033910Y022874D02*
X034217Y022874D01*
X033756Y022874D02*
X033603Y022874D01*
X033680Y022874D02*
X033680Y022413D01*
X033756Y022413D02*
X033603Y022413D01*
X033449Y022490D02*
X033373Y022413D01*
X033219Y022413D01*
X033143Y022490D01*
X033143Y022797D01*
X033219Y022874D01*
X033373Y022874D01*
X033449Y022797D01*
X033449Y022490D01*
X032989Y022413D02*
X032989Y022874D01*
X032682Y022413D01*
X032682Y022874D01*
X035751Y022874D02*
X036058Y022874D01*
X036058Y022413D01*
X036058Y022644D02*
X035905Y022644D01*
X036826Y022413D02*
X036826Y022874D01*
X019940Y022797D02*
X019940Y022490D01*
X019863Y022413D01*
X019709Y022413D01*
X019633Y022490D01*
X019633Y022797D01*
X019709Y022874D01*
X019863Y022874D01*
X019940Y022797D01*
X019479Y022874D02*
X019479Y022490D01*
X019402Y022413D01*
X019249Y022413D01*
X019172Y022490D01*
X019172Y022874D01*
X019019Y022874D02*
X018712Y022874D01*
X018865Y022874D02*
X018865Y022413D01*
X018558Y022413D02*
X018558Y022874D01*
X018328Y022874D01*
X018251Y022797D01*
X018251Y022644D01*
X018328Y022567D01*
X018558Y022567D01*
X018098Y022490D02*
X018098Y022874D01*
X017791Y022874D02*
X017791Y022490D01*
X017868Y022413D01*
X018021Y022413D01*
X018098Y022490D01*
X017638Y022874D02*
X017331Y022874D01*
X017484Y022874D02*
X017484Y022413D01*
X017177Y022337D02*
X016870Y022337D01*
X016563Y022413D02*
X016563Y022874D01*
X016410Y022874D02*
X016717Y022874D01*
X016256Y022874D02*
X015949Y022874D01*
X015796Y022874D02*
X015796Y022413D01*
X015489Y022413D01*
X016103Y022413D02*
X016103Y022874D01*
X023870Y027837D02*
X024177Y027837D01*
X024484Y027913D02*
X024484Y028374D01*
X024331Y028374D02*
X024638Y028374D01*
X024791Y028374D02*
X024791Y027990D01*
X024868Y027913D01*
X025021Y027913D01*
X025098Y027990D01*
X025098Y028374D01*
X025251Y028297D02*
X025251Y028144D01*
X025328Y028067D01*
X025558Y028067D01*
X025558Y027913D02*
X025558Y028374D01*
X025328Y028374D01*
X025251Y028297D01*
X025712Y028374D02*
X026019Y028374D01*
X026172Y028374D02*
X026172Y027990D01*
X026249Y027913D01*
X026402Y027913D01*
X026479Y027990D01*
X026479Y028374D01*
X026633Y028297D02*
X026709Y028374D01*
X026863Y028374D01*
X026940Y028297D01*
X026940Y027990D01*
X026863Y027913D01*
X026709Y027913D01*
X026633Y027990D01*
X026633Y028297D01*
X025865Y028374D02*
X025865Y027913D01*
X023717Y027913D02*
X023410Y027913D01*
X023256Y027913D02*
X022949Y028374D01*
X022796Y028374D02*
X022489Y028374D01*
X022643Y028374D02*
X022643Y027913D01*
X022949Y027913D02*
X023256Y028374D01*
X023410Y028374D02*
X023717Y028374D01*
X023717Y027913D01*
X023717Y028144D02*
X023563Y028144D01*
X041370Y028374D02*
X041677Y028374D01*
X041524Y028374D02*
X041524Y027913D01*
X041831Y027913D02*
X042138Y028374D01*
X042291Y028374D02*
X042598Y028374D01*
X042598Y027913D01*
X042291Y027913D01*
X042138Y027913D02*
X041831Y028374D01*
X042444Y028144D02*
X042598Y028144D01*
X042751Y027837D02*
X043058Y027837D01*
X043365Y027913D02*
X043365Y028374D01*
X043212Y028374D02*
X043519Y028374D01*
X043672Y028374D02*
X043979Y028374D01*
X043826Y028374D02*
X043826Y027913D01*
X044133Y027913D02*
X044133Y028220D01*
X044286Y028374D01*
X044440Y028220D01*
X044440Y027913D01*
X044440Y028144D02*
X044133Y028144D01*
D13*
X045360Y029073D02*
X039560Y029073D01*
X039560Y023023D01*
X045360Y023023D01*
X045360Y029073D01*
X062060Y029073D02*
X062060Y023023D01*
X067860Y023023D01*
X067860Y029073D01*
X062060Y029073D01*
X079560Y029073D02*
X079560Y023023D01*
X085360Y023023D01*
X085360Y029073D01*
X079560Y029073D01*
X097538Y028708D02*
X097538Y023393D01*
X102460Y023393D01*
X102460Y028708D01*
X097538Y028708D01*
X098974Y028216D02*
X098976Y028239D01*
X098982Y028261D01*
X098991Y028282D01*
X099003Y028301D01*
X099019Y028318D01*
X099037Y028332D01*
X099057Y028343D01*
X099079Y028351D01*
X099102Y028355D01*
X099124Y028355D01*
X099147Y028351D01*
X099169Y028343D01*
X099189Y028332D01*
X099207Y028318D01*
X099223Y028301D01*
X099235Y028282D01*
X099244Y028261D01*
X099250Y028239D01*
X099252Y028216D01*
X099250Y028193D01*
X099244Y028171D01*
X099235Y028150D01*
X099223Y028131D01*
X099207Y028114D01*
X099189Y028100D01*
X099169Y028089D01*
X099147Y028081D01*
X099124Y028077D01*
X099102Y028077D01*
X099079Y028081D01*
X099057Y028089D01*
X099037Y028100D01*
X099019Y028114D01*
X099003Y028131D01*
X098991Y028150D01*
X098982Y028171D01*
X098976Y028193D01*
X098974Y028216D01*
X099113Y027724D02*
X100885Y028216D01*
X100097Y024082D02*
X099900Y024082D01*
X099802Y023885D02*
X100196Y023885D01*
X100294Y023689D02*
X099704Y023689D01*
X060360Y019073D02*
X060360Y013023D01*
X054560Y013023D01*
X054560Y019073D01*
X060360Y019073D01*
X027860Y023023D02*
X027860Y029073D01*
X022060Y029073D01*
X022060Y023023D01*
X027860Y023023D01*
M02*
