G75*
%MOIN*%
%OFA0B0*%
%FSLAX24Y24*%
%IPPOS*%
%LPD*%
%AMOC8*
5,1,8,0,0,1.08239X$1,22.5*
%
%ADD10C,0.0600*%
%ADD11C,0.1050*%
%ADD12C,0.0531*%
%ADD13C,0.0987*%
%ADD14C,0.0672*%
%ADD15C,0.0570*%
%ADD16C,0.0591*%
%ADD17C,0.0790*%
%ADD18C,0.0870*%
%ADD19C,0.0396*%
%ADD20C,0.0200*%
%ADD21C,0.0360*%
%ADD22C,0.0180*%
%ADD23C,0.0120*%
%ADD24C,0.0100*%
%ADD25C,0.2000*%
%ADD26C,0.0400*%
D10*
X023950Y008700D03*
X024950Y008700D03*
X042300Y009800D03*
X042300Y010800D03*
X072300Y007200D03*
X073300Y007200D03*
X082400Y009500D03*
X082400Y010500D03*
X092850Y008350D03*
X093850Y008350D03*
X094850Y008350D03*
X084100Y002100D03*
X083100Y002100D03*
X082300Y015300D03*
X082300Y016300D03*
D11*
X068650Y015850D03*
X066700Y015850D03*
X066750Y017700D03*
X068650Y017700D03*
X068650Y019550D03*
X066750Y019550D03*
X051150Y019550D03*
X049250Y019550D03*
X049250Y017700D03*
X051150Y017700D03*
X051150Y015850D03*
X049200Y015850D03*
X028650Y015850D03*
X026700Y015850D03*
X026750Y017700D03*
X028650Y017700D03*
X028650Y019550D03*
X026750Y019550D03*
X011150Y019550D03*
X009250Y019550D03*
X009250Y017700D03*
X011150Y017700D03*
X011150Y015850D03*
X009200Y015850D03*
D12*
X105043Y011836D03*
X105633Y011836D03*
X106224Y011836D03*
X106815Y011836D03*
X107405Y011836D03*
X107996Y011836D03*
X108586Y011836D03*
X109177Y011836D03*
X109767Y011836D03*
X110358Y011836D03*
D13*
X114511Y012604D03*
X100889Y012604D03*
X077200Y015700D03*
X059700Y015700D03*
X055700Y019700D03*
X073200Y019700D03*
X037200Y015700D03*
X019700Y015700D03*
X015700Y019700D03*
X033200Y019700D03*
D14*
X099787Y020931D03*
X115614Y020931D03*
X115614Y011836D03*
X099787Y011836D03*
D15*
X100700Y009200D03*
X101700Y009200D03*
X102700Y009200D03*
X103700Y009200D03*
X104700Y009200D03*
X105700Y009200D03*
X106700Y009200D03*
X107700Y009200D03*
X108700Y009200D03*
X109700Y009200D03*
X110700Y009200D03*
X111700Y009200D03*
X112700Y009200D03*
X113700Y009200D03*
X113700Y008200D03*
X113700Y007200D03*
X113700Y006200D03*
X113700Y005200D03*
X113700Y004200D03*
X113700Y003200D03*
X112700Y003200D03*
X111700Y003200D03*
X110700Y003200D03*
X109700Y003200D03*
X108700Y003200D03*
X107700Y003200D03*
X106700Y003200D03*
X105700Y003200D03*
X104700Y003200D03*
X103700Y003200D03*
X102700Y003200D03*
X101700Y003200D03*
X100700Y003200D03*
D16*
X093674Y014730D03*
X092689Y014730D03*
X091705Y014730D03*
X076200Y017700D03*
X075200Y017700D03*
X058700Y017700D03*
X057700Y017700D03*
X036200Y017700D03*
X035200Y017700D03*
X018700Y017700D03*
X017700Y017700D03*
X091705Y020438D03*
X093674Y020438D03*
D17*
X042300Y006000D03*
X037100Y003300D03*
X013300Y004950D03*
D18*
X012300Y003950D03*
X014300Y003950D03*
X014300Y005950D03*
X012300Y005950D03*
X036100Y004300D03*
X038100Y004300D03*
X041300Y005000D03*
X043300Y005000D03*
X043300Y007000D03*
X041300Y007000D03*
X038100Y002300D03*
X036100Y002300D03*
D19*
X032700Y002300D03*
X035850Y003300D03*
X038100Y003300D03*
X040750Y003450D03*
X040200Y004250D03*
X039350Y004950D03*
X039250Y005550D03*
X038600Y005550D03*
X037900Y005550D03*
X037250Y005550D03*
X036500Y005450D03*
X037250Y004800D03*
X035350Y004800D03*
X034750Y004700D03*
X034100Y004700D03*
X033500Y004750D03*
X032650Y004650D03*
X031950Y004650D03*
X030800Y005050D03*
X030200Y005050D03*
X029400Y005000D03*
X028750Y005050D03*
X028100Y005050D03*
X027250Y004900D03*
X026350Y005050D03*
X025750Y005050D03*
X025250Y005050D03*
X024600Y005000D03*
X023850Y005050D03*
X023150Y005050D03*
X021650Y004750D03*
X020200Y004550D03*
X019300Y004500D03*
X018600Y004550D03*
X017750Y004550D03*
X016900Y004550D03*
X016150Y004550D03*
X015200Y004550D03*
X012150Y004950D03*
X009750Y005400D03*
X013300Y006150D03*
X015200Y005350D03*
X016150Y005350D03*
X016900Y005350D03*
X017750Y005350D03*
X018600Y005350D03*
X019300Y005400D03*
X020000Y005650D03*
X021650Y005550D03*
X023150Y005850D03*
X023850Y005850D03*
X024600Y005900D03*
X025150Y005900D03*
X025750Y005850D03*
X026350Y005850D03*
X027250Y005950D03*
X030100Y006600D03*
X031850Y006450D03*
X032800Y006450D03*
X033550Y006450D03*
X034300Y006450D03*
X035000Y006450D03*
X035650Y006450D03*
X036500Y006550D03*
X037250Y006350D03*
X037900Y006350D03*
X038600Y006350D03*
X039250Y006350D03*
X039350Y007000D03*
X039300Y007700D03*
X041050Y008050D03*
X042250Y008100D03*
X043450Y008050D03*
X045250Y008050D03*
X045250Y007000D03*
X048100Y005250D03*
X045400Y005000D03*
X045250Y004150D03*
X055650Y004950D03*
X054900Y001750D03*
X032300Y005350D03*
X032300Y005900D03*
X030550Y006050D03*
X036750Y007650D03*
X028200Y009350D03*
X028450Y010150D03*
X030900Y010550D03*
X024750Y011400D03*
X022650Y010950D03*
X024650Y010650D03*
X019300Y011200D03*
X015100Y012300D03*
X010400Y011250D03*
X005450Y010150D03*
X002250Y010100D03*
X011550Y009050D03*
X014000Y007700D03*
X016300Y006950D03*
X018450Y006150D03*
X027600Y008200D03*
X020100Y009050D03*
X028400Y012250D03*
X025950Y012850D03*
X024750Y012550D03*
X023150Y013250D03*
X026600Y013850D03*
X028000Y013850D03*
X031800Y012600D03*
X038700Y011900D03*
X040350Y011750D03*
X044000Y011750D03*
X047400Y011950D03*
X048200Y011950D03*
X051950Y011400D03*
X052050Y011950D03*
X053900Y011950D03*
X055300Y011950D03*
X055600Y010300D03*
X052200Y010200D03*
X051050Y009250D03*
X049750Y008650D03*
X052800Y008850D03*
X054550Y008900D03*
X056775Y009275D03*
X063250Y009900D03*
X065000Y011600D03*
X068100Y012000D03*
X064600Y012550D03*
X063850Y012900D03*
X071750Y011350D03*
X072050Y012050D03*
X075900Y012000D03*
X076600Y012400D03*
X075900Y012800D03*
X078100Y012800D03*
X082650Y013100D03*
X087750Y013100D03*
X089750Y013500D03*
X091700Y013150D03*
X094300Y012900D03*
X097000Y012600D03*
X097600Y011900D03*
X096700Y011300D03*
X094300Y010700D03*
X094150Y009650D03*
X101850Y010400D03*
X104900Y010350D03*
X108600Y010350D03*
X117200Y008750D03*
X110000Y008200D03*
X093700Y007050D03*
X091550Y007650D03*
X086650Y007350D03*
X080200Y006350D03*
X082150Y005600D03*
X085500Y005700D03*
X080900Y004300D03*
X082150Y003650D03*
X083950Y003600D03*
X079850Y002350D03*
X086550Y001300D03*
X087100Y002050D03*
X093800Y002100D03*
X095800Y001950D03*
X094700Y001350D03*
X098200Y001850D03*
X095650Y003200D03*
X094100Y003500D03*
X098850Y004450D03*
X103100Y004400D03*
X078200Y009700D03*
X076600Y009700D03*
X076600Y010600D03*
X075900Y011300D03*
X076600Y011600D03*
X078100Y011300D03*
X071800Y010150D03*
X077450Y007800D03*
X050150Y013900D03*
X048150Y013850D03*
X046200Y016800D03*
X042350Y016900D03*
X053900Y017750D03*
X062300Y017850D03*
X071150Y018800D03*
X077400Y018750D03*
X081700Y019750D03*
X083000Y019500D03*
X084000Y019400D03*
X085200Y019900D03*
X084700Y020400D03*
X086300Y020600D03*
X088000Y021150D03*
X090500Y022350D03*
X087500Y022400D03*
X086800Y022400D03*
X081450Y021300D03*
X081100Y020800D03*
X096100Y023000D03*
X107000Y023500D03*
X098600Y019450D03*
X113200Y017550D03*
X118050Y017900D03*
X118200Y014000D03*
X097750Y014800D03*
X085500Y015600D03*
X063400Y022250D03*
X067450Y024200D03*
X049500Y024100D03*
X040050Y024150D03*
X022100Y019700D03*
X015350Y021900D03*
X007250Y022350D03*
X003150Y018050D03*
X006800Y017200D03*
X006900Y015000D03*
X006400Y014350D03*
X005700Y014450D03*
X022200Y016750D03*
X041950Y019550D03*
X043500Y010700D03*
X045350Y010650D03*
X047300Y010350D03*
X041150Y009850D03*
X039250Y010000D03*
X041000Y010550D03*
X039150Y010900D03*
X013200Y003150D03*
X005100Y003150D03*
X023400Y002350D03*
D20*
X000700Y000700D02*
X000700Y024700D01*
X119700Y024700D01*
X119700Y000700D01*
X000700Y000700D01*
X000700Y000796D02*
X119700Y000796D01*
X119700Y000994D02*
X000700Y000994D01*
X000700Y001193D02*
X119700Y001193D01*
X119700Y001391D02*
X118166Y001391D01*
X118235Y001409D02*
X118550Y001592D01*
X118808Y001850D01*
X118991Y002165D01*
X119085Y002518D01*
X119085Y002882D01*
X118991Y003235D01*
X118808Y003550D01*
X118550Y003808D01*
X118235Y003991D01*
X117882Y004085D01*
X117518Y004085D01*
X117165Y003991D01*
X116850Y003808D01*
X116592Y003550D01*
X116409Y003235D01*
X116315Y002882D01*
X116315Y002518D01*
X116409Y002165D01*
X116592Y001850D01*
X116850Y001592D01*
X117165Y001409D01*
X117518Y001315D01*
X117882Y001315D01*
X118235Y001409D01*
X118547Y001590D02*
X119700Y001590D01*
X119700Y001788D02*
X118747Y001788D01*
X118887Y001987D02*
X119700Y001987D01*
X119700Y002185D02*
X118996Y002185D01*
X119049Y002384D02*
X119700Y002384D01*
X119700Y002582D02*
X119085Y002582D01*
X119085Y002781D02*
X119700Y002781D01*
X119700Y002979D02*
X119059Y002979D01*
X119006Y003178D02*
X119700Y003178D01*
X119700Y003376D02*
X118909Y003376D01*
X118784Y003575D02*
X119700Y003575D01*
X119700Y003773D02*
X118586Y003773D01*
X118268Y003972D02*
X119700Y003972D01*
X119700Y004170D02*
X114385Y004170D01*
X114385Y004064D02*
X114281Y003812D01*
X114169Y003700D01*
X114281Y003588D01*
X114385Y003336D01*
X114385Y003064D01*
X114281Y002812D01*
X114088Y002619D01*
X113836Y002515D01*
X113564Y002515D01*
X113312Y002619D01*
X113200Y002731D01*
X113088Y002619D01*
X112836Y002515D01*
X112564Y002515D01*
X112312Y002619D01*
X112200Y002731D01*
X112088Y002619D01*
X111836Y002515D01*
X111564Y002515D01*
X111312Y002619D01*
X111200Y002731D01*
X111088Y002619D01*
X110836Y002515D01*
X110564Y002515D01*
X110312Y002619D01*
X110200Y002731D01*
X110088Y002619D01*
X109836Y002515D01*
X109564Y002515D01*
X109312Y002619D01*
X109200Y002731D01*
X109088Y002619D01*
X108836Y002515D01*
X108564Y002515D01*
X108312Y002619D01*
X108200Y002731D01*
X108088Y002619D01*
X107836Y002515D01*
X107564Y002515D01*
X107312Y002619D01*
X107200Y002731D01*
X107088Y002619D01*
X106836Y002515D01*
X106564Y002515D01*
X106312Y002619D01*
X106200Y002731D01*
X106088Y002619D01*
X105836Y002515D01*
X105564Y002515D01*
X105312Y002619D01*
X105200Y002731D01*
X105088Y002619D01*
X104836Y002515D01*
X104564Y002515D01*
X104312Y002619D01*
X104200Y002731D01*
X104088Y002619D01*
X103836Y002515D01*
X103564Y002515D01*
X103312Y002619D01*
X103200Y002731D01*
X103088Y002619D01*
X102836Y002515D01*
X102564Y002515D01*
X102312Y002619D01*
X102200Y002731D01*
X102088Y002619D01*
X101836Y002515D01*
X101564Y002515D01*
X101312Y002619D01*
X101119Y002812D01*
X101015Y003064D01*
X101015Y003336D01*
X101119Y003588D01*
X101312Y003781D01*
X101564Y003885D01*
X101836Y003885D01*
X102088Y003781D01*
X102200Y003669D01*
X102312Y003781D01*
X102564Y003885D01*
X102836Y003885D01*
X103088Y003781D01*
X103200Y003669D01*
X103312Y003781D01*
X103564Y003885D01*
X103836Y003885D01*
X104088Y003781D01*
X104200Y003669D01*
X104312Y003781D01*
X104564Y003885D01*
X104836Y003885D01*
X105088Y003781D01*
X105200Y003669D01*
X105312Y003781D01*
X105564Y003885D01*
X105836Y003885D01*
X106088Y003781D01*
X106200Y003669D01*
X106312Y003781D01*
X106564Y003885D01*
X106836Y003885D01*
X107088Y003781D01*
X107200Y003669D01*
X107312Y003781D01*
X107564Y003885D01*
X107836Y003885D01*
X108088Y003781D01*
X108200Y003669D01*
X108312Y003781D01*
X108564Y003885D01*
X108836Y003885D01*
X109088Y003781D01*
X109200Y003669D01*
X109312Y003781D01*
X109564Y003885D01*
X109836Y003885D01*
X110088Y003781D01*
X110200Y003669D01*
X110312Y003781D01*
X110564Y003885D01*
X110836Y003885D01*
X111088Y003781D01*
X111200Y003669D01*
X111312Y003781D01*
X111423Y003827D01*
X109009Y006240D01*
X108458Y006240D01*
X108289Y006310D01*
X108160Y006439D01*
X106810Y007789D01*
X106740Y007958D01*
X106740Y008515D01*
X106564Y008515D01*
X106312Y008619D01*
X106200Y008731D01*
X106088Y008619D01*
X105836Y008515D01*
X105564Y008515D01*
X105312Y008619D01*
X105200Y008731D01*
X105088Y008619D01*
X104836Y008515D01*
X104650Y008515D01*
X104650Y008386D01*
X105581Y007455D01*
X105650Y007290D01*
X105650Y007110D01*
X105581Y006945D01*
X105455Y006819D01*
X105290Y006750D01*
X098110Y006750D01*
X097945Y006819D01*
X097819Y006945D01*
X097750Y007110D01*
X097750Y012014D01*
X096014Y013750D01*
X079700Y013750D01*
X079700Y009101D01*
X079624Y008917D01*
X079483Y008776D01*
X079299Y008700D01*
X076101Y008700D01*
X075917Y008776D01*
X075776Y008917D01*
X075700Y009101D01*
X075700Y009993D01*
X074993Y010700D01*
X064101Y010700D01*
X063917Y010776D01*
X063776Y010917D01*
X063700Y011101D01*
X063700Y012315D01*
X063511Y012393D01*
X063343Y012561D01*
X063252Y012781D01*
X063252Y013019D01*
X063343Y013239D01*
X063511Y013407D01*
X063700Y013485D01*
X063700Y013750D01*
X050735Y013750D01*
X050715Y013700D01*
X053799Y013700D01*
X053983Y013624D01*
X054124Y013483D01*
X054200Y013299D01*
X054200Y011101D01*
X054124Y010917D01*
X054105Y010898D01*
X054150Y010790D01*
X054150Y007310D01*
X054081Y007145D01*
X053955Y007019D01*
X053790Y006950D01*
X053610Y006950D01*
X030596Y006950D01*
X030607Y006939D01*
X030698Y006719D01*
X030698Y006636D01*
X030889Y006557D01*
X031057Y006389D01*
X031148Y006169D01*
X031148Y005931D01*
X031057Y005711D01*
X030889Y005543D01*
X030669Y005452D01*
X030431Y005452D01*
X030211Y005543D01*
X030043Y005711D01*
X029952Y005931D01*
X029952Y006014D01*
X029761Y006093D01*
X029593Y006261D01*
X029502Y006481D01*
X029502Y006719D01*
X029593Y006939D01*
X029604Y006950D01*
X027110Y006950D01*
X026945Y007019D01*
X026819Y007145D01*
X026750Y007310D01*
X026750Y010700D01*
X025101Y010700D01*
X024917Y010776D01*
X024776Y010917D01*
X024700Y011101D01*
X024700Y013299D01*
X024776Y013483D01*
X024917Y013624D01*
X025101Y013700D01*
X026015Y013700D01*
X026002Y013731D01*
X026002Y013750D01*
X006110Y013750D01*
X005945Y013819D01*
X005885Y013879D01*
X005819Y013852D01*
X005581Y013852D01*
X005361Y013943D01*
X005193Y014111D01*
X005102Y014331D01*
X005102Y014569D01*
X005193Y014789D01*
X005361Y014957D01*
X005581Y015048D01*
X005750Y015048D01*
X005750Y023290D01*
X005819Y023455D01*
X005945Y023581D01*
X006110Y023650D01*
X092290Y023650D01*
X092455Y023581D01*
X092581Y023455D01*
X104409Y011628D01*
X104377Y011704D01*
X104377Y011969D01*
X104479Y012213D01*
X104666Y012401D01*
X104910Y012502D01*
X105175Y012502D01*
X105338Y012435D01*
X105501Y012502D01*
X105766Y012502D01*
X105929Y012435D01*
X106092Y012502D01*
X106356Y012502D01*
X106519Y012435D01*
X106682Y012502D01*
X106947Y012502D01*
X107110Y012435D01*
X107273Y012502D01*
X107538Y012502D01*
X107782Y012401D01*
X107970Y012213D01*
X107996Y012150D01*
X108022Y012213D01*
X108209Y012401D01*
X108454Y012502D01*
X108719Y012502D01*
X108881Y012435D01*
X109044Y012502D01*
X109309Y012502D01*
X109472Y012435D01*
X109635Y012502D01*
X109900Y012502D01*
X110063Y012435D01*
X110225Y012502D01*
X110490Y012502D01*
X110735Y012401D01*
X110922Y012213D01*
X111024Y011969D01*
X111024Y011704D01*
X110922Y011459D01*
X110735Y011272D01*
X110490Y011170D01*
X110225Y011170D01*
X110063Y011238D01*
X109900Y011170D01*
X109635Y011170D01*
X109472Y011238D01*
X109309Y011170D01*
X109044Y011170D01*
X108881Y011238D01*
X108719Y011170D01*
X108454Y011170D01*
X108209Y011272D01*
X108022Y011459D01*
X107996Y011522D01*
X107970Y011459D01*
X107782Y011272D01*
X107660Y011221D01*
X107660Y009885D01*
X107836Y009885D01*
X108088Y009781D01*
X108200Y009669D01*
X108312Y009781D01*
X108564Y009885D01*
X108836Y009885D01*
X109088Y009781D01*
X109200Y009669D01*
X109312Y009781D01*
X109564Y009885D01*
X109836Y009885D01*
X110088Y009781D01*
X110200Y009669D01*
X110312Y009781D01*
X110564Y009885D01*
X110836Y009885D01*
X111088Y009781D01*
X111200Y009669D01*
X111312Y009781D01*
X111564Y009885D01*
X111836Y009885D01*
X112088Y009781D01*
X112200Y009669D01*
X112312Y009781D01*
X112564Y009885D01*
X112836Y009885D01*
X113088Y009781D01*
X113200Y009669D01*
X113312Y009781D01*
X113564Y009885D01*
X113836Y009885D01*
X114088Y009781D01*
X114281Y009588D01*
X114385Y009336D01*
X114385Y009064D01*
X114281Y008812D01*
X114169Y008700D01*
X114281Y008588D01*
X114385Y008336D01*
X114385Y008064D01*
X114281Y007812D01*
X114169Y007700D01*
X114281Y007588D01*
X114385Y007336D01*
X114385Y007064D01*
X114281Y006812D01*
X114088Y006619D01*
X113836Y006515D01*
X113564Y006515D01*
X113312Y006619D01*
X113119Y006812D01*
X113015Y007064D01*
X113015Y007336D01*
X113119Y007588D01*
X113231Y007700D01*
X113119Y007812D01*
X113015Y008064D01*
X113015Y008336D01*
X113119Y008588D01*
X113231Y008700D01*
X113200Y008731D01*
X113088Y008619D01*
X112836Y008515D01*
X112564Y008515D01*
X112312Y008619D01*
X112200Y008731D01*
X112088Y008619D01*
X111836Y008515D01*
X111564Y008515D01*
X111312Y008619D01*
X111200Y008731D01*
X111088Y008619D01*
X110836Y008515D01*
X110564Y008515D01*
X110312Y008619D01*
X110200Y008731D01*
X110088Y008619D01*
X109836Y008515D01*
X109564Y008515D01*
X109312Y008619D01*
X109200Y008731D01*
X109088Y008619D01*
X108836Y008515D01*
X108564Y008515D01*
X108312Y008619D01*
X108200Y008731D01*
X108088Y008619D01*
X107836Y008515D01*
X107660Y008515D01*
X107660Y008241D01*
X108741Y007160D01*
X109291Y007160D01*
X109461Y007090D01*
X112666Y003885D01*
X112836Y003885D01*
X113088Y003781D01*
X113200Y003669D01*
X113231Y003700D01*
X113119Y003812D01*
X113015Y004064D01*
X113015Y004336D01*
X113119Y004588D01*
X113231Y004700D01*
X113119Y004812D01*
X113015Y005064D01*
X113015Y005336D01*
X113119Y005588D01*
X113312Y005781D01*
X113564Y005885D01*
X113836Y005885D01*
X114088Y005781D01*
X114281Y005588D01*
X114385Y005336D01*
X114385Y005064D01*
X114281Y004812D01*
X114169Y004700D01*
X114281Y004588D01*
X114385Y004336D01*
X114385Y004064D01*
X114347Y003972D02*
X117132Y003972D01*
X116814Y003773D02*
X114242Y003773D01*
X114286Y003575D02*
X116616Y003575D01*
X116491Y003376D02*
X114369Y003376D01*
X114385Y003178D02*
X116394Y003178D01*
X116341Y002979D02*
X114350Y002979D01*
X114249Y002781D02*
X116315Y002781D01*
X116315Y002582D02*
X113998Y002582D01*
X113402Y002582D02*
X112998Y002582D01*
X112402Y002582D02*
X111998Y002582D01*
X111402Y002582D02*
X110998Y002582D01*
X110402Y002582D02*
X109998Y002582D01*
X109402Y002582D02*
X108998Y002582D01*
X108402Y002582D02*
X107998Y002582D01*
X107402Y002582D02*
X106998Y002582D01*
X106402Y002582D02*
X105998Y002582D01*
X105402Y002582D02*
X104998Y002582D01*
X104402Y002582D02*
X103998Y002582D01*
X103402Y002582D02*
X102998Y002582D01*
X102402Y002582D02*
X101998Y002582D01*
X101402Y002582D02*
X084608Y002582D01*
X084693Y002497D02*
X084497Y002693D01*
X084239Y002800D01*
X083961Y002800D01*
X083703Y002693D01*
X083507Y002497D01*
X083400Y002239D01*
X083400Y001961D01*
X083507Y001703D01*
X083703Y001507D01*
X083961Y001400D01*
X084239Y001400D01*
X084497Y001507D01*
X084693Y001703D01*
X084800Y001961D01*
X084800Y002239D01*
X084693Y002497D01*
X084740Y002384D02*
X116351Y002384D01*
X116404Y002185D02*
X084800Y002185D01*
X084800Y001987D02*
X116513Y001987D01*
X116653Y001788D02*
X084728Y001788D01*
X084579Y001590D02*
X116853Y001590D01*
X117234Y001391D02*
X076937Y001391D01*
X076784Y001350D02*
X077140Y001445D01*
X077460Y001630D01*
X077720Y001890D01*
X081320Y005490D01*
X081505Y005810D01*
X081600Y006166D01*
X081600Y006534D01*
X081505Y006890D01*
X081320Y007210D01*
X081060Y007470D01*
X080740Y007655D01*
X080384Y007750D01*
X080016Y007750D01*
X079660Y007655D01*
X079340Y007470D01*
X076020Y004150D01*
X063880Y004150D01*
X058770Y009260D01*
X057895Y010135D01*
X057569Y010461D01*
X057074Y011018D01*
X056766Y011221D01*
X056416Y011337D01*
X056048Y011358D01*
X055687Y011284D01*
X055358Y011119D01*
X055082Y010874D01*
X054879Y010566D01*
X054763Y010216D01*
X054742Y009848D01*
X054816Y009487D01*
X054981Y009158D01*
X055409Y008676D01*
X055430Y008640D01*
X055531Y008539D01*
X055626Y008432D01*
X055661Y008409D01*
X055915Y008155D01*
X056790Y007280D01*
X062440Y001630D01*
X062760Y001445D01*
X063116Y001350D01*
X076784Y001350D01*
X077390Y001590D02*
X083621Y001590D01*
X083472Y001788D02*
X077618Y001788D01*
X077816Y001987D02*
X083400Y001987D01*
X083400Y002185D02*
X078015Y002185D01*
X078213Y002384D02*
X083460Y002384D01*
X083592Y002582D02*
X078412Y002582D01*
X078610Y002781D02*
X083914Y002781D01*
X084286Y002781D02*
X101151Y002781D01*
X101050Y002979D02*
X078809Y002979D01*
X079007Y003178D02*
X101015Y003178D01*
X101031Y003376D02*
X079206Y003376D01*
X079404Y003575D02*
X101114Y003575D01*
X101304Y003773D02*
X079603Y003773D01*
X079801Y003972D02*
X111278Y003972D01*
X111304Y003773D02*
X111096Y003773D01*
X110304Y003773D02*
X110096Y003773D01*
X109304Y003773D02*
X109096Y003773D01*
X108304Y003773D02*
X108096Y003773D01*
X107304Y003773D02*
X107096Y003773D01*
X106304Y003773D02*
X106096Y003773D01*
X105304Y003773D02*
X105096Y003773D01*
X104304Y003773D02*
X104096Y003773D01*
X103304Y003773D02*
X103096Y003773D01*
X102304Y003773D02*
X102096Y003773D01*
X109690Y005560D02*
X081360Y005560D01*
X081475Y005758D02*
X109491Y005758D01*
X109293Y005957D02*
X081544Y005957D01*
X081597Y006155D02*
X109094Y006155D01*
X108246Y006354D02*
X081600Y006354D01*
X081595Y006552D02*
X108047Y006552D01*
X107849Y006751D02*
X105291Y006751D01*
X105583Y006949D02*
X107650Y006949D01*
X107452Y007148D02*
X105650Y007148D01*
X105627Y007346D02*
X107253Y007346D01*
X107055Y007545D02*
X105492Y007545D01*
X105293Y007743D02*
X106856Y007743D01*
X106747Y007942D02*
X105095Y007942D01*
X104896Y008140D02*
X106740Y008140D01*
X106740Y008339D02*
X104698Y008339D01*
X104889Y008537D02*
X105511Y008537D01*
X105889Y008537D02*
X106511Y008537D01*
X107660Y008339D02*
X113016Y008339D01*
X113015Y008140D02*
X107761Y008140D01*
X107959Y007942D02*
X113066Y007942D01*
X113188Y007743D02*
X108158Y007743D01*
X108356Y007545D02*
X113101Y007545D01*
X113019Y007346D02*
X108555Y007346D01*
X109322Y007148D02*
X113015Y007148D01*
X113063Y006949D02*
X109602Y006949D01*
X109800Y006751D02*
X113181Y006751D01*
X113474Y006552D02*
X109999Y006552D01*
X110197Y006354D02*
X119700Y006354D01*
X119700Y006552D02*
X113926Y006552D01*
X114219Y006751D02*
X119700Y006751D01*
X119700Y006949D02*
X114337Y006949D01*
X114385Y007148D02*
X119700Y007148D01*
X119700Y007346D02*
X114381Y007346D01*
X114299Y007545D02*
X119700Y007545D01*
X119700Y007743D02*
X114212Y007743D01*
X114334Y007942D02*
X119700Y007942D01*
X119700Y008140D02*
X114385Y008140D01*
X114384Y008339D02*
X119700Y008339D01*
X119700Y008537D02*
X114302Y008537D01*
X114204Y008736D02*
X119700Y008736D01*
X119700Y008934D02*
X114331Y008934D01*
X114385Y009133D02*
X119700Y009133D01*
X119700Y009331D02*
X114385Y009331D01*
X114305Y009530D02*
X119700Y009530D01*
X119700Y009728D02*
X114141Y009728D01*
X113259Y009728D02*
X113141Y009728D01*
X112259Y009728D02*
X112141Y009728D01*
X111259Y009728D02*
X111141Y009728D01*
X110259Y009728D02*
X110141Y009728D01*
X109259Y009728D02*
X109141Y009728D01*
X108259Y009728D02*
X108141Y009728D01*
X107660Y009927D02*
X119700Y009927D01*
X119700Y010125D02*
X107660Y010125D01*
X107660Y010324D02*
X119700Y010324D01*
X119700Y010522D02*
X107660Y010522D01*
X107660Y010721D02*
X119700Y010721D01*
X119700Y010919D02*
X107660Y010919D01*
X107660Y011118D02*
X115425Y011118D01*
X115467Y011100D02*
X115760Y011100D01*
X116031Y011212D01*
X116238Y011419D01*
X116350Y011690D01*
X116350Y011983D01*
X116238Y012253D01*
X116031Y012460D01*
X115760Y012572D01*
X115467Y012572D01*
X115405Y012547D01*
X115405Y012782D01*
X115269Y013110D01*
X115018Y013362D01*
X114689Y013498D01*
X114334Y013498D01*
X114005Y013362D01*
X113754Y013110D01*
X113618Y012782D01*
X113618Y012426D01*
X113754Y012098D01*
X114005Y011846D01*
X114334Y011710D01*
X114689Y011710D01*
X114878Y011788D01*
X114878Y011690D01*
X114990Y011419D01*
X115197Y011212D01*
X115467Y011100D01*
X115803Y011118D02*
X119700Y011118D01*
X119700Y011316D02*
X116135Y011316D01*
X116277Y011515D02*
X119700Y011515D01*
X119700Y011713D02*
X116350Y011713D01*
X116350Y011912D02*
X119700Y011912D01*
X119700Y012110D02*
X116297Y012110D01*
X116183Y012309D02*
X119700Y012309D01*
X119700Y012507D02*
X115918Y012507D01*
X115405Y012706D02*
X119700Y012706D01*
X119700Y012904D02*
X115354Y012904D01*
X115272Y013103D02*
X119700Y013103D01*
X119700Y013301D02*
X115078Y013301D01*
X113945Y013301D02*
X102735Y013301D01*
X102537Y013500D02*
X119700Y013500D01*
X119700Y013698D02*
X102338Y013698D01*
X102140Y013897D02*
X119700Y013897D01*
X119700Y014095D02*
X101941Y014095D01*
X101743Y014294D02*
X119700Y014294D01*
X119700Y014492D02*
X101544Y014492D01*
X101346Y014691D02*
X119700Y014691D01*
X119700Y014889D02*
X101147Y014889D01*
X100949Y015088D02*
X119700Y015088D01*
X119700Y015286D02*
X100750Y015286D01*
X100552Y015485D02*
X119700Y015485D01*
X119700Y015683D02*
X100353Y015683D01*
X100155Y015882D02*
X119700Y015882D01*
X119700Y016080D02*
X099956Y016080D01*
X099758Y016279D02*
X119700Y016279D01*
X119700Y016477D02*
X099559Y016477D01*
X099361Y016676D02*
X119700Y016676D01*
X119700Y016874D02*
X099162Y016874D01*
X098964Y017073D02*
X119700Y017073D01*
X119700Y017271D02*
X098765Y017271D01*
X098567Y017470D02*
X119700Y017470D01*
X119700Y017668D02*
X098368Y017668D01*
X098170Y017867D02*
X119700Y017867D01*
X119700Y018065D02*
X097971Y018065D01*
X097773Y018264D02*
X119700Y018264D01*
X119700Y018462D02*
X097574Y018462D01*
X097376Y018661D02*
X119700Y018661D01*
X119700Y018859D02*
X097177Y018859D01*
X096979Y019058D02*
X119700Y019058D01*
X119700Y019256D02*
X096780Y019256D01*
X096582Y019455D02*
X119700Y019455D01*
X119700Y019653D02*
X096383Y019653D01*
X096185Y019852D02*
X119700Y019852D01*
X119700Y020050D02*
X095986Y020050D01*
X095788Y020249D02*
X099510Y020249D01*
X099641Y020194D02*
X099933Y020194D01*
X100204Y020307D01*
X100411Y020514D01*
X100523Y020784D01*
X100523Y021077D01*
X100411Y021348D01*
X100204Y021555D01*
X099933Y021667D01*
X099641Y021667D01*
X099370Y021555D01*
X099163Y021348D01*
X099051Y021077D01*
X099051Y020784D01*
X099163Y020514D01*
X099370Y020307D01*
X099641Y020194D01*
X100064Y020249D02*
X115337Y020249D01*
X115467Y020194D02*
X115760Y020194D01*
X116031Y020307D01*
X116238Y020514D01*
X116350Y020784D01*
X116350Y021077D01*
X116238Y021348D01*
X116031Y021555D01*
X115760Y021667D01*
X115467Y021667D01*
X115197Y021555D01*
X114990Y021348D01*
X114878Y021077D01*
X114878Y020784D01*
X114990Y020514D01*
X115197Y020307D01*
X115467Y020194D01*
X115891Y020249D02*
X119700Y020249D01*
X119700Y020447D02*
X116171Y020447D01*
X116293Y020646D02*
X119700Y020646D01*
X119700Y020844D02*
X116350Y020844D01*
X116350Y021043D02*
X119700Y021043D01*
X119700Y021241D02*
X116282Y021241D01*
X116146Y021440D02*
X117113Y021440D01*
X117165Y021409D02*
X117518Y021315D01*
X117882Y021315D01*
X118235Y021409D01*
X118550Y021592D01*
X118808Y021850D01*
X118991Y022165D01*
X119085Y022518D01*
X119085Y022882D01*
X118991Y023235D01*
X118808Y023550D01*
X118550Y023808D01*
X118235Y023991D01*
X117882Y024085D01*
X117518Y024085D01*
X117165Y023991D01*
X116850Y023808D01*
X116592Y023550D01*
X116409Y023235D01*
X116315Y022882D01*
X116315Y022518D01*
X116409Y022165D01*
X116592Y021850D01*
X116850Y021592D01*
X117165Y021409D01*
X116803Y021638D02*
X115830Y021638D01*
X115398Y021638D02*
X100003Y021638D01*
X100319Y021440D02*
X115081Y021440D01*
X114945Y021241D02*
X100455Y021241D01*
X100523Y021043D02*
X114878Y021043D01*
X114878Y020844D02*
X100523Y020844D01*
X100466Y020646D02*
X114935Y020646D01*
X115056Y020447D02*
X100344Y020447D01*
X099230Y020447D02*
X095589Y020447D01*
X095391Y020646D02*
X099108Y020646D01*
X099051Y020844D02*
X095192Y020844D01*
X094994Y021043D02*
X099051Y021043D01*
X099119Y021241D02*
X094795Y021241D01*
X094597Y021440D02*
X099255Y021440D01*
X099571Y021638D02*
X094398Y021638D01*
X094200Y021837D02*
X116605Y021837D01*
X116485Y022035D02*
X094001Y022035D01*
X093803Y022234D02*
X116391Y022234D01*
X116338Y022432D02*
X093604Y022432D01*
X093406Y022631D02*
X116315Y022631D01*
X116315Y022829D02*
X093207Y022829D01*
X093009Y023028D02*
X116354Y023028D01*
X116407Y023226D02*
X092810Y023226D01*
X092612Y023425D02*
X116519Y023425D01*
X116664Y023623D02*
X092355Y023623D01*
X081450Y021300D02*
X027600Y021300D01*
X026750Y020450D01*
X026750Y019550D01*
X026750Y017700D02*
X025650Y016600D01*
X025650Y015100D01*
X026600Y014150D01*
X026600Y013850D01*
X027700Y014150D02*
X027700Y016650D01*
X028650Y017600D01*
X028650Y017700D01*
X027700Y014150D02*
X028000Y013850D01*
X025200Y013200D02*
X053700Y013200D01*
X053700Y012276D01*
X053686Y012271D01*
X053579Y012164D01*
X053522Y012025D01*
X053522Y011875D01*
X053579Y011736D01*
X053686Y011629D01*
X053700Y011624D01*
X053700Y011200D01*
X042579Y011200D01*
X042572Y011207D01*
X042395Y011280D01*
X042205Y011280D01*
X042028Y011207D01*
X042021Y011200D01*
X039385Y011200D01*
X039364Y011221D01*
X039225Y011278D01*
X039075Y011278D01*
X038936Y011221D01*
X038915Y011200D01*
X025200Y011200D01*
X025200Y013200D01*
X025200Y013103D02*
X053700Y013103D01*
X053700Y012904D02*
X032031Y012904D01*
X032014Y012921D02*
X031875Y012978D01*
X031725Y012978D01*
X031586Y012921D01*
X031479Y012814D01*
X031422Y012675D01*
X031422Y012525D01*
X031479Y012386D01*
X031586Y012279D01*
X031725Y012222D01*
X031875Y012222D01*
X032014Y012279D01*
X032121Y012386D01*
X032178Y012525D01*
X032178Y012675D01*
X032121Y012814D01*
X032014Y012921D01*
X032166Y012706D02*
X053700Y012706D01*
X053700Y012507D02*
X032171Y012507D01*
X032043Y012309D02*
X047277Y012309D01*
X047325Y012328D02*
X047186Y012271D01*
X047079Y012164D01*
X047022Y012025D01*
X047022Y011875D01*
X047079Y011736D01*
X047186Y011629D01*
X047325Y011572D01*
X047475Y011572D01*
X047614Y011629D01*
X047721Y011736D01*
X047778Y011875D01*
X047778Y012025D01*
X047721Y012164D01*
X047614Y012271D01*
X047475Y012328D01*
X047325Y012328D01*
X047523Y012309D02*
X051927Y012309D01*
X051975Y012328D02*
X051836Y012271D01*
X051729Y012164D01*
X051672Y012025D01*
X051672Y011875D01*
X051729Y011736D01*
X051836Y011629D01*
X051975Y011572D01*
X052125Y011572D01*
X052264Y011629D01*
X052371Y011736D01*
X052428Y011875D01*
X052428Y012025D01*
X052371Y012164D01*
X052264Y012271D01*
X052125Y012328D01*
X051975Y012328D01*
X052173Y012309D02*
X053700Y012309D01*
X053557Y012110D02*
X052393Y012110D01*
X052428Y011912D02*
X053522Y011912D01*
X053602Y011713D02*
X052348Y011713D01*
X051752Y011713D02*
X047698Y011713D01*
X047778Y011912D02*
X051672Y011912D01*
X051707Y012110D02*
X047743Y012110D01*
X047950Y011950D02*
X048200Y011950D01*
X047102Y011713D02*
X044378Y011713D01*
X044378Y011675D02*
X044378Y011825D01*
X044321Y011964D01*
X044214Y012071D01*
X044075Y012128D01*
X043925Y012128D01*
X043786Y012071D01*
X043679Y011964D01*
X043622Y011825D01*
X043622Y011675D01*
X043679Y011536D01*
X043786Y011429D01*
X043925Y011372D01*
X044075Y011372D01*
X044214Y011429D01*
X044321Y011536D01*
X044378Y011675D01*
X044299Y011515D02*
X053700Y011515D01*
X053700Y011316D02*
X025200Y011316D01*
X025200Y011515D02*
X040051Y011515D01*
X040029Y011536D02*
X040136Y011429D01*
X040275Y011372D01*
X040425Y011372D01*
X040564Y011429D01*
X040671Y011536D01*
X040728Y011675D01*
X040728Y011825D01*
X040671Y011964D01*
X040564Y012071D01*
X040425Y012128D01*
X040275Y012128D01*
X040136Y012071D01*
X040029Y011964D01*
X039972Y011825D01*
X039972Y011675D01*
X040029Y011536D01*
X039972Y011713D02*
X039032Y011713D01*
X039021Y011686D02*
X039078Y011825D01*
X039078Y011975D01*
X039021Y012114D01*
X038914Y012221D01*
X038775Y012278D01*
X038625Y012278D01*
X038486Y012221D01*
X038379Y012114D01*
X038322Y011975D01*
X038322Y011825D01*
X038379Y011686D01*
X038486Y011579D01*
X038625Y011522D01*
X038775Y011522D01*
X038914Y011579D01*
X039021Y011686D01*
X039078Y011912D02*
X040008Y011912D01*
X040231Y012110D02*
X039022Y012110D01*
X038378Y012110D02*
X028751Y012110D01*
X028778Y012175D02*
X028721Y012036D01*
X028614Y011929D01*
X028475Y011872D01*
X028325Y011872D01*
X028186Y011929D01*
X028079Y012036D01*
X028022Y012175D01*
X028022Y012325D01*
X028079Y012464D01*
X028186Y012571D01*
X028325Y012628D01*
X028475Y012628D01*
X028614Y012571D01*
X028721Y012464D01*
X028778Y012325D01*
X028778Y012175D01*
X028778Y012309D02*
X031557Y012309D01*
X031429Y012507D02*
X028678Y012507D01*
X028122Y012507D02*
X025200Y012507D01*
X025200Y012309D02*
X028022Y012309D01*
X028049Y012110D02*
X025200Y012110D01*
X025200Y011912D02*
X028229Y011912D01*
X028571Y011912D02*
X038322Y011912D01*
X038368Y011713D02*
X025200Y011713D01*
X024700Y011713D02*
X000700Y011713D01*
X000700Y011515D02*
X024700Y011515D01*
X024700Y011316D02*
X000700Y011316D01*
X000700Y011118D02*
X024700Y011118D01*
X024775Y010919D02*
X000700Y010919D01*
X000700Y010721D02*
X025051Y010721D01*
X026750Y010522D02*
X000700Y010522D01*
X000700Y010324D02*
X026750Y010324D01*
X026750Y010125D02*
X000700Y010125D01*
X000700Y009927D02*
X026750Y009927D01*
X026750Y009728D02*
X000700Y009728D01*
X000700Y009530D02*
X026750Y009530D01*
X026750Y009331D02*
X025256Y009331D01*
X025347Y009293D02*
X025089Y009400D01*
X024811Y009400D01*
X024553Y009293D01*
X024357Y009097D01*
X024250Y008839D01*
X024250Y008561D01*
X024357Y008303D01*
X024553Y008107D01*
X024811Y008000D01*
X025089Y008000D01*
X025347Y008107D01*
X025543Y008303D01*
X025650Y008561D01*
X025650Y008839D01*
X025543Y009097D01*
X025347Y009293D01*
X025507Y009133D02*
X026750Y009133D01*
X026750Y008934D02*
X025611Y008934D01*
X025650Y008736D02*
X026750Y008736D01*
X026750Y008537D02*
X025640Y008537D01*
X025558Y008339D02*
X026750Y008339D01*
X026750Y008140D02*
X025380Y008140D01*
X024520Y008140D02*
X000700Y008140D01*
X000700Y007942D02*
X026750Y007942D01*
X026750Y007743D02*
X000700Y007743D01*
X000700Y007545D02*
X026750Y007545D01*
X026750Y007346D02*
X000700Y007346D01*
X000700Y007148D02*
X026818Y007148D01*
X029515Y006751D02*
X000700Y006751D01*
X000700Y006949D02*
X029603Y006949D01*
X030597Y006949D02*
X057121Y006949D01*
X056923Y007148D02*
X054082Y007148D01*
X054150Y007346D02*
X056724Y007346D01*
X056526Y007545D02*
X054150Y007545D01*
X054150Y007743D02*
X056327Y007743D01*
X056129Y007942D02*
X054150Y007942D01*
X054150Y008140D02*
X055930Y008140D01*
X055732Y008339D02*
X054150Y008339D01*
X054150Y008537D02*
X055533Y008537D01*
X055356Y008736D02*
X054150Y008736D01*
X054150Y008934D02*
X055180Y008934D01*
X055004Y009133D02*
X054150Y009133D01*
X054150Y009331D02*
X054894Y009331D01*
X054807Y009530D02*
X054150Y009530D01*
X054150Y009728D02*
X054766Y009728D01*
X054746Y009927D02*
X054150Y009927D01*
X054150Y010125D02*
X054758Y010125D01*
X054799Y010324D02*
X054150Y010324D01*
X054150Y010522D02*
X054865Y010522D01*
X054981Y010721D02*
X054150Y010721D01*
X054125Y010919D02*
X055133Y010919D01*
X055356Y011118D02*
X054200Y011118D01*
X054200Y011316D02*
X055842Y011316D01*
X056479Y011316D02*
X063700Y011316D01*
X063700Y011118D02*
X056923Y011118D01*
X057162Y010919D02*
X063775Y010919D01*
X064051Y010721D02*
X057338Y010721D01*
X057515Y010522D02*
X066674Y010522D01*
X066825Y010585D02*
X066279Y010359D01*
X065788Y010030D01*
X065370Y009612D01*
X065041Y009121D01*
X064815Y008575D01*
X064700Y007995D01*
X064700Y007405D01*
X064815Y006825D01*
X065041Y006279D01*
X065370Y005788D01*
X065788Y005370D01*
X066279Y005041D01*
X066825Y004815D01*
X067405Y004700D01*
X067995Y004700D01*
X068575Y004815D01*
X069121Y005041D01*
X069612Y005370D01*
X070030Y005788D01*
X070359Y006279D01*
X070585Y006825D01*
X070700Y007405D01*
X070700Y007995D01*
X070585Y008575D01*
X070359Y009121D01*
X070030Y009612D01*
X069612Y010030D01*
X069121Y010359D01*
X068575Y010585D01*
X067995Y010700D01*
X067405Y010700D01*
X066825Y010585D01*
X066227Y010324D02*
X057706Y010324D01*
X057905Y010125D02*
X065929Y010125D01*
X065684Y009927D02*
X058103Y009927D01*
X058302Y009728D02*
X065485Y009728D01*
X065314Y009530D02*
X058500Y009530D01*
X058699Y009331D02*
X065182Y009331D01*
X065049Y009133D02*
X058897Y009133D01*
X059096Y008934D02*
X064964Y008934D01*
X064882Y008736D02*
X059294Y008736D01*
X059493Y008537D02*
X064808Y008537D01*
X064768Y008339D02*
X059691Y008339D01*
X059890Y008140D02*
X064729Y008140D01*
X064700Y007942D02*
X060088Y007942D01*
X060287Y007743D02*
X064700Y007743D01*
X064700Y007545D02*
X060485Y007545D01*
X060684Y007346D02*
X064712Y007346D01*
X064751Y007148D02*
X060882Y007148D01*
X061081Y006949D02*
X064791Y006949D01*
X064846Y006751D02*
X061279Y006751D01*
X061478Y006552D02*
X064928Y006552D01*
X065011Y006354D02*
X061676Y006354D01*
X061875Y006155D02*
X065124Y006155D01*
X065257Y005957D02*
X062073Y005957D01*
X062272Y005758D02*
X065399Y005758D01*
X065598Y005560D02*
X062470Y005560D01*
X062669Y005361D02*
X065801Y005361D01*
X066098Y005163D02*
X062867Y005163D01*
X063066Y004964D02*
X066466Y004964D01*
X067075Y004766D02*
X063264Y004766D01*
X063463Y004567D02*
X076437Y004567D01*
X076239Y004369D02*
X063661Y004369D01*
X063860Y004170D02*
X076040Y004170D01*
X076636Y004766D02*
X068325Y004766D01*
X068934Y004964D02*
X076834Y004964D01*
X077033Y005163D02*
X069302Y005163D01*
X069599Y005361D02*
X077231Y005361D01*
X077430Y005560D02*
X069802Y005560D01*
X070001Y005758D02*
X077628Y005758D01*
X077827Y005957D02*
X070143Y005957D01*
X070276Y006155D02*
X078025Y006155D01*
X078224Y006354D02*
X070389Y006354D01*
X070472Y006552D02*
X073035Y006552D01*
X073161Y006500D02*
X073439Y006500D01*
X073697Y006607D01*
X073893Y006803D01*
X074000Y007061D01*
X074000Y007339D01*
X073893Y007597D01*
X073697Y007793D01*
X073439Y007900D01*
X073161Y007900D01*
X072903Y007793D01*
X072707Y007597D01*
X072600Y007339D01*
X072600Y007061D01*
X072707Y006803D01*
X072903Y006607D01*
X073161Y006500D01*
X073565Y006552D02*
X078422Y006552D01*
X078621Y006751D02*
X073840Y006751D01*
X073954Y006949D02*
X078819Y006949D01*
X079018Y007148D02*
X074000Y007148D01*
X073997Y007346D02*
X079216Y007346D01*
X079469Y007545D02*
X073915Y007545D01*
X073747Y007743D02*
X079990Y007743D01*
X080410Y007743D02*
X092486Y007743D01*
X092453Y007757D02*
X092711Y007650D01*
X092989Y007650D01*
X093247Y007757D01*
X093443Y007953D01*
X093550Y008211D01*
X093550Y008489D01*
X093443Y008747D01*
X093247Y008943D01*
X092989Y009050D01*
X092711Y009050D01*
X092453Y008943D01*
X092257Y008747D01*
X092150Y008489D01*
X092150Y008211D01*
X092257Y007953D01*
X092453Y007757D01*
X092269Y007942D02*
X070700Y007942D01*
X070700Y007743D02*
X072853Y007743D01*
X072685Y007545D02*
X070700Y007545D01*
X070688Y007346D02*
X072603Y007346D01*
X072600Y007148D02*
X070649Y007148D01*
X070609Y006949D02*
X072646Y006949D01*
X072760Y006751D02*
X070554Y006751D01*
X070671Y008140D02*
X092179Y008140D01*
X092150Y008339D02*
X070632Y008339D01*
X070592Y008537D02*
X092170Y008537D01*
X092252Y008736D02*
X079385Y008736D01*
X079631Y008934D02*
X081976Y008934D01*
X082003Y008907D02*
X082261Y008800D01*
X082539Y008800D01*
X082797Y008907D01*
X082993Y009103D01*
X083100Y009361D01*
X083100Y009639D01*
X082993Y009897D01*
X082797Y010093D01*
X082539Y010200D01*
X082261Y010200D01*
X082003Y010093D01*
X081807Y009897D01*
X081700Y009639D01*
X081700Y009361D01*
X081807Y009103D01*
X082003Y008907D01*
X081795Y009133D02*
X079700Y009133D01*
X079700Y009331D02*
X081712Y009331D01*
X081700Y009530D02*
X079700Y009530D01*
X079700Y009728D02*
X081737Y009728D01*
X081837Y009927D02*
X079700Y009927D01*
X079700Y010125D02*
X082080Y010125D01*
X082720Y010125D02*
X097750Y010125D01*
X097750Y009927D02*
X082963Y009927D01*
X083063Y009728D02*
X097750Y009728D01*
X097750Y009530D02*
X083100Y009530D01*
X083088Y009331D02*
X097750Y009331D01*
X097750Y009133D02*
X083005Y009133D01*
X082824Y008934D02*
X092444Y008934D01*
X093256Y008934D02*
X094444Y008934D01*
X094453Y008943D02*
X094257Y008747D01*
X094150Y008489D01*
X094150Y008211D01*
X094257Y007953D01*
X094453Y007757D01*
X094711Y007650D01*
X094989Y007650D01*
X095247Y007757D01*
X095443Y007953D01*
X095550Y008211D01*
X095550Y008489D01*
X095443Y008747D01*
X095247Y008943D01*
X094989Y009050D01*
X094711Y009050D01*
X094453Y008943D01*
X094252Y008736D02*
X093448Y008736D01*
X093530Y008537D02*
X094170Y008537D01*
X094150Y008339D02*
X093550Y008339D01*
X093521Y008140D02*
X094179Y008140D01*
X094269Y007942D02*
X093431Y007942D01*
X093214Y007743D02*
X094486Y007743D01*
X095214Y007743D02*
X097750Y007743D01*
X097750Y007545D02*
X080931Y007545D01*
X081184Y007346D02*
X097750Y007346D01*
X097750Y007148D02*
X081356Y007148D01*
X081471Y006949D02*
X097817Y006949D01*
X098109Y006751D02*
X081542Y006751D01*
X081191Y005361D02*
X109888Y005361D01*
X110087Y005163D02*
X080992Y005163D01*
X080794Y004964D02*
X110285Y004964D01*
X110484Y004766D02*
X080595Y004766D01*
X080397Y004567D02*
X110682Y004567D01*
X110881Y004369D02*
X080198Y004369D01*
X080000Y004170D02*
X111079Y004170D01*
X111984Y004567D02*
X113111Y004567D01*
X113166Y004766D02*
X111785Y004766D01*
X111587Y004964D02*
X113056Y004964D01*
X113015Y005163D02*
X111388Y005163D01*
X111190Y005361D02*
X113025Y005361D01*
X113107Y005560D02*
X110991Y005560D01*
X110793Y005758D02*
X113289Y005758D01*
X114111Y005758D02*
X119700Y005758D01*
X119700Y005560D02*
X114293Y005560D01*
X114375Y005361D02*
X119700Y005361D01*
X119700Y005163D02*
X114385Y005163D01*
X114344Y004964D02*
X119700Y004964D01*
X119700Y004766D02*
X114234Y004766D01*
X114289Y004567D02*
X119700Y004567D01*
X119700Y004369D02*
X114372Y004369D01*
X113028Y004369D02*
X112182Y004369D01*
X112381Y004170D02*
X113015Y004170D01*
X113053Y003972D02*
X112579Y003972D01*
X113096Y003773D02*
X113158Y003773D01*
X110594Y005957D02*
X119700Y005957D01*
X119700Y006155D02*
X110396Y006155D01*
X110511Y008537D02*
X109889Y008537D01*
X109511Y008537D02*
X108889Y008537D01*
X108511Y008537D02*
X107889Y008537D01*
X110889Y008537D02*
X111511Y008537D01*
X111889Y008537D02*
X112511Y008537D01*
X112889Y008537D02*
X113098Y008537D01*
X106740Y009885D02*
X106564Y009885D01*
X106312Y009781D01*
X106200Y009669D01*
X106088Y009781D01*
X105836Y009885D01*
X105564Y009885D01*
X105312Y009781D01*
X105200Y009669D01*
X105088Y009781D01*
X104836Y009885D01*
X104650Y009885D01*
X104650Y011288D01*
X104666Y011272D01*
X104910Y011170D01*
X105175Y011170D01*
X105338Y011238D01*
X105501Y011170D01*
X105766Y011170D01*
X105929Y011238D01*
X106092Y011170D01*
X106356Y011170D01*
X106519Y011238D01*
X106682Y011170D01*
X106740Y011170D01*
X106740Y009885D01*
X106740Y009927D02*
X104650Y009927D01*
X104650Y010125D02*
X106740Y010125D01*
X106740Y010324D02*
X104650Y010324D01*
X104650Y010522D02*
X106740Y010522D01*
X106740Y010721D02*
X104650Y010721D01*
X104650Y010919D02*
X106740Y010919D01*
X106740Y011118D02*
X104650Y011118D01*
X104377Y011713D02*
X104323Y011713D01*
X104377Y011912D02*
X104125Y011912D01*
X103926Y012110D02*
X104436Y012110D01*
X104574Y012309D02*
X103728Y012309D01*
X103529Y012507D02*
X113618Y012507D01*
X113618Y012706D02*
X103331Y012706D01*
X103132Y012904D02*
X113668Y012904D01*
X113751Y013103D02*
X102934Y013103D01*
X107874Y012309D02*
X108117Y012309D01*
X107999Y011515D02*
X107992Y011515D01*
X107826Y011316D02*
X108165Y011316D01*
X110779Y011316D02*
X115093Y011316D01*
X114950Y011515D02*
X110945Y011515D01*
X111024Y011713D02*
X114327Y011713D01*
X114696Y011713D02*
X114878Y011713D01*
X113940Y011912D02*
X111024Y011912D01*
X110965Y012110D02*
X113749Y012110D01*
X113666Y012309D02*
X110827Y012309D01*
X106259Y009728D02*
X106141Y009728D01*
X105259Y009728D02*
X105141Y009728D01*
X097750Y010324D02*
X079700Y010324D01*
X079700Y010522D02*
X097750Y010522D01*
X097750Y010721D02*
X079700Y010721D01*
X079700Y010919D02*
X097750Y010919D01*
X097750Y011118D02*
X079700Y011118D01*
X079700Y011316D02*
X097750Y011316D01*
X097750Y011515D02*
X079700Y011515D01*
X079700Y011713D02*
X097750Y011713D01*
X097750Y011912D02*
X079700Y011912D01*
X079700Y012110D02*
X097654Y012110D01*
X097455Y012309D02*
X079700Y012309D01*
X079700Y012507D02*
X097257Y012507D01*
X097058Y012706D02*
X079700Y012706D01*
X079700Y012904D02*
X096860Y012904D01*
X096661Y013103D02*
X079700Y013103D01*
X079700Y013301D02*
X096463Y013301D01*
X096264Y013500D02*
X079700Y013500D01*
X079700Y013698D02*
X096066Y013698D01*
X079200Y013698D02*
X064200Y013698D01*
X064200Y013500D02*
X079200Y013500D01*
X079200Y013301D02*
X064295Y013301D01*
X064357Y013239D02*
X064200Y013396D01*
X064200Y014200D01*
X065200Y015200D01*
X066042Y015200D01*
X066176Y015066D01*
X066516Y014925D01*
X066884Y014925D01*
X067224Y015066D01*
X067358Y015200D01*
X067992Y015200D01*
X068126Y015066D01*
X068466Y014925D01*
X068834Y014925D01*
X069174Y015066D01*
X069308Y015200D01*
X076440Y015200D01*
X076442Y015194D01*
X076694Y014942D01*
X077022Y014806D01*
X077378Y014806D01*
X077706Y014942D01*
X077958Y015194D01*
X077960Y015200D01*
X079200Y015200D01*
X079200Y009200D01*
X076200Y009200D01*
X076200Y010200D01*
X075200Y011200D01*
X072335Y011200D01*
X072348Y011231D01*
X072348Y011469D01*
X072328Y011518D01*
X072389Y011543D01*
X072557Y011711D01*
X072648Y011931D01*
X072648Y012169D01*
X072557Y012389D01*
X072389Y012557D01*
X072169Y012648D01*
X071931Y012648D01*
X071711Y012557D01*
X071543Y012389D01*
X071452Y012169D01*
X071452Y011931D01*
X071472Y011882D01*
X071411Y011857D01*
X071243Y011689D01*
X071152Y011469D01*
X071152Y011231D01*
X071165Y011200D01*
X064200Y011200D01*
X064200Y012104D01*
X064261Y012043D01*
X064481Y011952D01*
X064719Y011952D01*
X064939Y012043D01*
X065107Y012211D01*
X065198Y012431D01*
X065198Y012669D01*
X065107Y012889D01*
X064939Y013057D01*
X064719Y013148D01*
X064481Y013148D01*
X064407Y013118D01*
X064357Y013239D01*
X064829Y013103D02*
X079200Y013103D01*
X079200Y012904D02*
X065092Y012904D01*
X065183Y012706D02*
X079200Y012706D01*
X079200Y012507D02*
X072439Y012507D01*
X072590Y012309D02*
X079200Y012309D01*
X079200Y012110D02*
X072648Y012110D01*
X072640Y011912D02*
X079200Y011912D01*
X079200Y011713D02*
X072558Y011713D01*
X072329Y011515D02*
X079200Y011515D01*
X079200Y011316D02*
X072348Y011316D01*
X071171Y011515D02*
X064200Y011515D01*
X064200Y011713D02*
X071267Y011713D01*
X071460Y011912D02*
X064200Y011912D01*
X063700Y011912D02*
X054200Y011912D01*
X054200Y012110D02*
X063700Y012110D01*
X063700Y012309D02*
X054200Y012309D01*
X054200Y012507D02*
X063397Y012507D01*
X063283Y012706D02*
X054200Y012706D01*
X054200Y012904D02*
X063252Y012904D01*
X063286Y013103D02*
X054200Y013103D01*
X054199Y013301D02*
X063405Y013301D01*
X063700Y013500D02*
X054108Y013500D01*
X053804Y013698D02*
X063700Y013698D01*
X064200Y013897D02*
X079200Y013897D01*
X079200Y014095D02*
X064200Y014095D01*
X064294Y014294D02*
X079200Y014294D01*
X079200Y014492D02*
X064492Y014492D01*
X064691Y014691D02*
X079200Y014691D01*
X079200Y014889D02*
X077577Y014889D01*
X077851Y015088D02*
X079200Y015088D01*
X076823Y014889D02*
X064889Y014889D01*
X065088Y015088D02*
X066154Y015088D01*
X067246Y015088D02*
X068104Y015088D01*
X069196Y015088D02*
X076549Y015088D01*
X071661Y012507D02*
X065198Y012507D01*
X065147Y012309D02*
X071510Y012309D01*
X071452Y012110D02*
X065006Y012110D01*
X063700Y011713D02*
X054200Y011713D01*
X054200Y011515D02*
X063700Y011515D01*
X064200Y011316D02*
X071152Y011316D01*
X068726Y010522D02*
X075171Y010522D01*
X075369Y010324D02*
X069173Y010324D01*
X069471Y010125D02*
X075568Y010125D01*
X075700Y009927D02*
X069716Y009927D01*
X069915Y009728D02*
X075700Y009728D01*
X075700Y009530D02*
X070086Y009530D01*
X070218Y009331D02*
X075700Y009331D01*
X075700Y009133D02*
X070351Y009133D01*
X070436Y008934D02*
X075769Y008934D01*
X076015Y008736D02*
X070518Y008736D01*
X076200Y009331D02*
X079200Y009331D01*
X079200Y009530D02*
X076200Y009530D01*
X076200Y009728D02*
X079200Y009728D01*
X079200Y009927D02*
X076200Y009927D01*
X076200Y010125D02*
X079200Y010125D01*
X079200Y010324D02*
X076076Y010324D01*
X075878Y010522D02*
X079200Y010522D01*
X079200Y010721D02*
X075679Y010721D01*
X075481Y010919D02*
X079200Y010919D01*
X079200Y011118D02*
X075282Y011118D01*
X068400Y012100D02*
X068100Y012000D01*
X065200Y011600D02*
X065000Y011600D01*
X050150Y013900D02*
X050150Y016900D01*
X050950Y017700D01*
X051150Y017700D01*
X049250Y017700D02*
X048600Y017700D01*
X048150Y017250D01*
X048150Y013850D01*
X047057Y012110D02*
X044119Y012110D01*
X043881Y012110D02*
X040469Y012110D01*
X040692Y011912D02*
X043658Y011912D01*
X043622Y011713D02*
X040728Y011713D01*
X040649Y011515D02*
X043701Y011515D01*
X044342Y011912D02*
X047022Y011912D01*
X049750Y008650D02*
X050100Y008800D01*
X042974Y006450D02*
X042750Y006674D01*
X042458Y006795D01*
X042142Y006795D01*
X041850Y006674D01*
X041626Y006450D01*
X041505Y006158D01*
X041505Y005842D01*
X041626Y005550D01*
X041850Y005326D01*
X042142Y005205D01*
X042458Y005205D01*
X042750Y005326D01*
X042974Y005550D01*
X043095Y005842D01*
X043095Y006158D01*
X042974Y006450D01*
X043014Y006354D02*
X057717Y006354D01*
X057518Y006552D02*
X042872Y006552D01*
X042566Y006751D02*
X057320Y006751D01*
X057915Y006155D02*
X043095Y006155D01*
X043095Y005957D02*
X058114Y005957D01*
X058312Y005758D02*
X043060Y005758D01*
X042978Y005560D02*
X058511Y005560D01*
X058709Y005361D02*
X042785Y005361D01*
X041815Y005361D02*
X020528Y005361D01*
X020507Y005311D02*
X020598Y005531D01*
X020598Y005769D01*
X020507Y005989D01*
X020339Y006157D01*
X020119Y006248D01*
X019881Y006248D01*
X019661Y006157D01*
X019493Y005989D01*
X019402Y005769D01*
X019402Y005531D01*
X019493Y005311D01*
X019661Y005143D01*
X019881Y005052D01*
X020119Y005052D01*
X020339Y005143D01*
X020507Y005311D01*
X020358Y005163D02*
X058908Y005163D01*
X059106Y004964D02*
X014095Y004964D01*
X014095Y005108D02*
X014095Y004792D01*
X013974Y004500D01*
X013750Y004276D01*
X013458Y004155D01*
X013142Y004155D01*
X012850Y004276D01*
X012626Y004500D01*
X012505Y004792D01*
X012505Y005108D01*
X012626Y005400D01*
X012850Y005624D01*
X013142Y005745D01*
X013458Y005745D01*
X013750Y005624D01*
X013974Y005400D01*
X014095Y005108D01*
X014072Y005163D02*
X019642Y005163D01*
X019472Y005361D02*
X013990Y005361D01*
X013815Y005560D02*
X018313Y005560D01*
X018331Y005552D02*
X018569Y005552D01*
X018789Y005643D01*
X018957Y005811D01*
X019048Y006031D01*
X019048Y006269D01*
X018957Y006489D01*
X018789Y006657D01*
X018569Y006748D01*
X018331Y006748D01*
X018111Y006657D01*
X017943Y006489D01*
X017852Y006269D01*
X017852Y006031D01*
X017943Y005811D01*
X018111Y005643D01*
X018331Y005552D01*
X018587Y005560D02*
X019402Y005560D01*
X019402Y005758D02*
X018904Y005758D01*
X019017Y005957D02*
X019480Y005957D01*
X019659Y006155D02*
X019048Y006155D01*
X019013Y006354D02*
X029555Y006354D01*
X029502Y006552D02*
X018894Y006552D01*
X018006Y006552D02*
X000700Y006552D01*
X000700Y006354D02*
X017887Y006354D01*
X017852Y006155D02*
X000700Y006155D01*
X000700Y005957D02*
X017883Y005957D01*
X017996Y005758D02*
X000700Y005758D01*
X000700Y005560D02*
X012785Y005560D01*
X012610Y005361D02*
X000700Y005361D01*
X000700Y005163D02*
X012528Y005163D01*
X012505Y004964D02*
X000700Y004964D01*
X000700Y004766D02*
X012516Y004766D01*
X012598Y004567D02*
X000700Y004567D01*
X000700Y004369D02*
X012757Y004369D01*
X013106Y004170D02*
X000700Y004170D01*
X000700Y003972D02*
X002132Y003972D01*
X002165Y003991D02*
X001850Y003808D01*
X001592Y003550D01*
X001409Y003235D01*
X001315Y002882D01*
X001315Y002518D01*
X001409Y002165D01*
X001592Y001850D01*
X001850Y001592D01*
X002165Y001409D01*
X002518Y001315D01*
X002882Y001315D01*
X003235Y001409D01*
X003550Y001592D01*
X003808Y001850D01*
X003991Y002165D01*
X004085Y002518D01*
X004085Y002882D01*
X003991Y003235D01*
X003808Y003550D01*
X003550Y003808D01*
X003235Y003991D01*
X002882Y004085D01*
X002518Y004085D01*
X002165Y003991D01*
X001814Y003773D02*
X000700Y003773D01*
X000700Y003575D02*
X001616Y003575D01*
X001491Y003376D02*
X000700Y003376D01*
X000700Y003178D02*
X001394Y003178D01*
X001341Y002979D02*
X000700Y002979D01*
X000700Y002781D02*
X001315Y002781D01*
X001315Y002582D02*
X000700Y002582D01*
X000700Y002384D02*
X001351Y002384D01*
X001404Y002185D02*
X000700Y002185D01*
X000700Y001987D02*
X001513Y001987D01*
X001653Y001788D02*
X000700Y001788D01*
X000700Y001590D02*
X001853Y001590D01*
X002234Y001391D02*
X000700Y001391D01*
X003166Y001391D02*
X062963Y001391D01*
X062510Y001590D02*
X003547Y001590D01*
X003747Y001788D02*
X062282Y001788D01*
X062084Y001987D02*
X003887Y001987D01*
X003996Y002185D02*
X061885Y002185D01*
X061687Y002384D02*
X004049Y002384D01*
X004085Y002582D02*
X036756Y002582D01*
X036650Y002626D02*
X036942Y002505D01*
X037258Y002505D01*
X037550Y002626D01*
X037774Y002850D01*
X037895Y003142D01*
X037895Y003458D01*
X037774Y003750D01*
X037550Y003974D01*
X037258Y004095D01*
X036942Y004095D01*
X036650Y003974D01*
X036426Y003750D01*
X036305Y003458D01*
X036305Y003142D01*
X036426Y002850D01*
X036650Y002626D01*
X036495Y002781D02*
X004085Y002781D01*
X004059Y002979D02*
X036372Y002979D01*
X036305Y003178D02*
X004006Y003178D01*
X003909Y003376D02*
X036305Y003376D01*
X036353Y003575D02*
X003784Y003575D01*
X003586Y003773D02*
X036449Y003773D01*
X036647Y003972D02*
X003268Y003972D01*
X013494Y004170D02*
X059900Y004170D01*
X059702Y004369D02*
X013843Y004369D01*
X014002Y004567D02*
X059503Y004567D01*
X059305Y004766D02*
X014084Y004766D01*
X020341Y006155D02*
X029699Y006155D01*
X029952Y005957D02*
X020520Y005957D01*
X020598Y005758D02*
X030024Y005758D01*
X030195Y005560D02*
X020598Y005560D01*
X030685Y006751D02*
X042034Y006751D01*
X041728Y006552D02*
X030894Y006552D01*
X031072Y006354D02*
X041586Y006354D01*
X041505Y006155D02*
X031148Y006155D01*
X031148Y005957D02*
X041505Y005957D01*
X041540Y005758D02*
X031076Y005758D01*
X030905Y005560D02*
X041622Y005560D01*
X037553Y003972D02*
X060099Y003972D01*
X060297Y003773D02*
X037751Y003773D01*
X037847Y003575D02*
X060496Y003575D01*
X060694Y003376D02*
X037895Y003376D01*
X037895Y003178D02*
X060893Y003178D01*
X061091Y002979D02*
X037828Y002979D01*
X037705Y002781D02*
X061290Y002781D01*
X061488Y002582D02*
X037444Y002582D01*
X024342Y008339D02*
X000700Y008339D01*
X000700Y008537D02*
X024260Y008537D01*
X024250Y008736D02*
X000700Y008736D01*
X000700Y008934D02*
X024289Y008934D01*
X024393Y009133D02*
X000700Y009133D01*
X000700Y009331D02*
X024644Y009331D01*
X028200Y009350D02*
X028700Y009350D01*
X028900Y009550D01*
X024700Y011912D02*
X000700Y011912D01*
X000700Y012110D02*
X024700Y012110D01*
X024700Y012309D02*
X000700Y012309D01*
X000700Y012507D02*
X024700Y012507D01*
X024700Y012706D02*
X000700Y012706D01*
X000700Y012904D02*
X024700Y012904D01*
X024700Y013103D02*
X000700Y013103D01*
X000700Y013301D02*
X024701Y013301D01*
X024792Y013500D02*
X000700Y013500D01*
X000700Y013698D02*
X025096Y013698D01*
X025200Y012904D02*
X031569Y012904D01*
X031434Y012706D02*
X025200Y012706D01*
X025950Y012850D02*
X026050Y012950D01*
X026200Y012900D01*
X007100Y015000D02*
X007100Y015300D01*
X007100Y015000D02*
X006900Y015000D01*
X005750Y015088D02*
X000700Y015088D01*
X000700Y015286D02*
X005750Y015286D01*
X005750Y015485D02*
X000700Y015485D01*
X000700Y015683D02*
X005750Y015683D01*
X005750Y015882D02*
X000700Y015882D01*
X000700Y016080D02*
X005750Y016080D01*
X005750Y016279D02*
X000700Y016279D01*
X000700Y016477D02*
X005750Y016477D01*
X005750Y016676D02*
X000700Y016676D01*
X000700Y016874D02*
X005750Y016874D01*
X005750Y017073D02*
X000700Y017073D01*
X000700Y017271D02*
X005750Y017271D01*
X005750Y017470D02*
X000700Y017470D01*
X000700Y017668D02*
X005750Y017668D01*
X005750Y017867D02*
X000700Y017867D01*
X000700Y018065D02*
X005750Y018065D01*
X005750Y018264D02*
X000700Y018264D01*
X000700Y018462D02*
X005750Y018462D01*
X005750Y018661D02*
X000700Y018661D01*
X000700Y018859D02*
X005750Y018859D01*
X005750Y019058D02*
X000700Y019058D01*
X000700Y019256D02*
X005750Y019256D01*
X005750Y019455D02*
X000700Y019455D01*
X000700Y019653D02*
X005750Y019653D01*
X005750Y019852D02*
X000700Y019852D01*
X000700Y020050D02*
X005750Y020050D01*
X005750Y020249D02*
X000700Y020249D01*
X000700Y020447D02*
X005750Y020447D01*
X005750Y020646D02*
X000700Y020646D01*
X000700Y020844D02*
X005750Y020844D01*
X005750Y021043D02*
X000700Y021043D01*
X000700Y021241D02*
X005750Y021241D01*
X005750Y021440D02*
X003287Y021440D01*
X003235Y021409D02*
X003550Y021592D01*
X003808Y021850D01*
X003991Y022165D01*
X004085Y022518D01*
X004085Y022882D01*
X003991Y023235D01*
X003808Y023550D01*
X003550Y023808D01*
X003235Y023991D01*
X002882Y024085D01*
X002518Y024085D01*
X002165Y023991D01*
X001850Y023808D01*
X001592Y023550D01*
X001409Y023235D01*
X001315Y022882D01*
X001315Y022518D01*
X001409Y022165D01*
X001592Y021850D01*
X001850Y021592D01*
X002165Y021409D01*
X002518Y021315D01*
X002882Y021315D01*
X003235Y021409D01*
X003597Y021638D02*
X005750Y021638D01*
X005750Y021837D02*
X003795Y021837D01*
X003915Y022035D02*
X005750Y022035D01*
X005750Y022234D02*
X004009Y022234D01*
X004062Y022432D02*
X005750Y022432D01*
X005750Y022631D02*
X004085Y022631D01*
X004085Y022829D02*
X005750Y022829D01*
X005750Y023028D02*
X004046Y023028D01*
X003993Y023226D02*
X005750Y023226D01*
X005806Y023425D02*
X003881Y023425D01*
X003736Y023623D02*
X006045Y023623D01*
X003527Y023822D02*
X116873Y023822D01*
X117275Y024020D02*
X003125Y024020D01*
X002275Y024020D02*
X000700Y024020D01*
X000700Y023822D02*
X001873Y023822D01*
X001664Y023623D02*
X000700Y023623D01*
X000700Y023425D02*
X001519Y023425D01*
X001407Y023226D02*
X000700Y023226D01*
X000700Y023028D02*
X001354Y023028D01*
X001315Y022829D02*
X000700Y022829D01*
X000700Y022631D02*
X001315Y022631D01*
X001338Y022432D02*
X000700Y022432D01*
X000700Y022234D02*
X001391Y022234D01*
X001485Y022035D02*
X000700Y022035D01*
X000700Y021837D02*
X001605Y021837D01*
X001803Y021638D02*
X000700Y021638D01*
X000700Y021440D02*
X002113Y021440D01*
X000700Y024219D02*
X119700Y024219D01*
X119700Y024417D02*
X000700Y024417D01*
X000700Y024616D02*
X119700Y024616D01*
X119700Y024020D02*
X118125Y024020D01*
X118527Y023822D02*
X119700Y023822D01*
X119700Y023623D02*
X118736Y023623D01*
X118881Y023425D02*
X119700Y023425D01*
X119700Y023226D02*
X118993Y023226D01*
X119046Y023028D02*
X119700Y023028D01*
X119700Y022829D02*
X119085Y022829D01*
X119085Y022631D02*
X119700Y022631D01*
X119700Y022432D02*
X119062Y022432D01*
X119009Y022234D02*
X119700Y022234D01*
X119700Y022035D02*
X118915Y022035D01*
X118795Y021837D02*
X119700Y021837D01*
X119700Y021638D02*
X118597Y021638D01*
X118287Y021440D02*
X119700Y021440D01*
X081100Y020800D02*
X049700Y020800D01*
X049250Y020350D01*
X049250Y019550D01*
X055850Y015850D02*
X057700Y017700D01*
X055850Y015850D02*
X051150Y015850D01*
X007100Y017100D02*
X007100Y017200D01*
X006800Y017200D01*
X005293Y014889D02*
X000700Y014889D01*
X000700Y014691D02*
X005152Y014691D01*
X005102Y014492D02*
X000700Y014492D01*
X000700Y014294D02*
X005117Y014294D01*
X005209Y014095D02*
X000700Y014095D01*
X000700Y013897D02*
X005473Y013897D01*
X095256Y008934D02*
X097750Y008934D01*
X097750Y008736D02*
X095448Y008736D01*
X095530Y008537D02*
X097750Y008537D01*
X097750Y008339D02*
X095550Y008339D01*
X095521Y008140D02*
X097750Y008140D01*
X097750Y007942D02*
X095431Y007942D01*
D21*
X035400Y005550D03*
X033650Y005550D03*
D22*
X030050Y015850D02*
X028650Y015850D01*
X030050Y015850D02*
X031900Y017700D01*
X035200Y017700D01*
D23*
X107200Y011631D02*
X107200Y008050D01*
X108550Y006700D01*
X109200Y006700D01*
X112700Y003200D01*
X107200Y011631D02*
X107405Y011836D01*
D24*
X104200Y011200D02*
X104200Y009598D01*
X104060Y009738D01*
X103826Y009835D01*
X103574Y009835D01*
X103340Y009738D01*
X103200Y009598D01*
X103060Y009738D01*
X102826Y009835D01*
X102574Y009835D01*
X102340Y009738D01*
X102200Y009598D01*
X102060Y009738D01*
X101826Y009835D01*
X101574Y009835D01*
X101340Y009738D01*
X101162Y009560D01*
X101091Y009390D01*
X101072Y009428D01*
X101032Y009483D01*
X100983Y009532D01*
X100928Y009572D01*
X100867Y009603D01*
X100802Y009624D01*
X100745Y009633D01*
X100745Y009245D01*
X100655Y009245D01*
X100655Y009633D01*
X100598Y009624D01*
X100533Y009603D01*
X100472Y009572D01*
X100417Y009532D01*
X100368Y009483D01*
X100328Y009428D01*
X100297Y009367D01*
X100276Y009302D01*
X100267Y009245D01*
X100655Y009245D01*
X100655Y009155D01*
X100745Y009155D01*
X100745Y008767D01*
X100802Y008776D01*
X100867Y008797D01*
X100928Y008828D01*
X100983Y008868D01*
X101150Y008868D01*
X101162Y008840D02*
X101340Y008662D01*
X101574Y008565D01*
X101826Y008565D01*
X102060Y008662D01*
X102200Y008802D01*
X102340Y008662D01*
X102574Y008565D01*
X102826Y008565D01*
X103060Y008662D01*
X103200Y008802D01*
X103340Y008662D01*
X103574Y008565D01*
X103826Y008565D01*
X104060Y008662D01*
X104200Y008802D01*
X104200Y008200D01*
X105200Y007200D01*
X098200Y007200D01*
X098200Y012200D01*
X096200Y014200D01*
X094056Y014200D01*
X094221Y014364D01*
X094319Y014601D01*
X094319Y014858D01*
X094221Y015095D01*
X094039Y015277D01*
X093802Y015375D01*
X093545Y015375D01*
X093308Y015277D01*
X093181Y015150D01*
X093055Y015277D01*
X092818Y015375D01*
X092561Y015375D01*
X092324Y015277D01*
X092197Y015150D01*
X092071Y015277D01*
X091833Y015375D01*
X091577Y015375D01*
X091340Y015277D01*
X091158Y015095D01*
X091060Y014858D01*
X091060Y014601D01*
X091158Y014364D01*
X091322Y014200D01*
X050619Y014200D01*
X050615Y014210D01*
X050600Y014225D01*
X050600Y015163D01*
X050654Y015108D01*
X050976Y014975D01*
X051324Y014975D01*
X051646Y015108D01*
X051892Y015354D01*
X051911Y015400D01*
X055940Y015400D01*
X056105Y015469D01*
X057691Y017055D01*
X057828Y017055D01*
X058066Y017153D01*
X058200Y017287D01*
X058334Y017153D01*
X058572Y017055D01*
X058828Y017055D01*
X059066Y017153D01*
X059247Y017334D01*
X059345Y017572D01*
X059345Y017828D01*
X059247Y018066D01*
X059066Y018247D01*
X058828Y018345D01*
X058572Y018345D01*
X058334Y018247D01*
X058200Y018113D01*
X058066Y018247D01*
X057828Y018345D01*
X057572Y018345D01*
X057334Y018247D01*
X057153Y018066D01*
X057055Y017828D01*
X057055Y017691D01*
X055664Y016300D01*
X051911Y016300D01*
X051892Y016346D01*
X051646Y016592D01*
X051324Y016725D01*
X050976Y016725D01*
X050654Y016592D01*
X050600Y016537D01*
X050600Y016714D01*
X050789Y016902D01*
X050976Y016825D01*
X051324Y016825D01*
X051646Y016958D01*
X051892Y017204D01*
X052025Y017526D01*
X052025Y017874D01*
X051892Y018196D01*
X051646Y018442D01*
X051324Y018575D01*
X050976Y018575D01*
X050654Y018442D01*
X050408Y018196D01*
X050275Y017874D01*
X050275Y017661D01*
X050115Y017501D01*
X050125Y017526D01*
X050125Y017874D01*
X049992Y018196D01*
X049746Y018442D01*
X049424Y018575D01*
X049076Y018575D01*
X048754Y018442D01*
X048508Y018196D01*
X048485Y018139D01*
X048345Y018081D01*
X047895Y017631D01*
X047769Y017505D01*
X047700Y017340D01*
X047700Y014200D01*
X028425Y014200D01*
X028310Y014315D01*
X028150Y014381D01*
X028150Y015113D01*
X028154Y015108D01*
X028476Y014975D01*
X028824Y014975D01*
X029146Y015108D01*
X029392Y015354D01*
X029415Y015410D01*
X030138Y015410D01*
X030299Y015477D01*
X030423Y015601D01*
X032082Y017260D01*
X034727Y017260D01*
X034834Y017153D01*
X035072Y017055D01*
X035328Y017055D01*
X035566Y017153D01*
X035700Y017287D01*
X035834Y017153D01*
X036072Y017055D01*
X036328Y017055D01*
X036566Y017153D01*
X036747Y017334D01*
X036845Y017572D01*
X036845Y017828D01*
X036747Y018066D01*
X036566Y018247D01*
X036328Y018345D01*
X036072Y018345D01*
X035834Y018247D01*
X035700Y018113D01*
X035566Y018247D01*
X035328Y018345D01*
X035072Y018345D01*
X034834Y018247D01*
X034727Y018140D01*
X031812Y018140D01*
X031651Y018073D01*
X029868Y016290D01*
X029415Y016290D01*
X029392Y016346D01*
X029146Y016592D01*
X028824Y016725D01*
X028476Y016725D01*
X028366Y016679D01*
X028511Y016825D01*
X028824Y016825D01*
X029146Y016958D01*
X029392Y017204D01*
X029525Y017526D01*
X029525Y017874D01*
X029392Y018196D01*
X029146Y018442D01*
X028824Y018575D01*
X028476Y018575D01*
X028154Y018442D01*
X027908Y018196D01*
X027775Y017874D01*
X027775Y017526D01*
X027823Y017410D01*
X027319Y016905D01*
X027250Y016740D01*
X027250Y016537D01*
X027196Y016592D01*
X026874Y016725D01*
X026526Y016725D01*
X026330Y016644D01*
X026530Y016844D01*
X026576Y016825D01*
X026924Y016825D01*
X027246Y016958D01*
X027492Y017204D01*
X027625Y017526D01*
X027625Y017874D01*
X027492Y018196D01*
X027246Y018442D01*
X026924Y018575D01*
X026576Y018575D01*
X026254Y018442D01*
X026008Y018196D01*
X025875Y017874D01*
X025875Y017526D01*
X025894Y017480D01*
X025395Y016981D01*
X025269Y016855D01*
X025200Y016690D01*
X025200Y015010D01*
X025269Y014845D01*
X025914Y014200D01*
X006931Y014200D01*
X006948Y014241D01*
X006948Y014459D01*
X006865Y014660D01*
X006710Y014815D01*
X006509Y014898D01*
X006291Y014898D01*
X006200Y014860D01*
X006200Y023200D01*
X092200Y023200D01*
X104200Y011200D01*
X104168Y011232D02*
X100122Y011232D01*
X100176Y011254D02*
X100369Y011448D01*
X100473Y011700D01*
X100473Y011863D01*
X100722Y011760D01*
X101057Y011760D01*
X101367Y011889D01*
X101605Y012126D01*
X101733Y012436D01*
X101733Y012772D01*
X101605Y013082D01*
X101367Y013319D01*
X101057Y013448D01*
X100722Y013448D01*
X100411Y013319D01*
X100174Y013082D01*
X100046Y012772D01*
X100046Y012472D01*
X099924Y012522D01*
X099651Y012522D01*
X099398Y012418D01*
X099205Y012225D01*
X099101Y011973D01*
X099101Y011700D01*
X099205Y011448D01*
X099398Y011254D01*
X099651Y011150D01*
X099924Y011150D01*
X100176Y011254D01*
X100252Y011331D02*
X104069Y011331D01*
X103971Y011429D02*
X100350Y011429D01*
X100402Y011528D02*
X103872Y011528D01*
X103774Y011626D02*
X100443Y011626D01*
X100473Y011725D02*
X103675Y011725D01*
X103577Y011823D02*
X101209Y011823D01*
X101400Y011922D02*
X103478Y011922D01*
X103380Y012020D02*
X101499Y012020D01*
X101597Y012119D02*
X103281Y012119D01*
X103183Y012217D02*
X101642Y012217D01*
X101683Y012316D02*
X103084Y012316D01*
X102986Y012414D02*
X101724Y012414D01*
X101733Y012513D02*
X102887Y012513D01*
X102789Y012611D02*
X101733Y012611D01*
X101733Y012710D02*
X102690Y012710D01*
X102592Y012808D02*
X101718Y012808D01*
X101677Y012907D02*
X102493Y012907D01*
X102395Y013005D02*
X101636Y013005D01*
X101583Y013104D02*
X102296Y013104D01*
X102198Y013202D02*
X101484Y013202D01*
X101386Y013301D02*
X102099Y013301D01*
X102001Y013399D02*
X101175Y013399D01*
X100604Y013399D02*
X097001Y013399D01*
X097099Y013301D02*
X100393Y013301D01*
X100294Y013202D02*
X097198Y013202D01*
X097296Y013104D02*
X100196Y013104D01*
X100142Y013005D02*
X097395Y013005D01*
X097493Y012907D02*
X100101Y012907D01*
X100061Y012808D02*
X097592Y012808D01*
X097690Y012710D02*
X100046Y012710D01*
X100046Y012611D02*
X097789Y012611D01*
X097887Y012513D02*
X099627Y012513D01*
X099394Y012414D02*
X097986Y012414D01*
X098084Y012316D02*
X099296Y012316D01*
X099202Y012217D02*
X098183Y012217D01*
X098200Y012119D02*
X099161Y012119D01*
X099120Y012020D02*
X098200Y012020D01*
X098200Y011922D02*
X099101Y011922D01*
X099101Y011823D02*
X098200Y011823D01*
X098200Y011725D02*
X099101Y011725D01*
X099131Y011626D02*
X098200Y011626D01*
X098200Y011528D02*
X099172Y011528D01*
X099224Y011429D02*
X098200Y011429D01*
X098200Y011331D02*
X099322Y011331D01*
X099452Y011232D02*
X098200Y011232D01*
X098200Y011134D02*
X104200Y011134D01*
X104200Y011035D02*
X098200Y011035D01*
X098200Y010937D02*
X101713Y010937D01*
X101741Y010948D02*
X101540Y010865D01*
X101385Y010710D01*
X101302Y010509D01*
X101302Y010291D01*
X101385Y010090D01*
X101540Y009935D01*
X101741Y009852D01*
X101959Y009852D01*
X102160Y009935D01*
X102315Y010090D01*
X102398Y010291D01*
X102398Y010509D01*
X102315Y010710D01*
X102160Y010865D01*
X101959Y010948D01*
X101741Y010948D01*
X101987Y010937D02*
X104200Y010937D01*
X104200Y010838D02*
X102187Y010838D01*
X102286Y010740D02*
X104200Y010740D01*
X104200Y010641D02*
X102343Y010641D01*
X102384Y010543D02*
X104200Y010543D01*
X104200Y010444D02*
X102398Y010444D01*
X102398Y010346D02*
X104200Y010346D01*
X104200Y010247D02*
X102380Y010247D01*
X102339Y010149D02*
X104200Y010149D01*
X104200Y010050D02*
X102275Y010050D01*
X102177Y009952D02*
X104200Y009952D01*
X104200Y009853D02*
X101962Y009853D01*
X102021Y009755D02*
X102379Y009755D01*
X102258Y009656D02*
X102142Y009656D01*
X101738Y009853D02*
X098200Y009853D01*
X098200Y009755D02*
X101379Y009755D01*
X101258Y009656D02*
X098200Y009656D01*
X098200Y009558D02*
X100452Y009558D01*
X100351Y009459D02*
X098200Y009459D01*
X098200Y009361D02*
X100295Y009361D01*
X100269Y009262D02*
X098200Y009262D01*
X098200Y009164D02*
X100655Y009164D01*
X100655Y009155D02*
X100267Y009155D01*
X100276Y009098D01*
X100297Y009033D01*
X100328Y008972D01*
X100368Y008917D01*
X100417Y008868D01*
X098200Y008868D01*
X098200Y008770D02*
X100637Y008770D01*
X100655Y008770D02*
X100745Y008770D01*
X100763Y008770D02*
X101232Y008770D01*
X101162Y008840D02*
X101091Y009010D01*
X101072Y008972D01*
X101032Y008917D01*
X100983Y008868D01*
X101068Y008967D02*
X101109Y008967D01*
X100745Y008967D02*
X100655Y008967D01*
X100655Y009065D02*
X100745Y009065D01*
X100655Y009155D02*
X100655Y008767D01*
X100598Y008776D01*
X100533Y008797D01*
X100472Y008828D01*
X100417Y008868D01*
X100332Y008967D02*
X098200Y008967D01*
X098200Y009065D02*
X100286Y009065D01*
X100655Y008868D02*
X100745Y008868D01*
X101331Y008671D02*
X098200Y008671D01*
X098200Y008573D02*
X101556Y008573D01*
X101844Y008573D02*
X102556Y008573D01*
X102331Y008671D02*
X102069Y008671D01*
X102168Y008770D02*
X102232Y008770D01*
X102844Y008573D02*
X103556Y008573D01*
X103331Y008671D02*
X103069Y008671D01*
X103168Y008770D02*
X103232Y008770D01*
X103844Y008573D02*
X104200Y008573D01*
X104200Y008671D02*
X104069Y008671D01*
X104168Y008770D02*
X104200Y008770D01*
X104200Y008474D02*
X098200Y008474D01*
X098200Y008376D02*
X104200Y008376D01*
X104200Y008277D02*
X098200Y008277D01*
X098200Y008179D02*
X104221Y008179D01*
X104320Y008080D02*
X098200Y008080D01*
X098200Y007982D02*
X104418Y007982D01*
X104517Y007883D02*
X098200Y007883D01*
X098200Y007785D02*
X104615Y007785D01*
X104714Y007686D02*
X098200Y007686D01*
X098200Y007588D02*
X104812Y007588D01*
X104911Y007489D02*
X098200Y007489D01*
X098200Y007391D02*
X105009Y007391D01*
X105108Y007292D02*
X098200Y007292D01*
X100655Y009262D02*
X100745Y009262D01*
X100745Y009361D02*
X100655Y009361D01*
X100655Y009459D02*
X100745Y009459D01*
X100745Y009558D02*
X100655Y009558D01*
X100948Y009558D02*
X101161Y009558D01*
X101120Y009459D02*
X101049Y009459D01*
X101523Y009952D02*
X098200Y009952D01*
X098200Y010050D02*
X101425Y010050D01*
X101361Y010149D02*
X098200Y010149D01*
X098200Y010247D02*
X101320Y010247D01*
X101302Y010346D02*
X098200Y010346D01*
X098200Y010444D02*
X101302Y010444D01*
X101316Y010543D02*
X098200Y010543D01*
X098200Y010641D02*
X101357Y010641D01*
X101414Y010740D02*
X098200Y010740D01*
X098200Y010838D02*
X101513Y010838D01*
X100570Y011823D02*
X100473Y011823D01*
X100046Y012513D02*
X099947Y012513D01*
X101705Y013695D02*
X096705Y013695D01*
X096607Y013793D02*
X101607Y013793D01*
X101508Y013892D02*
X096508Y013892D01*
X096410Y013990D02*
X101410Y013990D01*
X101311Y014089D02*
X096311Y014089D01*
X096213Y014187D02*
X101213Y014187D01*
X101114Y014286D02*
X097940Y014286D01*
X097859Y014252D02*
X098060Y014335D01*
X098215Y014490D01*
X098298Y014691D01*
X098298Y014909D01*
X098215Y015110D01*
X098060Y015265D01*
X097859Y015348D01*
X097641Y015348D01*
X097440Y015265D01*
X097285Y015110D01*
X097202Y014909D01*
X097202Y014691D01*
X097285Y014490D01*
X097440Y014335D01*
X097641Y014252D01*
X097859Y014252D01*
X098109Y014384D02*
X101016Y014384D01*
X100917Y014483D02*
X098208Y014483D01*
X098253Y014581D02*
X100819Y014581D01*
X100720Y014680D02*
X098293Y014680D01*
X098298Y014778D02*
X100622Y014778D01*
X100523Y014877D02*
X098298Y014877D01*
X098271Y014975D02*
X100425Y014975D01*
X100326Y015074D02*
X098230Y015074D01*
X098153Y015172D02*
X100228Y015172D01*
X100129Y015271D02*
X098046Y015271D01*
X097454Y015271D02*
X094045Y015271D01*
X094144Y015172D02*
X097347Y015172D01*
X097270Y015074D02*
X094230Y015074D01*
X094270Y014975D02*
X097229Y014975D01*
X097202Y014877D02*
X094311Y014877D01*
X094319Y014778D02*
X097202Y014778D01*
X097207Y014680D02*
X094319Y014680D01*
X094310Y014581D02*
X097247Y014581D01*
X097292Y014483D02*
X094270Y014483D01*
X094229Y014384D02*
X097391Y014384D01*
X097560Y014286D02*
X094142Y014286D01*
X093203Y015172D02*
X093160Y015172D01*
X093061Y015271D02*
X093302Y015271D01*
X093531Y015369D02*
X092832Y015369D01*
X092547Y015369D02*
X091848Y015369D01*
X092077Y015271D02*
X092318Y015271D01*
X092219Y015172D02*
X092175Y015172D01*
X091562Y015369D02*
X085998Y015369D01*
X085965Y015290D02*
X086048Y015491D01*
X086048Y015709D01*
X085965Y015910D01*
X085810Y016065D01*
X085609Y016148D01*
X085391Y016148D01*
X085190Y016065D01*
X085035Y015910D01*
X084952Y015709D01*
X084952Y015491D01*
X085035Y015290D01*
X085190Y015135D01*
X085391Y015052D01*
X085609Y015052D01*
X085810Y015135D01*
X085965Y015290D01*
X085946Y015271D02*
X091333Y015271D01*
X091235Y015172D02*
X085847Y015172D01*
X085661Y015074D02*
X091149Y015074D01*
X091108Y014975D02*
X082611Y014975D01*
X082593Y014957D02*
X082643Y015007D01*
X082685Y015064D01*
X082717Y015127D01*
X082739Y015195D01*
X082748Y015250D01*
X082350Y015250D01*
X082350Y015350D01*
X082748Y015350D01*
X082739Y015405D01*
X082717Y015473D01*
X082685Y015536D01*
X082643Y015593D01*
X082593Y015643D01*
X082536Y015685D01*
X082526Y015690D01*
X082668Y015749D01*
X082851Y015932D01*
X082950Y016171D01*
X082950Y016429D01*
X082851Y016668D01*
X082668Y016851D01*
X082429Y016950D01*
X082171Y016950D01*
X081932Y016851D01*
X081749Y016668D01*
X081650Y016429D01*
X081650Y016171D01*
X081749Y015932D01*
X081932Y015749D01*
X082074Y015690D01*
X082064Y015685D01*
X082007Y015643D01*
X081957Y015593D01*
X081915Y015536D01*
X081883Y015473D01*
X081861Y015405D01*
X081852Y015350D01*
X082250Y015350D01*
X082250Y015250D01*
X082350Y015250D01*
X082350Y014852D01*
X082405Y014861D01*
X082473Y014883D01*
X082536Y014915D01*
X082593Y014957D01*
X082690Y015074D02*
X085339Y015074D01*
X085153Y015172D02*
X082732Y015172D01*
X082745Y015369D02*
X085002Y015369D01*
X084962Y015468D02*
X082719Y015468D01*
X082663Y015566D02*
X084952Y015566D01*
X084952Y015665D02*
X082564Y015665D01*
X082682Y015763D02*
X084974Y015763D01*
X085015Y015862D02*
X082781Y015862D01*
X082863Y015960D02*
X085085Y015960D01*
X085183Y016059D02*
X082904Y016059D01*
X082944Y016157D02*
X099243Y016157D01*
X099341Y016059D02*
X085817Y016059D01*
X085915Y015960D02*
X099440Y015960D01*
X099538Y015862D02*
X085985Y015862D01*
X086026Y015763D02*
X099637Y015763D01*
X099735Y015665D02*
X086048Y015665D01*
X086048Y015566D02*
X099834Y015566D01*
X099932Y015468D02*
X086038Y015468D01*
X085054Y015271D02*
X082350Y015271D01*
X082350Y015172D02*
X082250Y015172D01*
X082250Y015250D02*
X082250Y014852D01*
X082195Y014861D01*
X082127Y014883D01*
X082064Y014915D01*
X082007Y014957D01*
X081957Y015007D01*
X081915Y015064D01*
X081883Y015127D01*
X081861Y015195D01*
X081852Y015250D01*
X082250Y015250D01*
X082250Y015271D02*
X077935Y015271D01*
X077915Y015222D02*
X078044Y015532D01*
X078044Y015868D01*
X077915Y016178D01*
X077678Y016415D01*
X077368Y016544D01*
X077032Y016544D01*
X076722Y016415D01*
X076485Y016178D01*
X076356Y015868D01*
X076356Y015532D01*
X076485Y015222D01*
X076722Y014985D01*
X077032Y014856D01*
X077368Y014856D01*
X077678Y014985D01*
X077915Y015222D01*
X077865Y015172D02*
X081868Y015172D01*
X081910Y015074D02*
X077767Y015074D01*
X077654Y014975D02*
X081989Y014975D01*
X082147Y014877D02*
X077417Y014877D01*
X076983Y014877D02*
X059917Y014877D01*
X059868Y014856D02*
X060178Y014985D01*
X060415Y015222D01*
X060544Y015532D01*
X060544Y015868D01*
X060415Y016178D01*
X060178Y016415D01*
X059868Y016544D01*
X059532Y016544D01*
X059222Y016415D01*
X058985Y016178D01*
X058856Y015868D01*
X058856Y015532D01*
X058985Y015222D01*
X059222Y014985D01*
X059532Y014856D01*
X059868Y014856D01*
X060154Y014975D02*
X066526Y014975D01*
X066874Y014975D01*
X067196Y015108D01*
X067442Y015354D01*
X067575Y015676D01*
X067575Y016024D01*
X067442Y016346D01*
X067196Y016592D01*
X066874Y016725D01*
X066526Y016725D01*
X066204Y016592D01*
X065958Y016346D01*
X065825Y016024D01*
X065825Y015676D01*
X065958Y015354D01*
X066204Y015108D01*
X066526Y014975D01*
X066288Y015074D02*
X060267Y015074D01*
X060365Y015172D02*
X066141Y015172D01*
X066042Y015271D02*
X060435Y015271D01*
X060476Y015369D02*
X065952Y015369D01*
X065911Y015468D02*
X060517Y015468D01*
X060544Y015566D02*
X065871Y015566D01*
X065830Y015665D02*
X060544Y015665D01*
X060544Y015763D02*
X065825Y015763D01*
X065825Y015862D02*
X060544Y015862D01*
X060506Y015960D02*
X065825Y015960D01*
X065839Y016059D02*
X060465Y016059D01*
X060424Y016157D02*
X065880Y016157D01*
X065921Y016256D02*
X060338Y016256D01*
X060239Y016354D02*
X065967Y016354D01*
X066065Y016453D02*
X060088Y016453D01*
X059312Y016453D02*
X057089Y016453D01*
X057187Y016551D02*
X066164Y016551D01*
X066344Y016650D02*
X057286Y016650D01*
X057384Y016748D02*
X081829Y016748D01*
X081741Y016650D02*
X069006Y016650D01*
X069146Y016592D02*
X068824Y016725D01*
X068476Y016725D01*
X068154Y016592D01*
X067908Y016346D01*
X067775Y016024D01*
X067775Y015676D01*
X067908Y015354D01*
X068154Y015108D01*
X068476Y014975D01*
X068824Y014975D01*
X069146Y015108D01*
X069392Y015354D01*
X069525Y015676D01*
X069525Y016024D01*
X069392Y016346D01*
X069146Y016592D01*
X069186Y016551D02*
X081700Y016551D01*
X081660Y016453D02*
X077588Y016453D01*
X077739Y016354D02*
X081650Y016354D01*
X081650Y016256D02*
X077838Y016256D01*
X077924Y016157D02*
X081656Y016157D01*
X081696Y016059D02*
X077965Y016059D01*
X078006Y015960D02*
X081737Y015960D01*
X081819Y015862D02*
X078044Y015862D01*
X078044Y015763D02*
X081918Y015763D01*
X082036Y015665D02*
X078044Y015665D01*
X078044Y015566D02*
X081937Y015566D01*
X081881Y015468D02*
X078017Y015468D01*
X077976Y015369D02*
X081855Y015369D01*
X082250Y015074D02*
X082350Y015074D01*
X082350Y014975D02*
X082250Y014975D01*
X082250Y014877D02*
X082350Y014877D01*
X082453Y014877D02*
X091067Y014877D01*
X091060Y014778D02*
X050600Y014778D01*
X050600Y014680D02*
X091060Y014680D01*
X091068Y014581D02*
X050600Y014581D01*
X050600Y014483D02*
X091109Y014483D01*
X091150Y014384D02*
X050600Y014384D01*
X050600Y014286D02*
X091237Y014286D01*
X093816Y015369D02*
X100031Y015369D01*
X099144Y016256D02*
X082950Y016256D01*
X082950Y016354D02*
X099046Y016354D01*
X098947Y016453D02*
X082940Y016453D01*
X082900Y016551D02*
X098849Y016551D01*
X098750Y016650D02*
X082859Y016650D01*
X082771Y016748D02*
X098652Y016748D01*
X098553Y016847D02*
X095221Y016847D01*
X095127Y016807D02*
X095449Y016941D01*
X095695Y017187D01*
X095828Y017508D01*
X095828Y017857D01*
X095695Y018178D01*
X095449Y018424D01*
X095127Y018557D01*
X094779Y018557D01*
X094458Y018424D01*
X094211Y018178D01*
X094078Y017857D01*
X094078Y017508D01*
X094211Y017187D01*
X094458Y016941D01*
X094779Y016807D01*
X095127Y016807D01*
X095453Y016945D02*
X098455Y016945D01*
X098356Y017044D02*
X095552Y017044D01*
X095650Y017142D02*
X098258Y017142D01*
X098159Y017241D02*
X095717Y017241D01*
X095758Y017339D02*
X098061Y017339D01*
X097962Y017438D02*
X095799Y017438D01*
X095828Y017536D02*
X097864Y017536D01*
X097765Y017635D02*
X095828Y017635D01*
X095828Y017733D02*
X097667Y017733D01*
X097568Y017832D02*
X095828Y017832D01*
X095798Y017930D02*
X097470Y017930D01*
X097371Y018029D02*
X095757Y018029D01*
X095716Y018127D02*
X097273Y018127D01*
X097174Y018226D02*
X095648Y018226D01*
X095549Y018324D02*
X097076Y018324D01*
X096977Y018423D02*
X095451Y018423D01*
X095215Y018521D02*
X096879Y018521D01*
X096780Y018620D02*
X077939Y018620D01*
X077948Y018641D02*
X077865Y018440D01*
X077710Y018285D01*
X077509Y018202D01*
X077291Y018202D01*
X077090Y018285D01*
X076935Y018440D01*
X076852Y018641D01*
X076852Y018859D01*
X076935Y019060D01*
X077090Y019215D01*
X077291Y019298D01*
X077509Y019298D01*
X077710Y019215D01*
X077865Y019060D01*
X077948Y018859D01*
X077948Y018641D01*
X077948Y018718D02*
X096682Y018718D01*
X096583Y018817D02*
X077948Y018817D01*
X077925Y018915D02*
X083738Y018915D01*
X083690Y018935D02*
X083891Y018852D01*
X084109Y018852D01*
X084310Y018935D01*
X084465Y019090D01*
X084548Y019291D01*
X084548Y019509D01*
X084465Y019710D01*
X084310Y019865D01*
X084109Y019948D01*
X083891Y019948D01*
X083690Y019865D01*
X083535Y019710D01*
X083521Y019675D01*
X083465Y019810D01*
X083310Y019965D01*
X083109Y020048D01*
X082891Y020048D01*
X082690Y019965D01*
X082535Y019810D01*
X082452Y019609D01*
X082452Y019391D01*
X082535Y019190D01*
X082690Y019035D01*
X082891Y018952D01*
X083109Y018952D01*
X083310Y019035D01*
X083465Y019190D01*
X083479Y019225D01*
X083535Y019090D01*
X083690Y018935D01*
X083611Y019014D02*
X083258Y019014D01*
X083387Y019112D02*
X083526Y019112D01*
X083485Y019211D02*
X083473Y019211D01*
X082742Y019014D02*
X077884Y019014D01*
X077813Y019112D02*
X082613Y019112D01*
X082527Y019211D02*
X081830Y019211D01*
X081809Y019202D02*
X082010Y019285D01*
X082165Y019440D01*
X082248Y019641D01*
X082248Y019859D01*
X082165Y020060D01*
X082010Y020215D01*
X081809Y020298D01*
X081591Y020298D01*
X081390Y020215D01*
X081235Y020060D01*
X081152Y019859D01*
X081152Y019641D01*
X081235Y019440D01*
X081390Y019285D01*
X081591Y019202D01*
X081809Y019202D01*
X081570Y019211D02*
X077715Y019211D01*
X077085Y019211D02*
X073904Y019211D01*
X073915Y019222D02*
X074044Y019532D01*
X074044Y019868D01*
X073915Y020178D01*
X073743Y020350D01*
X080775Y020350D01*
X080790Y020335D01*
X080991Y020252D01*
X081209Y020252D01*
X081410Y020335D01*
X081565Y020490D01*
X081648Y020691D01*
X081648Y020789D01*
X081760Y020835D01*
X081915Y020990D01*
X081998Y021191D01*
X081998Y021409D01*
X081915Y021610D01*
X081760Y021765D01*
X081559Y021848D01*
X081341Y021848D01*
X081140Y021765D01*
X081125Y021750D01*
X063625Y021750D01*
X063710Y021785D01*
X063865Y021940D01*
X063948Y022141D01*
X063948Y022359D01*
X063865Y022560D01*
X089994Y022560D01*
X090034Y022658D02*
X063767Y022658D01*
X063710Y022715D02*
X063509Y022798D01*
X063291Y022798D01*
X063090Y022715D01*
X062935Y022560D01*
X007756Y022560D01*
X007716Y022658D02*
X063033Y022658D01*
X062935Y022560D02*
X062852Y022359D01*
X062852Y022141D01*
X062935Y021940D01*
X063090Y021785D01*
X063175Y021750D01*
X027510Y021750D01*
X027345Y021681D01*
X026495Y020831D01*
X026369Y020705D01*
X026300Y020540D01*
X026300Y020311D01*
X026254Y020292D01*
X026008Y020046D01*
X025875Y019724D01*
X025875Y019376D01*
X026008Y019054D01*
X026254Y018808D01*
X026576Y018675D01*
X026924Y018675D01*
X027246Y018808D01*
X027492Y019054D01*
X027625Y019376D01*
X027625Y019724D01*
X027492Y020046D01*
X027246Y020292D01*
X027233Y020297D01*
X027786Y020850D01*
X049114Y020850D01*
X048995Y020731D01*
X048869Y020605D01*
X048800Y020440D01*
X048800Y020311D01*
X048754Y020292D01*
X048508Y020046D01*
X048375Y019724D01*
X048375Y019376D01*
X048508Y019054D01*
X048754Y018808D01*
X049076Y018675D01*
X049424Y018675D01*
X049746Y018808D01*
X049992Y019054D01*
X050125Y019376D01*
X050125Y019724D01*
X049992Y020046D01*
X049787Y020251D01*
X049886Y020350D01*
X050795Y020350D01*
X050654Y020292D01*
X050408Y020046D01*
X050275Y019724D01*
X050275Y019376D01*
X050408Y019054D01*
X050654Y018808D01*
X050976Y018675D01*
X051324Y018675D01*
X051646Y018808D01*
X051892Y019054D01*
X052025Y019376D01*
X052025Y019724D01*
X051892Y020046D01*
X051646Y020292D01*
X051505Y020350D01*
X055157Y020350D01*
X054985Y020178D01*
X054856Y019868D01*
X054856Y019532D01*
X054985Y019222D01*
X055222Y018985D01*
X055532Y018856D01*
X055868Y018856D01*
X056178Y018985D01*
X056415Y019222D01*
X056544Y019532D01*
X056544Y019868D01*
X056415Y020178D01*
X056243Y020350D01*
X066395Y020350D01*
X066254Y020292D01*
X066008Y020046D01*
X065875Y019724D01*
X065875Y019376D01*
X066008Y019054D01*
X066254Y018808D01*
X066576Y018675D01*
X066924Y018675D01*
X067246Y018808D01*
X067492Y019054D01*
X067625Y019376D01*
X067625Y019724D01*
X067492Y020046D01*
X067246Y020292D01*
X067105Y020350D01*
X072657Y020350D01*
X072485Y020178D01*
X072356Y019868D01*
X072356Y019532D01*
X072485Y019222D01*
X072722Y018985D01*
X073032Y018856D01*
X073368Y018856D01*
X073678Y018985D01*
X073915Y019222D01*
X073951Y019309D02*
X081366Y019309D01*
X081267Y019408D02*
X073992Y019408D01*
X074033Y019506D02*
X081208Y019506D01*
X081167Y019605D02*
X074044Y019605D01*
X074044Y019703D02*
X081152Y019703D01*
X081152Y019802D02*
X074044Y019802D01*
X074030Y019900D02*
X081169Y019900D01*
X081210Y019999D02*
X073990Y019999D01*
X073949Y020097D02*
X081272Y020097D01*
X081370Y020196D02*
X073898Y020196D01*
X073799Y020294D02*
X080889Y020294D01*
X081311Y020294D02*
X081581Y020294D01*
X081468Y020393D02*
X084152Y020393D01*
X084152Y020491D02*
X081565Y020491D01*
X081606Y020590D02*
X084185Y020590D01*
X084152Y020509D02*
X084235Y020710D01*
X084390Y020865D01*
X084591Y020948D01*
X084809Y020948D01*
X085010Y020865D01*
X085165Y020710D01*
X085248Y020509D01*
X085248Y020448D01*
X085309Y020448D01*
X085510Y020365D01*
X085665Y020210D01*
X085748Y020009D01*
X085748Y019791D01*
X085665Y019590D01*
X085510Y019435D01*
X085309Y019352D01*
X085091Y019352D01*
X084890Y019435D01*
X084735Y019590D01*
X084652Y019791D01*
X084652Y019852D01*
X084591Y019852D01*
X084390Y019935D01*
X084235Y020090D01*
X084152Y020291D01*
X084152Y020509D01*
X084226Y020688D02*
X081647Y020688D01*
X081648Y020787D02*
X084311Y020787D01*
X084439Y020885D02*
X081810Y020885D01*
X081909Y020984D02*
X085908Y020984D01*
X085835Y020910D02*
X085752Y020709D01*
X085752Y020491D01*
X085835Y020290D01*
X085990Y020135D01*
X086191Y020052D01*
X086409Y020052D01*
X086610Y020135D01*
X086765Y020290D01*
X086848Y020491D01*
X086848Y020709D01*
X086765Y020910D01*
X086610Y021065D01*
X086409Y021148D01*
X086191Y021148D01*
X085990Y021065D01*
X085835Y020910D01*
X085825Y020885D02*
X084961Y020885D01*
X085089Y020787D02*
X085784Y020787D01*
X085752Y020688D02*
X085174Y020688D01*
X085215Y020590D02*
X085752Y020590D01*
X085752Y020491D02*
X085248Y020491D01*
X085443Y020393D02*
X085793Y020393D01*
X085833Y020294D02*
X085581Y020294D01*
X085671Y020196D02*
X085929Y020196D01*
X086082Y020097D02*
X085712Y020097D01*
X085748Y019999D02*
X091232Y019999D01*
X091158Y020073D02*
X091340Y019891D01*
X091577Y019793D01*
X091833Y019793D01*
X092071Y019891D01*
X092252Y020073D01*
X092350Y020310D01*
X092350Y020567D01*
X092252Y020804D01*
X092071Y020985D01*
X091833Y021084D01*
X091577Y021084D01*
X091340Y020985D01*
X091158Y020804D01*
X091060Y020567D01*
X091060Y020310D01*
X091158Y020073D01*
X091148Y020097D02*
X086518Y020097D01*
X086671Y020196D02*
X091107Y020196D01*
X091066Y020294D02*
X086767Y020294D01*
X086807Y020393D02*
X091060Y020393D01*
X091060Y020491D02*
X086848Y020491D01*
X086848Y020590D02*
X091069Y020590D01*
X091110Y020688D02*
X088313Y020688D01*
X088310Y020685D02*
X088465Y020840D01*
X088548Y021041D01*
X088548Y021259D01*
X088465Y021460D01*
X088310Y021615D01*
X088109Y021698D01*
X087891Y021698D01*
X087690Y021615D01*
X087535Y021460D01*
X087452Y021259D01*
X087452Y021041D01*
X087535Y020840D01*
X087690Y020685D01*
X087891Y020602D01*
X088109Y020602D01*
X088310Y020685D01*
X088412Y020787D02*
X091151Y020787D01*
X091239Y020885D02*
X088484Y020885D01*
X088524Y020984D02*
X091338Y020984D01*
X091573Y021082D02*
X088548Y021082D01*
X088548Y021181D02*
X094219Y021181D01*
X094121Y021279D02*
X088540Y021279D01*
X088499Y021378D02*
X094022Y021378D01*
X093924Y021476D02*
X088449Y021476D01*
X088351Y021575D02*
X093825Y021575D01*
X093727Y021673D02*
X088170Y021673D01*
X087830Y021673D02*
X081852Y021673D01*
X081930Y021575D02*
X087649Y021575D01*
X087551Y021476D02*
X081970Y021476D01*
X081998Y021378D02*
X087501Y021378D01*
X087460Y021279D02*
X081998Y021279D01*
X081994Y021181D02*
X087452Y021181D01*
X087452Y021082D02*
X086569Y021082D01*
X086692Y020984D02*
X087476Y020984D01*
X087516Y020885D02*
X086775Y020885D01*
X086816Y020787D02*
X087588Y020787D01*
X087687Y020688D02*
X086848Y020688D01*
X086031Y021082D02*
X081953Y021082D01*
X081744Y021772D02*
X093628Y021772D01*
X093530Y021870D02*
X090774Y021870D01*
X090810Y021885D02*
X090965Y022040D01*
X091048Y022241D01*
X091048Y022459D01*
X090965Y022660D01*
X090810Y022815D01*
X090609Y022898D01*
X090391Y022898D01*
X090190Y022815D01*
X090035Y022660D01*
X089952Y022459D01*
X089952Y022241D01*
X090035Y022040D01*
X090190Y021885D01*
X090391Y021802D01*
X090609Y021802D01*
X090810Y021885D01*
X090894Y021969D02*
X093431Y021969D01*
X093333Y022067D02*
X090976Y022067D01*
X091017Y022166D02*
X093234Y022166D01*
X093136Y022264D02*
X091048Y022264D01*
X091048Y022363D02*
X093037Y022363D01*
X092939Y022461D02*
X091047Y022461D01*
X091006Y022560D02*
X092840Y022560D01*
X092742Y022658D02*
X090966Y022658D01*
X090869Y022757D02*
X092643Y022757D01*
X092545Y022855D02*
X090713Y022855D01*
X090287Y022855D02*
X007463Y022855D01*
X007560Y022815D02*
X007359Y022898D01*
X007141Y022898D01*
X006940Y022815D01*
X006785Y022660D01*
X006702Y022459D01*
X006702Y022241D01*
X006785Y022040D01*
X006940Y021885D01*
X007141Y021802D01*
X007359Y021802D01*
X007560Y021885D01*
X007715Y022040D01*
X007798Y022241D01*
X007798Y022459D01*
X007715Y022660D01*
X007560Y022815D01*
X007619Y022757D02*
X063191Y022757D01*
X063609Y022757D02*
X090131Y022757D01*
X089953Y022461D02*
X063906Y022461D01*
X063947Y022363D02*
X089952Y022363D01*
X089952Y022264D02*
X063948Y022264D01*
X063948Y022166D02*
X089983Y022166D01*
X090024Y022067D02*
X063917Y022067D01*
X063877Y021969D02*
X090106Y021969D01*
X090226Y021870D02*
X063795Y021870D01*
X063677Y021772D02*
X081156Y021772D01*
X081819Y020294D02*
X084152Y020294D01*
X084191Y020196D02*
X082030Y020196D01*
X082128Y020097D02*
X084232Y020097D01*
X084326Y019999D02*
X083229Y019999D01*
X083375Y019900D02*
X083775Y019900D01*
X083626Y019802D02*
X083468Y019802D01*
X083509Y019703D02*
X083532Y019703D01*
X084225Y019900D02*
X084475Y019900D01*
X084374Y019802D02*
X084652Y019802D01*
X084688Y019703D02*
X084468Y019703D01*
X084509Y019605D02*
X084729Y019605D01*
X084819Y019506D02*
X084548Y019506D01*
X084548Y019408D02*
X084957Y019408D01*
X084548Y019309D02*
X096091Y019309D01*
X096189Y019211D02*
X084515Y019211D01*
X084474Y019112D02*
X096288Y019112D01*
X096386Y019014D02*
X084389Y019014D01*
X084261Y018915D02*
X096485Y018915D01*
X095992Y019408D02*
X085443Y019408D01*
X085581Y019506D02*
X095894Y019506D01*
X095795Y019605D02*
X085671Y019605D01*
X085712Y019703D02*
X095697Y019703D01*
X095598Y019802D02*
X093822Y019802D01*
X093802Y019793D02*
X094039Y019891D01*
X094221Y020073D01*
X094319Y020310D01*
X094319Y020567D01*
X094221Y020804D01*
X094039Y020985D01*
X093802Y021084D01*
X093545Y021084D01*
X093308Y020985D01*
X093127Y020804D01*
X093028Y020567D01*
X093028Y020310D01*
X093127Y020073D01*
X093308Y019891D01*
X093545Y019793D01*
X093802Y019793D01*
X094048Y019900D02*
X095500Y019900D01*
X095401Y019999D02*
X094146Y019999D01*
X094231Y020097D02*
X095303Y020097D01*
X095204Y020196D02*
X094271Y020196D01*
X094312Y020294D02*
X095106Y020294D01*
X095007Y020393D02*
X094319Y020393D01*
X094319Y020491D02*
X094909Y020491D01*
X094810Y020590D02*
X094309Y020590D01*
X094269Y020688D02*
X094712Y020688D01*
X094613Y020787D02*
X094228Y020787D01*
X094140Y020885D02*
X094515Y020885D01*
X094416Y020984D02*
X094041Y020984D01*
X093806Y021082D02*
X094318Y021082D01*
X093541Y021082D02*
X091837Y021082D01*
X092073Y020984D02*
X093306Y020984D01*
X093208Y020885D02*
X092171Y020885D01*
X092259Y020787D02*
X093119Y020787D01*
X093079Y020688D02*
X092300Y020688D01*
X092341Y020590D02*
X093038Y020590D01*
X093028Y020491D02*
X092350Y020491D01*
X092350Y020393D02*
X093028Y020393D01*
X093035Y020294D02*
X092344Y020294D01*
X092303Y020196D02*
X093076Y020196D01*
X093117Y020097D02*
X092262Y020097D01*
X092178Y019999D02*
X093201Y019999D01*
X093299Y019900D02*
X092079Y019900D01*
X091854Y019802D02*
X093525Y019802D01*
X091556Y019802D02*
X085748Y019802D01*
X085748Y019900D02*
X091331Y019900D01*
X090600Y018557D02*
X090252Y018557D01*
X089930Y018424D01*
X089684Y018178D01*
X089551Y017857D01*
X089551Y017508D01*
X089684Y017187D01*
X089930Y016941D01*
X090252Y016807D01*
X090600Y016807D01*
X090921Y016941D01*
X091167Y017187D01*
X091301Y017508D01*
X091301Y017857D01*
X091167Y018178D01*
X090921Y018424D01*
X090600Y018557D01*
X090688Y018521D02*
X094691Y018521D01*
X094456Y018423D02*
X090923Y018423D01*
X091021Y018324D02*
X094357Y018324D01*
X094259Y018226D02*
X091120Y018226D01*
X091189Y018127D02*
X094190Y018127D01*
X094149Y018029D02*
X091229Y018029D01*
X091270Y017930D02*
X094109Y017930D01*
X094078Y017832D02*
X091301Y017832D01*
X091301Y017733D02*
X094078Y017733D01*
X094078Y017635D02*
X091301Y017635D01*
X091301Y017536D02*
X094078Y017536D01*
X094108Y017438D02*
X091271Y017438D01*
X091230Y017339D02*
X094148Y017339D01*
X094189Y017241D02*
X091190Y017241D01*
X091123Y017142D02*
X094256Y017142D01*
X094355Y017044D02*
X091024Y017044D01*
X090926Y016945D02*
X094453Y016945D01*
X094685Y016847D02*
X090694Y016847D01*
X090157Y016847D02*
X082673Y016847D01*
X082441Y016945D02*
X089926Y016945D01*
X089827Y017044D02*
X069231Y017044D01*
X069146Y016958D02*
X069392Y017204D01*
X069525Y017526D01*
X069525Y017874D01*
X069392Y018196D01*
X069146Y018442D01*
X068824Y018575D01*
X068476Y018575D01*
X068154Y018442D01*
X067908Y018196D01*
X067775Y017874D01*
X067775Y017526D01*
X067908Y017204D01*
X068154Y016958D01*
X068476Y016825D01*
X068824Y016825D01*
X069146Y016958D01*
X069114Y016945D02*
X082159Y016945D01*
X081927Y016847D02*
X068876Y016847D01*
X068424Y016847D02*
X066976Y016847D01*
X066924Y016825D02*
X067246Y016958D01*
X067492Y017204D01*
X067625Y017526D01*
X067625Y017874D01*
X067492Y018196D01*
X067246Y018442D01*
X066924Y018575D01*
X066576Y018575D01*
X066254Y018442D01*
X066008Y018196D01*
X065875Y017874D01*
X065875Y017526D01*
X066008Y017204D01*
X066254Y016958D01*
X066576Y016825D01*
X066924Y016825D01*
X067056Y016650D02*
X068294Y016650D01*
X068114Y016551D02*
X067236Y016551D01*
X067335Y016453D02*
X068015Y016453D01*
X067917Y016354D02*
X067433Y016354D01*
X067479Y016256D02*
X067871Y016256D01*
X067830Y016157D02*
X067520Y016157D01*
X067561Y016059D02*
X067789Y016059D01*
X067775Y015960D02*
X067575Y015960D01*
X067575Y015862D02*
X067775Y015862D01*
X067775Y015763D02*
X067575Y015763D01*
X067570Y015665D02*
X067780Y015665D01*
X067821Y015566D02*
X067529Y015566D01*
X067489Y015468D02*
X067861Y015468D01*
X067902Y015369D02*
X067448Y015369D01*
X067358Y015271D02*
X067992Y015271D01*
X068091Y015172D02*
X067259Y015172D01*
X067112Y015074D02*
X068238Y015074D01*
X068476Y014975D02*
X066874Y014975D01*
X068824Y014975D02*
X076746Y014975D01*
X076633Y015074D02*
X069062Y015074D01*
X069209Y015172D02*
X076535Y015172D01*
X076465Y015271D02*
X069308Y015271D01*
X069398Y015369D02*
X076424Y015369D01*
X076383Y015468D02*
X069439Y015468D01*
X069479Y015566D02*
X076356Y015566D01*
X076356Y015665D02*
X069520Y015665D01*
X069525Y015763D02*
X076356Y015763D01*
X076356Y015862D02*
X069525Y015862D01*
X069525Y015960D02*
X076394Y015960D01*
X076435Y016059D02*
X069511Y016059D01*
X069470Y016157D02*
X076476Y016157D01*
X076562Y016256D02*
X069429Y016256D01*
X069383Y016354D02*
X076661Y016354D01*
X076812Y016453D02*
X069285Y016453D01*
X068186Y016945D02*
X067214Y016945D01*
X067331Y017044D02*
X068069Y017044D01*
X067971Y017142D02*
X067429Y017142D01*
X067507Y017241D02*
X067893Y017241D01*
X067852Y017339D02*
X067548Y017339D01*
X067588Y017438D02*
X067812Y017438D01*
X067775Y017536D02*
X067625Y017536D01*
X067625Y017635D02*
X067775Y017635D01*
X067775Y017733D02*
X067625Y017733D01*
X067625Y017832D02*
X067775Y017832D01*
X067798Y017930D02*
X067602Y017930D01*
X067561Y018029D02*
X067839Y018029D01*
X067880Y018127D02*
X067520Y018127D01*
X067462Y018226D02*
X067938Y018226D01*
X068037Y018324D02*
X067363Y018324D01*
X067265Y018423D02*
X068135Y018423D01*
X068346Y018521D02*
X067054Y018521D01*
X067028Y018718D02*
X070602Y018718D01*
X070602Y018691D02*
X070685Y018490D01*
X070840Y018335D01*
X071041Y018252D01*
X071259Y018252D01*
X071460Y018335D01*
X071615Y018490D01*
X071698Y018691D01*
X071698Y018909D01*
X071615Y019110D01*
X071460Y019265D01*
X071259Y019348D01*
X071041Y019348D01*
X070840Y019265D01*
X070685Y019110D01*
X070602Y018909D01*
X070602Y018691D01*
X070631Y018620D02*
X006200Y018620D01*
X006200Y018718D02*
X008972Y018718D01*
X009076Y018675D02*
X009424Y018675D01*
X009746Y018808D01*
X009992Y019054D01*
X010125Y019376D01*
X010125Y019724D01*
X009992Y020046D01*
X009746Y020292D01*
X009424Y020425D01*
X009076Y020425D01*
X008754Y020292D01*
X008508Y020046D01*
X008375Y019724D01*
X008375Y019376D01*
X008508Y019054D01*
X008754Y018808D01*
X009076Y018675D01*
X009076Y018575D02*
X008754Y018442D01*
X008508Y018196D01*
X008375Y017874D01*
X008375Y017526D01*
X008508Y017204D01*
X008754Y016958D01*
X009076Y016825D01*
X009424Y016825D01*
X009746Y016958D01*
X009992Y017204D01*
X010125Y017526D01*
X010125Y017874D01*
X009992Y018196D01*
X009746Y018442D01*
X009424Y018575D01*
X009076Y018575D01*
X008946Y018521D02*
X006200Y018521D01*
X006200Y018423D02*
X008735Y018423D01*
X008637Y018324D02*
X006200Y018324D01*
X006200Y018226D02*
X008538Y018226D01*
X008480Y018127D02*
X006200Y018127D01*
X006200Y018029D02*
X008439Y018029D01*
X008398Y017930D02*
X006200Y017930D01*
X006200Y017832D02*
X008375Y017832D01*
X008375Y017733D02*
X006200Y017733D01*
X006200Y017635D02*
X008375Y017635D01*
X008375Y017536D02*
X006200Y017536D01*
X006200Y017438D02*
X008412Y017438D01*
X008452Y017339D02*
X006200Y017339D01*
X006200Y017241D02*
X008493Y017241D01*
X008571Y017142D02*
X006200Y017142D01*
X006200Y017044D02*
X008669Y017044D01*
X008786Y016945D02*
X006200Y016945D01*
X006200Y016847D02*
X009024Y016847D01*
X009026Y016725D02*
X008704Y016592D01*
X008458Y016346D01*
X008325Y016024D01*
X008325Y015676D01*
X008458Y015354D01*
X008704Y015108D01*
X009026Y014975D01*
X009374Y014975D01*
X009696Y015108D01*
X009942Y015354D01*
X010075Y015676D01*
X010075Y016024D01*
X009942Y016346D01*
X009696Y016592D01*
X009374Y016725D01*
X009026Y016725D01*
X008844Y016650D02*
X006200Y016650D01*
X006200Y016748D02*
X021652Y016748D01*
X021652Y016650D02*
X009556Y016650D01*
X009736Y016551D02*
X021689Y016551D01*
X021652Y016641D02*
X021652Y016859D01*
X021735Y017060D01*
X021890Y017215D01*
X022091Y017298D01*
X022309Y017298D01*
X022510Y017215D01*
X022665Y017060D01*
X022748Y016859D01*
X022748Y016641D01*
X022665Y016440D01*
X022510Y016285D01*
X022309Y016202D01*
X022091Y016202D01*
X021890Y016285D01*
X021735Y016440D01*
X021652Y016641D01*
X021730Y016453D02*
X020088Y016453D01*
X020178Y016415D02*
X019868Y016544D01*
X019532Y016544D01*
X019222Y016415D01*
X018985Y016178D01*
X018856Y015868D01*
X018856Y015532D01*
X018985Y015222D01*
X019222Y014985D01*
X019532Y014856D01*
X019868Y014856D01*
X020178Y014985D01*
X020415Y015222D01*
X020544Y015532D01*
X020544Y015868D01*
X020415Y016178D01*
X020178Y016415D01*
X020239Y016354D02*
X021821Y016354D01*
X021961Y016256D02*
X020338Y016256D01*
X020424Y016157D02*
X025200Y016157D01*
X025200Y016059D02*
X020465Y016059D01*
X020506Y015960D02*
X025200Y015960D01*
X025200Y015862D02*
X020544Y015862D01*
X020544Y015763D02*
X025200Y015763D01*
X025200Y015665D02*
X020544Y015665D01*
X020544Y015566D02*
X025200Y015566D01*
X025200Y015468D02*
X020517Y015468D01*
X020476Y015369D02*
X025200Y015369D01*
X025200Y015271D02*
X020435Y015271D01*
X020365Y015172D02*
X025200Y015172D01*
X025200Y015074D02*
X020267Y015074D01*
X020154Y014975D02*
X025215Y014975D01*
X025255Y014877D02*
X019917Y014877D01*
X019483Y014877D02*
X006561Y014877D01*
X006747Y014778D02*
X025336Y014778D01*
X025434Y014680D02*
X006846Y014680D01*
X006898Y014581D02*
X025533Y014581D01*
X025631Y014483D02*
X006938Y014483D01*
X006948Y014384D02*
X025730Y014384D01*
X025828Y014286D02*
X006948Y014286D01*
X006239Y014877D02*
X006200Y014877D01*
X006200Y014975D02*
X009026Y014975D01*
X008788Y015074D02*
X006200Y015074D01*
X006200Y015172D02*
X008641Y015172D01*
X008542Y015271D02*
X006200Y015271D01*
X006200Y015369D02*
X008452Y015369D01*
X008411Y015468D02*
X006200Y015468D01*
X006200Y015566D02*
X008371Y015566D01*
X008330Y015665D02*
X006200Y015665D01*
X006200Y015763D02*
X008325Y015763D01*
X008325Y015862D02*
X006200Y015862D01*
X006200Y015960D02*
X008325Y015960D01*
X008339Y016059D02*
X006200Y016059D01*
X006200Y016157D02*
X008380Y016157D01*
X008421Y016256D02*
X006200Y016256D01*
X006200Y016354D02*
X008467Y016354D01*
X008565Y016453D02*
X006200Y016453D01*
X006200Y016551D02*
X008664Y016551D01*
X009476Y016847D02*
X010924Y016847D01*
X010976Y016825D02*
X011324Y016825D01*
X011646Y016958D01*
X011892Y017204D01*
X012025Y017526D01*
X012025Y017874D01*
X011892Y018196D01*
X011646Y018442D01*
X011324Y018575D01*
X010976Y018575D01*
X010654Y018442D01*
X010408Y018196D01*
X010275Y017874D01*
X010275Y017526D01*
X010408Y017204D01*
X010654Y016958D01*
X010976Y016825D01*
X010686Y016945D02*
X009714Y016945D01*
X009831Y017044D02*
X010569Y017044D01*
X010471Y017142D02*
X009929Y017142D01*
X010007Y017241D02*
X010393Y017241D01*
X010352Y017339D02*
X010048Y017339D01*
X010088Y017438D02*
X010312Y017438D01*
X010275Y017536D02*
X010125Y017536D01*
X010125Y017635D02*
X010275Y017635D01*
X010275Y017733D02*
X010125Y017733D01*
X010125Y017832D02*
X010275Y017832D01*
X010298Y017930D02*
X010102Y017930D01*
X010061Y018029D02*
X010339Y018029D01*
X010380Y018127D02*
X010020Y018127D01*
X009962Y018226D02*
X010438Y018226D01*
X010537Y018324D02*
X009863Y018324D01*
X009765Y018423D02*
X010635Y018423D01*
X010846Y018521D02*
X009554Y018521D01*
X009528Y018718D02*
X010872Y018718D01*
X010976Y018675D02*
X011324Y018675D01*
X011646Y018808D01*
X011892Y019054D01*
X012025Y019376D01*
X012025Y019724D01*
X011892Y020046D01*
X011646Y020292D01*
X011324Y020425D01*
X010976Y020425D01*
X010654Y020292D01*
X010408Y020046D01*
X010275Y019724D01*
X010275Y019376D01*
X010408Y019054D01*
X010654Y018808D01*
X010976Y018675D01*
X010646Y018817D02*
X009754Y018817D01*
X009852Y018915D02*
X010548Y018915D01*
X010449Y019014D02*
X009951Y019014D01*
X010016Y019112D02*
X010384Y019112D01*
X010344Y019211D02*
X010056Y019211D01*
X010097Y019309D02*
X010303Y019309D01*
X010275Y019408D02*
X010125Y019408D01*
X010125Y019506D02*
X010275Y019506D01*
X010275Y019605D02*
X010125Y019605D01*
X010125Y019703D02*
X010275Y019703D01*
X010307Y019802D02*
X010093Y019802D01*
X010052Y019900D02*
X010348Y019900D01*
X010389Y019999D02*
X010011Y019999D01*
X009940Y020097D02*
X010460Y020097D01*
X010558Y020196D02*
X009842Y020196D01*
X009740Y020294D02*
X010660Y020294D01*
X010898Y020393D02*
X009502Y020393D01*
X008998Y020393D02*
X006200Y020393D01*
X006200Y020491D02*
X015405Y020491D01*
X015532Y020544D02*
X015222Y020415D01*
X014985Y020178D01*
X014856Y019868D01*
X014856Y019532D01*
X014985Y019222D01*
X015222Y018985D01*
X015532Y018856D01*
X015868Y018856D01*
X016178Y018985D01*
X016415Y019222D01*
X016544Y019532D01*
X016544Y019868D01*
X016415Y020178D01*
X016178Y020415D01*
X015868Y020544D01*
X015532Y020544D01*
X015199Y020393D02*
X011402Y020393D01*
X011640Y020294D02*
X015101Y020294D01*
X015002Y020196D02*
X011742Y020196D01*
X011840Y020097D02*
X014951Y020097D01*
X014910Y019999D02*
X011911Y019999D01*
X011952Y019900D02*
X014870Y019900D01*
X014856Y019802D02*
X011993Y019802D01*
X012025Y019703D02*
X014856Y019703D01*
X014856Y019605D02*
X012025Y019605D01*
X012025Y019506D02*
X014867Y019506D01*
X014908Y019408D02*
X012025Y019408D01*
X011997Y019309D02*
X014949Y019309D01*
X014996Y019211D02*
X011956Y019211D01*
X011916Y019112D02*
X015095Y019112D01*
X015193Y019014D02*
X011851Y019014D01*
X011752Y018915D02*
X015390Y018915D01*
X016010Y018915D02*
X026148Y018915D01*
X026246Y018817D02*
X011654Y018817D01*
X011428Y018718D02*
X026472Y018718D01*
X026446Y018521D02*
X011454Y018521D01*
X011665Y018423D02*
X026235Y018423D01*
X026137Y018324D02*
X018880Y018324D01*
X018828Y018345D02*
X018572Y018345D01*
X018334Y018247D01*
X018200Y018113D01*
X018066Y018247D01*
X017828Y018345D01*
X017572Y018345D01*
X017334Y018247D01*
X017153Y018066D01*
X017055Y017828D01*
X017055Y017572D01*
X017153Y017334D01*
X017334Y017153D01*
X017572Y017055D01*
X017828Y017055D01*
X018066Y017153D01*
X018200Y017287D01*
X018334Y017153D01*
X018572Y017055D01*
X018828Y017055D01*
X019066Y017153D01*
X019247Y017334D01*
X019345Y017572D01*
X019345Y017828D01*
X019247Y018066D01*
X019066Y018247D01*
X018828Y018345D01*
X019087Y018226D02*
X026038Y018226D01*
X025980Y018127D02*
X019186Y018127D01*
X019262Y018029D02*
X025939Y018029D01*
X025898Y017930D02*
X019303Y017930D01*
X019344Y017832D02*
X025875Y017832D01*
X025875Y017733D02*
X019345Y017733D01*
X019345Y017635D02*
X025875Y017635D01*
X025875Y017536D02*
X019331Y017536D01*
X019290Y017438D02*
X025851Y017438D01*
X025753Y017339D02*
X019249Y017339D01*
X019153Y017241D02*
X021952Y017241D01*
X021817Y017142D02*
X019039Y017142D01*
X018361Y017142D02*
X018039Y017142D01*
X018153Y017241D02*
X018247Y017241D01*
X017361Y017142D02*
X011829Y017142D01*
X011907Y017241D02*
X017247Y017241D01*
X017151Y017339D02*
X011948Y017339D01*
X011988Y017438D02*
X017110Y017438D01*
X017069Y017536D02*
X012025Y017536D01*
X012025Y017635D02*
X017055Y017635D01*
X017055Y017733D02*
X012025Y017733D01*
X012025Y017832D02*
X017056Y017832D01*
X017097Y017930D02*
X012002Y017930D01*
X011961Y018029D02*
X017138Y018029D01*
X017214Y018127D02*
X011920Y018127D01*
X011862Y018226D02*
X017313Y018226D01*
X017520Y018324D02*
X011763Y018324D01*
X008746Y018817D02*
X006200Y018817D01*
X006200Y018915D02*
X008648Y018915D01*
X008549Y019014D02*
X006200Y019014D01*
X006200Y019112D02*
X008484Y019112D01*
X008444Y019211D02*
X006200Y019211D01*
X006200Y019309D02*
X008403Y019309D01*
X008375Y019408D02*
X006200Y019408D01*
X006200Y019506D02*
X008375Y019506D01*
X008375Y019605D02*
X006200Y019605D01*
X006200Y019703D02*
X008375Y019703D01*
X008407Y019802D02*
X006200Y019802D01*
X006200Y019900D02*
X008448Y019900D01*
X008489Y019999D02*
X006200Y019999D01*
X006200Y020097D02*
X008560Y020097D01*
X008658Y020196D02*
X006200Y020196D01*
X006200Y020294D02*
X008760Y020294D01*
X006200Y020590D02*
X026321Y020590D01*
X026300Y020491D02*
X015995Y020491D01*
X016201Y020393D02*
X026300Y020393D01*
X026260Y020294D02*
X016299Y020294D01*
X016398Y020196D02*
X021864Y020196D01*
X021790Y020165D02*
X021635Y020010D01*
X021552Y019809D01*
X021552Y019591D01*
X021635Y019390D01*
X021790Y019235D01*
X021991Y019152D01*
X022209Y019152D01*
X022410Y019235D01*
X022565Y019390D01*
X022648Y019591D01*
X022648Y019809D01*
X022565Y020010D01*
X022410Y020165D01*
X022209Y020248D01*
X021991Y020248D01*
X021790Y020165D01*
X021722Y020097D02*
X016449Y020097D01*
X016490Y019999D02*
X021630Y019999D01*
X021590Y019900D02*
X016530Y019900D01*
X016544Y019802D02*
X021552Y019802D01*
X021552Y019703D02*
X016544Y019703D01*
X016544Y019605D02*
X021552Y019605D01*
X021587Y019506D02*
X016533Y019506D01*
X016492Y019408D02*
X021628Y019408D01*
X021716Y019309D02*
X016451Y019309D01*
X016404Y019211D02*
X021849Y019211D01*
X022351Y019211D02*
X025944Y019211D01*
X025903Y019309D02*
X022484Y019309D01*
X022572Y019408D02*
X025875Y019408D01*
X025875Y019506D02*
X022613Y019506D01*
X022648Y019605D02*
X025875Y019605D01*
X025875Y019703D02*
X022648Y019703D01*
X022648Y019802D02*
X025907Y019802D01*
X025948Y019900D02*
X022610Y019900D01*
X022570Y019999D02*
X025989Y019999D01*
X026060Y020097D02*
X022478Y020097D01*
X022336Y020196D02*
X026158Y020196D01*
X027240Y020294D02*
X028160Y020294D01*
X028154Y020292D02*
X027908Y020046D01*
X027775Y019724D01*
X027775Y019376D01*
X027908Y019054D01*
X028154Y018808D01*
X028476Y018675D01*
X028824Y018675D01*
X029146Y018808D01*
X029392Y019054D01*
X029525Y019376D01*
X029525Y019724D01*
X029392Y020046D01*
X029146Y020292D01*
X028824Y020425D01*
X028476Y020425D01*
X028154Y020292D01*
X028058Y020196D02*
X027342Y020196D01*
X027440Y020097D02*
X027960Y020097D01*
X027889Y019999D02*
X027511Y019999D01*
X027552Y019900D02*
X027848Y019900D01*
X027807Y019802D02*
X027593Y019802D01*
X027625Y019703D02*
X027775Y019703D01*
X027775Y019605D02*
X027625Y019605D01*
X027625Y019506D02*
X027775Y019506D01*
X027775Y019408D02*
X027625Y019408D01*
X027597Y019309D02*
X027803Y019309D01*
X027844Y019211D02*
X027556Y019211D01*
X027516Y019112D02*
X027884Y019112D01*
X027949Y019014D02*
X027451Y019014D01*
X027352Y018915D02*
X028048Y018915D01*
X028146Y018817D02*
X027254Y018817D01*
X027028Y018718D02*
X028372Y018718D01*
X028346Y018521D02*
X027054Y018521D01*
X027265Y018423D02*
X028135Y018423D01*
X028037Y018324D02*
X027363Y018324D01*
X027462Y018226D02*
X027938Y018226D01*
X027880Y018127D02*
X027520Y018127D01*
X027561Y018029D02*
X027839Y018029D01*
X027798Y017930D02*
X027602Y017930D01*
X027625Y017832D02*
X027775Y017832D01*
X027775Y017733D02*
X027625Y017733D01*
X027625Y017635D02*
X027775Y017635D01*
X027775Y017536D02*
X027625Y017536D01*
X027588Y017438D02*
X027812Y017438D01*
X027753Y017339D02*
X027548Y017339D01*
X027507Y017241D02*
X027654Y017241D01*
X027556Y017142D02*
X027429Y017142D01*
X027457Y017044D02*
X027331Y017044D01*
X027359Y016945D02*
X027214Y016945D01*
X027294Y016847D02*
X026976Y016847D01*
X027056Y016650D02*
X027250Y016650D01*
X027254Y016748D02*
X026434Y016748D01*
X026344Y016650D02*
X026336Y016650D01*
X027236Y016551D02*
X027250Y016551D01*
X028434Y016748D02*
X030326Y016748D01*
X030424Y016847D02*
X028876Y016847D01*
X029006Y016650D02*
X030227Y016650D01*
X030129Y016551D02*
X029186Y016551D01*
X029285Y016453D02*
X030030Y016453D01*
X029932Y016354D02*
X029383Y016354D01*
X030881Y016059D02*
X036435Y016059D01*
X036476Y016157D02*
X030979Y016157D01*
X031078Y016256D02*
X036562Y016256D01*
X036485Y016178D02*
X036722Y016415D01*
X037032Y016544D01*
X037368Y016544D01*
X037678Y016415D01*
X037915Y016178D01*
X038044Y015868D01*
X038044Y015532D01*
X037915Y015222D01*
X037678Y014985D01*
X037368Y014856D01*
X037032Y014856D01*
X036722Y014985D01*
X036485Y015222D01*
X036356Y015532D01*
X036356Y015868D01*
X036485Y016178D01*
X036394Y015960D02*
X030782Y015960D01*
X030684Y015862D02*
X036356Y015862D01*
X036356Y015763D02*
X030585Y015763D01*
X030487Y015665D02*
X036356Y015665D01*
X036356Y015566D02*
X030388Y015566D01*
X030276Y015468D02*
X036383Y015468D01*
X036424Y015369D02*
X029398Y015369D01*
X029308Y015271D02*
X036465Y015271D01*
X036535Y015172D02*
X029209Y015172D01*
X029062Y015074D02*
X036633Y015074D01*
X036746Y014975D02*
X028824Y014975D01*
X028476Y014975D02*
X028150Y014975D01*
X028150Y014877D02*
X036983Y014877D01*
X037417Y014877D02*
X047700Y014877D01*
X047700Y014975D02*
X037654Y014975D01*
X037767Y015074D02*
X047700Y015074D01*
X047700Y015172D02*
X037865Y015172D01*
X037935Y015271D02*
X047700Y015271D01*
X047700Y015369D02*
X037976Y015369D01*
X038017Y015468D02*
X047700Y015468D01*
X047700Y015566D02*
X038044Y015566D01*
X038044Y015665D02*
X047700Y015665D01*
X047700Y015763D02*
X038044Y015763D01*
X038044Y015862D02*
X047700Y015862D01*
X047700Y015960D02*
X038006Y015960D01*
X037965Y016059D02*
X047700Y016059D01*
X047700Y016157D02*
X037924Y016157D01*
X037838Y016256D02*
X046082Y016256D01*
X046091Y016252D02*
X045890Y016335D01*
X045735Y016490D01*
X045652Y016691D01*
X045652Y016909D01*
X045735Y017110D01*
X045890Y017265D01*
X046091Y017348D01*
X046309Y017348D01*
X046510Y017265D01*
X046665Y017110D01*
X046748Y016909D01*
X046748Y016691D01*
X046665Y016490D01*
X046510Y016335D01*
X046309Y016252D01*
X046091Y016252D01*
X046318Y016256D02*
X047700Y016256D01*
X047700Y016354D02*
X046529Y016354D01*
X046628Y016453D02*
X047700Y016453D01*
X047700Y016551D02*
X046690Y016551D01*
X046731Y016650D02*
X047700Y016650D01*
X047700Y016748D02*
X046748Y016748D01*
X046748Y016847D02*
X047700Y016847D01*
X047700Y016945D02*
X046733Y016945D01*
X046692Y017044D02*
X047700Y017044D01*
X047700Y017142D02*
X046633Y017142D01*
X046535Y017241D02*
X047700Y017241D01*
X047700Y017339D02*
X046331Y017339D01*
X046069Y017339D02*
X042686Y017339D01*
X042660Y017365D02*
X042459Y017448D01*
X042241Y017448D01*
X042040Y017365D01*
X041885Y017210D01*
X041802Y017009D01*
X041802Y016791D01*
X041885Y016590D01*
X042040Y016435D01*
X042241Y016352D01*
X042459Y016352D01*
X042660Y016435D01*
X042815Y016590D01*
X042898Y016791D01*
X042898Y017009D01*
X042815Y017210D01*
X042660Y017365D01*
X042785Y017241D02*
X045865Y017241D01*
X045767Y017142D02*
X042843Y017142D01*
X042884Y017044D02*
X045708Y017044D01*
X045667Y016945D02*
X042898Y016945D01*
X042898Y016847D02*
X045652Y016847D01*
X045652Y016748D02*
X042880Y016748D01*
X042840Y016650D02*
X045669Y016650D01*
X045710Y016551D02*
X042776Y016551D01*
X042678Y016453D02*
X045772Y016453D01*
X045871Y016354D02*
X042464Y016354D01*
X042236Y016354D02*
X037739Y016354D01*
X037588Y016453D02*
X042022Y016453D01*
X041924Y016551D02*
X031373Y016551D01*
X031275Y016453D02*
X036812Y016453D01*
X036661Y016354D02*
X031176Y016354D01*
X031472Y016650D02*
X041860Y016650D01*
X041820Y016748D02*
X031570Y016748D01*
X031669Y016847D02*
X041802Y016847D01*
X041802Y016945D02*
X031767Y016945D01*
X031866Y017044D02*
X041816Y017044D01*
X041857Y017142D02*
X036539Y017142D01*
X036653Y017241D02*
X041915Y017241D01*
X042014Y017339D02*
X036749Y017339D01*
X036790Y017438D02*
X042215Y017438D01*
X042485Y017438D02*
X047741Y017438D01*
X047800Y017536D02*
X036831Y017536D01*
X036845Y017635D02*
X047898Y017635D01*
X047997Y017733D02*
X036845Y017733D01*
X036844Y017832D02*
X048095Y017832D01*
X048194Y017930D02*
X036803Y017930D01*
X036762Y018029D02*
X048292Y018029D01*
X048455Y018127D02*
X036686Y018127D01*
X036587Y018226D02*
X048538Y018226D01*
X048637Y018324D02*
X036380Y018324D01*
X036020Y018324D02*
X035380Y018324D01*
X035587Y018226D02*
X035813Y018226D01*
X035714Y018127D02*
X035686Y018127D01*
X035020Y018324D02*
X029263Y018324D01*
X029165Y018423D02*
X048735Y018423D01*
X048946Y018521D02*
X028954Y018521D01*
X028928Y018718D02*
X048972Y018718D01*
X048746Y018817D02*
X029154Y018817D01*
X029252Y018915D02*
X032890Y018915D01*
X033032Y018856D02*
X033368Y018856D01*
X033678Y018985D01*
X033915Y019222D01*
X034044Y019532D01*
X034044Y019868D01*
X033915Y020178D01*
X033678Y020415D01*
X033368Y020544D01*
X033032Y020544D01*
X032722Y020415D01*
X032485Y020178D01*
X032356Y019868D01*
X032356Y019532D01*
X032485Y019222D01*
X032722Y018985D01*
X033032Y018856D01*
X032693Y019014D02*
X029351Y019014D01*
X029416Y019112D02*
X032595Y019112D01*
X032496Y019211D02*
X029456Y019211D01*
X029497Y019309D02*
X032449Y019309D01*
X032408Y019408D02*
X029525Y019408D01*
X029525Y019506D02*
X032367Y019506D01*
X032356Y019605D02*
X029525Y019605D01*
X029525Y019703D02*
X032356Y019703D01*
X032356Y019802D02*
X029493Y019802D01*
X029452Y019900D02*
X032370Y019900D01*
X032410Y019999D02*
X029411Y019999D01*
X029340Y020097D02*
X032451Y020097D01*
X032502Y020196D02*
X029242Y020196D01*
X029140Y020294D02*
X032601Y020294D01*
X032699Y020393D02*
X028902Y020393D01*
X028398Y020393D02*
X027329Y020393D01*
X027427Y020491D02*
X032905Y020491D01*
X033495Y020491D02*
X048821Y020491D01*
X048800Y020393D02*
X033701Y020393D01*
X033799Y020294D02*
X048760Y020294D01*
X048658Y020196D02*
X033898Y020196D01*
X033949Y020097D02*
X041838Y020097D01*
X041841Y020098D02*
X041640Y020015D01*
X041485Y019860D01*
X041402Y019659D01*
X041402Y019441D01*
X041485Y019240D01*
X041640Y019085D01*
X041841Y019002D01*
X042059Y019002D01*
X042260Y019085D01*
X042415Y019240D01*
X042498Y019441D01*
X042498Y019659D01*
X042415Y019860D01*
X042260Y020015D01*
X042059Y020098D01*
X041841Y020098D01*
X042062Y020097D02*
X048560Y020097D01*
X048489Y019999D02*
X042277Y019999D01*
X042375Y019900D02*
X048448Y019900D01*
X048407Y019802D02*
X042439Y019802D01*
X042480Y019703D02*
X048375Y019703D01*
X048375Y019605D02*
X042498Y019605D01*
X042498Y019506D02*
X048375Y019506D01*
X048375Y019408D02*
X042484Y019408D01*
X042443Y019309D02*
X048403Y019309D01*
X048444Y019211D02*
X042386Y019211D01*
X042287Y019112D02*
X048484Y019112D01*
X048549Y019014D02*
X042087Y019014D01*
X041813Y019014D02*
X033707Y019014D01*
X033805Y019112D02*
X041613Y019112D01*
X041514Y019211D02*
X033904Y019211D01*
X033951Y019309D02*
X041457Y019309D01*
X041416Y019408D02*
X033992Y019408D01*
X034033Y019506D02*
X041402Y019506D01*
X041402Y019605D02*
X034044Y019605D01*
X034044Y019703D02*
X041420Y019703D01*
X041461Y019802D02*
X034044Y019802D01*
X034030Y019900D02*
X041525Y019900D01*
X041623Y019999D02*
X033990Y019999D01*
X033510Y018915D02*
X048648Y018915D01*
X049528Y018718D02*
X050872Y018718D01*
X050846Y018521D02*
X049554Y018521D01*
X049765Y018423D02*
X050635Y018423D01*
X050537Y018324D02*
X049863Y018324D01*
X049962Y018226D02*
X050438Y018226D01*
X050380Y018127D02*
X050020Y018127D01*
X050061Y018029D02*
X050339Y018029D01*
X050298Y017930D02*
X050102Y017930D01*
X050125Y017832D02*
X050275Y017832D01*
X050275Y017733D02*
X050125Y017733D01*
X050125Y017635D02*
X050248Y017635D01*
X050150Y017536D02*
X050125Y017536D01*
X051731Y017044D02*
X056407Y017044D01*
X056506Y017142D02*
X051829Y017142D01*
X051907Y017241D02*
X053698Y017241D01*
X053791Y017202D02*
X054009Y017202D01*
X054210Y017285D01*
X054365Y017440D01*
X054448Y017641D01*
X054448Y017859D01*
X054365Y018060D01*
X054210Y018215D01*
X054009Y018298D01*
X053791Y018298D01*
X053590Y018215D01*
X053435Y018060D01*
X053352Y017859D01*
X053352Y017641D01*
X053435Y017440D01*
X053590Y017285D01*
X053791Y017202D01*
X053536Y017339D02*
X051948Y017339D01*
X051988Y017438D02*
X053437Y017438D01*
X053395Y017536D02*
X052025Y017536D01*
X052025Y017635D02*
X053355Y017635D01*
X053352Y017733D02*
X052025Y017733D01*
X052025Y017832D02*
X053352Y017832D01*
X053381Y017930D02*
X052002Y017930D01*
X051961Y018029D02*
X053422Y018029D01*
X053502Y018127D02*
X051920Y018127D01*
X051862Y018226D02*
X053616Y018226D01*
X054184Y018226D02*
X057313Y018226D01*
X057214Y018127D02*
X054298Y018127D01*
X054378Y018029D02*
X057138Y018029D01*
X057097Y017930D02*
X054419Y017930D01*
X054448Y017832D02*
X057056Y017832D01*
X057055Y017733D02*
X054448Y017733D01*
X054445Y017635D02*
X056998Y017635D01*
X056900Y017536D02*
X054405Y017536D01*
X054363Y017438D02*
X056801Y017438D01*
X056703Y017339D02*
X054264Y017339D01*
X054102Y017241D02*
X056604Y017241D01*
X056309Y016945D02*
X051614Y016945D01*
X051376Y016847D02*
X056210Y016847D01*
X056112Y016748D02*
X050634Y016748D01*
X050600Y016650D02*
X050794Y016650D01*
X050614Y016551D02*
X050600Y016551D01*
X050733Y016847D02*
X050924Y016847D01*
X051506Y016650D02*
X056013Y016650D01*
X055915Y016551D02*
X051686Y016551D01*
X051785Y016453D02*
X055816Y016453D01*
X055718Y016354D02*
X051883Y016354D01*
X056202Y015566D02*
X058856Y015566D01*
X058856Y015665D02*
X056301Y015665D01*
X056399Y015763D02*
X058856Y015763D01*
X058856Y015862D02*
X056498Y015862D01*
X056596Y015960D02*
X058894Y015960D01*
X058935Y016059D02*
X056695Y016059D01*
X056793Y016157D02*
X058976Y016157D01*
X059062Y016256D02*
X056892Y016256D01*
X056990Y016354D02*
X059161Y016354D01*
X057581Y016945D02*
X066286Y016945D01*
X066169Y017044D02*
X057680Y017044D01*
X057483Y016847D02*
X066524Y016847D01*
X066071Y017142D02*
X059039Y017142D01*
X059153Y017241D02*
X065993Y017241D01*
X065952Y017339D02*
X062499Y017339D01*
X062409Y017302D02*
X062610Y017385D01*
X062765Y017540D01*
X062848Y017741D01*
X062848Y017959D01*
X062765Y018160D01*
X062610Y018315D01*
X062409Y018398D01*
X062191Y018398D01*
X061990Y018315D01*
X061835Y018160D01*
X061752Y017959D01*
X061752Y017741D01*
X061835Y017540D01*
X061990Y017385D01*
X062191Y017302D01*
X062409Y017302D01*
X062663Y017438D02*
X065912Y017438D01*
X065875Y017536D02*
X062761Y017536D01*
X062804Y017635D02*
X065875Y017635D01*
X065875Y017733D02*
X062845Y017733D01*
X062848Y017832D02*
X065875Y017832D01*
X065898Y017930D02*
X062848Y017930D01*
X062819Y018029D02*
X065939Y018029D01*
X065980Y018127D02*
X062779Y018127D01*
X062700Y018226D02*
X066038Y018226D01*
X066137Y018324D02*
X062588Y018324D01*
X062012Y018324D02*
X058880Y018324D01*
X059087Y018226D02*
X061900Y018226D01*
X061821Y018127D02*
X059186Y018127D01*
X059262Y018029D02*
X061781Y018029D01*
X061752Y017930D02*
X059303Y017930D01*
X059344Y017832D02*
X061752Y017832D01*
X061755Y017733D02*
X059345Y017733D01*
X059345Y017635D02*
X061796Y017635D01*
X061839Y017536D02*
X059331Y017536D01*
X059290Y017438D02*
X061937Y017438D01*
X062101Y017339D02*
X059249Y017339D01*
X058361Y017142D02*
X058039Y017142D01*
X058153Y017241D02*
X058247Y017241D01*
X058214Y018127D02*
X058186Y018127D01*
X058087Y018226D02*
X058313Y018226D01*
X058520Y018324D02*
X057880Y018324D01*
X057520Y018324D02*
X051763Y018324D01*
X051665Y018423D02*
X066235Y018423D01*
X066446Y018521D02*
X051454Y018521D01*
X051428Y018718D02*
X066472Y018718D01*
X066246Y018817D02*
X051654Y018817D01*
X051752Y018915D02*
X055390Y018915D01*
X055193Y019014D02*
X051851Y019014D01*
X051916Y019112D02*
X055095Y019112D01*
X054996Y019211D02*
X051956Y019211D01*
X051997Y019309D02*
X054949Y019309D01*
X054908Y019408D02*
X052025Y019408D01*
X052025Y019506D02*
X054867Y019506D01*
X054856Y019605D02*
X052025Y019605D01*
X052025Y019703D02*
X054856Y019703D01*
X054856Y019802D02*
X051993Y019802D01*
X051952Y019900D02*
X054870Y019900D01*
X054910Y019999D02*
X051911Y019999D01*
X051840Y020097D02*
X054951Y020097D01*
X055002Y020196D02*
X051742Y020196D01*
X051640Y020294D02*
X055101Y020294D01*
X056299Y020294D02*
X066260Y020294D01*
X066158Y020196D02*
X056398Y020196D01*
X056449Y020097D02*
X066060Y020097D01*
X065989Y019999D02*
X056490Y019999D01*
X056530Y019900D02*
X065948Y019900D01*
X065907Y019802D02*
X056544Y019802D01*
X056544Y019703D02*
X065875Y019703D01*
X065875Y019605D02*
X056544Y019605D01*
X056533Y019506D02*
X065875Y019506D01*
X065875Y019408D02*
X056492Y019408D01*
X056451Y019309D02*
X065903Y019309D01*
X065944Y019211D02*
X056404Y019211D01*
X056305Y019112D02*
X065984Y019112D01*
X066049Y019014D02*
X056207Y019014D01*
X056010Y018915D02*
X066148Y018915D01*
X067254Y018817D02*
X070602Y018817D01*
X070604Y018915D02*
X068881Y018915D01*
X068867Y018909D02*
X068949Y018943D01*
X069026Y018988D01*
X069096Y019041D01*
X069159Y019104D01*
X069212Y019174D01*
X069257Y019251D01*
X069291Y019333D01*
X069313Y019418D01*
X069324Y019500D01*
X068700Y019500D01*
X068700Y019600D01*
X069324Y019600D01*
X069313Y019682D01*
X069291Y019767D01*
X069257Y019849D01*
X069212Y019926D01*
X069159Y019996D01*
X069096Y020059D01*
X069026Y020112D01*
X068949Y020157D01*
X068867Y020191D01*
X068782Y020213D01*
X068700Y020224D01*
X068700Y019600D01*
X068600Y019600D01*
X068600Y020224D01*
X068518Y020213D01*
X068433Y020191D01*
X068351Y020157D01*
X068274Y020112D01*
X068204Y020059D01*
X068141Y019996D01*
X068088Y019926D01*
X068043Y019849D01*
X068009Y019767D01*
X067987Y019682D01*
X067976Y019600D01*
X068600Y019600D01*
X068600Y019500D01*
X068700Y019500D01*
X068700Y018876D01*
X068782Y018887D01*
X068867Y018909D01*
X068700Y018915D02*
X068600Y018915D01*
X068600Y018876D02*
X068600Y019500D01*
X067976Y019500D01*
X067987Y019418D01*
X068009Y019333D01*
X068043Y019251D01*
X068088Y019174D01*
X068141Y019104D01*
X068204Y019041D01*
X068274Y018988D01*
X068351Y018943D01*
X068433Y018909D01*
X068518Y018887D01*
X068600Y018876D01*
X068600Y019014D02*
X068700Y019014D01*
X068700Y019112D02*
X068600Y019112D01*
X068600Y019211D02*
X068700Y019211D01*
X068700Y019309D02*
X068600Y019309D01*
X068600Y019408D02*
X068700Y019408D01*
X068700Y019506D02*
X072367Y019506D01*
X072356Y019605D02*
X069324Y019605D01*
X069308Y019703D02*
X072356Y019703D01*
X072356Y019802D02*
X069276Y019802D01*
X069227Y019900D02*
X072370Y019900D01*
X072410Y019999D02*
X069156Y019999D01*
X069046Y020097D02*
X072451Y020097D01*
X072502Y020196D02*
X068849Y020196D01*
X068700Y020196D02*
X068600Y020196D01*
X068600Y020097D02*
X068700Y020097D01*
X068700Y019999D02*
X068600Y019999D01*
X068600Y019900D02*
X068700Y019900D01*
X068700Y019802D02*
X068600Y019802D01*
X068600Y019703D02*
X068700Y019703D01*
X068700Y019605D02*
X068600Y019605D01*
X068600Y019506D02*
X067625Y019506D01*
X067625Y019408D02*
X067989Y019408D01*
X068019Y019309D02*
X067597Y019309D01*
X067556Y019211D02*
X068067Y019211D01*
X068135Y019112D02*
X067516Y019112D01*
X067451Y019014D02*
X068240Y019014D01*
X068419Y018915D02*
X067352Y018915D01*
X068954Y018521D02*
X070672Y018521D01*
X070752Y018423D02*
X069165Y018423D01*
X069263Y018324D02*
X070867Y018324D01*
X071433Y018324D02*
X075020Y018324D01*
X075072Y018345D02*
X074834Y018247D01*
X074653Y018066D01*
X074555Y017828D01*
X074555Y017572D01*
X074653Y017334D01*
X074834Y017153D01*
X075072Y017055D01*
X075328Y017055D01*
X075566Y017153D01*
X075700Y017287D01*
X075834Y017153D01*
X076072Y017055D01*
X076328Y017055D01*
X076566Y017153D01*
X076747Y017334D01*
X076845Y017572D01*
X076845Y017828D01*
X076747Y018066D01*
X076566Y018247D01*
X076328Y018345D01*
X076072Y018345D01*
X075834Y018247D01*
X075700Y018113D01*
X075566Y018247D01*
X075328Y018345D01*
X075072Y018345D01*
X074813Y018226D02*
X069362Y018226D01*
X069420Y018127D02*
X074714Y018127D01*
X074638Y018029D02*
X069461Y018029D01*
X069502Y017930D02*
X074597Y017930D01*
X074556Y017832D02*
X069525Y017832D01*
X069525Y017733D02*
X074555Y017733D01*
X074555Y017635D02*
X069525Y017635D01*
X069525Y017536D02*
X074569Y017536D01*
X074610Y017438D02*
X069488Y017438D01*
X069448Y017339D02*
X074651Y017339D01*
X074747Y017241D02*
X069407Y017241D01*
X069329Y017142D02*
X074861Y017142D01*
X075539Y017142D02*
X075861Y017142D01*
X075747Y017241D02*
X075653Y017241D01*
X076539Y017142D02*
X089729Y017142D01*
X089662Y017241D02*
X076653Y017241D01*
X076749Y017339D02*
X089621Y017339D01*
X089580Y017438D02*
X076790Y017438D01*
X076831Y017536D02*
X089551Y017536D01*
X089551Y017635D02*
X076845Y017635D01*
X076845Y017733D02*
X089551Y017733D01*
X089551Y017832D02*
X076844Y017832D01*
X076803Y017930D02*
X089581Y017930D01*
X089622Y018029D02*
X076762Y018029D01*
X076686Y018127D02*
X089663Y018127D01*
X089731Y018226D02*
X077566Y018226D01*
X077749Y018324D02*
X089830Y018324D01*
X089928Y018423D02*
X077848Y018423D01*
X077898Y018521D02*
X090164Y018521D01*
X082771Y019999D02*
X082190Y019999D01*
X082231Y019900D02*
X082625Y019900D01*
X082532Y019802D02*
X082248Y019802D01*
X082248Y019703D02*
X082491Y019703D01*
X082452Y019605D02*
X082233Y019605D01*
X082192Y019506D02*
X082452Y019506D01*
X082452Y019408D02*
X082133Y019408D01*
X082034Y019309D02*
X082486Y019309D01*
X077234Y018226D02*
X076587Y018226D01*
X076380Y018324D02*
X077051Y018324D01*
X076952Y018423D02*
X071548Y018423D01*
X071628Y018521D02*
X076902Y018521D01*
X076861Y018620D02*
X071669Y018620D01*
X071698Y018718D02*
X076852Y018718D01*
X076852Y018817D02*
X071698Y018817D01*
X071696Y018915D02*
X072890Y018915D01*
X072693Y019014D02*
X071655Y019014D01*
X071613Y019112D02*
X072595Y019112D01*
X072496Y019211D02*
X071515Y019211D01*
X071353Y019309D02*
X072449Y019309D01*
X072408Y019408D02*
X069311Y019408D01*
X069281Y019309D02*
X070947Y019309D01*
X070785Y019211D02*
X069233Y019211D01*
X069165Y019112D02*
X070687Y019112D01*
X070645Y019014D02*
X069060Y019014D01*
X067976Y019605D02*
X067625Y019605D01*
X067625Y019703D02*
X067992Y019703D01*
X068024Y019802D02*
X067593Y019802D01*
X067552Y019900D02*
X068073Y019900D01*
X068144Y019999D02*
X067511Y019999D01*
X067440Y020097D02*
X068254Y020097D01*
X068451Y020196D02*
X067342Y020196D01*
X067240Y020294D02*
X072601Y020294D01*
X073805Y019112D02*
X076987Y019112D01*
X076916Y019014D02*
X073707Y019014D01*
X073510Y018915D02*
X076875Y018915D01*
X076020Y018324D02*
X075380Y018324D01*
X075587Y018226D02*
X075813Y018226D01*
X075714Y018127D02*
X075686Y018127D01*
X059483Y014877D02*
X050600Y014877D01*
X050600Y014975D02*
X050976Y014975D01*
X050738Y015074D02*
X050600Y015074D01*
X051324Y014975D02*
X059246Y014975D01*
X059133Y015074D02*
X051562Y015074D01*
X051709Y015172D02*
X059035Y015172D01*
X058965Y015271D02*
X051808Y015271D01*
X051898Y015369D02*
X058924Y015369D01*
X058883Y015468D02*
X056103Y015468D01*
X047700Y014778D02*
X028150Y014778D01*
X028150Y014680D02*
X047700Y014680D01*
X047700Y014581D02*
X028150Y014581D01*
X028150Y014483D02*
X047700Y014483D01*
X047700Y014384D02*
X028150Y014384D01*
X028340Y014286D02*
X047700Y014286D01*
X035861Y017142D02*
X035539Y017142D01*
X035653Y017241D02*
X035747Y017241D01*
X034861Y017142D02*
X031964Y017142D01*
X032063Y017241D02*
X034747Y017241D01*
X031311Y017733D02*
X029525Y017733D01*
X029525Y017635D02*
X031212Y017635D01*
X031114Y017536D02*
X029525Y017536D01*
X029488Y017438D02*
X031015Y017438D01*
X030917Y017339D02*
X029448Y017339D01*
X029407Y017241D02*
X030818Y017241D01*
X030720Y017142D02*
X029329Y017142D01*
X029231Y017044D02*
X030621Y017044D01*
X030523Y016945D02*
X029114Y016945D01*
X025654Y017241D02*
X022448Y017241D01*
X022583Y017142D02*
X025556Y017142D01*
X025457Y017044D02*
X022672Y017044D01*
X022712Y016945D02*
X025359Y016945D01*
X025265Y016847D02*
X022748Y016847D01*
X022748Y016748D02*
X025224Y016748D01*
X025200Y016650D02*
X022748Y016650D01*
X022711Y016551D02*
X025200Y016551D01*
X025200Y016453D02*
X022670Y016453D01*
X022579Y016354D02*
X025200Y016354D01*
X025200Y016256D02*
X022439Y016256D01*
X021652Y016847D02*
X011376Y016847D01*
X011614Y016945D02*
X021688Y016945D01*
X021728Y017044D02*
X011731Y017044D01*
X011367Y016491D02*
X011282Y016513D01*
X011200Y016524D01*
X011200Y015900D01*
X011824Y015900D01*
X011813Y015982D01*
X011791Y016067D01*
X011757Y016149D01*
X011712Y016226D01*
X011659Y016296D01*
X011596Y016359D01*
X011526Y016412D01*
X011449Y016457D01*
X011367Y016491D01*
X011456Y016453D02*
X019312Y016453D01*
X019161Y016354D02*
X011601Y016354D01*
X011690Y016256D02*
X019062Y016256D01*
X018976Y016157D02*
X011752Y016157D01*
X011793Y016059D02*
X018935Y016059D01*
X018894Y015960D02*
X011816Y015960D01*
X011824Y015800D02*
X011200Y015800D01*
X011200Y015900D01*
X011100Y015900D01*
X011100Y016524D01*
X011018Y016513D01*
X010933Y016491D01*
X010851Y016457D01*
X010774Y016412D01*
X010704Y016359D01*
X010641Y016296D01*
X010588Y016226D01*
X010543Y016149D01*
X010509Y016067D01*
X010487Y015982D01*
X010476Y015900D01*
X011100Y015900D01*
X011100Y015800D01*
X011200Y015800D01*
X011200Y015176D01*
X011282Y015187D01*
X011367Y015209D01*
X011449Y015243D01*
X011526Y015288D01*
X011596Y015341D01*
X011659Y015404D01*
X011712Y015474D01*
X011757Y015551D01*
X011791Y015633D01*
X011813Y015718D01*
X011824Y015800D01*
X011819Y015763D02*
X018856Y015763D01*
X018856Y015665D02*
X011799Y015665D01*
X011763Y015566D02*
X018856Y015566D01*
X018883Y015468D02*
X011707Y015468D01*
X011624Y015369D02*
X018924Y015369D01*
X018965Y015271D02*
X011496Y015271D01*
X011200Y015271D02*
X011100Y015271D01*
X011100Y015176D02*
X011100Y015800D01*
X010476Y015800D01*
X010487Y015718D01*
X010509Y015633D01*
X010543Y015551D01*
X010588Y015474D01*
X010641Y015404D01*
X010704Y015341D01*
X010774Y015288D01*
X010851Y015243D01*
X010933Y015209D01*
X011018Y015187D01*
X011100Y015176D01*
X011100Y015369D02*
X011200Y015369D01*
X011200Y015468D02*
X011100Y015468D01*
X011100Y015566D02*
X011200Y015566D01*
X011200Y015665D02*
X011100Y015665D01*
X011100Y015763D02*
X011200Y015763D01*
X011200Y015862D02*
X018856Y015862D01*
X019035Y015172D02*
X009759Y015172D01*
X009858Y015271D02*
X010804Y015271D01*
X010676Y015369D02*
X009948Y015369D01*
X009989Y015468D02*
X010593Y015468D01*
X010537Y015566D02*
X010029Y015566D01*
X010070Y015665D02*
X010501Y015665D01*
X010481Y015763D02*
X010075Y015763D01*
X010075Y015862D02*
X011100Y015862D01*
X011100Y015960D02*
X011200Y015960D01*
X011200Y016059D02*
X011100Y016059D01*
X011100Y016157D02*
X011200Y016157D01*
X011200Y016256D02*
X011100Y016256D01*
X011100Y016354D02*
X011200Y016354D01*
X011200Y016453D02*
X011100Y016453D01*
X010844Y016453D02*
X009835Y016453D01*
X009933Y016354D02*
X010699Y016354D01*
X010610Y016256D02*
X009979Y016256D01*
X010020Y016157D02*
X010548Y016157D01*
X010507Y016059D02*
X010061Y016059D01*
X010075Y015960D02*
X010484Y015960D01*
X009612Y015074D02*
X019133Y015074D01*
X019246Y014975D02*
X009374Y014975D01*
X018087Y018226D02*
X018313Y018226D01*
X018214Y018127D02*
X018186Y018127D01*
X017880Y018324D02*
X018520Y018324D01*
X016207Y019014D02*
X026049Y019014D01*
X025984Y019112D02*
X016305Y019112D01*
X026362Y020688D02*
X006200Y020688D01*
X006200Y020787D02*
X026450Y020787D01*
X026549Y020885D02*
X006200Y020885D01*
X006200Y020984D02*
X026647Y020984D01*
X026746Y021082D02*
X006200Y021082D01*
X006200Y021181D02*
X026844Y021181D01*
X026943Y021279D02*
X006200Y021279D01*
X006200Y021378D02*
X015179Y021378D01*
X015241Y021352D02*
X015459Y021352D01*
X015660Y021435D01*
X015815Y021590D01*
X015898Y021791D01*
X015898Y022009D01*
X015815Y022210D01*
X015660Y022365D01*
X015459Y022448D01*
X015241Y022448D01*
X015040Y022365D01*
X014885Y022210D01*
X014802Y022009D01*
X014802Y021791D01*
X014885Y021590D01*
X015040Y021435D01*
X015241Y021352D01*
X014999Y021476D02*
X006200Y021476D01*
X006200Y021575D02*
X014900Y021575D01*
X014851Y021673D02*
X006200Y021673D01*
X006200Y021772D02*
X014810Y021772D01*
X014802Y021870D02*
X007524Y021870D01*
X007644Y021969D02*
X014802Y021969D01*
X014826Y022067D02*
X007726Y022067D01*
X007767Y022166D02*
X014867Y022166D01*
X014939Y022264D02*
X007798Y022264D01*
X007798Y022363D02*
X015037Y022363D01*
X015663Y022363D02*
X062853Y022363D01*
X062852Y022264D02*
X015761Y022264D01*
X015833Y022166D02*
X062852Y022166D01*
X062883Y022067D02*
X015874Y022067D01*
X015898Y021969D02*
X062923Y021969D01*
X063005Y021870D02*
X015898Y021870D01*
X015890Y021772D02*
X063123Y021772D01*
X062894Y022461D02*
X007797Y022461D01*
X007037Y022855D02*
X006200Y022855D01*
X006200Y022757D02*
X006881Y022757D01*
X006784Y022658D02*
X006200Y022658D01*
X006200Y022560D02*
X006744Y022560D01*
X006703Y022461D02*
X006200Y022461D01*
X006200Y022363D02*
X006702Y022363D01*
X006702Y022264D02*
X006200Y022264D01*
X006200Y022166D02*
X006733Y022166D01*
X006774Y022067D02*
X006200Y022067D01*
X006200Y021969D02*
X006856Y021969D01*
X006976Y021870D02*
X006200Y021870D01*
X006200Y022954D02*
X092446Y022954D01*
X092348Y023052D02*
X006200Y023052D01*
X006200Y023151D02*
X092249Y023151D01*
X063865Y022560D02*
X063710Y022715D01*
X050660Y020294D02*
X049830Y020294D01*
X049842Y020196D02*
X050558Y020196D01*
X050460Y020097D02*
X049940Y020097D01*
X050011Y019999D02*
X050389Y019999D01*
X050348Y019900D02*
X050052Y019900D01*
X050093Y019802D02*
X050307Y019802D01*
X050275Y019703D02*
X050125Y019703D01*
X050125Y019605D02*
X050275Y019605D01*
X050275Y019506D02*
X050125Y019506D01*
X050125Y019408D02*
X050275Y019408D01*
X050303Y019309D02*
X050097Y019309D01*
X050056Y019211D02*
X050344Y019211D01*
X050384Y019112D02*
X050016Y019112D01*
X049951Y019014D02*
X050449Y019014D01*
X050548Y018915D02*
X049852Y018915D01*
X049754Y018817D02*
X050646Y018817D01*
X048862Y020590D02*
X027526Y020590D01*
X027624Y020688D02*
X048952Y020688D01*
X048995Y020731D02*
X048995Y020731D01*
X049050Y020787D02*
X027723Y020787D01*
X027041Y021378D02*
X015521Y021378D01*
X015701Y021476D02*
X027140Y021476D01*
X027238Y021575D02*
X015800Y021575D01*
X015849Y021673D02*
X027337Y021673D01*
X029362Y018226D02*
X034813Y018226D01*
X031781Y018127D02*
X029420Y018127D01*
X029461Y018029D02*
X031606Y018029D01*
X031508Y017930D02*
X029502Y017930D01*
X029525Y017832D02*
X031409Y017832D01*
X028238Y015074D02*
X028150Y015074D01*
X028341Y010698D02*
X028140Y010615D01*
X027985Y010460D01*
X027902Y010259D01*
X027902Y010041D01*
X027985Y009840D01*
X028140Y009685D01*
X028341Y009602D01*
X028559Y009602D01*
X028760Y009685D01*
X028915Y009840D01*
X028998Y010041D01*
X028998Y010259D01*
X028915Y010460D01*
X028760Y010615D01*
X028559Y010698D01*
X028341Y010698D01*
X028203Y010641D02*
X027200Y010641D01*
X027200Y010700D02*
X030369Y010700D01*
X030352Y010659D01*
X030352Y010441D01*
X030435Y010240D01*
X030590Y010085D01*
X030791Y010002D01*
X031009Y010002D01*
X031210Y010085D01*
X031365Y010240D01*
X031448Y010441D01*
X031448Y010659D01*
X031431Y010700D01*
X038640Y010700D01*
X038685Y010590D01*
X038840Y010435D01*
X038889Y010415D01*
X038785Y010310D01*
X038702Y010109D01*
X038702Y009891D01*
X038785Y009690D01*
X038940Y009535D01*
X039141Y009452D01*
X039359Y009452D01*
X039560Y009535D01*
X039715Y009690D01*
X039798Y009891D01*
X039798Y010109D01*
X039715Y010310D01*
X039560Y010465D01*
X039511Y010485D01*
X039615Y010590D01*
X039660Y010700D01*
X040469Y010700D01*
X040452Y010659D01*
X040452Y010441D01*
X040535Y010240D01*
X040665Y010110D01*
X040602Y009959D01*
X040602Y009741D01*
X040685Y009540D01*
X040840Y009385D01*
X041041Y009302D01*
X041259Y009302D01*
X041460Y009385D01*
X041615Y009540D01*
X041660Y009648D01*
X041749Y009432D01*
X041932Y009249D01*
X042171Y009150D01*
X042429Y009150D01*
X042668Y009249D01*
X042851Y009432D01*
X042950Y009671D01*
X042950Y009929D01*
X042851Y010168D01*
X042719Y010300D01*
X042851Y010432D01*
X042950Y010671D01*
X042950Y010700D01*
X042952Y010700D01*
X042952Y010591D01*
X043035Y010390D01*
X043190Y010235D01*
X043391Y010152D01*
X043609Y010152D01*
X043810Y010235D01*
X043965Y010390D01*
X044048Y010591D01*
X044048Y010700D01*
X044802Y010700D01*
X044802Y010541D01*
X044885Y010340D01*
X045040Y010185D01*
X045241Y010102D01*
X045459Y010102D01*
X045660Y010185D01*
X045815Y010340D01*
X045898Y010541D01*
X045898Y010700D01*
X046875Y010700D01*
X046835Y010660D01*
X046752Y010459D01*
X046752Y010241D01*
X046835Y010040D01*
X046990Y009885D01*
X047191Y009802D01*
X047409Y009802D01*
X047610Y009885D01*
X047765Y010040D01*
X047848Y010241D01*
X047848Y010459D01*
X047765Y010660D01*
X047725Y010700D01*
X053700Y010700D01*
X053700Y007400D01*
X045625Y007400D01*
X045560Y007465D01*
X045415Y007525D01*
X045560Y007585D01*
X045715Y007740D01*
X045798Y007941D01*
X045798Y008159D01*
X045715Y008360D01*
X045560Y008515D01*
X045359Y008598D01*
X045141Y008598D01*
X044940Y008515D01*
X044785Y008360D01*
X044702Y008159D01*
X044702Y007941D01*
X044785Y007740D01*
X044940Y007585D01*
X045085Y007525D01*
X044940Y007465D01*
X044875Y007400D01*
X043984Y007400D01*
X043965Y007445D01*
X043793Y007618D01*
X043915Y007740D01*
X043998Y007941D01*
X043998Y008159D01*
X043915Y008360D01*
X043760Y008515D01*
X043559Y008598D01*
X043341Y008598D01*
X043140Y008515D01*
X042985Y008360D01*
X042902Y008159D01*
X042902Y007941D01*
X042985Y007740D01*
X043000Y007725D01*
X042855Y007665D01*
X042635Y007445D01*
X042616Y007400D01*
X041984Y007400D01*
X041965Y007445D01*
X041745Y007665D01*
X041522Y007758D01*
X041598Y007941D01*
X041598Y008159D01*
X041515Y008360D01*
X041360Y008515D01*
X041159Y008598D01*
X040941Y008598D01*
X040740Y008515D01*
X040585Y008360D01*
X040502Y008159D01*
X040502Y007941D01*
X040585Y007740D01*
X040740Y007585D01*
X040765Y007575D01*
X040635Y007445D01*
X040616Y007400D01*
X039769Y007400D01*
X039848Y007591D01*
X039848Y007809D01*
X039765Y008010D01*
X039610Y008165D01*
X039409Y008248D01*
X039191Y008248D01*
X038990Y008165D01*
X038835Y008010D01*
X038752Y007809D01*
X038752Y007591D01*
X038831Y007400D01*
X037240Y007400D01*
X037298Y007541D01*
X037298Y007759D01*
X037215Y007960D01*
X037060Y008115D01*
X036859Y008198D01*
X036641Y008198D01*
X036440Y008115D01*
X036285Y007960D01*
X036202Y007759D01*
X036202Y007541D01*
X036260Y007400D01*
X027200Y007400D01*
X027200Y007825D01*
X027290Y007735D01*
X027491Y007652D01*
X027709Y007652D01*
X027910Y007735D01*
X028065Y007890D01*
X028148Y008091D01*
X028148Y008309D01*
X028065Y008510D01*
X027910Y008665D01*
X027709Y008748D01*
X027491Y008748D01*
X027290Y008665D01*
X027200Y008575D01*
X027200Y010700D01*
X027200Y010543D02*
X028067Y010543D01*
X027979Y010444D02*
X027200Y010444D01*
X027200Y010346D02*
X027938Y010346D01*
X027902Y010247D02*
X027200Y010247D01*
X027200Y010149D02*
X027902Y010149D01*
X027902Y010050D02*
X027200Y010050D01*
X027200Y009952D02*
X027939Y009952D01*
X027980Y009853D02*
X027200Y009853D01*
X027200Y009755D02*
X028070Y009755D01*
X028210Y009656D02*
X027200Y009656D01*
X027200Y009558D02*
X038917Y009558D01*
X038819Y009656D02*
X028690Y009656D01*
X028830Y009755D02*
X038758Y009755D01*
X038718Y009853D02*
X028920Y009853D01*
X028961Y009952D02*
X038702Y009952D01*
X038702Y010050D02*
X031125Y010050D01*
X031274Y010149D02*
X038718Y010149D01*
X038759Y010247D02*
X031368Y010247D01*
X031409Y010346D02*
X038820Y010346D01*
X038831Y010444D02*
X031448Y010444D01*
X031448Y010543D02*
X038732Y010543D01*
X038664Y010641D02*
X031448Y010641D01*
X030432Y010247D02*
X028998Y010247D01*
X028998Y010149D02*
X030526Y010149D01*
X030675Y010050D02*
X028998Y010050D01*
X028962Y010346D02*
X030391Y010346D01*
X030352Y010444D02*
X028921Y010444D01*
X028833Y010543D02*
X030352Y010543D01*
X030352Y010641D02*
X028697Y010641D01*
X027200Y009459D02*
X039124Y009459D01*
X039376Y009459D02*
X040766Y009459D01*
X040678Y009558D02*
X039583Y009558D01*
X039681Y009656D02*
X040637Y009656D01*
X040602Y009755D02*
X039742Y009755D01*
X039782Y009853D02*
X040602Y009853D01*
X040602Y009952D02*
X039798Y009952D01*
X039798Y010050D02*
X040640Y010050D01*
X040626Y010149D02*
X039782Y010149D01*
X039741Y010247D02*
X040532Y010247D01*
X040491Y010346D02*
X039680Y010346D01*
X039581Y010444D02*
X040452Y010444D01*
X040452Y010543D02*
X039568Y010543D01*
X039636Y010641D02*
X040452Y010641D01*
X042765Y010346D02*
X043079Y010346D01*
X043013Y010444D02*
X042856Y010444D01*
X042897Y010543D02*
X042972Y010543D01*
X042952Y010641D02*
X042938Y010641D01*
X042772Y010247D02*
X043178Y010247D01*
X042859Y010149D02*
X045128Y010149D01*
X044978Y010247D02*
X043822Y010247D01*
X043921Y010346D02*
X044883Y010346D01*
X044842Y010444D02*
X043987Y010444D01*
X044028Y010543D02*
X044802Y010543D01*
X044802Y010641D02*
X044048Y010641D01*
X045722Y010247D02*
X046752Y010247D01*
X046752Y010346D02*
X045817Y010346D01*
X045858Y010444D02*
X046752Y010444D01*
X046786Y010543D02*
X045898Y010543D01*
X045898Y010641D02*
X046827Y010641D01*
X047773Y010641D02*
X053700Y010641D01*
X053700Y010543D02*
X047814Y010543D01*
X047848Y010444D02*
X053700Y010444D01*
X053700Y010346D02*
X047848Y010346D01*
X047848Y010247D02*
X053700Y010247D01*
X053700Y010149D02*
X047810Y010149D01*
X047769Y010050D02*
X053700Y010050D01*
X053700Y009952D02*
X047677Y009952D01*
X047532Y009853D02*
X053700Y009853D01*
X053700Y009755D02*
X051264Y009755D01*
X051360Y009715D02*
X051159Y009798D01*
X050941Y009798D01*
X050740Y009715D01*
X050585Y009560D01*
X050502Y009359D01*
X050502Y009141D01*
X050585Y008940D01*
X050740Y008785D01*
X050941Y008702D01*
X051159Y008702D01*
X051360Y008785D01*
X051515Y008940D01*
X051598Y009141D01*
X051598Y009359D01*
X051515Y009560D01*
X051360Y009715D01*
X051419Y009656D02*
X053700Y009656D01*
X053700Y009558D02*
X051516Y009558D01*
X051557Y009459D02*
X053700Y009459D01*
X053700Y009361D02*
X053000Y009361D01*
X052909Y009398D02*
X053110Y009315D01*
X053265Y009160D01*
X053348Y008959D01*
X053348Y008741D01*
X053265Y008540D01*
X053110Y008385D01*
X052909Y008302D01*
X052691Y008302D01*
X052490Y008385D01*
X052335Y008540D01*
X052252Y008741D01*
X052252Y008959D01*
X052335Y009160D01*
X052490Y009315D01*
X052691Y009398D01*
X052909Y009398D01*
X053163Y009262D02*
X053700Y009262D01*
X053700Y009164D02*
X053262Y009164D01*
X053304Y009065D02*
X053700Y009065D01*
X053700Y008967D02*
X053345Y008967D01*
X053348Y008868D02*
X053700Y008868D01*
X053700Y008770D02*
X053348Y008770D01*
X053319Y008671D02*
X053700Y008671D01*
X053700Y008573D02*
X053278Y008573D01*
X053199Y008474D02*
X053700Y008474D01*
X053700Y008376D02*
X053087Y008376D01*
X052513Y008376D02*
X045700Y008376D01*
X045749Y008277D02*
X053700Y008277D01*
X053700Y008179D02*
X045790Y008179D01*
X045798Y008080D02*
X053700Y008080D01*
X053700Y007982D02*
X045798Y007982D01*
X045774Y007883D02*
X053700Y007883D01*
X053700Y007785D02*
X045733Y007785D01*
X045661Y007686D02*
X053700Y007686D01*
X053700Y007588D02*
X045563Y007588D01*
X045502Y007489D02*
X053700Y007489D01*
X052401Y008474D02*
X045601Y008474D01*
X045421Y008573D02*
X052322Y008573D01*
X052281Y008671D02*
X027895Y008671D01*
X028003Y008573D02*
X040879Y008573D01*
X040699Y008474D02*
X028080Y008474D01*
X028121Y008376D02*
X040600Y008376D01*
X040551Y008277D02*
X028148Y008277D01*
X028148Y008179D02*
X036594Y008179D01*
X036405Y008080D02*
X028144Y008080D01*
X028103Y007982D02*
X036306Y007982D01*
X036253Y007883D02*
X028058Y007883D01*
X027960Y007785D02*
X036212Y007785D01*
X036202Y007686D02*
X027791Y007686D01*
X027409Y007686D02*
X027200Y007686D01*
X027200Y007588D02*
X036202Y007588D01*
X036223Y007489D02*
X027200Y007489D01*
X027200Y007785D02*
X027240Y007785D01*
X027200Y008671D02*
X027305Y008671D01*
X027200Y008770D02*
X050778Y008770D01*
X050657Y008868D02*
X027200Y008868D01*
X027200Y008967D02*
X050574Y008967D01*
X050533Y009065D02*
X027200Y009065D01*
X027200Y009164D02*
X042138Y009164D01*
X041919Y009262D02*
X027200Y009262D01*
X027200Y009361D02*
X040899Y009361D01*
X041401Y009361D02*
X041820Y009361D01*
X041738Y009459D02*
X041534Y009459D01*
X041622Y009558D02*
X041697Y009558D01*
X042462Y009164D02*
X050502Y009164D01*
X050502Y009262D02*
X042681Y009262D01*
X042780Y009361D02*
X050503Y009361D01*
X050543Y009459D02*
X042862Y009459D01*
X042903Y009558D02*
X050584Y009558D01*
X050681Y009656D02*
X042944Y009656D01*
X042950Y009755D02*
X050836Y009755D01*
X051597Y009361D02*
X052600Y009361D01*
X052437Y009262D02*
X051598Y009262D01*
X051598Y009164D02*
X052338Y009164D01*
X052296Y009065D02*
X051567Y009065D01*
X051526Y008967D02*
X052255Y008967D01*
X052252Y008868D02*
X051443Y008868D01*
X051322Y008770D02*
X052252Y008770D01*
X047068Y009853D02*
X042950Y009853D01*
X042941Y009952D02*
X046923Y009952D01*
X046831Y010050D02*
X042900Y010050D01*
X045572Y010149D02*
X046790Y010149D01*
X042560Y008565D02*
X042359Y008648D01*
X042141Y008648D01*
X041940Y008565D01*
X041785Y008410D01*
X041702Y008209D01*
X041702Y007991D01*
X041785Y007790D01*
X041940Y007635D01*
X042141Y007552D01*
X042359Y007552D01*
X042560Y007635D01*
X042715Y007790D01*
X042798Y007991D01*
X042798Y008209D01*
X042715Y008410D01*
X042560Y008565D01*
X042542Y008573D02*
X043279Y008573D01*
X043099Y008474D02*
X042651Y008474D01*
X042729Y008376D02*
X043000Y008376D01*
X042951Y008277D02*
X042770Y008277D01*
X042798Y008179D02*
X042910Y008179D01*
X042902Y008080D02*
X042798Y008080D01*
X042794Y007982D02*
X042902Y007982D01*
X042926Y007883D02*
X042753Y007883D01*
X042710Y007785D02*
X042967Y007785D01*
X042905Y007686D02*
X042611Y007686D01*
X042445Y007588D02*
X042777Y007588D01*
X042679Y007489D02*
X041921Y007489D01*
X041823Y007588D02*
X042055Y007588D01*
X041889Y007686D02*
X041695Y007686D01*
X041790Y007785D02*
X041533Y007785D01*
X041574Y007883D02*
X041747Y007883D01*
X041706Y007982D02*
X041598Y007982D01*
X041598Y008080D02*
X041702Y008080D01*
X041702Y008179D02*
X041590Y008179D01*
X041549Y008277D02*
X041730Y008277D01*
X041771Y008376D02*
X041500Y008376D01*
X041401Y008474D02*
X041849Y008474D01*
X041958Y008573D02*
X041221Y008573D01*
X040510Y008179D02*
X039577Y008179D01*
X039695Y008080D02*
X040502Y008080D01*
X040502Y007982D02*
X039777Y007982D01*
X039817Y007883D02*
X040526Y007883D01*
X040567Y007785D02*
X039848Y007785D01*
X039848Y007686D02*
X040639Y007686D01*
X040737Y007588D02*
X039847Y007588D01*
X039806Y007489D02*
X040679Y007489D01*
X038794Y007489D02*
X037277Y007489D01*
X037298Y007588D02*
X038753Y007588D01*
X038752Y007686D02*
X037298Y007686D01*
X037288Y007785D02*
X038752Y007785D01*
X038783Y007883D02*
X037247Y007883D01*
X037194Y007982D02*
X038823Y007982D01*
X038905Y008080D02*
X037095Y008080D01*
X036906Y008179D02*
X039023Y008179D01*
X043621Y008573D02*
X045079Y008573D01*
X044899Y008474D02*
X043801Y008474D01*
X043900Y008376D02*
X044800Y008376D01*
X044751Y008277D02*
X043949Y008277D01*
X043990Y008179D02*
X044710Y008179D01*
X044702Y008080D02*
X043998Y008080D01*
X043998Y007982D02*
X044702Y007982D01*
X044726Y007883D02*
X043974Y007883D01*
X043933Y007785D02*
X044767Y007785D01*
X044839Y007686D02*
X043861Y007686D01*
X043823Y007588D02*
X044937Y007588D01*
X044998Y007489D02*
X043921Y007489D01*
X096804Y013596D02*
X101804Y013596D01*
X101902Y013498D02*
X096902Y013498D01*
X103021Y009755D02*
X103379Y009755D01*
X103258Y009656D02*
X103142Y009656D01*
X104021Y009755D02*
X104200Y009755D01*
X104200Y009656D02*
X104142Y009656D01*
D25*
X080200Y006350D02*
X076600Y002750D01*
X063300Y002750D01*
X057650Y008400D01*
X056775Y009275D01*
X056550Y009500D01*
X056150Y009950D01*
D26*
X056150Y009750D01*
X055600Y010300D01*
X052200Y010200D02*
X052200Y010150D01*
X052100Y010050D01*
X051950Y011400D02*
X051700Y011400D01*
X051450Y011650D01*
M02*
