G75*
%MOIN*%
%OFA0B0*%
%FSLAX24Y24*%
%IPPOS*%
%LPD*%
%AMOC8*
5,1,8,0,0,1.08239X$1,22.5*
%
%ADD10C,0.0600*%
%ADD11C,0.1050*%
%ADD12C,0.0570*%
%ADD13C,0.0591*%
%ADD14C,0.0987*%
%ADD15C,0.0790*%
%ADD16C,0.0870*%
%ADD17C,0.0540*%
%ADD18C,0.0260*%
%ADD19C,0.0100*%
%ADD20C,0.0200*%
%ADD21C,0.0396*%
%ADD22C,0.0180*%
%ADD23C,0.0240*%
%ADD24C,0.0600*%
%ADD25C,0.0400*%
%ADD26C,0.0160*%
D10*
X029310Y016093D03*
X030310Y016093D03*
X047260Y021993D03*
X048260Y021993D03*
X079560Y015393D03*
X080560Y015393D03*
X089460Y017493D03*
X089460Y018493D03*
X100110Y016543D03*
X101110Y016543D03*
X102110Y016543D03*
X089360Y021693D03*
X089360Y022693D03*
X076560Y012193D03*
X076560Y011193D03*
X090360Y010293D03*
X091360Y010293D03*
D11*
X075910Y024043D03*
X073960Y024043D03*
X074010Y025893D03*
X075910Y025893D03*
X075910Y027743D03*
X074010Y027743D03*
X058410Y027743D03*
X056510Y027743D03*
X056510Y025893D03*
X058410Y025893D03*
X058410Y024043D03*
X056460Y024043D03*
X035910Y024043D03*
X033960Y024043D03*
X034010Y025893D03*
X035910Y025893D03*
X035910Y027743D03*
X034010Y027743D03*
X018410Y027743D03*
X016510Y027743D03*
X016510Y025893D03*
X018410Y025893D03*
X018410Y024043D03*
X016460Y024043D03*
D12*
X107960Y015393D03*
X108960Y015393D03*
X109960Y015393D03*
X110960Y015393D03*
X111960Y015393D03*
X112960Y015393D03*
X113960Y015393D03*
X114960Y015393D03*
X115960Y015393D03*
X116960Y015393D03*
X117960Y015393D03*
X118960Y015393D03*
X119960Y015393D03*
X120960Y015393D03*
X120960Y014393D03*
X120960Y013393D03*
X120960Y012393D03*
X120960Y011393D03*
X120960Y010393D03*
X120960Y009393D03*
X119960Y009393D03*
X118960Y009393D03*
X117960Y009393D03*
X116960Y009393D03*
X115960Y009393D03*
X114960Y009393D03*
X113960Y009393D03*
X112960Y009393D03*
X111960Y009393D03*
X110960Y009393D03*
X109960Y009393D03*
X108960Y009393D03*
X107960Y009393D03*
D13*
X058460Y015893D03*
X057460Y015893D03*
X064960Y025893D03*
X065960Y025893D03*
X082460Y025893D03*
X083460Y025893D03*
X099015Y023098D03*
X099999Y023098D03*
X100983Y023098D03*
X100983Y028807D03*
X099015Y028807D03*
X043460Y025893D03*
X042460Y025893D03*
X025960Y025893D03*
X024960Y025893D03*
D14*
X026960Y023893D03*
X022960Y027893D03*
X040460Y027893D03*
X044460Y023893D03*
X062960Y027893D03*
X066960Y023893D03*
X080460Y027893D03*
X084460Y023893D03*
X055460Y017893D03*
X059460Y013893D03*
D15*
X051660Y012293D03*
X052760Y017293D03*
X026060Y012043D03*
D16*
X027060Y011043D03*
X025060Y011043D03*
X025060Y013043D03*
X027060Y013043D03*
X050660Y013293D03*
X052660Y013293D03*
X052660Y011293D03*
X050660Y011293D03*
X051760Y016293D03*
X053760Y016293D03*
X053760Y018293D03*
X051760Y018293D03*
D17*
X114060Y017943D03*
X115060Y017943D03*
X116060Y017943D03*
X117060Y017943D03*
X117060Y018943D03*
X116060Y018943D03*
X115060Y018943D03*
X114060Y018943D03*
X123660Y017993D03*
X124660Y017993D03*
X124660Y016993D03*
X123660Y016993D03*
X123660Y015993D03*
X124660Y015993D03*
X124660Y014993D03*
X123660Y014993D03*
X123660Y013993D03*
X124660Y013993D03*
X124660Y012993D03*
X123660Y012993D03*
X123660Y011993D03*
X124660Y011993D03*
X124660Y010993D03*
X123660Y010993D03*
D18*
X103060Y010093D03*
X102060Y009393D03*
X101160Y010293D03*
X102860Y011293D03*
X101260Y011493D03*
X094360Y010293D03*
X091260Y011793D03*
X089260Y011793D03*
X092160Y013293D03*
X092760Y013793D03*
X089360Y013793D03*
X096260Y015493D03*
X101060Y015293D03*
X098060Y016893D03*
X099160Y017693D03*
X103160Y019393D03*
X104060Y020193D03*
X101860Y020793D03*
X103460Y020993D03*
X097060Y021693D03*
X087860Y021493D03*
X079860Y020693D03*
X077460Y020793D03*
X075360Y021093D03*
X073960Y021293D03*
X075760Y021793D03*
X074160Y022893D03*
X071860Y022643D03*
X070960Y022293D03*
X070960Y021593D03*
X069060Y020393D03*
X068960Y019693D03*
X067660Y018993D03*
X071460Y017393D03*
X068460Y015493D03*
X066660Y014493D03*
X069360Y013293D03*
X071660Y013293D03*
X071660Y012593D03*
X071660Y011893D03*
X071660Y011193D03*
X072860Y009993D03*
X073560Y009193D03*
X066260Y011993D03*
X062460Y010993D03*
X058860Y010393D03*
X054360Y011393D03*
X054460Y011893D03*
X054460Y012393D03*
X053360Y012093D03*
X053560Y011493D03*
X054160Y010793D03*
X053760Y010393D03*
X053260Y010193D03*
X052760Y010193D03*
X052260Y010193D03*
X051460Y010193D03*
X050860Y010193D03*
X050260Y010193D03*
X049260Y010093D03*
X048760Y010093D03*
X047660Y009993D03*
X046660Y009993D03*
X046260Y009593D03*
X045860Y009893D03*
X045360Y009593D03*
X045160Y010093D03*
X044860Y010693D03*
X044760Y011293D03*
X044360Y011493D03*
X043460Y011493D03*
X043460Y011993D03*
X044560Y012293D03*
X045160Y011993D03*
X046360Y011493D03*
X046760Y011993D03*
X048060Y012193D03*
X047560Y012493D03*
X046560Y013093D03*
X046060Y013093D03*
X046360Y012493D03*
X048160Y013493D03*
X048960Y013093D03*
X049760Y013393D03*
X051260Y013793D03*
X050960Y014093D03*
X050360Y014093D03*
X049260Y013993D03*
X048660Y013993D03*
X048660Y014993D03*
X049260Y014993D03*
X049760Y014993D03*
X050360Y014993D03*
X050860Y014993D03*
X051260Y014793D03*
X052560Y014493D03*
X052960Y014193D03*
X053460Y013993D03*
X053960Y014593D03*
X054260Y014093D03*
X054360Y013493D03*
X054460Y012893D03*
X053360Y012693D03*
X052660Y012293D03*
X052060Y012893D03*
X053460Y013393D03*
X052060Y013793D03*
X052060Y014293D03*
X047460Y015393D03*
X047160Y015693D03*
X046660Y015793D03*
X046260Y016393D03*
X047060Y016593D03*
X047760Y017293D03*
X048760Y017393D03*
X049760Y017293D03*
X050760Y017293D03*
X051660Y017293D03*
X053760Y017393D03*
X056960Y017893D03*
X057060Y017393D03*
X057860Y017393D03*
X057960Y017893D03*
X057960Y018393D03*
X057860Y018793D03*
X057460Y019293D03*
X056860Y018893D03*
X056960Y018393D03*
X056360Y019093D03*
X055660Y019093D03*
X054960Y019093D03*
X054260Y019093D03*
X053560Y019093D03*
X052560Y019093D03*
X051860Y019093D03*
X051060Y019093D03*
X050260Y019093D03*
X049560Y019093D03*
X048760Y019093D03*
X047960Y019093D03*
X047260Y019093D03*
X046460Y019093D03*
X045760Y019093D03*
X044960Y019093D03*
X044260Y018993D03*
X043560Y018893D03*
X042960Y018593D03*
X042160Y018993D03*
X041660Y018693D03*
X040260Y018593D03*
X041160Y018293D03*
X040760Y017793D03*
X040360Y017393D03*
X041260Y017193D03*
X040960Y016693D03*
X040760Y016193D03*
X040560Y015793D03*
X039760Y015693D03*
X039360Y015293D03*
X039060Y014793D03*
X038360Y015293D03*
X037660Y015293D03*
X037060Y014593D03*
X035060Y014093D03*
X035260Y013593D03*
X034560Y013693D03*
X034560Y014293D03*
X033760Y014293D03*
X033760Y013693D03*
X034560Y013093D03*
X035460Y012893D03*
X035960Y012993D03*
X036560Y012993D03*
X037060Y012893D03*
X037060Y012193D03*
X036560Y012093D03*
X035960Y012093D03*
X035460Y012193D03*
X034860Y011993D03*
X034460Y011993D03*
X034060Y011993D03*
X033660Y011893D03*
X033160Y011893D03*
X032660Y011893D03*
X032260Y011993D03*
X032260Y011493D03*
X030910Y011518D03*
X029360Y011593D03*
X028860Y011593D03*
X028360Y011693D03*
X027760Y011693D03*
X027160Y011693D03*
X026660Y011693D03*
X026660Y012393D03*
X027160Y012393D03*
X027760Y012393D03*
X028360Y012393D03*
X028860Y012493D03*
X029360Y012493D03*
X030910Y012618D03*
X030910Y012118D03*
X031660Y012693D03*
X032160Y012693D03*
X032660Y012793D03*
X033160Y012793D03*
X033660Y012693D03*
X037160Y013593D03*
X038960Y013393D03*
X040860Y013493D03*
X041060Y012793D03*
X041560Y012793D03*
X043460Y012993D03*
X043460Y012493D03*
X041560Y012093D03*
X041560Y011693D03*
X041460Y011193D03*
X041060Y012093D03*
X040560Y011993D03*
X040060Y011993D03*
X039560Y011993D03*
X039060Y011993D03*
X038560Y011993D03*
X038060Y011993D03*
X037560Y011993D03*
X039160Y012593D03*
X043660Y013693D03*
X042560Y014293D03*
X040760Y014593D03*
X039060Y014193D03*
X040460Y015293D03*
X041660Y015693D03*
X043460Y015093D03*
X045460Y014693D03*
X046560Y014593D03*
X046560Y013993D03*
X046560Y015193D03*
X048660Y015593D03*
X049660Y015693D03*
X050760Y015693D03*
X052360Y015693D03*
X053160Y015693D03*
X055360Y016193D03*
X057060Y016593D03*
X057860Y016593D03*
X048760Y018193D03*
X044460Y017693D03*
X043460Y017093D03*
X041660Y017693D03*
X042160Y018093D03*
X038260Y018893D03*
X036460Y020193D03*
X032060Y020593D03*
X030360Y021593D03*
X033460Y021793D03*
X035560Y022193D03*
X030060Y023993D03*
X023860Y024093D03*
X017360Y023093D03*
X017360Y021293D03*
X020060Y019393D03*
X026060Y018293D03*
X030160Y019393D03*
X031960Y018793D03*
X032060Y019493D03*
X027160Y020293D03*
X031660Y017193D03*
X032260Y017193D03*
X033660Y016593D03*
X033060Y016493D03*
X034660Y015993D03*
X034860Y016393D03*
X034560Y015493D03*
X033760Y015493D03*
X033060Y015693D03*
X032760Y015293D03*
X032260Y014993D03*
X031660Y014993D03*
X033760Y014893D03*
X034560Y014893D03*
X037460Y016293D03*
X037960Y016693D03*
X038460Y016293D03*
X039860Y016293D03*
X040060Y016793D03*
X043060Y019493D03*
X043660Y019693D03*
X044260Y019793D03*
X044960Y019893D03*
X045760Y019893D03*
X046460Y019893D03*
X047360Y019893D03*
X047960Y019893D03*
X048660Y019893D03*
X049560Y019893D03*
X050260Y019893D03*
X051060Y019893D03*
X051860Y019893D03*
X052560Y019893D03*
X053560Y019893D03*
X054260Y019893D03*
X054960Y019893D03*
X055660Y019893D03*
X056260Y019893D03*
X056860Y019793D03*
X059660Y019793D03*
X062560Y019293D03*
X054360Y021393D03*
X054860Y021893D03*
X056060Y021893D03*
X053060Y021893D03*
X051960Y021893D03*
X051060Y022293D03*
X050660Y021793D03*
X045960Y021793D03*
X047960Y024293D03*
X051960Y024393D03*
X053860Y024393D03*
X054460Y025393D03*
X052460Y025393D03*
X047860Y026293D03*
X050860Y026993D03*
X050860Y027693D03*
X053460Y028393D03*
X047860Y027693D03*
X044360Y027393D03*
X040660Y026493D03*
X030660Y028293D03*
X026360Y027693D03*
X026960Y026593D03*
X030360Y026493D03*
X032460Y030693D03*
X026160Y031593D03*
X016560Y031293D03*
X009260Y028493D03*
X011160Y025193D03*
X010360Y019093D03*
X013560Y018293D03*
X019660Y015293D03*
X012160Y014293D03*
X017460Y012593D03*
X019260Y010893D03*
X013960Y010293D03*
X026160Y009593D03*
X029160Y010993D03*
X030160Y010593D03*
X030910Y010918D03*
X032510Y010318D03*
X031910Y009918D03*
X045560Y010793D03*
X046660Y010993D03*
X048460Y011393D03*
X048760Y011093D03*
X049260Y011093D03*
X049760Y010993D03*
X051360Y010993D03*
X056360Y012593D03*
X057260Y013693D03*
X061060Y013893D03*
X075360Y012793D03*
X079060Y013593D03*
X086960Y016593D03*
X079160Y018293D03*
X078960Y016993D03*
X079160Y019693D03*
X076060Y019593D03*
X075260Y019493D03*
X073660Y020193D03*
X070960Y022993D03*
X070960Y023693D03*
X067360Y025993D03*
X070160Y027693D03*
X061160Y026093D03*
X060660Y023993D03*
X080660Y030593D03*
X083260Y031393D03*
X088760Y031893D03*
X090960Y030693D03*
X091660Y030293D03*
X089760Y030093D03*
X089960Y028893D03*
X088660Y028493D03*
X087760Y027393D03*
X087360Y025993D03*
X093360Y028793D03*
X095160Y029293D03*
X100960Y026893D03*
X100960Y024993D03*
X099960Y024993D03*
X099060Y025093D03*
X110660Y019893D03*
X107360Y016893D03*
X071760Y030893D03*
X068160Y030893D03*
X059760Y031993D03*
X052360Y031293D03*
X046560Y031693D03*
X040760Y030893D03*
X105960Y031393D03*
X029860Y013593D03*
X029260Y013593D03*
D19*
X007910Y008843D02*
X007910Y032943D01*
X107010Y032943D01*
X107010Y020804D01*
X107078Y020638D01*
X107205Y020512D01*
X107370Y020443D01*
X127010Y020443D01*
X127010Y008843D01*
X121291Y008843D01*
X121319Y008855D01*
X121498Y009034D01*
X121595Y009267D01*
X121595Y009520D01*
X121498Y009753D01*
X121358Y009893D01*
X121498Y010034D01*
X121595Y010267D01*
X121595Y010520D01*
X121498Y010753D01*
X121358Y010893D01*
X121498Y011034D01*
X121595Y011267D01*
X121595Y011520D01*
X121498Y011753D01*
X121319Y011932D01*
X121086Y012028D01*
X120833Y012028D01*
X120600Y011932D01*
X120421Y011753D01*
X120325Y011520D01*
X120325Y011267D01*
X120421Y011034D01*
X120561Y010893D01*
X120421Y010753D01*
X120325Y010520D01*
X120325Y010267D01*
X120421Y010034D01*
X120561Y009893D01*
X120460Y009791D01*
X120319Y009932D01*
X120086Y010028D01*
X119833Y010028D01*
X119600Y009932D01*
X119460Y009791D01*
X119319Y009932D01*
X119086Y010028D01*
X118833Y010028D01*
X118600Y009932D01*
X118460Y009791D01*
X118319Y009932D01*
X118086Y010028D01*
X117833Y010028D01*
X117600Y009932D01*
X117460Y009791D01*
X117319Y009932D01*
X117086Y010028D01*
X116833Y010028D01*
X116600Y009932D01*
X116460Y009791D01*
X116319Y009932D01*
X116086Y010028D01*
X115833Y010028D01*
X115600Y009932D01*
X115460Y009791D01*
X115319Y009932D01*
X115086Y010028D01*
X114833Y010028D01*
X114600Y009932D01*
X114460Y009791D01*
X114319Y009932D01*
X114086Y010028D01*
X113833Y010028D01*
X113600Y009932D01*
X113460Y009791D01*
X113319Y009932D01*
X113086Y010028D01*
X112833Y010028D01*
X112600Y009932D01*
X112460Y009791D01*
X112319Y009932D01*
X112086Y010028D01*
X111833Y010028D01*
X111600Y009932D01*
X111460Y009791D01*
X111319Y009932D01*
X111086Y010028D01*
X110833Y010028D01*
X110600Y009932D01*
X110460Y009791D01*
X110319Y009932D01*
X110086Y010028D01*
X109833Y010028D01*
X109600Y009932D01*
X109460Y009791D01*
X109319Y009932D01*
X109086Y010028D01*
X108833Y010028D01*
X108600Y009932D01*
X108421Y009753D01*
X108325Y009520D01*
X108325Y009267D01*
X108421Y009034D01*
X108600Y008855D01*
X108628Y008843D01*
X091387Y008843D01*
X091671Y009127D01*
X091826Y009282D01*
X091910Y009484D01*
X091910Y009924D01*
X091911Y009925D01*
X092010Y010164D01*
X092010Y010423D01*
X091911Y010662D01*
X091728Y010844D01*
X091489Y010943D01*
X091230Y010943D01*
X090991Y010844D01*
X090808Y010662D01*
X090710Y010423D01*
X090710Y010421D01*
X090693Y010405D01*
X090610Y010203D01*
X090610Y009984D01*
X090693Y009782D01*
X090732Y009743D01*
X074887Y009743D01*
X073610Y011021D01*
X073610Y013103D01*
X073527Y013303D01*
X073562Y013279D01*
X074099Y013057D01*
X074669Y012943D01*
X075250Y012943D01*
X075820Y013057D01*
X076357Y013279D01*
X076840Y013602D01*
X077251Y014013D01*
X077574Y014496D01*
X077796Y015033D01*
X077910Y015603D01*
X077910Y016184D01*
X077796Y016754D01*
X077574Y017291D01*
X077251Y017774D01*
X076840Y018185D01*
X076453Y018443D01*
X080232Y018443D01*
X083193Y015482D01*
X083348Y015327D01*
X083550Y015243D01*
X085982Y015243D01*
X087148Y014077D01*
X087350Y013993D01*
X087569Y013993D01*
X087771Y014077D01*
X087926Y014232D01*
X088010Y014434D01*
X088010Y014653D01*
X087926Y014855D01*
X086521Y016260D01*
X086319Y016343D01*
X083887Y016343D01*
X083229Y017002D01*
X083370Y016943D01*
X086549Y016943D01*
X086714Y017012D01*
X086841Y017138D01*
X086910Y017304D01*
X086910Y019443D01*
X089690Y019443D01*
X090591Y018542D01*
X090830Y018443D01*
X101190Y018443D01*
X103291Y016342D01*
X103530Y016243D01*
X107489Y016243D01*
X107728Y016342D01*
X107911Y016525D01*
X108010Y016764D01*
X108010Y017023D01*
X107951Y017163D01*
X108581Y017163D01*
X109751Y015994D01*
X109600Y015932D01*
X109460Y015791D01*
X109319Y015932D01*
X109086Y016028D01*
X108833Y016028D01*
X108600Y015932D01*
X108460Y015791D01*
X108319Y015932D01*
X108086Y016028D01*
X107833Y016028D01*
X107600Y015932D01*
X107421Y015753D01*
X107325Y015520D01*
X107325Y015267D01*
X107421Y015034D01*
X107600Y014855D01*
X107833Y014758D01*
X108086Y014758D01*
X108319Y014855D01*
X108460Y014995D01*
X108600Y014855D01*
X108833Y014758D01*
X109086Y014758D01*
X109319Y014855D01*
X109460Y014995D01*
X109600Y014855D01*
X109833Y014758D01*
X110086Y014758D01*
X110319Y014855D01*
X110460Y014995D01*
X110600Y014855D01*
X110833Y014758D01*
X111086Y014758D01*
X111319Y014855D01*
X111460Y014995D01*
X111600Y014855D01*
X111833Y014758D01*
X112086Y014758D01*
X112319Y014855D01*
X112460Y014995D01*
X112600Y014855D01*
X112833Y014758D01*
X113086Y014758D01*
X113319Y014855D01*
X113460Y014995D01*
X113600Y014855D01*
X113833Y014758D01*
X114086Y014758D01*
X114319Y014855D01*
X114460Y014995D01*
X114600Y014855D01*
X114833Y014758D01*
X115086Y014758D01*
X115319Y014855D01*
X115460Y014995D01*
X115600Y014855D01*
X115833Y014758D01*
X116086Y014758D01*
X116319Y014855D01*
X116460Y014995D01*
X116600Y014855D01*
X116833Y014758D01*
X117086Y014758D01*
X117319Y014855D01*
X117460Y014995D01*
X117600Y014855D01*
X117833Y014758D01*
X118086Y014758D01*
X118319Y014855D01*
X118460Y014995D01*
X118600Y014855D01*
X118833Y014758D01*
X119086Y014758D01*
X119319Y014855D01*
X119460Y014995D01*
X119600Y014855D01*
X119833Y014758D01*
X120086Y014758D01*
X120319Y014855D01*
X120460Y014995D01*
X120561Y014893D01*
X120421Y014753D01*
X120325Y014520D01*
X120325Y014267D01*
X120421Y014034D01*
X120561Y013893D01*
X120421Y013753D01*
X120325Y013520D01*
X120325Y013267D01*
X120421Y013034D01*
X120600Y012855D01*
X120833Y012758D01*
X121086Y012758D01*
X121319Y012855D01*
X121498Y013034D01*
X121595Y013267D01*
X121595Y013520D01*
X121498Y013753D01*
X121358Y013893D01*
X121498Y014034D01*
X121595Y014267D01*
X121595Y014520D01*
X121498Y014753D01*
X121358Y014893D01*
X121498Y015034D01*
X121595Y015267D01*
X121595Y015520D01*
X121498Y015753D01*
X121319Y015932D01*
X121086Y016028D01*
X120833Y016028D01*
X120600Y015932D01*
X120460Y015791D01*
X120319Y015932D01*
X120086Y016028D01*
X119833Y016028D01*
X119600Y015932D01*
X119460Y015791D01*
X119319Y015932D01*
X119086Y016028D01*
X118833Y016028D01*
X118600Y015932D01*
X118460Y015791D01*
X118319Y015932D01*
X118086Y016028D01*
X117833Y016028D01*
X117600Y015932D01*
X117460Y015791D01*
X117319Y015932D01*
X117086Y016028D01*
X116833Y016028D01*
X116600Y015932D01*
X116460Y015791D01*
X116319Y015932D01*
X116086Y016028D01*
X115833Y016028D01*
X115600Y015932D01*
X115460Y015791D01*
X115319Y015932D01*
X115086Y016028D01*
X114833Y016028D01*
X114600Y015932D01*
X114460Y015791D01*
X114319Y015932D01*
X114086Y016028D01*
X113833Y016028D01*
X113600Y015932D01*
X113460Y015791D01*
X113319Y015932D01*
X113086Y016028D01*
X112933Y016028D01*
X109424Y019537D01*
X109303Y019658D01*
X109145Y019723D01*
X107738Y019723D01*
X104690Y022771D01*
X104690Y025779D01*
X104624Y025937D01*
X101628Y028933D01*
X101628Y028935D01*
X101530Y029172D01*
X101349Y029354D01*
X101111Y029452D01*
X100855Y029452D01*
X100618Y029354D01*
X100436Y029172D01*
X100338Y028935D01*
X100338Y028678D01*
X100436Y028441D01*
X100618Y028260D01*
X100855Y028161D01*
X101111Y028161D01*
X101162Y028182D01*
X102293Y027052D01*
X102064Y027052D01*
X101696Y026900D01*
X101414Y026618D01*
X101261Y026250D01*
X101261Y025852D01*
X101414Y025484D01*
X101696Y025202D01*
X102064Y025050D01*
X102462Y025050D01*
X102830Y025202D01*
X103111Y025484D01*
X103264Y025852D01*
X103264Y026081D01*
X103830Y025515D01*
X103830Y022508D01*
X103895Y022350D01*
X104016Y022229D01*
X107121Y019123D01*
X105038Y019123D01*
X101479Y022682D01*
X101530Y022733D01*
X101628Y022970D01*
X101628Y023226D01*
X101530Y023464D01*
X103830Y023464D01*
X103830Y023562D02*
X101431Y023562D01*
X101349Y023645D02*
X101111Y023743D01*
X100855Y023743D01*
X100618Y023645D01*
X100436Y023464D01*
X099561Y023464D01*
X099562Y023464D02*
X099380Y023645D01*
X099143Y023743D01*
X098886Y023743D01*
X098649Y023645D01*
X098468Y023464D01*
X092049Y023464D01*
X091951Y023365D02*
X098427Y023365D01*
X098386Y023267D02*
X091852Y023267D01*
X091754Y023168D02*
X098369Y023168D01*
X098369Y023226D02*
X098369Y022970D01*
X098468Y022733D01*
X098611Y022589D01*
X098650Y022495D01*
X101401Y019743D01*
X091229Y019743D01*
X090328Y020644D01*
X090089Y020743D01*
X086910Y020743D01*
X086910Y022043D01*
X090489Y022043D01*
X090728Y022142D01*
X094828Y026242D01*
X095011Y026425D01*
X095110Y026664D01*
X095110Y030024D01*
X095311Y030225D01*
X095410Y030464D01*
X095410Y030723D01*
X095311Y030962D01*
X095128Y031144D01*
X094889Y031243D01*
X094630Y031243D01*
X094391Y031144D01*
X094390Y031143D01*
X094330Y031143D01*
X094247Y031109D01*
X094169Y031141D01*
X093950Y031141D01*
X093749Y031058D01*
X093595Y030904D01*
X093511Y030702D01*
X093511Y030484D01*
X093595Y030283D01*
X093749Y030129D01*
X093810Y030104D01*
X093810Y027063D01*
X090090Y023343D01*
X086910Y023343D01*
X086910Y023483D01*
X086841Y023648D01*
X086714Y023775D01*
X086549Y023843D01*
X085303Y023843D01*
X085303Y024061D01*
X085175Y024371D01*
X084937Y024609D01*
X084627Y024737D01*
X084292Y024737D01*
X083982Y024609D01*
X083744Y024371D01*
X083616Y024061D01*
X083616Y023843D01*
X078030Y023843D01*
X078030Y027387D01*
X077958Y027560D01*
X077826Y027692D01*
X077376Y028142D01*
X077203Y028213D01*
X076662Y028213D01*
X076651Y028239D01*
X076405Y028485D01*
X076272Y028540D01*
X079913Y028540D01*
X079744Y028371D01*
X079616Y028061D01*
X079616Y027725D01*
X079744Y027415D01*
X079982Y027178D01*
X080292Y027050D01*
X080627Y027050D01*
X080937Y027178D01*
X081175Y027415D01*
X081303Y027725D01*
X081303Y028061D01*
X081175Y028371D01*
X081006Y028540D01*
X087738Y028540D01*
X087752Y028525D01*
X087954Y028442D01*
X088172Y028442D01*
X088373Y028525D01*
X088527Y028680D01*
X088611Y028881D01*
X088611Y028945D01*
X088819Y028945D01*
X089020Y029029D01*
X089174Y029183D01*
X089258Y029384D01*
X089258Y029602D01*
X089174Y029804D01*
X089020Y029958D01*
X088819Y030041D01*
X088600Y030041D01*
X088399Y029958D01*
X088384Y029943D01*
X037570Y029943D01*
X037405Y029875D01*
X036129Y028599D01*
X036084Y028618D01*
X035735Y028618D01*
X035414Y028485D01*
X035168Y028239D01*
X035035Y027917D01*
X035035Y027569D01*
X035168Y027248D01*
X035414Y027002D01*
X035735Y026868D01*
X036084Y026868D01*
X036405Y027002D01*
X036651Y027248D01*
X036785Y027569D01*
X036785Y027917D01*
X036766Y027963D01*
X037846Y029043D01*
X059073Y029043D01*
X058629Y028599D01*
X058584Y028618D01*
X058235Y028618D01*
X057914Y028485D01*
X057668Y028239D01*
X057535Y027917D01*
X057535Y027569D01*
X057655Y027279D01*
X057499Y027343D01*
X055646Y027343D01*
X054914Y028075D01*
X054749Y028143D01*
X051027Y028143D01*
X050955Y028173D01*
X050764Y028173D01*
X050588Y028100D01*
X050453Y027965D01*
X050380Y027789D01*
X050380Y027598D01*
X050453Y027421D01*
X050531Y027343D01*
X050453Y027265D01*
X050380Y027089D01*
X050380Y026898D01*
X050453Y026721D01*
X050588Y026586D01*
X050764Y026513D01*
X050955Y026513D01*
X051027Y026543D01*
X054173Y026543D01*
X055205Y025512D01*
X055370Y025443D01*
X055749Y025443D01*
X055768Y025398D01*
X056014Y025152D01*
X056335Y025018D01*
X056684Y025018D01*
X056903Y025109D01*
X056689Y024895D01*
X056634Y024918D01*
X056285Y024918D01*
X055964Y024785D01*
X055718Y024539D01*
X055585Y024217D01*
X055585Y023869D01*
X055718Y023548D01*
X055964Y023302D01*
X056285Y023168D01*
X052162Y023168D01*
X052071Y023260D02*
X051988Y023294D01*
X052021Y023327D01*
X052021Y023327D01*
X052176Y023482D01*
X052260Y023684D01*
X052260Y023903D01*
X052176Y024105D01*
X052021Y024260D01*
X051819Y024343D01*
X051687Y024343D01*
X049976Y026055D01*
X049821Y026210D01*
X049619Y026293D01*
X048650Y026293D01*
X048448Y026210D01*
X048432Y026193D01*
X048420Y026193D01*
X048255Y026125D01*
X048128Y025998D01*
X048060Y025833D01*
X048060Y025654D01*
X048128Y025488D01*
X048255Y025362D01*
X048420Y025293D01*
X048432Y025293D01*
X048448Y025277D01*
X048650Y025193D01*
X049282Y025193D01*
X050432Y024043D01*
X046787Y024043D01*
X045371Y025460D01*
X045169Y025543D01*
X043750Y025543D01*
X043548Y025460D01*
X043393Y025305D01*
X043393Y025305D01*
X039732Y021643D01*
X033917Y021643D01*
X033940Y021698D01*
X033940Y021889D01*
X033866Y022065D01*
X033731Y022200D01*
X033555Y022273D01*
X033516Y022273D01*
X033410Y022380D01*
X033410Y023356D01*
X033464Y023302D01*
X033785Y023168D01*
X033410Y023168D01*
X033410Y023070D02*
X034747Y023070D01*
X034805Y023012D02*
X035110Y022707D01*
X035110Y022361D01*
X035080Y022289D01*
X035080Y022098D01*
X035153Y021921D01*
X035288Y021786D01*
X035464Y021713D01*
X035655Y021713D01*
X035831Y021786D01*
X035966Y021921D01*
X036040Y022098D01*
X036040Y022289D01*
X036010Y022361D01*
X036010Y022983D01*
X035941Y023148D01*
X035510Y023580D01*
X035510Y024857D01*
X035690Y025037D01*
X035735Y025018D01*
X036084Y025018D01*
X036405Y025152D01*
X036651Y025398D01*
X036785Y025719D01*
X036785Y026067D01*
X036651Y026389D01*
X036405Y026635D01*
X036084Y026768D01*
X035735Y026768D01*
X035414Y026635D01*
X035168Y026389D01*
X035035Y026067D01*
X035035Y025719D01*
X035053Y025674D01*
X034678Y025298D01*
X034610Y025133D01*
X034610Y024631D01*
X034455Y024785D01*
X034134Y024918D01*
X033785Y024918D01*
X033464Y024785D01*
X033410Y024731D01*
X033410Y025256D01*
X033514Y025152D01*
X033835Y025018D01*
X034184Y025018D01*
X034505Y025152D01*
X034751Y025398D01*
X034885Y025719D01*
X034885Y026067D01*
X034751Y026389D01*
X034505Y026635D01*
X034184Y026768D01*
X033835Y026768D01*
X033514Y026635D01*
X033268Y026389D01*
X033249Y026343D01*
X033170Y026343D01*
X033005Y026275D01*
X032705Y025975D01*
X032578Y025848D01*
X032510Y025683D01*
X032510Y022104D01*
X032578Y021938D01*
X032854Y021663D01*
X032745Y021554D01*
X032661Y021352D01*
X032661Y021134D01*
X032745Y020933D01*
X032899Y020779D01*
X033065Y020710D01*
X033148Y020627D01*
X033350Y020543D01*
X040032Y020543D01*
X037850Y020543D01*
X037648Y020460D01*
X037493Y020305D01*
X035233Y018045D01*
X035148Y018010D01*
X034993Y017855D01*
X034910Y017653D01*
X034910Y017434D01*
X034993Y017232D01*
X035148Y017077D01*
X035350Y016993D01*
X035619Y016993D01*
X035821Y017077D01*
X038187Y019443D01*
X040369Y019443D01*
X040571Y019527D01*
X043387Y022343D01*
X047701Y022343D01*
X047610Y022123D01*
X047610Y021864D01*
X047708Y021625D01*
X047891Y021442D01*
X048130Y021343D01*
X048389Y021343D01*
X048628Y021442D01*
X048811Y021625D01*
X048910Y021864D01*
X048910Y022123D01*
X048818Y022343D01*
X049760Y022343D01*
X049760Y022334D01*
X049843Y022132D01*
X049998Y021977D01*
X050200Y021893D01*
X050419Y021893D01*
X050621Y021977D01*
X050887Y022243D01*
X051532Y022243D01*
X051648Y022127D01*
X051850Y022043D01*
X052069Y022043D01*
X052271Y022127D01*
X052426Y022282D01*
X054893Y022282D01*
X055048Y022127D01*
X055250Y022043D01*
X055526Y022043D01*
X055510Y022003D01*
X055510Y021784D01*
X055593Y021582D01*
X055748Y021427D01*
X055950Y021343D01*
X068332Y021343D01*
X068849Y020826D01*
X068788Y020800D01*
X068781Y020793D01*
X068380Y020793D01*
X068233Y020732D01*
X068120Y020620D01*
X064894Y017393D01*
X056153Y017393D01*
X056175Y017415D01*
X056303Y017725D01*
X056303Y018061D01*
X056175Y018371D01*
X055937Y018609D01*
X055627Y018737D01*
X055292Y018737D01*
X054982Y018609D01*
X054744Y018371D01*
X054616Y018061D01*
X054616Y017725D01*
X054744Y017415D01*
X054766Y017393D01*
X053505Y017393D01*
X053505Y017441D01*
X053391Y017715D01*
X053182Y017925D01*
X052908Y018038D01*
X052611Y018038D01*
X052338Y017925D01*
X052128Y017715D01*
X052015Y017441D01*
X052015Y017393D01*
X045280Y017393D01*
X045133Y017332D01*
X045020Y017220D01*
X044220Y016420D01*
X044160Y016273D01*
X030939Y016273D01*
X030960Y016223D02*
X030861Y016462D01*
X030678Y016644D01*
X030439Y016743D01*
X030180Y016743D01*
X029941Y016644D01*
X029758Y016462D01*
X029660Y016223D01*
X029660Y015964D01*
X029758Y015725D01*
X029941Y015542D01*
X030180Y015443D01*
X030439Y015443D01*
X030678Y015542D01*
X030861Y015725D01*
X030960Y015964D01*
X030960Y016223D01*
X030960Y016175D02*
X044160Y016175D01*
X044160Y016273D02*
X044160Y012572D01*
X044153Y012565D01*
X044080Y012389D01*
X044080Y012198D01*
X044153Y012021D01*
X044288Y011886D01*
X044464Y011813D01*
X044655Y011813D01*
X044831Y011886D01*
X044966Y012021D01*
X045040Y012198D01*
X045040Y012389D01*
X044966Y012565D01*
X044960Y012572D01*
X044960Y016028D01*
X045525Y016593D01*
X051894Y016593D01*
X052120Y016367D01*
X052233Y016254D01*
X052380Y016193D01*
X053139Y016193D01*
X053286Y016254D01*
X053625Y016593D01*
X064794Y016593D01*
X063894Y015693D01*
X058075Y015693D01*
X058105Y015765D01*
X058105Y016022D01*
X058007Y016259D01*
X057825Y016440D01*
X057588Y016539D01*
X057331Y016539D01*
X057094Y016440D01*
X056912Y016259D01*
X056814Y016022D01*
X056814Y015765D01*
X056844Y015693D01*
X048180Y015693D01*
X048033Y015632D01*
X047925Y015524D01*
X047866Y015665D01*
X047731Y015800D01*
X047555Y015873D01*
X047364Y015873D01*
X047188Y015800D01*
X047053Y015665D01*
X046980Y015489D01*
X046980Y015298D01*
X046981Y015293D01*
X046280Y015293D01*
X046133Y015232D01*
X046020Y015120D01*
X045994Y015093D01*
X045738Y015093D01*
X045731Y015100D01*
X045555Y015173D01*
X045364Y015173D01*
X045188Y015100D01*
X045053Y014965D01*
X044980Y014789D01*
X044980Y014598D01*
X045053Y014421D01*
X045188Y014286D01*
X045364Y014213D01*
X045555Y014213D01*
X045731Y014286D01*
X045738Y014293D01*
X046239Y014293D01*
X046386Y014354D01*
X046525Y014493D01*
X047939Y014493D01*
X048086Y014554D01*
X048425Y014893D01*
X063594Y014893D01*
X060194Y011493D01*
X053780Y011493D01*
X053633Y011432D01*
X053520Y011320D01*
X053194Y010993D01*
X048738Y010993D01*
X048866Y011121D01*
X048940Y011298D01*
X048940Y011489D01*
X048866Y011665D01*
X048731Y011800D01*
X048555Y011873D01*
X048364Y011873D01*
X048188Y011800D01*
X048053Y011665D01*
X047980Y011489D01*
X047980Y011298D01*
X048053Y011121D01*
X048181Y010993D01*
X045996Y010993D01*
X045966Y011065D01*
X045831Y011200D01*
X045655Y011273D01*
X045464Y011273D01*
X045288Y011200D01*
X045153Y011065D01*
X045080Y010889D01*
X045080Y010698D01*
X045153Y010521D01*
X045288Y010386D01*
X045464Y010313D01*
X045474Y010313D01*
X045533Y010254D01*
X045680Y010193D01*
X047223Y010193D01*
X047180Y010089D01*
X047180Y009898D01*
X047253Y009721D01*
X047388Y009586D01*
X047564Y009513D01*
X047755Y009513D01*
X047931Y009586D01*
X048066Y009721D01*
X048140Y009898D01*
X048140Y010089D01*
X048096Y010193D01*
X053439Y010193D01*
X053586Y010254D01*
X054025Y010693D01*
X060439Y010693D01*
X060586Y010754D01*
X069010Y019178D01*
X069010Y016384D01*
X069093Y016182D01*
X071520Y013755D01*
X071388Y013700D01*
X071253Y013565D01*
X071180Y013389D01*
X071180Y013198D01*
X071253Y013021D01*
X071331Y012943D01*
X071253Y012865D01*
X071180Y012689D01*
X071180Y012498D01*
X071253Y012321D01*
X071331Y012243D01*
X071253Y012165D01*
X071180Y011989D01*
X071180Y011798D01*
X071253Y011621D01*
X071331Y011543D01*
X071253Y011465D01*
X071180Y011289D01*
X071180Y011098D01*
X071253Y010921D01*
X071388Y010786D01*
X071564Y010713D01*
X071755Y010713D01*
X071931Y010786D01*
X072066Y010921D01*
X072140Y011098D01*
X072140Y011289D01*
X072066Y011465D01*
X071988Y011543D01*
X072066Y011621D01*
X072140Y011798D01*
X072140Y011989D01*
X072066Y012165D01*
X071988Y012243D01*
X072066Y012321D01*
X072140Y012498D01*
X072140Y012689D01*
X072066Y012865D01*
X071988Y012943D01*
X072066Y013021D01*
X072121Y013154D01*
X072510Y012765D01*
X072510Y010684D01*
X072593Y010482D01*
X074193Y008882D01*
X074232Y008843D01*
X007910Y008843D01*
X007910Y008886D02*
X074189Y008886D01*
X074091Y008984D02*
X007910Y008984D01*
X007910Y009083D02*
X073992Y009083D01*
X073894Y009181D02*
X007910Y009181D01*
X007910Y009280D02*
X073795Y009280D01*
X073697Y009378D02*
X007910Y009378D01*
X007910Y009477D02*
X073598Y009477D01*
X073500Y009575D02*
X047905Y009575D01*
X048019Y009674D02*
X073401Y009674D01*
X073303Y009772D02*
X048088Y009772D01*
X048128Y009871D02*
X073204Y009871D01*
X073106Y009969D02*
X048140Y009969D01*
X048140Y010068D02*
X073007Y010068D01*
X072909Y010166D02*
X048107Y010166D01*
X047212Y010166D02*
X010689Y010166D01*
X010784Y010261D02*
X010919Y010496D01*
X010990Y010758D01*
X010990Y011029D01*
X010919Y011291D01*
X010784Y011526D01*
X010592Y011718D01*
X010357Y011853D01*
X010095Y011923D01*
X009824Y011923D01*
X009562Y011853D01*
X009327Y011718D01*
X009135Y011526D01*
X009000Y011291D01*
X008930Y011029D01*
X008930Y010758D01*
X009000Y010496D01*
X009135Y010261D01*
X009327Y010069D01*
X009562Y009934D01*
X009824Y009863D01*
X010095Y009863D01*
X010357Y009934D01*
X010592Y010069D01*
X010784Y010261D01*
X010786Y010265D02*
X045522Y010265D01*
X045343Y010363D02*
X010843Y010363D01*
X010900Y010462D02*
X045212Y010462D01*
X045136Y010560D02*
X029368Y010560D01*
X029431Y010586D02*
X029566Y010721D01*
X029640Y010898D01*
X029640Y011089D01*
X029566Y011265D01*
X029431Y011400D01*
X029255Y011473D01*
X029064Y011473D01*
X028888Y011400D01*
X028753Y011265D01*
X028680Y011089D01*
X028680Y010898D01*
X028753Y010721D01*
X028888Y010586D01*
X029064Y010513D01*
X029255Y010513D01*
X029431Y010586D01*
X029504Y010659D02*
X045096Y010659D01*
X045080Y010757D02*
X029581Y010757D01*
X029622Y010856D02*
X045080Y010856D01*
X045107Y010954D02*
X029640Y010954D01*
X029640Y011053D02*
X032069Y011053D01*
X031988Y011086D02*
X032164Y011013D01*
X032355Y011013D01*
X032531Y011086D01*
X032666Y011221D01*
X032740Y011398D01*
X032740Y011589D01*
X032666Y011765D01*
X032531Y011900D01*
X032355Y011973D01*
X032164Y011973D01*
X031988Y011900D01*
X031853Y011765D01*
X031780Y011589D01*
X031780Y011398D01*
X031853Y011221D01*
X031988Y011086D01*
X031923Y011151D02*
X029614Y011151D01*
X029573Y011250D02*
X031841Y011250D01*
X031800Y011348D02*
X029483Y011348D01*
X029319Y011447D02*
X031780Y011447D01*
X031780Y011545D02*
X026615Y011545D01*
X026691Y011621D02*
X026805Y011895D01*
X026805Y012191D01*
X026691Y012465D01*
X026482Y012675D01*
X026208Y012788D01*
X025911Y012788D01*
X025638Y012675D01*
X025428Y012465D01*
X025315Y012191D01*
X025315Y011895D01*
X025428Y011621D01*
X025638Y011412D01*
X025911Y011298D01*
X026208Y011298D01*
X026482Y011412D01*
X026691Y011621D01*
X026700Y011644D02*
X031802Y011644D01*
X031843Y011742D02*
X026741Y011742D01*
X026782Y011841D02*
X031928Y011841D01*
X032082Y011939D02*
X026805Y011939D01*
X026805Y012038D02*
X041225Y012038D01*
X041288Y012100D02*
X041153Y011965D01*
X041080Y011789D01*
X041080Y011598D01*
X041153Y011421D01*
X041288Y011286D01*
X041464Y011213D01*
X041655Y011213D01*
X041831Y011286D01*
X041966Y011421D01*
X042040Y011598D01*
X042040Y011789D01*
X041966Y011965D01*
X041831Y012100D01*
X041655Y012173D01*
X041464Y012173D01*
X041288Y012100D01*
X041375Y012136D02*
X026805Y012136D01*
X026787Y012235D02*
X044080Y012235D01*
X044080Y012333D02*
X026746Y012333D01*
X026705Y012432D02*
X044097Y012432D01*
X044138Y012530D02*
X026626Y012530D01*
X026528Y012629D02*
X044160Y012629D01*
X044160Y012727D02*
X026355Y012727D01*
X025764Y012727D02*
X007910Y012727D01*
X007910Y012629D02*
X025591Y012629D01*
X025493Y012530D02*
X007910Y012530D01*
X007910Y012432D02*
X025414Y012432D01*
X025373Y012333D02*
X007910Y012333D01*
X007910Y012235D02*
X025332Y012235D01*
X025315Y012136D02*
X007910Y012136D01*
X007910Y012038D02*
X025315Y012038D01*
X025315Y011939D02*
X007910Y011939D01*
X007910Y011841D02*
X009541Y011841D01*
X009370Y011742D02*
X007910Y011742D01*
X007910Y011644D02*
X009253Y011644D01*
X009155Y011545D02*
X007910Y011545D01*
X007910Y011447D02*
X009090Y011447D01*
X009033Y011348D02*
X007910Y011348D01*
X007910Y011250D02*
X008989Y011250D01*
X008962Y011151D02*
X007910Y011151D01*
X007910Y011053D02*
X008936Y011053D01*
X008930Y010954D02*
X007910Y010954D01*
X007910Y010856D02*
X008930Y010856D01*
X008930Y010757D02*
X007910Y010757D01*
X007910Y010659D02*
X008956Y010659D01*
X008982Y010560D02*
X007910Y010560D01*
X007910Y010462D02*
X009019Y010462D01*
X009076Y010363D02*
X007910Y010363D01*
X007910Y010265D02*
X009133Y010265D01*
X009230Y010166D02*
X007910Y010166D01*
X007910Y010068D02*
X009329Y010068D01*
X009500Y009969D02*
X007910Y009969D01*
X007910Y009871D02*
X009796Y009871D01*
X010123Y009871D02*
X047191Y009871D01*
X047180Y009969D02*
X010419Y009969D01*
X010590Y010068D02*
X047180Y010068D01*
X047232Y009772D02*
X007910Y009772D01*
X007910Y009674D02*
X047300Y009674D01*
X047414Y009575D02*
X007910Y009575D01*
X010937Y010560D02*
X028951Y010560D01*
X028815Y010659D02*
X010963Y010659D01*
X010989Y010757D02*
X028738Y010757D01*
X028697Y010856D02*
X010990Y010856D01*
X010990Y010954D02*
X028680Y010954D01*
X028680Y011053D02*
X010983Y011053D01*
X010957Y011151D02*
X028705Y011151D01*
X028746Y011250D02*
X010930Y011250D01*
X010886Y011348D02*
X025791Y011348D01*
X025602Y011447D02*
X010829Y011447D01*
X010764Y011545D02*
X025504Y011545D01*
X025419Y011644D02*
X010666Y011644D01*
X010549Y011742D02*
X025378Y011742D01*
X025337Y011841D02*
X010378Y011841D01*
X007910Y012826D02*
X044160Y012826D01*
X044160Y012924D02*
X007910Y012924D01*
X007910Y013023D02*
X044160Y013023D01*
X044160Y013121D02*
X029974Y013121D01*
X029955Y013113D02*
X030131Y013186D01*
X030266Y013321D01*
X030340Y013498D01*
X030340Y013689D01*
X030266Y013865D01*
X030131Y014000D01*
X029955Y014073D01*
X029764Y014073D01*
X029588Y014000D01*
X029453Y013865D01*
X029380Y013689D01*
X029380Y013498D01*
X029453Y013321D01*
X029588Y013186D01*
X029764Y013113D01*
X029955Y013113D01*
X029745Y013121D02*
X007910Y013121D01*
X007910Y013220D02*
X029554Y013220D01*
X029456Y013318D02*
X007910Y013318D01*
X007910Y013417D02*
X029413Y013417D01*
X029380Y013515D02*
X007910Y013515D01*
X007910Y013614D02*
X029380Y013614D01*
X029389Y013712D02*
X007910Y013712D01*
X007910Y013811D02*
X029430Y013811D01*
X029497Y013909D02*
X007910Y013909D01*
X007910Y014008D02*
X029606Y014008D01*
X030113Y014008D02*
X042166Y014008D01*
X042153Y014021D02*
X042288Y013886D01*
X042464Y013813D01*
X042655Y013813D01*
X042831Y013886D01*
X042966Y014021D01*
X043040Y014198D01*
X043040Y014389D01*
X042966Y014565D01*
X042831Y014700D01*
X042655Y014773D01*
X042464Y014773D01*
X042288Y014700D01*
X042153Y014565D01*
X042080Y014389D01*
X042080Y014198D01*
X042153Y014021D01*
X042117Y014106D02*
X007910Y014106D01*
X007910Y014205D02*
X042080Y014205D01*
X042080Y014303D02*
X007910Y014303D01*
X007910Y014402D02*
X042085Y014402D01*
X042126Y014500D02*
X007910Y014500D01*
X007910Y014599D02*
X042186Y014599D01*
X042285Y014697D02*
X007910Y014697D01*
X007910Y014796D02*
X044160Y014796D01*
X044160Y014894D02*
X007910Y014894D01*
X007910Y014993D02*
X044160Y014993D01*
X044160Y015091D02*
X007910Y015091D01*
X007910Y015190D02*
X044160Y015190D01*
X044160Y015288D02*
X007910Y015288D01*
X007910Y015387D02*
X044160Y015387D01*
X044160Y015485D02*
X030540Y015485D01*
X030719Y015584D02*
X044160Y015584D01*
X044160Y015682D02*
X030818Y015682D01*
X030884Y015781D02*
X044160Y015781D01*
X044160Y015879D02*
X030924Y015879D01*
X030960Y015978D02*
X044160Y015978D01*
X044160Y016076D02*
X030960Y016076D01*
X030898Y016372D02*
X044201Y016372D01*
X044271Y016470D02*
X030852Y016470D01*
X030753Y016569D02*
X044369Y016569D01*
X044468Y016667D02*
X030622Y016667D01*
X029997Y016667D02*
X007910Y016667D01*
X007910Y016569D02*
X029866Y016569D01*
X029767Y016470D02*
X007910Y016470D01*
X007910Y016372D02*
X029721Y016372D01*
X029681Y016273D02*
X007910Y016273D01*
X007910Y016175D02*
X029660Y016175D01*
X029660Y016076D02*
X007910Y016076D01*
X007910Y015978D02*
X029660Y015978D01*
X029695Y015879D02*
X007910Y015879D01*
X007910Y015781D02*
X029735Y015781D01*
X029801Y015682D02*
X007910Y015682D01*
X007910Y015584D02*
X029900Y015584D01*
X030079Y015485D02*
X007910Y015485D01*
X007910Y016766D02*
X044566Y016766D01*
X044665Y016864D02*
X007910Y016864D01*
X007910Y016963D02*
X044763Y016963D01*
X044862Y017061D02*
X035783Y017061D01*
X035904Y017160D02*
X044960Y017160D01*
X045059Y017258D02*
X036002Y017258D01*
X036101Y017357D02*
X045192Y017357D01*
X045360Y016993D02*
X052060Y016993D01*
X052460Y016593D01*
X053060Y016593D01*
X053460Y016993D01*
X065060Y016993D01*
X068460Y020393D01*
X069060Y020393D01*
X068798Y020804D02*
X041848Y020804D01*
X041750Y020706D02*
X068206Y020706D01*
X068108Y020607D02*
X041651Y020607D01*
X041553Y020509D02*
X068009Y020509D01*
X067911Y020410D02*
X041454Y020410D01*
X041356Y020312D02*
X067812Y020312D01*
X067714Y020213D02*
X041257Y020213D01*
X041159Y020115D02*
X067615Y020115D01*
X067517Y020016D02*
X041060Y020016D01*
X040962Y019918D02*
X067418Y019918D01*
X067320Y019819D02*
X040863Y019819D01*
X040765Y019721D02*
X067221Y019721D01*
X067123Y019622D02*
X040666Y019622D01*
X040563Y019524D02*
X067024Y019524D01*
X066926Y019425D02*
X038169Y019425D01*
X038071Y019327D02*
X066827Y019327D01*
X066729Y019228D02*
X037972Y019228D01*
X037874Y019130D02*
X066630Y019130D01*
X066532Y019031D02*
X037775Y019031D01*
X037677Y018933D02*
X066433Y018933D01*
X066335Y018834D02*
X037578Y018834D01*
X037480Y018736D02*
X055289Y018736D01*
X055051Y018637D02*
X037381Y018637D01*
X037283Y018539D02*
X054912Y018539D01*
X054813Y018440D02*
X037184Y018440D01*
X037086Y018342D02*
X054732Y018342D01*
X054691Y018243D02*
X036987Y018243D01*
X036889Y018145D02*
X054650Y018145D01*
X054616Y018046D02*
X036790Y018046D01*
X036692Y017948D02*
X052393Y017948D01*
X052262Y017849D02*
X036593Y017849D01*
X036495Y017751D02*
X052163Y017751D01*
X052102Y017652D02*
X036396Y017652D01*
X036298Y017554D02*
X052061Y017554D01*
X052020Y017455D02*
X036199Y017455D01*
X035186Y017061D02*
X007910Y017061D01*
X007910Y017160D02*
X035065Y017160D01*
X034982Y017258D02*
X007910Y017258D01*
X007910Y017357D02*
X034941Y017357D01*
X034910Y017455D02*
X007910Y017455D01*
X007910Y017554D02*
X034910Y017554D01*
X034910Y017652D02*
X007910Y017652D01*
X007910Y017751D02*
X034950Y017751D01*
X034991Y017849D02*
X007910Y017849D01*
X007910Y017948D02*
X035086Y017948D01*
X035235Y018046D02*
X007910Y018046D01*
X007910Y018145D02*
X035333Y018145D01*
X035432Y018243D02*
X007910Y018243D01*
X007910Y018342D02*
X035530Y018342D01*
X035629Y018440D02*
X007910Y018440D01*
X007910Y018539D02*
X035727Y018539D01*
X035826Y018637D02*
X007910Y018637D01*
X007910Y018736D02*
X035924Y018736D01*
X036023Y018834D02*
X007910Y018834D01*
X007910Y018933D02*
X036121Y018933D01*
X036220Y019031D02*
X007910Y019031D01*
X007910Y019130D02*
X036318Y019130D01*
X036417Y019228D02*
X007910Y019228D01*
X007910Y019327D02*
X036515Y019327D01*
X036614Y019425D02*
X007910Y019425D01*
X007910Y019524D02*
X036712Y019524D01*
X036811Y019622D02*
X007910Y019622D01*
X007910Y019721D02*
X036909Y019721D01*
X037008Y019819D02*
X007910Y019819D01*
X007910Y019918D02*
X037106Y019918D01*
X037205Y020016D02*
X007910Y020016D01*
X007910Y020115D02*
X037303Y020115D01*
X037402Y020213D02*
X007910Y020213D01*
X007910Y020312D02*
X037500Y020312D01*
X037599Y020410D02*
X007910Y020410D01*
X007910Y020509D02*
X037767Y020509D01*
X040032Y020543D02*
X040032Y020543D01*
X041947Y020903D02*
X068772Y020903D01*
X068674Y021001D02*
X042045Y021001D01*
X042144Y021100D02*
X068575Y021100D01*
X068477Y021198D02*
X042242Y021198D01*
X042341Y021297D02*
X068378Y021297D01*
X069949Y022282D02*
X070480Y022282D01*
X070480Y022198D02*
X070553Y022021D01*
X070631Y021943D01*
X070553Y021865D01*
X070498Y021733D01*
X069171Y023060D01*
X068969Y023143D01*
X067354Y023143D01*
X067437Y023178D01*
X067675Y023415D01*
X067803Y023725D01*
X067803Y024061D01*
X067675Y024371D01*
X067437Y024609D01*
X067127Y024737D01*
X066792Y024737D01*
X066482Y024609D01*
X066244Y024371D01*
X066116Y024061D01*
X066116Y023725D01*
X066244Y023415D01*
X066482Y023178D01*
X066565Y023143D01*
X055250Y023143D01*
X055048Y023060D01*
X054893Y022905D01*
X054810Y022703D01*
X054810Y022484D01*
X054893Y022282D01*
X054852Y022380D02*
X052467Y022380D01*
X052426Y022282D02*
X052510Y022484D01*
X052510Y022703D01*
X052426Y022905D01*
X052071Y023260D01*
X052054Y023267D02*
X056048Y023267D01*
X055900Y023365D02*
X052059Y023365D01*
X052158Y023464D02*
X055802Y023464D01*
X055712Y023562D02*
X052209Y023562D01*
X052250Y023661D02*
X055671Y023661D01*
X055630Y023759D02*
X052260Y023759D01*
X052260Y023858D02*
X055589Y023858D01*
X055585Y023956D02*
X052237Y023956D01*
X052196Y024055D02*
X055585Y024055D01*
X055585Y024153D02*
X052127Y024153D01*
X052029Y024252D02*
X055599Y024252D01*
X055640Y024350D02*
X051680Y024350D01*
X051582Y024449D02*
X055680Y024449D01*
X055726Y024547D02*
X051483Y024547D01*
X051385Y024646D02*
X055825Y024646D01*
X055923Y024744D02*
X051286Y024744D01*
X051188Y024843D02*
X056103Y024843D01*
X056283Y025040D02*
X050991Y025040D01*
X051089Y024941D02*
X056735Y024941D01*
X056736Y025040D02*
X056834Y025040D01*
X056046Y025138D02*
X050892Y025138D01*
X050794Y025237D02*
X055929Y025237D01*
X055830Y025335D02*
X050695Y025335D01*
X050597Y025434D02*
X055753Y025434D01*
X055184Y025532D02*
X050498Y025532D01*
X050400Y025631D02*
X055086Y025631D01*
X054987Y025729D02*
X050301Y025729D01*
X050203Y025828D02*
X054889Y025828D01*
X054790Y025926D02*
X050104Y025926D01*
X050006Y026025D02*
X054692Y026025D01*
X054593Y026123D02*
X049907Y026123D01*
X049791Y026222D02*
X054495Y026222D01*
X054396Y026320D02*
X042945Y026320D01*
X043007Y026259D02*
X042825Y026440D01*
X042588Y026539D01*
X042331Y026539D01*
X042094Y026440D01*
X041912Y026259D01*
X041814Y026022D01*
X041814Y025765D01*
X041912Y025528D01*
X042094Y025346D01*
X042331Y025248D01*
X042588Y025248D01*
X042825Y025346D01*
X043007Y025528D01*
X043105Y025765D01*
X043105Y026022D01*
X043007Y026259D01*
X043022Y026222D02*
X048478Y026222D01*
X048253Y026123D02*
X043063Y026123D01*
X043103Y026025D02*
X048155Y026025D01*
X048098Y025926D02*
X043105Y025926D01*
X043105Y025828D02*
X048060Y025828D01*
X048060Y025729D02*
X043090Y025729D01*
X043049Y025631D02*
X048069Y025631D01*
X048110Y025532D02*
X045195Y025532D01*
X045397Y025434D02*
X048183Y025434D01*
X048319Y025335D02*
X045495Y025335D01*
X045594Y025237D02*
X048545Y025237D01*
X049337Y025138D02*
X045692Y025138D01*
X045791Y025040D02*
X049435Y025040D01*
X049534Y024941D02*
X045889Y024941D01*
X045988Y024843D02*
X049632Y024843D01*
X049731Y024744D02*
X046086Y024744D01*
X046185Y024646D02*
X049829Y024646D01*
X049928Y024547D02*
X046283Y024547D01*
X046382Y024449D02*
X050026Y024449D01*
X050125Y024350D02*
X046480Y024350D01*
X046579Y024252D02*
X050223Y024252D01*
X050322Y024153D02*
X046677Y024153D01*
X046776Y024055D02*
X050420Y024055D01*
X052261Y023070D02*
X055073Y023070D01*
X054960Y022971D02*
X052359Y022971D01*
X052439Y022873D02*
X054880Y022873D01*
X054839Y022774D02*
X052480Y022774D01*
X052510Y022676D02*
X054810Y022676D01*
X054810Y022577D02*
X052510Y022577D01*
X052507Y022479D02*
X054812Y022479D01*
X054992Y022183D02*
X052327Y022183D01*
X052169Y022085D02*
X055150Y022085D01*
X055510Y021986D02*
X050630Y021986D01*
X050729Y022085D02*
X051750Y022085D01*
X051592Y022183D02*
X050827Y022183D01*
X049989Y021986D02*
X048910Y021986D01*
X048910Y021888D02*
X055510Y021888D01*
X055510Y021789D02*
X048879Y021789D01*
X048838Y021691D02*
X055548Y021691D01*
X055589Y021592D02*
X048778Y021592D01*
X048679Y021494D02*
X055681Y021494D01*
X055824Y021395D02*
X048514Y021395D01*
X048005Y021395D02*
X042439Y021395D01*
X042538Y021494D02*
X047840Y021494D01*
X047741Y021592D02*
X042636Y021592D01*
X042735Y021691D02*
X047681Y021691D01*
X047640Y021789D02*
X042833Y021789D01*
X042932Y021888D02*
X047610Y021888D01*
X047610Y021986D02*
X043030Y021986D01*
X043129Y022085D02*
X047610Y022085D01*
X047635Y022183D02*
X043227Y022183D01*
X043326Y022282D02*
X047675Y022282D01*
X048844Y022282D02*
X049781Y022282D01*
X049822Y022183D02*
X048884Y022183D01*
X048910Y022085D02*
X049890Y022085D01*
X056285Y023168D02*
X056634Y023168D01*
X066505Y023168D01*
X066393Y023267D02*
X056871Y023267D01*
X056955Y023302D02*
X057201Y023548D01*
X057335Y023869D01*
X057335Y024217D01*
X057311Y024273D01*
X057592Y024553D01*
X064147Y024553D01*
X064309Y024620D01*
X064936Y025248D01*
X065088Y025248D01*
X065325Y025346D01*
X065507Y025528D01*
X065605Y025765D01*
X065605Y026022D01*
X065507Y026259D01*
X065325Y026440D01*
X065088Y026539D01*
X064831Y026539D01*
X064594Y026440D01*
X064412Y026259D01*
X064314Y026022D01*
X064314Y025870D01*
X063877Y025433D01*
X059166Y025433D01*
X059285Y025719D01*
X059285Y026067D01*
X059151Y026389D01*
X058905Y026635D01*
X058584Y026768D01*
X058235Y026768D01*
X058190Y026749D01*
X057955Y026985D01*
X058235Y026868D01*
X058584Y026868D01*
X058905Y027002D01*
X059151Y027248D01*
X059285Y027569D01*
X059285Y027917D01*
X059266Y027963D01*
X059843Y028540D01*
X062413Y028540D01*
X062244Y028371D01*
X062116Y028061D01*
X062116Y027725D01*
X062244Y027415D01*
X062482Y027178D01*
X062792Y027050D01*
X063127Y027050D01*
X063437Y027178D01*
X063675Y027415D01*
X063803Y027725D01*
X063803Y028061D01*
X063675Y028371D01*
X063506Y028540D01*
X075547Y028540D01*
X075414Y028485D01*
X075168Y028239D01*
X075035Y027917D01*
X075035Y027569D01*
X075168Y027248D01*
X075414Y027002D01*
X075735Y026868D01*
X076084Y026868D01*
X076405Y027002D01*
X076651Y027248D01*
X076662Y027273D01*
X076915Y027273D01*
X077090Y027099D01*
X077090Y023843D01*
X076774Y023843D01*
X076785Y023869D01*
X076785Y024217D01*
X076651Y024539D01*
X076405Y024785D01*
X076084Y024918D01*
X075735Y024918D01*
X075414Y024785D01*
X075168Y024539D01*
X075035Y024217D01*
X075035Y023869D01*
X075045Y023843D01*
X074824Y023843D01*
X074835Y023869D01*
X074835Y024217D01*
X074701Y024539D01*
X074455Y024785D01*
X074134Y024918D01*
X073785Y024918D01*
X073464Y024785D01*
X073218Y024539D01*
X073085Y024217D01*
X073085Y023869D01*
X073095Y023843D01*
X072370Y023843D01*
X072205Y023775D01*
X072078Y023648D01*
X071440Y023010D01*
X071440Y023089D01*
X071366Y023265D01*
X071288Y023343D01*
X071366Y023421D01*
X071440Y023598D01*
X071440Y023789D01*
X071366Y023965D01*
X071231Y024100D01*
X071055Y024173D01*
X070864Y024173D01*
X070688Y024100D01*
X070553Y023965D01*
X070480Y023789D01*
X070480Y023598D01*
X070553Y023421D01*
X070631Y023343D01*
X070553Y023265D01*
X070480Y023089D01*
X070480Y022898D01*
X070553Y022721D01*
X070631Y022643D01*
X070553Y022565D01*
X070480Y022389D01*
X070480Y022198D01*
X070486Y022183D02*
X070047Y022183D01*
X070146Y022085D02*
X070526Y022085D01*
X070588Y021986D02*
X070244Y021986D01*
X070343Y021888D02*
X070575Y021888D01*
X070521Y021789D02*
X070441Y021789D01*
X070480Y022380D02*
X069850Y022380D01*
X069752Y022479D02*
X070517Y022479D01*
X070565Y022577D02*
X069653Y022577D01*
X069555Y022676D02*
X070598Y022676D01*
X070531Y022774D02*
X069456Y022774D01*
X069358Y022873D02*
X070490Y022873D01*
X070480Y022971D02*
X069259Y022971D01*
X069146Y023070D02*
X070480Y023070D01*
X070512Y023168D02*
X067414Y023168D01*
X067526Y023267D02*
X070554Y023267D01*
X070609Y023365D02*
X067625Y023365D01*
X067695Y023464D02*
X070535Y023464D01*
X070494Y023562D02*
X067736Y023562D01*
X067776Y023661D02*
X070480Y023661D01*
X070480Y023759D02*
X067803Y023759D01*
X067803Y023858D02*
X070508Y023858D01*
X070549Y023956D02*
X067803Y023956D01*
X067803Y024055D02*
X070642Y024055D01*
X070816Y024153D02*
X067765Y024153D01*
X067724Y024252D02*
X073099Y024252D01*
X073085Y024153D02*
X071103Y024153D01*
X071277Y024055D02*
X073085Y024055D01*
X073085Y023956D02*
X071370Y023956D01*
X071411Y023858D02*
X073089Y023858D01*
X073140Y024350D02*
X067683Y024350D01*
X067597Y024449D02*
X073180Y024449D01*
X073226Y024547D02*
X067499Y024547D01*
X067347Y024646D02*
X073325Y024646D01*
X073423Y024744D02*
X064433Y024744D01*
X064334Y024646D02*
X066572Y024646D01*
X066420Y024547D02*
X057586Y024547D01*
X057487Y024449D02*
X066322Y024449D01*
X066236Y024350D02*
X057389Y024350D01*
X057320Y024252D02*
X066195Y024252D01*
X066154Y024153D02*
X057335Y024153D01*
X057335Y024055D02*
X066116Y024055D01*
X066116Y023956D02*
X057335Y023956D01*
X057330Y023858D02*
X066116Y023858D01*
X066116Y023759D02*
X057289Y023759D01*
X057248Y023661D02*
X066143Y023661D01*
X066183Y023562D02*
X057207Y023562D01*
X057117Y023464D02*
X066224Y023464D01*
X066294Y023365D02*
X057019Y023365D01*
X056955Y023302D02*
X056634Y023168D01*
X059166Y025434D02*
X063878Y025434D01*
X063976Y025532D02*
X059207Y025532D01*
X059248Y025631D02*
X064075Y025631D01*
X064173Y025729D02*
X059285Y025729D01*
X059285Y025828D02*
X064272Y025828D01*
X064314Y025926D02*
X059285Y025926D01*
X059285Y026025D02*
X064316Y026025D01*
X064356Y026123D02*
X059261Y026123D01*
X059221Y026222D02*
X064397Y026222D01*
X064474Y026320D02*
X059180Y026320D01*
X059121Y026419D02*
X064573Y026419D01*
X064780Y026517D02*
X059023Y026517D01*
X058924Y026616D02*
X073495Y026616D01*
X073514Y026635D02*
X073268Y026389D01*
X073135Y026067D01*
X073135Y025719D01*
X073268Y025398D01*
X073514Y025152D01*
X073835Y025018D01*
X074184Y025018D01*
X074505Y025152D01*
X074751Y025398D01*
X074885Y025719D01*
X074885Y026067D01*
X074751Y026389D01*
X074505Y026635D01*
X074184Y026768D01*
X073835Y026768D01*
X073514Y026635D01*
X073396Y026517D02*
X065139Y026517D01*
X065347Y026419D02*
X073298Y026419D01*
X073239Y026320D02*
X065445Y026320D01*
X065522Y026222D02*
X073199Y026222D01*
X073158Y026123D02*
X065563Y026123D01*
X065603Y026025D02*
X073135Y026025D01*
X073135Y025926D02*
X065605Y025926D01*
X065605Y025828D02*
X073135Y025828D01*
X073135Y025729D02*
X065590Y025729D01*
X065549Y025631D02*
X073171Y025631D01*
X073212Y025532D02*
X065508Y025532D01*
X065413Y025434D02*
X073253Y025434D01*
X073330Y025335D02*
X065299Y025335D01*
X064925Y025237D02*
X073429Y025237D01*
X073546Y025138D02*
X064827Y025138D01*
X064728Y025040D02*
X073783Y025040D01*
X073603Y024843D02*
X064531Y024843D01*
X064630Y024941D02*
X077090Y024941D01*
X077090Y024843D02*
X076266Y024843D01*
X076446Y024744D02*
X077090Y024744D01*
X077090Y024646D02*
X076544Y024646D01*
X076643Y024547D02*
X077090Y024547D01*
X077090Y024449D02*
X076689Y024449D01*
X076729Y024350D02*
X077090Y024350D01*
X077090Y024252D02*
X076770Y024252D01*
X076785Y024153D02*
X077090Y024153D01*
X077090Y024055D02*
X076785Y024055D01*
X076785Y023956D02*
X077090Y023956D01*
X077090Y023858D02*
X076780Y023858D01*
X078030Y023858D02*
X083616Y023858D01*
X083616Y023956D02*
X078030Y023956D01*
X078030Y024055D02*
X083616Y024055D01*
X083654Y024153D02*
X078030Y024153D01*
X078030Y024252D02*
X083695Y024252D01*
X083736Y024350D02*
X078030Y024350D01*
X078030Y024449D02*
X083822Y024449D01*
X083920Y024547D02*
X078030Y024547D01*
X078030Y024646D02*
X084072Y024646D01*
X084847Y024646D02*
X091393Y024646D01*
X091491Y024744D02*
X078030Y024744D01*
X078030Y024843D02*
X091590Y024843D01*
X091688Y024941D02*
X078030Y024941D01*
X078030Y025040D02*
X091787Y025040D01*
X091885Y025138D02*
X078030Y025138D01*
X078030Y025237D02*
X091984Y025237D01*
X092082Y025335D02*
X082799Y025335D01*
X082825Y025346D02*
X083007Y025528D01*
X083105Y025765D01*
X083105Y026022D01*
X083007Y026259D01*
X082825Y026440D01*
X082588Y026539D01*
X082331Y026539D01*
X082094Y026440D01*
X081912Y026259D01*
X081814Y026022D01*
X081814Y025765D01*
X081912Y025528D01*
X082094Y025346D01*
X082331Y025248D01*
X082588Y025248D01*
X082825Y025346D01*
X082913Y025434D02*
X092181Y025434D01*
X092279Y025532D02*
X083008Y025532D01*
X083049Y025631D02*
X092378Y025631D01*
X092476Y025729D02*
X083090Y025729D01*
X083105Y025828D02*
X092575Y025828D01*
X092673Y025926D02*
X083105Y025926D01*
X083103Y026025D02*
X092772Y026025D01*
X092870Y026123D02*
X083063Y026123D01*
X083022Y026222D02*
X092969Y026222D01*
X093067Y026320D02*
X082945Y026320D01*
X082847Y026419D02*
X093166Y026419D01*
X093264Y026517D02*
X082639Y026517D01*
X082280Y026517D02*
X078030Y026517D01*
X078030Y026419D02*
X082073Y026419D01*
X081974Y026320D02*
X078030Y026320D01*
X078030Y026222D02*
X081897Y026222D01*
X081856Y026123D02*
X078030Y026123D01*
X078030Y026025D02*
X081816Y026025D01*
X081814Y025926D02*
X078030Y025926D01*
X078030Y025828D02*
X081814Y025828D01*
X081829Y025729D02*
X078030Y025729D01*
X078030Y025631D02*
X081870Y025631D01*
X081911Y025532D02*
X078030Y025532D01*
X078030Y025434D02*
X082006Y025434D01*
X082120Y025335D02*
X078030Y025335D01*
X077090Y025335D02*
X076589Y025335D01*
X076651Y025398D02*
X076785Y025719D01*
X076785Y026067D01*
X076651Y026389D01*
X076405Y026635D01*
X076084Y026768D01*
X075735Y026768D01*
X075414Y026635D01*
X075168Y026389D01*
X075035Y026067D01*
X075035Y025719D01*
X075168Y025398D01*
X075414Y025152D01*
X075735Y025018D01*
X076084Y025018D01*
X076405Y025152D01*
X076651Y025398D01*
X076666Y025434D02*
X077090Y025434D01*
X077090Y025532D02*
X076707Y025532D01*
X076748Y025631D02*
X077090Y025631D01*
X077090Y025729D02*
X076785Y025729D01*
X076785Y025828D02*
X077090Y025828D01*
X077090Y025926D02*
X076785Y025926D01*
X076785Y026025D02*
X077090Y026025D01*
X077090Y026123D02*
X076761Y026123D01*
X076721Y026222D02*
X077090Y026222D01*
X077090Y026320D02*
X076680Y026320D01*
X076621Y026419D02*
X077090Y026419D01*
X077090Y026517D02*
X076523Y026517D01*
X076424Y026616D02*
X077090Y026616D01*
X077090Y026714D02*
X076214Y026714D01*
X076187Y026911D02*
X077090Y026911D01*
X077090Y026813D02*
X058126Y026813D01*
X058132Y026911D02*
X058028Y026911D01*
X057644Y027305D02*
X057591Y027305D01*
X057603Y027404D02*
X055585Y027404D01*
X055487Y027502D02*
X057562Y027502D01*
X057535Y027601D02*
X055388Y027601D01*
X055290Y027699D02*
X057535Y027699D01*
X057535Y027798D02*
X055191Y027798D01*
X055093Y027896D02*
X057535Y027896D01*
X057567Y027995D02*
X054994Y027995D01*
X054870Y028093D02*
X057607Y028093D01*
X057648Y028192D02*
X041249Y028192D01*
X041208Y028290D02*
X057719Y028290D01*
X057818Y028389D02*
X041157Y028389D01*
X041175Y028371D02*
X040937Y028609D01*
X040627Y028737D01*
X040292Y028737D01*
X039982Y028609D01*
X039744Y028371D01*
X039616Y028061D01*
X039616Y027725D01*
X039744Y027415D01*
X039982Y027178D01*
X040292Y027050D01*
X040627Y027050D01*
X040937Y027178D01*
X041175Y027415D01*
X041303Y027725D01*
X041303Y028061D01*
X041175Y028371D01*
X041059Y028487D02*
X057919Y028487D01*
X058157Y028586D02*
X040960Y028586D01*
X040754Y028684D02*
X058714Y028684D01*
X058813Y028783D02*
X037585Y028783D01*
X037487Y028684D02*
X040165Y028684D01*
X039959Y028586D02*
X037388Y028586D01*
X037290Y028487D02*
X039860Y028487D01*
X039762Y028389D02*
X037191Y028389D01*
X037093Y028290D02*
X039711Y028290D01*
X039670Y028192D02*
X036994Y028192D01*
X036896Y028093D02*
X039629Y028093D01*
X039616Y027995D02*
X036797Y027995D01*
X036785Y027896D02*
X039616Y027896D01*
X039616Y027798D02*
X036785Y027798D01*
X036785Y027699D02*
X039627Y027699D01*
X039667Y027601D02*
X036785Y027601D01*
X036757Y027502D02*
X039708Y027502D01*
X039756Y027404D02*
X036716Y027404D01*
X036675Y027305D02*
X039854Y027305D01*
X039953Y027207D02*
X036610Y027207D01*
X036512Y027108D02*
X040150Y027108D01*
X040769Y027108D02*
X050388Y027108D01*
X050380Y027010D02*
X036413Y027010D01*
X036187Y026911D02*
X050380Y026911D01*
X050415Y026813D02*
X007910Y026813D01*
X007910Y026911D02*
X018132Y026911D01*
X018235Y026868D02*
X018584Y026868D01*
X018905Y027002D01*
X019151Y027248D01*
X019285Y027569D01*
X019285Y027917D01*
X019151Y028239D01*
X018905Y028485D01*
X018584Y028618D01*
X018235Y028618D01*
X017914Y028485D01*
X017668Y028239D01*
X017535Y027917D01*
X017535Y027569D01*
X017668Y027248D01*
X017914Y027002D01*
X018235Y026868D01*
X018235Y026768D02*
X017914Y026635D01*
X017668Y026389D01*
X017535Y026067D01*
X017535Y025719D01*
X017668Y025398D01*
X017914Y025152D01*
X018235Y025018D01*
X018584Y025018D01*
X018905Y025152D01*
X019151Y025398D01*
X019285Y025719D01*
X019285Y026067D01*
X019151Y026389D01*
X018905Y026635D01*
X018584Y026768D01*
X018235Y026768D01*
X018105Y026714D02*
X016814Y026714D01*
X016684Y026768D02*
X017005Y026635D01*
X017251Y026389D01*
X017385Y026067D01*
X017385Y025719D01*
X017345Y025624D01*
X017749Y025220D01*
X017810Y025073D01*
X017810Y024914D01*
X017749Y024767D01*
X017636Y024654D01*
X017489Y024593D01*
X017330Y024593D01*
X017183Y024654D01*
X016779Y025058D01*
X016684Y025018D01*
X016335Y025018D01*
X016014Y025152D01*
X015768Y025398D01*
X015635Y025719D01*
X015635Y026067D01*
X015768Y026389D01*
X016014Y026635D01*
X016335Y026768D01*
X016684Y026768D01*
X017024Y026616D02*
X017895Y026616D01*
X017796Y026517D02*
X017123Y026517D01*
X017221Y026419D02*
X017698Y026419D01*
X017639Y026320D02*
X017280Y026320D01*
X017321Y026222D02*
X017599Y026222D01*
X017558Y026123D02*
X017361Y026123D01*
X017385Y026025D02*
X017535Y026025D01*
X017535Y025926D02*
X017385Y025926D01*
X017385Y025828D02*
X017535Y025828D01*
X017535Y025729D02*
X017385Y025729D01*
X017348Y025631D02*
X017571Y025631D01*
X017612Y025532D02*
X017436Y025532D01*
X017535Y025434D02*
X017653Y025434D01*
X017633Y025335D02*
X017730Y025335D01*
X017732Y025237D02*
X017829Y025237D01*
X017782Y025138D02*
X017946Y025138D01*
X017810Y025040D02*
X018183Y025040D01*
X018235Y024918D02*
X017914Y024785D01*
X017668Y024539D01*
X017535Y024217D01*
X017535Y023869D01*
X017668Y023548D01*
X017914Y023302D01*
X018235Y023168D01*
X017840Y023168D01*
X017840Y023189D02*
X017766Y023365D01*
X017850Y023365D01*
X017766Y023365D02*
X017631Y023500D01*
X017455Y023573D01*
X017264Y023573D01*
X017201Y023547D01*
X017201Y023548D01*
X017335Y023869D01*
X017335Y024217D01*
X017201Y024539D01*
X016955Y024785D01*
X016634Y024918D01*
X016285Y024918D01*
X015964Y024785D01*
X015718Y024539D01*
X015585Y024217D01*
X015585Y023869D01*
X015718Y023548D01*
X015964Y023302D01*
X016285Y023168D01*
X007910Y023168D01*
X007910Y023070D02*
X016880Y023070D01*
X016880Y022998D02*
X016953Y022821D01*
X017088Y022686D01*
X017264Y022613D01*
X017455Y022613D01*
X017631Y022686D01*
X017766Y022821D01*
X017840Y022998D01*
X017840Y023189D01*
X017807Y023267D02*
X017998Y023267D01*
X017840Y023070D02*
X026743Y023070D01*
X026792Y023050D02*
X027127Y023050D01*
X027437Y023178D01*
X027675Y023415D01*
X027803Y023725D01*
X027803Y024061D01*
X027675Y024371D01*
X027437Y024609D01*
X027127Y024737D01*
X026792Y024737D01*
X026482Y024609D01*
X026244Y024371D01*
X026116Y024061D01*
X026116Y023725D01*
X026244Y023415D01*
X026482Y023178D01*
X026792Y023050D01*
X026505Y023168D02*
X018584Y023168D01*
X018905Y023302D01*
X019151Y023548D01*
X019285Y023869D01*
X019285Y024217D01*
X019151Y024539D01*
X018905Y024785D01*
X018584Y024918D01*
X018235Y024918D01*
X018053Y024843D02*
X017780Y024843D01*
X017810Y024941D02*
X032510Y024941D01*
X032510Y024843D02*
X018766Y024843D01*
X018946Y024744D02*
X032510Y024744D01*
X032510Y024646D02*
X027347Y024646D01*
X027499Y024547D02*
X032510Y024547D01*
X032510Y024449D02*
X027597Y024449D01*
X027683Y024350D02*
X032510Y024350D01*
X032510Y024252D02*
X027724Y024252D01*
X027765Y024153D02*
X032510Y024153D01*
X032510Y024055D02*
X027803Y024055D01*
X027803Y023956D02*
X032510Y023956D01*
X032510Y023858D02*
X027803Y023858D01*
X027803Y023759D02*
X032510Y023759D01*
X032510Y023661D02*
X027776Y023661D01*
X027736Y023562D02*
X032510Y023562D01*
X032510Y023464D02*
X027695Y023464D01*
X027625Y023365D02*
X032510Y023365D01*
X032510Y023267D02*
X027526Y023267D01*
X027414Y023168D02*
X032510Y023168D01*
X032510Y023070D02*
X027176Y023070D01*
X026393Y023267D02*
X018821Y023267D01*
X018969Y023365D02*
X026294Y023365D01*
X026224Y023464D02*
X019067Y023464D01*
X019157Y023562D02*
X026183Y023562D01*
X026143Y023661D02*
X019198Y023661D01*
X019239Y023759D02*
X026116Y023759D01*
X026116Y023858D02*
X019280Y023858D01*
X019285Y023956D02*
X026116Y023956D01*
X026116Y024055D02*
X019285Y024055D01*
X019285Y024153D02*
X026154Y024153D01*
X026195Y024252D02*
X019270Y024252D01*
X019229Y024350D02*
X026236Y024350D01*
X026322Y024449D02*
X019189Y024449D01*
X019143Y024547D02*
X026420Y024547D01*
X026572Y024646D02*
X019044Y024646D01*
X018873Y025138D02*
X032510Y025138D01*
X032510Y025040D02*
X018636Y025040D01*
X018990Y025237D02*
X032510Y025237D01*
X032510Y025335D02*
X025299Y025335D01*
X025325Y025346D02*
X025507Y025528D01*
X025605Y025765D01*
X025605Y026022D01*
X025507Y026259D01*
X025325Y026440D01*
X025088Y026539D01*
X024831Y026539D01*
X024594Y026440D01*
X024412Y026259D01*
X024314Y026022D01*
X024314Y025765D01*
X024412Y025528D01*
X024594Y025346D01*
X024831Y025248D01*
X025088Y025248D01*
X025325Y025346D01*
X025413Y025434D02*
X032510Y025434D01*
X032510Y025532D02*
X025508Y025532D01*
X025549Y025631D02*
X032510Y025631D01*
X032529Y025729D02*
X025590Y025729D01*
X025605Y025828D02*
X032570Y025828D01*
X032656Y025926D02*
X025605Y025926D01*
X025603Y026025D02*
X032755Y026025D01*
X032853Y026123D02*
X025563Y026123D01*
X025522Y026222D02*
X032952Y026222D01*
X033115Y026320D02*
X025445Y026320D01*
X025347Y026419D02*
X033298Y026419D01*
X033396Y026517D02*
X025139Y026517D01*
X024780Y026517D02*
X019023Y026517D01*
X019121Y026419D02*
X024573Y026419D01*
X024474Y026320D02*
X019180Y026320D01*
X019221Y026222D02*
X024397Y026222D01*
X024356Y026123D02*
X019261Y026123D01*
X019285Y026025D02*
X024316Y026025D01*
X024314Y025926D02*
X019285Y025926D01*
X019285Y025828D02*
X024314Y025828D01*
X024329Y025729D02*
X019285Y025729D01*
X019248Y025631D02*
X024370Y025631D01*
X024411Y025532D02*
X019207Y025532D01*
X019166Y025434D02*
X024506Y025434D01*
X024620Y025335D02*
X019089Y025335D01*
X017410Y024993D02*
X016510Y025893D01*
X015699Y026222D02*
X007910Y026222D01*
X007910Y026320D02*
X015739Y026320D01*
X015798Y026419D02*
X007910Y026419D01*
X007910Y026517D02*
X015896Y026517D01*
X015995Y026616D02*
X007910Y026616D01*
X007910Y026714D02*
X016205Y026714D01*
X015658Y026123D02*
X007910Y026123D01*
X007910Y026025D02*
X015635Y026025D01*
X015635Y025926D02*
X007910Y025926D01*
X007910Y025828D02*
X015635Y025828D01*
X015635Y025729D02*
X007910Y025729D01*
X007910Y025631D02*
X015671Y025631D01*
X015712Y025532D02*
X007910Y025532D01*
X007910Y025434D02*
X015753Y025434D01*
X015830Y025335D02*
X007910Y025335D01*
X007910Y025237D02*
X015929Y025237D01*
X016046Y025138D02*
X007910Y025138D01*
X007910Y025040D02*
X016283Y025040D01*
X016103Y024843D02*
X007910Y024843D01*
X007910Y024941D02*
X016896Y024941D01*
X016816Y024843D02*
X016994Y024843D01*
X016996Y024744D02*
X017093Y024744D01*
X017094Y024646D02*
X017203Y024646D01*
X017193Y024547D02*
X017676Y024547D01*
X017630Y024449D02*
X017239Y024449D01*
X017279Y024350D02*
X017590Y024350D01*
X017549Y024252D02*
X017320Y024252D01*
X017335Y024153D02*
X017535Y024153D01*
X017535Y024055D02*
X017335Y024055D01*
X017335Y023956D02*
X017535Y023956D01*
X017539Y023858D02*
X017330Y023858D01*
X017289Y023759D02*
X017580Y023759D01*
X017621Y023661D02*
X017248Y023661D01*
X017238Y023562D02*
X017207Y023562D01*
X017481Y023562D02*
X017662Y023562D01*
X017668Y023464D02*
X017752Y023464D01*
X018235Y023168D02*
X018584Y023168D01*
X017829Y022971D02*
X032510Y022971D01*
X032510Y022873D02*
X017788Y022873D01*
X017719Y022774D02*
X032510Y022774D01*
X032510Y022676D02*
X017606Y022676D01*
X017113Y022676D02*
X007910Y022676D01*
X007910Y022774D02*
X017000Y022774D01*
X016931Y022873D02*
X007910Y022873D01*
X007910Y022971D02*
X016890Y022971D01*
X016880Y022998D02*
X016880Y023189D01*
X016920Y023287D01*
X016634Y023168D01*
X016880Y023168D01*
X016871Y023267D02*
X016912Y023267D01*
X016634Y023168D02*
X016285Y023168D01*
X016048Y023267D02*
X007910Y023267D01*
X007910Y023365D02*
X015900Y023365D01*
X015802Y023464D02*
X007910Y023464D01*
X007910Y023562D02*
X015712Y023562D01*
X015671Y023661D02*
X007910Y023661D01*
X007910Y023759D02*
X015630Y023759D01*
X015589Y023858D02*
X007910Y023858D01*
X007910Y023956D02*
X015585Y023956D01*
X015585Y024055D02*
X007910Y024055D01*
X007910Y024153D02*
X015585Y024153D01*
X015599Y024252D02*
X007910Y024252D01*
X007910Y024350D02*
X015640Y024350D01*
X015680Y024449D02*
X007910Y024449D01*
X007910Y024547D02*
X015726Y024547D01*
X015825Y024646D02*
X007910Y024646D01*
X007910Y024744D02*
X015923Y024744D01*
X016736Y025040D02*
X016797Y025040D01*
X017616Y024646D02*
X017775Y024646D01*
X017726Y024744D02*
X017873Y024744D01*
X018714Y026714D02*
X033705Y026714D01*
X033495Y026616D02*
X018924Y026616D01*
X018687Y026911D02*
X035632Y026911D01*
X035605Y026714D02*
X034314Y026714D01*
X034524Y026616D02*
X035395Y026616D01*
X035296Y026517D02*
X034623Y026517D01*
X034721Y026419D02*
X035198Y026419D01*
X035139Y026320D02*
X034780Y026320D01*
X034821Y026222D02*
X035099Y026222D01*
X035058Y026123D02*
X034861Y026123D01*
X034885Y026025D02*
X035035Y026025D01*
X035035Y025926D02*
X034885Y025926D01*
X034885Y025828D02*
X035035Y025828D01*
X035035Y025729D02*
X034885Y025729D01*
X034848Y025631D02*
X035011Y025631D01*
X034912Y025532D02*
X034807Y025532D01*
X034814Y025434D02*
X034766Y025434D01*
X034715Y025335D02*
X034689Y025335D01*
X034653Y025237D02*
X034590Y025237D01*
X034612Y025138D02*
X034473Y025138D01*
X034610Y025040D02*
X034236Y025040D01*
X034316Y024843D02*
X034610Y024843D01*
X034610Y024941D02*
X033410Y024941D01*
X033410Y024843D02*
X033603Y024843D01*
X033423Y024744D02*
X033410Y024744D01*
X033410Y025040D02*
X033783Y025040D01*
X033546Y025138D02*
X033410Y025138D01*
X033410Y025237D02*
X033429Y025237D01*
X034496Y024744D02*
X034610Y024744D01*
X034610Y024646D02*
X034594Y024646D01*
X035510Y024646D02*
X042734Y024646D01*
X042636Y024547D02*
X035510Y024547D01*
X035510Y024449D02*
X042537Y024449D01*
X042439Y024350D02*
X035510Y024350D01*
X035510Y024252D02*
X042340Y024252D01*
X042242Y024153D02*
X035510Y024153D01*
X035510Y024055D02*
X042143Y024055D01*
X042045Y023956D02*
X035510Y023956D01*
X035510Y023858D02*
X041946Y023858D01*
X041848Y023759D02*
X035510Y023759D01*
X035510Y023661D02*
X041749Y023661D01*
X041651Y023562D02*
X035527Y023562D01*
X035625Y023464D02*
X041552Y023464D01*
X041454Y023365D02*
X035724Y023365D01*
X035822Y023267D02*
X041355Y023267D01*
X041257Y023168D02*
X035921Y023168D01*
X035973Y023070D02*
X041158Y023070D01*
X041060Y022971D02*
X036010Y022971D01*
X036010Y022873D02*
X040961Y022873D01*
X040863Y022774D02*
X036010Y022774D01*
X036010Y022676D02*
X040764Y022676D01*
X040666Y022577D02*
X036010Y022577D01*
X036010Y022479D02*
X040567Y022479D01*
X040469Y022380D02*
X036010Y022380D01*
X036040Y022282D02*
X040370Y022282D01*
X040272Y022183D02*
X036040Y022183D01*
X036034Y022085D02*
X040173Y022085D01*
X040075Y021986D02*
X035993Y021986D01*
X035933Y021888D02*
X039976Y021888D01*
X039878Y021789D02*
X035834Y021789D01*
X035285Y021789D02*
X033940Y021789D01*
X033937Y021691D02*
X039779Y021691D01*
X035186Y021888D02*
X033940Y021888D01*
X033899Y021986D02*
X035126Y021986D01*
X035085Y022085D02*
X033847Y022085D01*
X033748Y022183D02*
X035080Y022183D01*
X035080Y022282D02*
X033507Y022282D01*
X033410Y022380D02*
X035110Y022380D01*
X035110Y022479D02*
X033410Y022479D01*
X033410Y022577D02*
X035110Y022577D01*
X035110Y022676D02*
X033410Y022676D01*
X033410Y022774D02*
X035042Y022774D01*
X034944Y022873D02*
X033410Y022873D01*
X033410Y022971D02*
X034845Y022971D01*
X034805Y023012D02*
X034678Y023138D01*
X034610Y023304D01*
X034610Y023456D01*
X034455Y023302D01*
X034134Y023168D01*
X034666Y023168D01*
X034625Y023267D02*
X034371Y023267D01*
X034519Y023365D02*
X034610Y023365D01*
X034134Y023168D02*
X033785Y023168D01*
X033548Y023267D02*
X033410Y023267D01*
X032510Y022577D02*
X007910Y022577D01*
X007910Y022479D02*
X032510Y022479D01*
X032510Y022380D02*
X007910Y022380D01*
X007910Y022282D02*
X032510Y022282D01*
X032510Y022183D02*
X007910Y022183D01*
X007910Y022085D02*
X032517Y022085D01*
X032558Y021986D02*
X007910Y021986D01*
X007910Y021888D02*
X032629Y021888D01*
X032727Y021789D02*
X007910Y021789D01*
X007910Y021691D02*
X017078Y021691D01*
X017088Y021700D02*
X016953Y021565D01*
X016880Y021389D01*
X016880Y021198D01*
X016953Y021021D01*
X017088Y020886D01*
X017264Y020813D01*
X017455Y020813D01*
X017631Y020886D01*
X017766Y021021D01*
X017840Y021198D01*
X017840Y021389D01*
X017766Y021565D01*
X017631Y021700D01*
X017455Y021773D01*
X017264Y021773D01*
X017088Y021700D01*
X016980Y021592D02*
X007910Y021592D01*
X007910Y021494D02*
X016923Y021494D01*
X016882Y021395D02*
X007910Y021395D01*
X007910Y021297D02*
X016880Y021297D01*
X016880Y021198D02*
X007910Y021198D01*
X007910Y021100D02*
X016920Y021100D01*
X016973Y021001D02*
X007910Y021001D01*
X007910Y020903D02*
X017071Y020903D01*
X017648Y020903D02*
X032775Y020903D01*
X032716Y021001D02*
X017746Y021001D01*
X017799Y021100D02*
X032676Y021100D01*
X032661Y021198D02*
X017840Y021198D01*
X017840Y021297D02*
X032661Y021297D01*
X032679Y021395D02*
X017837Y021395D01*
X017796Y021494D02*
X032720Y021494D01*
X032783Y021592D02*
X017739Y021592D01*
X017641Y021691D02*
X032826Y021691D01*
X032873Y020804D02*
X007910Y020804D01*
X007910Y020706D02*
X033069Y020706D01*
X033196Y020607D02*
X007910Y020607D01*
X007910Y027010D02*
X017906Y027010D01*
X017807Y027108D02*
X007910Y027108D01*
X007910Y027207D02*
X017709Y027207D01*
X017644Y027305D02*
X007910Y027305D01*
X007910Y027404D02*
X017603Y027404D01*
X017562Y027502D02*
X007910Y027502D01*
X007910Y027601D02*
X017535Y027601D01*
X017535Y027699D02*
X007910Y027699D01*
X007910Y027798D02*
X017535Y027798D01*
X017535Y027896D02*
X007910Y027896D01*
X007910Y027995D02*
X017567Y027995D01*
X017607Y028093D02*
X007910Y028093D01*
X007910Y028192D02*
X017648Y028192D01*
X017719Y028290D02*
X007910Y028290D01*
X007910Y028389D02*
X017818Y028389D01*
X017919Y028487D02*
X007910Y028487D01*
X007910Y028586D02*
X018157Y028586D01*
X018662Y028586D02*
X022459Y028586D01*
X022482Y028609D02*
X022244Y028371D01*
X022116Y028061D01*
X022116Y027725D01*
X022244Y027415D01*
X022482Y027178D01*
X022792Y027050D01*
X023127Y027050D01*
X023437Y027178D01*
X023675Y027415D01*
X023803Y027725D01*
X023803Y028061D01*
X023675Y028371D01*
X023437Y028609D01*
X023127Y028737D01*
X022792Y028737D01*
X022482Y028609D01*
X022360Y028487D02*
X018900Y028487D01*
X019001Y028389D02*
X022262Y028389D01*
X022211Y028290D02*
X019100Y028290D01*
X019171Y028192D02*
X022170Y028192D01*
X022129Y028093D02*
X019212Y028093D01*
X019252Y027995D02*
X022116Y027995D01*
X022116Y027896D02*
X019285Y027896D01*
X019285Y027798D02*
X022116Y027798D01*
X022127Y027699D02*
X019285Y027699D01*
X019285Y027601D02*
X022167Y027601D01*
X022208Y027502D02*
X019257Y027502D01*
X019216Y027404D02*
X022256Y027404D01*
X022354Y027305D02*
X019175Y027305D01*
X019110Y027207D02*
X022453Y027207D01*
X022650Y027108D02*
X019012Y027108D01*
X018913Y027010D02*
X035406Y027010D01*
X035307Y027108D02*
X023269Y027108D01*
X023466Y027207D02*
X035209Y027207D01*
X035144Y027305D02*
X023565Y027305D01*
X023663Y027404D02*
X035103Y027404D01*
X035062Y027502D02*
X023711Y027502D01*
X023752Y027601D02*
X035035Y027601D01*
X035035Y027699D02*
X023792Y027699D01*
X023803Y027798D02*
X035035Y027798D01*
X035035Y027896D02*
X023803Y027896D01*
X023803Y027995D02*
X035067Y027995D01*
X035107Y028093D02*
X023790Y028093D01*
X023749Y028192D02*
X035148Y028192D01*
X035219Y028290D02*
X023708Y028290D01*
X023657Y028389D02*
X035318Y028389D01*
X035419Y028487D02*
X023559Y028487D01*
X023460Y028586D02*
X035657Y028586D01*
X036214Y028684D02*
X023254Y028684D01*
X022665Y028684D02*
X007910Y028684D01*
X007910Y028783D02*
X036313Y028783D01*
X036411Y028881D02*
X007910Y028881D01*
X007910Y028980D02*
X036510Y028980D01*
X036608Y029078D02*
X007910Y029078D01*
X007910Y029177D02*
X036707Y029177D01*
X036805Y029275D02*
X007910Y029275D01*
X007910Y029374D02*
X036904Y029374D01*
X037002Y029472D02*
X007910Y029472D01*
X007910Y029571D02*
X037101Y029571D01*
X037199Y029669D02*
X007910Y029669D01*
X007910Y029768D02*
X037298Y029768D01*
X037396Y029866D02*
X010107Y029866D01*
X010095Y029863D02*
X010357Y029934D01*
X010592Y030069D01*
X010784Y030261D01*
X010919Y030496D01*
X010990Y030758D01*
X010990Y031029D01*
X010919Y031291D01*
X010784Y031526D01*
X010592Y031718D01*
X010357Y031853D01*
X010095Y031923D01*
X009824Y031923D01*
X009562Y031853D01*
X009327Y031718D01*
X009135Y031526D01*
X009000Y031291D01*
X008930Y031029D01*
X008930Y030758D01*
X009000Y030496D01*
X009135Y030261D01*
X009327Y030069D01*
X009562Y029934D01*
X009824Y029863D01*
X010095Y029863D01*
X009813Y029866D02*
X007910Y029866D01*
X007910Y029965D02*
X009508Y029965D01*
X009337Y030063D02*
X007910Y030063D01*
X007910Y030162D02*
X009234Y030162D01*
X009136Y030260D02*
X007910Y030260D01*
X007910Y030359D02*
X009079Y030359D01*
X009022Y030457D02*
X007910Y030457D01*
X007910Y030556D02*
X008984Y030556D01*
X008957Y030654D02*
X007910Y030654D01*
X007910Y030753D02*
X008931Y030753D01*
X008930Y030851D02*
X007910Y030851D01*
X007910Y030950D02*
X008930Y030950D01*
X008935Y031048D02*
X007910Y031048D01*
X007910Y031147D02*
X008961Y031147D01*
X008988Y031245D02*
X007910Y031245D01*
X007910Y031344D02*
X009030Y031344D01*
X009087Y031442D02*
X007910Y031442D01*
X007910Y031541D02*
X009150Y031541D01*
X009249Y031639D02*
X007910Y031639D01*
X007910Y031738D02*
X009362Y031738D01*
X009533Y031836D02*
X007910Y031836D01*
X007910Y031935D02*
X107010Y031935D01*
X107010Y032033D02*
X007910Y032033D01*
X007910Y032132D02*
X107010Y032132D01*
X107010Y032230D02*
X007910Y032230D01*
X007910Y032329D02*
X107010Y032329D01*
X107010Y032427D02*
X007910Y032427D01*
X007910Y032526D02*
X107010Y032526D01*
X107010Y032624D02*
X007910Y032624D01*
X007910Y032723D02*
X107010Y032723D01*
X107010Y032821D02*
X007910Y032821D01*
X007910Y032920D02*
X107010Y032920D01*
X107010Y031836D02*
X100386Y031836D01*
X100357Y031853D02*
X100095Y031923D01*
X099824Y031923D01*
X099562Y031853D01*
X099327Y031718D01*
X099135Y031526D01*
X099000Y031291D01*
X098930Y031029D01*
X098930Y030758D01*
X099000Y030496D01*
X099135Y030261D01*
X099327Y030069D01*
X099562Y029934D01*
X099824Y029863D01*
X100095Y029863D01*
X100357Y029934D01*
X100592Y030069D01*
X100784Y030261D01*
X100919Y030496D01*
X100990Y030758D01*
X100990Y031029D01*
X100919Y031291D01*
X100784Y031526D01*
X100592Y031718D01*
X100357Y031853D01*
X100557Y031738D02*
X107010Y031738D01*
X107010Y031639D02*
X100670Y031639D01*
X100769Y031541D02*
X107010Y031541D01*
X107010Y031442D02*
X100832Y031442D01*
X100889Y031344D02*
X107010Y031344D01*
X107010Y031245D02*
X100932Y031245D01*
X100958Y031147D02*
X107010Y031147D01*
X107010Y031048D02*
X100984Y031048D01*
X100990Y030950D02*
X107010Y030950D01*
X107010Y030851D02*
X100990Y030851D01*
X100988Y030753D02*
X107010Y030753D01*
X107010Y030654D02*
X100962Y030654D01*
X100935Y030556D02*
X107010Y030556D01*
X107010Y030457D02*
X100897Y030457D01*
X100840Y030359D02*
X107010Y030359D01*
X107010Y030260D02*
X100783Y030260D01*
X100685Y030162D02*
X107010Y030162D01*
X107010Y030063D02*
X100582Y030063D01*
X100411Y029965D02*
X107010Y029965D01*
X107010Y029866D02*
X100107Y029866D01*
X099813Y029866D02*
X095110Y029866D01*
X095110Y029768D02*
X107010Y029768D01*
X107010Y029669D02*
X095110Y029669D01*
X095110Y029571D02*
X107010Y029571D01*
X107010Y029472D02*
X095110Y029472D01*
X095110Y029374D02*
X100666Y029374D01*
X100539Y029275D02*
X095110Y029275D01*
X095110Y029177D02*
X100441Y029177D01*
X100397Y029078D02*
X095110Y029078D01*
X095110Y028980D02*
X100356Y028980D01*
X100338Y028881D02*
X095110Y028881D01*
X095110Y028783D02*
X100338Y028783D01*
X100338Y028684D02*
X095110Y028684D01*
X095110Y028586D02*
X100376Y028586D01*
X100417Y028487D02*
X095110Y028487D01*
X095110Y028389D02*
X100488Y028389D01*
X100587Y028290D02*
X095110Y028290D01*
X095110Y028192D02*
X100781Y028192D01*
X101251Y028093D02*
X095110Y028093D01*
X095110Y027995D02*
X101350Y027995D01*
X101448Y027896D02*
X095110Y027896D01*
X095110Y027798D02*
X101547Y027798D01*
X101645Y027699D02*
X095110Y027699D01*
X095110Y027601D02*
X101744Y027601D01*
X101842Y027502D02*
X095110Y027502D01*
X095110Y027404D02*
X101941Y027404D01*
X102039Y027305D02*
X095110Y027305D01*
X095110Y027207D02*
X102138Y027207D01*
X102236Y027108D02*
X095110Y027108D01*
X095110Y027010D02*
X097434Y027010D01*
X097536Y027052D02*
X097168Y026900D01*
X096886Y026618D01*
X096734Y026250D01*
X096734Y025852D01*
X096886Y025484D01*
X097168Y025202D01*
X097536Y025050D01*
X097934Y025050D01*
X098302Y025202D01*
X098584Y025484D01*
X098736Y025852D01*
X098736Y026250D01*
X098584Y026618D01*
X098302Y026900D01*
X097934Y027052D01*
X097536Y027052D01*
X097196Y026911D02*
X095110Y026911D01*
X095110Y026813D02*
X097081Y026813D01*
X096983Y026714D02*
X095110Y026714D01*
X095090Y026616D02*
X096885Y026616D01*
X096845Y026517D02*
X095049Y026517D01*
X095004Y026419D02*
X096804Y026419D01*
X096763Y026320D02*
X094906Y026320D01*
X094807Y026222D02*
X096734Y026222D01*
X096734Y026123D02*
X094709Y026123D01*
X094610Y026025D02*
X096734Y026025D01*
X096734Y025926D02*
X094512Y025926D01*
X094413Y025828D02*
X096744Y025828D01*
X096785Y025729D02*
X094315Y025729D01*
X094216Y025631D02*
X096825Y025631D01*
X096866Y025532D02*
X094118Y025532D01*
X094019Y025434D02*
X096936Y025434D01*
X097035Y025335D02*
X093921Y025335D01*
X093822Y025237D02*
X097133Y025237D01*
X097322Y025138D02*
X093724Y025138D01*
X093625Y025040D02*
X103830Y025040D01*
X103830Y025138D02*
X102676Y025138D01*
X102865Y025237D02*
X103830Y025237D01*
X103830Y025335D02*
X102963Y025335D01*
X103062Y025434D02*
X103830Y025434D01*
X103812Y025532D02*
X103132Y025532D01*
X103172Y025631D02*
X103714Y025631D01*
X103615Y025729D02*
X103213Y025729D01*
X103254Y025828D02*
X103517Y025828D01*
X103418Y025926D02*
X103264Y025926D01*
X103264Y026025D02*
X103320Y026025D01*
X103945Y026616D02*
X107010Y026616D01*
X107010Y026714D02*
X103847Y026714D01*
X103748Y026813D02*
X107010Y026813D01*
X107010Y026911D02*
X103650Y026911D01*
X103551Y027010D02*
X107010Y027010D01*
X107010Y027108D02*
X103453Y027108D01*
X103354Y027207D02*
X107010Y027207D01*
X107010Y027305D02*
X103256Y027305D01*
X103157Y027404D02*
X107010Y027404D01*
X107010Y027502D02*
X103059Y027502D01*
X102960Y027601D02*
X107010Y027601D01*
X107010Y027699D02*
X102862Y027699D01*
X102763Y027798D02*
X107010Y027798D01*
X107010Y027896D02*
X102665Y027896D01*
X102566Y027995D02*
X107010Y027995D01*
X107010Y028093D02*
X102468Y028093D01*
X102369Y028192D02*
X107010Y028192D01*
X107010Y028290D02*
X102271Y028290D01*
X102172Y028389D02*
X107010Y028389D01*
X107010Y028487D02*
X102074Y028487D01*
X101975Y028586D02*
X107010Y028586D01*
X107010Y028684D02*
X101877Y028684D01*
X101778Y028783D02*
X107010Y028783D01*
X107010Y028881D02*
X101680Y028881D01*
X101610Y028980D02*
X107010Y028980D01*
X107010Y029078D02*
X101569Y029078D01*
X101526Y029177D02*
X107010Y029177D01*
X107010Y029275D02*
X101427Y029275D01*
X101300Y029374D02*
X107010Y029374D01*
X099508Y029965D02*
X095110Y029965D01*
X095149Y030063D02*
X099337Y030063D01*
X099234Y030162D02*
X095247Y030162D01*
X095325Y030260D02*
X099136Y030260D01*
X099079Y030359D02*
X095366Y030359D01*
X095407Y030457D02*
X099022Y030457D01*
X098984Y030556D02*
X095410Y030556D01*
X095410Y030654D02*
X098957Y030654D01*
X098931Y030753D02*
X095397Y030753D01*
X095356Y030851D02*
X098930Y030851D01*
X098930Y030950D02*
X095315Y030950D01*
X095224Y031048D02*
X098935Y031048D01*
X098961Y031147D02*
X095122Y031147D01*
X094397Y031147D02*
X010958Y031147D01*
X010932Y031245D02*
X098988Y031245D01*
X099030Y031344D02*
X010889Y031344D01*
X010832Y031442D02*
X099087Y031442D01*
X099150Y031541D02*
X010769Y031541D01*
X010670Y031639D02*
X099249Y031639D01*
X099362Y031738D02*
X010557Y031738D01*
X010386Y031836D02*
X099533Y031836D01*
X093739Y031048D02*
X010984Y031048D01*
X010990Y030950D02*
X093641Y030950D01*
X093573Y030851D02*
X010990Y030851D01*
X010988Y030753D02*
X093532Y030753D01*
X093511Y030654D02*
X010962Y030654D01*
X010935Y030556D02*
X093511Y030556D01*
X093523Y030457D02*
X010897Y030457D01*
X010840Y030359D02*
X093563Y030359D01*
X093617Y030260D02*
X010783Y030260D01*
X010685Y030162D02*
X093716Y030162D01*
X093810Y030063D02*
X010582Y030063D01*
X010411Y029965D02*
X088416Y029965D01*
X089003Y029965D02*
X093810Y029965D01*
X093810Y029866D02*
X089112Y029866D01*
X089189Y029768D02*
X093810Y029768D01*
X093810Y029669D02*
X089230Y029669D01*
X089258Y029571D02*
X093810Y029571D01*
X093810Y029472D02*
X089258Y029472D01*
X089253Y029374D02*
X093810Y029374D01*
X093810Y029275D02*
X089213Y029275D01*
X089168Y029177D02*
X093810Y029177D01*
X093810Y029078D02*
X092221Y029078D01*
X092270Y029058D02*
X092069Y029141D01*
X091850Y029141D01*
X091649Y029058D01*
X091495Y028904D01*
X091411Y028702D01*
X091411Y028484D01*
X091495Y028283D01*
X091649Y028129D01*
X091850Y028045D01*
X091911Y028045D01*
X091911Y027984D01*
X091995Y027783D01*
X092149Y027629D01*
X092350Y027545D01*
X092569Y027545D01*
X092770Y027629D01*
X092924Y027783D01*
X093008Y027984D01*
X093008Y028202D01*
X092924Y028404D01*
X092770Y028558D01*
X092569Y028641D01*
X092508Y028641D01*
X092508Y028702D01*
X092424Y028904D01*
X092270Y029058D01*
X092348Y028980D02*
X093810Y028980D01*
X093810Y028881D02*
X092433Y028881D01*
X092474Y028783D02*
X093810Y028783D01*
X093810Y028684D02*
X092508Y028684D01*
X092703Y028586D02*
X093810Y028586D01*
X093810Y028487D02*
X092841Y028487D01*
X092930Y028389D02*
X093810Y028389D01*
X093810Y028290D02*
X092971Y028290D01*
X093008Y028192D02*
X093810Y028192D01*
X093810Y028093D02*
X093008Y028093D01*
X093008Y027995D02*
X093810Y027995D01*
X093810Y027896D02*
X092971Y027896D01*
X092930Y027798D02*
X093810Y027798D01*
X093810Y027699D02*
X092841Y027699D01*
X092703Y027601D02*
X093810Y027601D01*
X093810Y027502D02*
X091808Y027502D01*
X091808Y027484D02*
X091808Y027702D01*
X091724Y027904D01*
X091570Y028058D01*
X091369Y028141D01*
X091150Y028141D01*
X090949Y028058D01*
X090795Y027904D01*
X090780Y027868D01*
X090724Y028004D01*
X090570Y028158D01*
X090369Y028241D01*
X090150Y028241D01*
X089949Y028158D01*
X089795Y028004D01*
X089711Y027802D01*
X089711Y027584D01*
X089795Y027383D01*
X089949Y027229D01*
X090150Y027145D01*
X090369Y027145D01*
X090570Y027229D01*
X090724Y027383D01*
X090739Y027418D01*
X090795Y027283D01*
X090949Y027129D01*
X091150Y027045D01*
X091369Y027045D01*
X091570Y027129D01*
X091724Y027283D01*
X091808Y027484D01*
X091774Y027404D02*
X093810Y027404D01*
X093810Y027305D02*
X091734Y027305D01*
X091648Y027207D02*
X093810Y027207D01*
X093810Y027108D02*
X091521Y027108D01*
X090998Y027108D02*
X080769Y027108D01*
X080966Y027207D02*
X090002Y027207D01*
X089872Y027305D02*
X081065Y027305D01*
X081163Y027404D02*
X088830Y027404D01*
X088850Y027395D02*
X089069Y027395D01*
X089270Y027479D01*
X089424Y027633D01*
X089508Y027834D01*
X089508Y028052D01*
X089424Y028254D01*
X089270Y028408D01*
X089069Y028491D01*
X088850Y028491D01*
X088649Y028408D01*
X088495Y028254D01*
X088411Y028052D01*
X088411Y027834D01*
X088495Y027633D01*
X088649Y027479D01*
X088850Y027395D01*
X089089Y027404D02*
X089786Y027404D01*
X089745Y027502D02*
X089294Y027502D01*
X089392Y027601D02*
X089711Y027601D01*
X089711Y027699D02*
X089452Y027699D01*
X089493Y027798D02*
X089711Y027798D01*
X089750Y027896D02*
X089508Y027896D01*
X089508Y027995D02*
X089791Y027995D01*
X089884Y028093D02*
X089491Y028093D01*
X089450Y028192D02*
X090031Y028192D01*
X090488Y028192D02*
X091586Y028192D01*
X091492Y028290D02*
X089388Y028290D01*
X089289Y028389D02*
X091451Y028389D01*
X091411Y028487D02*
X089078Y028487D01*
X088841Y028487D02*
X088281Y028487D01*
X088434Y028586D02*
X091411Y028586D01*
X091411Y028684D02*
X088529Y028684D01*
X088570Y028783D02*
X091445Y028783D01*
X091486Y028881D02*
X088611Y028881D01*
X088902Y028980D02*
X091571Y028980D01*
X091698Y029078D02*
X089070Y029078D01*
X088630Y028389D02*
X081157Y028389D01*
X081208Y028290D02*
X088531Y028290D01*
X088469Y028192D02*
X081249Y028192D01*
X081290Y028093D02*
X088428Y028093D01*
X088411Y027995D02*
X081303Y027995D01*
X081303Y027896D02*
X088411Y027896D01*
X088426Y027798D02*
X081303Y027798D01*
X081292Y027699D02*
X088467Y027699D01*
X088527Y027601D02*
X081252Y027601D01*
X081211Y027502D02*
X088625Y027502D01*
X090517Y027207D02*
X090871Y027207D01*
X090786Y027305D02*
X090647Y027305D01*
X090733Y027404D02*
X090745Y027404D01*
X091808Y027601D02*
X092216Y027601D01*
X092078Y027699D02*
X091808Y027699D01*
X091768Y027798D02*
X091989Y027798D01*
X091948Y027896D02*
X091727Y027896D01*
X091633Y027995D02*
X091911Y027995D01*
X091734Y028093D02*
X091485Y028093D01*
X091034Y028093D02*
X090635Y028093D01*
X090728Y027995D02*
X090886Y027995D01*
X090792Y027896D02*
X090769Y027896D01*
X087844Y028487D02*
X081059Y028487D01*
X079860Y028487D02*
X076400Y028487D01*
X076501Y028389D02*
X079762Y028389D01*
X079711Y028290D02*
X076600Y028290D01*
X077255Y028192D02*
X079670Y028192D01*
X079629Y028093D02*
X077424Y028093D01*
X077523Y027995D02*
X079616Y027995D01*
X079616Y027896D02*
X077621Y027896D01*
X077720Y027798D02*
X079616Y027798D01*
X079627Y027699D02*
X077818Y027699D01*
X077917Y027601D02*
X079667Y027601D01*
X079708Y027502D02*
X077982Y027502D01*
X078022Y027404D02*
X079756Y027404D01*
X079854Y027305D02*
X078030Y027305D01*
X078030Y027207D02*
X079953Y027207D01*
X080150Y027108D02*
X078030Y027108D01*
X078030Y027010D02*
X093757Y027010D01*
X093658Y026911D02*
X078030Y026911D01*
X078030Y026813D02*
X093560Y026813D01*
X093461Y026714D02*
X078030Y026714D01*
X078030Y026616D02*
X093363Y026616D01*
X098036Y027010D02*
X101962Y027010D01*
X101724Y026911D02*
X098274Y026911D01*
X098389Y026813D02*
X101609Y026813D01*
X101510Y026714D02*
X098487Y026714D01*
X098585Y026616D02*
X101413Y026616D01*
X101372Y026517D02*
X098626Y026517D01*
X098666Y026419D02*
X101331Y026419D01*
X101291Y026320D02*
X098707Y026320D01*
X098736Y026222D02*
X101261Y026222D01*
X101261Y026123D02*
X098736Y026123D01*
X098736Y026025D02*
X101261Y026025D01*
X101261Y025926D02*
X098736Y025926D01*
X098726Y025828D02*
X101271Y025828D01*
X101312Y025729D02*
X098686Y025729D01*
X098645Y025631D02*
X101353Y025631D01*
X101394Y025532D02*
X098604Y025532D01*
X098534Y025434D02*
X101464Y025434D01*
X101562Y025335D02*
X098436Y025335D01*
X098337Y025237D02*
X101661Y025237D01*
X101849Y025138D02*
X098148Y025138D01*
X093527Y024941D02*
X103830Y024941D01*
X103830Y024843D02*
X093428Y024843D01*
X093330Y024744D02*
X103830Y024744D01*
X103830Y024646D02*
X093231Y024646D01*
X093133Y024547D02*
X103830Y024547D01*
X103830Y024449D02*
X093034Y024449D01*
X092936Y024350D02*
X103830Y024350D01*
X103830Y024252D02*
X092837Y024252D01*
X092739Y024153D02*
X103830Y024153D01*
X103830Y024055D02*
X092640Y024055D01*
X092542Y023956D02*
X103830Y023956D01*
X103830Y023858D02*
X092443Y023858D01*
X092345Y023759D02*
X103830Y023759D01*
X103830Y023661D02*
X101311Y023661D01*
X101349Y023645D02*
X101530Y023464D01*
X101571Y023365D02*
X103830Y023365D01*
X103830Y023267D02*
X101612Y023267D01*
X101628Y023168D02*
X103830Y023168D01*
X103830Y023070D02*
X101628Y023070D01*
X101628Y022971D02*
X103830Y022971D01*
X103830Y022873D02*
X101588Y022873D01*
X101548Y022774D02*
X103830Y022774D01*
X103830Y022676D02*
X101485Y022676D01*
X101584Y022577D02*
X103830Y022577D01*
X103841Y022479D02*
X101682Y022479D01*
X101781Y022380D02*
X103882Y022380D01*
X103963Y022282D02*
X101879Y022282D01*
X101978Y022183D02*
X104061Y022183D01*
X104160Y022085D02*
X102076Y022085D01*
X102175Y021986D02*
X104258Y021986D01*
X104357Y021888D02*
X102273Y021888D01*
X102372Y021789D02*
X104455Y021789D01*
X104554Y021691D02*
X102470Y021691D01*
X102569Y021592D02*
X104652Y021592D01*
X104751Y021494D02*
X102667Y021494D01*
X102766Y021395D02*
X104849Y021395D01*
X104948Y021297D02*
X102864Y021297D01*
X102963Y021198D02*
X105046Y021198D01*
X105145Y021100D02*
X103061Y021100D01*
X103160Y021001D02*
X105243Y021001D01*
X105342Y020903D02*
X103258Y020903D01*
X103357Y020804D02*
X105440Y020804D01*
X105539Y020706D02*
X103455Y020706D01*
X103554Y020607D02*
X105637Y020607D01*
X105736Y020509D02*
X103652Y020509D01*
X103751Y020410D02*
X105834Y020410D01*
X105933Y020312D02*
X103849Y020312D01*
X103948Y020213D02*
X106031Y020213D01*
X106130Y020115D02*
X104046Y020115D01*
X104145Y020016D02*
X106228Y020016D01*
X106327Y019918D02*
X104243Y019918D01*
X104342Y019819D02*
X106425Y019819D01*
X106524Y019721D02*
X104440Y019721D01*
X104539Y019622D02*
X106622Y019622D01*
X106721Y019524D02*
X104637Y019524D01*
X104736Y019425D02*
X106819Y019425D01*
X106918Y019327D02*
X104834Y019327D01*
X104933Y019228D02*
X107016Y019228D01*
X107115Y019130D02*
X105031Y019130D01*
X104209Y018736D02*
X103625Y018736D01*
X103527Y018834D02*
X104110Y018834D01*
X104012Y018933D02*
X103428Y018933D01*
X103330Y019031D02*
X103913Y019031D01*
X103815Y019130D02*
X103231Y019130D01*
X103133Y019228D02*
X103716Y019228D01*
X103618Y019327D02*
X103034Y019327D01*
X102936Y019425D02*
X103519Y019425D01*
X103421Y019524D02*
X102837Y019524D01*
X102739Y019622D02*
X103322Y019622D01*
X103224Y019721D02*
X102640Y019721D01*
X102542Y019819D02*
X103125Y019819D01*
X103027Y019918D02*
X102443Y019918D01*
X102345Y020016D02*
X102928Y020016D01*
X102830Y020115D02*
X102246Y020115D01*
X102148Y020213D02*
X102731Y020213D01*
X102633Y020312D02*
X102049Y020312D01*
X101951Y020410D02*
X102534Y020410D01*
X102436Y020509D02*
X101852Y020509D01*
X101754Y020607D02*
X102337Y020607D01*
X102239Y020706D02*
X101655Y020706D01*
X101557Y020804D02*
X102140Y020804D01*
X102042Y020903D02*
X101458Y020903D01*
X101360Y021001D02*
X101943Y021001D01*
X101845Y021100D02*
X101261Y021100D01*
X101163Y021198D02*
X101746Y021198D01*
X101648Y021297D02*
X101064Y021297D01*
X100966Y021395D02*
X101549Y021395D01*
X101451Y021494D02*
X100867Y021494D01*
X100769Y021592D02*
X101352Y021592D01*
X101254Y021691D02*
X100670Y021691D01*
X100572Y021789D02*
X101155Y021789D01*
X101057Y021888D02*
X100473Y021888D01*
X100375Y021986D02*
X100958Y021986D01*
X100860Y022085D02*
X100276Y022085D01*
X100178Y022183D02*
X100761Y022183D01*
X100663Y022282D02*
X100079Y022282D01*
X099981Y022380D02*
X100596Y022380D01*
X100619Y022326D02*
X100553Y022484D01*
X100553Y022615D01*
X100436Y022733D01*
X100338Y022970D01*
X100338Y023226D01*
X100436Y023464D01*
X100395Y023365D02*
X099602Y023365D01*
X099643Y023267D02*
X100355Y023267D01*
X100338Y023168D02*
X099660Y023168D01*
X099660Y023226D02*
X099562Y023464D01*
X099463Y023562D02*
X100535Y023562D01*
X100656Y023661D02*
X099342Y023661D01*
X099660Y023226D02*
X099660Y022970D01*
X099581Y022780D01*
X104338Y018023D01*
X108721Y018023D01*
X108481Y018263D01*
X104774Y018263D01*
X104616Y018329D01*
X100619Y022326D01*
X100555Y022479D02*
X099882Y022479D01*
X099784Y022577D02*
X100553Y022577D01*
X100493Y022676D02*
X099685Y022676D01*
X099587Y022774D02*
X100419Y022774D01*
X100378Y022873D02*
X099620Y022873D01*
X099660Y022971D02*
X100338Y022971D01*
X100338Y023070D02*
X099660Y023070D01*
X098764Y022380D02*
X090966Y022380D01*
X090867Y022282D02*
X098863Y022282D01*
X098961Y022183D02*
X090769Y022183D01*
X090589Y022085D02*
X099060Y022085D01*
X099158Y021986D02*
X086910Y021986D01*
X086910Y021888D02*
X099257Y021888D01*
X099355Y021789D02*
X086910Y021789D01*
X086910Y021691D02*
X099454Y021691D01*
X099552Y021592D02*
X086910Y021592D01*
X086910Y021494D02*
X099651Y021494D01*
X099749Y021395D02*
X086910Y021395D01*
X086910Y021297D02*
X099848Y021297D01*
X099946Y021198D02*
X086910Y021198D01*
X086910Y021100D02*
X100045Y021100D01*
X100143Y021001D02*
X086910Y021001D01*
X086910Y020903D02*
X100242Y020903D01*
X100340Y020804D02*
X086910Y020804D01*
X090179Y020706D02*
X100439Y020706D01*
X100537Y020607D02*
X090365Y020607D01*
X090463Y020509D02*
X100636Y020509D01*
X100734Y020410D02*
X090562Y020410D01*
X090660Y020312D02*
X100833Y020312D01*
X100931Y020213D02*
X090759Y020213D01*
X090857Y020115D02*
X101030Y020115D01*
X101128Y020016D02*
X090956Y020016D01*
X091054Y019918D02*
X101227Y019918D01*
X101325Y019819D02*
X091153Y019819D01*
X090004Y019130D02*
X086910Y019130D01*
X086910Y019228D02*
X089905Y019228D01*
X089807Y019327D02*
X086910Y019327D01*
X086910Y019425D02*
X089708Y019425D01*
X090102Y019031D02*
X086910Y019031D01*
X086910Y018933D02*
X090201Y018933D01*
X090299Y018834D02*
X086910Y018834D01*
X086910Y018736D02*
X090398Y018736D01*
X090496Y018637D02*
X086910Y018637D01*
X086910Y018539D02*
X090600Y018539D01*
X090011Y017862D02*
X089828Y018044D01*
X089589Y018143D01*
X089330Y018143D01*
X089091Y018044D01*
X088908Y017862D01*
X088810Y017623D01*
X088810Y017364D01*
X088908Y017125D01*
X089091Y016942D01*
X089330Y016843D01*
X089589Y016843D01*
X089828Y016942D01*
X090011Y017125D01*
X090110Y017364D01*
X090110Y017623D01*
X090011Y017862D01*
X090016Y017849D02*
X101784Y017849D01*
X101883Y017751D02*
X090056Y017751D01*
X090097Y017652D02*
X101981Y017652D01*
X102080Y017554D02*
X090110Y017554D01*
X090110Y017455D02*
X102178Y017455D01*
X102277Y017357D02*
X090107Y017357D01*
X090066Y017258D02*
X102375Y017258D01*
X102320Y017160D02*
X102474Y017160D01*
X102478Y017094D02*
X102239Y017193D01*
X101980Y017193D01*
X101741Y017094D01*
X101558Y016912D01*
X101460Y016673D01*
X101460Y016414D01*
X101558Y016175D01*
X101741Y015992D01*
X101980Y015893D01*
X102239Y015893D01*
X102478Y015992D01*
X102661Y016175D01*
X102760Y016414D01*
X102760Y016673D01*
X102661Y016912D01*
X102478Y017094D01*
X102511Y017061D02*
X102572Y017061D01*
X102609Y016963D02*
X102671Y016963D01*
X102680Y016864D02*
X102769Y016864D01*
X102721Y016766D02*
X102868Y016766D01*
X102966Y016667D02*
X102760Y016667D01*
X102760Y016569D02*
X103065Y016569D01*
X103163Y016470D02*
X102760Y016470D01*
X102742Y016372D02*
X103262Y016372D01*
X103458Y016273D02*
X102701Y016273D01*
X102660Y016175D02*
X109570Y016175D01*
X109471Y016273D02*
X107561Y016273D01*
X107757Y016372D02*
X109373Y016372D01*
X109274Y016470D02*
X107856Y016470D01*
X107929Y016569D02*
X109176Y016569D01*
X109077Y016667D02*
X107969Y016667D01*
X108010Y016766D02*
X108979Y016766D01*
X108880Y016864D02*
X108010Y016864D01*
X108010Y016963D02*
X108782Y016963D01*
X108683Y017061D02*
X107993Y017061D01*
X107953Y017160D02*
X108585Y017160D01*
X111013Y017948D02*
X113440Y017948D01*
X113440Y018046D02*
X110915Y018046D01*
X110816Y018145D02*
X113472Y018145D01*
X113440Y018067D02*
X113440Y017820D01*
X113534Y017592D01*
X113708Y017418D01*
X113936Y017323D01*
X114183Y017323D01*
X114411Y017418D01*
X114560Y017566D01*
X114708Y017418D01*
X114936Y017323D01*
X115183Y017323D01*
X115411Y017418D01*
X115560Y017566D01*
X115708Y017418D01*
X115936Y017323D01*
X116183Y017323D01*
X116411Y017418D01*
X116560Y017566D01*
X116708Y017418D01*
X116936Y017323D01*
X117183Y017323D01*
X117411Y017418D01*
X117585Y017592D01*
X117680Y017820D01*
X117680Y018067D01*
X117585Y018295D01*
X117436Y018443D01*
X117585Y018592D01*
X117680Y018820D01*
X117680Y019067D01*
X117585Y019295D01*
X117411Y019469D01*
X117183Y019563D01*
X116936Y019563D01*
X116708Y019469D01*
X116560Y019320D01*
X116411Y019469D01*
X116183Y019563D01*
X115936Y019563D01*
X115708Y019469D01*
X115534Y019295D01*
X115440Y019067D01*
X115440Y018820D01*
X115534Y018592D01*
X115683Y018443D01*
X115560Y018320D01*
X115411Y018469D01*
X115183Y018563D01*
X114936Y018563D01*
X114708Y018469D01*
X114560Y018320D01*
X114411Y018469D01*
X114183Y018563D01*
X113936Y018563D01*
X113708Y018469D01*
X113534Y018295D01*
X113440Y018067D01*
X113513Y018243D02*
X110718Y018243D01*
X110619Y018342D02*
X113581Y018342D01*
X113680Y018440D02*
X110521Y018440D01*
X110422Y018539D02*
X113877Y018539D01*
X114242Y018539D02*
X114877Y018539D01*
X114680Y018440D02*
X114439Y018440D01*
X114538Y018342D02*
X114581Y018342D01*
X115242Y018539D02*
X115587Y018539D01*
X115515Y018637D02*
X110324Y018637D01*
X110225Y018736D02*
X115474Y018736D01*
X115440Y018834D02*
X110127Y018834D01*
X110028Y018933D02*
X115440Y018933D01*
X115440Y019031D02*
X109930Y019031D01*
X109831Y019130D02*
X115466Y019130D01*
X115506Y019228D02*
X109733Y019228D01*
X109634Y019327D02*
X115566Y019327D01*
X115665Y019425D02*
X109536Y019425D01*
X109437Y019524D02*
X115841Y019524D01*
X116278Y019524D02*
X116841Y019524D01*
X116665Y019425D02*
X116454Y019425D01*
X116553Y019327D02*
X116566Y019327D01*
X117278Y019524D02*
X127010Y019524D01*
X127010Y019622D02*
X109339Y019622D01*
X109151Y019721D02*
X127010Y019721D01*
X127010Y019819D02*
X107642Y019819D01*
X107543Y019918D02*
X127010Y019918D01*
X127010Y020016D02*
X107445Y020016D01*
X107346Y020115D02*
X127010Y020115D01*
X127010Y020213D02*
X107248Y020213D01*
X107149Y020312D02*
X127010Y020312D01*
X127010Y020410D02*
X107051Y020410D01*
X106952Y020509D02*
X107212Y020509D01*
X107109Y020607D02*
X106854Y020607D01*
X106755Y020706D02*
X107050Y020706D01*
X107010Y020804D02*
X106657Y020804D01*
X106558Y020903D02*
X107010Y020903D01*
X107010Y021001D02*
X106460Y021001D01*
X106361Y021100D02*
X107010Y021100D01*
X107010Y021198D02*
X106263Y021198D01*
X106164Y021297D02*
X107010Y021297D01*
X107010Y021395D02*
X106066Y021395D01*
X105967Y021494D02*
X107010Y021494D01*
X107010Y021592D02*
X105869Y021592D01*
X105770Y021691D02*
X107010Y021691D01*
X107010Y021789D02*
X105672Y021789D01*
X105573Y021888D02*
X107010Y021888D01*
X107010Y021986D02*
X105475Y021986D01*
X105376Y022085D02*
X107010Y022085D01*
X107010Y022183D02*
X105278Y022183D01*
X105179Y022282D02*
X107010Y022282D01*
X107010Y022380D02*
X105081Y022380D01*
X104982Y022479D02*
X107010Y022479D01*
X107010Y022577D02*
X104884Y022577D01*
X104785Y022676D02*
X107010Y022676D01*
X107010Y022774D02*
X104690Y022774D01*
X104690Y022873D02*
X107010Y022873D01*
X107010Y022971D02*
X104690Y022971D01*
X104690Y023070D02*
X107010Y023070D01*
X107010Y023168D02*
X104690Y023168D01*
X104690Y023267D02*
X107010Y023267D01*
X107010Y023365D02*
X104690Y023365D01*
X104690Y023464D02*
X107010Y023464D01*
X107010Y023562D02*
X104690Y023562D01*
X104690Y023661D02*
X107010Y023661D01*
X107010Y023759D02*
X104690Y023759D01*
X104690Y023858D02*
X107010Y023858D01*
X107010Y023956D02*
X104690Y023956D01*
X104690Y024055D02*
X107010Y024055D01*
X107010Y024153D02*
X104690Y024153D01*
X104690Y024252D02*
X107010Y024252D01*
X107010Y024350D02*
X104690Y024350D01*
X104690Y024449D02*
X107010Y024449D01*
X107010Y024547D02*
X104690Y024547D01*
X104690Y024646D02*
X107010Y024646D01*
X107010Y024744D02*
X104690Y024744D01*
X104690Y024843D02*
X107010Y024843D01*
X107010Y024941D02*
X104690Y024941D01*
X104690Y025040D02*
X107010Y025040D01*
X107010Y025138D02*
X104690Y025138D01*
X104690Y025237D02*
X107010Y025237D01*
X107010Y025335D02*
X104690Y025335D01*
X104690Y025434D02*
X107010Y025434D01*
X107010Y025532D02*
X104690Y025532D01*
X104690Y025631D02*
X107010Y025631D01*
X107010Y025729D02*
X104690Y025729D01*
X104669Y025828D02*
X107010Y025828D01*
X107010Y025926D02*
X104628Y025926D01*
X104536Y026025D02*
X107010Y026025D01*
X107010Y026123D02*
X104438Y026123D01*
X104339Y026222D02*
X107010Y026222D01*
X107010Y026320D02*
X104241Y026320D01*
X104142Y026419D02*
X107010Y026419D01*
X107010Y026517D02*
X104044Y026517D01*
X098687Y023661D02*
X092246Y023661D01*
X092148Y023562D02*
X098566Y023562D01*
X098468Y023464D02*
X098369Y023226D01*
X098369Y023070D02*
X091655Y023070D01*
X091557Y022971D02*
X098369Y022971D01*
X098409Y022873D02*
X091458Y022873D01*
X091360Y022774D02*
X098450Y022774D01*
X098524Y022676D02*
X091261Y022676D01*
X091163Y022577D02*
X098616Y022577D01*
X098666Y022479D02*
X091064Y022479D01*
X090112Y023365D02*
X086910Y023365D01*
X086910Y023464D02*
X090211Y023464D01*
X090309Y023562D02*
X086877Y023562D01*
X086828Y023661D02*
X090408Y023661D01*
X090506Y023759D02*
X086730Y023759D01*
X085303Y023858D02*
X090605Y023858D01*
X090703Y023956D02*
X085303Y023956D01*
X085303Y024055D02*
X090802Y024055D01*
X090900Y024153D02*
X085265Y024153D01*
X085224Y024252D02*
X090999Y024252D01*
X091097Y024350D02*
X085183Y024350D01*
X085097Y024449D02*
X091196Y024449D01*
X091294Y024547D02*
X084999Y024547D01*
X077090Y025040D02*
X076136Y025040D01*
X076373Y025138D02*
X077090Y025138D01*
X077090Y025237D02*
X076490Y025237D01*
X075683Y025040D02*
X074236Y025040D01*
X074316Y024843D02*
X075553Y024843D01*
X075373Y024744D02*
X074496Y024744D01*
X074594Y024646D02*
X075275Y024646D01*
X075176Y024547D02*
X074693Y024547D01*
X074739Y024449D02*
X075130Y024449D01*
X075090Y024350D02*
X074779Y024350D01*
X074820Y024252D02*
X075049Y024252D01*
X075035Y024153D02*
X074835Y024153D01*
X074835Y024055D02*
X075035Y024055D01*
X075035Y023956D02*
X074835Y023956D01*
X074830Y023858D02*
X075039Y023858D01*
X072189Y023759D02*
X071440Y023759D01*
X071440Y023661D02*
X072091Y023661D01*
X071992Y023562D02*
X071425Y023562D01*
X071384Y023464D02*
X071894Y023464D01*
X071795Y023365D02*
X071310Y023365D01*
X071365Y023267D02*
X071697Y023267D01*
X071598Y023168D02*
X071407Y023168D01*
X071440Y023070D02*
X071500Y023070D01*
X071010Y020543D02*
X071010Y019304D01*
X071078Y019138D01*
X071205Y019012D01*
X071370Y018943D01*
X072732Y018943D01*
X073148Y018527D01*
X073350Y018443D01*
X073466Y018443D01*
X073079Y018185D01*
X072668Y017774D01*
X072345Y017291D01*
X072123Y016754D01*
X072010Y016184D01*
X072010Y015603D01*
X072123Y015033D01*
X072345Y014496D01*
X072367Y014464D01*
X070110Y016721D01*
X070110Y020602D01*
X070250Y020543D01*
X071010Y020543D01*
X071010Y020509D02*
X070110Y020509D01*
X070110Y020410D02*
X071010Y020410D01*
X071010Y020312D02*
X070110Y020312D01*
X070110Y020213D02*
X071010Y020213D01*
X071010Y020115D02*
X070110Y020115D01*
X070110Y020016D02*
X071010Y020016D01*
X071010Y019918D02*
X070110Y019918D01*
X070110Y019819D02*
X071010Y019819D01*
X071010Y019721D02*
X070110Y019721D01*
X070110Y019622D02*
X071010Y019622D01*
X071010Y019524D02*
X070110Y019524D01*
X070110Y019425D02*
X071010Y019425D01*
X071010Y019327D02*
X070110Y019327D01*
X070110Y019228D02*
X071041Y019228D01*
X071087Y019130D02*
X070110Y019130D01*
X070110Y019031D02*
X071185Y019031D01*
X070110Y018933D02*
X072742Y018933D01*
X072841Y018834D02*
X070110Y018834D01*
X070110Y018736D02*
X072939Y018736D01*
X073038Y018637D02*
X070110Y018637D01*
X070110Y018539D02*
X073136Y018539D01*
X073314Y018342D02*
X070110Y018342D01*
X070110Y018440D02*
X073462Y018440D01*
X073167Y018243D02*
X070110Y018243D01*
X070110Y018145D02*
X073039Y018145D01*
X072941Y018046D02*
X070110Y018046D01*
X070110Y017948D02*
X072842Y017948D01*
X072744Y017849D02*
X070110Y017849D01*
X070110Y017751D02*
X072653Y017751D01*
X072587Y017652D02*
X070110Y017652D01*
X070110Y017554D02*
X072521Y017554D01*
X072455Y017455D02*
X070110Y017455D01*
X070110Y017357D02*
X072389Y017357D01*
X072332Y017258D02*
X070110Y017258D01*
X070110Y017160D02*
X072291Y017160D01*
X072250Y017061D02*
X070110Y017061D01*
X070110Y016963D02*
X072209Y016963D01*
X072169Y016864D02*
X070110Y016864D01*
X070110Y016766D02*
X072128Y016766D01*
X072106Y016667D02*
X070163Y016667D01*
X070262Y016569D02*
X072086Y016569D01*
X072066Y016470D02*
X070360Y016470D01*
X070459Y016372D02*
X072047Y016372D01*
X072027Y016273D02*
X070557Y016273D01*
X070656Y016175D02*
X072010Y016175D01*
X072010Y016076D02*
X070754Y016076D01*
X070853Y015978D02*
X072010Y015978D01*
X072010Y015879D02*
X070951Y015879D01*
X071050Y015781D02*
X072010Y015781D01*
X072010Y015682D02*
X071148Y015682D01*
X071247Y015584D02*
X072013Y015584D01*
X072033Y015485D02*
X071345Y015485D01*
X071444Y015387D02*
X072052Y015387D01*
X072072Y015288D02*
X071542Y015288D01*
X071641Y015190D02*
X072092Y015190D01*
X072111Y015091D02*
X071739Y015091D01*
X071838Y014993D02*
X072139Y014993D01*
X072180Y014894D02*
X071936Y014894D01*
X072035Y014796D02*
X072221Y014796D01*
X072262Y014697D02*
X072133Y014697D01*
X072232Y014599D02*
X072303Y014599D01*
X072330Y014500D02*
X072343Y014500D01*
X071267Y014008D02*
X063840Y014008D01*
X063938Y014106D02*
X071169Y014106D01*
X071070Y014205D02*
X064037Y014205D01*
X064135Y014303D02*
X070972Y014303D01*
X070873Y014402D02*
X064234Y014402D01*
X064332Y014500D02*
X070775Y014500D01*
X070676Y014599D02*
X064431Y014599D01*
X064529Y014697D02*
X070578Y014697D01*
X070479Y014796D02*
X064628Y014796D01*
X064726Y014894D02*
X070381Y014894D01*
X070282Y014993D02*
X064825Y014993D01*
X064923Y015091D02*
X070184Y015091D01*
X070085Y015190D02*
X065022Y015190D01*
X065120Y015288D02*
X069987Y015288D01*
X069888Y015387D02*
X065219Y015387D01*
X065317Y015485D02*
X069790Y015485D01*
X069691Y015584D02*
X065416Y015584D01*
X065514Y015682D02*
X069593Y015682D01*
X069494Y015781D02*
X065613Y015781D01*
X065711Y015879D02*
X069396Y015879D01*
X069297Y015978D02*
X065810Y015978D01*
X065908Y016076D02*
X069199Y016076D01*
X069100Y016175D02*
X066007Y016175D01*
X066105Y016273D02*
X069055Y016273D01*
X069015Y016372D02*
X066204Y016372D01*
X066302Y016470D02*
X069010Y016470D01*
X069010Y016569D02*
X066401Y016569D01*
X066499Y016667D02*
X069010Y016667D01*
X069010Y016766D02*
X066598Y016766D01*
X066696Y016864D02*
X069010Y016864D01*
X069010Y016963D02*
X066795Y016963D01*
X066893Y017061D02*
X069010Y017061D01*
X069010Y017160D02*
X066992Y017160D01*
X067090Y017258D02*
X069010Y017258D01*
X069010Y017357D02*
X067189Y017357D01*
X067287Y017455D02*
X069010Y017455D01*
X069010Y017554D02*
X067386Y017554D01*
X067484Y017652D02*
X069010Y017652D01*
X069010Y017751D02*
X067583Y017751D01*
X067681Y017849D02*
X069010Y017849D01*
X069010Y017948D02*
X067780Y017948D01*
X067878Y018046D02*
X069010Y018046D01*
X069010Y018145D02*
X067977Y018145D01*
X068075Y018243D02*
X069010Y018243D01*
X069010Y018342D02*
X068174Y018342D01*
X068272Y018440D02*
X069010Y018440D01*
X069010Y018539D02*
X068371Y018539D01*
X068469Y018637D02*
X069010Y018637D01*
X069010Y018736D02*
X068568Y018736D01*
X068666Y018834D02*
X069010Y018834D01*
X069010Y018933D02*
X068765Y018933D01*
X068863Y019031D02*
X069010Y019031D01*
X069010Y019130D02*
X068962Y019130D01*
X068960Y019693D02*
X060360Y011093D01*
X053860Y011093D01*
X053360Y010593D01*
X045760Y010593D01*
X045560Y010793D01*
X045880Y011151D02*
X048040Y011151D01*
X047999Y011250D02*
X045712Y011250D01*
X045407Y011250D02*
X041743Y011250D01*
X041893Y011348D02*
X047980Y011348D01*
X047980Y011447D02*
X041977Y011447D01*
X042018Y011545D02*
X048003Y011545D01*
X048044Y011644D02*
X042040Y011644D01*
X042040Y011742D02*
X048130Y011742D01*
X048286Y011841D02*
X044721Y011841D01*
X044884Y011939D02*
X051000Y011939D01*
X051028Y011871D02*
X051238Y011662D01*
X051511Y011548D01*
X051808Y011548D01*
X052082Y011662D01*
X052291Y011871D01*
X052405Y012145D01*
X052405Y012441D01*
X052291Y012715D01*
X052082Y012925D01*
X051808Y013038D01*
X051511Y013038D01*
X051238Y012925D01*
X051028Y012715D01*
X050915Y012441D01*
X050915Y012145D01*
X051028Y011871D01*
X051058Y011841D02*
X048633Y011841D01*
X048789Y011742D02*
X051157Y011742D01*
X051281Y011644D02*
X048875Y011644D01*
X048916Y011545D02*
X060246Y011545D01*
X060344Y011644D02*
X052038Y011644D01*
X052162Y011742D02*
X060443Y011742D01*
X060541Y011841D02*
X052261Y011841D01*
X052319Y011939D02*
X060640Y011939D01*
X060738Y012038D02*
X052360Y012038D01*
X052401Y012136D02*
X060837Y012136D01*
X060935Y012235D02*
X052405Y012235D01*
X052405Y012333D02*
X061034Y012333D01*
X061132Y012432D02*
X052405Y012432D01*
X052368Y012530D02*
X061231Y012530D01*
X061329Y012629D02*
X052327Y012629D01*
X052279Y012727D02*
X061428Y012727D01*
X061526Y012826D02*
X052181Y012826D01*
X052082Y012924D02*
X061625Y012924D01*
X061723Y013023D02*
X051845Y013023D01*
X051474Y013023D02*
X044960Y013023D01*
X044960Y013121D02*
X059119Y013121D01*
X058982Y013178D02*
X059292Y013050D01*
X059627Y013050D01*
X059937Y013178D01*
X060175Y013415D01*
X060303Y013725D01*
X060303Y014061D01*
X060175Y014371D01*
X059937Y014609D01*
X059627Y014737D01*
X059292Y014737D01*
X058982Y014609D01*
X058744Y014371D01*
X058616Y014061D01*
X058616Y013725D01*
X058744Y013415D01*
X058982Y013178D01*
X058940Y013220D02*
X044960Y013220D01*
X044960Y013318D02*
X058841Y013318D01*
X058744Y013417D02*
X044960Y013417D01*
X044960Y013515D02*
X058703Y013515D01*
X058662Y013614D02*
X044960Y013614D01*
X044960Y013712D02*
X058621Y013712D01*
X058616Y013811D02*
X044960Y013811D01*
X044960Y013909D02*
X058616Y013909D01*
X058616Y014008D02*
X044960Y014008D01*
X044960Y014106D02*
X058635Y014106D01*
X058675Y014205D02*
X044960Y014205D01*
X044960Y014303D02*
X045171Y014303D01*
X045072Y014402D02*
X044960Y014402D01*
X044960Y014500D02*
X045020Y014500D01*
X044980Y014599D02*
X044960Y014599D01*
X044960Y014697D02*
X044980Y014697D01*
X044982Y014796D02*
X044960Y014796D01*
X044960Y014894D02*
X045023Y014894D01*
X045080Y014993D02*
X044960Y014993D01*
X044960Y015091D02*
X045179Y015091D01*
X044960Y015190D02*
X046090Y015190D01*
X046268Y015288D02*
X044960Y015288D01*
X044960Y015387D02*
X046980Y015387D01*
X046980Y015485D02*
X044960Y015485D01*
X044960Y015584D02*
X047019Y015584D01*
X047070Y015682D02*
X044960Y015682D01*
X044960Y015781D02*
X047168Y015781D01*
X047751Y015781D02*
X056814Y015781D01*
X056814Y015879D02*
X044960Y015879D01*
X044960Y015978D02*
X056814Y015978D01*
X056837Y016076D02*
X045008Y016076D01*
X045107Y016175D02*
X056878Y016175D01*
X056927Y016273D02*
X053305Y016273D01*
X053404Y016372D02*
X057025Y016372D01*
X057166Y016470D02*
X053502Y016470D01*
X053601Y016569D02*
X064769Y016569D01*
X064671Y016470D02*
X057753Y016470D01*
X057894Y016372D02*
X064572Y016372D01*
X064474Y016273D02*
X057992Y016273D01*
X058041Y016175D02*
X064375Y016175D01*
X064277Y016076D02*
X058082Y016076D01*
X058105Y015978D02*
X064178Y015978D01*
X064080Y015879D02*
X058105Y015879D01*
X058105Y015781D02*
X063981Y015781D01*
X064060Y015293D02*
X067660Y018893D01*
X067660Y018993D01*
X066236Y018736D02*
X055630Y018736D01*
X055868Y018637D02*
X066138Y018637D01*
X066039Y018539D02*
X056007Y018539D01*
X056106Y018440D02*
X065941Y018440D01*
X065842Y018342D02*
X056187Y018342D01*
X056228Y018243D02*
X065744Y018243D01*
X065645Y018145D02*
X056269Y018145D01*
X056303Y018046D02*
X065547Y018046D01*
X065448Y017948D02*
X056303Y017948D01*
X056303Y017849D02*
X065350Y017849D01*
X065251Y017751D02*
X056303Y017751D01*
X056273Y017652D02*
X065153Y017652D01*
X065054Y017554D02*
X056232Y017554D01*
X056191Y017455D02*
X064956Y017455D01*
X064060Y015293D02*
X048260Y015293D01*
X047860Y014893D01*
X046360Y014893D01*
X046160Y014693D01*
X045460Y014693D01*
X046263Y014303D02*
X058716Y014303D01*
X058775Y014402D02*
X046434Y014402D01*
X047956Y014500D02*
X058873Y014500D01*
X058972Y014599D02*
X048131Y014599D01*
X048229Y014697D02*
X059196Y014697D01*
X059723Y014697D02*
X063398Y014697D01*
X063299Y014599D02*
X059947Y014599D01*
X060046Y014500D02*
X063201Y014500D01*
X063102Y014402D02*
X060144Y014402D01*
X060203Y014303D02*
X063004Y014303D01*
X062905Y014205D02*
X060244Y014205D01*
X060284Y014106D02*
X062807Y014106D01*
X062708Y014008D02*
X060303Y014008D01*
X060303Y013909D02*
X062610Y013909D01*
X062511Y013811D02*
X060303Y013811D01*
X060298Y013712D02*
X062413Y013712D01*
X062314Y013614D02*
X060257Y013614D01*
X060216Y013515D02*
X062216Y013515D01*
X062117Y013417D02*
X060175Y013417D01*
X060078Y013318D02*
X062019Y013318D01*
X061920Y013220D02*
X059979Y013220D01*
X059800Y013121D02*
X061822Y013121D01*
X062362Y012530D02*
X071180Y012530D01*
X071180Y012629D02*
X062461Y012629D01*
X062559Y012727D02*
X071195Y012727D01*
X071236Y012826D02*
X062658Y012826D01*
X062756Y012924D02*
X071312Y012924D01*
X071252Y013023D02*
X062855Y013023D01*
X062953Y013121D02*
X071211Y013121D01*
X071180Y013220D02*
X063052Y013220D01*
X063150Y013318D02*
X071180Y013318D01*
X071191Y013417D02*
X063249Y013417D01*
X063347Y013515D02*
X071232Y013515D01*
X071301Y013614D02*
X063446Y013614D01*
X063544Y013712D02*
X071417Y013712D01*
X071464Y013811D02*
X063643Y013811D01*
X063741Y013909D02*
X071366Y013909D01*
X073561Y013220D02*
X073705Y013220D01*
X073602Y013121D02*
X073943Y013121D01*
X074269Y013023D02*
X073610Y013023D01*
X073610Y012924D02*
X120530Y012924D01*
X120432Y013023D02*
X075650Y013023D01*
X075976Y013121D02*
X120385Y013121D01*
X120344Y013220D02*
X076214Y013220D01*
X076416Y013318D02*
X120325Y013318D01*
X120325Y013417D02*
X076563Y013417D01*
X076710Y013515D02*
X120325Y013515D01*
X120364Y013614D02*
X076852Y013614D01*
X076950Y013712D02*
X120404Y013712D01*
X120479Y013811D02*
X077049Y013811D01*
X077147Y013909D02*
X120545Y013909D01*
X120447Y014008D02*
X087604Y014008D01*
X087800Y014106D02*
X120391Y014106D01*
X120350Y014205D02*
X087899Y014205D01*
X087955Y014303D02*
X120325Y014303D01*
X120325Y014402D02*
X087996Y014402D01*
X088010Y014500D02*
X120325Y014500D01*
X120357Y014599D02*
X088010Y014599D01*
X087991Y014697D02*
X120398Y014697D01*
X120464Y014796D02*
X120176Y014796D01*
X120359Y014894D02*
X120560Y014894D01*
X120462Y014993D02*
X120457Y014993D01*
X119743Y014796D02*
X119176Y014796D01*
X119359Y014894D02*
X119560Y014894D01*
X119462Y014993D02*
X119457Y014993D01*
X118743Y014796D02*
X118176Y014796D01*
X118359Y014894D02*
X118560Y014894D01*
X118462Y014993D02*
X118457Y014993D01*
X117743Y014796D02*
X117176Y014796D01*
X117359Y014894D02*
X117560Y014894D01*
X117462Y014993D02*
X117457Y014993D01*
X116743Y014796D02*
X116176Y014796D01*
X116359Y014894D02*
X116560Y014894D01*
X116462Y014993D02*
X116457Y014993D01*
X115743Y014796D02*
X115176Y014796D01*
X115359Y014894D02*
X115560Y014894D01*
X115462Y014993D02*
X115457Y014993D01*
X114743Y014796D02*
X114176Y014796D01*
X114359Y014894D02*
X114560Y014894D01*
X114462Y014993D02*
X114457Y014993D01*
X113743Y014796D02*
X113176Y014796D01*
X113359Y014894D02*
X113560Y014894D01*
X113462Y014993D02*
X113457Y014993D01*
X112743Y014796D02*
X112176Y014796D01*
X112359Y014894D02*
X112560Y014894D01*
X112462Y014993D02*
X112457Y014993D01*
X111743Y014796D02*
X111176Y014796D01*
X111359Y014894D02*
X111560Y014894D01*
X111462Y014993D02*
X111457Y014993D01*
X110743Y014796D02*
X110176Y014796D01*
X110359Y014894D02*
X110560Y014894D01*
X110462Y014993D02*
X110457Y014993D01*
X109743Y014796D02*
X109176Y014796D01*
X109359Y014894D02*
X109560Y014894D01*
X109462Y014993D02*
X109457Y014993D01*
X108743Y014796D02*
X108176Y014796D01*
X108359Y014894D02*
X108560Y014894D01*
X108462Y014993D02*
X108457Y014993D01*
X107743Y014796D02*
X087950Y014796D01*
X087886Y014894D02*
X107560Y014894D01*
X107462Y014993D02*
X087788Y014993D01*
X087689Y015091D02*
X107397Y015091D01*
X107356Y015190D02*
X087591Y015190D01*
X087492Y015288D02*
X107325Y015288D01*
X107325Y015387D02*
X087394Y015387D01*
X087295Y015485D02*
X107325Y015485D01*
X107351Y015584D02*
X087197Y015584D01*
X087098Y015682D02*
X107392Y015682D01*
X107449Y015781D02*
X087000Y015781D01*
X086901Y015879D02*
X107548Y015879D01*
X107711Y015978D02*
X102443Y015978D01*
X102562Y016076D02*
X109668Y016076D01*
X109711Y015978D02*
X109208Y015978D01*
X109372Y015879D02*
X109548Y015879D01*
X108711Y015978D02*
X108208Y015978D01*
X108372Y015879D02*
X108548Y015879D01*
X112195Y016766D02*
X123083Y016766D01*
X123042Y016864D02*
X112097Y016864D01*
X111998Y016963D02*
X123040Y016963D01*
X123040Y016870D02*
X123134Y016642D01*
X123283Y016493D01*
X123134Y016345D01*
X123040Y016117D01*
X123040Y015870D01*
X123134Y015642D01*
X123283Y015493D01*
X123134Y015345D01*
X123040Y015117D01*
X123040Y014870D01*
X123134Y014642D01*
X123283Y014493D01*
X123134Y014345D01*
X123040Y014117D01*
X123040Y013870D01*
X123134Y013642D01*
X123283Y013493D01*
X123134Y013345D01*
X123040Y013117D01*
X123040Y012870D01*
X123134Y012642D01*
X123283Y012493D01*
X123134Y012345D01*
X123040Y012117D01*
X123040Y011870D01*
X123134Y011642D01*
X123283Y011493D01*
X123134Y011345D01*
X123040Y011117D01*
X123040Y010870D01*
X123134Y010642D01*
X123308Y010468D01*
X123536Y010373D01*
X123783Y010373D01*
X124011Y010468D01*
X124185Y010642D01*
X124280Y010870D01*
X124280Y011117D01*
X124185Y011345D01*
X124036Y011493D01*
X124185Y011642D01*
X124280Y011870D01*
X124280Y012117D01*
X124185Y012345D01*
X124036Y012493D01*
X124185Y012642D01*
X124280Y012870D01*
X124280Y013117D01*
X124185Y013345D01*
X124036Y013493D01*
X124185Y013642D01*
X124280Y013870D01*
X124280Y014117D01*
X124185Y014345D01*
X124036Y014493D01*
X124185Y014642D01*
X124280Y014870D01*
X124280Y015117D01*
X124185Y015345D01*
X124036Y015493D01*
X124185Y015642D01*
X124280Y015870D01*
X124280Y016117D01*
X124185Y016345D01*
X124036Y016493D01*
X124185Y016642D01*
X124280Y016870D01*
X124280Y017117D01*
X124185Y017345D01*
X124036Y017493D01*
X124185Y017642D01*
X124280Y017870D01*
X124280Y018117D01*
X124185Y018345D01*
X124011Y018519D01*
X123783Y018613D01*
X123536Y018613D01*
X123308Y018519D01*
X123134Y018345D01*
X123040Y018117D01*
X123040Y017870D01*
X123134Y017642D01*
X123283Y017493D01*
X123134Y017345D01*
X123040Y017117D01*
X123040Y016870D01*
X123040Y017061D02*
X111900Y017061D01*
X111801Y017160D02*
X123057Y017160D01*
X123098Y017258D02*
X111703Y017258D01*
X111604Y017357D02*
X113855Y017357D01*
X113671Y017455D02*
X111506Y017455D01*
X111407Y017554D02*
X113572Y017554D01*
X113509Y017652D02*
X111309Y017652D01*
X111210Y017751D02*
X113468Y017751D01*
X113440Y017849D02*
X111112Y017849D01*
X108698Y018046D02*
X104315Y018046D01*
X104216Y018145D02*
X108600Y018145D01*
X108501Y018243D02*
X104118Y018243D01*
X104019Y018342D02*
X104603Y018342D01*
X104504Y018440D02*
X103921Y018440D01*
X103822Y018539D02*
X104406Y018539D01*
X104307Y018637D02*
X103724Y018637D01*
X101587Y018046D02*
X089823Y018046D01*
X089924Y017948D02*
X101686Y017948D01*
X101489Y018145D02*
X086910Y018145D01*
X086910Y018243D02*
X101390Y018243D01*
X101292Y018342D02*
X086910Y018342D01*
X086910Y018440D02*
X101193Y018440D01*
X101899Y017160D02*
X100320Y017160D01*
X100239Y017193D02*
X099980Y017193D01*
X099741Y017094D01*
X099558Y016912D01*
X099460Y016673D01*
X099460Y016414D01*
X099558Y016175D01*
X099741Y015992D01*
X099980Y015893D01*
X100239Y015893D01*
X100478Y015992D01*
X100661Y016175D01*
X100760Y016414D01*
X100760Y016673D01*
X100661Y016912D01*
X100478Y017094D01*
X100239Y017193D01*
X100511Y017061D02*
X101708Y017061D01*
X101610Y016963D02*
X100609Y016963D01*
X100680Y016864D02*
X101539Y016864D01*
X101498Y016766D02*
X100721Y016766D01*
X100760Y016667D02*
X101460Y016667D01*
X101460Y016569D02*
X100760Y016569D01*
X100760Y016470D02*
X101460Y016470D01*
X101477Y016372D02*
X100742Y016372D01*
X100701Y016273D02*
X101518Y016273D01*
X101559Y016175D02*
X100660Y016175D01*
X100562Y016076D02*
X101657Y016076D01*
X101776Y015978D02*
X100443Y015978D01*
X099776Y015978D02*
X086803Y015978D01*
X086704Y016076D02*
X099657Y016076D01*
X099559Y016175D02*
X086606Y016175D01*
X086488Y016273D02*
X099518Y016273D01*
X099477Y016372D02*
X083859Y016372D01*
X083760Y016470D02*
X099460Y016470D01*
X099460Y016569D02*
X083662Y016569D01*
X083563Y016667D02*
X099460Y016667D01*
X099498Y016766D02*
X083465Y016766D01*
X083366Y016864D02*
X089279Y016864D01*
X089071Y016963D02*
X086596Y016963D01*
X086764Y017061D02*
X088972Y017061D01*
X088894Y017160D02*
X086850Y017160D01*
X086891Y017258D02*
X088853Y017258D01*
X088812Y017357D02*
X086910Y017357D01*
X086910Y017455D02*
X088810Y017455D01*
X088810Y017554D02*
X086910Y017554D01*
X086910Y017652D02*
X088822Y017652D01*
X088863Y017751D02*
X086910Y017751D01*
X086910Y017849D02*
X088903Y017849D01*
X088995Y017948D02*
X086910Y017948D01*
X086910Y018046D02*
X089096Y018046D01*
X090025Y017160D02*
X099899Y017160D01*
X099708Y017061D02*
X089947Y017061D01*
X089848Y016963D02*
X099610Y016963D01*
X099539Y016864D02*
X089640Y016864D01*
X083323Y016963D02*
X083268Y016963D01*
X082106Y016569D02*
X077833Y016569D01*
X077813Y016667D02*
X082008Y016667D01*
X081909Y016766D02*
X077791Y016766D01*
X077750Y016864D02*
X081811Y016864D01*
X081712Y016963D02*
X077710Y016963D01*
X077669Y017061D02*
X081614Y017061D01*
X081515Y017160D02*
X077628Y017160D01*
X077587Y017258D02*
X081417Y017258D01*
X081318Y017357D02*
X077530Y017357D01*
X077464Y017455D02*
X081220Y017455D01*
X081121Y017554D02*
X077398Y017554D01*
X077332Y017652D02*
X081023Y017652D01*
X080924Y017751D02*
X077266Y017751D01*
X077175Y017849D02*
X080826Y017849D01*
X080727Y017948D02*
X077077Y017948D01*
X076978Y018046D02*
X080629Y018046D01*
X080530Y018145D02*
X076880Y018145D01*
X076752Y018243D02*
X080432Y018243D01*
X080333Y018342D02*
X076605Y018342D01*
X076457Y018440D02*
X080235Y018440D01*
X082205Y016470D02*
X077853Y016470D01*
X077872Y016372D02*
X082303Y016372D01*
X082402Y016273D02*
X077892Y016273D01*
X077910Y016175D02*
X082500Y016175D01*
X082599Y016076D02*
X077910Y016076D01*
X077910Y015978D02*
X080272Y015978D01*
X080191Y015944D02*
X080008Y015762D01*
X079910Y015523D01*
X079910Y015264D01*
X080008Y015025D01*
X080191Y014842D01*
X080430Y014743D01*
X080689Y014743D01*
X080928Y014842D01*
X081111Y015025D01*
X081210Y015264D01*
X081210Y015523D01*
X081111Y015762D01*
X080928Y015944D01*
X080689Y016043D01*
X080430Y016043D01*
X080191Y015944D01*
X080126Y015879D02*
X077910Y015879D01*
X077910Y015781D02*
X080028Y015781D01*
X079976Y015682D02*
X077910Y015682D01*
X077906Y015584D02*
X079935Y015584D01*
X079910Y015485D02*
X077886Y015485D01*
X077867Y015387D02*
X079910Y015387D01*
X079910Y015288D02*
X077847Y015288D01*
X077827Y015190D02*
X079940Y015190D01*
X079981Y015091D02*
X077808Y015091D01*
X077780Y014993D02*
X080041Y014993D01*
X080139Y014894D02*
X077739Y014894D01*
X077698Y014796D02*
X080303Y014796D01*
X080816Y014796D02*
X086429Y014796D01*
X086331Y014894D02*
X080980Y014894D01*
X081078Y014993D02*
X086232Y014993D01*
X086134Y015091D02*
X081138Y015091D01*
X081179Y015190D02*
X086035Y015190D01*
X086528Y014697D02*
X077657Y014697D01*
X077616Y014599D02*
X086626Y014599D01*
X086725Y014500D02*
X077576Y014500D01*
X077511Y014402D02*
X086823Y014402D01*
X086922Y014303D02*
X077445Y014303D01*
X077379Y014205D02*
X087020Y014205D01*
X087119Y014106D02*
X077313Y014106D01*
X077246Y014008D02*
X087315Y014008D01*
X083441Y015288D02*
X081210Y015288D01*
X081210Y015387D02*
X083288Y015387D01*
X083190Y015485D02*
X081210Y015485D01*
X081184Y015584D02*
X083091Y015584D01*
X082993Y015682D02*
X081143Y015682D01*
X081091Y015781D02*
X082894Y015781D01*
X082796Y015879D02*
X080993Y015879D01*
X080847Y015978D02*
X082697Y015978D01*
X072351Y012924D02*
X072007Y012924D01*
X072067Y013023D02*
X072252Y013023D01*
X072154Y013121D02*
X072108Y013121D01*
X072083Y012826D02*
X072449Y012826D01*
X072510Y012727D02*
X072124Y012727D01*
X072140Y012629D02*
X072510Y012629D01*
X072510Y012530D02*
X072140Y012530D01*
X072112Y012432D02*
X072510Y012432D01*
X072510Y012333D02*
X072071Y012333D01*
X071997Y012235D02*
X072510Y012235D01*
X072510Y012136D02*
X072078Y012136D01*
X072119Y012038D02*
X072510Y012038D01*
X072510Y011939D02*
X072140Y011939D01*
X072140Y011841D02*
X072510Y011841D01*
X072510Y011742D02*
X072117Y011742D01*
X072076Y011644D02*
X072510Y011644D01*
X072510Y011545D02*
X071990Y011545D01*
X072074Y011447D02*
X072510Y011447D01*
X072510Y011348D02*
X072115Y011348D01*
X072140Y011250D02*
X072510Y011250D01*
X072510Y011151D02*
X072140Y011151D01*
X072121Y011053D02*
X072510Y011053D01*
X072510Y010954D02*
X072080Y010954D01*
X072001Y010856D02*
X072510Y010856D01*
X072510Y010757D02*
X071861Y010757D01*
X071458Y010757D02*
X060589Y010757D01*
X060688Y010856D02*
X071318Y010856D01*
X071239Y010954D02*
X060786Y010954D01*
X060885Y011053D02*
X071198Y011053D01*
X071180Y011151D02*
X060983Y011151D01*
X061082Y011250D02*
X071180Y011250D01*
X071204Y011348D02*
X061180Y011348D01*
X061279Y011447D02*
X071245Y011447D01*
X071329Y011545D02*
X061377Y011545D01*
X061476Y011644D02*
X071243Y011644D01*
X071203Y011742D02*
X061574Y011742D01*
X061673Y011841D02*
X071180Y011841D01*
X071180Y011939D02*
X061771Y011939D01*
X061870Y012038D02*
X071200Y012038D01*
X071241Y012136D02*
X061968Y012136D01*
X062067Y012235D02*
X071322Y012235D01*
X071248Y012333D02*
X062165Y012333D01*
X062264Y012432D02*
X071207Y012432D01*
X073610Y012432D02*
X123221Y012432D01*
X123246Y012530D02*
X073610Y012530D01*
X073610Y012629D02*
X123147Y012629D01*
X123099Y012727D02*
X073610Y012727D01*
X073610Y012826D02*
X120670Y012826D01*
X121249Y012826D02*
X123058Y012826D01*
X123040Y012924D02*
X121389Y012924D01*
X121487Y013023D02*
X123040Y013023D01*
X123041Y013121D02*
X121534Y013121D01*
X121575Y013220D02*
X123082Y013220D01*
X123123Y013318D02*
X121595Y013318D01*
X121595Y013417D02*
X123206Y013417D01*
X123261Y013515D02*
X121595Y013515D01*
X121555Y013614D02*
X123162Y013614D01*
X123105Y013712D02*
X121515Y013712D01*
X121440Y013811D02*
X123064Y013811D01*
X123040Y013909D02*
X121374Y013909D01*
X121472Y014008D02*
X123040Y014008D01*
X123040Y014106D02*
X121528Y014106D01*
X121569Y014205D02*
X123076Y014205D01*
X123117Y014303D02*
X121595Y014303D01*
X121595Y014402D02*
X123191Y014402D01*
X123276Y014500D02*
X121595Y014500D01*
X121562Y014599D02*
X123177Y014599D01*
X123111Y014697D02*
X121521Y014697D01*
X121455Y014796D02*
X123070Y014796D01*
X123040Y014894D02*
X121359Y014894D01*
X121457Y014993D02*
X123040Y014993D01*
X123040Y015091D02*
X121522Y015091D01*
X121563Y015190D02*
X123070Y015190D01*
X123111Y015288D02*
X121595Y015288D01*
X121595Y015387D02*
X123176Y015387D01*
X123275Y015485D02*
X121595Y015485D01*
X121568Y015584D02*
X123192Y015584D01*
X123117Y015682D02*
X121527Y015682D01*
X121470Y015781D02*
X123076Y015781D01*
X123040Y015879D02*
X121372Y015879D01*
X121208Y015978D02*
X123040Y015978D01*
X123040Y016076D02*
X112885Y016076D01*
X112786Y016175D02*
X123064Y016175D01*
X123104Y016273D02*
X112688Y016273D01*
X112589Y016372D02*
X123161Y016372D01*
X123260Y016470D02*
X112491Y016470D01*
X112392Y016569D02*
X123207Y016569D01*
X123123Y016667D02*
X112294Y016667D01*
X113208Y015978D02*
X113711Y015978D01*
X113548Y015879D02*
X113372Y015879D01*
X114208Y015978D02*
X114711Y015978D01*
X114548Y015879D02*
X114372Y015879D01*
X115208Y015978D02*
X115711Y015978D01*
X115548Y015879D02*
X115372Y015879D01*
X116208Y015978D02*
X116711Y015978D01*
X116548Y015879D02*
X116372Y015879D01*
X117208Y015978D02*
X117711Y015978D01*
X117548Y015879D02*
X117372Y015879D01*
X118208Y015978D02*
X118711Y015978D01*
X118548Y015879D02*
X118372Y015879D01*
X119208Y015978D02*
X119711Y015978D01*
X119548Y015879D02*
X119372Y015879D01*
X120208Y015978D02*
X120711Y015978D01*
X120548Y015879D02*
X120372Y015879D01*
X124044Y015485D02*
X127010Y015485D01*
X127010Y015387D02*
X124143Y015387D01*
X124208Y015288D02*
X127010Y015288D01*
X127010Y015190D02*
X124249Y015190D01*
X124280Y015091D02*
X127010Y015091D01*
X127010Y014993D02*
X124280Y014993D01*
X124280Y014894D02*
X127010Y014894D01*
X127010Y014796D02*
X124249Y014796D01*
X124208Y014697D02*
X127010Y014697D01*
X127010Y014599D02*
X124142Y014599D01*
X124043Y014500D02*
X127010Y014500D01*
X127010Y014402D02*
X124128Y014402D01*
X124202Y014303D02*
X127010Y014303D01*
X127010Y014205D02*
X124243Y014205D01*
X124280Y014106D02*
X127010Y014106D01*
X127010Y014008D02*
X124280Y014008D01*
X124280Y013909D02*
X127010Y013909D01*
X127010Y013811D02*
X124255Y013811D01*
X124214Y013712D02*
X127010Y013712D01*
X127010Y013614D02*
X124157Y013614D01*
X124058Y013515D02*
X127010Y013515D01*
X127010Y013417D02*
X124113Y013417D01*
X124196Y013318D02*
X127010Y013318D01*
X127010Y013220D02*
X124237Y013220D01*
X124278Y013121D02*
X127010Y013121D01*
X127010Y013023D02*
X124280Y013023D01*
X124280Y012924D02*
X127010Y012924D01*
X127010Y012826D02*
X124261Y012826D01*
X124220Y012727D02*
X127010Y012727D01*
X127010Y012629D02*
X124172Y012629D01*
X124073Y012530D02*
X127010Y012530D01*
X127010Y012432D02*
X124098Y012432D01*
X124190Y012333D02*
X127010Y012333D01*
X127010Y012235D02*
X124231Y012235D01*
X124271Y012136D02*
X127010Y012136D01*
X127010Y012038D02*
X124280Y012038D01*
X124280Y011939D02*
X127010Y011939D01*
X127010Y011841D02*
X124267Y011841D01*
X124227Y011742D02*
X127010Y011742D01*
X127010Y011644D02*
X124186Y011644D01*
X124088Y011545D02*
X127010Y011545D01*
X127010Y011447D02*
X124083Y011447D01*
X124181Y011348D02*
X127010Y011348D01*
X127010Y011250D02*
X124224Y011250D01*
X124265Y011151D02*
X127010Y011151D01*
X127010Y011053D02*
X124280Y011053D01*
X124280Y010954D02*
X127010Y010954D01*
X127010Y010856D02*
X124274Y010856D01*
X124233Y010757D02*
X127010Y010757D01*
X127010Y010659D02*
X124192Y010659D01*
X124103Y010560D02*
X127010Y010560D01*
X127010Y010462D02*
X123997Y010462D01*
X123323Y010462D02*
X121595Y010462D01*
X121595Y010363D02*
X127010Y010363D01*
X127010Y010265D02*
X121594Y010265D01*
X121553Y010166D02*
X127010Y010166D01*
X127010Y010068D02*
X121512Y010068D01*
X121434Y009969D02*
X127010Y009969D01*
X127010Y009871D02*
X121380Y009871D01*
X121479Y009772D02*
X127010Y009772D01*
X127010Y009674D02*
X121531Y009674D01*
X121571Y009575D02*
X127010Y009575D01*
X127010Y009477D02*
X121595Y009477D01*
X121595Y009378D02*
X127010Y009378D01*
X127010Y009280D02*
X121595Y009280D01*
X121559Y009181D02*
X127010Y009181D01*
X127010Y009083D02*
X121518Y009083D01*
X121449Y008984D02*
X127010Y008984D01*
X127010Y008886D02*
X121350Y008886D01*
X120539Y009871D02*
X120380Y009871D01*
X120485Y009969D02*
X120228Y009969D01*
X120407Y010068D02*
X105590Y010068D01*
X105592Y010069D02*
X105784Y010261D01*
X105919Y010496D01*
X105990Y010758D01*
X105990Y011029D01*
X105919Y011291D01*
X105784Y011526D01*
X105592Y011718D01*
X105357Y011853D01*
X105095Y011923D01*
X104824Y011923D01*
X104562Y011853D01*
X104327Y011718D01*
X104135Y011526D01*
X104000Y011291D01*
X103930Y011029D01*
X103930Y010758D01*
X104000Y010496D01*
X104135Y010261D01*
X104327Y010069D01*
X104562Y009934D01*
X104824Y009863D01*
X105095Y009863D01*
X105357Y009934D01*
X105592Y010069D01*
X105689Y010166D02*
X120366Y010166D01*
X120325Y010265D02*
X105786Y010265D01*
X105843Y010363D02*
X120325Y010363D01*
X120325Y010462D02*
X105900Y010462D01*
X105937Y010560D02*
X120341Y010560D01*
X120382Y010659D02*
X105963Y010659D01*
X105989Y010757D02*
X120425Y010757D01*
X120524Y010856D02*
X105990Y010856D01*
X105990Y010954D02*
X120500Y010954D01*
X120413Y011053D02*
X105983Y011053D01*
X105957Y011151D02*
X120372Y011151D01*
X120332Y011250D02*
X105930Y011250D01*
X105886Y011348D02*
X120325Y011348D01*
X120325Y011447D02*
X105829Y011447D01*
X105764Y011545D02*
X120335Y011545D01*
X120376Y011644D02*
X105666Y011644D01*
X105549Y011742D02*
X120417Y011742D01*
X120509Y011841D02*
X105378Y011841D01*
X104541Y011841D02*
X076695Y011841D01*
X076689Y011843D02*
X076430Y011843D01*
X076191Y011744D01*
X076008Y011562D01*
X075910Y011323D01*
X075910Y011064D01*
X076008Y010825D01*
X076191Y010642D01*
X076430Y010543D01*
X076689Y010543D01*
X076928Y010642D01*
X077111Y010825D01*
X077210Y011064D01*
X077210Y011323D01*
X077111Y011562D01*
X076928Y011744D01*
X076689Y011843D01*
X076930Y011742D02*
X104370Y011742D01*
X104253Y011644D02*
X077028Y011644D01*
X077117Y011545D02*
X104155Y011545D01*
X104090Y011447D02*
X077158Y011447D01*
X077199Y011348D02*
X104033Y011348D01*
X103989Y011250D02*
X077210Y011250D01*
X077210Y011151D02*
X103962Y011151D01*
X103936Y011053D02*
X077205Y011053D01*
X077164Y010954D02*
X103930Y010954D01*
X103930Y010856D02*
X091700Y010856D01*
X091815Y010757D02*
X103930Y010757D01*
X103956Y010659D02*
X091912Y010659D01*
X091952Y010560D02*
X103982Y010560D01*
X104019Y010462D02*
X091993Y010462D01*
X092010Y010363D02*
X104076Y010363D01*
X104133Y010265D02*
X092010Y010265D01*
X092010Y010166D02*
X104230Y010166D01*
X104329Y010068D02*
X091970Y010068D01*
X091929Y009969D02*
X104500Y009969D01*
X104796Y009871D02*
X091910Y009871D01*
X091910Y009772D02*
X108440Y009772D01*
X108388Y009674D02*
X091910Y009674D01*
X091910Y009575D02*
X108348Y009575D01*
X108325Y009477D02*
X091907Y009477D01*
X091866Y009378D02*
X108325Y009378D01*
X108325Y009280D02*
X091824Y009280D01*
X091725Y009181D02*
X108360Y009181D01*
X108401Y009083D02*
X091627Y009083D01*
X091528Y008984D02*
X108470Y008984D01*
X108569Y008886D02*
X091430Y008886D01*
X090732Y009743D02*
X090732Y009743D01*
X090703Y009772D02*
X074858Y009772D01*
X074760Y009871D02*
X090656Y009871D01*
X090616Y009969D02*
X074661Y009969D01*
X074563Y010068D02*
X090610Y010068D01*
X090610Y010166D02*
X074464Y010166D01*
X074366Y010265D02*
X090635Y010265D01*
X090676Y010363D02*
X074267Y010363D01*
X074169Y010462D02*
X090726Y010462D01*
X090767Y010560D02*
X076730Y010560D01*
X076944Y010659D02*
X090807Y010659D01*
X090904Y010757D02*
X077043Y010757D01*
X077123Y010856D02*
X091019Y010856D01*
X105123Y009871D02*
X108539Y009871D01*
X108691Y009969D02*
X105419Y009969D01*
X109228Y009969D02*
X109691Y009969D01*
X109539Y009871D02*
X109380Y009871D01*
X110228Y009969D02*
X110691Y009969D01*
X110539Y009871D02*
X110380Y009871D01*
X111228Y009969D02*
X111691Y009969D01*
X111539Y009871D02*
X111380Y009871D01*
X112228Y009969D02*
X112691Y009969D01*
X112539Y009871D02*
X112380Y009871D01*
X113228Y009969D02*
X113691Y009969D01*
X113539Y009871D02*
X113380Y009871D01*
X114228Y009969D02*
X114691Y009969D01*
X114539Y009871D02*
X114380Y009871D01*
X115228Y009969D02*
X115691Y009969D01*
X115539Y009871D02*
X115380Y009871D01*
X116228Y009969D02*
X116691Y009969D01*
X116539Y009871D02*
X116380Y009871D01*
X117228Y009969D02*
X117691Y009969D01*
X117539Y009871D02*
X117380Y009871D01*
X118228Y009969D02*
X118691Y009969D01*
X118539Y009871D02*
X118380Y009871D01*
X119228Y009969D02*
X119691Y009969D01*
X119539Y009871D02*
X119380Y009871D01*
X121578Y010560D02*
X123216Y010560D01*
X123127Y010659D02*
X121537Y010659D01*
X121494Y010757D02*
X123086Y010757D01*
X123045Y010856D02*
X121395Y010856D01*
X121419Y010954D02*
X123040Y010954D01*
X123040Y011053D02*
X121506Y011053D01*
X121547Y011151D02*
X123054Y011151D01*
X123095Y011250D02*
X121587Y011250D01*
X121595Y011348D02*
X123138Y011348D01*
X123236Y011447D02*
X121595Y011447D01*
X121584Y011545D02*
X123231Y011545D01*
X123133Y011644D02*
X121543Y011644D01*
X121502Y011742D02*
X123092Y011742D01*
X123052Y011841D02*
X121410Y011841D01*
X121301Y011939D02*
X123040Y011939D01*
X123040Y012038D02*
X073610Y012038D01*
X073610Y012136D02*
X123048Y012136D01*
X123088Y012235D02*
X073610Y012235D01*
X073610Y012333D02*
X123129Y012333D01*
X120618Y011939D02*
X073610Y011939D01*
X073610Y011841D02*
X076424Y011841D01*
X076189Y011742D02*
X073610Y011742D01*
X073610Y011644D02*
X076091Y011644D01*
X076002Y011545D02*
X073610Y011545D01*
X073610Y011447D02*
X075961Y011447D01*
X075920Y011348D02*
X073610Y011348D01*
X073610Y011250D02*
X075910Y011250D01*
X075910Y011151D02*
X073610Y011151D01*
X073610Y011053D02*
X075914Y011053D01*
X075955Y010954D02*
X073676Y010954D01*
X073775Y010856D02*
X075996Y010856D01*
X076076Y010757D02*
X073873Y010757D01*
X073972Y010659D02*
X076175Y010659D01*
X076389Y010560D02*
X074070Y010560D01*
X072810Y010265D02*
X053597Y010265D01*
X053695Y010363D02*
X072712Y010363D01*
X072613Y010462D02*
X053794Y010462D01*
X053892Y010560D02*
X072561Y010560D01*
X072520Y010659D02*
X053991Y010659D01*
X053450Y011250D02*
X048920Y011250D01*
X048940Y011348D02*
X053549Y011348D01*
X053668Y011447D02*
X048940Y011447D01*
X048879Y011151D02*
X053352Y011151D01*
X053253Y011053D02*
X048798Y011053D01*
X048121Y011053D02*
X045972Y011053D01*
X045239Y011151D02*
X032596Y011151D01*
X032678Y011250D02*
X041376Y011250D01*
X041226Y011348D02*
X032719Y011348D01*
X032740Y011447D02*
X041142Y011447D01*
X041101Y011545D02*
X032740Y011545D01*
X032717Y011644D02*
X041080Y011644D01*
X041080Y011742D02*
X032676Y011742D01*
X032591Y011841D02*
X041101Y011841D01*
X041142Y011939D02*
X032437Y011939D01*
X032450Y011053D02*
X045147Y011053D01*
X044973Y012038D02*
X047405Y012038D01*
X047464Y012013D02*
X047655Y012013D01*
X047831Y012086D01*
X047966Y012221D01*
X048040Y012398D01*
X048040Y012589D01*
X047966Y012765D01*
X047831Y012900D01*
X047655Y012973D01*
X047464Y012973D01*
X047288Y012900D01*
X047153Y012765D01*
X047080Y012589D01*
X047080Y012398D01*
X047153Y012221D01*
X047288Y012086D01*
X047464Y012013D01*
X047714Y012038D02*
X050959Y012038D01*
X050918Y012136D02*
X047881Y012136D01*
X047972Y012235D02*
X050915Y012235D01*
X050915Y012333D02*
X048013Y012333D01*
X048040Y012432D02*
X050915Y012432D01*
X050951Y012530D02*
X048040Y012530D01*
X048023Y012629D02*
X050992Y012629D01*
X051040Y012727D02*
X047982Y012727D01*
X047906Y012826D02*
X051138Y012826D01*
X051237Y012924D02*
X047773Y012924D01*
X047346Y012924D02*
X044960Y012924D01*
X044960Y012826D02*
X047213Y012826D01*
X047137Y012727D02*
X044960Y012727D01*
X044960Y012629D02*
X047096Y012629D01*
X047080Y012530D02*
X044981Y012530D01*
X045022Y012432D02*
X047080Y012432D01*
X047106Y012333D02*
X045040Y012333D01*
X045040Y012235D02*
X047147Y012235D01*
X047238Y012136D02*
X045014Y012136D01*
X044560Y012293D02*
X044560Y016193D01*
X045360Y016993D01*
X045501Y016569D02*
X051918Y016569D01*
X052017Y016470D02*
X045402Y016470D01*
X045304Y016372D02*
X052115Y016372D01*
X052214Y016273D02*
X045205Y016273D01*
X047849Y015682D02*
X048153Y015682D01*
X047984Y015584D02*
X047900Y015584D01*
X048328Y014796D02*
X063496Y014796D01*
X054728Y017455D02*
X053499Y017455D01*
X053458Y017554D02*
X054687Y017554D01*
X054646Y017652D02*
X053417Y017652D01*
X053356Y017751D02*
X054616Y017751D01*
X054616Y017849D02*
X053257Y017849D01*
X053126Y017948D02*
X054616Y017948D01*
X044160Y014697D02*
X042834Y014697D01*
X042933Y014599D02*
X044160Y014599D01*
X044160Y014500D02*
X042993Y014500D01*
X043034Y014402D02*
X044160Y014402D01*
X044160Y014303D02*
X043040Y014303D01*
X043040Y014205D02*
X044160Y014205D01*
X044160Y014106D02*
X043002Y014106D01*
X042953Y014008D02*
X044160Y014008D01*
X044160Y013909D02*
X042854Y013909D01*
X042265Y013909D02*
X030222Y013909D01*
X030289Y013811D02*
X044160Y013811D01*
X044160Y013712D02*
X030330Y013712D01*
X030340Y013614D02*
X044160Y013614D01*
X044160Y013515D02*
X030340Y013515D01*
X030306Y013417D02*
X044160Y013417D01*
X044160Y013318D02*
X030263Y013318D01*
X030165Y013220D02*
X044160Y013220D01*
X044105Y012136D02*
X041744Y012136D01*
X041894Y012038D02*
X044146Y012038D01*
X044235Y011939D02*
X041977Y011939D01*
X042018Y011841D02*
X044398Y011841D01*
X029000Y011447D02*
X026517Y011447D01*
X026328Y011348D02*
X028836Y011348D01*
X035510Y024744D02*
X042833Y024744D01*
X042931Y024843D02*
X035510Y024843D01*
X035594Y024941D02*
X043030Y024941D01*
X043128Y025040D02*
X036136Y025040D01*
X036373Y025138D02*
X043227Y025138D01*
X043325Y025237D02*
X036490Y025237D01*
X036589Y025335D02*
X042120Y025335D01*
X042006Y025434D02*
X036666Y025434D01*
X036707Y025532D02*
X041911Y025532D01*
X041870Y025631D02*
X036748Y025631D01*
X036785Y025729D02*
X041829Y025729D01*
X041814Y025828D02*
X036785Y025828D01*
X036785Y025926D02*
X041814Y025926D01*
X041816Y026025D02*
X036785Y026025D01*
X036761Y026123D02*
X041856Y026123D01*
X041897Y026222D02*
X036721Y026222D01*
X036680Y026320D02*
X041974Y026320D01*
X042073Y026419D02*
X036621Y026419D01*
X036523Y026517D02*
X042280Y026517D01*
X042639Y026517D02*
X050754Y026517D01*
X050965Y026517D02*
X054199Y026517D01*
X054298Y026419D02*
X042847Y026419D01*
X041163Y027404D02*
X050470Y027404D01*
X050493Y027305D02*
X041065Y027305D01*
X040966Y027207D02*
X050428Y027207D01*
X050419Y027502D02*
X041211Y027502D01*
X041252Y027601D02*
X050380Y027601D01*
X050380Y027699D02*
X041292Y027699D01*
X041303Y027798D02*
X050383Y027798D01*
X050424Y027896D02*
X041303Y027896D01*
X041303Y027995D02*
X050482Y027995D01*
X050581Y028093D02*
X041290Y028093D01*
X037684Y028881D02*
X058911Y028881D01*
X059010Y028980D02*
X037782Y028980D01*
X036424Y026616D02*
X050558Y026616D01*
X050460Y026714D02*
X036214Y026714D01*
X042799Y025335D02*
X043424Y025335D01*
X043522Y025434D02*
X042913Y025434D01*
X043008Y025532D02*
X043724Y025532D01*
X058687Y026911D02*
X075632Y026911D01*
X075605Y026714D02*
X074314Y026714D01*
X074524Y026616D02*
X075395Y026616D01*
X075296Y026517D02*
X074623Y026517D01*
X074721Y026419D02*
X075198Y026419D01*
X075139Y026320D02*
X074780Y026320D01*
X074821Y026222D02*
X075099Y026222D01*
X075058Y026123D02*
X074861Y026123D01*
X074885Y026025D02*
X075035Y026025D01*
X075035Y025926D02*
X074885Y025926D01*
X074885Y025828D02*
X075035Y025828D01*
X075035Y025729D02*
X074885Y025729D01*
X074848Y025631D02*
X075071Y025631D01*
X075112Y025532D02*
X074807Y025532D01*
X074766Y025434D02*
X075153Y025434D01*
X075230Y025335D02*
X074689Y025335D01*
X074590Y025237D02*
X075329Y025237D01*
X075446Y025138D02*
X074473Y025138D01*
X073705Y026714D02*
X058714Y026714D01*
X058913Y027010D02*
X075406Y027010D01*
X075307Y027108D02*
X063269Y027108D01*
X063466Y027207D02*
X075209Y027207D01*
X075144Y027305D02*
X063565Y027305D01*
X063663Y027404D02*
X075103Y027404D01*
X075062Y027502D02*
X063711Y027502D01*
X063752Y027601D02*
X075035Y027601D01*
X075035Y027699D02*
X063792Y027699D01*
X063803Y027798D02*
X075035Y027798D01*
X075035Y027896D02*
X063803Y027896D01*
X063803Y027995D02*
X075067Y027995D01*
X075107Y028093D02*
X063790Y028093D01*
X063749Y028192D02*
X075148Y028192D01*
X075219Y028290D02*
X063708Y028290D01*
X063657Y028389D02*
X075318Y028389D01*
X075419Y028487D02*
X063559Y028487D01*
X062360Y028487D02*
X059790Y028487D01*
X059691Y028389D02*
X062262Y028389D01*
X062211Y028290D02*
X059593Y028290D01*
X059494Y028192D02*
X062170Y028192D01*
X062129Y028093D02*
X059396Y028093D01*
X059297Y027995D02*
X062116Y027995D01*
X062116Y027896D02*
X059285Y027896D01*
X059285Y027798D02*
X062116Y027798D01*
X062127Y027699D02*
X059285Y027699D01*
X059285Y027601D02*
X062167Y027601D01*
X062208Y027502D02*
X059257Y027502D01*
X059216Y027404D02*
X062256Y027404D01*
X062354Y027305D02*
X059175Y027305D01*
X059110Y027207D02*
X062453Y027207D01*
X062650Y027108D02*
X059012Y027108D01*
X076413Y027010D02*
X077090Y027010D01*
X077080Y027108D02*
X076512Y027108D01*
X076610Y027207D02*
X076981Y027207D01*
X114264Y017357D02*
X114855Y017357D01*
X114671Y017455D02*
X114448Y017455D01*
X114547Y017554D02*
X114572Y017554D01*
X115264Y017357D02*
X115855Y017357D01*
X115671Y017455D02*
X115448Y017455D01*
X115547Y017554D02*
X115572Y017554D01*
X116264Y017357D02*
X116855Y017357D01*
X116671Y017455D02*
X116448Y017455D01*
X116547Y017554D02*
X116572Y017554D01*
X117264Y017357D02*
X123146Y017357D01*
X123245Y017455D02*
X117448Y017455D01*
X117547Y017554D02*
X123222Y017554D01*
X123130Y017652D02*
X117610Y017652D01*
X117651Y017751D02*
X123089Y017751D01*
X123048Y017849D02*
X117680Y017849D01*
X117680Y017948D02*
X123040Y017948D01*
X123040Y018046D02*
X117680Y018046D01*
X117647Y018145D02*
X123051Y018145D01*
X123092Y018243D02*
X117606Y018243D01*
X117538Y018342D02*
X123133Y018342D01*
X123230Y018440D02*
X117439Y018440D01*
X117532Y018539D02*
X123356Y018539D01*
X123963Y018539D02*
X127010Y018539D01*
X127010Y018637D02*
X117604Y018637D01*
X117645Y018736D02*
X127010Y018736D01*
X127010Y018834D02*
X117680Y018834D01*
X117680Y018933D02*
X127010Y018933D01*
X127010Y019031D02*
X117680Y019031D01*
X117653Y019130D02*
X127010Y019130D01*
X127010Y019228D02*
X117613Y019228D01*
X117553Y019327D02*
X127010Y019327D01*
X127010Y019425D02*
X117454Y019425D01*
X115680Y018440D02*
X115439Y018440D01*
X115538Y018342D02*
X115581Y018342D01*
X124089Y018440D02*
X127010Y018440D01*
X127010Y018342D02*
X124186Y018342D01*
X124227Y018243D02*
X127010Y018243D01*
X127010Y018145D02*
X124268Y018145D01*
X124280Y018046D02*
X127010Y018046D01*
X127010Y017948D02*
X124280Y017948D01*
X124271Y017849D02*
X127010Y017849D01*
X127010Y017751D02*
X124230Y017751D01*
X124189Y017652D02*
X127010Y017652D01*
X127010Y017554D02*
X124097Y017554D01*
X124074Y017455D02*
X127010Y017455D01*
X127010Y017357D02*
X124173Y017357D01*
X124221Y017258D02*
X127010Y017258D01*
X127010Y017160D02*
X124262Y017160D01*
X124280Y017061D02*
X127010Y017061D01*
X127010Y016963D02*
X124280Y016963D01*
X124277Y016864D02*
X127010Y016864D01*
X127010Y016766D02*
X124236Y016766D01*
X124196Y016667D02*
X127010Y016667D01*
X127010Y016569D02*
X124112Y016569D01*
X124059Y016470D02*
X127010Y016470D01*
X127010Y016372D02*
X124158Y016372D01*
X124215Y016273D02*
X127010Y016273D01*
X127010Y016175D02*
X124255Y016175D01*
X124280Y016076D02*
X127010Y016076D01*
X127010Y015978D02*
X124280Y015978D01*
X124280Y015879D02*
X127010Y015879D01*
X127010Y015781D02*
X124243Y015781D01*
X124202Y015682D02*
X127010Y015682D01*
X127010Y015584D02*
X124127Y015584D01*
D20*
X086460Y017393D02*
X083460Y017393D01*
X083460Y018393D01*
X082460Y019393D01*
X080908Y019393D01*
X080799Y019502D01*
X080579Y019593D01*
X079690Y019593D01*
X079690Y019799D01*
X079609Y019994D01*
X079460Y020143D01*
X079265Y020223D01*
X079054Y020223D01*
X078859Y020143D01*
X078710Y019994D01*
X078630Y019799D01*
X078630Y019593D01*
X076590Y019593D01*
X076590Y019699D01*
X076509Y019894D01*
X076360Y020043D01*
X076165Y020123D01*
X075954Y020123D01*
X075759Y020043D01*
X075610Y019894D01*
X075530Y019699D01*
X075530Y019593D01*
X073708Y019593D01*
X073638Y019663D01*
X073765Y019663D01*
X073960Y019744D01*
X074109Y019893D01*
X074190Y020088D01*
X074190Y020299D01*
X074109Y020494D01*
X073960Y020643D01*
X073765Y020723D01*
X073554Y020723D01*
X073359Y020643D01*
X073210Y020494D01*
X073130Y020299D01*
X073130Y020172D01*
X071699Y021602D01*
X071490Y021689D01*
X071490Y021699D01*
X071460Y021771D01*
X071460Y022115D01*
X071490Y022188D01*
X071490Y022399D01*
X071482Y022416D01*
X072460Y023393D01*
X073301Y023393D01*
X073436Y023259D01*
X073693Y023152D01*
X073630Y022999D01*
X073630Y022788D01*
X073710Y022593D01*
X073859Y022444D01*
X074054Y022363D01*
X074265Y022363D01*
X074460Y022444D01*
X074609Y022593D01*
X074690Y022788D01*
X074690Y022999D01*
X074609Y023194D01*
X074513Y023289D01*
X074618Y023393D01*
X075251Y023393D01*
X075386Y023259D01*
X075726Y023118D01*
X076094Y023118D01*
X076433Y023259D01*
X076568Y023393D01*
X083699Y023393D01*
X083702Y023387D01*
X083953Y023136D01*
X084282Y023000D01*
X084637Y023000D01*
X084966Y023136D01*
X085217Y023387D01*
X085220Y023393D01*
X086460Y023393D01*
X086460Y017393D01*
X086460Y017524D02*
X083460Y017524D01*
X083460Y017723D02*
X086460Y017723D01*
X086460Y017921D02*
X083460Y017921D01*
X083460Y018120D02*
X086460Y018120D01*
X086460Y018318D02*
X083460Y018318D01*
X083336Y018517D02*
X086460Y018517D01*
X086460Y018715D02*
X083138Y018715D01*
X082939Y018914D02*
X086460Y018914D01*
X086460Y019112D02*
X082741Y019112D01*
X082542Y019311D02*
X086460Y019311D01*
X086460Y019509D02*
X080782Y019509D01*
X079690Y019708D02*
X086460Y019708D01*
X086460Y019906D02*
X079645Y019906D01*
X079498Y020105D02*
X086460Y020105D01*
X086460Y020303D02*
X080219Y020303D01*
X080160Y020244D02*
X080309Y020393D01*
X080390Y020588D01*
X080390Y020799D01*
X080309Y020994D01*
X080160Y021143D01*
X079965Y021223D01*
X079754Y021223D01*
X079559Y021143D01*
X079410Y020994D01*
X079330Y020799D01*
X079330Y020588D01*
X079410Y020393D01*
X079559Y020244D01*
X079754Y020163D01*
X079965Y020163D01*
X080160Y020244D01*
X080354Y020502D02*
X086460Y020502D01*
X086460Y020700D02*
X080390Y020700D01*
X080348Y020899D02*
X086460Y020899D01*
X086460Y021097D02*
X080205Y021097D01*
X079514Y021097D02*
X075890Y021097D01*
X075890Y021199D02*
X075809Y021394D01*
X075660Y021543D01*
X075465Y021623D01*
X075254Y021623D01*
X075059Y021543D01*
X074910Y021394D01*
X074830Y021199D01*
X074830Y020988D01*
X074910Y020793D01*
X075059Y020644D01*
X075254Y020563D01*
X075465Y020563D01*
X075660Y020644D01*
X075809Y020793D01*
X075890Y020988D01*
X075890Y021199D01*
X075849Y021296D02*
X086460Y021296D01*
X086460Y021494D02*
X075708Y021494D01*
X075853Y020899D02*
X079371Y020899D01*
X079330Y020700D02*
X075716Y020700D01*
X075003Y020700D02*
X073820Y020700D01*
X073854Y020763D02*
X074065Y020763D01*
X074260Y020844D01*
X074409Y020993D01*
X074490Y021188D01*
X074490Y021399D01*
X074409Y021594D01*
X074260Y021743D01*
X074065Y021823D01*
X073854Y021823D01*
X073659Y021743D01*
X073510Y021594D01*
X073430Y021399D01*
X073430Y021188D01*
X073510Y020993D01*
X073659Y020844D01*
X073854Y020763D01*
X073604Y020899D02*
X072403Y020899D01*
X072601Y020700D02*
X073499Y020700D01*
X073218Y020502D02*
X072800Y020502D01*
X072998Y020303D02*
X073131Y020303D01*
X074101Y020502D02*
X079365Y020502D01*
X079500Y020303D02*
X074188Y020303D01*
X074190Y020105D02*
X075909Y020105D01*
X076210Y020105D02*
X078821Y020105D01*
X078674Y019906D02*
X076496Y019906D01*
X076586Y019708D02*
X078630Y019708D01*
X075623Y019906D02*
X074114Y019906D01*
X073872Y019708D02*
X075533Y019708D01*
X074866Y020899D02*
X074315Y020899D01*
X074452Y021097D02*
X074830Y021097D01*
X074870Y021296D02*
X074490Y021296D01*
X074450Y021494D02*
X075011Y021494D01*
X074310Y021693D02*
X086460Y021693D01*
X086460Y021891D02*
X071460Y021891D01*
X071460Y022090D02*
X086460Y022090D01*
X086460Y022288D02*
X071490Y022288D01*
X071553Y022487D02*
X073816Y022487D01*
X073672Y022685D02*
X071752Y022685D01*
X071950Y022884D02*
X073630Y022884D01*
X073664Y023082D02*
X072149Y023082D01*
X072347Y023281D02*
X073414Y023281D01*
X074522Y023281D02*
X075364Y023281D01*
X074655Y023082D02*
X084082Y023082D01*
X083808Y023281D02*
X076455Y023281D01*
X074690Y022884D02*
X086460Y022884D01*
X086460Y023082D02*
X084837Y023082D01*
X085111Y023281D02*
X086460Y023281D01*
X086460Y022685D02*
X074647Y022685D01*
X074503Y022487D02*
X086460Y022487D01*
X073609Y021693D02*
X071490Y021693D01*
X071807Y021494D02*
X073469Y021494D01*
X073430Y021296D02*
X072006Y021296D01*
X072204Y021097D02*
X073467Y021097D01*
X058410Y025893D02*
X057410Y026893D01*
X055460Y026893D01*
X054660Y027693D01*
X050860Y027693D01*
X050860Y026993D02*
X054360Y026993D01*
X055460Y025893D01*
X056510Y025893D01*
X058410Y027743D02*
X059656Y028990D01*
X088063Y028990D01*
X088710Y029493D02*
X037660Y029493D01*
X035910Y027743D01*
X035910Y025893D02*
X035060Y025043D01*
X035060Y023393D01*
X035560Y022893D01*
X035560Y022193D01*
X033460Y021793D02*
X033360Y021793D01*
X032960Y022193D01*
X032960Y025593D01*
X033260Y025893D01*
X034010Y025893D01*
X048510Y025743D02*
X048760Y025743D01*
X033460Y021093D02*
X033310Y021343D01*
X033210Y021243D01*
D21*
X033210Y021243D03*
X035460Y017543D03*
X050310Y022443D03*
X051960Y022593D03*
X055360Y022593D03*
X051710Y023793D03*
X048760Y025743D03*
X083160Y020993D03*
X083860Y020593D03*
X083160Y020193D03*
X083860Y019793D03*
X083160Y019493D03*
X085360Y019493D03*
X083860Y018793D03*
X083860Y017893D03*
X085460Y017893D03*
X085360Y020993D03*
X087460Y014543D03*
X090260Y027693D03*
X091260Y027593D03*
X092460Y028093D03*
X091960Y028593D03*
X088960Y027943D03*
X088063Y028990D03*
X088710Y029493D03*
X094060Y030593D03*
X094760Y030593D03*
D22*
X064960Y025893D02*
X064060Y024993D01*
X057410Y024993D01*
X056460Y024043D01*
X075260Y019493D02*
X075560Y019493D01*
X075660Y019393D01*
X077460Y020793D02*
X077760Y021093D01*
X075760Y021693D02*
X075760Y021793D01*
D23*
X077560Y022693D02*
X077560Y027293D01*
X077110Y027743D01*
X075910Y027743D01*
X072160Y022693D02*
X072260Y022593D01*
X072160Y022693D02*
X071860Y022643D01*
D24*
X085360Y020993D02*
X085760Y021393D01*
X085760Y022493D01*
X085960Y022693D01*
X089360Y022693D01*
X090360Y022693D01*
X094460Y026793D01*
X094460Y030493D01*
X094660Y030493D01*
X094760Y030593D01*
X089960Y020093D02*
X086060Y020093D01*
X089960Y020093D02*
X090960Y019093D01*
X101460Y019093D01*
X103660Y016893D01*
X107360Y016893D01*
D25*
X087460Y014543D02*
X086210Y015793D01*
X083660Y015793D01*
X080460Y018993D01*
X073460Y018993D01*
X071360Y021093D01*
X070360Y021093D01*
X068860Y022593D01*
X055360Y022593D01*
X056060Y021893D02*
X068560Y021893D01*
X069560Y020893D01*
X069560Y016493D01*
X073060Y012993D01*
X073060Y010793D01*
X074660Y009193D01*
X090960Y009193D01*
X091360Y009593D01*
X091360Y010293D01*
X091160Y010093D01*
X051960Y022593D02*
X051760Y022793D01*
X050660Y022793D01*
X050610Y022743D01*
X050310Y022443D01*
X050610Y022743D02*
X050608Y022766D01*
X050603Y022789D01*
X050594Y022811D01*
X050581Y022831D01*
X050566Y022849D01*
X050548Y022864D01*
X050528Y022877D01*
X050506Y022886D01*
X050483Y022891D01*
X050460Y022893D01*
X043160Y022893D01*
X040260Y019993D01*
X037960Y019993D01*
X035510Y017543D01*
X035460Y017543D01*
X033460Y021093D02*
X039960Y021093D01*
X043860Y024993D01*
X045060Y024993D01*
X046560Y023493D01*
X051410Y023493D01*
X051710Y023793D01*
X051460Y023793D01*
X049510Y025743D01*
X048760Y025743D01*
D26*
X099015Y023098D02*
X099015Y022738D01*
X104160Y017593D01*
X108760Y017593D01*
X110960Y015393D01*
X111960Y015393D02*
X108660Y018693D01*
X104860Y018693D01*
X100983Y022570D01*
X100983Y023098D01*
X104260Y022593D02*
X104260Y025693D01*
X101146Y028807D01*
X100983Y028807D01*
X104260Y022593D02*
X107560Y019293D01*
X109060Y019293D01*
X112960Y015393D01*
M02*
