G75*
%MOIN*%
%OFA0B0*%
%FSLAX24Y24*%
%IPPOS*%
%LPD*%
%AMOC8*
5,1,8,0,0,1.08239X$1,22.5*
%
%ADD10C,0.1240*%
%ADD11C,0.5080*%
%ADD12C,0.0680*%
%ADD13R,0.1130X0.1130*%
%ADD14C,0.0650*%
%ADD15C,0.0780*%
%ADD16C,0.1067*%
%ADD17R,0.0671X0.0671*%
%ADD18C,0.1182*%
%ADD19C,0.0870*%
%ADD20C,0.0950*%
%ADD21OC8,0.0620*%
%ADD22C,0.0340*%
%ADD23C,0.0476*%
D10*
X009960Y010893D03*
X009960Y030893D03*
X099960Y030893D03*
X104960Y010893D03*
D11*
X074960Y015893D03*
D12*
X079560Y015693D02*
X079560Y015093D01*
X080560Y015093D02*
X080560Y015693D01*
X089160Y017493D02*
X089760Y017493D01*
X089760Y018493D02*
X089160Y018493D01*
X100110Y016843D02*
X100110Y016243D01*
X101110Y016243D02*
X101110Y016843D01*
X102110Y016843D02*
X102110Y016243D01*
X089660Y021693D02*
X089060Y021693D01*
X089060Y022693D02*
X089660Y022693D01*
X076860Y012193D02*
X076260Y012193D01*
X076260Y011193D02*
X076860Y011193D01*
X090360Y010593D02*
X090360Y009993D01*
X091360Y009993D02*
X091360Y010593D01*
X048260Y021693D02*
X048260Y022293D01*
X047260Y022293D02*
X047260Y021693D01*
X020220Y016183D02*
X020220Y015583D01*
X019220Y015583D02*
X019220Y016183D01*
D13*
X018410Y024043D03*
X016460Y024043D03*
X016510Y025893D03*
X018410Y025893D03*
X018410Y027743D03*
X016510Y027743D03*
X034010Y027743D03*
X035910Y027743D03*
X035910Y025893D03*
X034010Y025893D03*
X033960Y024043D03*
X035910Y024043D03*
X056460Y024043D03*
X058410Y024043D03*
X058410Y025893D03*
X056510Y025893D03*
X056510Y027743D03*
X058410Y027743D03*
X074010Y027743D03*
X075910Y027743D03*
X075910Y025893D03*
X074010Y025893D03*
X073960Y024043D03*
X075910Y024043D03*
D14*
X107960Y015393D03*
X108960Y015393D03*
X109960Y015393D03*
X110960Y015393D03*
X111960Y015393D03*
X112960Y015393D03*
X113960Y015393D03*
X114960Y015393D03*
X115960Y015393D03*
X116960Y015393D03*
X117960Y015393D03*
X118960Y015393D03*
X119960Y015393D03*
X120960Y015393D03*
X120960Y014393D03*
X120960Y013393D03*
X120960Y012393D03*
X120960Y011393D03*
X120960Y010393D03*
X120960Y009393D03*
X119960Y009393D03*
X118960Y009393D03*
X117960Y009393D03*
X116960Y009393D03*
X115960Y009393D03*
X114960Y009393D03*
X113960Y009393D03*
X112960Y009393D03*
X111960Y009393D03*
X110960Y009393D03*
X109960Y009393D03*
X108960Y009393D03*
X107960Y009393D03*
D15*
X115360Y012393D03*
X116360Y012393D03*
X083460Y025893D03*
X082460Y025893D03*
X065960Y025893D03*
X064960Y025893D03*
X043460Y025893D03*
X042460Y025893D03*
X025960Y025893D03*
X024960Y025893D03*
X057460Y015893D03*
X058460Y015893D03*
D16*
X055460Y017893D03*
X059460Y013893D03*
X066960Y023893D03*
X062960Y027893D03*
X080460Y027893D03*
X084460Y023893D03*
X113360Y014393D03*
X117360Y010393D03*
X044460Y023893D03*
X040460Y027893D03*
X026960Y023893D03*
X022960Y027893D03*
D17*
X099015Y028649D03*
X100983Y028649D03*
X100983Y022941D03*
X099999Y022941D03*
X099015Y022941D03*
D18*
X097735Y025893D03*
X102263Y025893D03*
D19*
X052760Y017293D03*
X051660Y012293D03*
X015970Y011833D03*
D20*
X016970Y010833D03*
X014970Y010833D03*
X014970Y012833D03*
X016970Y012833D03*
X050660Y013293D03*
X052660Y013293D03*
X052660Y011293D03*
X050660Y011293D03*
X051760Y016293D03*
X053760Y016293D03*
X053760Y018293D03*
X051760Y018293D03*
D21*
X113960Y017843D03*
X114960Y017843D03*
X115960Y017843D03*
X116960Y017843D03*
X116960Y018843D03*
X115960Y018843D03*
X114960Y018843D03*
X113960Y018843D03*
X123660Y017993D03*
X124660Y017993D03*
X124660Y016993D03*
X123660Y016993D03*
X123660Y015993D03*
X124660Y015993D03*
X124660Y014993D03*
X123660Y014993D03*
X123660Y013993D03*
X124660Y013993D03*
X124660Y012993D03*
X123660Y012993D03*
X123660Y011993D03*
X124660Y011993D03*
X124660Y010993D03*
X123660Y010993D03*
D22*
X029490Y011953D03*
X029490Y012953D03*
D23*
X035160Y009893D03*
X068360Y017693D03*
X083160Y018893D03*
X083860Y018793D03*
X083160Y019493D03*
X083860Y019793D03*
X083160Y020193D03*
X083860Y020593D03*
X083160Y020993D03*
X083860Y017893D03*
X085460Y017893D03*
X087460Y014543D03*
X055360Y022593D03*
X051960Y022643D03*
X050310Y022443D03*
X051710Y023793D03*
X048760Y025743D03*
X023120Y021033D03*
X088063Y028990D03*
X088710Y029493D03*
X091960Y028593D03*
X092460Y028093D03*
X091260Y027593D03*
X090260Y027693D03*
X088960Y027943D03*
X094060Y030593D03*
X094760Y030593D03*
M02*
