G75*
%MOIN*%
%OFA0B0*%
%FSLAX24Y24*%
%IPPOS*%
%LPD*%
%AMOC8*
5,1,8,0,0,1.08239X$1,22.5*
%
%ADD10C,0.1240*%
%ADD11C,0.5080*%
%ADD12C,0.0680*%
%ADD13R,0.1655X0.0710*%
%ADD14R,0.0710X0.1655*%
%ADD15R,0.1130X0.1130*%
%ADD16C,0.0650*%
%ADD17C,0.0780*%
%ADD18C,0.1067*%
%ADD19R,0.0671X0.0671*%
%ADD20C,0.1182*%
%ADD21C,0.0548*%
%ADD22R,0.0730X0.1080*%
%ADD23C,0.0870*%
%ADD24C,0.0950*%
%ADD25R,0.0297X0.0552*%
%ADD26R,0.0316X0.0946*%
%ADD27R,0.0434X0.0316*%
%ADD28R,0.0316X0.0434*%
%ADD29R,0.0395X0.0395*%
%ADD30R,0.0474X0.0178*%
%ADD31R,0.0592X0.0434*%
%ADD32R,0.4178X0.4332*%
%ADD33R,0.0930X0.0500*%
%ADD34R,0.0434X0.0592*%
%ADD35C,0.0021*%
%ADD36C,0.0050*%
%ADD37R,0.1080X0.0730*%
%ADD38R,0.0490X0.0470*%
%ADD39R,0.0950X0.0490*%
%ADD40OC8,0.0620*%
%ADD41R,0.0552X0.0297*%
%ADD42R,0.0360X0.0670*%
%ADD43R,0.0440X0.0670*%
%ADD44R,0.0390X0.0740*%
%ADD45R,0.0350X0.1080*%
%ADD46R,0.0420X0.0280*%
%ADD47R,0.1080X0.0480*%
%ADD48R,0.0316X0.0218*%
%ADD49R,0.0867X0.0218*%
%ADD50C,0.0340*%
%ADD51C,0.0476*%
D10*
X009960Y010893D03*
X009960Y030893D03*
X099960Y030893D03*
X104960Y010893D03*
D11*
X074960Y015893D03*
D12*
X079560Y015693D02*
X079560Y015093D01*
X080560Y015093D02*
X080560Y015693D01*
X089160Y017493D02*
X089760Y017493D01*
X089760Y018493D02*
X089160Y018493D01*
X100110Y016843D02*
X100110Y016243D01*
X101110Y016243D02*
X101110Y016843D01*
X102110Y016843D02*
X102110Y016243D01*
X089660Y021693D02*
X089060Y021693D01*
X089060Y022693D02*
X089660Y022693D01*
X076860Y012193D02*
X076260Y012193D01*
X076260Y011193D02*
X076860Y011193D01*
X090360Y010593D02*
X090360Y009993D01*
X091360Y009993D02*
X091360Y010593D01*
X048260Y021693D02*
X048260Y022293D01*
X047260Y022293D02*
X047260Y021693D01*
X020220Y016183D02*
X020220Y015583D01*
X019220Y015583D02*
X019220Y016183D01*
D13*
X099362Y020193D03*
X102157Y020193D03*
D14*
X102110Y013541D03*
X102110Y010746D03*
D15*
X075910Y024043D03*
X073960Y024043D03*
X074010Y025893D03*
X075910Y025893D03*
X075910Y027743D03*
X074010Y027743D03*
X058410Y027743D03*
X056510Y027743D03*
X056510Y025893D03*
X058410Y025893D03*
X058410Y024043D03*
X056460Y024043D03*
X035910Y024043D03*
X033960Y024043D03*
X034010Y025893D03*
X035910Y025893D03*
X035910Y027743D03*
X034010Y027743D03*
X018410Y027743D03*
X016510Y027743D03*
X016510Y025893D03*
X018410Y025893D03*
X018410Y024043D03*
X016460Y024043D03*
D16*
X107960Y015393D03*
X108960Y015393D03*
X109960Y015393D03*
X110960Y015393D03*
X111960Y015393D03*
X112960Y015393D03*
X113960Y015393D03*
X114960Y015393D03*
X115960Y015393D03*
X116960Y015393D03*
X117960Y015393D03*
X118960Y015393D03*
X119960Y015393D03*
X120960Y015393D03*
X120960Y014393D03*
X120960Y013393D03*
X120960Y012393D03*
X120960Y011393D03*
X120960Y010393D03*
X120960Y009393D03*
X119960Y009393D03*
X118960Y009393D03*
X117960Y009393D03*
X116960Y009393D03*
X115960Y009393D03*
X114960Y009393D03*
X113960Y009393D03*
X112960Y009393D03*
X111960Y009393D03*
X110960Y009393D03*
X109960Y009393D03*
X108960Y009393D03*
X107960Y009393D03*
D17*
X115360Y012393D03*
X116360Y012393D03*
X083460Y025893D03*
X082460Y025893D03*
X065960Y025893D03*
X064960Y025893D03*
X043460Y025893D03*
X042460Y025893D03*
X025960Y025893D03*
X024960Y025893D03*
X057460Y015893D03*
X058460Y015893D03*
D18*
X055460Y017893D03*
X059460Y013893D03*
X066960Y023893D03*
X062960Y027893D03*
X080460Y027893D03*
X084460Y023893D03*
X113360Y014393D03*
X117360Y010393D03*
X044460Y023893D03*
X040460Y027893D03*
X026960Y023893D03*
X022960Y027893D03*
D19*
X099015Y028649D03*
X100983Y028649D03*
X100983Y022941D03*
X099999Y022941D03*
X099015Y022941D03*
D20*
X097735Y025893D03*
X102263Y025893D03*
D21*
X053851Y020959D02*
X053669Y020959D01*
X053851Y020959D02*
X053851Y020427D01*
X053669Y020427D01*
X053669Y020959D01*
D22*
X052760Y020693D03*
X051760Y020693D03*
X050760Y020693D03*
X049760Y020693D03*
X048760Y020693D03*
X047760Y020693D03*
X047760Y016443D03*
X048760Y016443D03*
X049760Y016443D03*
X050760Y016443D03*
X051760Y016443D03*
X052760Y016443D03*
X053760Y016443D03*
D23*
X052760Y017293D03*
X051660Y012293D03*
X015970Y011833D03*
D24*
X016970Y010833D03*
X014970Y010833D03*
X014970Y012833D03*
X016970Y012833D03*
X050660Y013293D03*
X052660Y013293D03*
X052660Y011293D03*
X050660Y011293D03*
X051760Y016293D03*
X053760Y016293D03*
X053760Y018293D03*
X051760Y018293D03*
D25*
X074160Y019681D03*
X074909Y019681D03*
X074909Y020705D03*
X074535Y020705D03*
X074160Y020705D03*
X074535Y021781D03*
X075284Y021781D03*
X075284Y022805D03*
X074910Y022805D03*
X074535Y022805D03*
X024794Y013345D03*
X024045Y013345D03*
X024045Y012321D03*
X024420Y012321D03*
X024794Y012321D03*
D26*
X024570Y018110D03*
X025070Y018110D03*
X024070Y018110D03*
X023570Y018110D03*
X023570Y020157D03*
X024070Y020157D03*
X024570Y020157D03*
X025070Y020157D03*
X049310Y023920D03*
X049810Y023920D03*
X050310Y023920D03*
X050810Y023920D03*
X050810Y025967D03*
X050310Y025967D03*
X049810Y025967D03*
X049310Y025967D03*
D27*
X048610Y025239D03*
X048610Y024648D03*
X047960Y024648D03*
X047960Y025239D03*
X049760Y022939D03*
X049760Y022348D03*
X071760Y025848D03*
X071760Y026439D03*
X030390Y016049D03*
X030390Y015458D03*
X024070Y016688D03*
X024070Y017279D03*
X025670Y018838D03*
X025670Y019429D03*
X013560Y025248D03*
X013560Y025839D03*
X038910Y014129D03*
X038910Y013538D03*
X021870Y010679D03*
X021870Y010088D03*
X092960Y011198D03*
X092960Y011789D03*
D28*
X092255Y011793D03*
X091664Y011793D03*
X088855Y011843D03*
X088264Y011843D03*
X098114Y017693D03*
X098705Y017693D03*
X080455Y020193D03*
X079864Y020193D03*
X053755Y022643D03*
X053164Y022643D03*
X053164Y023693D03*
X053755Y023693D03*
X050405Y026993D03*
X049814Y026993D03*
X049814Y027693D03*
X050405Y027693D03*
X025465Y021533D03*
X024874Y021533D03*
X024315Y021533D03*
X023724Y021533D03*
X023015Y019283D03*
X022424Y019283D03*
X045664Y015893D03*
X046255Y015893D03*
X046355Y011993D03*
X045764Y011993D03*
X093264Y030093D03*
X093855Y030093D03*
D29*
X091560Y029739D03*
X090960Y029598D03*
X091560Y029148D03*
X090960Y030189D03*
X102860Y029389D03*
X102860Y028798D03*
X101255Y023793D03*
X100664Y023793D03*
X099355Y023793D03*
X098764Y023793D03*
X107914Y016893D03*
X108505Y016893D03*
X088855Y011193D03*
X088264Y011193D03*
X057460Y017698D03*
X057460Y018289D03*
X048060Y015689D03*
X048060Y015098D03*
X050314Y014493D03*
X050905Y014493D03*
X047555Y013093D03*
X046964Y013093D03*
X043155Y013693D03*
X042564Y013693D03*
X038910Y014558D03*
X038910Y015149D03*
X039764Y012433D03*
X040355Y012433D03*
X041960Y011789D03*
X041960Y011198D03*
X047160Y009689D03*
X047160Y009098D03*
X048060Y011198D03*
X048060Y011789D03*
X053910Y012098D03*
X053910Y012689D03*
X035095Y010403D03*
X034504Y010403D03*
X026465Y012333D03*
X025874Y012333D03*
X023265Y012108D03*
X022674Y012108D03*
X019765Y012783D03*
X019174Y012783D03*
X019265Y011833D03*
X018674Y011833D03*
X019670Y010979D03*
X019670Y010388D03*
X023474Y015883D03*
X024065Y015883D03*
X024770Y016738D03*
X024770Y017329D03*
X022965Y018633D03*
X022374Y018633D03*
X022524Y020383D03*
X023115Y020383D03*
X048264Y026293D03*
X048855Y026293D03*
X050364Y022993D03*
X050955Y022993D03*
D30*
X089228Y028400D03*
X089228Y028596D03*
X089228Y028793D03*
X089228Y028990D03*
X089228Y029187D03*
X090891Y029187D03*
X090891Y028990D03*
X090891Y028793D03*
X090891Y028596D03*
X090891Y028400D03*
D31*
X092760Y028769D03*
X094460Y029319D03*
X092760Y029517D03*
X094460Y030067D03*
X097110Y021067D03*
X097110Y020319D03*
X092860Y013267D03*
X092860Y012519D03*
X075260Y012167D03*
X075260Y011419D03*
X054360Y021919D03*
X054360Y022667D03*
X052560Y022667D03*
X052560Y021919D03*
X052560Y023619D03*
X052560Y024367D03*
X054360Y024417D03*
X054360Y023669D03*
D32*
X084810Y019493D03*
X093810Y018393D03*
X097260Y012493D03*
X083910Y012493D03*
D33*
X087190Y012493D03*
X087190Y013163D03*
X087190Y013833D03*
X093980Y013833D03*
X093980Y013163D03*
X093980Y012493D03*
X093980Y011823D03*
X093980Y011153D03*
X087190Y011153D03*
X087190Y011823D03*
X097090Y017053D03*
X097090Y017723D03*
X097090Y018393D03*
X097090Y019063D03*
X097090Y019733D03*
X081530Y019493D03*
X081530Y018823D03*
X081530Y018153D03*
X081530Y020163D03*
X081530Y020833D03*
D34*
X080434Y019493D03*
X079685Y019493D03*
X079685Y018343D03*
X080434Y018343D03*
X088085Y013793D03*
X088834Y013793D03*
X092985Y010293D03*
X093734Y010293D03*
X075234Y009293D03*
X074485Y009293D03*
D35*
X047480Y010208D02*
X047480Y010398D01*
X047480Y010208D02*
X047120Y010208D01*
X047120Y010398D01*
X047480Y010398D01*
X047480Y010228D02*
X047120Y010228D01*
X047120Y010248D02*
X047480Y010248D01*
X047480Y010268D02*
X047120Y010268D01*
X047120Y010288D02*
X047480Y010288D01*
X047480Y010308D02*
X047120Y010308D01*
X047120Y010328D02*
X047480Y010328D01*
X047480Y010348D02*
X047120Y010348D01*
X047120Y010368D02*
X047480Y010368D01*
X047480Y010388D02*
X047120Y010388D01*
X047480Y010468D02*
X047480Y010658D01*
X047480Y010468D02*
X047120Y010468D01*
X047120Y010658D01*
X047480Y010658D01*
X047480Y010488D02*
X047120Y010488D01*
X047120Y010508D02*
X047480Y010508D01*
X047480Y010528D02*
X047120Y010528D01*
X047120Y010548D02*
X047480Y010548D01*
X047480Y010568D02*
X047120Y010568D01*
X047120Y010588D02*
X047480Y010588D01*
X047480Y010608D02*
X047120Y010608D01*
X047120Y010628D02*
X047480Y010628D01*
X047480Y010648D02*
X047120Y010648D01*
X047480Y010728D02*
X047480Y010918D01*
X047480Y010728D02*
X047120Y010728D01*
X047120Y010918D01*
X047480Y010918D01*
X047480Y010748D02*
X047120Y010748D01*
X047120Y010768D02*
X047480Y010768D01*
X047480Y010788D02*
X047120Y010788D01*
X047120Y010808D02*
X047480Y010808D01*
X047480Y010828D02*
X047120Y010828D01*
X047120Y010848D02*
X047480Y010848D01*
X047480Y010868D02*
X047120Y010868D01*
X047120Y010888D02*
X047480Y010888D01*
X047480Y010908D02*
X047120Y010908D01*
X047480Y010988D02*
X047480Y011178D01*
X047480Y010988D02*
X047120Y010988D01*
X047120Y011178D01*
X047480Y011178D01*
X047480Y011008D02*
X047120Y011008D01*
X047120Y011028D02*
X047480Y011028D01*
X047480Y011048D02*
X047120Y011048D01*
X047120Y011068D02*
X047480Y011068D01*
X047480Y011088D02*
X047120Y011088D01*
X047120Y011108D02*
X047480Y011108D01*
X047480Y011128D02*
X047120Y011128D01*
X047120Y011148D02*
X047480Y011148D01*
X047480Y011168D02*
X047120Y011168D01*
X046200Y011178D02*
X046200Y010988D01*
X045840Y010988D01*
X045840Y011178D01*
X046200Y011178D01*
X046200Y011008D02*
X045840Y011008D01*
X045840Y011028D02*
X046200Y011028D01*
X046200Y011048D02*
X045840Y011048D01*
X045840Y011068D02*
X046200Y011068D01*
X046200Y011088D02*
X045840Y011088D01*
X045840Y011108D02*
X046200Y011108D01*
X046200Y011128D02*
X045840Y011128D01*
X045840Y011148D02*
X046200Y011148D01*
X046200Y011168D02*
X045840Y011168D01*
X046200Y010918D02*
X046200Y010728D01*
X045840Y010728D01*
X045840Y010918D01*
X046200Y010918D01*
X046200Y010748D02*
X045840Y010748D01*
X045840Y010768D02*
X046200Y010768D01*
X046200Y010788D02*
X045840Y010788D01*
X045840Y010808D02*
X046200Y010808D01*
X046200Y010828D02*
X045840Y010828D01*
X045840Y010848D02*
X046200Y010848D01*
X046200Y010868D02*
X045840Y010868D01*
X045840Y010888D02*
X046200Y010888D01*
X046200Y010908D02*
X045840Y010908D01*
X046200Y010658D02*
X046200Y010468D01*
X045840Y010468D01*
X045840Y010658D01*
X046200Y010658D01*
X046200Y010488D02*
X045840Y010488D01*
X045840Y010508D02*
X046200Y010508D01*
X046200Y010528D02*
X045840Y010528D01*
X045840Y010548D02*
X046200Y010548D01*
X046200Y010568D02*
X045840Y010568D01*
X045840Y010588D02*
X046200Y010588D01*
X046200Y010608D02*
X045840Y010608D01*
X045840Y010628D02*
X046200Y010628D01*
X046200Y010648D02*
X045840Y010648D01*
X046200Y010398D02*
X046200Y010208D01*
X045840Y010208D01*
X045840Y010398D01*
X046200Y010398D01*
X046200Y010228D02*
X045840Y010228D01*
X045840Y010248D02*
X046200Y010248D01*
X046200Y010268D02*
X045840Y010268D01*
X045840Y010288D02*
X046200Y010288D01*
X046200Y010308D02*
X045840Y010308D01*
X045840Y010328D02*
X046200Y010328D01*
X046200Y010348D02*
X045840Y010348D01*
X045840Y010368D02*
X046200Y010368D01*
X046200Y010388D02*
X045840Y010388D01*
X043920Y011808D02*
X043920Y011998D01*
X044280Y011998D01*
X044280Y011808D01*
X043920Y011808D01*
X043920Y011828D02*
X044280Y011828D01*
X044280Y011848D02*
X043920Y011848D01*
X043920Y011868D02*
X044280Y011868D01*
X044280Y011888D02*
X043920Y011888D01*
X043920Y011908D02*
X044280Y011908D01*
X044280Y011928D02*
X043920Y011928D01*
X043920Y011948D02*
X044280Y011948D01*
X044280Y011968D02*
X043920Y011968D01*
X043920Y011988D02*
X044280Y011988D01*
X043920Y012068D02*
X043920Y012258D01*
X044280Y012258D01*
X044280Y012068D01*
X043920Y012068D01*
X043920Y012088D02*
X044280Y012088D01*
X044280Y012108D02*
X043920Y012108D01*
X043920Y012128D02*
X044280Y012128D01*
X044280Y012148D02*
X043920Y012148D01*
X043920Y012168D02*
X044280Y012168D01*
X044280Y012188D02*
X043920Y012188D01*
X043920Y012208D02*
X044280Y012208D01*
X044280Y012228D02*
X043920Y012228D01*
X043920Y012248D02*
X044280Y012248D01*
X043920Y012328D02*
X043920Y012518D01*
X044280Y012518D01*
X044280Y012328D01*
X043920Y012328D01*
X043920Y012348D02*
X044280Y012348D01*
X044280Y012368D02*
X043920Y012368D01*
X043920Y012388D02*
X044280Y012388D01*
X044280Y012408D02*
X043920Y012408D01*
X043920Y012428D02*
X044280Y012428D01*
X044280Y012448D02*
X043920Y012448D01*
X043920Y012468D02*
X044280Y012468D01*
X044280Y012488D02*
X043920Y012488D01*
X043920Y012508D02*
X044280Y012508D01*
X043920Y012588D02*
X043920Y012778D01*
X044280Y012778D01*
X044280Y012588D01*
X043920Y012588D01*
X043920Y012608D02*
X044280Y012608D01*
X044280Y012628D02*
X043920Y012628D01*
X043920Y012648D02*
X044280Y012648D01*
X044280Y012668D02*
X043920Y012668D01*
X043920Y012688D02*
X044280Y012688D01*
X044280Y012708D02*
X043920Y012708D01*
X043920Y012728D02*
X044280Y012728D01*
X044280Y012748D02*
X043920Y012748D01*
X043920Y012768D02*
X044280Y012768D01*
X042640Y012778D02*
X042640Y012588D01*
X042640Y012778D02*
X043000Y012778D01*
X043000Y012588D01*
X042640Y012588D01*
X042640Y012608D02*
X043000Y012608D01*
X043000Y012628D02*
X042640Y012628D01*
X042640Y012648D02*
X043000Y012648D01*
X043000Y012668D02*
X042640Y012668D01*
X042640Y012688D02*
X043000Y012688D01*
X043000Y012708D02*
X042640Y012708D01*
X042640Y012728D02*
X043000Y012728D01*
X043000Y012748D02*
X042640Y012748D01*
X042640Y012768D02*
X043000Y012768D01*
X042640Y012518D02*
X042640Y012328D01*
X042640Y012518D02*
X043000Y012518D01*
X043000Y012328D01*
X042640Y012328D01*
X042640Y012348D02*
X043000Y012348D01*
X043000Y012368D02*
X042640Y012368D01*
X042640Y012388D02*
X043000Y012388D01*
X043000Y012408D02*
X042640Y012408D01*
X042640Y012428D02*
X043000Y012428D01*
X043000Y012448D02*
X042640Y012448D01*
X042640Y012468D02*
X043000Y012468D01*
X043000Y012488D02*
X042640Y012488D01*
X042640Y012508D02*
X043000Y012508D01*
X042640Y012258D02*
X042640Y012068D01*
X042640Y012258D02*
X043000Y012258D01*
X043000Y012068D01*
X042640Y012068D01*
X042640Y012088D02*
X043000Y012088D01*
X043000Y012108D02*
X042640Y012108D01*
X042640Y012128D02*
X043000Y012128D01*
X043000Y012148D02*
X042640Y012148D01*
X042640Y012168D02*
X043000Y012168D01*
X043000Y012188D02*
X042640Y012188D01*
X042640Y012208D02*
X043000Y012208D01*
X043000Y012228D02*
X042640Y012228D01*
X042640Y012248D02*
X043000Y012248D01*
X042640Y011998D02*
X042640Y011808D01*
X042640Y011998D02*
X043000Y011998D01*
X043000Y011808D01*
X042640Y011808D01*
X042640Y011828D02*
X043000Y011828D01*
X043000Y011848D02*
X042640Y011848D01*
X042640Y011868D02*
X043000Y011868D01*
X043000Y011888D02*
X042640Y011888D01*
X042640Y011908D02*
X043000Y011908D01*
X043000Y011928D02*
X042640Y011928D01*
X042640Y011948D02*
X043000Y011948D01*
X043000Y011968D02*
X042640Y011968D01*
X042640Y011988D02*
X043000Y011988D01*
X046100Y014108D02*
X046100Y014298D01*
X046100Y014108D02*
X045740Y014108D01*
X045740Y014298D01*
X046100Y014298D01*
X046100Y014128D02*
X045740Y014128D01*
X045740Y014148D02*
X046100Y014148D01*
X046100Y014168D02*
X045740Y014168D01*
X045740Y014188D02*
X046100Y014188D01*
X046100Y014208D02*
X045740Y014208D01*
X045740Y014228D02*
X046100Y014228D01*
X046100Y014248D02*
X045740Y014248D01*
X045740Y014268D02*
X046100Y014268D01*
X046100Y014288D02*
X045740Y014288D01*
X046100Y014368D02*
X046100Y014558D01*
X046100Y014368D02*
X045740Y014368D01*
X045740Y014558D01*
X046100Y014558D01*
X046100Y014388D02*
X045740Y014388D01*
X045740Y014408D02*
X046100Y014408D01*
X046100Y014428D02*
X045740Y014428D01*
X045740Y014448D02*
X046100Y014448D01*
X046100Y014468D02*
X045740Y014468D01*
X045740Y014488D02*
X046100Y014488D01*
X046100Y014508D02*
X045740Y014508D01*
X045740Y014528D02*
X046100Y014528D01*
X046100Y014548D02*
X045740Y014548D01*
X046100Y014628D02*
X046100Y014818D01*
X046100Y014628D02*
X045740Y014628D01*
X045740Y014818D01*
X046100Y014818D01*
X046100Y014648D02*
X045740Y014648D01*
X045740Y014668D02*
X046100Y014668D01*
X046100Y014688D02*
X045740Y014688D01*
X045740Y014708D02*
X046100Y014708D01*
X046100Y014728D02*
X045740Y014728D01*
X045740Y014748D02*
X046100Y014748D01*
X046100Y014768D02*
X045740Y014768D01*
X045740Y014788D02*
X046100Y014788D01*
X046100Y014808D02*
X045740Y014808D01*
X046100Y014888D02*
X046100Y015078D01*
X046100Y014888D02*
X045740Y014888D01*
X045740Y015078D01*
X046100Y015078D01*
X046100Y014908D02*
X045740Y014908D01*
X045740Y014928D02*
X046100Y014928D01*
X046100Y014948D02*
X045740Y014948D01*
X045740Y014968D02*
X046100Y014968D01*
X046100Y014988D02*
X045740Y014988D01*
X045740Y015008D02*
X046100Y015008D01*
X046100Y015028D02*
X045740Y015028D01*
X045740Y015048D02*
X046100Y015048D01*
X046100Y015068D02*
X045740Y015068D01*
X047380Y015078D02*
X047380Y014888D01*
X047020Y014888D01*
X047020Y015078D01*
X047380Y015078D01*
X047380Y014908D02*
X047020Y014908D01*
X047020Y014928D02*
X047380Y014928D01*
X047380Y014948D02*
X047020Y014948D01*
X047020Y014968D02*
X047380Y014968D01*
X047380Y014988D02*
X047020Y014988D01*
X047020Y015008D02*
X047380Y015008D01*
X047380Y015028D02*
X047020Y015028D01*
X047020Y015048D02*
X047380Y015048D01*
X047380Y015068D02*
X047020Y015068D01*
X047380Y014818D02*
X047380Y014628D01*
X047020Y014628D01*
X047020Y014818D01*
X047380Y014818D01*
X047380Y014648D02*
X047020Y014648D01*
X047020Y014668D02*
X047380Y014668D01*
X047380Y014688D02*
X047020Y014688D01*
X047020Y014708D02*
X047380Y014708D01*
X047380Y014728D02*
X047020Y014728D01*
X047020Y014748D02*
X047380Y014748D01*
X047380Y014768D02*
X047020Y014768D01*
X047020Y014788D02*
X047380Y014788D01*
X047380Y014808D02*
X047020Y014808D01*
X047380Y014558D02*
X047380Y014368D01*
X047020Y014368D01*
X047020Y014558D01*
X047380Y014558D01*
X047380Y014388D02*
X047020Y014388D01*
X047020Y014408D02*
X047380Y014408D01*
X047380Y014428D02*
X047020Y014428D01*
X047020Y014448D02*
X047380Y014448D01*
X047380Y014468D02*
X047020Y014468D01*
X047020Y014488D02*
X047380Y014488D01*
X047380Y014508D02*
X047020Y014508D01*
X047020Y014528D02*
X047380Y014528D01*
X047380Y014548D02*
X047020Y014548D01*
X047380Y014298D02*
X047380Y014108D01*
X047020Y014108D01*
X047020Y014298D01*
X047380Y014298D01*
X047380Y014128D02*
X047020Y014128D01*
X047020Y014148D02*
X047380Y014148D01*
X047380Y014168D02*
X047020Y014168D01*
X047020Y014188D02*
X047380Y014188D01*
X047380Y014208D02*
X047020Y014208D01*
X047020Y014228D02*
X047380Y014228D01*
X047380Y014248D02*
X047020Y014248D01*
X047020Y014268D02*
X047380Y014268D01*
X047380Y014288D02*
X047020Y014288D01*
X021280Y012193D02*
X021280Y012003D01*
X021280Y012193D02*
X021640Y012193D01*
X021640Y012003D01*
X021280Y012003D01*
X021280Y012023D02*
X021640Y012023D01*
X021640Y012043D02*
X021280Y012043D01*
X021280Y012063D02*
X021640Y012063D01*
X021640Y012083D02*
X021280Y012083D01*
X021280Y012103D02*
X021640Y012103D01*
X021640Y012123D02*
X021280Y012123D01*
X021280Y012143D02*
X021640Y012143D01*
X021640Y012163D02*
X021280Y012163D01*
X021280Y012183D02*
X021640Y012183D01*
X021280Y011933D02*
X021280Y011743D01*
X021280Y011933D02*
X021640Y011933D01*
X021640Y011743D01*
X021280Y011743D01*
X021280Y011763D02*
X021640Y011763D01*
X021640Y011783D02*
X021280Y011783D01*
X021280Y011803D02*
X021640Y011803D01*
X021640Y011823D02*
X021280Y011823D01*
X021280Y011843D02*
X021640Y011843D01*
X021640Y011863D02*
X021280Y011863D01*
X021280Y011883D02*
X021640Y011883D01*
X021640Y011903D02*
X021280Y011903D01*
X021280Y011923D02*
X021640Y011923D01*
X021280Y011673D02*
X021280Y011483D01*
X021280Y011673D02*
X021640Y011673D01*
X021640Y011483D01*
X021280Y011483D01*
X021280Y011503D02*
X021640Y011503D01*
X021640Y011523D02*
X021280Y011523D01*
X021280Y011543D02*
X021640Y011543D01*
X021640Y011563D02*
X021280Y011563D01*
X021280Y011583D02*
X021640Y011583D01*
X021640Y011603D02*
X021280Y011603D01*
X021280Y011623D02*
X021640Y011623D01*
X021640Y011643D02*
X021280Y011643D01*
X021280Y011663D02*
X021640Y011663D01*
X021280Y011413D02*
X021280Y011223D01*
X021280Y011413D02*
X021640Y011413D01*
X021640Y011223D01*
X021280Y011223D01*
X021280Y011243D02*
X021640Y011243D01*
X021640Y011263D02*
X021280Y011263D01*
X021280Y011283D02*
X021640Y011283D01*
X021640Y011303D02*
X021280Y011303D01*
X021280Y011323D02*
X021640Y011323D01*
X021640Y011343D02*
X021280Y011343D01*
X021280Y011363D02*
X021640Y011363D01*
X021640Y011383D02*
X021280Y011383D01*
X021280Y011403D02*
X021640Y011403D01*
X020000Y011413D02*
X020000Y011223D01*
X020000Y011413D02*
X020360Y011413D01*
X020360Y011223D01*
X020000Y011223D01*
X020000Y011243D02*
X020360Y011243D01*
X020360Y011263D02*
X020000Y011263D01*
X020000Y011283D02*
X020360Y011283D01*
X020360Y011303D02*
X020000Y011303D01*
X020000Y011323D02*
X020360Y011323D01*
X020360Y011343D02*
X020000Y011343D01*
X020000Y011363D02*
X020360Y011363D01*
X020360Y011383D02*
X020000Y011383D01*
X020000Y011403D02*
X020360Y011403D01*
X020000Y011483D02*
X020000Y011673D01*
X020360Y011673D01*
X020360Y011483D01*
X020000Y011483D01*
X020000Y011503D02*
X020360Y011503D01*
X020360Y011523D02*
X020000Y011523D01*
X020000Y011543D02*
X020360Y011543D01*
X020360Y011563D02*
X020000Y011563D01*
X020000Y011583D02*
X020360Y011583D01*
X020360Y011603D02*
X020000Y011603D01*
X020000Y011623D02*
X020360Y011623D01*
X020360Y011643D02*
X020000Y011643D01*
X020000Y011663D02*
X020360Y011663D01*
X020000Y011743D02*
X020000Y011933D01*
X020360Y011933D01*
X020360Y011743D01*
X020000Y011743D01*
X020000Y011763D02*
X020360Y011763D01*
X020360Y011783D02*
X020000Y011783D01*
X020000Y011803D02*
X020360Y011803D01*
X020360Y011823D02*
X020000Y011823D01*
X020000Y011843D02*
X020360Y011843D01*
X020360Y011863D02*
X020000Y011863D01*
X020000Y011883D02*
X020360Y011883D01*
X020360Y011903D02*
X020000Y011903D01*
X020000Y011923D02*
X020360Y011923D01*
X020000Y012003D02*
X020000Y012193D01*
X020360Y012193D01*
X020360Y012003D01*
X020000Y012003D01*
X020000Y012023D02*
X020360Y012023D01*
X020360Y012043D02*
X020000Y012043D01*
X020000Y012063D02*
X020360Y012063D01*
X020360Y012083D02*
X020000Y012083D01*
X020000Y012103D02*
X020360Y012103D01*
X020360Y012123D02*
X020000Y012123D01*
X020000Y012143D02*
X020360Y012143D01*
X020360Y012163D02*
X020000Y012163D01*
X020000Y012183D02*
X020360Y012183D01*
D36*
X020570Y012158D02*
X020570Y011258D01*
X020720Y011258D01*
X020720Y010908D01*
X020920Y010908D01*
X020920Y011258D01*
X021070Y011258D01*
X021070Y012158D01*
X020920Y012158D01*
X020920Y012508D01*
X020720Y012508D01*
X020720Y012158D01*
X020570Y012158D01*
X020570Y012128D02*
X021070Y012128D01*
X021070Y012079D02*
X020570Y012079D01*
X020570Y012031D02*
X021070Y012031D01*
X021070Y011982D02*
X020570Y011982D01*
X020570Y011934D02*
X021070Y011934D01*
X021070Y011885D02*
X020570Y011885D01*
X020570Y011837D02*
X021070Y011837D01*
X021070Y011788D02*
X020570Y011788D01*
X020570Y011740D02*
X021070Y011740D01*
X021070Y011691D02*
X020570Y011691D01*
X020570Y011643D02*
X021070Y011643D01*
X021070Y011594D02*
X020570Y011594D01*
X020570Y011546D02*
X021070Y011546D01*
X021070Y011497D02*
X020570Y011497D01*
X020570Y011449D02*
X021070Y011449D01*
X021070Y011400D02*
X020570Y011400D01*
X020570Y011352D02*
X021070Y011352D01*
X021070Y011303D02*
X020570Y011303D01*
X020720Y011255D02*
X020920Y011255D01*
X020920Y011206D02*
X020720Y011206D01*
X020720Y011158D02*
X020920Y011158D01*
X020920Y011109D02*
X020720Y011109D01*
X020720Y011061D02*
X020920Y011061D01*
X020920Y011012D02*
X020720Y011012D01*
X020720Y010964D02*
X020920Y010964D01*
X020920Y010915D02*
X020720Y010915D01*
X020720Y012176D02*
X020920Y012176D01*
X020920Y012225D02*
X020720Y012225D01*
X020720Y012273D02*
X020920Y012273D01*
X020920Y012322D02*
X020720Y012322D01*
X020720Y012370D02*
X020920Y012370D01*
X020920Y012419D02*
X020720Y012419D01*
X020720Y012467D02*
X020920Y012467D01*
X037050Y011903D02*
X037050Y010803D01*
X037250Y010603D01*
X037650Y010603D01*
X037850Y010803D01*
X037850Y011903D01*
X037650Y012103D01*
X037250Y012103D01*
X037050Y011903D01*
X037050Y011885D02*
X037850Y011885D01*
X037850Y011837D02*
X037050Y011837D01*
X037050Y011788D02*
X037850Y011788D01*
X037850Y011740D02*
X037050Y011740D01*
X037050Y011691D02*
X037850Y011691D01*
X037850Y011643D02*
X037050Y011643D01*
X037050Y011594D02*
X037850Y011594D01*
X037850Y011546D02*
X037050Y011546D01*
X037050Y011497D02*
X037850Y011497D01*
X037850Y011449D02*
X037050Y011449D01*
X037050Y011400D02*
X037850Y011400D01*
X037850Y011352D02*
X037050Y011352D01*
X037050Y011303D02*
X037850Y011303D01*
X037850Y011255D02*
X037050Y011255D01*
X037050Y011206D02*
X037850Y011206D01*
X037850Y011158D02*
X037050Y011158D01*
X037050Y011109D02*
X037850Y011109D01*
X037850Y011061D02*
X037050Y011061D01*
X037050Y011012D02*
X037850Y011012D01*
X037850Y010964D02*
X037050Y010964D01*
X037050Y010915D02*
X037850Y010915D01*
X037850Y010867D02*
X037050Y010867D01*
X037050Y010818D02*
X037850Y010818D01*
X037816Y010770D02*
X037083Y010770D01*
X037132Y010721D02*
X037768Y010721D01*
X037719Y010673D02*
X037180Y010673D01*
X037229Y010624D02*
X037671Y010624D01*
X037819Y011934D02*
X037080Y011934D01*
X037129Y011982D02*
X037770Y011982D01*
X037722Y012031D02*
X037177Y012031D01*
X037226Y012079D02*
X037673Y012079D01*
X043210Y012079D02*
X043710Y012079D01*
X043710Y012031D02*
X043210Y012031D01*
X043210Y011982D02*
X043710Y011982D01*
X043710Y011934D02*
X043210Y011934D01*
X043210Y011885D02*
X043710Y011885D01*
X043710Y011843D02*
X043710Y012743D01*
X043560Y012743D01*
X043560Y013093D01*
X043360Y013093D01*
X043360Y012743D01*
X043210Y012743D01*
X043210Y011843D01*
X043360Y011843D01*
X043360Y011493D01*
X043560Y011493D01*
X043560Y011843D01*
X043710Y011843D01*
X043560Y011837D02*
X043360Y011837D01*
X043360Y011788D02*
X043560Y011788D01*
X043560Y011740D02*
X043360Y011740D01*
X043360Y011691D02*
X043560Y011691D01*
X043560Y011643D02*
X043360Y011643D01*
X043360Y011594D02*
X043560Y011594D01*
X043560Y011546D02*
X043360Y011546D01*
X043360Y011497D02*
X043560Y011497D01*
X043710Y012128D02*
X043210Y012128D01*
X043210Y012176D02*
X043710Y012176D01*
X043710Y012225D02*
X043210Y012225D01*
X043210Y012273D02*
X043710Y012273D01*
X043710Y012322D02*
X043210Y012322D01*
X043210Y012370D02*
X043710Y012370D01*
X043710Y012419D02*
X043210Y012419D01*
X043210Y012467D02*
X043710Y012467D01*
X043710Y012516D02*
X043210Y012516D01*
X043210Y012564D02*
X043710Y012564D01*
X043710Y012613D02*
X043210Y012613D01*
X043210Y012661D02*
X043710Y012661D01*
X043710Y012710D02*
X043210Y012710D01*
X043360Y012758D02*
X043560Y012758D01*
X043560Y012807D02*
X043360Y012807D01*
X043360Y012855D02*
X043560Y012855D01*
X043560Y012904D02*
X043360Y012904D01*
X043360Y012952D02*
X043560Y012952D01*
X043560Y013001D02*
X043360Y013001D01*
X043360Y013049D02*
X043560Y013049D01*
X046460Y013793D02*
X046660Y013793D01*
X046660Y014143D01*
X046810Y014143D01*
X046810Y015043D01*
X046660Y015043D01*
X046660Y015393D01*
X046460Y015393D01*
X046460Y015043D01*
X046310Y015043D01*
X046310Y014143D01*
X046460Y014143D01*
X046460Y013793D01*
X046460Y013825D02*
X046660Y013825D01*
X046660Y013874D02*
X046460Y013874D01*
X046460Y013922D02*
X046660Y013922D01*
X046660Y013971D02*
X046460Y013971D01*
X046460Y014019D02*
X046660Y014019D01*
X046660Y014068D02*
X046460Y014068D01*
X046460Y014116D02*
X046660Y014116D01*
X046810Y014165D02*
X046310Y014165D01*
X046310Y014213D02*
X046810Y014213D01*
X046810Y014262D02*
X046310Y014262D01*
X046310Y014310D02*
X046810Y014310D01*
X046810Y014359D02*
X046310Y014359D01*
X046310Y014407D02*
X046810Y014407D01*
X046810Y014456D02*
X046310Y014456D01*
X046310Y014504D02*
X046810Y014504D01*
X046810Y014553D02*
X046310Y014553D01*
X046310Y014601D02*
X046810Y014601D01*
X046810Y014650D02*
X046310Y014650D01*
X046310Y014698D02*
X046810Y014698D01*
X046810Y014747D02*
X046310Y014747D01*
X046310Y014795D02*
X046810Y014795D01*
X046810Y014844D02*
X046310Y014844D01*
X046310Y014892D02*
X046810Y014892D01*
X046810Y014941D02*
X046310Y014941D01*
X046310Y014989D02*
X046810Y014989D01*
X046810Y015038D02*
X046310Y015038D01*
X046460Y015086D02*
X046660Y015086D01*
X046660Y015135D02*
X046460Y015135D01*
X046460Y015183D02*
X046660Y015183D01*
X046660Y015232D02*
X046460Y015232D01*
X046460Y015280D02*
X046660Y015280D01*
X046660Y015329D02*
X046460Y015329D01*
X046460Y015377D02*
X046660Y015377D01*
X046760Y011493D02*
X046560Y011493D01*
X046560Y011143D01*
X046410Y011143D01*
X046410Y010243D01*
X046560Y010243D01*
X046560Y009893D01*
X046760Y009893D01*
X046760Y010243D01*
X046910Y010243D01*
X046910Y011143D01*
X046760Y011143D01*
X046760Y011493D01*
X046760Y011449D02*
X046560Y011449D01*
X046560Y011400D02*
X046760Y011400D01*
X046760Y011352D02*
X046560Y011352D01*
X046560Y011303D02*
X046760Y011303D01*
X046760Y011255D02*
X046560Y011255D01*
X046560Y011206D02*
X046760Y011206D01*
X046760Y011158D02*
X046560Y011158D01*
X046410Y011109D02*
X046910Y011109D01*
X046910Y011061D02*
X046410Y011061D01*
X046410Y011012D02*
X046910Y011012D01*
X046910Y010964D02*
X046410Y010964D01*
X046410Y010915D02*
X046910Y010915D01*
X046910Y010867D02*
X046410Y010867D01*
X046410Y010818D02*
X046910Y010818D01*
X046910Y010770D02*
X046410Y010770D01*
X046410Y010721D02*
X046910Y010721D01*
X046910Y010673D02*
X046410Y010673D01*
X046410Y010624D02*
X046910Y010624D01*
X046910Y010576D02*
X046410Y010576D01*
X046410Y010527D02*
X046910Y010527D01*
X046910Y010479D02*
X046410Y010479D01*
X046410Y010430D02*
X046910Y010430D01*
X046910Y010382D02*
X046410Y010382D01*
X046410Y010333D02*
X046910Y010333D01*
X046910Y010285D02*
X046410Y010285D01*
X046560Y010236D02*
X046760Y010236D01*
X046760Y010188D02*
X046560Y010188D01*
X046560Y010139D02*
X046760Y010139D01*
X046760Y010091D02*
X046560Y010091D01*
X046560Y010042D02*
X046760Y010042D01*
X046760Y009994D02*
X046560Y009994D01*
X046560Y009945D02*
X046760Y009945D01*
X046760Y009897D02*
X046560Y009897D01*
D37*
X032440Y012353D03*
X030440Y012353D03*
X030440Y013353D03*
X032440Y013353D03*
X032440Y014353D03*
X030440Y014353D03*
D38*
X022465Y015883D03*
D39*
X021870Y016463D03*
X021870Y015303D03*
D40*
X113960Y017843D03*
X114960Y017843D03*
X115960Y017843D03*
X116960Y017843D03*
X116960Y018843D03*
X115960Y018843D03*
X114960Y018843D03*
X113960Y018843D03*
X123660Y017993D03*
X124660Y017993D03*
X124660Y016993D03*
X123660Y016993D03*
X123660Y015993D03*
X124660Y015993D03*
X124660Y014993D03*
X123660Y014993D03*
X123660Y013993D03*
X124660Y013993D03*
X124660Y012993D03*
X123660Y012993D03*
X123660Y011993D03*
X124660Y011993D03*
X124660Y010993D03*
X123660Y010993D03*
D41*
X076871Y019969D03*
X075848Y019969D03*
X075848Y020343D03*
X075848Y020717D03*
X076871Y020717D03*
X075171Y010767D03*
X074148Y010767D03*
X074148Y010393D03*
X074148Y010019D03*
X075171Y010019D03*
D42*
X038040Y012403D03*
X036860Y012403D03*
D43*
X037450Y012403D03*
D44*
X036100Y012388D03*
X035100Y012388D03*
X035100Y011118D03*
X036100Y011118D03*
D45*
X035600Y012138D03*
D46*
X034000Y012333D03*
X034000Y012433D03*
X029530Y012433D03*
X029530Y012333D03*
X027990Y012333D03*
X027990Y012233D03*
X048170Y014453D03*
X048170Y014553D03*
X048280Y010653D03*
X048280Y010553D03*
D47*
X038910Y012408D03*
X038910Y013098D03*
D48*
X041204Y012426D03*
X041755Y012426D03*
X048744Y010570D03*
X049295Y010570D03*
X049265Y014460D03*
X048714Y014460D03*
X028905Y012336D03*
X028354Y012336D03*
X027615Y012336D03*
X027064Y012336D03*
D49*
X027340Y012690D03*
X028630Y012690D03*
X041480Y012780D03*
X048990Y014106D03*
X049020Y010216D03*
D50*
X029490Y011953D03*
X029490Y012953D03*
D51*
X035160Y009893D03*
X068360Y017693D03*
X083160Y018893D03*
X083860Y018793D03*
X083160Y019493D03*
X083860Y019793D03*
X083160Y020193D03*
X083860Y020593D03*
X083160Y020993D03*
X083860Y017893D03*
X085460Y017893D03*
X087460Y014543D03*
X055360Y022593D03*
X051960Y022643D03*
X050310Y022443D03*
X051710Y023793D03*
X048760Y025743D03*
X023120Y021033D03*
X088063Y028990D03*
X088710Y029493D03*
X091960Y028593D03*
X092460Y028093D03*
X091260Y027593D03*
X090260Y027693D03*
X088960Y027943D03*
X094060Y030593D03*
X094760Y030593D03*
M02*
