G75*
%MOIN*%
%OFA0B0*%
%FSLAX24Y24*%
%IPPOS*%
%LPD*%
%AMOC8*
5,1,8,0,0,1.08239X$1,22.5*
%
%ADD10C,0.0000*%
%ADD11C,0.0180*%
%ADD12C,0.0020*%
%ADD13C,0.0040*%
%ADD14C,0.0100*%
%ADD15C,0.0080*%
%ADD16C,0.0060*%
%ADD17R,0.0200X0.0200*%
%ADD18C,0.0030*%
%ADD19C,0.0000*%
%ADD20R,0.0374X0.0354*%
%ADD21R,0.0354X0.0374*%
%ADD22C,0.0050*%
%ADD23R,0.0197X0.0256*%
%ADD24R,0.0193X0.0433*%
%ADD25C,0.0020*%
%ADD26R,0.0394X0.0098*%
%ADD27R,0.0850X0.0380*%
%ADD28R,0.0660X0.0380*%
%ADD29R,0.0256X0.0197*%
D10*
X007460Y008393D02*
X127460Y008393D01*
X127460Y020893D01*
X107460Y020893D01*
X107460Y033393D01*
X007460Y033393D01*
X007460Y008393D01*
X009380Y010893D02*
X009382Y010941D01*
X009388Y010988D01*
X009398Y011035D01*
X009411Y011081D01*
X009429Y011126D01*
X009450Y011169D01*
X009474Y011210D01*
X009502Y011249D01*
X009533Y011286D01*
X009567Y011320D01*
X009604Y011351D01*
X009643Y011379D01*
X009684Y011403D01*
X009727Y011424D01*
X009772Y011442D01*
X009818Y011455D01*
X009865Y011465D01*
X009912Y011471D01*
X009960Y011473D01*
X010008Y011471D01*
X010055Y011465D01*
X010102Y011455D01*
X010148Y011442D01*
X010193Y011424D01*
X010236Y011403D01*
X010277Y011379D01*
X010316Y011351D01*
X010353Y011320D01*
X010387Y011286D01*
X010418Y011249D01*
X010446Y011210D01*
X010470Y011169D01*
X010491Y011126D01*
X010509Y011081D01*
X010522Y011035D01*
X010532Y010988D01*
X010538Y010941D01*
X010540Y010893D01*
X010538Y010845D01*
X010532Y010798D01*
X010522Y010751D01*
X010509Y010705D01*
X010491Y010660D01*
X010470Y010617D01*
X010446Y010576D01*
X010418Y010537D01*
X010387Y010500D01*
X010353Y010466D01*
X010316Y010435D01*
X010277Y010407D01*
X010236Y010383D01*
X010193Y010362D01*
X010148Y010344D01*
X010102Y010331D01*
X010055Y010321D01*
X010008Y010315D01*
X009960Y010313D01*
X009912Y010315D01*
X009865Y010321D01*
X009818Y010331D01*
X009772Y010344D01*
X009727Y010362D01*
X009684Y010383D01*
X009643Y010407D01*
X009604Y010435D01*
X009567Y010466D01*
X009533Y010500D01*
X009502Y010537D01*
X009474Y010576D01*
X009450Y010617D01*
X009429Y010660D01*
X009411Y010705D01*
X009398Y010751D01*
X009388Y010798D01*
X009382Y010845D01*
X009380Y010893D01*
X072460Y015893D02*
X072462Y015992D01*
X072468Y016092D01*
X072478Y016191D01*
X072492Y016289D01*
X072509Y016387D01*
X072531Y016484D01*
X072556Y016580D01*
X072585Y016675D01*
X072618Y016769D01*
X072655Y016861D01*
X072695Y016952D01*
X072739Y017041D01*
X072787Y017129D01*
X072838Y017214D01*
X072892Y017297D01*
X072949Y017379D01*
X073010Y017457D01*
X073074Y017534D01*
X073140Y017607D01*
X073210Y017678D01*
X073282Y017746D01*
X073357Y017812D01*
X073435Y017874D01*
X073515Y017933D01*
X073597Y017989D01*
X073681Y018041D01*
X073768Y018090D01*
X073856Y018136D01*
X073946Y018178D01*
X074038Y018217D01*
X074131Y018252D01*
X074225Y018283D01*
X074321Y018310D01*
X074418Y018333D01*
X074515Y018353D01*
X074613Y018369D01*
X074712Y018381D01*
X074811Y018389D01*
X074910Y018393D01*
X075010Y018393D01*
X075109Y018389D01*
X075208Y018381D01*
X075307Y018369D01*
X075405Y018353D01*
X075502Y018333D01*
X075599Y018310D01*
X075695Y018283D01*
X075789Y018252D01*
X075882Y018217D01*
X075974Y018178D01*
X076064Y018136D01*
X076152Y018090D01*
X076239Y018041D01*
X076323Y017989D01*
X076405Y017933D01*
X076485Y017874D01*
X076563Y017812D01*
X076638Y017746D01*
X076710Y017678D01*
X076780Y017607D01*
X076846Y017534D01*
X076910Y017457D01*
X076971Y017379D01*
X077028Y017297D01*
X077082Y017214D01*
X077133Y017129D01*
X077181Y017041D01*
X077225Y016952D01*
X077265Y016861D01*
X077302Y016769D01*
X077335Y016675D01*
X077364Y016580D01*
X077389Y016484D01*
X077411Y016387D01*
X077428Y016289D01*
X077442Y016191D01*
X077452Y016092D01*
X077458Y015992D01*
X077460Y015893D01*
X077458Y015794D01*
X077452Y015694D01*
X077442Y015595D01*
X077428Y015497D01*
X077411Y015399D01*
X077389Y015302D01*
X077364Y015206D01*
X077335Y015111D01*
X077302Y015017D01*
X077265Y014925D01*
X077225Y014834D01*
X077181Y014745D01*
X077133Y014657D01*
X077082Y014572D01*
X077028Y014489D01*
X076971Y014407D01*
X076910Y014329D01*
X076846Y014252D01*
X076780Y014179D01*
X076710Y014108D01*
X076638Y014040D01*
X076563Y013974D01*
X076485Y013912D01*
X076405Y013853D01*
X076323Y013797D01*
X076239Y013745D01*
X076152Y013696D01*
X076064Y013650D01*
X075974Y013608D01*
X075882Y013569D01*
X075789Y013534D01*
X075695Y013503D01*
X075599Y013476D01*
X075502Y013453D01*
X075405Y013433D01*
X075307Y013417D01*
X075208Y013405D01*
X075109Y013397D01*
X075010Y013393D01*
X074910Y013393D01*
X074811Y013397D01*
X074712Y013405D01*
X074613Y013417D01*
X074515Y013433D01*
X074418Y013453D01*
X074321Y013476D01*
X074225Y013503D01*
X074131Y013534D01*
X074038Y013569D01*
X073946Y013608D01*
X073856Y013650D01*
X073768Y013696D01*
X073681Y013745D01*
X073597Y013797D01*
X073515Y013853D01*
X073435Y013912D01*
X073357Y013974D01*
X073282Y014040D01*
X073210Y014108D01*
X073140Y014179D01*
X073074Y014252D01*
X073010Y014329D01*
X072949Y014407D01*
X072892Y014489D01*
X072838Y014572D01*
X072787Y014657D01*
X072739Y014745D01*
X072695Y014834D01*
X072655Y014925D01*
X072618Y015017D01*
X072585Y015111D01*
X072556Y015206D01*
X072531Y015302D01*
X072509Y015399D01*
X072492Y015497D01*
X072478Y015595D01*
X072468Y015694D01*
X072462Y015794D01*
X072460Y015893D01*
X104380Y010893D02*
X104382Y010941D01*
X104388Y010988D01*
X104398Y011035D01*
X104411Y011081D01*
X104429Y011126D01*
X104450Y011169D01*
X104474Y011210D01*
X104502Y011249D01*
X104533Y011286D01*
X104567Y011320D01*
X104604Y011351D01*
X104643Y011379D01*
X104684Y011403D01*
X104727Y011424D01*
X104772Y011442D01*
X104818Y011455D01*
X104865Y011465D01*
X104912Y011471D01*
X104960Y011473D01*
X105008Y011471D01*
X105055Y011465D01*
X105102Y011455D01*
X105148Y011442D01*
X105193Y011424D01*
X105236Y011403D01*
X105277Y011379D01*
X105316Y011351D01*
X105353Y011320D01*
X105387Y011286D01*
X105418Y011249D01*
X105446Y011210D01*
X105470Y011169D01*
X105491Y011126D01*
X105509Y011081D01*
X105522Y011035D01*
X105532Y010988D01*
X105538Y010941D01*
X105540Y010893D01*
X105538Y010845D01*
X105532Y010798D01*
X105522Y010751D01*
X105509Y010705D01*
X105491Y010660D01*
X105470Y010617D01*
X105446Y010576D01*
X105418Y010537D01*
X105387Y010500D01*
X105353Y010466D01*
X105316Y010435D01*
X105277Y010407D01*
X105236Y010383D01*
X105193Y010362D01*
X105148Y010344D01*
X105102Y010331D01*
X105055Y010321D01*
X105008Y010315D01*
X104960Y010313D01*
X104912Y010315D01*
X104865Y010321D01*
X104818Y010331D01*
X104772Y010344D01*
X104727Y010362D01*
X104684Y010383D01*
X104643Y010407D01*
X104604Y010435D01*
X104567Y010466D01*
X104533Y010500D01*
X104502Y010537D01*
X104474Y010576D01*
X104450Y010617D01*
X104429Y010660D01*
X104411Y010705D01*
X104398Y010751D01*
X104388Y010798D01*
X104382Y010845D01*
X104380Y010893D01*
X101712Y025893D02*
X101714Y025940D01*
X101720Y025986D01*
X101730Y026032D01*
X101743Y026077D01*
X101761Y026120D01*
X101782Y026162D01*
X101806Y026202D01*
X101834Y026239D01*
X101865Y026274D01*
X101899Y026307D01*
X101935Y026336D01*
X101974Y026362D01*
X102015Y026385D01*
X102058Y026404D01*
X102102Y026420D01*
X102147Y026432D01*
X102193Y026440D01*
X102240Y026444D01*
X102286Y026444D01*
X102333Y026440D01*
X102379Y026432D01*
X102424Y026420D01*
X102468Y026404D01*
X102511Y026385D01*
X102552Y026362D01*
X102591Y026336D01*
X102627Y026307D01*
X102661Y026274D01*
X102692Y026239D01*
X102720Y026202D01*
X102744Y026162D01*
X102765Y026120D01*
X102783Y026077D01*
X102796Y026032D01*
X102806Y025986D01*
X102812Y025940D01*
X102814Y025893D01*
X102812Y025846D01*
X102806Y025800D01*
X102796Y025754D01*
X102783Y025709D01*
X102765Y025666D01*
X102744Y025624D01*
X102720Y025584D01*
X102692Y025547D01*
X102661Y025512D01*
X102627Y025479D01*
X102591Y025450D01*
X102552Y025424D01*
X102511Y025401D01*
X102468Y025382D01*
X102424Y025366D01*
X102379Y025354D01*
X102333Y025346D01*
X102286Y025342D01*
X102240Y025342D01*
X102193Y025346D01*
X102147Y025354D01*
X102102Y025366D01*
X102058Y025382D01*
X102015Y025401D01*
X101974Y025424D01*
X101935Y025450D01*
X101899Y025479D01*
X101865Y025512D01*
X101834Y025547D01*
X101806Y025584D01*
X101782Y025624D01*
X101761Y025666D01*
X101743Y025709D01*
X101730Y025754D01*
X101720Y025800D01*
X101714Y025846D01*
X101712Y025893D01*
X097184Y025893D02*
X097186Y025940D01*
X097192Y025986D01*
X097202Y026032D01*
X097215Y026077D01*
X097233Y026120D01*
X097254Y026162D01*
X097278Y026202D01*
X097306Y026239D01*
X097337Y026274D01*
X097371Y026307D01*
X097407Y026336D01*
X097446Y026362D01*
X097487Y026385D01*
X097530Y026404D01*
X097574Y026420D01*
X097619Y026432D01*
X097665Y026440D01*
X097712Y026444D01*
X097758Y026444D01*
X097805Y026440D01*
X097851Y026432D01*
X097896Y026420D01*
X097940Y026404D01*
X097983Y026385D01*
X098024Y026362D01*
X098063Y026336D01*
X098099Y026307D01*
X098133Y026274D01*
X098164Y026239D01*
X098192Y026202D01*
X098216Y026162D01*
X098237Y026120D01*
X098255Y026077D01*
X098268Y026032D01*
X098278Y025986D01*
X098284Y025940D01*
X098286Y025893D01*
X098284Y025846D01*
X098278Y025800D01*
X098268Y025754D01*
X098255Y025709D01*
X098237Y025666D01*
X098216Y025624D01*
X098192Y025584D01*
X098164Y025547D01*
X098133Y025512D01*
X098099Y025479D01*
X098063Y025450D01*
X098024Y025424D01*
X097983Y025401D01*
X097940Y025382D01*
X097896Y025366D01*
X097851Y025354D01*
X097805Y025346D01*
X097758Y025342D01*
X097712Y025342D01*
X097665Y025346D01*
X097619Y025354D01*
X097574Y025366D01*
X097530Y025382D01*
X097487Y025401D01*
X097446Y025424D01*
X097407Y025450D01*
X097371Y025479D01*
X097337Y025512D01*
X097306Y025547D01*
X097278Y025584D01*
X097254Y025624D01*
X097233Y025666D01*
X097215Y025709D01*
X097202Y025754D01*
X097192Y025800D01*
X097186Y025846D01*
X097184Y025893D01*
X099380Y030893D02*
X099382Y030941D01*
X099388Y030988D01*
X099398Y031035D01*
X099411Y031081D01*
X099429Y031126D01*
X099450Y031169D01*
X099474Y031210D01*
X099502Y031249D01*
X099533Y031286D01*
X099567Y031320D01*
X099604Y031351D01*
X099643Y031379D01*
X099684Y031403D01*
X099727Y031424D01*
X099772Y031442D01*
X099818Y031455D01*
X099865Y031465D01*
X099912Y031471D01*
X099960Y031473D01*
X100008Y031471D01*
X100055Y031465D01*
X100102Y031455D01*
X100148Y031442D01*
X100193Y031424D01*
X100236Y031403D01*
X100277Y031379D01*
X100316Y031351D01*
X100353Y031320D01*
X100387Y031286D01*
X100418Y031249D01*
X100446Y031210D01*
X100470Y031169D01*
X100491Y031126D01*
X100509Y031081D01*
X100522Y031035D01*
X100532Y030988D01*
X100538Y030941D01*
X100540Y030893D01*
X100538Y030845D01*
X100532Y030798D01*
X100522Y030751D01*
X100509Y030705D01*
X100491Y030660D01*
X100470Y030617D01*
X100446Y030576D01*
X100418Y030537D01*
X100387Y030500D01*
X100353Y030466D01*
X100316Y030435D01*
X100277Y030407D01*
X100236Y030383D01*
X100193Y030362D01*
X100148Y030344D01*
X100102Y030331D01*
X100055Y030321D01*
X100008Y030315D01*
X099960Y030313D01*
X099912Y030315D01*
X099865Y030321D01*
X099818Y030331D01*
X099772Y030344D01*
X099727Y030362D01*
X099684Y030383D01*
X099643Y030407D01*
X099604Y030435D01*
X099567Y030466D01*
X099533Y030500D01*
X099502Y030537D01*
X099474Y030576D01*
X099450Y030617D01*
X099429Y030660D01*
X099411Y030705D01*
X099398Y030751D01*
X099388Y030798D01*
X099382Y030845D01*
X099380Y030893D01*
X009380Y030893D02*
X009382Y030941D01*
X009388Y030988D01*
X009398Y031035D01*
X009411Y031081D01*
X009429Y031126D01*
X009450Y031169D01*
X009474Y031210D01*
X009502Y031249D01*
X009533Y031286D01*
X009567Y031320D01*
X009604Y031351D01*
X009643Y031379D01*
X009684Y031403D01*
X009727Y031424D01*
X009772Y031442D01*
X009818Y031455D01*
X009865Y031465D01*
X009912Y031471D01*
X009960Y031473D01*
X010008Y031471D01*
X010055Y031465D01*
X010102Y031455D01*
X010148Y031442D01*
X010193Y031424D01*
X010236Y031403D01*
X010277Y031379D01*
X010316Y031351D01*
X010353Y031320D01*
X010387Y031286D01*
X010418Y031249D01*
X010446Y031210D01*
X010470Y031169D01*
X010491Y031126D01*
X010509Y031081D01*
X010522Y031035D01*
X010532Y030988D01*
X010538Y030941D01*
X010540Y030893D01*
X010538Y030845D01*
X010532Y030798D01*
X010522Y030751D01*
X010509Y030705D01*
X010491Y030660D01*
X010470Y030617D01*
X010446Y030576D01*
X010418Y030537D01*
X010387Y030500D01*
X010353Y030466D01*
X010316Y030435D01*
X010277Y030407D01*
X010236Y030383D01*
X010193Y030362D01*
X010148Y030344D01*
X010102Y030331D01*
X010055Y030321D01*
X010008Y030315D01*
X009960Y030313D01*
X009912Y030315D01*
X009865Y030321D01*
X009818Y030331D01*
X009772Y030344D01*
X009727Y030362D01*
X009684Y030383D01*
X009643Y030407D01*
X009604Y030435D01*
X009567Y030466D01*
X009533Y030500D01*
X009502Y030537D01*
X009474Y030576D01*
X009450Y030617D01*
X009429Y030660D01*
X009411Y030705D01*
X009398Y030751D01*
X009388Y030798D01*
X009382Y030845D01*
X009380Y030893D01*
D11*
X044510Y021693D02*
X044810Y021993D01*
X044860Y021993D02*
X046260Y021993D01*
X046010Y022243D01*
X046010Y021743D01*
X046260Y021993D01*
D12*
X049104Y022531D02*
X049104Y022671D01*
X049151Y022718D01*
X049244Y022718D01*
X049291Y022671D01*
X049291Y022531D01*
X049291Y022624D02*
X049385Y022718D01*
X049338Y022807D02*
X049385Y022854D01*
X049385Y022947D01*
X049338Y022994D01*
X049151Y022994D01*
X049104Y022947D01*
X049104Y022854D01*
X049151Y022807D01*
X049198Y022807D01*
X049244Y022854D01*
X049244Y022994D01*
X049385Y022531D02*
X049104Y022531D01*
X051308Y022965D02*
X051354Y022918D01*
X051448Y022918D01*
X051495Y022965D01*
X051584Y022965D02*
X051631Y022918D01*
X051724Y022918D01*
X051771Y022965D01*
X051771Y023012D01*
X051724Y023058D01*
X051677Y023058D01*
X051724Y023058D02*
X051771Y023105D01*
X051771Y023152D01*
X051724Y023199D01*
X051631Y023199D01*
X051584Y023152D01*
X051495Y023152D02*
X051448Y023199D01*
X051354Y023199D01*
X051308Y023152D01*
X051308Y022965D01*
X051463Y022297D02*
X051603Y022157D01*
X051603Y022344D01*
X051743Y022297D02*
X051463Y022297D01*
X051510Y022068D02*
X051463Y022021D01*
X051463Y021927D01*
X051510Y021881D01*
X051510Y021791D02*
X051463Y021745D01*
X051463Y021651D01*
X051510Y021605D01*
X051697Y021605D01*
X051743Y021651D01*
X051743Y021745D01*
X051697Y021791D01*
X051743Y021881D02*
X051556Y022068D01*
X051510Y022068D01*
X051743Y022068D02*
X051743Y021881D01*
X053197Y021918D02*
X053197Y022199D01*
X053473Y022152D02*
X053520Y022199D01*
X053613Y022199D01*
X053660Y022152D01*
X053660Y022105D01*
X053613Y022058D01*
X053660Y022012D01*
X053660Y021965D01*
X053613Y021918D01*
X053520Y021918D01*
X053473Y021965D01*
X053384Y021918D02*
X053197Y021918D01*
X053567Y022058D02*
X053613Y022058D01*
X055163Y022097D02*
X055210Y022144D01*
X055256Y022144D01*
X055303Y022097D01*
X055350Y022144D01*
X055397Y022144D01*
X055443Y022097D01*
X055443Y022004D01*
X055397Y021957D01*
X055443Y021868D02*
X055443Y021681D01*
X055256Y021868D01*
X055210Y021868D01*
X055163Y021821D01*
X055163Y021727D01*
X055210Y021681D01*
X055210Y021591D02*
X055163Y021545D01*
X055163Y021451D01*
X055210Y021405D01*
X055397Y021405D01*
X055443Y021451D01*
X055443Y021545D01*
X055397Y021591D01*
X055210Y021957D02*
X055163Y022004D01*
X055163Y022097D01*
X055303Y022097D02*
X055303Y022050D01*
X055620Y020984D02*
X055620Y020797D01*
X055713Y020703D01*
X055806Y020797D01*
X055806Y020984D01*
X055896Y020937D02*
X055896Y020750D01*
X055942Y020703D01*
X056036Y020703D01*
X056083Y020750D01*
X056172Y020750D02*
X056219Y020703D01*
X056312Y020703D01*
X056359Y020750D01*
X056359Y020937D01*
X056312Y020984D01*
X056219Y020984D01*
X056172Y020937D01*
X056172Y020750D01*
X056083Y020937D02*
X056036Y020984D01*
X055942Y020984D01*
X055896Y020937D01*
X058254Y018337D02*
X058535Y018337D01*
X058535Y018244D02*
X058535Y018431D01*
X058348Y018244D02*
X058254Y018337D01*
X058254Y018108D02*
X058394Y017968D01*
X058394Y018155D01*
X058254Y018108D02*
X058535Y018108D01*
X058488Y017878D02*
X058535Y017832D01*
X058535Y017738D01*
X058488Y017691D01*
X058301Y017691D01*
X058254Y017738D01*
X058254Y017832D01*
X058301Y017878D01*
X049980Y018450D02*
X049980Y018637D01*
X049933Y018684D01*
X049840Y018684D01*
X049793Y018637D01*
X049793Y018450D01*
X049840Y018403D01*
X049933Y018403D01*
X049980Y018450D01*
X049704Y018450D02*
X049657Y018403D01*
X049564Y018403D01*
X049517Y018450D01*
X049517Y018637D01*
X049564Y018684D01*
X049657Y018684D01*
X049704Y018637D01*
X049428Y018684D02*
X049428Y018497D01*
X049334Y018403D01*
X049241Y018497D01*
X049241Y018684D01*
X049151Y018357D02*
X048965Y018357D01*
X048875Y018403D02*
X048688Y018684D01*
X048599Y018684D02*
X048599Y018450D01*
X048552Y018403D01*
X048459Y018403D01*
X048412Y018450D01*
X048412Y018684D01*
X048323Y018590D02*
X048323Y018403D01*
X048323Y018543D02*
X048136Y018543D01*
X048136Y018590D02*
X048229Y018684D01*
X048323Y018590D01*
X048136Y018590D02*
X048136Y018403D01*
X048688Y018403D02*
X048875Y018684D01*
X045886Y016502D02*
X045840Y016549D01*
X045746Y016549D01*
X045700Y016502D01*
X045700Y016455D01*
X045746Y016408D01*
X045886Y016408D01*
X045886Y016315D02*
X045886Y016502D01*
X045886Y016315D02*
X045840Y016268D01*
X045746Y016268D01*
X045700Y016315D01*
X045610Y016268D02*
X045423Y016268D01*
X045334Y016268D02*
X045240Y016362D01*
X045287Y016362D02*
X045147Y016362D01*
X045147Y016268D02*
X045147Y016549D01*
X045287Y016549D01*
X045334Y016502D01*
X045334Y016408D01*
X045287Y016362D01*
X045423Y016455D02*
X045517Y016549D01*
X045517Y016268D01*
X045304Y015434D02*
X045343Y015395D01*
X045343Y015357D01*
X045304Y015318D01*
X045343Y015280D01*
X045343Y015242D01*
X045304Y015203D01*
X045228Y015203D01*
X045189Y015242D01*
X045113Y015203D02*
X045113Y015434D01*
X045189Y015395D02*
X045228Y015434D01*
X045304Y015434D01*
X045304Y015318D02*
X045266Y015318D01*
X045113Y015203D02*
X045036Y015280D01*
X044959Y015203D01*
X044959Y015434D01*
X044882Y015395D02*
X044844Y015434D01*
X044767Y015434D01*
X044729Y015395D01*
X044729Y015357D01*
X044767Y015318D01*
X044844Y015318D01*
X044882Y015280D01*
X044882Y015242D01*
X044844Y015203D01*
X044767Y015203D01*
X044729Y015242D01*
X043645Y014369D02*
X043505Y014228D01*
X043692Y014228D01*
X043645Y014088D02*
X043645Y014369D01*
X043416Y014322D02*
X043416Y014275D01*
X043369Y014228D01*
X043416Y014182D01*
X043416Y014135D01*
X043369Y014088D01*
X043276Y014088D01*
X043229Y014135D01*
X043139Y014135D02*
X043093Y014088D01*
X042999Y014088D01*
X042953Y014135D01*
X042953Y014322D01*
X042999Y014369D01*
X043093Y014369D01*
X043139Y014322D01*
X043229Y014322D02*
X043276Y014369D01*
X043369Y014369D01*
X043416Y014322D01*
X043369Y014228D02*
X043322Y014228D01*
X041900Y013597D02*
X041853Y013644D01*
X041760Y013644D01*
X041713Y013597D01*
X041713Y013550D01*
X041760Y013503D01*
X041900Y013503D01*
X041900Y013410D02*
X041900Y013597D01*
X041900Y013410D02*
X041853Y013363D01*
X041760Y013363D01*
X041713Y013410D01*
X041530Y013503D02*
X041437Y013503D01*
X041348Y013503D02*
X041348Y013597D01*
X041301Y013644D01*
X041161Y013644D01*
X041161Y013363D01*
X041161Y013457D02*
X041301Y013457D01*
X041348Y013503D01*
X041254Y013457D02*
X041348Y013363D01*
X041437Y013363D02*
X041437Y013644D01*
X041624Y013644D01*
X040035Y013658D02*
X039941Y013564D01*
X039941Y013611D02*
X039941Y013471D01*
X040035Y013471D02*
X039754Y013471D01*
X039754Y013611D01*
X039801Y013658D01*
X039894Y013658D01*
X039941Y013611D01*
X039848Y013747D02*
X039754Y013841D01*
X040035Y013841D01*
X040035Y013934D02*
X040035Y013747D01*
X039988Y014023D02*
X039894Y014023D01*
X039894Y014163D01*
X039941Y014210D01*
X039988Y014210D01*
X040035Y014163D01*
X040035Y014070D01*
X039988Y014023D01*
X039894Y014023D02*
X039801Y014117D01*
X039754Y014210D01*
X039831Y014496D02*
X040018Y014496D01*
X040064Y014543D01*
X040064Y014637D01*
X040018Y014683D01*
X039924Y014773D02*
X039924Y014959D01*
X039924Y015049D02*
X039878Y015142D01*
X039878Y015189D01*
X039924Y015236D01*
X040018Y015236D01*
X040064Y015189D01*
X040064Y015096D01*
X040018Y015049D01*
X039924Y015049D02*
X039784Y015049D01*
X039784Y015236D01*
X039784Y014913D02*
X039924Y014773D01*
X039831Y014683D02*
X039784Y014637D01*
X039784Y014543D01*
X039831Y014496D01*
X039784Y014913D02*
X040064Y014913D01*
X037770Y013572D02*
X037723Y013619D01*
X037630Y013619D01*
X037583Y013572D01*
X037494Y013619D02*
X037307Y013619D01*
X037307Y013338D01*
X037218Y013338D02*
X037124Y013432D01*
X037171Y013432D02*
X037031Y013432D01*
X037031Y013338D02*
X037031Y013619D01*
X037171Y013619D01*
X037218Y013572D01*
X037218Y013478D01*
X037171Y013432D01*
X037307Y013478D02*
X037400Y013478D01*
X037583Y013338D02*
X037770Y013525D01*
X037770Y013572D01*
X037770Y013338D02*
X037583Y013338D01*
X035519Y013703D02*
X035332Y013703D01*
X035426Y013703D02*
X035426Y013984D01*
X035332Y013890D01*
X034967Y013843D02*
X034967Y013703D01*
X034967Y013843D02*
X034920Y013890D01*
X034780Y013890D01*
X034780Y013703D01*
X034689Y013703D02*
X034596Y013703D01*
X034642Y013703D02*
X034642Y013890D01*
X034596Y013890D01*
X034506Y013843D02*
X034506Y013750D01*
X034460Y013703D01*
X034320Y013703D01*
X034320Y013610D02*
X034320Y013890D01*
X034460Y013890D01*
X034506Y013843D01*
X034642Y013984D02*
X034642Y014030D01*
X034621Y013494D02*
X034668Y013447D01*
X034668Y013353D01*
X034621Y013307D01*
X034481Y013307D01*
X034574Y013307D02*
X034668Y013213D01*
X034757Y013213D02*
X034757Y013494D01*
X034944Y013494D01*
X035033Y013447D02*
X035080Y013494D01*
X035173Y013494D01*
X035220Y013447D01*
X035220Y013400D01*
X035173Y013353D01*
X035220Y013307D01*
X035220Y013260D01*
X035173Y013213D01*
X035080Y013213D01*
X035033Y013260D01*
X035127Y013353D02*
X035173Y013353D01*
X034850Y013353D02*
X034757Y013353D01*
X034621Y013494D02*
X034481Y013494D01*
X034481Y013213D01*
X038867Y011644D02*
X038867Y011363D01*
X039054Y011363D01*
X039143Y011503D02*
X039330Y011503D01*
X039283Y011363D02*
X039283Y011644D01*
X039143Y011503D01*
X040003Y011562D02*
X040003Y011375D01*
X040049Y011328D01*
X040143Y011328D01*
X040189Y011375D01*
X040279Y011468D02*
X040466Y011468D01*
X040555Y011375D02*
X040602Y011328D01*
X040695Y011328D01*
X040742Y011375D01*
X040742Y011422D01*
X040695Y011468D01*
X040649Y011468D01*
X040695Y011468D02*
X040742Y011515D01*
X040742Y011562D01*
X040695Y011609D01*
X040602Y011609D01*
X040555Y011562D01*
X040419Y011609D02*
X040279Y011468D01*
X040189Y011562D02*
X040143Y011609D01*
X040049Y011609D01*
X040003Y011562D01*
X040419Y011609D02*
X040419Y011328D01*
X041804Y010784D02*
X041851Y010831D01*
X041898Y010831D01*
X041944Y010784D01*
X041991Y010831D01*
X042038Y010831D01*
X042085Y010784D01*
X042085Y010691D01*
X042038Y010644D01*
X042038Y010555D02*
X042085Y010508D01*
X042085Y010414D01*
X042038Y010368D01*
X042038Y010278D02*
X042085Y010232D01*
X042085Y010138D01*
X042038Y010091D01*
X041851Y010091D01*
X041804Y010138D01*
X041804Y010232D01*
X041851Y010278D01*
X041851Y010368D02*
X041804Y010414D01*
X041804Y010508D01*
X041851Y010555D01*
X041898Y010555D01*
X041944Y010508D01*
X041991Y010555D01*
X042038Y010555D01*
X041944Y010508D02*
X041944Y010461D01*
X041851Y010644D02*
X041804Y010691D01*
X041804Y010784D01*
X041944Y010784D02*
X041944Y010737D01*
X043120Y010950D02*
X043166Y010903D01*
X043260Y010903D01*
X043306Y010950D01*
X043306Y010997D01*
X043260Y011043D01*
X043166Y011043D01*
X043120Y011090D01*
X043120Y011137D01*
X043166Y011184D01*
X043260Y011184D01*
X043306Y011137D01*
X043396Y011184D02*
X043396Y010903D01*
X043489Y010997D01*
X043583Y010903D01*
X043583Y011184D01*
X043672Y011090D02*
X043765Y011184D01*
X043765Y010903D01*
X043672Y010903D02*
X043859Y010903D01*
X045029Y011092D02*
X045067Y011053D01*
X045144Y011053D01*
X045182Y011092D01*
X045182Y011130D01*
X045144Y011168D01*
X045067Y011168D01*
X045029Y011207D01*
X045029Y011245D01*
X045067Y011284D01*
X045144Y011284D01*
X045182Y011245D01*
X045259Y011284D02*
X045259Y011053D01*
X045336Y011130D01*
X045413Y011053D01*
X045413Y011284D01*
X045489Y011245D02*
X045528Y011284D01*
X045604Y011284D01*
X045643Y011245D01*
X045643Y011207D01*
X045489Y011053D01*
X045643Y011053D01*
X048434Y011783D02*
X048481Y011736D01*
X048668Y011736D01*
X048714Y011783D01*
X048714Y011877D01*
X048668Y011923D01*
X048668Y012013D02*
X048714Y012059D01*
X048714Y012153D01*
X048668Y012199D01*
X048621Y012199D01*
X048574Y012153D01*
X048574Y012106D01*
X048574Y012153D02*
X048528Y012199D01*
X048481Y012199D01*
X048434Y012153D01*
X048434Y012059D01*
X048481Y012013D01*
X048481Y011923D02*
X048434Y011877D01*
X048434Y011783D01*
X048434Y012289D02*
X048434Y012476D01*
X048481Y012476D01*
X048668Y012289D01*
X048714Y012289D01*
X046386Y012415D02*
X046340Y012368D01*
X046246Y012368D01*
X046200Y012415D01*
X046200Y012462D01*
X046246Y012508D01*
X046340Y012508D01*
X046386Y012462D01*
X046386Y012415D01*
X046340Y012508D02*
X046386Y012555D01*
X046386Y012602D01*
X046340Y012649D01*
X046246Y012649D01*
X046200Y012602D01*
X046200Y012555D01*
X046246Y012508D01*
X046110Y012368D02*
X045923Y012368D01*
X045834Y012368D02*
X045740Y012462D01*
X045787Y012462D02*
X045834Y012508D01*
X045834Y012602D01*
X045787Y012649D01*
X045647Y012649D01*
X045647Y012368D01*
X045647Y012462D02*
X045787Y012462D01*
X045923Y012555D02*
X046017Y012649D01*
X046017Y012368D01*
X046804Y013418D02*
X046898Y013418D01*
X046945Y013465D01*
X047034Y013465D02*
X047081Y013418D01*
X047174Y013418D01*
X047221Y013465D01*
X047221Y013512D01*
X047174Y013558D01*
X047127Y013558D01*
X047174Y013558D02*
X047221Y013605D01*
X047221Y013652D01*
X047174Y013699D01*
X047081Y013699D01*
X047034Y013652D01*
X046945Y013652D02*
X046898Y013699D01*
X046804Y013699D01*
X046758Y013652D01*
X046758Y013465D01*
X046804Y013418D01*
X047310Y013465D02*
X047357Y013418D01*
X047450Y013418D01*
X047497Y013465D01*
X047497Y013652D01*
X047450Y013699D01*
X047357Y013699D01*
X047310Y013652D01*
X047310Y013605D01*
X047357Y013558D01*
X047497Y013558D01*
X048600Y013524D02*
X048740Y013524D01*
X048786Y013477D01*
X048786Y013383D01*
X048740Y013337D01*
X048600Y013337D01*
X048693Y013337D02*
X048786Y013243D01*
X048876Y013243D02*
X048876Y013524D01*
X049063Y013524D01*
X049152Y013383D02*
X049339Y013383D01*
X049292Y013243D02*
X049292Y013524D01*
X049152Y013383D01*
X048969Y013383D02*
X048876Y013383D01*
X048600Y013243D02*
X048600Y013524D01*
X051504Y014038D02*
X051551Y013991D01*
X051738Y013991D01*
X051785Y014038D01*
X051785Y014132D01*
X051738Y014178D01*
X051785Y014268D02*
X051785Y014455D01*
X051785Y014361D02*
X051504Y014361D01*
X051598Y014268D01*
X051551Y014178D02*
X051504Y014132D01*
X051504Y014038D01*
X051504Y014544D02*
X051644Y014544D01*
X051598Y014637D01*
X051598Y014684D01*
X051644Y014731D01*
X051738Y014731D01*
X051785Y014684D01*
X051785Y014591D01*
X051738Y014544D01*
X051504Y014544D02*
X051504Y014731D01*
X049147Y015265D02*
X049147Y015452D01*
X048960Y015265D01*
X049007Y015218D01*
X049100Y015218D01*
X049147Y015265D01*
X049147Y015452D02*
X049100Y015499D01*
X049007Y015499D01*
X048960Y015452D01*
X048960Y015265D01*
X048871Y015358D02*
X048684Y015358D01*
X048824Y015499D01*
X048824Y015218D01*
X048595Y015265D02*
X048548Y015218D01*
X048454Y015218D01*
X048408Y015265D01*
X048408Y015452D01*
X048454Y015499D01*
X048548Y015499D01*
X048595Y015452D01*
X053754Y013605D02*
X053801Y013605D01*
X053988Y013418D01*
X054035Y013418D01*
X053988Y013328D02*
X054035Y013282D01*
X054035Y013188D01*
X053988Y013141D01*
X053801Y013141D01*
X053754Y013188D01*
X053754Y013282D01*
X053801Y013328D01*
X053754Y013418D02*
X053754Y013605D01*
X049369Y009534D02*
X049275Y009487D01*
X049182Y009393D01*
X049322Y009393D01*
X049369Y009347D01*
X049369Y009300D01*
X049322Y009253D01*
X049229Y009253D01*
X049182Y009300D01*
X049182Y009393D01*
X049093Y009534D02*
X048906Y009534D01*
X048906Y009253D01*
X048816Y009253D02*
X048723Y009347D01*
X048770Y009347D02*
X048630Y009347D01*
X048630Y009253D02*
X048630Y009534D01*
X048770Y009534D01*
X048816Y009487D01*
X048816Y009393D01*
X048770Y009347D01*
X048906Y009393D02*
X048999Y009393D01*
X047814Y009386D02*
X047768Y009339D01*
X047721Y009339D01*
X047674Y009386D01*
X047674Y009479D01*
X047721Y009526D01*
X047768Y009526D01*
X047814Y009479D01*
X047814Y009386D01*
X047674Y009386D02*
X047628Y009339D01*
X047581Y009339D01*
X047534Y009386D01*
X047534Y009479D01*
X047581Y009526D01*
X047628Y009526D01*
X047674Y009479D01*
X047628Y009249D02*
X047674Y009203D01*
X047721Y009249D01*
X047768Y009249D01*
X047814Y009203D01*
X047814Y009109D01*
X047768Y009063D01*
X047768Y008973D02*
X047814Y008927D01*
X047814Y008833D01*
X047768Y008786D01*
X047581Y008786D01*
X047534Y008833D01*
X047534Y008927D01*
X047581Y008973D01*
X047581Y009063D02*
X047534Y009109D01*
X047534Y009203D01*
X047581Y009249D01*
X047628Y009249D01*
X047674Y009203D02*
X047674Y009156D01*
X034737Y009868D02*
X034550Y009868D01*
X034690Y010009D01*
X034690Y009728D01*
X034461Y009868D02*
X034274Y009868D01*
X034414Y010009D01*
X034414Y009728D01*
X034185Y009775D02*
X034138Y009728D01*
X034044Y009728D01*
X033998Y009775D01*
X033998Y009962D01*
X034044Y010009D01*
X034138Y010009D01*
X034185Y009962D01*
X031660Y011110D02*
X031613Y011063D01*
X031520Y011063D01*
X031473Y011110D01*
X031473Y011203D02*
X031567Y011250D01*
X031613Y011250D01*
X031660Y011203D01*
X031660Y011110D01*
X031473Y011203D02*
X031473Y011344D01*
X031660Y011344D01*
X031384Y011344D02*
X031197Y011344D01*
X031197Y011063D01*
X031108Y011063D02*
X031014Y011157D01*
X031061Y011157D02*
X030921Y011157D01*
X030921Y011063D02*
X030921Y011344D01*
X031061Y011344D01*
X031108Y011297D01*
X031108Y011203D01*
X031061Y011157D01*
X031197Y011203D02*
X031290Y011203D01*
X029050Y011457D02*
X028863Y011270D01*
X028863Y011223D01*
X028680Y011363D02*
X028587Y011363D01*
X028498Y011363D02*
X028451Y011317D01*
X028311Y011317D01*
X028404Y011317D02*
X028498Y011223D01*
X028587Y011223D02*
X028587Y011504D01*
X028774Y011504D01*
X028863Y011504D02*
X029050Y011504D01*
X029050Y011457D01*
X028498Y011457D02*
X028498Y011363D01*
X028498Y011457D02*
X028451Y011504D01*
X028311Y011504D01*
X028311Y011223D01*
X027610Y011270D02*
X027563Y011223D01*
X027470Y011223D01*
X027423Y011270D01*
X027423Y011317D01*
X027470Y011363D01*
X027563Y011363D01*
X027610Y011317D01*
X027610Y011270D01*
X027563Y011363D02*
X027610Y011410D01*
X027610Y011457D01*
X027563Y011504D01*
X027470Y011504D01*
X027423Y011457D01*
X027423Y011410D01*
X027470Y011363D01*
X027334Y011504D02*
X027147Y011504D01*
X027147Y011223D01*
X027058Y011223D02*
X026964Y011317D01*
X027011Y011317D02*
X026871Y011317D01*
X026871Y011223D02*
X026871Y011504D01*
X027011Y011504D01*
X027058Y011457D01*
X027058Y011363D01*
X027011Y011317D01*
X027147Y011363D02*
X027240Y011363D01*
X023507Y011367D02*
X023507Y011320D01*
X023460Y011273D01*
X023507Y011227D01*
X023507Y011180D01*
X023460Y011133D01*
X023367Y011133D01*
X023320Y011180D01*
X023231Y011133D02*
X023044Y011133D01*
X023137Y011133D02*
X023137Y011414D01*
X023044Y011320D01*
X022955Y011367D02*
X022908Y011414D01*
X022814Y011414D01*
X022768Y011367D01*
X022768Y011180D01*
X022814Y011133D01*
X022908Y011133D01*
X022955Y011180D01*
X023320Y011367D02*
X023367Y011414D01*
X023460Y011414D01*
X023507Y011367D01*
X023460Y011273D02*
X023414Y011273D01*
X021960Y011716D02*
X021921Y011678D01*
X021960Y011716D02*
X021960Y011793D01*
X021921Y011831D01*
X021883Y011831D01*
X021844Y011793D01*
X021844Y011716D01*
X021806Y011678D01*
X021768Y011678D01*
X021729Y011716D01*
X021729Y011793D01*
X021768Y011831D01*
X021729Y011908D02*
X021960Y011908D01*
X021883Y011985D01*
X021960Y012061D01*
X021729Y012061D01*
X021844Y012138D02*
X021844Y012292D01*
X021729Y012253D02*
X021844Y012138D01*
X021729Y012253D02*
X021960Y012253D01*
X020957Y012805D02*
X020957Y012852D01*
X020910Y012898D01*
X020770Y012898D01*
X020770Y012805D01*
X020817Y012758D01*
X020910Y012758D01*
X020957Y012805D01*
X020864Y012992D02*
X020770Y012898D01*
X020681Y012852D02*
X020681Y012805D01*
X020634Y012758D01*
X020541Y012758D01*
X020494Y012805D01*
X020405Y012805D02*
X020358Y012758D01*
X020264Y012758D01*
X020218Y012805D01*
X020218Y012992D01*
X020264Y013039D01*
X020358Y013039D01*
X020405Y012992D01*
X020494Y012992D02*
X020541Y013039D01*
X020634Y013039D01*
X020681Y012992D01*
X020681Y012945D01*
X020634Y012898D01*
X020681Y012852D01*
X020634Y012898D02*
X020587Y012898D01*
X020864Y012992D02*
X020957Y013039D01*
X022930Y012987D02*
X023070Y012987D01*
X023116Y013033D01*
X023116Y013127D01*
X023070Y013174D01*
X022930Y013174D01*
X022930Y012893D01*
X023023Y012987D02*
X023116Y012893D01*
X023206Y012893D02*
X023206Y013174D01*
X023393Y013174D01*
X023482Y013080D02*
X023575Y013174D01*
X023575Y012893D01*
X023482Y012893D02*
X023669Y012893D01*
X023299Y013033D02*
X023206Y013033D01*
X025718Y013255D02*
X025764Y013208D01*
X025858Y013208D01*
X025905Y013255D01*
X025994Y013208D02*
X026181Y013208D01*
X026087Y013208D02*
X026087Y013489D01*
X025994Y013395D01*
X025905Y013442D02*
X025858Y013489D01*
X025764Y013489D01*
X025718Y013442D01*
X025718Y013255D01*
X026270Y013255D02*
X026317Y013208D01*
X026410Y013208D01*
X026457Y013255D01*
X026457Y013302D01*
X026410Y013348D01*
X026270Y013348D01*
X026270Y013255D01*
X026270Y013348D02*
X026364Y013442D01*
X026457Y013489D01*
X025602Y015628D02*
X025415Y015628D01*
X025602Y015815D01*
X025602Y015862D01*
X025555Y015909D01*
X025462Y015909D01*
X025415Y015862D01*
X025326Y015768D02*
X025139Y015768D01*
X025279Y015909D01*
X025279Y015628D01*
X025049Y015675D02*
X025003Y015628D01*
X024909Y015628D01*
X024863Y015675D01*
X024863Y015862D01*
X024909Y015909D01*
X025003Y015909D01*
X025049Y015862D01*
X025241Y016403D02*
X025428Y016403D01*
X025474Y016449D01*
X025474Y016543D01*
X025428Y016589D01*
X025334Y016679D02*
X025334Y016866D01*
X025194Y016819D02*
X025334Y016679D01*
X025241Y016589D02*
X025194Y016543D01*
X025194Y016449D01*
X025241Y016403D01*
X025194Y016819D02*
X025474Y016819D01*
X023645Y016908D02*
X023551Y016814D01*
X023551Y016861D02*
X023551Y016721D01*
X023645Y016721D02*
X023364Y016721D01*
X023364Y016861D01*
X023411Y016908D01*
X023504Y016908D01*
X023551Y016861D01*
X023458Y016997D02*
X023364Y017091D01*
X023645Y017091D01*
X023645Y017184D02*
X023645Y016997D01*
X023598Y017273D02*
X023411Y017460D01*
X023598Y017460D01*
X023645Y017413D01*
X023645Y017320D01*
X023598Y017273D01*
X023411Y017273D01*
X023364Y017320D01*
X023364Y017413D01*
X023411Y017460D01*
X021502Y018528D02*
X021315Y018528D01*
X021502Y018715D01*
X021502Y018762D01*
X021455Y018809D01*
X021362Y018809D01*
X021315Y018762D01*
X021132Y018809D02*
X021132Y018528D01*
X021039Y018528D02*
X021226Y018528D01*
X021039Y018715D02*
X021132Y018809D01*
X020949Y018762D02*
X020903Y018809D01*
X020809Y018809D01*
X020763Y018762D01*
X020763Y018575D01*
X020809Y018528D01*
X020903Y018528D01*
X020949Y018575D01*
X021107Y019208D02*
X021107Y019489D01*
X021247Y019489D01*
X021294Y019442D01*
X021294Y019348D01*
X021247Y019302D01*
X021107Y019302D01*
X021200Y019302D02*
X021294Y019208D01*
X021383Y019208D02*
X021383Y019255D01*
X021570Y019442D01*
X021570Y019489D01*
X021383Y019489D01*
X024080Y019274D02*
X024173Y019274D01*
X024126Y019274D02*
X024126Y018993D01*
X024080Y018993D02*
X024173Y018993D01*
X024264Y019040D02*
X024264Y019227D01*
X024310Y019274D01*
X024404Y019274D01*
X024450Y019227D01*
X024540Y019227D02*
X024587Y019274D01*
X024680Y019274D01*
X024727Y019227D01*
X024727Y019180D01*
X024540Y018993D01*
X024727Y018993D01*
X024450Y019040D02*
X024404Y018993D01*
X024310Y018993D01*
X024264Y019040D01*
X026064Y019011D02*
X026111Y019058D01*
X026204Y019058D01*
X026251Y019011D01*
X026251Y018871D01*
X026251Y018964D02*
X026345Y019058D01*
X026298Y019147D02*
X026345Y019194D01*
X026345Y019287D01*
X026298Y019334D01*
X026251Y019334D01*
X026204Y019287D01*
X026204Y019147D01*
X026298Y019147D01*
X026204Y019147D02*
X026111Y019241D01*
X026064Y019334D01*
X026064Y019011D02*
X026064Y018871D01*
X026345Y018871D01*
X022781Y020755D02*
X022781Y020802D01*
X022734Y020848D01*
X022594Y020848D01*
X022594Y020755D01*
X022641Y020708D01*
X022734Y020708D01*
X022781Y020755D01*
X022594Y020848D02*
X022687Y020942D01*
X022781Y020989D01*
X022505Y020942D02*
X022458Y020989D01*
X022364Y020989D01*
X022318Y020942D01*
X022318Y020755D01*
X022364Y020708D01*
X022458Y020708D01*
X022505Y020755D01*
X023957Y021908D02*
X023957Y022189D01*
X024097Y022189D01*
X024144Y022142D01*
X024144Y022048D01*
X024097Y022002D01*
X023957Y022002D01*
X024050Y022002D02*
X024144Y021908D01*
X024233Y021955D02*
X024233Y022002D01*
X024280Y022048D01*
X024373Y022048D01*
X024420Y022002D01*
X024420Y021955D01*
X024373Y021908D01*
X024280Y021908D01*
X024233Y021955D01*
X024280Y022048D02*
X024233Y022095D01*
X024233Y022142D01*
X024280Y022189D01*
X024373Y022189D01*
X024420Y022142D01*
X024420Y022095D01*
X024373Y022048D01*
X025799Y021709D02*
X025940Y021709D01*
X025986Y021662D01*
X025986Y021568D01*
X025940Y021522D01*
X025799Y021522D01*
X025799Y021428D02*
X025799Y021709D01*
X025893Y021522D02*
X025986Y021428D01*
X026076Y021475D02*
X026122Y021428D01*
X026216Y021428D01*
X026263Y021475D01*
X026263Y021568D01*
X026216Y021615D01*
X026169Y021615D01*
X026076Y021568D01*
X026076Y021709D01*
X026263Y021709D01*
X047204Y024731D02*
X047204Y024871D01*
X047251Y024918D01*
X047344Y024918D01*
X047391Y024871D01*
X047391Y024731D01*
X047391Y024824D02*
X047485Y024918D01*
X047485Y025007D02*
X047485Y025194D01*
X047485Y025101D02*
X047204Y025101D01*
X047298Y025007D01*
X047204Y024731D02*
X047485Y024731D01*
X048404Y024297D02*
X048404Y024204D01*
X048451Y024157D01*
X048451Y024068D02*
X048544Y024068D01*
X048591Y024021D01*
X048591Y023881D01*
X048591Y023974D02*
X048685Y024068D01*
X048685Y024157D02*
X048498Y024344D01*
X048451Y024344D01*
X048404Y024297D01*
X048451Y024068D02*
X048404Y024021D01*
X048404Y023881D01*
X048685Y023881D01*
X048685Y024157D02*
X048685Y024344D01*
X051219Y024567D02*
X051219Y024660D01*
X051219Y024613D02*
X051500Y024613D01*
X051500Y024567D02*
X051500Y024660D01*
X051453Y024751D02*
X051500Y024798D01*
X051500Y024891D01*
X051453Y024938D01*
X051500Y025027D02*
X051500Y025214D01*
X051500Y025120D02*
X051219Y025120D01*
X051313Y025027D01*
X051266Y024938D02*
X051219Y024891D01*
X051219Y024798D01*
X051266Y024751D01*
X051453Y024751D01*
X052676Y024820D02*
X052722Y024773D01*
X052909Y024773D01*
X052956Y024820D01*
X052956Y024914D01*
X052909Y024960D01*
X052956Y025050D02*
X052769Y025236D01*
X052722Y025236D01*
X052676Y025190D01*
X052676Y025096D01*
X052722Y025050D01*
X052722Y024960D02*
X052676Y024914D01*
X052676Y024820D01*
X052956Y025050D02*
X052956Y025236D01*
X052956Y025326D02*
X052769Y025513D01*
X052722Y025513D01*
X052676Y025466D01*
X052676Y025373D01*
X052722Y025326D01*
X052956Y025326D02*
X052956Y025513D01*
X054826Y024669D02*
X055106Y024669D01*
X055106Y024576D02*
X055106Y024763D01*
X054919Y024576D02*
X054826Y024669D01*
X054872Y024486D02*
X054826Y024440D01*
X054826Y024346D01*
X054872Y024300D01*
X054872Y024210D02*
X054826Y024164D01*
X054826Y024070D01*
X054872Y024023D01*
X055059Y024023D01*
X055106Y024070D01*
X055106Y024164D01*
X055059Y024210D01*
X055106Y024300D02*
X054919Y024486D01*
X054872Y024486D01*
X055106Y024486D02*
X055106Y024300D01*
X053760Y024302D02*
X053713Y024349D01*
X053620Y024349D01*
X053573Y024302D01*
X053760Y024302D02*
X053760Y024255D01*
X053573Y024068D01*
X053760Y024068D01*
X053484Y024068D02*
X053297Y024068D01*
X053297Y024349D01*
X048371Y026765D02*
X048324Y026718D01*
X048231Y026718D01*
X048184Y026765D01*
X048095Y026765D02*
X048048Y026718D01*
X047954Y026718D01*
X047908Y026765D01*
X047908Y026952D01*
X047954Y026999D01*
X048048Y026999D01*
X048095Y026952D01*
X048184Y026999D02*
X048184Y026858D01*
X048277Y026905D01*
X048324Y026905D01*
X048371Y026858D01*
X048371Y026765D01*
X048371Y026999D02*
X048184Y026999D01*
X048947Y026962D02*
X049087Y026962D01*
X049134Y027008D01*
X049134Y027102D01*
X049087Y027149D01*
X048947Y027149D01*
X048947Y026868D01*
X049040Y026962D02*
X049134Y026868D01*
X049223Y026915D02*
X049270Y026868D01*
X049363Y026868D01*
X049410Y026915D01*
X049410Y026962D01*
X049363Y027008D01*
X049317Y027008D01*
X049363Y027008D02*
X049410Y027055D01*
X049410Y027102D01*
X049363Y027149D01*
X049270Y027149D01*
X049223Y027102D01*
X049134Y027518D02*
X049040Y027612D01*
X049087Y027612D02*
X048947Y027612D01*
X048947Y027518D02*
X048947Y027799D01*
X049087Y027799D01*
X049134Y027752D01*
X049134Y027658D01*
X049087Y027612D01*
X049223Y027658D02*
X049410Y027658D01*
X049363Y027518D02*
X049363Y027799D01*
X049223Y027658D01*
X066970Y021384D02*
X067156Y021384D01*
X067246Y021384D02*
X067433Y021384D01*
X067522Y021384D02*
X067522Y021103D01*
X067709Y021103D01*
X068074Y021103D02*
X068215Y021103D01*
X068261Y021150D01*
X068215Y021197D01*
X068121Y021197D01*
X068074Y021243D01*
X068121Y021290D01*
X068261Y021290D01*
X068351Y021290D02*
X068397Y021290D01*
X068397Y021103D01*
X068351Y021103D02*
X068444Y021103D01*
X068535Y021150D02*
X068582Y021103D01*
X068722Y021103D01*
X068722Y021057D02*
X068722Y021290D01*
X068582Y021290D01*
X068535Y021243D01*
X068535Y021150D01*
X068628Y021010D02*
X068675Y021010D01*
X068722Y021057D01*
X068811Y021103D02*
X068858Y021103D01*
X068858Y021150D01*
X068811Y021150D01*
X068811Y021103D01*
X068397Y021384D02*
X068397Y021430D01*
X067339Y021384D02*
X067339Y021103D01*
X067063Y021103D02*
X067063Y021384D01*
X069470Y020584D02*
X069610Y020584D01*
X069656Y020537D01*
X069656Y020443D01*
X069610Y020397D01*
X069470Y020397D01*
X069563Y020397D02*
X069656Y020303D01*
X069746Y020303D02*
X069746Y020584D01*
X069933Y020584D01*
X069839Y020443D02*
X069746Y020443D01*
X069470Y020303D02*
X069470Y020584D01*
X070022Y020257D02*
X070209Y020257D01*
X070298Y020350D02*
X070345Y020303D01*
X070438Y020303D01*
X070485Y020350D01*
X070485Y020397D01*
X070438Y020443D01*
X070345Y020443D01*
X070298Y020490D01*
X070298Y020537D01*
X070345Y020584D01*
X070438Y020584D01*
X070485Y020537D01*
X070574Y020584D02*
X070574Y020303D01*
X070761Y020303D01*
X070851Y020303D02*
X071038Y020303D01*
X070851Y020303D02*
X070851Y020584D01*
X070761Y020584D02*
X070574Y020584D01*
X070574Y020443D02*
X070668Y020443D01*
X070162Y019784D02*
X070209Y019737D01*
X070209Y019550D01*
X070162Y019503D01*
X070069Y019503D01*
X070022Y019550D01*
X070022Y019737D01*
X070069Y019784D01*
X070162Y019784D01*
X069933Y019737D02*
X069886Y019784D01*
X069792Y019784D01*
X069746Y019737D01*
X069746Y019550D01*
X069792Y019503D01*
X069886Y019503D01*
X069933Y019550D01*
X069656Y019597D02*
X069656Y019784D01*
X069470Y019784D02*
X069470Y019597D01*
X069563Y019503D01*
X069656Y019597D01*
X068909Y019084D02*
X068722Y019084D01*
X068633Y019084D02*
X068446Y019084D01*
X068539Y019084D02*
X068539Y018803D01*
X068356Y018803D02*
X068356Y018990D01*
X068263Y019084D01*
X068170Y018990D01*
X068170Y018803D01*
X068170Y018943D02*
X068356Y018943D01*
X068815Y018803D02*
X068815Y019084D01*
X073419Y019615D02*
X073419Y019709D01*
X073419Y019662D02*
X073700Y019662D01*
X073700Y019615D02*
X073700Y019709D01*
X073653Y019800D02*
X073700Y019846D01*
X073700Y019940D01*
X073653Y019986D01*
X073700Y020076D02*
X073700Y020263D01*
X073700Y020169D02*
X073419Y020169D01*
X073513Y020076D01*
X073466Y019986D02*
X073419Y019940D01*
X073419Y019846D01*
X073466Y019800D01*
X073653Y019800D01*
X073653Y020352D02*
X073466Y020539D01*
X073653Y020539D01*
X073700Y020492D01*
X073700Y020399D01*
X073653Y020352D01*
X073466Y020352D01*
X073419Y020399D01*
X073419Y020492D01*
X073466Y020539D01*
X076070Y021053D02*
X076163Y021053D01*
X076116Y021053D02*
X076116Y021334D01*
X076070Y021334D02*
X076163Y021334D01*
X076254Y021287D02*
X076254Y021100D01*
X076300Y021053D01*
X076394Y021053D01*
X076440Y021100D01*
X076530Y021100D02*
X076577Y021053D01*
X076670Y021053D01*
X076717Y021100D01*
X076717Y021287D01*
X076670Y021334D01*
X076577Y021334D01*
X076530Y021287D01*
X076530Y021240D01*
X076577Y021193D01*
X076717Y021193D01*
X076440Y021287D02*
X076394Y021334D01*
X076300Y021334D01*
X076254Y021287D01*
X076000Y022167D02*
X076000Y022260D01*
X076000Y022213D02*
X075719Y022213D01*
X075719Y022167D02*
X075719Y022260D01*
X075766Y022351D02*
X075953Y022351D01*
X076000Y022398D01*
X076000Y022491D01*
X075953Y022538D01*
X075953Y022627D02*
X075906Y022627D01*
X075859Y022674D01*
X075859Y022767D01*
X075906Y022814D01*
X075953Y022814D01*
X076000Y022767D01*
X076000Y022674D01*
X075953Y022627D01*
X075859Y022674D02*
X075813Y022627D01*
X075766Y022627D01*
X075719Y022674D01*
X075719Y022767D01*
X075766Y022814D01*
X075813Y022814D01*
X075859Y022767D01*
X075766Y022538D02*
X075719Y022491D01*
X075719Y022398D01*
X075766Y022351D01*
X078797Y020399D02*
X078937Y020399D01*
X078984Y020352D01*
X078984Y020258D01*
X078937Y020212D01*
X078797Y020212D01*
X078890Y020212D02*
X078984Y020118D01*
X079073Y020118D02*
X079260Y020118D01*
X079167Y020118D02*
X079167Y020399D01*
X079073Y020305D01*
X079350Y020352D02*
X079396Y020399D01*
X079490Y020399D01*
X079536Y020352D01*
X079536Y020305D01*
X079490Y020258D01*
X079536Y020212D01*
X079536Y020165D01*
X079490Y020118D01*
X079396Y020118D01*
X079350Y020165D01*
X079443Y020258D02*
X079490Y020258D01*
X078797Y020118D02*
X078797Y020399D01*
X078711Y019390D02*
X078617Y019390D01*
X078571Y019343D01*
X078571Y019156D01*
X078617Y019110D01*
X078711Y019110D01*
X078758Y019156D01*
X078847Y019110D02*
X079034Y019296D01*
X079034Y019343D01*
X078987Y019390D01*
X078894Y019390D01*
X078847Y019343D01*
X078758Y019343D02*
X078711Y019390D01*
X078847Y019110D02*
X079034Y019110D01*
X079123Y019156D02*
X079310Y019343D01*
X079310Y019156D01*
X079263Y019110D01*
X079170Y019110D01*
X079123Y019156D01*
X079123Y019343D01*
X079170Y019390D01*
X079263Y019390D01*
X079310Y019343D01*
X079163Y018040D02*
X079070Y018040D01*
X079023Y017993D01*
X079023Y017946D01*
X079070Y017900D01*
X079210Y017900D01*
X079210Y017993D02*
X079210Y017806D01*
X079163Y017760D01*
X079070Y017760D01*
X079023Y017806D01*
X078934Y017760D02*
X078747Y017760D01*
X078840Y017760D02*
X078840Y018040D01*
X078747Y017946D01*
X078658Y017993D02*
X078611Y018040D01*
X078517Y018040D01*
X078471Y017993D01*
X078471Y017806D01*
X078517Y017760D01*
X078611Y017760D01*
X078658Y017806D01*
X079163Y018040D02*
X079210Y017993D01*
X084370Y017134D02*
X084463Y017134D01*
X084416Y017134D02*
X084416Y016853D01*
X084370Y016853D02*
X084463Y016853D01*
X084554Y016900D02*
X084600Y016853D01*
X084694Y016853D01*
X084740Y016900D01*
X084830Y016900D02*
X084877Y016853D01*
X084970Y016853D01*
X085017Y016900D01*
X085017Y016993D01*
X084970Y017040D01*
X084923Y017040D01*
X084830Y016993D01*
X084830Y017134D01*
X085017Y017134D01*
X084740Y017087D02*
X084694Y017134D01*
X084600Y017134D01*
X084554Y017087D01*
X084554Y016900D01*
X093633Y016034D02*
X093726Y016034D01*
X093680Y016034D02*
X093680Y015753D01*
X093726Y015753D02*
X093633Y015753D01*
X093817Y015800D02*
X093864Y015753D01*
X093957Y015753D01*
X094004Y015800D01*
X094093Y015800D02*
X094140Y015753D01*
X094233Y015753D01*
X094280Y015800D01*
X094280Y015847D01*
X094233Y015893D01*
X094187Y015893D01*
X094233Y015893D02*
X094280Y015940D01*
X094280Y015987D01*
X094233Y016034D01*
X094140Y016034D01*
X094093Y015987D01*
X094004Y015987D02*
X093957Y016034D01*
X093864Y016034D01*
X093817Y015987D01*
X093817Y015800D01*
X088979Y014531D02*
X088979Y014484D01*
X088932Y014437D01*
X088839Y014437D01*
X088792Y014484D01*
X088792Y014531D01*
X088839Y014577D01*
X088932Y014577D01*
X088979Y014531D01*
X088932Y014437D02*
X088979Y014390D01*
X088979Y014344D01*
X088932Y014297D01*
X088839Y014297D01*
X088792Y014344D01*
X088792Y014390D01*
X088839Y014437D01*
X088703Y014297D02*
X088516Y014297D01*
X088609Y014297D02*
X088609Y014577D01*
X088516Y014484D01*
X088426Y014531D02*
X088380Y014577D01*
X088286Y014577D01*
X088240Y014531D01*
X088240Y014344D01*
X088286Y014297D01*
X088380Y014297D01*
X088426Y014344D01*
X092076Y013213D02*
X092076Y013026D01*
X092216Y013026D01*
X092169Y013119D01*
X092169Y013166D01*
X092216Y013213D01*
X092309Y013213D01*
X092356Y013166D01*
X092356Y013073D01*
X092309Y013026D01*
X092356Y012936D02*
X092356Y012750D01*
X092169Y012936D01*
X092122Y012936D01*
X092076Y012890D01*
X092076Y012796D01*
X092122Y012750D01*
X092122Y012660D02*
X092076Y012614D01*
X092076Y012520D01*
X092122Y012473D01*
X092309Y012473D01*
X092356Y012520D01*
X092356Y012614D01*
X092309Y012660D01*
X088953Y012472D02*
X088953Y012425D01*
X088766Y012238D01*
X088953Y012238D01*
X088953Y012472D02*
X088906Y012519D01*
X088812Y012519D01*
X088766Y012472D01*
X088583Y012519D02*
X088583Y012238D01*
X088676Y012238D02*
X088489Y012238D01*
X088400Y012238D02*
X088307Y012332D01*
X088353Y012332D02*
X088213Y012332D01*
X088213Y012238D02*
X088213Y012519D01*
X088353Y012519D01*
X088400Y012472D01*
X088400Y012378D01*
X088353Y012332D01*
X088489Y012425D02*
X088583Y012519D01*
X092284Y011240D02*
X092424Y011100D01*
X092424Y011286D01*
X092564Y011240D02*
X092284Y011240D01*
X092284Y010917D02*
X092564Y010917D01*
X092564Y011010D02*
X092564Y010823D01*
X092564Y010734D02*
X092471Y010640D01*
X092471Y010687D02*
X092471Y010547D01*
X092564Y010547D02*
X092284Y010547D01*
X092284Y010687D01*
X092331Y010734D01*
X092424Y010734D01*
X092471Y010687D01*
X092378Y010823D02*
X092284Y010917D01*
X088897Y010899D02*
X088804Y010852D01*
X088710Y010758D01*
X088850Y010758D01*
X088897Y010712D01*
X088897Y010665D01*
X088850Y010618D01*
X088757Y010618D01*
X088710Y010665D01*
X088710Y010758D01*
X088621Y010758D02*
X088434Y010758D01*
X088574Y010899D01*
X088574Y010618D01*
X088345Y010665D02*
X088298Y010618D01*
X088204Y010618D01*
X088158Y010665D01*
X088158Y010852D01*
X088204Y010899D01*
X088298Y010899D01*
X088345Y010852D01*
X084380Y009943D02*
X084193Y009943D01*
X084333Y010084D01*
X084333Y009803D01*
X084104Y009850D02*
X084057Y009803D01*
X083964Y009803D01*
X083917Y009850D01*
X083917Y010037D01*
X083964Y010084D01*
X084057Y010084D01*
X084104Y010037D01*
X083826Y010084D02*
X083733Y010084D01*
X083780Y010084D02*
X083780Y009803D01*
X083826Y009803D02*
X083733Y009803D01*
X076310Y009143D02*
X076310Y009096D01*
X076263Y009050D01*
X076170Y009050D01*
X076123Y009096D01*
X076123Y009143D01*
X076170Y009190D01*
X076263Y009190D01*
X076310Y009143D01*
X076263Y009050D02*
X076310Y009003D01*
X076310Y008956D01*
X076263Y008910D01*
X076170Y008910D01*
X076123Y008956D01*
X076123Y009003D01*
X076170Y009050D01*
X076034Y009096D02*
X076034Y009143D01*
X075987Y009190D01*
X075894Y009190D01*
X075847Y009143D01*
X075758Y009143D02*
X075711Y009190D01*
X075617Y009190D01*
X075571Y009143D01*
X075571Y008956D01*
X075617Y008910D01*
X075711Y008910D01*
X075758Y008956D01*
X075847Y008910D02*
X076034Y009096D01*
X076034Y008910D02*
X075847Y008910D01*
X073600Y009853D02*
X073600Y009947D01*
X073600Y009900D02*
X073319Y009900D01*
X073319Y009853D02*
X073319Y009947D01*
X073366Y010037D02*
X073553Y010037D01*
X073600Y010084D01*
X073600Y010178D01*
X073553Y010224D01*
X073600Y010314D02*
X073600Y010501D01*
X073600Y010590D02*
X073600Y010777D01*
X073600Y010683D02*
X073319Y010683D01*
X073413Y010590D01*
X073319Y010407D02*
X073600Y010407D01*
X073413Y010314D02*
X073319Y010407D01*
X073366Y010224D02*
X073319Y010178D01*
X073319Y010084D01*
X073366Y010037D01*
X074422Y011673D02*
X074609Y011673D01*
X074656Y011720D01*
X074656Y011814D01*
X074609Y011860D01*
X074609Y011950D02*
X074656Y011996D01*
X074656Y012090D01*
X074609Y012136D01*
X074562Y012136D01*
X074516Y012090D01*
X074516Y012043D01*
X074516Y012090D02*
X074469Y012136D01*
X074422Y012136D01*
X074376Y012090D01*
X074376Y011996D01*
X074422Y011950D01*
X074422Y011860D02*
X074376Y011814D01*
X074376Y011720D01*
X074422Y011673D01*
X074422Y012226D02*
X074376Y012273D01*
X074376Y012366D01*
X074422Y012413D01*
X074469Y012413D01*
X074656Y012226D01*
X074656Y012413D01*
X093040Y009731D02*
X093040Y009544D01*
X093086Y009497D01*
X093180Y009497D01*
X093226Y009544D01*
X093316Y009497D02*
X093503Y009684D01*
X093503Y009731D01*
X093456Y009777D01*
X093363Y009777D01*
X093316Y009731D01*
X093226Y009731D02*
X093180Y009777D01*
X093086Y009777D01*
X093040Y009731D01*
X093316Y009497D02*
X093503Y009497D01*
X093592Y009544D02*
X093639Y009497D01*
X093732Y009497D01*
X093779Y009544D01*
X093779Y009590D01*
X093732Y009637D01*
X093592Y009637D01*
X093592Y009544D01*
X093592Y009637D02*
X093685Y009731D01*
X093779Y009777D01*
X096620Y009753D02*
X096713Y009753D01*
X096666Y009753D02*
X096666Y010034D01*
X096620Y010034D02*
X096713Y010034D01*
X096804Y009987D02*
X096804Y009800D01*
X096850Y009753D01*
X096944Y009753D01*
X096990Y009800D01*
X097080Y009800D02*
X097127Y009753D01*
X097220Y009753D01*
X097267Y009800D01*
X097267Y009847D01*
X097220Y009893D01*
X097080Y009893D01*
X097080Y009800D01*
X097080Y009893D02*
X097173Y009987D01*
X097267Y010034D01*
X096990Y009987D02*
X096944Y010034D01*
X096850Y010034D01*
X096804Y009987D01*
X102931Y011937D02*
X102978Y011890D01*
X103165Y011890D01*
X103211Y011937D01*
X103211Y012030D01*
X103165Y012077D01*
X103211Y012166D02*
X103024Y012353D01*
X102978Y012353D01*
X102931Y012306D01*
X102931Y012213D01*
X102978Y012166D01*
X102978Y012077D02*
X102931Y012030D01*
X102931Y011937D01*
X103211Y012166D02*
X103211Y012353D01*
X108669Y012284D02*
X108669Y012425D01*
X108716Y012471D01*
X108809Y012471D01*
X108856Y012425D01*
X108856Y012284D01*
X108950Y012284D02*
X108669Y012284D01*
X108669Y012195D02*
X108669Y012008D01*
X108669Y011919D02*
X108950Y011919D01*
X108669Y011732D01*
X108950Y011732D01*
X108903Y011643D02*
X108716Y011643D01*
X108669Y011596D01*
X108669Y011502D01*
X108716Y011456D01*
X108903Y011456D01*
X108950Y011502D01*
X108950Y011596D01*
X108903Y011643D01*
X108903Y011366D02*
X108950Y011320D01*
X108950Y011226D01*
X108903Y011180D01*
X108716Y011180D01*
X108669Y011226D01*
X108669Y011320D01*
X108716Y011366D01*
X108669Y011090D02*
X108903Y011090D01*
X108950Y011043D01*
X108950Y010950D01*
X108903Y010903D01*
X108669Y010903D01*
X109669Y010706D02*
X109950Y010706D01*
X109950Y010846D01*
X109903Y010893D01*
X109809Y010893D01*
X109763Y010846D01*
X109763Y010706D01*
X109763Y010616D02*
X109950Y010616D01*
X109950Y010476D01*
X109903Y010430D01*
X109763Y010430D01*
X109763Y010340D02*
X109763Y010200D01*
X109809Y010153D01*
X109856Y010200D01*
X109856Y010293D01*
X109903Y010340D01*
X109950Y010293D01*
X109950Y010153D01*
X110166Y010153D02*
X110353Y010340D01*
X110353Y010247D02*
X110166Y010247D01*
X110166Y010340D02*
X110353Y010153D01*
X110259Y010153D02*
X110259Y010340D01*
X110616Y010340D02*
X110803Y010153D01*
X110709Y010153D02*
X110709Y010340D01*
X110803Y010340D02*
X110616Y010153D01*
X110616Y010247D02*
X110803Y010247D01*
X110850Y010706D02*
X110850Y010893D01*
X110850Y010982D02*
X110663Y011169D01*
X110663Y010982D02*
X110850Y011169D01*
X110850Y011534D02*
X110850Y011721D01*
X110850Y011811D02*
X110663Y011998D01*
X110569Y012087D02*
X110569Y012274D01*
X110616Y012274D01*
X110803Y012087D01*
X110850Y012087D01*
X110850Y011998D02*
X110663Y011811D01*
X110569Y011628D02*
X110850Y011628D01*
X110663Y011534D02*
X110569Y011628D01*
X110400Y011628D02*
X110119Y011628D01*
X110213Y011534D01*
X110400Y011534D02*
X110400Y011721D01*
X110400Y011811D02*
X110213Y011998D01*
X110213Y012087D02*
X110119Y012180D01*
X110400Y012180D01*
X110400Y012087D02*
X110400Y012274D01*
X110353Y012363D02*
X110400Y012410D01*
X110400Y012503D01*
X110353Y012550D01*
X110306Y012550D01*
X110259Y012503D01*
X110259Y012457D01*
X110259Y012503D02*
X110213Y012550D01*
X110166Y012550D01*
X110119Y012503D01*
X110119Y012410D01*
X110166Y012363D01*
X109950Y012363D02*
X109950Y012503D01*
X109903Y012550D01*
X109809Y012550D01*
X109763Y012503D01*
X109763Y012363D01*
X109669Y012363D02*
X109950Y012363D01*
X109950Y012274D02*
X109809Y012274D01*
X109763Y012227D01*
X109809Y012180D01*
X109950Y012180D01*
X109950Y012087D02*
X109763Y012087D01*
X109763Y012134D01*
X109809Y012180D01*
X109809Y011998D02*
X109763Y011951D01*
X109763Y011857D01*
X109809Y011811D01*
X109903Y011811D01*
X109950Y011857D01*
X109950Y011951D01*
X109856Y011998D02*
X109856Y011811D01*
X109903Y011721D02*
X109856Y011675D01*
X109856Y011581D01*
X109809Y011534D01*
X109763Y011581D01*
X109763Y011721D01*
X109903Y011721D02*
X109950Y011675D01*
X109950Y011534D01*
X109903Y011445D02*
X109856Y011398D01*
X109856Y011305D01*
X109809Y011258D01*
X109763Y011305D01*
X109763Y011445D01*
X109903Y011445D02*
X109950Y011398D01*
X109950Y011258D01*
X109950Y011169D02*
X109950Y011029D01*
X109903Y010982D01*
X109856Y011029D01*
X109856Y011169D01*
X109809Y011169D02*
X109950Y011169D01*
X109809Y011169D02*
X109763Y011122D01*
X109763Y011029D01*
X110119Y010846D02*
X110119Y010752D01*
X110166Y010706D01*
X110119Y010846D02*
X110166Y010893D01*
X110213Y010893D01*
X110400Y010706D01*
X110400Y010893D01*
X110400Y010982D02*
X110213Y011169D01*
X110213Y010982D02*
X110400Y011169D01*
X110569Y010799D02*
X110850Y010799D01*
X110663Y010706D02*
X110569Y010799D01*
X110213Y011811D02*
X110400Y011998D01*
X109856Y011998D02*
X109809Y011998D01*
X108950Y012102D02*
X108669Y012102D01*
X108856Y012378D02*
X108950Y012471D01*
X108903Y012561D02*
X108950Y012607D01*
X108950Y012701D01*
X108903Y012748D01*
X108716Y012748D01*
X108669Y012701D01*
X108669Y012607D01*
X108716Y012561D01*
X108903Y012561D01*
X108950Y012837D02*
X108950Y013024D01*
X108950Y013113D02*
X108950Y013300D01*
X108950Y013389D02*
X108950Y013576D01*
X108950Y013666D02*
X108669Y013666D01*
X108669Y013806D01*
X108716Y013852D01*
X108809Y013852D01*
X108856Y013806D01*
X108856Y013666D01*
X108856Y013759D02*
X108950Y013852D01*
X108669Y013576D02*
X108669Y013389D01*
X108950Y013389D01*
X108809Y013389D02*
X108809Y013483D01*
X108669Y013113D02*
X108950Y013113D01*
X108950Y012837D02*
X108669Y012837D01*
X109669Y012686D02*
X109950Y012686D01*
X109950Y012639D02*
X109950Y012733D01*
X109903Y012824D02*
X109950Y012870D01*
X109950Y013010D01*
X109996Y013010D02*
X110043Y012964D01*
X110043Y012917D01*
X109996Y013010D02*
X109763Y013010D01*
X109763Y013100D02*
X109809Y013100D01*
X109809Y013147D01*
X109763Y013147D01*
X109763Y013100D01*
X109903Y013100D02*
X109950Y013100D01*
X109950Y013147D01*
X109903Y013147D01*
X109903Y013100D01*
X110073Y013239D02*
X110119Y013239D01*
X110213Y013239D02*
X110400Y013239D01*
X110400Y013285D02*
X110400Y013192D01*
X110353Y013102D02*
X110400Y013056D01*
X110400Y012916D01*
X110493Y012916D02*
X110213Y012916D01*
X110213Y013056D01*
X110259Y013102D01*
X110353Y013102D01*
X110213Y013192D02*
X110213Y013239D01*
X110213Y013376D02*
X110213Y013516D01*
X110259Y013563D01*
X110400Y013563D01*
X110400Y013652D02*
X110119Y013652D01*
X110213Y013699D02*
X110213Y013792D01*
X110259Y013839D01*
X110400Y013839D01*
X110353Y013929D02*
X110259Y013929D01*
X110213Y013975D01*
X110213Y014069D01*
X110259Y014115D01*
X110306Y014115D01*
X110306Y013929D01*
X110353Y013929D02*
X110400Y013975D01*
X110400Y014069D01*
X110353Y014205D02*
X110306Y014251D01*
X110306Y014392D01*
X110259Y014392D02*
X110400Y014392D01*
X110400Y014251D01*
X110353Y014205D01*
X110213Y014251D02*
X110213Y014345D01*
X110259Y014392D01*
X110259Y014481D02*
X110213Y014528D01*
X110213Y014668D01*
X110119Y014668D02*
X110400Y014668D01*
X110400Y014528D01*
X110353Y014481D01*
X110259Y014481D01*
X110569Y014392D02*
X110850Y014392D01*
X110850Y014251D01*
X110803Y014205D01*
X110709Y014205D01*
X110663Y014251D01*
X110663Y014392D01*
X110709Y014115D02*
X110850Y014115D01*
X110850Y013975D01*
X110803Y013929D01*
X110756Y013975D01*
X110756Y014115D01*
X110709Y014115D02*
X110663Y014069D01*
X110663Y013975D01*
X110709Y013839D02*
X110756Y013839D01*
X110756Y013652D01*
X110709Y013652D02*
X110663Y013699D01*
X110663Y013792D01*
X110709Y013839D01*
X110850Y013792D02*
X110850Y013699D01*
X110803Y013652D01*
X110709Y013652D01*
X110709Y013563D02*
X110850Y013563D01*
X110709Y013563D02*
X110663Y013516D01*
X110663Y013423D01*
X110709Y013376D01*
X110709Y013287D02*
X110850Y013287D01*
X110850Y013376D02*
X110569Y013376D01*
X110663Y013240D02*
X110709Y013287D01*
X110663Y013240D02*
X110663Y013100D01*
X110850Y013100D01*
X110850Y013009D02*
X110850Y012916D01*
X110850Y012962D02*
X110663Y012962D01*
X110663Y012916D01*
X110709Y012826D02*
X110803Y012826D01*
X110850Y012780D01*
X110850Y012639D01*
X110943Y012639D02*
X110663Y012639D01*
X110663Y012780D01*
X110709Y012826D01*
X110569Y012962D02*
X110523Y012962D01*
X110400Y013376D02*
X110213Y013376D01*
X110259Y013652D02*
X110213Y013699D01*
X109903Y012824D02*
X109763Y012824D01*
X109669Y012686D02*
X109669Y012639D01*
X109816Y016403D02*
X109769Y016450D01*
X109769Y016543D01*
X109816Y016590D01*
X109863Y016590D01*
X109909Y016543D01*
X109956Y016590D01*
X110003Y016590D01*
X110050Y016543D01*
X110050Y016450D01*
X110003Y016403D01*
X109909Y016497D02*
X109909Y016543D01*
X110003Y016680D02*
X110003Y016726D01*
X110050Y016726D01*
X110050Y016680D01*
X110003Y016680D01*
X110003Y016818D02*
X110050Y016864D01*
X110050Y016958D01*
X110003Y017004D01*
X109956Y017004D01*
X109909Y016958D01*
X109909Y016911D01*
X109909Y016958D02*
X109863Y017004D01*
X109816Y017004D01*
X109769Y016958D01*
X109769Y016864D01*
X109816Y016818D01*
X109769Y017094D02*
X109956Y017094D01*
X110050Y017187D01*
X109956Y017281D01*
X109769Y017281D01*
X108647Y017318D02*
X108460Y017318D01*
X108371Y017318D02*
X108184Y017318D01*
X108277Y017318D02*
X108277Y017599D01*
X108184Y017505D01*
X108095Y017552D02*
X108048Y017599D01*
X107954Y017599D01*
X107908Y017552D01*
X107908Y017365D01*
X107954Y017318D01*
X108048Y017318D01*
X108095Y017365D01*
X108460Y017505D02*
X108554Y017599D01*
X108554Y017318D01*
X111419Y018068D02*
X111419Y018161D01*
X111419Y018115D02*
X111653Y018115D01*
X111700Y018068D01*
X111700Y018021D01*
X111653Y017975D01*
X111700Y018251D02*
X111419Y018251D01*
X111419Y018391D01*
X111466Y018438D01*
X111559Y018438D01*
X111606Y018391D01*
X111606Y018251D01*
X111700Y018527D02*
X111513Y018714D01*
X111466Y018714D01*
X111419Y018667D01*
X111419Y018574D01*
X111466Y018527D01*
X111700Y018527D02*
X111700Y018714D01*
X112360Y019693D02*
X112360Y016993D01*
X118560Y016993D01*
X118560Y019693D01*
X117160Y019693D01*
X116260Y019693D01*
X114660Y019693D02*
X112760Y019693D01*
X112360Y019693D02*
X114160Y019693D01*
X122810Y019593D02*
X122810Y016793D01*
X122810Y016193D02*
X122810Y015293D01*
X122810Y013693D02*
X122810Y011793D01*
X122810Y011193D02*
X122810Y009393D01*
X125510Y009393D01*
X125510Y019593D01*
X122810Y019593D01*
X126369Y019574D02*
X126369Y019667D01*
X126416Y019714D01*
X126463Y019714D01*
X126509Y019667D01*
X126556Y019714D01*
X126603Y019714D01*
X126650Y019667D01*
X126650Y019574D01*
X126603Y019527D01*
X126509Y019438D02*
X126556Y019391D01*
X126556Y019251D01*
X126650Y019251D02*
X126369Y019251D01*
X126369Y019391D01*
X126416Y019438D01*
X126509Y019438D01*
X126416Y019527D02*
X126369Y019574D01*
X126509Y019620D02*
X126509Y019667D01*
X126369Y019161D02*
X126369Y019068D01*
X126369Y019115D02*
X126603Y019115D01*
X126650Y019068D01*
X126650Y019021D01*
X126603Y018975D01*
X101292Y024335D02*
X101245Y024288D01*
X101152Y024288D01*
X101105Y024335D01*
X101292Y024522D01*
X101292Y024335D01*
X101292Y024522D02*
X101245Y024569D01*
X101152Y024569D01*
X101105Y024522D01*
X101105Y024335D01*
X101016Y024335D02*
X100969Y024288D01*
X100876Y024288D01*
X100829Y024335D01*
X100739Y024335D02*
X100693Y024288D01*
X100599Y024288D01*
X100553Y024335D01*
X100553Y024522D01*
X100599Y024569D01*
X100693Y024569D01*
X100739Y024522D01*
X100829Y024522D02*
X100876Y024569D01*
X100969Y024569D01*
X101016Y024522D01*
X101016Y024475D01*
X100969Y024428D01*
X101016Y024382D01*
X101016Y024335D01*
X100969Y024428D02*
X100922Y024428D01*
X099292Y024288D02*
X099105Y024288D01*
X099199Y024288D02*
X099199Y024569D01*
X099105Y024475D01*
X099016Y024475D02*
X098969Y024428D01*
X099016Y024382D01*
X099016Y024335D01*
X098969Y024288D01*
X098876Y024288D01*
X098829Y024335D01*
X098739Y024335D02*
X098693Y024288D01*
X098599Y024288D01*
X098553Y024335D01*
X098553Y024522D01*
X098599Y024569D01*
X098693Y024569D01*
X098739Y024522D01*
X098829Y024522D02*
X098876Y024569D01*
X098969Y024569D01*
X099016Y024522D01*
X099016Y024475D01*
X098969Y024428D02*
X098922Y024428D01*
X100353Y021272D02*
X100306Y021225D01*
X100306Y021038D01*
X100353Y020991D01*
X100446Y020991D01*
X100493Y021038D01*
X100582Y020991D02*
X100769Y020991D01*
X100676Y020991D02*
X100676Y021272D01*
X100582Y021178D01*
X100493Y021225D02*
X100446Y021272D01*
X100353Y021272D01*
X096506Y021026D02*
X096459Y021026D01*
X096272Y021213D01*
X096226Y021213D01*
X096226Y021026D01*
X096226Y020843D02*
X096506Y020843D01*
X096506Y020750D02*
X096506Y020936D01*
X096319Y020750D02*
X096226Y020843D01*
X096272Y020660D02*
X096226Y020614D01*
X096226Y020520D01*
X096272Y020473D01*
X096459Y020473D01*
X096506Y020520D01*
X096506Y020614D01*
X096459Y020660D01*
X098063Y018369D02*
X098203Y018369D01*
X098250Y018322D01*
X098250Y018228D01*
X098203Y018182D01*
X098063Y018182D01*
X098063Y018088D02*
X098063Y018369D01*
X098157Y018182D02*
X098250Y018088D01*
X098339Y018088D02*
X098526Y018088D01*
X098616Y018088D02*
X098803Y018088D01*
X098709Y018088D02*
X098709Y018369D01*
X098616Y018275D01*
X098433Y018369D02*
X098433Y018088D01*
X098339Y018275D02*
X098433Y018369D01*
X103401Y028691D02*
X103588Y028691D01*
X103635Y028738D01*
X103635Y028832D01*
X103588Y028878D01*
X103635Y028968D02*
X103448Y029155D01*
X103401Y029155D01*
X103354Y029108D01*
X103354Y029014D01*
X103401Y028968D01*
X103401Y028878D02*
X103354Y028832D01*
X103354Y028738D01*
X103401Y028691D01*
X103635Y028968D02*
X103635Y029155D01*
X103588Y029244D02*
X103635Y029291D01*
X103635Y029384D01*
X103588Y029431D01*
X103401Y029431D01*
X103354Y029384D01*
X103354Y029291D01*
X103401Y029244D01*
X103448Y029244D01*
X103494Y029291D01*
X103494Y029431D01*
X095243Y029627D02*
X095243Y029721D01*
X095197Y029768D01*
X095197Y029857D02*
X095150Y029857D01*
X095103Y029904D01*
X095103Y029997D01*
X095150Y030044D01*
X095197Y030044D01*
X095243Y029997D01*
X095243Y029904D01*
X095197Y029857D01*
X095103Y029904D02*
X095056Y029857D01*
X095010Y029857D01*
X094963Y029904D01*
X094963Y029997D01*
X095010Y030044D01*
X095056Y030044D01*
X095103Y029997D01*
X095010Y029768D02*
X094963Y029721D01*
X094963Y029627D01*
X095010Y029581D01*
X095197Y029581D01*
X095243Y029627D01*
X092843Y029977D02*
X092843Y030071D01*
X092797Y030118D01*
X092797Y030207D02*
X092843Y030254D01*
X092843Y030347D01*
X092797Y030394D01*
X092610Y030394D01*
X092563Y030347D01*
X092563Y030254D01*
X092610Y030207D01*
X092656Y030207D01*
X092703Y030254D01*
X092703Y030394D01*
X092610Y030118D02*
X092563Y030071D01*
X092563Y029977D01*
X092610Y029931D01*
X092797Y029931D01*
X092843Y029977D01*
X093197Y030518D02*
X093384Y030518D01*
X093473Y030518D02*
X093660Y030518D01*
X093567Y030518D02*
X093567Y030799D01*
X093473Y030705D01*
X093197Y030799D02*
X093197Y030518D01*
X091735Y030688D02*
X091735Y030782D01*
X091688Y030828D01*
X091735Y030918D02*
X091735Y031105D01*
X091735Y031011D02*
X091454Y031011D01*
X091548Y030918D01*
X091501Y030828D02*
X091454Y030782D01*
X091454Y030688D01*
X091501Y030641D01*
X091688Y030641D01*
X091735Y030688D01*
X091035Y031038D02*
X091035Y031132D01*
X090988Y031178D01*
X091035Y031268D02*
X090848Y031455D01*
X090801Y031455D01*
X090754Y031408D01*
X090754Y031314D01*
X090801Y031268D01*
X090801Y031178D02*
X090754Y031132D01*
X090754Y031038D01*
X090801Y030991D01*
X090988Y030991D01*
X091035Y031038D01*
X091035Y031268D02*
X091035Y031455D01*
X091035Y031544D02*
X090988Y031544D01*
X090801Y031731D01*
X090754Y031731D01*
X090754Y031544D01*
X091454Y031334D02*
X091501Y031381D01*
X091688Y031194D01*
X091735Y031241D01*
X091735Y031334D01*
X091688Y031381D01*
X091501Y031381D01*
X091454Y031334D02*
X091454Y031241D01*
X091501Y031194D01*
X091688Y031194D01*
X029866Y015712D02*
X029866Y015665D01*
X029820Y015618D01*
X029866Y015572D01*
X029866Y015525D01*
X029820Y015478D01*
X029726Y015478D01*
X029680Y015525D01*
X029590Y015525D02*
X029543Y015478D01*
X029450Y015478D01*
X029403Y015525D01*
X029314Y015478D02*
X029220Y015572D01*
X029267Y015572D02*
X029127Y015572D01*
X029127Y015478D02*
X029127Y015759D01*
X029267Y015759D01*
X029314Y015712D01*
X029314Y015618D01*
X029267Y015572D01*
X029403Y015712D02*
X029450Y015759D01*
X029543Y015759D01*
X029590Y015712D01*
X029590Y015665D01*
X029543Y015618D01*
X029590Y015572D01*
X029590Y015525D01*
X029543Y015618D02*
X029497Y015618D01*
X029680Y015712D02*
X029726Y015759D01*
X029820Y015759D01*
X029866Y015712D01*
X029820Y015618D02*
X029773Y015618D01*
X018660Y011189D02*
X018520Y011048D01*
X018707Y011048D01*
X018660Y010908D02*
X018660Y011189D01*
X018337Y011189D02*
X018337Y010908D01*
X018244Y010908D02*
X018431Y010908D01*
X018244Y011095D02*
X018337Y011189D01*
X018155Y011142D02*
X018108Y011189D01*
X018014Y011189D01*
X017968Y011142D01*
X017968Y010955D01*
X018014Y010908D01*
X018108Y010908D01*
X018155Y010955D01*
X018964Y010321D02*
X018964Y010134D01*
X019104Y010134D01*
X019058Y010227D01*
X019058Y010274D01*
X019104Y010321D01*
X019198Y010321D01*
X019245Y010274D01*
X019245Y010181D01*
X019198Y010134D01*
X019198Y010045D02*
X019245Y009998D01*
X019245Y009904D01*
X019198Y009858D01*
X019198Y009768D02*
X019245Y009722D01*
X019245Y009628D01*
X019198Y009581D01*
X019011Y009581D01*
X018964Y009628D01*
X018964Y009722D01*
X019011Y009768D01*
X019011Y009858D02*
X018964Y009904D01*
X018964Y009998D01*
X019011Y010045D01*
X019058Y010045D01*
X019104Y009998D01*
X019151Y010045D01*
X019198Y010045D01*
X019104Y009998D02*
X019104Y009951D01*
X021194Y009960D02*
X021241Y009913D01*
X021194Y009960D02*
X021194Y010053D01*
X021241Y010100D01*
X021288Y010100D01*
X021474Y009913D01*
X021474Y010100D01*
X021428Y010190D02*
X021241Y010376D01*
X021428Y010376D01*
X021474Y010330D01*
X021474Y010236D01*
X021428Y010190D01*
X021241Y010190D01*
X021194Y010236D01*
X021194Y010330D01*
X021241Y010376D01*
X021241Y009824D02*
X021334Y009824D01*
X021381Y009777D01*
X021381Y009637D01*
X021381Y009730D02*
X021474Y009824D01*
X021474Y009637D02*
X021194Y009637D01*
X021194Y009777D01*
X021241Y009824D01*
D13*
X017195Y013903D02*
X017195Y014364D01*
X017348Y014364D02*
X017041Y014364D01*
X016888Y014364D02*
X016888Y013980D01*
X016811Y013903D01*
X016658Y013903D01*
X016581Y013980D01*
X016581Y014364D01*
X016428Y014287D02*
X016351Y014364D01*
X016197Y014364D01*
X016121Y014287D01*
X016121Y013980D01*
X016197Y013903D01*
X016351Y013903D01*
X016428Y013980D01*
X016428Y014287D01*
X015967Y013827D02*
X015660Y013827D01*
X015353Y014134D02*
X015200Y014134D01*
X015046Y014134D02*
X014970Y014057D01*
X014740Y014057D01*
X014893Y014057D02*
X015046Y013903D01*
X015200Y013903D02*
X015200Y014364D01*
X015507Y014364D01*
X015046Y014287D02*
X014970Y014364D01*
X014740Y014364D01*
X014740Y013903D01*
X015046Y014134D02*
X015046Y014287D01*
X013390Y018063D02*
X013083Y018063D01*
X012929Y018217D01*
X013083Y018370D01*
X013390Y018370D01*
X013313Y018524D02*
X013390Y018600D01*
X013390Y018754D01*
X013313Y018831D01*
X013006Y018831D01*
X012929Y018754D01*
X012929Y018600D01*
X013006Y018524D01*
X013313Y018524D01*
X013159Y018370D02*
X013159Y018063D01*
X012929Y018984D02*
X013083Y019138D01*
X012929Y019291D01*
X013390Y019291D01*
X013390Y018984D02*
X012929Y018984D01*
X013083Y019905D02*
X013390Y020058D01*
X013083Y020212D01*
X013083Y020365D02*
X012929Y020519D01*
X013390Y020519D01*
X013390Y020672D02*
X013390Y020365D01*
X013390Y020826D02*
X013390Y020902D01*
X013313Y020902D01*
X013313Y020826D01*
X013390Y020826D01*
X013313Y021056D02*
X013006Y021363D01*
X013313Y021363D01*
X013390Y021286D01*
X013390Y021133D01*
X013313Y021056D01*
X013006Y021056D01*
X012929Y021133D01*
X012929Y021286D01*
X013006Y021363D01*
X020756Y029213D02*
X020910Y029213D01*
X020986Y029290D01*
X020986Y029597D01*
X020910Y029674D01*
X020756Y029674D01*
X020680Y029597D01*
X020680Y029290D01*
X020756Y029213D01*
X021140Y029290D02*
X021217Y029213D01*
X021447Y029213D01*
X021447Y029520D01*
X021600Y029520D02*
X021754Y029520D01*
X021677Y029597D02*
X021677Y029290D01*
X021754Y029213D01*
X021907Y029213D02*
X022137Y029213D01*
X022214Y029290D01*
X022214Y029444D01*
X022137Y029520D01*
X021907Y029520D01*
X021907Y029060D01*
X022368Y029290D02*
X022444Y029213D01*
X022675Y029213D01*
X022675Y029520D01*
X022828Y029520D02*
X022981Y029520D01*
X022905Y029597D02*
X022905Y029290D01*
X022981Y029213D01*
X022368Y029290D02*
X022368Y029520D01*
X021140Y029520D02*
X021140Y029290D01*
X037280Y029344D02*
X037586Y029344D01*
X037586Y029420D02*
X037586Y029113D01*
X037817Y029190D02*
X037893Y029113D01*
X037817Y029190D02*
X037817Y029497D01*
X037740Y029420D02*
X037893Y029420D01*
X038047Y029420D02*
X038200Y029420D01*
X038124Y029497D02*
X038124Y029190D01*
X038200Y029113D01*
X038354Y029190D02*
X038354Y029344D01*
X038430Y029420D01*
X038584Y029420D01*
X038661Y029344D01*
X038661Y029267D01*
X038354Y029267D01*
X038354Y029190D02*
X038430Y029113D01*
X038584Y029113D01*
X038814Y029113D02*
X038814Y029420D01*
X039044Y029420D01*
X039121Y029344D01*
X039121Y029113D01*
X039275Y029190D02*
X039351Y029113D01*
X039581Y029113D01*
X039581Y029420D01*
X039812Y029420D02*
X039965Y029420D01*
X040042Y029344D01*
X040042Y029113D01*
X039812Y029113D01*
X039735Y029190D01*
X039812Y029267D01*
X040042Y029267D01*
X040195Y029420D02*
X040349Y029420D01*
X040272Y029497D02*
X040272Y029190D01*
X040349Y029113D01*
X040502Y029113D02*
X040656Y029113D01*
X040579Y029113D02*
X040579Y029420D01*
X040502Y029420D01*
X040579Y029574D02*
X040579Y029650D01*
X040809Y029344D02*
X040809Y029190D01*
X040886Y029113D01*
X041039Y029113D01*
X041116Y029190D01*
X041116Y029344D01*
X041039Y029420D01*
X040886Y029420D01*
X040809Y029344D01*
X041270Y029420D02*
X041500Y029420D01*
X041577Y029344D01*
X041577Y029113D01*
X041270Y029113D02*
X041270Y029420D01*
X039275Y029420D02*
X039275Y029190D01*
X037586Y029420D02*
X037433Y029574D01*
X037280Y029420D01*
X037280Y029113D01*
X052080Y030424D02*
X052386Y030424D01*
X052233Y030424D02*
X052233Y029963D01*
X052540Y030040D02*
X052617Y030117D01*
X052847Y030117D01*
X052847Y030194D02*
X052847Y029963D01*
X052617Y029963D01*
X052540Y030040D01*
X052617Y030270D02*
X052770Y030270D01*
X052847Y030194D01*
X053000Y030194D02*
X053000Y030040D01*
X053077Y029963D01*
X053307Y029963D01*
X053307Y029887D02*
X053307Y030270D01*
X053077Y030270D01*
X053000Y030194D01*
X053154Y030560D02*
X053154Y031020D01*
X053384Y031020D01*
X053461Y030944D01*
X053461Y030790D01*
X053384Y030713D01*
X053154Y030713D01*
X053000Y030713D02*
X052924Y030790D01*
X052924Y031097D01*
X052847Y031020D02*
X053000Y031020D01*
X052693Y031020D02*
X052540Y031020D01*
X052617Y031097D02*
X052617Y030790D01*
X052693Y030713D01*
X052386Y030713D02*
X052386Y030944D01*
X052310Y031020D01*
X052156Y031020D01*
X052080Y030944D01*
X052080Y031174D02*
X052080Y030713D01*
X053461Y030270D02*
X053461Y030194D01*
X053537Y030194D01*
X053537Y030270D01*
X053461Y030270D01*
X053461Y030040D02*
X053461Y029963D01*
X053537Y029963D01*
X053537Y030040D01*
X053461Y030040D01*
X053307Y029887D02*
X053230Y029810D01*
X053154Y029810D01*
X054151Y030270D02*
X054305Y029963D01*
X054458Y030270D01*
X054612Y030270D02*
X054765Y030424D01*
X054765Y029963D01*
X054612Y029963D02*
X054919Y029963D01*
X055072Y029963D02*
X055149Y029963D01*
X055149Y030040D01*
X055072Y030040D01*
X055072Y029963D01*
X055302Y030040D02*
X055609Y030347D01*
X055609Y030040D01*
X055532Y029963D01*
X055379Y029963D01*
X055302Y030040D01*
X055302Y030347D01*
X055379Y030424D01*
X055532Y030424D01*
X055609Y030347D01*
X055456Y030560D02*
X055532Y030637D01*
X055532Y031020D01*
X055302Y031020D01*
X055226Y030944D01*
X055226Y030790D01*
X055302Y030713D01*
X055532Y030713D01*
X055686Y030713D02*
X055839Y030713D01*
X055763Y030713D02*
X055763Y031020D01*
X055686Y031020D01*
X055763Y031174D02*
X055763Y031250D01*
X055686Y031463D02*
X055609Y031540D01*
X055686Y031617D01*
X055916Y031617D01*
X055916Y031694D02*
X055916Y031463D01*
X055686Y031463D01*
X055456Y031463D02*
X055379Y031540D01*
X055379Y031847D01*
X055302Y031770D02*
X055456Y031770D01*
X055686Y031770D02*
X055839Y031770D01*
X055916Y031694D01*
X056070Y031770D02*
X056223Y031770D01*
X056146Y031847D02*
X056146Y031540D01*
X056223Y031463D01*
X056377Y031463D02*
X056530Y031463D01*
X056453Y031463D02*
X056453Y031770D01*
X056377Y031770D01*
X056453Y031924D02*
X056453Y032000D01*
X056683Y031694D02*
X056683Y031540D01*
X056760Y031463D01*
X056914Y031463D01*
X056990Y031540D01*
X056990Y031694D01*
X056914Y031770D01*
X056760Y031770D01*
X056683Y031694D01*
X056607Y031250D02*
X056607Y031174D01*
X056607Y031020D02*
X056607Y030713D01*
X056683Y030713D02*
X056530Y030713D01*
X056377Y030713D02*
X056300Y030713D01*
X056300Y030790D01*
X056377Y030790D01*
X056377Y030713D01*
X056146Y030713D02*
X056070Y030790D01*
X056070Y031097D01*
X055993Y031020D02*
X056146Y031020D01*
X056530Y031020D02*
X056607Y031020D01*
X056837Y030944D02*
X056837Y030790D01*
X056914Y030713D01*
X057067Y030713D01*
X057144Y030790D01*
X057144Y030944D01*
X057067Y031020D01*
X056914Y031020D01*
X056837Y030944D01*
X057297Y030713D02*
X057604Y031174D01*
X057758Y031020D02*
X057911Y030713D01*
X058065Y031020D01*
X058295Y031020D02*
X058448Y031020D01*
X058525Y030944D01*
X058525Y030713D01*
X058295Y030713D01*
X058218Y030790D01*
X058295Y030867D01*
X058525Y030867D01*
X058678Y030790D02*
X058755Y030713D01*
X058909Y030713D01*
X058985Y030790D01*
X058985Y031174D01*
X059139Y031097D02*
X059216Y031174D01*
X059369Y031174D01*
X059446Y031097D01*
X059446Y031020D01*
X059369Y030944D01*
X059446Y030867D01*
X059446Y030790D01*
X059369Y030713D01*
X059216Y030713D01*
X059139Y030790D01*
X059292Y030944D02*
X059369Y030944D01*
X059599Y031020D02*
X059676Y031020D01*
X059753Y030944D01*
X059829Y031020D01*
X059906Y030944D01*
X059906Y030713D01*
X059753Y030713D02*
X059753Y030944D01*
X059599Y031020D02*
X059599Y030713D01*
X058678Y030790D02*
X058678Y031174D01*
X057681Y031463D02*
X057681Y031540D01*
X057604Y031540D01*
X057604Y031463D01*
X057681Y031463D01*
X057451Y031463D02*
X057451Y031694D01*
X057374Y031770D01*
X057144Y031770D01*
X057144Y031463D01*
X057604Y031694D02*
X057604Y031770D01*
X057681Y031770D01*
X057681Y031694D01*
X057604Y031694D01*
X055149Y031694D02*
X055149Y031463D01*
X055149Y031694D02*
X055072Y031770D01*
X054842Y031770D01*
X054842Y031463D01*
X054688Y031617D02*
X054381Y031617D01*
X054381Y031694D02*
X054458Y031770D01*
X054612Y031770D01*
X054688Y031694D01*
X054688Y031617D01*
X054612Y031463D02*
X054458Y031463D01*
X054381Y031540D01*
X054381Y031694D01*
X054228Y031694D02*
X054228Y031463D01*
X054075Y031463D02*
X054075Y031694D01*
X054151Y031770D01*
X054228Y031694D01*
X054075Y031694D02*
X053998Y031770D01*
X053921Y031770D01*
X053921Y031463D01*
X053768Y031463D02*
X053768Y031770D01*
X053768Y031463D02*
X053537Y031463D01*
X053461Y031540D01*
X053461Y031770D01*
X053307Y031770D02*
X053077Y031770D01*
X053000Y031694D01*
X053000Y031540D01*
X053077Y031463D01*
X053307Y031463D01*
X052847Y031540D02*
X052770Y031463D01*
X052617Y031463D01*
X052540Y031540D01*
X052540Y031694D01*
X052617Y031770D01*
X052770Y031770D01*
X052847Y031694D01*
X052847Y031540D01*
X052386Y031540D02*
X052310Y031463D01*
X052080Y031463D01*
X052080Y031924D01*
X052310Y031924D01*
X052386Y031847D01*
X052386Y031540D01*
X053614Y030944D02*
X053691Y031020D01*
X053921Y031020D01*
X054075Y031020D02*
X054075Y030944D01*
X054151Y030944D01*
X054151Y031020D01*
X054075Y031020D01*
X054075Y030790D02*
X054075Y030713D01*
X054151Y030713D01*
X054151Y030790D01*
X054075Y030790D01*
X053921Y030790D02*
X053844Y030867D01*
X053691Y030867D01*
X053614Y030944D01*
X053614Y030713D02*
X053844Y030713D01*
X053921Y030790D01*
X054305Y030713D02*
X054612Y031174D01*
X055072Y031174D02*
X054765Y030713D01*
X055379Y030560D02*
X055456Y030560D01*
X060580Y029624D02*
X060580Y029317D01*
X060733Y029163D01*
X060886Y029317D01*
X060886Y029624D01*
X061040Y029547D02*
X061040Y029240D01*
X061117Y029163D01*
X061270Y029163D01*
X061347Y029240D01*
X061500Y029240D02*
X061577Y029163D01*
X061730Y029163D01*
X061807Y029240D01*
X061807Y029547D01*
X061730Y029624D01*
X061577Y029624D01*
X061500Y029547D01*
X061500Y029240D01*
X061347Y029547D02*
X061270Y029624D01*
X061117Y029624D01*
X061040Y029547D01*
X062421Y029624D02*
X062728Y029624D01*
X062575Y029624D02*
X062575Y029163D01*
X062881Y029240D02*
X062881Y029470D01*
X062881Y029240D02*
X062958Y029163D01*
X063188Y029163D01*
X063188Y029470D01*
X063342Y029470D02*
X063572Y029470D01*
X063649Y029394D01*
X063649Y029163D01*
X063802Y029240D02*
X063802Y029394D01*
X063879Y029470D01*
X064032Y029470D01*
X064109Y029394D01*
X064109Y029317D01*
X063802Y029317D01*
X063802Y029240D02*
X063879Y029163D01*
X064032Y029163D01*
X063342Y029163D02*
X063342Y029470D01*
X077530Y029524D02*
X077530Y029063D01*
X077530Y029217D02*
X077760Y029217D01*
X077836Y029294D01*
X077836Y029447D01*
X077760Y029524D01*
X077530Y029524D01*
X077683Y029217D02*
X077836Y029063D01*
X077990Y029063D02*
X077990Y029524D01*
X078297Y029524D01*
X078143Y029294D02*
X077990Y029294D01*
X078911Y029370D02*
X078987Y029294D01*
X079141Y029294D01*
X079218Y029217D01*
X079218Y029140D01*
X079141Y029063D01*
X078987Y029063D01*
X078911Y029140D01*
X078911Y029370D02*
X078911Y029447D01*
X078987Y029524D01*
X079141Y029524D01*
X079218Y029447D01*
X079371Y029294D02*
X079448Y029370D01*
X079601Y029370D01*
X079678Y029294D01*
X079678Y029217D01*
X079371Y029217D01*
X079371Y029140D02*
X079371Y029294D01*
X079371Y029140D02*
X079448Y029063D01*
X079601Y029063D01*
X079831Y029063D02*
X079985Y029063D01*
X079908Y029063D02*
X079908Y029524D01*
X079831Y029524D01*
X085380Y029274D02*
X085380Y028967D01*
X085533Y028813D01*
X085686Y028967D01*
X085686Y029274D01*
X085840Y029197D02*
X085840Y028890D01*
X085917Y028813D01*
X086070Y028813D01*
X086147Y028890D01*
X086300Y028890D02*
X086377Y028813D01*
X086530Y028813D01*
X086607Y028890D01*
X086607Y029197D01*
X086530Y029274D01*
X086377Y029274D01*
X086300Y029197D01*
X086300Y028890D01*
X086147Y029197D02*
X086070Y029274D01*
X085917Y029274D01*
X085840Y029197D01*
X086761Y028737D02*
X087068Y028737D01*
X087221Y028967D02*
X087375Y028813D01*
X087528Y028967D01*
X087528Y029274D01*
X087221Y029274D02*
X087221Y028967D01*
X087454Y029637D02*
X087761Y029637D01*
X087914Y029867D02*
X088068Y029713D01*
X088221Y029867D01*
X088221Y030174D01*
X087914Y030174D02*
X087914Y029867D01*
X087300Y030020D02*
X087147Y030020D01*
X087224Y030097D02*
X087224Y029790D01*
X087300Y029713D01*
X086993Y029713D02*
X086917Y029790D01*
X086917Y030097D01*
X086840Y030020D02*
X086993Y030020D01*
X086686Y030020D02*
X086533Y030174D01*
X086380Y030020D01*
X086380Y029713D01*
X086380Y029944D02*
X086686Y029944D01*
X086686Y030020D02*
X086686Y029713D01*
X103829Y026812D02*
X104290Y026812D01*
X104290Y026582D01*
X104213Y026505D01*
X104059Y026505D01*
X103983Y026582D01*
X103983Y026812D01*
X104059Y026965D02*
X103983Y027042D01*
X103983Y027195D01*
X104059Y027272D01*
X104136Y027272D01*
X104136Y026965D01*
X104213Y026965D02*
X104059Y026965D01*
X104213Y026965D02*
X104290Y027042D01*
X104290Y027195D01*
X104290Y027426D02*
X103983Y027426D01*
X104136Y027426D02*
X103983Y027579D01*
X103983Y027656D01*
X104059Y026351D02*
X103983Y026275D01*
X103983Y026121D01*
X104059Y026044D01*
X104213Y026044D01*
X104290Y026121D01*
X104290Y026275D01*
X104213Y026351D01*
X104059Y026351D01*
X103983Y025891D02*
X103983Y025661D01*
X104059Y025584D01*
X104213Y025584D01*
X104290Y025661D01*
X104290Y025891D01*
X104290Y025431D02*
X104059Y025431D01*
X103983Y025354D01*
X103983Y025124D01*
X104290Y025124D01*
X104290Y024970D02*
X104290Y024663D01*
X103829Y024663D01*
X103829Y024970D01*
X104059Y024817D02*
X104059Y024663D01*
X102374Y021807D02*
X100051Y021807D01*
X099145Y020902D01*
X099145Y020587D01*
X099145Y020902D02*
X100051Y021807D01*
X102374Y021807D01*
X102374Y020587D01*
X102240Y020559D02*
X101645Y020559D01*
X101645Y020521D02*
X102253Y020521D01*
X102265Y020482D02*
X101645Y020482D01*
X101645Y020444D02*
X102275Y020444D01*
X102275Y020449D02*
X102157Y020823D01*
X101921Y021197D01*
X101645Y021453D01*
X101645Y018953D01*
X101645Y018933D01*
X101941Y019209D01*
X102177Y019603D01*
X102275Y019937D01*
X102275Y020449D01*
X102275Y020405D02*
X101645Y020405D01*
X101645Y020367D02*
X102275Y020367D01*
X102275Y020328D02*
X101645Y020328D01*
X101645Y020290D02*
X102275Y020290D01*
X102275Y020251D02*
X101645Y020251D01*
X101645Y020213D02*
X102275Y020213D01*
X102275Y020174D02*
X101645Y020174D01*
X101645Y020136D02*
X102275Y020136D01*
X102275Y020097D02*
X101645Y020097D01*
X101645Y020059D02*
X102275Y020059D01*
X102275Y020020D02*
X101645Y020020D01*
X101645Y019982D02*
X102275Y019982D01*
X102275Y019943D02*
X101645Y019943D01*
X101645Y019905D02*
X102266Y019905D01*
X102254Y019866D02*
X101645Y019866D01*
X101645Y019828D02*
X102243Y019828D01*
X102232Y019789D02*
X101645Y019789D01*
X101645Y019751D02*
X102220Y019751D01*
X102209Y019712D02*
X101645Y019712D01*
X101645Y019674D02*
X102198Y019674D01*
X102186Y019635D02*
X101645Y019635D01*
X101645Y019597D02*
X102173Y019597D01*
X102150Y019558D02*
X101645Y019558D01*
X101645Y019520D02*
X102127Y019520D01*
X102104Y019481D02*
X101645Y019481D01*
X101645Y019443D02*
X102081Y019443D01*
X102058Y019404D02*
X101645Y019404D01*
X101645Y019366D02*
X102035Y019366D01*
X102012Y019327D02*
X101645Y019327D01*
X101645Y019289D02*
X101989Y019289D01*
X101965Y019250D02*
X101645Y019250D01*
X101645Y019212D02*
X101942Y019212D01*
X101902Y019173D02*
X101645Y019173D01*
X101645Y019135D02*
X101861Y019135D01*
X101820Y019096D02*
X101645Y019096D01*
X101645Y019058D02*
X101779Y019058D01*
X101737Y019019D02*
X101645Y019019D01*
X101645Y018981D02*
X101696Y018981D01*
X101655Y018942D02*
X101645Y018942D01*
X101626Y018914D02*
X101626Y021473D01*
X101645Y021445D02*
X101654Y021445D01*
X101645Y021406D02*
X101696Y021406D01*
X101737Y021368D02*
X101645Y021368D01*
X101645Y021329D02*
X101779Y021329D01*
X101820Y021291D02*
X101645Y021291D01*
X101645Y021252D02*
X101862Y021252D01*
X101903Y021214D02*
X101645Y021214D01*
X101645Y021175D02*
X101935Y021175D01*
X101959Y021137D02*
X101645Y021137D01*
X101645Y021098D02*
X101983Y021098D01*
X102008Y021060D02*
X101645Y021060D01*
X101645Y021021D02*
X102032Y021021D01*
X102056Y020983D02*
X101645Y020983D01*
X101645Y020944D02*
X102081Y020944D01*
X102105Y020906D02*
X101645Y020906D01*
X101645Y020867D02*
X102129Y020867D01*
X102154Y020829D02*
X101645Y020829D01*
X101645Y020790D02*
X102168Y020790D01*
X102180Y020752D02*
X101645Y020752D01*
X101645Y020713D02*
X102192Y020713D01*
X102204Y020675D02*
X101645Y020675D01*
X101645Y020636D02*
X102216Y020636D01*
X102228Y020598D02*
X101645Y020598D01*
X099205Y020193D02*
X099207Y020272D01*
X099213Y020350D01*
X099223Y020428D01*
X099237Y020506D01*
X099255Y020583D01*
X099276Y020659D01*
X099302Y020733D01*
X099331Y020806D01*
X099364Y020878D01*
X099400Y020948D01*
X099440Y021016D01*
X099484Y021081D01*
X099530Y021145D01*
X099580Y021206D01*
X099633Y021264D01*
X099689Y021320D01*
X099747Y021373D01*
X099808Y021423D01*
X099872Y021469D01*
X099937Y021513D01*
X100005Y021553D01*
X100075Y021589D01*
X100147Y021622D01*
X100220Y021651D01*
X100294Y021677D01*
X100370Y021698D01*
X100447Y021716D01*
X100525Y021730D01*
X100603Y021740D01*
X100681Y021746D01*
X100760Y021748D01*
X100839Y021746D01*
X100917Y021740D01*
X100995Y021730D01*
X101073Y021716D01*
X101150Y021698D01*
X101226Y021677D01*
X101300Y021651D01*
X101373Y021622D01*
X101445Y021589D01*
X101515Y021553D01*
X101583Y021513D01*
X101648Y021469D01*
X101712Y021423D01*
X101773Y021373D01*
X101831Y021320D01*
X101887Y021264D01*
X101940Y021206D01*
X101990Y021145D01*
X102036Y021081D01*
X102080Y021016D01*
X102120Y020948D01*
X102156Y020878D01*
X102189Y020806D01*
X102218Y020733D01*
X102244Y020659D01*
X102265Y020583D01*
X102283Y020506D01*
X102297Y020428D01*
X102307Y020350D01*
X102313Y020272D01*
X102315Y020193D01*
X102313Y020114D01*
X102307Y020036D01*
X102297Y019958D01*
X102283Y019880D01*
X102265Y019803D01*
X102244Y019727D01*
X102218Y019653D01*
X102189Y019580D01*
X102156Y019508D01*
X102120Y019438D01*
X102080Y019370D01*
X102036Y019305D01*
X101990Y019241D01*
X101940Y019180D01*
X101887Y019122D01*
X101831Y019066D01*
X101773Y019013D01*
X101712Y018963D01*
X101648Y018917D01*
X101583Y018873D01*
X101515Y018833D01*
X101445Y018797D01*
X101373Y018764D01*
X101300Y018735D01*
X101226Y018709D01*
X101150Y018688D01*
X101073Y018670D01*
X100995Y018656D01*
X100917Y018646D01*
X100839Y018640D01*
X100760Y018638D01*
X100681Y018640D01*
X100603Y018646D01*
X100525Y018656D01*
X100447Y018670D01*
X100370Y018688D01*
X100294Y018709D01*
X100220Y018735D01*
X100147Y018764D01*
X100075Y018797D01*
X100005Y018833D01*
X099937Y018873D01*
X099872Y018917D01*
X099808Y018963D01*
X099747Y019013D01*
X099689Y019066D01*
X099633Y019122D01*
X099580Y019180D01*
X099530Y019241D01*
X099484Y019305D01*
X099440Y019370D01*
X099400Y019438D01*
X099364Y019508D01*
X099331Y019580D01*
X099302Y019653D01*
X099276Y019727D01*
X099255Y019803D01*
X099237Y019880D01*
X099223Y019958D01*
X099213Y020036D01*
X099207Y020114D01*
X099205Y020193D01*
X099145Y019800D02*
X099145Y019485D01*
X100051Y018579D01*
X102374Y018579D01*
X102374Y019800D01*
X103979Y019939D02*
X104440Y019939D01*
X104286Y019786D01*
X104440Y019632D01*
X103979Y019632D01*
X104056Y019479D02*
X103979Y019402D01*
X103979Y019248D01*
X104056Y019172D01*
X104363Y019172D01*
X104440Y019248D01*
X104440Y019402D01*
X104363Y019479D01*
X104056Y019479D01*
X103979Y020093D02*
X104440Y020093D01*
X104440Y020399D01*
X104440Y020553D02*
X103979Y020553D01*
X103979Y020783D01*
X104056Y020860D01*
X104209Y020860D01*
X104286Y020783D01*
X104286Y020553D01*
X104286Y020706D02*
X104440Y020860D01*
X103979Y020399D02*
X103979Y020093D01*
X104209Y020093D02*
X104209Y020246D01*
X102276Y020547D02*
X102256Y020624D01*
X102233Y020699D01*
X102205Y020773D01*
X102174Y020845D01*
X102139Y020916D01*
X102101Y020985D01*
X102059Y021051D01*
X102014Y021116D01*
X101966Y021178D01*
X101914Y021238D01*
X101860Y021295D01*
X101803Y021349D01*
X101743Y021401D01*
X101681Y021449D01*
X101616Y021494D01*
X101549Y021535D01*
X101480Y021573D01*
X101409Y021608D01*
X101337Y021639D01*
X101263Y021667D01*
X101188Y021690D01*
X101112Y021710D01*
X101034Y021726D01*
X100956Y021738D01*
X100878Y021746D01*
X100799Y021750D01*
X100721Y021750D01*
X100642Y021746D01*
X100564Y021738D01*
X100486Y021726D01*
X100408Y021710D01*
X100332Y021690D01*
X100257Y021667D01*
X100183Y021639D01*
X100111Y021608D01*
X100040Y021573D01*
X099971Y021535D01*
X099904Y021494D01*
X099839Y021449D01*
X099777Y021401D01*
X099717Y021349D01*
X099660Y021295D01*
X099606Y021238D01*
X099554Y021178D01*
X099506Y021116D01*
X099461Y021051D01*
X099419Y020985D01*
X099381Y020916D01*
X099346Y020845D01*
X099315Y020773D01*
X099287Y020699D01*
X099264Y020624D01*
X099244Y020547D01*
X099145Y020902D02*
X099145Y019485D01*
X100051Y018579D01*
X102374Y018579D01*
X102374Y021807D01*
X102276Y019839D02*
X102256Y019762D01*
X102233Y019687D01*
X102205Y019613D01*
X102174Y019541D01*
X102139Y019470D01*
X102101Y019401D01*
X102059Y019335D01*
X102014Y019270D01*
X101966Y019208D01*
X101914Y019148D01*
X101860Y019091D01*
X101803Y019037D01*
X101743Y018985D01*
X101681Y018937D01*
X101616Y018892D01*
X101549Y018851D01*
X101480Y018813D01*
X101409Y018778D01*
X101337Y018747D01*
X101263Y018719D01*
X101188Y018696D01*
X101112Y018676D01*
X101034Y018660D01*
X100956Y018648D01*
X100878Y018640D01*
X100799Y018636D01*
X100721Y018636D01*
X100642Y018640D01*
X100564Y018648D01*
X100486Y018660D01*
X100408Y018676D01*
X100332Y018696D01*
X100257Y018719D01*
X100183Y018747D01*
X100111Y018778D01*
X100040Y018813D01*
X099971Y018851D01*
X099904Y018892D01*
X099839Y018937D01*
X099777Y018985D01*
X099717Y019037D01*
X099660Y019091D01*
X099606Y019148D01*
X099554Y019208D01*
X099506Y019270D01*
X099461Y019335D01*
X099419Y019401D01*
X099381Y019470D01*
X099346Y019541D01*
X099315Y019613D01*
X099287Y019687D01*
X099264Y019762D01*
X099244Y019839D01*
X103979Y018942D02*
X104056Y019018D01*
X104209Y019018D01*
X104286Y018942D01*
X104286Y018711D01*
X104440Y018711D02*
X103979Y018711D01*
X103979Y018942D01*
X103509Y016941D02*
X103509Y016634D01*
X103279Y016864D01*
X103740Y016864D01*
X103740Y016481D02*
X103740Y016174D01*
X103433Y016481D01*
X103356Y016481D01*
X103279Y016404D01*
X103279Y016250D01*
X103356Y016174D01*
X103509Y016020D02*
X103509Y015713D01*
X098940Y016174D02*
X098633Y016481D01*
X098556Y016481D01*
X098479Y016404D01*
X098479Y016250D01*
X098556Y016174D01*
X098709Y016020D02*
X098709Y015713D01*
X098556Y015867D02*
X098863Y015867D01*
X098940Y016174D02*
X098940Y016481D01*
X098709Y016634D02*
X098709Y016941D01*
X098479Y016864D02*
X098709Y016634D01*
X098940Y016864D02*
X098479Y016864D01*
X106229Y014022D02*
X106306Y014022D01*
X106459Y013869D01*
X106690Y013869D01*
X106459Y013869D02*
X106306Y013715D01*
X106229Y013715D01*
X106306Y013562D02*
X106229Y013485D01*
X106229Y013332D01*
X106306Y013255D01*
X106383Y013255D01*
X106459Y013332D01*
X106459Y013485D01*
X106536Y013562D01*
X106613Y013562D01*
X106690Y013485D01*
X106690Y013332D01*
X106613Y013255D01*
X106690Y013101D02*
X106229Y013101D01*
X106229Y012794D02*
X106690Y013101D01*
X106690Y012794D02*
X106229Y012794D01*
X106229Y012641D02*
X106229Y012334D01*
X106690Y012334D01*
X106690Y012641D01*
X106459Y012488D02*
X106459Y012334D01*
X106229Y012181D02*
X106229Y011874D01*
X106690Y011874D01*
X106690Y012181D01*
X106459Y012027D02*
X106459Y011874D01*
X106229Y011720D02*
X106229Y011413D01*
X106229Y011567D02*
X106690Y011567D01*
X103724Y011435D02*
X102818Y010529D01*
X102503Y010529D01*
X102818Y010529D02*
X101401Y010529D01*
X100495Y011435D01*
X100495Y013757D01*
X101716Y013757D01*
X101760Y013629D02*
X102466Y013629D01*
X102365Y013659D02*
X101854Y013659D01*
X101480Y013541D01*
X101106Y013305D01*
X100850Y013029D01*
X103350Y013029D01*
X103369Y013029D01*
X103094Y013324D01*
X102700Y013561D01*
X102365Y013659D01*
X102503Y013757D02*
X103724Y013757D01*
X103724Y011435D01*
X102818Y010529D01*
X101716Y010529D02*
X101401Y010529D01*
X100495Y011435D01*
X100495Y013757D01*
X103724Y013757D01*
X103724Y011435D01*
X100555Y012143D02*
X100557Y012222D01*
X100563Y012300D01*
X100573Y012378D01*
X100587Y012456D01*
X100605Y012533D01*
X100626Y012609D01*
X100652Y012683D01*
X100681Y012756D01*
X100714Y012828D01*
X100750Y012898D01*
X100790Y012966D01*
X100834Y013031D01*
X100880Y013095D01*
X100930Y013156D01*
X100983Y013214D01*
X101039Y013270D01*
X101097Y013323D01*
X101158Y013373D01*
X101222Y013419D01*
X101287Y013463D01*
X101355Y013503D01*
X101425Y013539D01*
X101497Y013572D01*
X101570Y013601D01*
X101644Y013627D01*
X101720Y013648D01*
X101797Y013666D01*
X101875Y013680D01*
X101953Y013690D01*
X102031Y013696D01*
X102110Y013698D01*
X102189Y013696D01*
X102267Y013690D01*
X102345Y013680D01*
X102423Y013666D01*
X102500Y013648D01*
X102576Y013627D01*
X102650Y013601D01*
X102723Y013572D01*
X102795Y013539D01*
X102865Y013503D01*
X102933Y013463D01*
X102998Y013419D01*
X103062Y013373D01*
X103123Y013323D01*
X103181Y013270D01*
X103237Y013214D01*
X103290Y013156D01*
X103340Y013095D01*
X103386Y013031D01*
X103430Y012966D01*
X103470Y012898D01*
X103506Y012828D01*
X103539Y012756D01*
X103568Y012683D01*
X103594Y012609D01*
X103615Y012533D01*
X103633Y012456D01*
X103647Y012378D01*
X103657Y012300D01*
X103663Y012222D01*
X103665Y012143D01*
X103663Y012064D01*
X103657Y011986D01*
X103647Y011908D01*
X103633Y011830D01*
X103615Y011753D01*
X103594Y011677D01*
X103568Y011603D01*
X103539Y011530D01*
X103506Y011458D01*
X103470Y011388D01*
X103430Y011320D01*
X103386Y011255D01*
X103340Y011191D01*
X103290Y011130D01*
X103237Y011072D01*
X103181Y011016D01*
X103123Y010963D01*
X103062Y010913D01*
X102998Y010867D01*
X102933Y010823D01*
X102865Y010783D01*
X102795Y010747D01*
X102723Y010714D01*
X102650Y010685D01*
X102576Y010659D01*
X102500Y010638D01*
X102423Y010620D01*
X102345Y010606D01*
X102267Y010596D01*
X102189Y010590D01*
X102110Y010588D01*
X102031Y010590D01*
X101953Y010596D01*
X101875Y010606D01*
X101797Y010620D01*
X101720Y010638D01*
X101644Y010659D01*
X101570Y010685D01*
X101497Y010714D01*
X101425Y010747D01*
X101355Y010783D01*
X101287Y010823D01*
X101222Y010867D01*
X101158Y010913D01*
X101097Y010963D01*
X101039Y011016D01*
X100983Y011072D01*
X100930Y011130D01*
X100880Y011191D01*
X100834Y011255D01*
X100790Y011320D01*
X100750Y011388D01*
X100714Y011458D01*
X100681Y011530D01*
X100652Y011603D01*
X100626Y011677D01*
X100605Y011753D01*
X100587Y011830D01*
X100573Y011908D01*
X100563Y011986D01*
X100557Y012064D01*
X100555Y012143D01*
X101756Y013659D02*
X101679Y013639D01*
X101604Y013616D01*
X101530Y013588D01*
X101458Y013557D01*
X101387Y013522D01*
X101318Y013484D01*
X101252Y013442D01*
X101187Y013397D01*
X101125Y013349D01*
X101065Y013297D01*
X101008Y013243D01*
X100954Y013186D01*
X100902Y013126D01*
X100854Y013064D01*
X100809Y012999D01*
X100768Y012932D01*
X100730Y012863D01*
X100695Y012792D01*
X100664Y012720D01*
X100636Y012646D01*
X100613Y012571D01*
X100593Y012495D01*
X100577Y012417D01*
X100565Y012339D01*
X100557Y012261D01*
X100553Y012182D01*
X100553Y012104D01*
X100557Y012025D01*
X100565Y011947D01*
X100577Y011869D01*
X100593Y011791D01*
X100613Y011715D01*
X100636Y011640D01*
X100664Y011566D01*
X100695Y011494D01*
X100730Y011423D01*
X100768Y011354D01*
X100809Y011287D01*
X100854Y011222D01*
X100902Y011160D01*
X100954Y011100D01*
X101008Y011043D01*
X101065Y010989D01*
X101125Y010937D01*
X101187Y010889D01*
X101252Y010844D01*
X101318Y010802D01*
X101387Y010764D01*
X101458Y010729D01*
X101530Y010698D01*
X101604Y010670D01*
X101679Y010647D01*
X101756Y010627D01*
X102464Y010627D02*
X102541Y010647D01*
X102616Y010670D01*
X102690Y010698D01*
X102762Y010729D01*
X102833Y010764D01*
X102902Y010802D01*
X102968Y010844D01*
X103033Y010889D01*
X103095Y010937D01*
X103155Y010989D01*
X103212Y011043D01*
X103266Y011100D01*
X103318Y011160D01*
X103366Y011222D01*
X103411Y011287D01*
X103452Y011354D01*
X103490Y011423D01*
X103525Y011494D01*
X103556Y011566D01*
X103584Y011640D01*
X103607Y011715D01*
X103627Y011791D01*
X103643Y011869D01*
X103655Y011947D01*
X103663Y012025D01*
X103667Y012104D01*
X103667Y012182D01*
X103663Y012261D01*
X103655Y012339D01*
X103643Y012417D01*
X103627Y012495D01*
X103607Y012571D01*
X103584Y012646D01*
X103556Y012720D01*
X103525Y012792D01*
X103490Y012863D01*
X103452Y012932D01*
X103411Y012999D01*
X103366Y013064D01*
X103318Y013126D01*
X103266Y013186D01*
X103212Y013243D01*
X103155Y013297D01*
X103095Y013349D01*
X103033Y013397D01*
X102968Y013442D01*
X102902Y013484D01*
X102833Y013522D01*
X102762Y013557D01*
X102690Y013588D01*
X102616Y013616D01*
X102541Y013639D01*
X102464Y013659D01*
X102597Y013591D02*
X101638Y013591D01*
X101516Y013552D02*
X102714Y013552D01*
X102778Y013514D02*
X101437Y013514D01*
X101376Y013475D02*
X102842Y013475D01*
X102906Y013437D02*
X101315Y013437D01*
X101254Y013398D02*
X102971Y013398D01*
X103035Y013360D02*
X101193Y013360D01*
X101132Y013321D02*
X103097Y013321D01*
X103133Y013283D02*
X101085Y013283D01*
X101050Y013244D02*
X103169Y013244D01*
X103204Y013206D02*
X101014Y013206D01*
X100978Y013167D02*
X103240Y013167D01*
X103276Y013129D02*
X100942Y013129D01*
X100907Y013090D02*
X103312Y013090D01*
X103348Y013052D02*
X100871Y013052D01*
X100830Y013009D02*
X103389Y013009D01*
X119379Y017913D02*
X119840Y017913D01*
X119840Y018220D01*
X119763Y018374D02*
X119840Y018450D01*
X119840Y018604D01*
X119763Y018681D01*
X119840Y018834D02*
X119379Y018834D01*
X119379Y019064D01*
X119456Y019141D01*
X119763Y019141D01*
X119840Y019064D01*
X119840Y018834D01*
X119456Y018681D02*
X119379Y018604D01*
X119379Y018450D01*
X119456Y018374D01*
X119763Y018374D01*
X126379Y012564D02*
X126379Y012411D01*
X126456Y012334D01*
X126533Y012334D01*
X126609Y012411D01*
X126609Y012564D01*
X126686Y012641D01*
X126763Y012641D01*
X126840Y012564D01*
X126840Y012411D01*
X126763Y012334D01*
X126763Y012181D02*
X126456Y012181D01*
X126379Y012104D01*
X126379Y011874D01*
X126840Y011874D01*
X126840Y012104D01*
X126763Y012181D01*
X126379Y012564D02*
X126456Y012641D01*
X126456Y011720D02*
X126379Y011644D01*
X126379Y011413D01*
X126840Y011413D01*
X126840Y011644D01*
X126763Y011720D01*
X126456Y011720D01*
X089807Y023867D02*
X089654Y023713D01*
X089500Y023867D01*
X089500Y024174D01*
X089347Y024174D02*
X089040Y024174D01*
X089040Y023944D01*
X089193Y024020D01*
X089270Y024020D01*
X089347Y023944D01*
X089347Y023790D01*
X089270Y023713D01*
X089117Y023713D01*
X089040Y023790D01*
X088886Y023944D02*
X088580Y023944D01*
X088733Y024097D02*
X088733Y023790D01*
X089807Y023867D02*
X089807Y024174D01*
X057976Y015174D02*
X057976Y014713D01*
X057669Y015174D01*
X057669Y014713D01*
X057516Y014790D02*
X057516Y015097D01*
X057439Y015174D01*
X057285Y015174D01*
X057209Y015097D01*
X057209Y014790D01*
X057285Y014713D01*
X057439Y014713D01*
X057516Y014790D01*
X057055Y014713D02*
X057055Y015174D01*
X056902Y015020D01*
X056748Y015174D01*
X056748Y014713D01*
X046640Y018044D02*
X046486Y017891D01*
X046179Y017891D01*
X046179Y018197D02*
X046486Y018197D01*
X046640Y018044D01*
X046563Y018351D02*
X046640Y018428D01*
X046640Y018581D01*
X046563Y018658D01*
X046563Y018811D02*
X046640Y018888D01*
X046640Y019042D01*
X046563Y019118D01*
X046256Y019118D01*
X046179Y019042D01*
X046179Y018888D01*
X046256Y018811D01*
X046563Y018811D01*
X046256Y018658D02*
X046179Y018581D01*
X046179Y018428D01*
X046256Y018351D01*
X046563Y018351D01*
X046409Y019272D02*
X046409Y019579D01*
X046333Y019732D02*
X046179Y019886D01*
X046640Y019886D01*
X046640Y020039D02*
X046640Y019732D01*
X046563Y020193D02*
X046640Y020269D01*
X046640Y020423D01*
X046563Y020499D01*
X046409Y020499D01*
X046333Y020423D01*
X046333Y020346D01*
X046409Y020193D01*
X046179Y020193D01*
X046179Y020499D01*
X046256Y020653D02*
X046179Y020730D01*
X046179Y020883D01*
X046256Y020960D01*
X046563Y020653D01*
X046640Y020730D01*
X046640Y020883D01*
X046563Y020960D01*
X046256Y020960D01*
X046256Y020653D02*
X046563Y020653D01*
X076080Y009944D02*
X076386Y009944D01*
X076540Y009944D02*
X076693Y010020D01*
X076770Y010020D01*
X076847Y009944D01*
X076847Y009790D01*
X076770Y009713D01*
X076617Y009713D01*
X076540Y009790D01*
X076540Y009944D02*
X076540Y010174D01*
X076847Y010174D01*
X077000Y010174D02*
X077000Y009867D01*
X077154Y009713D01*
X077307Y009867D01*
X077307Y010174D01*
X053376Y009424D02*
X053069Y009424D01*
X053069Y008963D01*
X052916Y008963D02*
X052762Y009117D01*
X052839Y009117D02*
X052609Y009117D01*
X052609Y008963D02*
X052609Y009424D01*
X052839Y009424D01*
X052916Y009347D01*
X052916Y009194D01*
X052839Y009117D01*
X053069Y009194D02*
X053223Y009194D01*
X052455Y008887D02*
X052148Y008887D01*
X051995Y008963D02*
X051688Y009424D01*
X051534Y009424D02*
X051534Y009040D01*
X051458Y008963D01*
X051304Y008963D01*
X051228Y009040D01*
X051228Y009424D01*
X051074Y009270D02*
X051074Y008963D01*
X051074Y009194D02*
X050767Y009194D01*
X050767Y009270D02*
X050921Y009424D01*
X051074Y009270D01*
X050767Y009270D02*
X050767Y008963D01*
X051688Y008963D02*
X051995Y009424D01*
D14*
X051860Y009793D02*
X051860Y010643D01*
X051660Y010393D01*
X052060Y010393D01*
X051860Y010643D01*
X036426Y012953D02*
X036428Y012982D01*
X036434Y013011D01*
X036443Y013039D01*
X036456Y013065D01*
X036472Y013089D01*
X036492Y013111D01*
X036514Y013131D01*
X036538Y013147D01*
X036564Y013160D01*
X036592Y013169D01*
X036621Y013175D01*
X036650Y013177D01*
X036679Y013175D01*
X036708Y013169D01*
X036736Y013160D01*
X036762Y013147D01*
X036786Y013131D01*
X036808Y013111D01*
X036828Y013089D01*
X036844Y013065D01*
X036857Y013039D01*
X036866Y013011D01*
X036872Y012982D01*
X036874Y012953D01*
X036872Y012924D01*
X036866Y012895D01*
X036857Y012867D01*
X036844Y012841D01*
X036828Y012817D01*
X036808Y012795D01*
X036786Y012775D01*
X036762Y012759D01*
X036736Y012746D01*
X036708Y012737D01*
X036679Y012731D01*
X036650Y012729D01*
X036621Y012731D01*
X036592Y012737D01*
X036564Y012746D01*
X036538Y012759D01*
X036514Y012775D01*
X036492Y012795D01*
X036472Y012817D01*
X036456Y012841D01*
X036443Y012867D01*
X036434Y012895D01*
X036428Y012924D01*
X036426Y012953D01*
X036350Y012653D02*
X034850Y012653D01*
X034850Y010853D01*
X036350Y010853D01*
X036350Y012653D01*
X036110Y013343D02*
X036210Y013443D01*
X035960Y013443D01*
X036060Y013343D01*
X036110Y013343D01*
X036110Y013443D01*
X036108Y013482D01*
X036102Y013521D01*
X036093Y013559D01*
X036080Y013596D01*
X036063Y013632D01*
X036043Y013665D01*
X036019Y013697D01*
X035993Y013726D01*
X035964Y013752D01*
X035932Y013776D01*
X035899Y013796D01*
X035863Y013813D01*
X035826Y013826D01*
X035788Y013835D01*
X035749Y013841D01*
X035710Y013843D01*
X032640Y011353D02*
X032642Y011387D01*
X032648Y011421D01*
X032657Y011454D01*
X032671Y011485D01*
X032688Y011515D01*
X032708Y011543D01*
X032731Y011568D01*
X032757Y011591D01*
X032785Y011610D01*
X032815Y011626D01*
X032847Y011638D01*
X032880Y011647D01*
X032914Y011652D01*
X032949Y011653D01*
X032983Y011650D01*
X033016Y011643D01*
X033049Y011633D01*
X033080Y011618D01*
X033109Y011601D01*
X033136Y011580D01*
X033161Y011556D01*
X033183Y011529D01*
X033201Y011501D01*
X033216Y011470D01*
X033228Y011438D01*
X033236Y011404D01*
X033240Y011370D01*
X033240Y011336D01*
X033236Y011302D01*
X033228Y011268D01*
X033216Y011236D01*
X033201Y011205D01*
X033183Y011177D01*
X033161Y011150D01*
X033136Y011126D01*
X033109Y011105D01*
X033080Y011088D01*
X033049Y011073D01*
X033016Y011063D01*
X032983Y011056D01*
X032949Y011053D01*
X032914Y011054D01*
X032880Y011059D01*
X032847Y011068D01*
X032815Y011080D01*
X032785Y011096D01*
X032757Y011115D01*
X032731Y011138D01*
X032708Y011163D01*
X032688Y011191D01*
X032671Y011221D01*
X032657Y011252D01*
X032648Y011285D01*
X032642Y011319D01*
X032640Y011353D01*
X020910Y014993D02*
X018560Y014993D01*
X018560Y016743D01*
X020910Y016743D01*
X020910Y014993D01*
X046560Y021093D02*
X046560Y022843D01*
X048960Y022843D01*
X048960Y021393D01*
X054710Y020843D02*
X054710Y020593D01*
X054960Y020593D01*
X054710Y020843D01*
X054960Y020843D02*
X054710Y020593D01*
X054960Y020843D02*
X055410Y020843D01*
X051010Y018043D02*
X050510Y018543D01*
X050210Y018543D01*
X050760Y018043D02*
X051010Y018293D01*
X051010Y018043D01*
X050760Y018043D01*
X075760Y012993D02*
X078060Y012993D01*
X078060Y010443D01*
X075760Y010443D01*
X075760Y012993D01*
X089660Y011493D02*
X092060Y011493D01*
X092060Y009393D01*
X089660Y009393D01*
X089660Y011493D01*
X091360Y009093D02*
X091660Y009093D01*
X099360Y014693D02*
X099360Y018293D01*
X102860Y018293D01*
X102860Y014693D01*
X099360Y014693D01*
X091060Y016693D02*
X091060Y019293D01*
X087660Y019293D01*
X087660Y016693D01*
X091060Y016693D01*
X090460Y016193D02*
X090060Y016193D01*
X090260Y016393D02*
X090260Y015993D01*
X103160Y017493D02*
X103260Y017493D01*
X103360Y017593D01*
X103360Y017493D01*
X103260Y017393D01*
X103160Y017493D01*
X103360Y017693D01*
X103360Y017593D01*
X103360Y017493D02*
X103360Y017293D01*
X103260Y017393D01*
X103260Y017493D02*
X103560Y017493D01*
X104160Y018093D01*
X104160Y018393D01*
X091060Y020893D02*
X087660Y020893D01*
X087660Y023493D01*
X091060Y023493D01*
X091060Y020893D01*
X089260Y027393D02*
X089660Y027793D01*
X089660Y028093D01*
X089760Y027993D01*
X089560Y027993D01*
X089660Y028093D01*
X084760Y028193D02*
X084760Y028793D01*
X072960Y028793D01*
X072960Y028193D01*
X068260Y028193D02*
X068260Y028793D01*
X055660Y028793D01*
X055660Y028093D01*
X044860Y028093D02*
X044860Y028743D01*
X033010Y028743D01*
X033010Y028093D01*
X027960Y028193D02*
X027960Y028843D01*
X015460Y028843D01*
X015460Y028193D01*
D15*
X023375Y019881D02*
X025264Y019881D01*
X025264Y019684D01*
X023375Y019684D01*
X023375Y019881D01*
X023375Y019684D02*
X023375Y018385D01*
X025264Y018385D01*
X025264Y019684D01*
X049115Y024195D02*
X051004Y024195D01*
X051004Y025494D01*
X049115Y025494D01*
X049115Y025691D01*
X051004Y025691D01*
X051004Y025494D01*
X049115Y025494D02*
X049115Y024195D01*
X066760Y020893D02*
X066760Y018393D01*
X071260Y018393D01*
X071260Y020893D01*
X066760Y020893D01*
X082676Y021499D02*
X082676Y017488D01*
X086630Y017488D01*
X086630Y021499D01*
X082676Y021499D01*
X086671Y021503D02*
X086833Y021503D01*
X086832Y021503D02*
X087012Y020823D01*
X087012Y018163D01*
X086832Y017483D01*
X086671Y017483D01*
X086671Y021503D01*
X086671Y017483D01*
X086832Y017483D01*
X087012Y018163D01*
X087012Y020823D01*
X086832Y021503D01*
X086671Y021503D01*
X086832Y021503D01*
X086853Y021424D02*
X086671Y021424D01*
X086671Y021346D02*
X086874Y021346D01*
X086895Y021267D02*
X086671Y021267D01*
X086671Y021189D02*
X086916Y021189D01*
X086936Y021110D02*
X086671Y021110D01*
X086671Y021032D02*
X086957Y021032D01*
X086978Y020953D02*
X086671Y020953D01*
X086671Y020875D02*
X086999Y020875D01*
X087012Y020796D02*
X086671Y020796D01*
X086671Y020718D02*
X087012Y020718D01*
X087012Y020639D02*
X086671Y020639D01*
X086671Y020561D02*
X087012Y020561D01*
X087012Y020482D02*
X086671Y020482D01*
X086671Y020404D02*
X087012Y020404D01*
X087012Y020325D02*
X086671Y020325D01*
X086671Y020247D02*
X087012Y020247D01*
X087012Y020168D02*
X086671Y020168D01*
X086671Y020090D02*
X087012Y020090D01*
X087012Y020011D02*
X086671Y020011D01*
X086671Y019933D02*
X087012Y019933D01*
X087012Y019854D02*
X086671Y019854D01*
X086671Y019776D02*
X087012Y019776D01*
X087012Y019697D02*
X086671Y019697D01*
X086671Y019619D02*
X087012Y019619D01*
X087012Y019540D02*
X086671Y019540D01*
X086671Y019462D02*
X087012Y019462D01*
X087012Y019383D02*
X086671Y019383D01*
X086671Y019305D02*
X087012Y019305D01*
X087012Y019226D02*
X086671Y019226D01*
X086671Y019148D02*
X087012Y019148D01*
X087012Y019069D02*
X086671Y019069D01*
X086671Y018991D02*
X087012Y018991D01*
X087012Y018912D02*
X086671Y018912D01*
X086671Y018834D02*
X087012Y018834D01*
X087012Y018755D02*
X086671Y018755D01*
X086671Y018677D02*
X087012Y018677D01*
X087012Y018598D02*
X086671Y018598D01*
X086671Y018520D02*
X087012Y018520D01*
X087012Y018441D02*
X086671Y018441D01*
X086671Y018363D02*
X087012Y018363D01*
X087012Y018284D02*
X086671Y018284D01*
X086671Y018206D02*
X087012Y018206D01*
X087003Y018127D02*
X086671Y018127D01*
X086671Y018049D02*
X086982Y018049D01*
X086961Y017970D02*
X086671Y017970D01*
X086671Y017892D02*
X086941Y017892D01*
X086920Y017813D02*
X086671Y017813D01*
X086671Y017735D02*
X086899Y017735D01*
X086878Y017656D02*
X086671Y017656D01*
X086671Y017578D02*
X086857Y017578D01*
X086837Y017499D02*
X086671Y017499D01*
X091607Y017499D02*
X091948Y017499D01*
X091948Y017421D02*
X091607Y017421D01*
X091607Y017342D02*
X091948Y017342D01*
X091948Y017264D02*
X091607Y017264D01*
X091607Y017185D02*
X091948Y017185D01*
X091948Y017107D02*
X091607Y017107D01*
X091607Y017063D02*
X091607Y019723D01*
X091787Y020403D01*
X091948Y020403D01*
X091948Y016383D01*
X091948Y020403D01*
X091787Y020403D01*
X091607Y019723D01*
X091607Y017063D01*
X091787Y016383D01*
X091607Y017063D01*
X091616Y017028D02*
X091948Y017028D01*
X091948Y016950D02*
X091637Y016950D01*
X091657Y016871D02*
X091948Y016871D01*
X091948Y016793D02*
X091678Y016793D01*
X091699Y016714D02*
X091948Y016714D01*
X091948Y016636D02*
X091720Y016636D01*
X091741Y016557D02*
X091948Y016557D01*
X091948Y016479D02*
X091761Y016479D01*
X091782Y016400D02*
X091948Y016400D01*
X091948Y016383D02*
X091787Y016383D01*
X091948Y016383D01*
X091989Y016388D02*
X091989Y020399D01*
X095943Y020399D01*
X095943Y016388D01*
X091989Y016388D01*
X091948Y017578D02*
X091607Y017578D01*
X091607Y017656D02*
X091948Y017656D01*
X091948Y017735D02*
X091607Y017735D01*
X091607Y017813D02*
X091948Y017813D01*
X091948Y017892D02*
X091607Y017892D01*
X091607Y017970D02*
X091948Y017970D01*
X091948Y018049D02*
X091607Y018049D01*
X091607Y018127D02*
X091948Y018127D01*
X091948Y018206D02*
X091607Y018206D01*
X091607Y018284D02*
X091948Y018284D01*
X091948Y018363D02*
X091607Y018363D01*
X091607Y018441D02*
X091948Y018441D01*
X091948Y018520D02*
X091607Y018520D01*
X091607Y018598D02*
X091948Y018598D01*
X091948Y018677D02*
X091607Y018677D01*
X091607Y018755D02*
X091948Y018755D01*
X091948Y018834D02*
X091607Y018834D01*
X091607Y018912D02*
X091948Y018912D01*
X091948Y018991D02*
X091607Y018991D01*
X091607Y019069D02*
X091948Y019069D01*
X091948Y019148D02*
X091607Y019148D01*
X091607Y019226D02*
X091948Y019226D01*
X091948Y019305D02*
X091607Y019305D01*
X091607Y019383D02*
X091948Y019383D01*
X091948Y019462D02*
X091607Y019462D01*
X091607Y019540D02*
X091948Y019540D01*
X091948Y019619D02*
X091607Y019619D01*
X091607Y019697D02*
X091948Y019697D01*
X091948Y019776D02*
X091621Y019776D01*
X091641Y019854D02*
X091948Y019854D01*
X091948Y019933D02*
X091662Y019933D01*
X091683Y020011D02*
X091948Y020011D01*
X091948Y020090D02*
X091704Y020090D01*
X091724Y020168D02*
X091948Y020168D01*
X091948Y020247D02*
X091745Y020247D01*
X091766Y020325D02*
X091948Y020325D01*
X107460Y015893D02*
X121460Y015893D01*
X121460Y008893D01*
X107460Y008893D01*
X107460Y011893D01*
X107960Y011893D01*
X107960Y012893D01*
X107460Y012893D01*
X107460Y015893D01*
X107460Y014993D02*
X120560Y014993D01*
X120560Y015893D01*
X120560Y014993D02*
X120560Y009793D01*
X120560Y008893D01*
X120560Y009793D02*
X107460Y009793D01*
X099462Y011163D02*
X099282Y010483D01*
X099121Y010483D01*
X099121Y014503D01*
X099121Y010483D01*
X099282Y010483D01*
X099462Y011163D01*
X099462Y013823D01*
X099282Y014503D01*
X099121Y014503D01*
X099282Y014503D01*
X099462Y013823D01*
X099462Y011163D01*
X099456Y011141D02*
X099121Y011141D01*
X099121Y011219D02*
X099462Y011219D01*
X099462Y011298D02*
X099121Y011298D01*
X099121Y011376D02*
X099462Y011376D01*
X099462Y011455D02*
X099121Y011455D01*
X099121Y011533D02*
X099462Y011533D01*
X099462Y011612D02*
X099121Y011612D01*
X099121Y011690D02*
X099462Y011690D01*
X099462Y011769D02*
X099121Y011769D01*
X099121Y011847D02*
X099462Y011847D01*
X099462Y011926D02*
X099121Y011926D01*
X099121Y012004D02*
X099462Y012004D01*
X099462Y012083D02*
X099121Y012083D01*
X099121Y012161D02*
X099462Y012161D01*
X099462Y012240D02*
X099121Y012240D01*
X099121Y012318D02*
X099462Y012318D01*
X099462Y012397D02*
X099121Y012397D01*
X099121Y012475D02*
X099462Y012475D01*
X099462Y012554D02*
X099121Y012554D01*
X099121Y012632D02*
X099462Y012632D01*
X099462Y012711D02*
X099121Y012711D01*
X099121Y012789D02*
X099462Y012789D01*
X099462Y012868D02*
X099121Y012868D01*
X099121Y012946D02*
X099462Y012946D01*
X099462Y013025D02*
X099121Y013025D01*
X099121Y013103D02*
X099462Y013103D01*
X099462Y013182D02*
X099121Y013182D01*
X099121Y013260D02*
X099462Y013260D01*
X099462Y013339D02*
X099121Y013339D01*
X099121Y013417D02*
X099462Y013417D01*
X099462Y013496D02*
X099121Y013496D01*
X099121Y013574D02*
X099462Y013574D01*
X099462Y013653D02*
X099121Y013653D01*
X099121Y013731D02*
X099462Y013731D01*
X099462Y013810D02*
X099121Y013810D01*
X099121Y013888D02*
X099445Y013888D01*
X099424Y013967D02*
X099121Y013967D01*
X099121Y014045D02*
X099404Y014045D01*
X099383Y014124D02*
X099121Y014124D01*
X099121Y014202D02*
X099362Y014202D01*
X099341Y014281D02*
X099121Y014281D01*
X099121Y014359D02*
X099321Y014359D01*
X099300Y014438D02*
X099121Y014438D01*
X099080Y014499D02*
X099080Y010488D01*
X095126Y010488D01*
X095126Y014499D01*
X099080Y014499D01*
X099121Y011062D02*
X099436Y011062D01*
X099415Y010984D02*
X099121Y010984D01*
X099121Y010905D02*
X099394Y010905D01*
X099373Y010827D02*
X099121Y010827D01*
X099121Y010748D02*
X099353Y010748D01*
X099332Y010670D02*
X099121Y010670D01*
X099121Y010591D02*
X099311Y010591D01*
X099290Y010513D02*
X099121Y010513D01*
X086043Y010488D02*
X082089Y010488D01*
X082089Y014499D01*
X086043Y014499D01*
X086043Y010488D01*
X082048Y010483D02*
X082048Y014503D01*
X082048Y010483D01*
X081887Y010483D01*
X081707Y011163D01*
X081707Y013823D01*
X081887Y014503D01*
X082048Y014503D01*
X081887Y014503D01*
X081707Y013823D01*
X081707Y011163D01*
X081887Y010483D01*
X082048Y010483D01*
X082048Y010513D02*
X081879Y010513D01*
X081858Y010591D02*
X082048Y010591D01*
X082048Y010670D02*
X081837Y010670D01*
X081816Y010748D02*
X082048Y010748D01*
X082048Y010827D02*
X081796Y010827D01*
X081775Y010905D02*
X082048Y010905D01*
X082048Y010984D02*
X081754Y010984D01*
X081733Y011062D02*
X082048Y011062D01*
X082048Y011141D02*
X081713Y011141D01*
X081707Y011219D02*
X082048Y011219D01*
X082048Y011298D02*
X081707Y011298D01*
X081707Y011376D02*
X082048Y011376D01*
X082048Y011455D02*
X081707Y011455D01*
X081707Y011533D02*
X082048Y011533D01*
X082048Y011612D02*
X081707Y011612D01*
X081707Y011690D02*
X082048Y011690D01*
X082048Y011769D02*
X081707Y011769D01*
X081707Y011847D02*
X082048Y011847D01*
X082048Y011926D02*
X081707Y011926D01*
X081707Y012004D02*
X082048Y012004D01*
X082048Y012083D02*
X081707Y012083D01*
X081707Y012161D02*
X082048Y012161D01*
X082048Y012240D02*
X081707Y012240D01*
X081707Y012318D02*
X082048Y012318D01*
X082048Y012397D02*
X081707Y012397D01*
X081707Y012475D02*
X082048Y012475D01*
X082048Y012554D02*
X081707Y012554D01*
X081707Y012632D02*
X082048Y012632D01*
X082048Y012711D02*
X081707Y012711D01*
X081707Y012789D02*
X082048Y012789D01*
X082048Y012868D02*
X081707Y012868D01*
X081707Y012946D02*
X082048Y012946D01*
X082048Y013025D02*
X081707Y013025D01*
X081707Y013103D02*
X082048Y013103D01*
X082048Y013182D02*
X081707Y013182D01*
X081707Y013260D02*
X082048Y013260D01*
X082048Y013339D02*
X081707Y013339D01*
X081707Y013417D02*
X082048Y013417D01*
X082048Y013496D02*
X081707Y013496D01*
X081707Y013574D02*
X082048Y013574D01*
X082048Y013653D02*
X081707Y013653D01*
X081707Y013731D02*
X082048Y013731D01*
X082048Y013810D02*
X081707Y013810D01*
X081724Y013888D02*
X082048Y013888D01*
X082048Y013967D02*
X081745Y013967D01*
X081765Y014045D02*
X082048Y014045D01*
X082048Y014124D02*
X081786Y014124D01*
X081807Y014202D02*
X082048Y014202D01*
X082048Y014281D02*
X081828Y014281D01*
X081848Y014359D02*
X082048Y014359D01*
X082048Y014438D02*
X081869Y014438D01*
X089508Y028242D02*
X089508Y029344D01*
X090611Y029344D01*
X090611Y028242D01*
X089508Y028242D01*
X089626Y029108D02*
X089863Y029108D01*
X089861Y029128D01*
X089856Y029148D01*
X089847Y029167D01*
X089835Y029184D01*
X089821Y029198D01*
X089804Y029210D01*
X089785Y029219D01*
X089765Y029224D01*
X089745Y029226D01*
X089725Y029224D01*
X089705Y029219D01*
X089686Y029210D01*
X089669Y029198D01*
X089655Y029184D01*
X089643Y029167D01*
X089634Y029148D01*
X089629Y029128D01*
X089627Y029108D01*
D16*
X089610Y023193D02*
X089860Y022943D01*
X089860Y022443D01*
X089610Y022193D01*
X089860Y021943D01*
X089860Y021443D01*
X089610Y021193D01*
X089110Y021193D01*
X088860Y021443D01*
X088860Y021943D01*
X089110Y022193D01*
X088860Y022443D01*
X088860Y022943D01*
X089110Y023193D01*
X089610Y023193D01*
X089610Y022193D02*
X089110Y022193D01*
X089210Y018993D02*
X089710Y018993D01*
X089960Y018743D01*
X089960Y018243D01*
X089710Y017993D01*
X089960Y017743D01*
X089960Y017243D01*
X089710Y016993D01*
X089210Y016993D01*
X088960Y017243D01*
X088960Y017743D01*
X089210Y017993D01*
X088960Y018243D01*
X088960Y018743D01*
X089210Y018993D01*
X089210Y017993D02*
X089710Y017993D01*
X081060Y015643D02*
X080810Y015893D01*
X080310Y015893D01*
X080060Y015643D01*
X079810Y015893D01*
X079310Y015893D01*
X079060Y015643D01*
X079060Y015143D01*
X079310Y014893D01*
X079810Y014893D01*
X080060Y015143D01*
X080060Y015643D01*
X080060Y015143D02*
X080310Y014893D01*
X080810Y014893D01*
X081060Y015143D01*
X081060Y015643D01*
X077060Y012443D02*
X076810Y012693D01*
X076310Y012693D01*
X076060Y012443D01*
X076060Y011943D01*
X076310Y011693D01*
X076810Y011693D01*
X077060Y011943D01*
X077060Y012443D01*
X076810Y011693D02*
X077060Y011443D01*
X077060Y010943D01*
X076810Y010693D01*
X076310Y010693D01*
X076060Y010943D01*
X076060Y011443D01*
X076310Y011693D01*
X074978Y010953D02*
X074978Y010916D01*
X074978Y010953D02*
X074978Y009833D01*
X074978Y009870D01*
X074978Y009833D02*
X074341Y009833D01*
X074341Y009870D01*
X074341Y009833D02*
X074341Y010953D01*
X074341Y010916D01*
X074341Y010953D02*
X074978Y010953D01*
X074978Y010599D02*
X074978Y010188D01*
X074341Y010188D02*
X074341Y010225D01*
X074341Y010562D02*
X074341Y010599D01*
X089860Y010543D02*
X089860Y010043D01*
X090110Y009793D01*
X090610Y009793D01*
X090860Y010043D01*
X090860Y010543D01*
X090610Y010793D01*
X090110Y010793D01*
X089860Y010543D01*
X090860Y010543D02*
X091110Y010793D01*
X091610Y010793D01*
X091860Y010543D01*
X091860Y010043D01*
X091610Y009793D01*
X091110Y009793D01*
X090860Y010043D01*
X099610Y016293D02*
X099860Y016043D01*
X100360Y016043D01*
X100610Y016293D01*
X100610Y016793D01*
X100360Y017043D01*
X099860Y017043D01*
X099610Y016793D01*
X099610Y016293D01*
X100610Y016293D02*
X100860Y016043D01*
X101360Y016043D01*
X101610Y016293D01*
X101610Y016793D01*
X101360Y017043D01*
X100860Y017043D01*
X100610Y016793D01*
X101610Y016793D02*
X101860Y017043D01*
X102360Y017043D01*
X102610Y016793D01*
X102610Y016293D01*
X102360Y016043D01*
X101860Y016043D01*
X101610Y016293D01*
X111960Y016593D02*
X112460Y016593D01*
X112460Y016493D01*
X112960Y016493D01*
X112960Y016593D01*
X115210Y016593D01*
X115210Y016493D01*
X115710Y016493D01*
X115710Y016593D01*
X117960Y016593D01*
X117960Y016493D01*
X118460Y016493D01*
X118460Y016593D01*
X118960Y016593D01*
X118960Y020093D01*
X117260Y020093D01*
X117260Y020043D01*
X116660Y020043D01*
X116660Y020093D01*
X116710Y019893D01*
X117160Y019893D01*
X117160Y019693D01*
X117160Y019593D01*
X118460Y019593D01*
X118460Y017093D01*
X112460Y017093D01*
X112460Y019593D01*
X112760Y019593D01*
X114160Y019593D01*
X114160Y019693D01*
X114160Y019893D01*
X113960Y019893D01*
X112960Y019893D01*
X112760Y019893D01*
X112760Y019693D01*
X112760Y019593D01*
X112960Y019893D02*
X113110Y020093D01*
X114660Y020093D01*
X114660Y019693D01*
X114660Y019593D01*
X114160Y019593D01*
X113960Y019893D02*
X113810Y020093D01*
X111960Y020093D01*
X111960Y016593D01*
X114660Y019293D02*
X114660Y019593D01*
X114660Y019293D02*
X116260Y019293D01*
X116260Y019593D01*
X116260Y019693D01*
X116260Y019893D01*
X116260Y020093D01*
X116660Y020093D01*
X116710Y019893D02*
X116260Y019893D01*
X116260Y020093D02*
X114660Y020093D01*
X116260Y019593D02*
X117160Y019593D01*
X122410Y019993D02*
X122410Y018293D01*
X122460Y018293D01*
X122460Y017693D01*
X122410Y017693D01*
X122410Y017143D01*
X122610Y016993D01*
X122610Y016793D01*
X122610Y016193D01*
X122610Y015993D01*
X122410Y015843D01*
X122410Y015293D01*
X122810Y015293D01*
X122910Y015293D01*
X122910Y016193D01*
X122910Y016793D01*
X122910Y019493D01*
X125410Y019493D01*
X125410Y009493D01*
X122910Y009493D01*
X122910Y011193D01*
X122910Y011793D01*
X122910Y013693D01*
X122810Y013693D01*
X122410Y013693D01*
X122410Y015293D01*
X122910Y015293D02*
X123210Y015293D01*
X123210Y013693D01*
X122910Y013693D01*
X122410Y013693D02*
X122410Y012143D01*
X122610Y011993D01*
X122610Y011793D01*
X122610Y011193D01*
X122810Y011193D01*
X122910Y011193D01*
X122610Y011193D02*
X122610Y010993D01*
X122410Y010843D01*
X122410Y008993D01*
X125910Y008993D01*
X125910Y009493D01*
X126010Y009493D01*
X126010Y009993D01*
X125910Y009993D01*
X125910Y014243D01*
X126010Y014243D01*
X126010Y014743D01*
X125910Y014743D01*
X125910Y018993D01*
X126010Y018993D01*
X126010Y019493D01*
X125910Y019493D01*
X125910Y019993D01*
X122410Y019993D01*
X122610Y016793D02*
X122810Y016793D01*
X122910Y016793D01*
X122910Y016193D02*
X122810Y016193D01*
X122610Y016193D01*
X122610Y011793D02*
X122810Y011793D01*
X122910Y011793D01*
X076678Y019783D02*
X076678Y019820D01*
X076678Y019783D02*
X076678Y020903D01*
X076678Y020866D01*
X076678Y020903D02*
X076041Y020903D01*
X076041Y020866D01*
X076041Y020903D02*
X076041Y019783D01*
X076041Y019820D01*
X076041Y019783D02*
X076678Y019783D01*
X076678Y020138D02*
X076678Y020549D01*
X076041Y020549D02*
X076041Y020512D01*
X076041Y020175D02*
X076041Y020138D01*
X075094Y019874D02*
X075094Y020512D01*
X075057Y020512D01*
X075094Y020512D02*
X073975Y020512D01*
X074012Y020512D01*
X073975Y020512D02*
X073975Y019874D01*
X074012Y019874D01*
X073975Y019874D02*
X075094Y019874D01*
X075057Y019874D01*
X074740Y019874D02*
X074329Y019874D01*
X074329Y020512D02*
X074366Y020512D01*
X074703Y020512D02*
X074740Y020512D01*
X074704Y021974D02*
X075115Y021974D01*
X075432Y021974D02*
X075469Y021974D01*
X074350Y021974D01*
X074387Y021974D01*
X074350Y021974D02*
X074350Y022612D01*
X074387Y022612D01*
X074350Y022612D02*
X075469Y022612D01*
X075432Y022612D01*
X075469Y022612D02*
X075469Y021974D01*
X075115Y022612D02*
X075078Y022612D01*
X074741Y022612D02*
X074704Y022612D01*
X048760Y022243D02*
X048760Y021743D01*
X048510Y021493D01*
X048010Y021493D01*
X047760Y021743D01*
X047510Y021493D01*
X047010Y021493D01*
X046760Y021743D01*
X046760Y022243D01*
X047010Y022493D01*
X047510Y022493D01*
X047760Y022243D01*
X048010Y022493D01*
X048510Y022493D01*
X048760Y022243D01*
X047760Y022243D02*
X047760Y021743D01*
X020720Y016133D02*
X020720Y015633D01*
X020470Y015383D01*
X019970Y015383D01*
X019720Y015633D01*
X019470Y015383D01*
X018970Y015383D01*
X018720Y015633D01*
X018720Y016133D01*
X018970Y016383D01*
X019470Y016383D01*
X019720Y016133D01*
X019970Y016383D01*
X020470Y016383D01*
X020720Y016133D01*
X019720Y016133D02*
X019720Y015633D01*
X023860Y013152D02*
X023897Y013152D01*
X023860Y013152D02*
X024979Y013152D01*
X024942Y013152D01*
X024979Y013152D02*
X024979Y012514D01*
X024942Y012514D01*
X024979Y012514D02*
X023860Y012514D01*
X023897Y012514D01*
X023860Y012514D02*
X023860Y013152D01*
X024214Y013152D02*
X024625Y013152D01*
X024625Y012514D02*
X024588Y012514D01*
X024251Y012514D02*
X024214Y012514D01*
X012360Y018043D02*
X011770Y018043D01*
X011770Y019083D01*
X012070Y019383D01*
X012020Y019443D01*
X011990Y019473D01*
X011970Y019513D01*
X011970Y020743D01*
X011570Y020743D01*
X011560Y020793D01*
X012360Y020793D01*
X008860Y020793D01*
X008860Y021073D01*
X009440Y021073D01*
X009450Y020973D01*
X009490Y020893D01*
X009550Y020833D01*
X009640Y020793D01*
X009770Y020803D01*
X009860Y020853D01*
X009910Y020933D01*
X009990Y020933D01*
X010060Y020963D01*
X010130Y021003D01*
X010200Y021013D01*
X010250Y020973D01*
X010300Y020903D01*
X010340Y020853D01*
X010390Y020803D01*
X010490Y020793D01*
X010570Y020813D01*
X010670Y021013D01*
X010720Y021103D01*
X010740Y021143D01*
X010760Y021093D01*
X010780Y021013D01*
X010810Y020953D01*
X010860Y020883D01*
X010910Y020823D01*
X010990Y020783D01*
X011080Y020793D01*
X011150Y020883D01*
X011220Y020983D01*
X011260Y021023D01*
X011290Y021023D01*
X011360Y020993D01*
X011400Y020973D01*
X011480Y020953D01*
X011540Y020943D01*
X011550Y020933D01*
X011590Y020873D01*
X011640Y020833D01*
X011710Y020803D01*
X011770Y020793D01*
X011870Y020813D01*
X011960Y020883D01*
X012000Y020973D01*
X012020Y021083D01*
X012360Y021083D01*
X012360Y020793D01*
X012360Y018043D01*
X012360Y018046D02*
X011770Y018046D01*
X011800Y018046D02*
X011160Y018046D01*
X010000Y018046D01*
X010000Y018043D02*
X010000Y020793D01*
X010920Y020793D01*
X010920Y020673D01*
X010830Y020703D01*
X010710Y020723D01*
X010600Y020713D01*
X010460Y020673D01*
X010360Y020613D01*
X010240Y020523D01*
X010150Y020433D01*
X010080Y020293D01*
X010050Y020153D01*
X010040Y020023D01*
X010080Y019873D01*
X010120Y019753D01*
X010190Y019643D01*
X010310Y019523D01*
X010390Y019463D01*
X010530Y019393D01*
X010680Y019363D01*
X010820Y019383D01*
X010940Y019413D01*
X010950Y018813D01*
X010970Y018653D01*
X011030Y018503D01*
X011160Y018353D01*
X011160Y018043D01*
X011800Y018043D01*
X011800Y019083D01*
X011740Y019103D01*
X011650Y019203D01*
X011580Y019293D01*
X011560Y019413D01*
X011560Y020793D01*
X010930Y020793D01*
X010930Y020713D01*
X010920Y020743D01*
X011370Y020743D01*
X011370Y018793D01*
X011380Y018743D01*
X011420Y018683D01*
X011470Y018633D01*
X011170Y018333D01*
X011160Y018043D01*
X010000Y018043D01*
X009990Y018043D02*
X009990Y020793D01*
X009710Y020793D01*
X008860Y020793D01*
X008860Y018043D01*
X009680Y018043D01*
X009680Y018343D01*
X009380Y018653D01*
X009450Y018743D01*
X009470Y018833D01*
X009490Y019003D01*
X009490Y020743D01*
X009710Y020743D01*
X009710Y020793D01*
X009710Y020743D01*
X009910Y020743D01*
X009910Y018923D01*
X009890Y018673D01*
X009840Y018533D01*
X009770Y018433D01*
X009670Y018323D01*
X009670Y018043D01*
X009990Y018043D01*
X009990Y018046D02*
X009670Y018046D01*
X009680Y018046D02*
X008860Y018046D01*
X008860Y018104D02*
X009680Y018104D01*
X009670Y018104D02*
X009990Y018104D01*
X010000Y018104D02*
X011160Y018104D01*
X011162Y018104D02*
X011800Y018104D01*
X011770Y018104D02*
X012360Y018104D01*
X012360Y018163D02*
X011770Y018163D01*
X011800Y018163D02*
X011164Y018163D01*
X011160Y018163D02*
X010000Y018163D01*
X009990Y018163D02*
X009670Y018163D01*
X009680Y018163D02*
X008860Y018163D01*
X008860Y018221D02*
X009680Y018221D01*
X009670Y018221D02*
X009990Y018221D01*
X010000Y018221D02*
X011160Y018221D01*
X011166Y018221D02*
X011800Y018221D01*
X011770Y018221D02*
X012360Y018221D01*
X012360Y018280D02*
X011770Y018280D01*
X011800Y018280D02*
X011168Y018280D01*
X011160Y018280D02*
X010000Y018280D01*
X009990Y018280D02*
X009670Y018280D01*
X009680Y018280D02*
X008860Y018280D01*
X008860Y018338D02*
X009680Y018338D01*
X009683Y018338D02*
X009990Y018338D01*
X010000Y018338D02*
X011160Y018338D01*
X011175Y018338D02*
X011800Y018338D01*
X011770Y018338D02*
X012360Y018338D01*
X012360Y018397D02*
X011770Y018397D01*
X011800Y018397D02*
X011233Y018397D01*
X011292Y018455D02*
X011800Y018455D01*
X011770Y018455D02*
X012360Y018455D01*
X012360Y018514D02*
X011770Y018514D01*
X011800Y018514D02*
X011350Y018514D01*
X011409Y018572D02*
X011800Y018572D01*
X011770Y018572D02*
X012360Y018572D01*
X012360Y018631D02*
X011770Y018631D01*
X011800Y018631D02*
X011467Y018631D01*
X011415Y018689D02*
X011800Y018689D01*
X011770Y018689D02*
X012360Y018689D01*
X012360Y018748D02*
X011770Y018748D01*
X011800Y018748D02*
X011379Y018748D01*
X011370Y018806D02*
X011800Y018806D01*
X011770Y018806D02*
X012360Y018806D01*
X012360Y018865D02*
X011770Y018865D01*
X011800Y018865D02*
X011370Y018865D01*
X011370Y018923D02*
X011800Y018923D01*
X011770Y018923D02*
X012360Y018923D01*
X012360Y018982D02*
X011770Y018982D01*
X011800Y018982D02*
X011370Y018982D01*
X011370Y019040D02*
X011800Y019040D01*
X011770Y019040D02*
X012360Y019040D01*
X012360Y019099D02*
X011785Y019099D01*
X011753Y019099D02*
X011370Y019099D01*
X011370Y019157D02*
X011691Y019157D01*
X011640Y019216D02*
X011370Y019216D01*
X011370Y019274D02*
X011594Y019274D01*
X011573Y019333D02*
X011370Y019333D01*
X011370Y019391D02*
X011563Y019391D01*
X011560Y019450D02*
X011370Y019450D01*
X011370Y019508D02*
X011560Y019508D01*
X011560Y019567D02*
X011370Y019567D01*
X011370Y019625D02*
X011560Y019625D01*
X011560Y019684D02*
X011370Y019684D01*
X011370Y019742D02*
X011560Y019742D01*
X011560Y019801D02*
X011370Y019801D01*
X011370Y019859D02*
X011560Y019859D01*
X011560Y019918D02*
X011370Y019918D01*
X011370Y019976D02*
X011560Y019976D01*
X011560Y020035D02*
X011370Y020035D01*
X011370Y020093D02*
X011560Y020093D01*
X011560Y020152D02*
X011370Y020152D01*
X011370Y020210D02*
X011560Y020210D01*
X011560Y020269D02*
X011370Y020269D01*
X011370Y020327D02*
X011560Y020327D01*
X011560Y020386D02*
X011370Y020386D01*
X011370Y020444D02*
X011560Y020444D01*
X011560Y020503D02*
X011370Y020503D01*
X011370Y020561D02*
X011560Y020561D01*
X011560Y020620D02*
X011370Y020620D01*
X011370Y020678D02*
X011560Y020678D01*
X011560Y020737D02*
X011370Y020737D01*
X011409Y020971D02*
X011211Y020971D01*
X011170Y020912D02*
X011563Y020912D01*
X011614Y020854D02*
X011127Y020854D01*
X011081Y020795D02*
X011757Y020795D01*
X011780Y020795D02*
X012360Y020795D01*
X012360Y020737D02*
X011970Y020737D01*
X011970Y020678D02*
X012360Y020678D01*
X012360Y020620D02*
X011970Y020620D01*
X011970Y020561D02*
X012360Y020561D01*
X012360Y020503D02*
X011970Y020503D01*
X011970Y020444D02*
X012360Y020444D01*
X012360Y020386D02*
X011970Y020386D01*
X011970Y020327D02*
X012360Y020327D01*
X012360Y020269D02*
X011970Y020269D01*
X011970Y020210D02*
X012360Y020210D01*
X012360Y020152D02*
X011970Y020152D01*
X011970Y020093D02*
X012360Y020093D01*
X012360Y020035D02*
X011970Y020035D01*
X011970Y019976D02*
X012360Y019976D01*
X012360Y019918D02*
X011970Y019918D01*
X011970Y019859D02*
X012360Y019859D01*
X012360Y019801D02*
X011970Y019801D01*
X011970Y019742D02*
X012360Y019742D01*
X012360Y019684D02*
X011970Y019684D01*
X011970Y019625D02*
X012360Y019625D01*
X012360Y019567D02*
X011970Y019567D01*
X011972Y019508D02*
X012360Y019508D01*
X012360Y019450D02*
X012013Y019450D01*
X012063Y019391D02*
X012360Y019391D01*
X012360Y019333D02*
X012019Y019333D01*
X011961Y019274D02*
X012360Y019274D01*
X012360Y019216D02*
X011902Y019216D01*
X011844Y019157D02*
X012360Y019157D01*
X010944Y019157D02*
X010000Y019157D01*
X009990Y019157D02*
X009910Y019157D01*
X009910Y019099D02*
X009990Y019099D01*
X010000Y019099D02*
X010945Y019099D01*
X010946Y019040D02*
X010000Y019040D01*
X009990Y019040D02*
X009910Y019040D01*
X009910Y018982D02*
X009990Y018982D01*
X010000Y018982D02*
X010947Y018982D01*
X010948Y018923D02*
X010000Y018923D01*
X009990Y018923D02*
X009910Y018923D01*
X009905Y018865D02*
X009990Y018865D01*
X010000Y018865D02*
X010949Y018865D01*
X010950Y018806D02*
X010000Y018806D01*
X009990Y018806D02*
X009900Y018806D01*
X009895Y018748D02*
X009990Y018748D01*
X010000Y018748D02*
X010958Y018748D01*
X010965Y018689D02*
X010000Y018689D01*
X009990Y018689D02*
X009891Y018689D01*
X009874Y018631D02*
X009990Y018631D01*
X010000Y018631D02*
X010978Y018631D01*
X011002Y018572D02*
X010000Y018572D01*
X009990Y018572D02*
X009853Y018572D01*
X009826Y018514D02*
X009990Y018514D01*
X010000Y018514D02*
X011025Y018514D01*
X011071Y018455D02*
X010000Y018455D01*
X009990Y018455D02*
X009785Y018455D01*
X009736Y018397D02*
X009990Y018397D01*
X010000Y018397D02*
X011122Y018397D01*
X009628Y018397D02*
X008860Y018397D01*
X008860Y018455D02*
X009571Y018455D01*
X009514Y018514D02*
X008860Y018514D01*
X008860Y018572D02*
X009458Y018572D01*
X009401Y018631D02*
X008860Y018631D01*
X008860Y018689D02*
X009408Y018689D01*
X009451Y018748D02*
X008860Y018748D01*
X008860Y018806D02*
X009464Y018806D01*
X009473Y018865D02*
X008860Y018865D01*
X008860Y018923D02*
X009480Y018923D01*
X009487Y018982D02*
X008860Y018982D01*
X008860Y019040D02*
X009490Y019040D01*
X009490Y019099D02*
X008860Y019099D01*
X008860Y019157D02*
X009490Y019157D01*
X009490Y019216D02*
X008860Y019216D01*
X008860Y019274D02*
X009490Y019274D01*
X009490Y019333D02*
X008860Y019333D01*
X008860Y019391D02*
X009490Y019391D01*
X009490Y019450D02*
X008860Y019450D01*
X008860Y019508D02*
X009490Y019508D01*
X009490Y019567D02*
X008860Y019567D01*
X008860Y019625D02*
X009490Y019625D01*
X009490Y019684D02*
X008860Y019684D01*
X008860Y019742D02*
X009490Y019742D01*
X009490Y019801D02*
X008860Y019801D01*
X008860Y019859D02*
X009490Y019859D01*
X009490Y019918D02*
X008860Y019918D01*
X008860Y019976D02*
X009490Y019976D01*
X009490Y020035D02*
X008860Y020035D01*
X008860Y020093D02*
X009490Y020093D01*
X009490Y020152D02*
X008860Y020152D01*
X008860Y020210D02*
X009490Y020210D01*
X009490Y020269D02*
X008860Y020269D01*
X008860Y020327D02*
X009490Y020327D01*
X009490Y020386D02*
X008860Y020386D01*
X008860Y020444D02*
X009490Y020444D01*
X009490Y020503D02*
X008860Y020503D01*
X008860Y020561D02*
X009490Y020561D01*
X009490Y020620D02*
X008860Y020620D01*
X008860Y020678D02*
X009490Y020678D01*
X009490Y020737D02*
X008860Y020737D01*
X008860Y020795D02*
X009635Y020795D01*
X009666Y020795D02*
X010469Y020795D01*
X010498Y020795D02*
X010965Y020795D01*
X010930Y020737D02*
X010922Y020737D01*
X010920Y020737D02*
X010000Y020737D01*
X009990Y020737D02*
X009910Y020737D01*
X009910Y020678D02*
X009990Y020678D01*
X010000Y020678D02*
X010477Y020678D01*
X010370Y020620D02*
X010000Y020620D01*
X009990Y020620D02*
X009910Y020620D01*
X009910Y020561D02*
X009990Y020561D01*
X010000Y020561D02*
X010290Y020561D01*
X010219Y020503D02*
X010000Y020503D01*
X009990Y020503D02*
X009910Y020503D01*
X009910Y020444D02*
X009990Y020444D01*
X010000Y020444D02*
X010161Y020444D01*
X010126Y020386D02*
X010000Y020386D01*
X009990Y020386D02*
X009910Y020386D01*
X009910Y020327D02*
X009990Y020327D01*
X010000Y020327D02*
X010097Y020327D01*
X010074Y020269D02*
X010000Y020269D01*
X009990Y020269D02*
X009910Y020269D01*
X009910Y020210D02*
X009990Y020210D01*
X010000Y020210D02*
X010062Y020210D01*
X010049Y020152D02*
X010000Y020152D01*
X009990Y020152D02*
X009910Y020152D01*
X009910Y020093D02*
X009990Y020093D01*
X010000Y020093D02*
X010045Y020093D01*
X010040Y020035D02*
X010000Y020035D01*
X009990Y020035D02*
X009910Y020035D01*
X009910Y019976D02*
X009990Y019976D01*
X010000Y019976D02*
X010052Y019976D01*
X010068Y019918D02*
X010000Y019918D01*
X009990Y019918D02*
X009910Y019918D01*
X009910Y019859D02*
X009990Y019859D01*
X010000Y019859D02*
X010084Y019859D01*
X010104Y019801D02*
X010000Y019801D01*
X009990Y019801D02*
X009910Y019801D01*
X009910Y019742D02*
X009990Y019742D01*
X010000Y019742D02*
X010126Y019742D01*
X010164Y019684D02*
X010000Y019684D01*
X009990Y019684D02*
X009910Y019684D01*
X009910Y019625D02*
X009990Y019625D01*
X010000Y019625D02*
X010207Y019625D01*
X010266Y019567D02*
X010000Y019567D01*
X009990Y019567D02*
X009910Y019567D01*
X009910Y019508D02*
X009990Y019508D01*
X010000Y019508D02*
X010329Y019508D01*
X010416Y019450D02*
X010000Y019450D01*
X009990Y019450D02*
X009910Y019450D01*
X009910Y019391D02*
X009990Y019391D01*
X010000Y019391D02*
X010539Y019391D01*
X010852Y019391D02*
X010940Y019391D01*
X010941Y019333D02*
X010000Y019333D01*
X009990Y019333D02*
X009910Y019333D01*
X009910Y019274D02*
X009990Y019274D01*
X010000Y019274D02*
X010942Y019274D01*
X010943Y019216D02*
X010000Y019216D01*
X009990Y019216D02*
X009910Y019216D01*
X010411Y020033D02*
X010413Y020065D01*
X010419Y020096D01*
X010428Y020127D01*
X010442Y020156D01*
X010459Y020183D01*
X010479Y020207D01*
X010501Y020230D01*
X010527Y020249D01*
X010555Y020265D01*
X010584Y020277D01*
X010615Y020286D01*
X010646Y020291D01*
X010678Y020292D01*
X010710Y020289D01*
X010741Y020282D01*
X010771Y020272D01*
X010799Y020257D01*
X010826Y020240D01*
X010850Y020219D01*
X010872Y020195D01*
X010890Y020169D01*
X010905Y020141D01*
X010917Y020112D01*
X010925Y020081D01*
X010929Y020049D01*
X010929Y020017D01*
X010925Y019985D01*
X010917Y019954D01*
X010905Y019925D01*
X010890Y019897D01*
X010872Y019871D01*
X010850Y019847D01*
X010826Y019826D01*
X010800Y019809D01*
X010771Y019794D01*
X010741Y019784D01*
X010710Y019777D01*
X010678Y019774D01*
X010646Y019775D01*
X010615Y019780D01*
X010584Y019789D01*
X010555Y019801D01*
X010527Y019817D01*
X010501Y019836D01*
X010479Y019859D01*
X010459Y019883D01*
X010442Y019910D01*
X010428Y019939D01*
X010419Y019970D01*
X010413Y020001D01*
X010411Y020033D01*
X010638Y020043D02*
X010640Y020052D01*
X010645Y020059D01*
X010653Y020064D01*
X010662Y020065D01*
X010671Y020062D01*
X010678Y020056D01*
X010682Y020048D01*
X010682Y020038D01*
X010678Y020030D01*
X010671Y020024D01*
X010662Y020021D01*
X010653Y020022D01*
X010645Y020027D01*
X010640Y020034D01*
X010638Y020043D01*
X010616Y020043D02*
X010618Y020057D01*
X010623Y020070D01*
X010632Y020081D01*
X010643Y020090D01*
X010656Y020095D01*
X010670Y020097D01*
X010684Y020095D01*
X010697Y020090D01*
X010708Y020081D01*
X010717Y020070D01*
X010722Y020057D01*
X010724Y020043D01*
X010722Y020029D01*
X010717Y020016D01*
X010708Y020005D01*
X010697Y019996D01*
X010684Y019991D01*
X010670Y019989D01*
X010656Y019991D01*
X010643Y019996D01*
X010632Y020005D01*
X010623Y020016D01*
X010618Y020029D01*
X010616Y020043D01*
X010461Y020043D02*
X010463Y020071D01*
X010469Y020099D01*
X010478Y020126D01*
X010491Y020152D01*
X010508Y020175D01*
X010527Y020196D01*
X010549Y020214D01*
X010574Y020229D01*
X010600Y020240D01*
X010627Y020248D01*
X010656Y020252D01*
X010684Y020252D01*
X010713Y020248D01*
X010740Y020240D01*
X010766Y020229D01*
X010791Y020214D01*
X010813Y020196D01*
X010832Y020175D01*
X010849Y020152D01*
X010862Y020126D01*
X010871Y020099D01*
X010877Y020071D01*
X010879Y020043D01*
X010877Y020015D01*
X010871Y019987D01*
X010862Y019960D01*
X010849Y019934D01*
X010832Y019911D01*
X010813Y019890D01*
X010791Y019872D01*
X010766Y019857D01*
X010740Y019846D01*
X010713Y019838D01*
X010684Y019834D01*
X010656Y019834D01*
X010627Y019838D01*
X010600Y019846D01*
X010574Y019857D01*
X010549Y019872D01*
X010527Y019890D01*
X010508Y019911D01*
X010491Y019934D01*
X010478Y019960D01*
X010469Y019987D01*
X010463Y020015D01*
X010461Y020043D01*
X010578Y020043D02*
X010580Y020063D01*
X010586Y020082D01*
X010595Y020100D01*
X010608Y020115D01*
X010623Y020128D01*
X010641Y020137D01*
X010660Y020143D01*
X010680Y020145D01*
X010700Y020143D01*
X010719Y020137D01*
X010737Y020128D01*
X010752Y020115D01*
X010765Y020100D01*
X010774Y020082D01*
X010780Y020063D01*
X010782Y020043D01*
X010780Y020023D01*
X010774Y020004D01*
X010765Y019986D01*
X010752Y019971D01*
X010737Y019958D01*
X010719Y019949D01*
X010700Y019943D01*
X010680Y019941D01*
X010660Y019943D01*
X010641Y019949D01*
X010623Y019958D01*
X010608Y019971D01*
X010595Y019986D01*
X010586Y020004D01*
X010580Y020023D01*
X010578Y020043D01*
X010522Y020043D02*
X010524Y020068D01*
X010530Y020092D01*
X010539Y020115D01*
X010552Y020136D01*
X010568Y020155D01*
X010587Y020171D01*
X010608Y020184D01*
X010631Y020193D01*
X010655Y020199D01*
X010680Y020201D01*
X010705Y020199D01*
X010729Y020193D01*
X010752Y020184D01*
X010773Y020171D01*
X010792Y020155D01*
X010808Y020136D01*
X010821Y020115D01*
X010830Y020092D01*
X010836Y020068D01*
X010838Y020043D01*
X010836Y020018D01*
X010830Y019994D01*
X010821Y019971D01*
X010808Y019950D01*
X010792Y019931D01*
X010773Y019915D01*
X010752Y019902D01*
X010729Y019893D01*
X010705Y019887D01*
X010680Y019885D01*
X010655Y019887D01*
X010631Y019893D01*
X010608Y019902D01*
X010587Y019915D01*
X010568Y019931D01*
X010552Y019950D01*
X010539Y019971D01*
X010530Y019994D01*
X010524Y020018D01*
X010522Y020043D01*
X010904Y020678D02*
X010920Y020678D01*
X010884Y020854D02*
X010590Y020854D01*
X010619Y020912D02*
X010839Y020912D01*
X010801Y020971D02*
X010648Y020971D01*
X010678Y021029D02*
X010776Y021029D01*
X010761Y021088D02*
X010711Y021088D01*
X010580Y021203D02*
X010620Y021263D01*
X009789Y021263D01*
X009790Y021263D02*
X009840Y021233D01*
X009880Y021193D01*
X009910Y021143D01*
X009920Y021113D01*
X009960Y021113D01*
X010010Y021133D01*
X010070Y021163D01*
X010120Y021183D01*
X010180Y021203D01*
X010220Y021203D01*
X010270Y021183D01*
X010310Y021153D01*
X010360Y021113D01*
X010400Y021063D01*
X010420Y021023D01*
X010450Y020983D01*
X010490Y021043D01*
X010540Y021143D01*
X010580Y021203D01*
X010581Y021205D02*
X009868Y021205D01*
X009908Y021146D02*
X010036Y021146D01*
X010073Y020971D02*
X010251Y020971D01*
X010293Y020912D02*
X009896Y020912D01*
X009860Y020854D02*
X010339Y020854D01*
X010416Y021029D02*
X010480Y021029D01*
X010512Y021088D02*
X010380Y021088D01*
X010318Y021146D02*
X010542Y021146D01*
X010620Y021263D02*
X010660Y021313D01*
X010690Y021333D01*
X010740Y021343D01*
X010770Y021333D01*
X010800Y021313D01*
X010840Y021263D01*
X010880Y021203D01*
X010900Y021143D01*
X010920Y021103D01*
X010940Y021053D01*
X010960Y021013D01*
X010980Y020983D01*
X011000Y020963D01*
X011030Y020983D01*
X011070Y021043D01*
X011100Y021093D01*
X011140Y021143D01*
X011190Y021193D01*
X011250Y021203D01*
X011320Y021203D01*
X011380Y021183D01*
X011410Y021163D01*
X011450Y021133D01*
X011490Y021113D01*
X011530Y021113D01*
X011570Y021183D01*
X011630Y021243D01*
X011690Y021273D01*
X011740Y021283D01*
X011800Y021283D01*
X011860Y021263D01*
X011910Y021233D01*
X011950Y021193D01*
X011980Y021153D01*
X012000Y021103D01*
X012010Y021053D01*
X012360Y021053D01*
X012360Y021543D01*
X008860Y021543D01*
X008860Y021053D01*
X009450Y021033D01*
X009450Y021113D01*
X009510Y021193D01*
X009570Y021253D01*
X009640Y021273D01*
X009720Y021273D01*
X009790Y021263D01*
X009605Y021263D02*
X008860Y021263D01*
X008860Y021205D02*
X009521Y021205D01*
X009474Y021146D02*
X008860Y021146D01*
X008860Y021088D02*
X009450Y021088D01*
X009444Y021029D02*
X008860Y021029D01*
X008860Y020971D02*
X009451Y020971D01*
X009480Y020912D02*
X008860Y020912D01*
X008860Y020854D02*
X009529Y020854D01*
X010878Y021205D02*
X011591Y021205D01*
X011548Y021146D02*
X011432Y021146D01*
X011670Y021263D02*
X010839Y021263D01*
X010787Y021322D02*
X012360Y021322D01*
X012360Y021380D02*
X008860Y021380D01*
X008860Y021322D02*
X010672Y021322D01*
X010898Y021146D02*
X011143Y021146D01*
X011096Y021088D02*
X010926Y021088D01*
X010951Y021029D02*
X011060Y021029D01*
X011011Y020971D02*
X010992Y020971D01*
X011859Y021263D02*
X012360Y021263D01*
X012360Y021205D02*
X011938Y021205D01*
X011982Y021146D02*
X012360Y021146D01*
X012360Y021088D02*
X012003Y021088D01*
X012010Y021029D02*
X012360Y021029D01*
X012360Y020971D02*
X011998Y020971D01*
X011972Y020912D02*
X012360Y020912D01*
X012360Y020854D02*
X011922Y020854D01*
X012360Y021439D02*
X008860Y021439D01*
X008860Y021497D02*
X012360Y021497D01*
D17*
X019220Y015883D03*
X020220Y015883D03*
X047260Y021993D03*
X048260Y021993D03*
X079560Y015393D03*
X080560Y015393D03*
X089460Y017493D03*
X089460Y018493D03*
X100110Y016543D03*
X101110Y016543D03*
X102110Y016543D03*
X113960Y017843D03*
X114960Y017843D03*
X115960Y017843D03*
X116960Y017843D03*
X116960Y018843D03*
X115960Y018843D03*
X114960Y018843D03*
X113960Y018843D03*
X123660Y017993D03*
X124660Y017993D03*
X124660Y016993D03*
X123660Y016993D03*
X123660Y015993D03*
X124660Y015993D03*
X124660Y014993D03*
X123660Y014993D03*
X123660Y013993D03*
X124660Y013993D03*
X124660Y012993D03*
X123660Y012993D03*
X123660Y011993D03*
X124660Y011993D03*
X124660Y010993D03*
X123660Y010993D03*
X091360Y010293D03*
X090360Y010293D03*
X076560Y011193D03*
X076560Y012193D03*
X089360Y021693D03*
X089360Y022693D03*
D18*
X090554Y022659D02*
X090734Y022659D01*
X090825Y022750D01*
X090734Y022840D01*
X090554Y022840D01*
X090554Y022563D02*
X090554Y022383D01*
X090689Y022383D01*
X090644Y022473D01*
X090644Y022518D01*
X090689Y022563D01*
X090779Y022563D01*
X090825Y022518D01*
X090825Y022428D01*
X090779Y022383D01*
X090870Y022287D02*
X090870Y022107D01*
X090825Y022011D02*
X090554Y021831D01*
X090554Y021735D02*
X090779Y021735D01*
X090825Y021690D01*
X090825Y021600D01*
X090779Y021555D01*
X090554Y021555D01*
X090644Y021458D02*
X090825Y021458D01*
X090689Y021458D02*
X090689Y021278D01*
X090644Y021278D02*
X090554Y021368D01*
X090644Y021458D01*
X090644Y021278D02*
X090825Y021278D01*
X090825Y021831D02*
X090554Y022011D01*
X071259Y025626D02*
X070889Y025626D01*
X070889Y025811D01*
X070951Y025873D01*
X071074Y025873D01*
X071136Y025811D01*
X071136Y025626D01*
X071136Y025749D02*
X071259Y025873D01*
X071259Y025994D02*
X071013Y026241D01*
X070951Y026241D01*
X070889Y026179D01*
X070889Y026056D01*
X070951Y025994D01*
X071259Y025994D02*
X071259Y026241D01*
X071259Y026362D02*
X071259Y026609D01*
X071259Y026486D02*
X070889Y026486D01*
X071013Y026362D01*
X045513Y021399D02*
X045333Y021399D01*
X045333Y021128D01*
X045513Y021128D01*
X045423Y021263D02*
X045333Y021263D01*
X045237Y021128D02*
X045237Y021399D01*
X045057Y021399D02*
X045237Y021128D01*
X045057Y021128D02*
X045057Y021399D01*
X044961Y021399D02*
X044961Y021173D01*
X044916Y021128D01*
X044826Y021128D01*
X044781Y021173D01*
X044781Y021399D01*
X044685Y021399D02*
X044504Y021399D01*
X044594Y021399D02*
X044594Y021128D01*
X044408Y021083D02*
X044228Y021083D01*
X044132Y021173D02*
X044132Y021353D01*
X044087Y021399D01*
X043997Y021399D01*
X043952Y021353D01*
X043952Y021173D01*
X043997Y021128D01*
X044087Y021128D01*
X044132Y021173D01*
X043856Y021173D02*
X043811Y021128D01*
X043721Y021128D01*
X043676Y021173D01*
X043676Y021353D01*
X043721Y021399D01*
X043811Y021399D01*
X043856Y021353D01*
X043580Y021399D02*
X043580Y021218D01*
X043490Y021128D01*
X043399Y021218D01*
X043399Y021399D01*
X043303Y021083D02*
X043123Y021083D01*
X043027Y021128D02*
X042847Y021399D01*
X042751Y021399D02*
X042751Y021173D01*
X042706Y021128D01*
X042616Y021128D01*
X042571Y021173D01*
X042571Y021399D01*
X042475Y021308D02*
X042475Y021128D01*
X042475Y021263D02*
X042295Y021263D01*
X042295Y021308D02*
X042385Y021399D01*
X042475Y021308D01*
X042295Y021308D02*
X042295Y021128D01*
X042847Y021128D02*
X043027Y021399D01*
X021368Y017299D02*
X021368Y017028D01*
X021188Y017299D01*
X021188Y017028D01*
X021092Y017028D02*
X020912Y017028D01*
X020912Y017299D01*
X021092Y017299D01*
X021002Y017163D02*
X020912Y017163D01*
X020816Y017299D02*
X020636Y017299D01*
X020726Y017299D02*
X020726Y017028D01*
X020450Y017028D02*
X020450Y017299D01*
X020360Y017299D02*
X020540Y017299D01*
X020263Y017208D02*
X020173Y017299D01*
X020083Y017208D01*
X020083Y017028D01*
X019987Y016983D02*
X019807Y016983D01*
X019711Y017028D02*
X019531Y017299D01*
X019435Y017299D02*
X019435Y017073D01*
X019390Y017028D01*
X019300Y017028D01*
X019255Y017073D01*
X019255Y017299D01*
X019159Y017208D02*
X019068Y017299D01*
X018978Y017208D01*
X018978Y017028D01*
X018978Y017163D02*
X019159Y017163D01*
X019159Y017208D02*
X019159Y017028D01*
X019531Y017028D02*
X019711Y017299D01*
X020083Y017163D02*
X020263Y017163D01*
X020263Y017208D02*
X020263Y017028D01*
X013130Y025086D02*
X012759Y025086D01*
X012759Y025271D01*
X012821Y025333D01*
X012944Y025333D01*
X013006Y025271D01*
X013006Y025086D01*
X013006Y025209D02*
X013130Y025333D01*
X013130Y025454D02*
X013130Y025701D01*
X013130Y025822D02*
X013068Y025822D01*
X012821Y026069D01*
X012759Y026069D01*
X012759Y025822D01*
X012759Y025578D02*
X013130Y025578D01*
X012883Y025454D02*
X012759Y025578D01*
X078354Y012828D02*
X078625Y012828D01*
X078625Y012738D02*
X078625Y012918D01*
X078444Y012738D02*
X078354Y012828D01*
X078399Y012642D02*
X078354Y012597D01*
X078354Y012507D01*
X078399Y012462D01*
X078579Y012462D01*
X078625Y012507D01*
X078625Y012597D01*
X078579Y012642D01*
X078489Y012642D01*
X078489Y012552D01*
X078354Y012366D02*
X078354Y012186D01*
X078625Y012186D01*
X078625Y012366D01*
X078489Y012276D02*
X078489Y012186D01*
X078354Y012090D02*
X078625Y012090D01*
X078354Y011909D01*
X078625Y011909D01*
X078534Y011813D02*
X078354Y011813D01*
X078354Y011633D02*
X078534Y011633D01*
X078625Y011723D01*
X078534Y011813D01*
X078670Y011537D02*
X078670Y011357D01*
X078625Y011261D02*
X078354Y011081D01*
X078354Y010985D02*
X078579Y010985D01*
X078625Y010940D01*
X078625Y010850D01*
X078579Y010805D01*
X078354Y010805D01*
X078444Y010708D02*
X078354Y010618D01*
X078444Y010528D01*
X078625Y010528D01*
X078489Y010528D02*
X078489Y010708D01*
X078444Y010708D02*
X078625Y010708D01*
X078625Y011081D02*
X078354Y011261D01*
X080394Y011742D02*
X080484Y011832D01*
X080665Y011832D01*
X080619Y011928D02*
X080665Y011973D01*
X080665Y012064D01*
X080619Y012109D01*
X080394Y012109D01*
X080394Y012205D02*
X080665Y012385D01*
X080710Y012481D02*
X080710Y012661D01*
X080574Y012757D02*
X080665Y012847D01*
X080574Y012937D01*
X080394Y012937D01*
X080394Y013033D02*
X080394Y013168D01*
X080439Y013214D01*
X080529Y013214D01*
X080574Y013168D01*
X080574Y013033D01*
X080665Y013033D02*
X080394Y013033D01*
X080394Y012757D02*
X080574Y012757D01*
X080394Y012385D02*
X080665Y012205D01*
X080619Y011928D02*
X080394Y011928D01*
X080529Y011832D02*
X080529Y011652D01*
X080484Y011652D02*
X080394Y011742D01*
X080484Y011652D02*
X080665Y011652D01*
X080619Y013310D02*
X080665Y013355D01*
X080665Y013445D01*
X080619Y013490D01*
X080439Y013490D01*
X080394Y013445D01*
X080394Y013355D01*
X080439Y013310D01*
X080619Y013310D01*
X080619Y013586D02*
X080665Y013631D01*
X080665Y013721D01*
X080619Y013766D01*
X080574Y013766D01*
X080529Y013721D01*
X080529Y013631D01*
X080484Y013586D01*
X080439Y013586D01*
X080394Y013631D01*
X080394Y013721D01*
X080439Y013766D01*
X080439Y013862D02*
X080394Y013907D01*
X080394Y013997D01*
X080439Y014042D01*
X080484Y014042D01*
X080665Y013862D01*
X080665Y014042D01*
X086818Y016088D02*
X086818Y016268D01*
X086908Y016359D01*
X086999Y016268D01*
X086999Y016088D01*
X087095Y016133D02*
X087140Y016088D01*
X087230Y016088D01*
X087275Y016133D01*
X087275Y016359D01*
X087371Y016359D02*
X087551Y016088D01*
X087647Y016043D02*
X087827Y016043D01*
X087923Y016178D02*
X088013Y016088D01*
X088103Y016178D01*
X088103Y016359D01*
X088200Y016359D02*
X088335Y016359D01*
X088380Y016313D01*
X088380Y016223D01*
X088335Y016178D01*
X088200Y016178D01*
X088200Y016088D02*
X088200Y016359D01*
X087923Y016359D02*
X087923Y016178D01*
X087551Y016359D02*
X087371Y016088D01*
X087095Y016133D02*
X087095Y016359D01*
X086999Y016223D02*
X086818Y016223D01*
X088476Y016133D02*
X088521Y016088D01*
X088611Y016088D01*
X088656Y016133D01*
X088656Y016313D01*
X088611Y016359D01*
X088521Y016359D01*
X088476Y016313D01*
X088476Y016133D01*
X088752Y016133D02*
X088797Y016088D01*
X088887Y016088D01*
X088932Y016133D01*
X088932Y016178D01*
X088887Y016223D01*
X088797Y016223D01*
X088752Y016268D01*
X088752Y016313D01*
X088797Y016359D01*
X088887Y016359D01*
X088932Y016313D01*
X089028Y016268D02*
X089118Y016359D01*
X089118Y016088D01*
X089028Y016088D02*
X089208Y016088D01*
X099595Y015149D02*
X099595Y014878D01*
X099595Y014968D02*
X099730Y014968D01*
X099775Y015013D01*
X099775Y015103D01*
X099730Y015149D01*
X099595Y015149D01*
X099871Y015103D02*
X099871Y014923D01*
X099916Y014878D01*
X100006Y014878D01*
X100051Y014923D01*
X100051Y015103D01*
X100006Y015149D01*
X099916Y015149D01*
X099871Y015103D01*
X100147Y015149D02*
X100147Y014878D01*
X100237Y014968D01*
X100327Y014878D01*
X100327Y015149D01*
X092486Y012494D02*
X092239Y012494D01*
X092239Y012308D01*
X092362Y012370D01*
X092424Y012370D01*
X092486Y012308D01*
X092486Y012185D01*
X092424Y012123D01*
X092300Y012123D01*
X092239Y012185D01*
X092117Y012123D02*
X091870Y012123D01*
X091749Y012123D02*
X091626Y012247D01*
X091687Y012247D02*
X091502Y012247D01*
X091502Y012123D02*
X091502Y012494D01*
X091687Y012494D01*
X091749Y012432D01*
X091749Y012308D01*
X091687Y012247D01*
X091870Y012370D02*
X091994Y012494D01*
X091994Y012123D01*
X090863Y009159D02*
X090773Y009159D01*
X090728Y009113D01*
X090728Y008933D01*
X090773Y008888D01*
X090863Y008888D01*
X090908Y008933D01*
X090908Y009023D01*
X090818Y009023D01*
X090908Y009113D02*
X090863Y009159D01*
X090632Y009159D02*
X090452Y009159D01*
X090452Y008888D01*
X090632Y008888D01*
X090542Y009023D02*
X090452Y009023D01*
X090356Y008888D02*
X090356Y009159D01*
X090176Y009159D02*
X090356Y008888D01*
X090176Y008888D02*
X090176Y009159D01*
X090080Y009159D02*
X090080Y008978D01*
X089990Y008888D01*
X089900Y008978D01*
X089900Y009159D01*
X089803Y008843D02*
X089623Y008843D01*
X089527Y008888D02*
X089347Y009159D01*
X089251Y009159D02*
X089251Y008933D01*
X089206Y008888D01*
X089116Y008888D01*
X089071Y008933D01*
X089071Y009159D01*
X088975Y009068D02*
X088975Y008888D01*
X088975Y009023D02*
X088795Y009023D01*
X088795Y009068D02*
X088885Y009159D01*
X088975Y009068D01*
X088795Y009068D02*
X088795Y008888D01*
X089347Y008888D02*
X089527Y009159D01*
D19*
X100535Y012143D02*
X100537Y012222D01*
X100543Y012301D01*
X100553Y012380D01*
X100567Y012458D01*
X100584Y012535D01*
X100606Y012611D01*
X100631Y012686D01*
X100661Y012759D01*
X100693Y012831D01*
X100730Y012902D01*
X100770Y012970D01*
X100813Y013036D01*
X100859Y013100D01*
X100909Y013162D01*
X100962Y013221D01*
X101017Y013277D01*
X101076Y013331D01*
X101137Y013381D01*
X101200Y013429D01*
X101266Y013473D01*
X101334Y013514D01*
X101404Y013551D01*
X101475Y013585D01*
X101549Y013615D01*
X101623Y013641D01*
X101699Y013663D01*
X101776Y013682D01*
X101854Y013697D01*
X101932Y013708D01*
X102011Y013715D01*
X102090Y013718D01*
X102169Y013717D01*
X102248Y013712D01*
X102327Y013703D01*
X102405Y013690D01*
X102482Y013673D01*
X102559Y013653D01*
X102634Y013628D01*
X102708Y013600D01*
X102781Y013568D01*
X102851Y013533D01*
X102920Y013494D01*
X102987Y013451D01*
X103052Y013405D01*
X103114Y013357D01*
X103174Y013305D01*
X103231Y013250D01*
X103285Y013192D01*
X103336Y013132D01*
X103384Y013069D01*
X103429Y013004D01*
X103471Y012936D01*
X103509Y012867D01*
X103543Y012796D01*
X103574Y012723D01*
X103602Y012648D01*
X103625Y012573D01*
X103645Y012496D01*
X103661Y012419D01*
X103673Y012340D01*
X103681Y012262D01*
X103685Y012183D01*
X103685Y012103D01*
X103681Y012024D01*
X103673Y011946D01*
X103661Y011867D01*
X103645Y011790D01*
X103625Y011713D01*
X103602Y011638D01*
X103574Y011563D01*
X103543Y011490D01*
X103509Y011419D01*
X103471Y011350D01*
X103429Y011282D01*
X103384Y011217D01*
X103336Y011154D01*
X103285Y011094D01*
X103231Y011036D01*
X103174Y010981D01*
X103114Y010929D01*
X103052Y010881D01*
X102987Y010835D01*
X102920Y010792D01*
X102851Y010753D01*
X102781Y010718D01*
X102708Y010686D01*
X102634Y010658D01*
X102559Y010633D01*
X102482Y010613D01*
X102405Y010596D01*
X102327Y010583D01*
X102248Y010574D01*
X102169Y010569D01*
X102090Y010568D01*
X102011Y010571D01*
X101932Y010578D01*
X101854Y010589D01*
X101776Y010604D01*
X101699Y010623D01*
X101623Y010645D01*
X101549Y010671D01*
X101475Y010701D01*
X101404Y010735D01*
X101334Y010772D01*
X101266Y010813D01*
X101200Y010857D01*
X101137Y010905D01*
X101076Y010955D01*
X101017Y011009D01*
X100962Y011065D01*
X100909Y011124D01*
X100859Y011186D01*
X100813Y011250D01*
X100770Y011316D01*
X100730Y011384D01*
X100693Y011455D01*
X100661Y011527D01*
X100631Y011600D01*
X100606Y011675D01*
X100584Y011751D01*
X100567Y011828D01*
X100553Y011906D01*
X100543Y011985D01*
X100537Y012064D01*
X100535Y012143D01*
X099185Y020193D02*
X099187Y020272D01*
X099193Y020351D01*
X099203Y020430D01*
X099217Y020508D01*
X099234Y020585D01*
X099256Y020661D01*
X099281Y020736D01*
X099311Y020809D01*
X099343Y020881D01*
X099380Y020952D01*
X099420Y021020D01*
X099463Y021086D01*
X099509Y021150D01*
X099559Y021212D01*
X099612Y021271D01*
X099667Y021327D01*
X099726Y021381D01*
X099787Y021431D01*
X099850Y021479D01*
X099916Y021523D01*
X099984Y021564D01*
X100054Y021601D01*
X100125Y021635D01*
X100199Y021665D01*
X100273Y021691D01*
X100349Y021713D01*
X100426Y021732D01*
X100504Y021747D01*
X100582Y021758D01*
X100661Y021765D01*
X100740Y021768D01*
X100819Y021767D01*
X100898Y021762D01*
X100977Y021753D01*
X101055Y021740D01*
X101132Y021723D01*
X101209Y021703D01*
X101284Y021678D01*
X101358Y021650D01*
X101431Y021618D01*
X101501Y021583D01*
X101570Y021544D01*
X101637Y021501D01*
X101702Y021455D01*
X101764Y021407D01*
X101824Y021355D01*
X101881Y021300D01*
X101935Y021242D01*
X101986Y021182D01*
X102034Y021119D01*
X102079Y021054D01*
X102121Y020986D01*
X102159Y020917D01*
X102193Y020846D01*
X102224Y020773D01*
X102252Y020698D01*
X102275Y020623D01*
X102295Y020546D01*
X102311Y020469D01*
X102323Y020390D01*
X102331Y020312D01*
X102335Y020233D01*
X102335Y020153D01*
X102331Y020074D01*
X102323Y019996D01*
X102311Y019917D01*
X102295Y019840D01*
X102275Y019763D01*
X102252Y019688D01*
X102224Y019613D01*
X102193Y019540D01*
X102159Y019469D01*
X102121Y019400D01*
X102079Y019332D01*
X102034Y019267D01*
X101986Y019204D01*
X101935Y019144D01*
X101881Y019086D01*
X101824Y019031D01*
X101764Y018979D01*
X101702Y018931D01*
X101637Y018885D01*
X101570Y018842D01*
X101501Y018803D01*
X101431Y018768D01*
X101358Y018736D01*
X101284Y018708D01*
X101209Y018683D01*
X101132Y018663D01*
X101055Y018646D01*
X100977Y018633D01*
X100898Y018624D01*
X100819Y018619D01*
X100740Y018618D01*
X100661Y018621D01*
X100582Y018628D01*
X100504Y018639D01*
X100426Y018654D01*
X100349Y018673D01*
X100273Y018695D01*
X100199Y018721D01*
X100125Y018751D01*
X100054Y018785D01*
X099984Y018822D01*
X099916Y018863D01*
X099850Y018907D01*
X099787Y018955D01*
X099726Y019005D01*
X099667Y019059D01*
X099612Y019115D01*
X099559Y019174D01*
X099509Y019236D01*
X099463Y019300D01*
X099420Y019366D01*
X099380Y019434D01*
X099343Y019505D01*
X099311Y019577D01*
X099281Y019650D01*
X099256Y019725D01*
X099234Y019801D01*
X099217Y019878D01*
X099203Y019956D01*
X099193Y020035D01*
X099187Y020114D01*
X099185Y020193D01*
D20*
X099037Y020193D03*
X102482Y020193D03*
D21*
X102110Y013866D03*
X102110Y010421D03*
D22*
X107460Y008893D02*
X121460Y008893D01*
X121460Y015893D01*
X107460Y015893D01*
X107460Y008893D01*
X122584Y014148D02*
X123035Y014148D01*
X123035Y013998D02*
X123035Y014298D01*
X122959Y014458D02*
X123035Y014533D01*
X123035Y014683D01*
X122959Y014758D01*
X122884Y014758D01*
X122809Y014683D01*
X122809Y014458D01*
X122959Y014458D01*
X122809Y014458D02*
X122659Y014608D01*
X122584Y014758D01*
X122584Y014148D02*
X122734Y013998D01*
X117824Y017618D02*
X117524Y017618D01*
X117824Y017919D01*
X117824Y017994D01*
X117749Y018069D01*
X117599Y018069D01*
X117524Y017994D01*
X117524Y018618D02*
X117824Y018618D01*
X117674Y018618D02*
X117674Y019069D01*
X117524Y018919D01*
X115474Y019543D02*
X115399Y019468D01*
X115249Y019468D01*
X115174Y019543D01*
X115174Y019618D01*
X115249Y019693D01*
X115399Y019693D01*
X115474Y019618D01*
X115474Y019543D01*
X115399Y019693D02*
X115474Y019769D01*
X115474Y019844D01*
X115399Y019919D01*
X115249Y019919D01*
X115174Y019844D01*
X115174Y019769D01*
X115249Y019693D01*
X123434Y018708D02*
X123584Y018558D01*
X123434Y018708D02*
X123885Y018708D01*
X123885Y018558D02*
X123885Y018858D01*
X124434Y018783D02*
X124434Y018633D01*
X124509Y018558D01*
X124434Y018783D02*
X124509Y018858D01*
X124584Y018858D01*
X124885Y018558D01*
X124885Y018858D01*
X090006Y026793D02*
X089930Y026718D01*
X089780Y026718D01*
X089705Y026793D01*
X089705Y027094D01*
X089780Y027169D01*
X089930Y027169D01*
X090006Y027094D01*
X089545Y027019D02*
X089545Y026718D01*
X089545Y026943D02*
X089245Y026943D01*
X089245Y027019D02*
X089395Y027169D01*
X089545Y027019D01*
X089245Y027019D02*
X089245Y026718D01*
X089085Y026793D02*
X089010Y026718D01*
X088785Y026718D01*
X088785Y027169D01*
X089010Y027169D01*
X089085Y027094D01*
X089085Y026793D01*
X054760Y020193D02*
X053860Y021068D01*
X046760Y021068D01*
X046760Y016068D01*
X054760Y016068D01*
X054760Y020193D01*
X054260Y018793D02*
X051260Y018793D01*
X051260Y015793D01*
X054260Y015793D01*
X054260Y018793D01*
X047200Y015233D02*
X045920Y015233D01*
X045920Y013953D01*
X047200Y013953D01*
X047200Y015233D01*
X045619Y015393D02*
X045621Y015416D01*
X045627Y015439D01*
X045636Y015460D01*
X045649Y015480D01*
X045665Y015497D01*
X045683Y015511D01*
X045703Y015522D01*
X045725Y015530D01*
X045748Y015534D01*
X045772Y015534D01*
X045795Y015530D01*
X045817Y015522D01*
X045837Y015511D01*
X045855Y015497D01*
X045871Y015480D01*
X045884Y015460D01*
X045893Y015439D01*
X045899Y015416D01*
X045901Y015393D01*
X045899Y015370D01*
X045893Y015347D01*
X045884Y015326D01*
X045871Y015306D01*
X045855Y015289D01*
X045837Y015275D01*
X045817Y015264D01*
X045795Y015256D01*
X045772Y015252D01*
X045748Y015252D01*
X045725Y015256D01*
X045703Y015264D01*
X045683Y015275D01*
X045665Y015289D01*
X045649Y015306D01*
X045636Y015326D01*
X045627Y015347D01*
X045621Y015370D01*
X045619Y015393D01*
X050160Y013793D02*
X050160Y010793D01*
X053160Y010793D01*
X053160Y013793D01*
X050160Y013793D01*
X044100Y012933D02*
X042820Y012933D01*
X042820Y011653D01*
X044100Y011653D01*
X044100Y012933D01*
X039510Y013253D02*
X039510Y012253D01*
X038310Y012253D01*
X038310Y013253D01*
X039510Y013253D01*
X038250Y012778D02*
X036650Y012778D01*
X036650Y012028D01*
X037150Y012028D01*
X037150Y011503D01*
X037750Y011503D01*
X037750Y012028D01*
X038225Y012028D01*
X036650Y012028D02*
X036650Y010553D01*
X038250Y010553D01*
X038250Y012778D01*
X032940Y011853D02*
X029940Y011853D01*
X029940Y014853D01*
X032940Y014853D01*
X032940Y011853D01*
X044119Y011493D02*
X044121Y011516D01*
X044127Y011539D01*
X044136Y011560D01*
X044149Y011580D01*
X044165Y011597D01*
X044183Y011611D01*
X044203Y011622D01*
X044225Y011630D01*
X044248Y011634D01*
X044272Y011634D01*
X044295Y011630D01*
X044317Y011622D01*
X044337Y011611D01*
X044355Y011597D01*
X044371Y011580D01*
X044384Y011560D01*
X044393Y011539D01*
X044399Y011516D01*
X044401Y011493D01*
X044399Y011470D01*
X044393Y011447D01*
X044384Y011426D01*
X044371Y011406D01*
X044355Y011389D01*
X044337Y011375D01*
X044317Y011364D01*
X044295Y011356D01*
X044272Y011352D01*
X044248Y011352D01*
X044225Y011356D01*
X044203Y011364D01*
X044183Y011375D01*
X044165Y011389D01*
X044149Y011406D01*
X044136Y011426D01*
X044127Y011447D01*
X044121Y011470D01*
X044119Y011493D01*
X045719Y011493D02*
X045721Y011516D01*
X045727Y011539D01*
X045736Y011560D01*
X045749Y011580D01*
X045765Y011597D01*
X045783Y011611D01*
X045803Y011622D01*
X045825Y011630D01*
X045848Y011634D01*
X045872Y011634D01*
X045895Y011630D01*
X045917Y011622D01*
X045937Y011611D01*
X045955Y011597D01*
X045971Y011580D01*
X045984Y011560D01*
X045993Y011539D01*
X045999Y011516D01*
X046001Y011493D01*
X045999Y011470D01*
X045993Y011447D01*
X045984Y011426D01*
X045971Y011406D01*
X045955Y011389D01*
X045937Y011375D01*
X045917Y011364D01*
X045895Y011356D01*
X045872Y011352D01*
X045848Y011352D01*
X045825Y011356D01*
X045803Y011364D01*
X045783Y011375D01*
X045765Y011389D01*
X045749Y011406D01*
X045736Y011426D01*
X045727Y011447D01*
X045721Y011470D01*
X045719Y011493D01*
X046020Y011333D02*
X047300Y011333D01*
X047300Y010053D01*
X046020Y010053D01*
X046020Y011333D01*
X022495Y015258D02*
X021245Y015258D01*
X021245Y016508D01*
X022495Y016508D01*
X022495Y015258D01*
X017470Y013333D02*
X014470Y013333D01*
X014470Y010333D01*
X017470Y010333D01*
X017470Y013333D01*
X020180Y012348D02*
X020180Y011068D01*
X021460Y011068D01*
X021460Y012348D01*
X020180Y012348D01*
X021479Y010908D02*
X021481Y010931D01*
X021487Y010954D01*
X021496Y010975D01*
X021509Y010995D01*
X021525Y011012D01*
X021543Y011026D01*
X021563Y011037D01*
X021585Y011045D01*
X021608Y011049D01*
X021632Y011049D01*
X021655Y011045D01*
X021677Y011037D01*
X021697Y011026D01*
X021715Y011012D01*
X021731Y010995D01*
X021744Y010975D01*
X021753Y010954D01*
X021759Y010931D01*
X021761Y010908D01*
X021759Y010885D01*
X021753Y010862D01*
X021744Y010841D01*
X021731Y010821D01*
X021715Y010804D01*
X021697Y010790D01*
X021677Y010779D01*
X021655Y010771D01*
X021632Y010767D01*
X021608Y010767D01*
X021585Y010771D01*
X021563Y010779D01*
X021543Y010790D01*
X021525Y010804D01*
X021509Y010821D01*
X021496Y010841D01*
X021487Y010862D01*
X021481Y010885D01*
X021479Y010908D01*
X047985Y029268D02*
X047985Y032518D01*
X048035Y032518D02*
X051235Y032518D01*
X051235Y029268D01*
X047985Y029268D01*
X048035Y029318D02*
X048035Y032518D01*
X048085Y032468D02*
X051185Y032468D01*
X051185Y029318D01*
X048035Y029318D01*
X048085Y029368D02*
X048085Y032468D01*
X048135Y032418D02*
X051135Y032418D01*
X051135Y029368D01*
X048085Y029368D01*
X048135Y029418D02*
X048135Y032418D01*
X048185Y032368D02*
X051085Y032368D01*
X051085Y029418D01*
X048135Y029418D01*
X048185Y029468D02*
X048185Y032368D01*
X048235Y032318D02*
X051035Y032318D01*
X051035Y029468D01*
X048185Y029468D01*
X048235Y029518D02*
X048235Y032318D01*
X048285Y032268D02*
X050985Y032268D01*
X050985Y029518D01*
X048235Y029518D01*
X048285Y029568D02*
X048285Y032268D01*
X048335Y032218D02*
X050935Y032218D01*
X050935Y029568D01*
X048285Y029568D01*
X048335Y029618D02*
X048335Y032218D01*
X048385Y032168D02*
X050885Y032168D01*
X050885Y029618D01*
X048335Y029618D01*
X048485Y029768D02*
X048935Y029768D01*
X048935Y030218D01*
X048535Y030218D01*
X048535Y029818D01*
X048885Y029818D01*
X048885Y030168D01*
X048585Y030168D01*
X048485Y030218D02*
X048485Y029768D01*
X049085Y029668D02*
X049135Y029668D01*
X049135Y029868D01*
X049385Y029868D01*
X049385Y029718D01*
X049285Y029718D01*
X049285Y029668D01*
X049535Y029668D01*
X049535Y029818D01*
X049435Y029818D01*
X049435Y030068D01*
X049535Y030068D01*
X049535Y030168D01*
X049635Y030168D01*
X049635Y030218D01*
X049535Y030218D01*
X049535Y030318D01*
X049485Y030318D01*
X049485Y030118D01*
X049235Y030118D01*
X049235Y030218D01*
X049135Y030218D01*
X049135Y030368D01*
X049285Y030368D01*
X049285Y030268D01*
X049335Y030268D01*
X049335Y030418D01*
X049235Y030418D01*
X049235Y030568D01*
X049435Y030568D01*
X049435Y031068D01*
X049635Y031068D01*
X049635Y031218D01*
X049485Y031218D01*
X049485Y031118D01*
X049385Y031118D01*
X049385Y031018D01*
X049285Y031018D01*
X049285Y030918D01*
X049185Y030918D01*
X049185Y030818D01*
X048935Y030818D01*
X048935Y030968D01*
X049035Y030968D01*
X049035Y031018D01*
X048885Y031018D01*
X048885Y030818D01*
X048785Y030818D01*
X048785Y030718D01*
X048685Y030718D01*
X048685Y030668D01*
X048885Y030668D01*
X048885Y030568D01*
X049035Y030568D01*
X049035Y030618D01*
X048935Y030618D01*
X048935Y030768D01*
X049085Y030768D01*
X049085Y030668D01*
X049135Y030668D01*
X049135Y030768D01*
X049235Y030768D01*
X049235Y030868D01*
X049385Y030868D01*
X049385Y030718D01*
X049285Y030718D01*
X049285Y030618D01*
X049185Y030618D01*
X049185Y030418D01*
X048735Y030418D01*
X048735Y030518D01*
X048685Y030518D01*
X048685Y030418D01*
X048435Y030418D01*
X048385Y030418D02*
X048385Y030368D01*
X049085Y030368D01*
X049085Y029668D01*
X049135Y029918D02*
X049385Y029918D01*
X049385Y030068D01*
X049185Y030068D01*
X049185Y030168D01*
X049135Y030168D02*
X049135Y029918D01*
X049285Y029968D02*
X049335Y029968D01*
X049335Y030018D01*
X049285Y030018D02*
X049285Y029968D01*
X049435Y029768D02*
X049435Y029718D01*
X049485Y029718D01*
X049485Y029768D01*
X049685Y029768D02*
X049735Y029768D01*
X049735Y029968D01*
X049885Y029968D01*
X049885Y029768D01*
X049935Y029768D01*
X049935Y030018D01*
X049635Y030018D01*
X049585Y030018D02*
X049585Y029968D01*
X049685Y029968D01*
X049685Y029768D01*
X049785Y029718D02*
X049785Y029668D01*
X049835Y029668D01*
X049835Y029718D01*
X050085Y029768D02*
X050135Y029768D01*
X050135Y029818D01*
X050085Y029818D02*
X050085Y029768D01*
X050085Y029968D02*
X050285Y029968D01*
X050285Y029868D01*
X050435Y029868D01*
X050435Y029918D01*
X050335Y029918D01*
X050335Y030018D01*
X050135Y030018D01*
X050085Y030018D02*
X050085Y029968D01*
X050085Y030168D02*
X050335Y030168D01*
X050335Y030418D01*
X050135Y030418D01*
X050135Y030218D01*
X050285Y030218D01*
X050285Y030368D01*
X050185Y030368D01*
X050085Y030418D02*
X050085Y030168D01*
X049835Y030168D02*
X049835Y030318D01*
X049785Y030318D02*
X049785Y030168D01*
X049835Y030168D01*
X049885Y030368D02*
X049935Y030368D01*
X049935Y030418D01*
X049885Y030418D02*
X049885Y030368D01*
X049835Y030468D02*
X049835Y030568D01*
X049935Y030568D01*
X049935Y030668D01*
X050085Y030668D01*
X050085Y030568D01*
X050235Y030568D01*
X050235Y030668D01*
X050385Y030668D01*
X050385Y030568D01*
X050485Y030568D01*
X050485Y030368D01*
X050535Y030368D01*
X050535Y030568D01*
X050685Y030568D01*
X050685Y030468D01*
X050785Y030468D01*
X050785Y030268D01*
X050835Y030268D01*
X050835Y030618D01*
X050735Y030618D01*
X050735Y030768D01*
X050835Y030768D01*
X050835Y030818D01*
X050735Y030818D01*
X050735Y030968D01*
X050835Y030968D01*
X050835Y031218D01*
X050735Y031218D01*
X050735Y031368D01*
X050835Y031368D01*
X050835Y031418D01*
X050135Y031418D01*
X050135Y032118D01*
X049985Y032118D01*
X049985Y032018D01*
X049885Y032018D01*
X049885Y031968D01*
X049985Y031968D01*
X049985Y031868D01*
X050085Y031868D01*
X050085Y031418D01*
X049985Y031418D01*
X049985Y031368D01*
X050385Y031368D01*
X050385Y031268D01*
X050435Y031268D01*
X050435Y031368D01*
X050685Y031368D01*
X050685Y031218D01*
X050485Y031218D01*
X050485Y030968D01*
X050535Y030968D01*
X050535Y031168D01*
X050685Y031168D01*
X050685Y030718D01*
X050585Y030718D01*
X050585Y030618D01*
X050435Y030618D01*
X050435Y030718D01*
X050335Y030718D01*
X050335Y030818D01*
X050185Y030818D01*
X050185Y030718D01*
X050035Y030718D01*
X050035Y030918D01*
X049985Y030918D01*
X049985Y030718D01*
X049885Y030718D01*
X049885Y030618D01*
X049785Y030618D01*
X049785Y030518D01*
X049635Y030518D01*
X049635Y030868D01*
X049735Y030868D01*
X049735Y030918D01*
X049585Y030918D01*
X049585Y030518D01*
X049535Y030518D01*
X049485Y030518D02*
X049485Y030468D01*
X049685Y030468D01*
X049685Y030368D01*
X049735Y030368D01*
X049735Y030468D01*
X049835Y030468D01*
X049835Y030768D02*
X049835Y030818D01*
X049835Y030768D02*
X049785Y030768D01*
X049785Y030818D01*
X049785Y030968D02*
X049935Y030968D01*
X049935Y031068D01*
X050035Y031068D01*
X050035Y031168D01*
X050235Y031168D01*
X050235Y031218D01*
X049935Y031218D01*
X049935Y031318D01*
X049885Y031318D01*
X049885Y031018D01*
X049835Y031018D01*
X049785Y031018D02*
X049785Y030968D01*
X049935Y031118D02*
X049935Y031168D01*
X049985Y031168D02*
X049985Y031118D01*
X049935Y031118D01*
X050085Y031018D02*
X050085Y030968D01*
X050135Y030968D01*
X050135Y031018D01*
X050285Y031018D02*
X050285Y030968D01*
X050335Y030968D01*
X050335Y031018D01*
X050285Y030768D02*
X050285Y030718D01*
X050235Y030718D01*
X050235Y030768D01*
X050185Y030668D02*
X050185Y030618D01*
X050135Y030618D01*
X050135Y030668D01*
X050635Y030668D02*
X050635Y030618D01*
X050685Y030618D01*
X050685Y030668D01*
X050735Y030568D02*
X050735Y030518D01*
X050785Y030518D01*
X050785Y030568D01*
X050735Y030218D02*
X050535Y030218D01*
X050485Y030218D02*
X050485Y030168D01*
X050735Y030168D01*
X050735Y030218D01*
X050735Y030018D02*
X050635Y030018D01*
X050585Y030018D02*
X050585Y029968D01*
X050735Y029968D01*
X050735Y030018D01*
X050735Y029818D02*
X050685Y029818D01*
X050685Y029718D01*
X050635Y029718D01*
X050585Y029718D02*
X050585Y029668D01*
X050735Y029668D01*
X050735Y029818D01*
X050435Y029718D02*
X050335Y029718D01*
X050285Y029718D02*
X050285Y029668D01*
X050435Y029668D01*
X050435Y029718D01*
X049385Y030618D02*
X049385Y030668D01*
X049385Y030618D02*
X049335Y030618D01*
X049335Y030668D01*
X049335Y030918D02*
X049385Y030918D01*
X049385Y030968D01*
X049335Y030968D02*
X049335Y030918D01*
X049135Y031068D02*
X049135Y031118D01*
X049135Y031068D02*
X049085Y031068D01*
X049085Y031118D01*
X049035Y031168D02*
X049035Y031218D01*
X048935Y031218D01*
X048935Y031368D01*
X049135Y031368D01*
X049135Y031668D01*
X049335Y031668D01*
X049335Y031718D01*
X049135Y031718D01*
X049135Y031968D01*
X049335Y031968D01*
X049335Y032018D01*
X049135Y032018D01*
X049135Y032118D01*
X049085Y032118D01*
X049085Y031418D01*
X048435Y031418D01*
X048385Y031418D02*
X048385Y031368D01*
X048585Y031368D01*
X048585Y031118D01*
X048385Y031118D01*
X048385Y030968D01*
X048435Y030968D01*
X048435Y031068D01*
X048585Y031068D01*
X048585Y030918D01*
X048485Y030918D01*
X048485Y030818D01*
X048385Y030818D01*
X048385Y030768D01*
X048485Y030768D01*
X048485Y030568D01*
X048635Y030568D01*
X048635Y030618D01*
X048535Y030618D01*
X048535Y030868D01*
X048635Y030868D01*
X048635Y030968D01*
X048735Y030968D01*
X048735Y031018D01*
X048635Y031018D01*
X048635Y031368D01*
X048785Y031368D01*
X048785Y031268D01*
X048885Y031268D01*
X048885Y031168D01*
X049035Y031168D01*
X049185Y031268D02*
X049435Y031268D01*
X049435Y031318D01*
X049235Y031318D01*
X049185Y031318D02*
X049185Y031268D01*
X049285Y031468D02*
X049335Y031468D01*
X049335Y031518D01*
X049285Y031518D02*
X049285Y031468D01*
X049385Y031568D02*
X049485Y031568D01*
X049485Y031368D01*
X049735Y031368D01*
X049735Y031518D01*
X049685Y031518D01*
X049685Y031418D01*
X049535Y031418D01*
X049535Y031568D01*
X049635Y031568D01*
X049635Y031668D01*
X049735Y031668D01*
X049735Y031718D01*
X049635Y031718D01*
X049635Y031818D01*
X049535Y031818D01*
X049535Y032068D01*
X049835Y032068D01*
X049835Y032118D01*
X049435Y032118D01*
X049385Y032118D02*
X049385Y032068D01*
X049485Y032068D01*
X049485Y031918D01*
X049385Y031918D01*
X049385Y031868D01*
X049485Y031868D01*
X049485Y031768D01*
X049585Y031768D01*
X049585Y031618D01*
X049385Y031618D01*
X049385Y031568D01*
X049785Y031568D02*
X049885Y031568D01*
X049885Y031468D01*
X049935Y031468D01*
X049935Y031718D01*
X049885Y031718D01*
X049885Y031618D01*
X049835Y031618D01*
X049785Y031618D02*
X049785Y031568D01*
X049735Y031868D02*
X049735Y031918D01*
X049735Y031868D02*
X049685Y031868D01*
X049685Y031918D01*
X050035Y031918D02*
X050085Y031918D01*
X050085Y032068D01*
X050035Y032068D02*
X050035Y031918D01*
X050285Y032018D02*
X050285Y031568D01*
X050735Y031568D01*
X050735Y032018D01*
X050335Y032018D01*
X050335Y031618D01*
X050685Y031618D01*
X050685Y031968D01*
X050385Y031968D01*
X048935Y032018D02*
X048935Y031568D01*
X048485Y031568D01*
X048485Y032018D01*
X048535Y032018D02*
X048535Y031618D01*
X048885Y031618D01*
X048885Y031968D01*
X048585Y031968D01*
X048535Y032018D02*
X048935Y032018D01*
X048885Y031368D02*
X048885Y031318D01*
X048835Y031318D01*
X048835Y031368D01*
X048835Y031118D02*
X048835Y031068D01*
X048785Y031068D01*
X048785Y031118D01*
X048835Y030768D02*
X048835Y030718D01*
X048885Y030718D01*
X048885Y030768D01*
X049535Y031118D02*
X049585Y031118D01*
X049585Y031168D01*
X049535Y031168D02*
X049535Y031118D01*
X050735Y031168D02*
X050735Y031018D01*
X050785Y031018D01*
X050785Y031168D01*
D23*
X074535Y022756D03*
X074910Y022756D03*
X075284Y022756D03*
X075284Y021831D03*
X074535Y021831D03*
X074535Y020656D03*
X074909Y020656D03*
X074160Y020656D03*
X074160Y019731D03*
X074909Y019731D03*
X024794Y013296D03*
X024045Y013296D03*
X024045Y012371D03*
X024420Y012371D03*
X024794Y012371D03*
D24*
X024570Y018129D03*
X025070Y018129D03*
X024070Y018129D03*
X023570Y018129D03*
X023570Y020137D03*
X024070Y020137D03*
X024570Y020137D03*
X025070Y020137D03*
X049310Y023939D03*
X049810Y023939D03*
X050310Y023939D03*
X050810Y023939D03*
X050810Y025947D03*
X050310Y025947D03*
X049810Y025947D03*
X049310Y025947D03*
D25*
X049061Y026018D02*
X049061Y026569D01*
X048058Y026569D01*
X048058Y026018D01*
X049061Y026018D01*
X048895Y025406D02*
X048324Y025406D01*
X048324Y024481D01*
X048895Y024481D01*
X048895Y025406D01*
X048245Y025406D02*
X047674Y025406D01*
X047674Y024481D01*
X048245Y024481D01*
X048245Y025406D01*
X049647Y026708D02*
X050572Y026708D01*
X050572Y027279D01*
X049647Y027279D01*
X049647Y026708D01*
X049647Y027408D02*
X050572Y027408D01*
X050572Y027979D01*
X049647Y027979D01*
X049647Y027408D01*
X052195Y024600D02*
X052924Y024600D01*
X052924Y023387D01*
X052195Y023387D01*
X052195Y024600D01*
X053995Y024650D02*
X054724Y024650D01*
X054724Y023437D01*
X053995Y023437D01*
X053995Y024650D01*
X053922Y023979D02*
X052997Y023979D01*
X052997Y023408D01*
X053922Y023408D01*
X053922Y023979D01*
X051161Y023269D02*
X050158Y023269D01*
X050158Y022718D01*
X051161Y022718D01*
X051161Y023269D01*
X052195Y022900D02*
X052924Y022900D01*
X052924Y021687D01*
X052195Y021687D01*
X052195Y022900D01*
X052997Y022929D02*
X053922Y022929D01*
X053922Y022358D01*
X052997Y022358D01*
X052997Y022929D01*
X053995Y022900D02*
X054724Y022900D01*
X054724Y021687D01*
X053995Y021687D01*
X053995Y022900D01*
X050045Y023106D02*
X050045Y022181D01*
X049474Y022181D01*
X049474Y023106D01*
X050045Y023106D01*
X057184Y018495D02*
X057184Y017491D01*
X057735Y017491D01*
X057735Y018495D01*
X057184Y018495D01*
X048335Y015895D02*
X048335Y014891D01*
X047784Y014891D01*
X047784Y015895D01*
X048335Y015895D01*
X046422Y016179D02*
X046422Y015608D01*
X045497Y015608D01*
X045497Y016179D01*
X046422Y016179D01*
X050108Y014769D02*
X051111Y014769D01*
X051111Y014218D01*
X050108Y014218D01*
X050108Y014769D01*
X047761Y013369D02*
X046758Y013369D01*
X046758Y012818D01*
X047761Y012818D01*
X047761Y013369D01*
X046522Y012279D02*
X045597Y012279D01*
X045597Y011708D01*
X046522Y011708D01*
X046522Y012279D01*
X047784Y011995D02*
X047784Y010991D01*
X048335Y010991D01*
X048335Y011995D01*
X047784Y011995D01*
X043361Y013418D02*
X042358Y013418D01*
X042358Y013969D01*
X043361Y013969D01*
X043361Y013418D01*
X040561Y012709D02*
X039558Y012709D01*
X039558Y012158D01*
X040561Y012158D01*
X040561Y012709D01*
X041684Y011995D02*
X041684Y010991D01*
X042235Y010991D01*
X042235Y011995D01*
X041684Y011995D01*
X039195Y013371D02*
X039195Y014296D01*
X038624Y014296D01*
X038624Y013371D01*
X039195Y013371D01*
X039185Y014351D02*
X039185Y015355D01*
X038634Y015355D01*
X038634Y014351D01*
X039185Y014351D01*
X030675Y015291D02*
X030675Y016216D01*
X030104Y016216D01*
X030104Y015291D01*
X030675Y015291D01*
X025045Y016531D02*
X025045Y017535D01*
X024494Y017535D01*
X024494Y016531D01*
X025045Y016531D01*
X024355Y016521D02*
X024355Y017446D01*
X023784Y017446D01*
X023784Y016521D01*
X024355Y016521D01*
X024271Y016159D02*
X023268Y016159D01*
X023268Y015608D01*
X024271Y015608D01*
X024271Y016159D01*
X023171Y018358D02*
X022168Y018358D01*
X022168Y018909D01*
X023171Y018909D01*
X023171Y018358D01*
X023182Y018998D02*
X022257Y018998D01*
X022257Y019569D01*
X023182Y019569D01*
X023182Y018998D01*
X025384Y018671D02*
X025384Y019596D01*
X025955Y019596D01*
X025955Y018671D01*
X025384Y018671D01*
X023321Y020108D02*
X022318Y020108D01*
X022318Y020659D01*
X023321Y020659D01*
X023321Y020108D01*
X023557Y021248D02*
X024482Y021248D01*
X024482Y021819D01*
X023557Y021819D01*
X023557Y021248D01*
X024707Y021248D02*
X025632Y021248D01*
X025632Y021819D01*
X024707Y021819D01*
X024707Y021248D01*
X013845Y025081D02*
X013845Y026006D01*
X013274Y026006D01*
X013274Y025081D01*
X013845Y025081D01*
X018968Y013059D02*
X019971Y013059D01*
X019971Y012508D01*
X018968Y012508D01*
X018968Y013059D01*
X018468Y012109D02*
X019471Y012109D01*
X019471Y011558D01*
X018468Y011558D01*
X018468Y012109D01*
X019394Y011185D02*
X019394Y010181D01*
X019945Y010181D01*
X019945Y011185D01*
X019394Y011185D01*
X021584Y010846D02*
X021584Y009921D01*
X022155Y009921D01*
X022155Y010846D01*
X021584Y010846D01*
X022468Y011833D02*
X023471Y011833D01*
X023471Y012384D01*
X022468Y012384D01*
X022468Y011833D01*
X025668Y012058D02*
X026671Y012058D01*
X026671Y012609D01*
X025668Y012609D01*
X025668Y012058D01*
X034298Y010679D02*
X034298Y010128D01*
X035301Y010128D01*
X035301Y010679D01*
X034298Y010679D01*
X046884Y009895D02*
X046884Y008891D01*
X047435Y008891D01*
X047435Y009895D01*
X046884Y009895D01*
X053634Y011891D02*
X053634Y012895D01*
X054185Y012895D01*
X054185Y011891D01*
X053634Y011891D01*
X074253Y009657D02*
X074253Y008929D01*
X075466Y008929D01*
X075466Y009657D01*
X074253Y009657D01*
X074895Y011187D02*
X075624Y011187D01*
X075624Y012400D01*
X074895Y012400D01*
X074895Y011187D01*
X087853Y013429D02*
X087853Y014157D01*
X089066Y014157D01*
X089066Y013429D01*
X087853Y013429D01*
X088097Y012129D02*
X088097Y011558D01*
X089022Y011558D01*
X089022Y012129D01*
X088097Y012129D01*
X088058Y011469D02*
X089061Y011469D01*
X089061Y010918D01*
X088058Y010918D01*
X088058Y011469D01*
X091497Y011508D02*
X092422Y011508D01*
X092422Y012079D01*
X091497Y012079D01*
X091497Y011508D01*
X092674Y011956D02*
X092674Y011031D01*
X093245Y011031D01*
X093245Y011956D01*
X092674Y011956D01*
X092495Y012287D02*
X093224Y012287D01*
X093224Y013500D01*
X092495Y013500D01*
X092495Y012287D01*
X092753Y010657D02*
X092753Y009929D01*
X093966Y009929D01*
X093966Y010657D01*
X092753Y010657D01*
X107708Y016618D02*
X108711Y016618D01*
X108711Y017169D01*
X107708Y017169D01*
X107708Y016618D01*
X098872Y017408D02*
X097947Y017408D01*
X097947Y017979D01*
X098872Y017979D01*
X098872Y017408D01*
X097474Y020087D02*
X096745Y020087D01*
X096745Y021300D01*
X097474Y021300D01*
X097474Y020087D01*
X098558Y023518D02*
X099561Y023518D01*
X099561Y024069D01*
X098558Y024069D01*
X098558Y023518D01*
X100458Y023518D02*
X100458Y024069D01*
X101461Y024069D01*
X101461Y023518D01*
X100458Y023518D01*
X093124Y028537D02*
X092395Y028537D01*
X092395Y029750D01*
X093124Y029750D01*
X093124Y028537D01*
X091835Y028941D02*
X091835Y029945D01*
X091284Y029945D01*
X091284Y028941D01*
X091835Y028941D01*
X094095Y029087D02*
X094095Y030300D01*
X094824Y030300D01*
X094824Y029087D01*
X094095Y029087D01*
X094022Y029808D02*
X094022Y030379D01*
X093097Y030379D01*
X093097Y029808D01*
X094022Y029808D01*
X091235Y029391D02*
X091235Y030395D01*
X090684Y030395D01*
X090684Y029391D01*
X091235Y029391D01*
X102584Y029595D02*
X102584Y028591D01*
X103135Y028591D01*
X103135Y029595D01*
X102584Y029595D01*
X072045Y026606D02*
X072045Y025681D01*
X071474Y025681D01*
X071474Y026606D01*
X072045Y026606D01*
X079697Y020479D02*
X080622Y020479D01*
X080622Y019908D01*
X079697Y019908D01*
X079697Y020479D01*
X079453Y019857D02*
X080666Y019857D01*
X080666Y019129D01*
X079453Y019129D01*
X079453Y019857D01*
X079453Y018707D02*
X080666Y018707D01*
X080666Y017979D01*
X079453Y017979D01*
X079453Y018707D01*
D26*
X089272Y028399D03*
X089272Y028596D03*
X089272Y028793D03*
X089272Y028990D03*
X089272Y029187D03*
X090847Y029187D03*
X090847Y028990D03*
X090847Y028794D03*
X090847Y028597D03*
X090847Y028400D03*
D27*
X081635Y020833D03*
X081635Y020163D03*
X081635Y019493D03*
X081635Y018823D03*
X081635Y018153D03*
X096985Y018393D03*
X096985Y017723D03*
X096985Y017053D03*
X096985Y019063D03*
X096985Y019733D03*
X094085Y013833D03*
X094085Y013163D03*
X094085Y012493D03*
X094085Y011823D03*
X094085Y011153D03*
X087085Y011153D03*
X087085Y011823D03*
X087085Y012493D03*
X087085Y013163D03*
X087085Y013833D03*
D28*
X086340Y013833D03*
X086340Y013163D03*
X086340Y012493D03*
X086340Y011823D03*
X086340Y011153D03*
X094830Y011153D03*
X094830Y011823D03*
X094830Y012493D03*
X094830Y013163D03*
X094830Y013833D03*
X096240Y017053D03*
X096240Y017723D03*
X096240Y018393D03*
X096240Y019063D03*
X096240Y019733D03*
X082380Y019493D03*
X082380Y018823D03*
X082380Y018153D03*
X082380Y020163D03*
X082380Y020833D03*
D29*
X076822Y020717D03*
X075897Y020717D03*
X075897Y020343D03*
X075897Y019969D03*
X076822Y019969D03*
X075122Y010767D03*
X074197Y010767D03*
X074197Y010393D03*
X074197Y010019D03*
X075122Y010019D03*
M02*
