%
M48
M72
T01C0.0100
T02C0.0236
T03C0.0360
T04C0.0380
T05C0.0394
T06C0.0400
T07C0.0590
T08C0.0670
T09C0.0787
T10C0.0850
T11C0.1102
T12C0.1160
T13C0.5000
%
T01
X16070Y9383
X13870Y10083
X16570Y11483
X17070Y11483
X17670Y11483
X18270Y11483
X18770Y11383
X19270Y11383
X20820Y11308
X20820Y10708
X20070Y10383
X19670Y9983
X19070Y10783
X21960Y11493
X22170Y11783
X22570Y11683
X23070Y11683
X23570Y11683
X23970Y11783
X24370Y11783
X24770Y11783
X25370Y11983
X25870Y11883
X26470Y11883
X26950Y12003
X27350Y12003
X27950Y11803
X28450Y11903
X28950Y11903
X29490Y11953
X29990Y11753
X30490Y11753
X30990Y11753
X31490Y11753
X31990Y11753
X32490Y11753
X32990Y11753
X33490Y11853
X33950Y11903
X34450Y12003
X35000Y11758
X35590Y11758
X35600Y12208
X35600Y12618
X35350Y13003
X34850Y13003
X34450Y12803
X33940Y12803
X33450Y12703
X33190Y13153
X31490Y13053
X31590Y12353
X29490Y12953
X28950Y13003
X28450Y13003
X27950Y13003
X27450Y13003
X26950Y13003
X26470Y12783
X25870Y12783
X25470Y12683
X25070Y12783
X24360Y12793
X23570Y12483
X23070Y12583
X22570Y12583
X22070Y12483
X21570Y12483
X20820Y12408
X20820Y11908
X19270Y12283
X18770Y12283
X18270Y12183
X17670Y12183
X17070Y12183
X16570Y12183
X19170Y13383
X19770Y13383
X23670Y13483
X24470Y13483
X24970Y13883
X24470Y14083
X23670Y14083
X25270Y14483
X24470Y14683
X24470Y15283
X23670Y15283
X23670Y14683
X22670Y15083
X22970Y15483
X24570Y15783
X24770Y16183
X23570Y16383
X22970Y16283
X22370Y17033
X21820Y17033
X25365Y17329
X21870Y18583
X21970Y19283
X20070Y19183
X19370Y19983
X17160Y20293
X14960Y19293
X16060Y18293
X10160Y16893
X18170Y15833
X21670Y14783
X22170Y14783
X29490Y14353
X30090Y15053
X30790Y15053
X31790Y15053
X32190Y15453
X32290Y16053
X32990Y15553
X33190Y15953
X33390Y16453
X32490Y16553
X32790Y17153
X33690Y16953
X33890Y17353
X34390Y17753
X34890Y18153
X35390Y18553
X35890Y18753
X36390Y18953
X36890Y19053
X37560Y19093
X38260Y19093
X38860Y19093
X39460Y19093
X40060Y19093
X40660Y19093
X41160Y19093
X41660Y19093
X42160Y19093
X43160Y19093
X43660Y19093
X44260Y19093
X44860Y19093
X45460Y19093
X46060Y19093
X46660Y19093
X47360Y19093
X47960Y19093
X48560Y19093
X49160Y19093
X49760Y19093
X50360Y19093
X50960Y19093
X51560Y19093
X52160Y19093
X52760Y19093
X53560Y19093
X54260Y19093
X54960Y19093
X55660Y19093
X56260Y19093
X56660Y18893
X56860Y18393
X57960Y18393
X57860Y18993
X57460Y19393
X56960Y19793
X56360Y19893
X55660Y19893
X54960Y19893
X54260Y19893
X53560Y19893
X52760Y19893
X52160Y19893
X51560Y19893
X50960Y19893
X50360Y19893
X49760Y19893
X49160Y19893
X48560Y19893
X47960Y19893
X47360Y19893
X46660Y19893
X46060Y19893
X45460Y19893
X44860Y19893
X44260Y19893
X43660Y19893
X43160Y19893
X42160Y19893
X41660Y19893
X41160Y19893
X40660Y19893
X40060Y19893
X39460Y19893
X38860Y19893
X38260Y19893
X37590Y19853
X36990Y19853
X36390Y19753
X35790Y19553
X35190Y19353
X34690Y19053
X34290Y18753
X33890Y18453
X33490Y18053
X33090Y17653
X30690Y18653
X26370Y19983
X21970Y20383
X21770Y21633
X23670Y22063
X25840Y21773
X23860Y24093
X30060Y23993
X30360Y26493
X26960Y26593
X26360Y27693
X30660Y28293
X32460Y30693
X26160Y31593
X40760Y30893
X46560Y31693
X52760Y29143
X53460Y28393
X50860Y27693
X50860Y26993
X47860Y26293
X44360Y27393
X47860Y27693
X40660Y26493
X47960Y24293
X51960Y24393
X53810Y24593
X54460Y25393
X52260Y25443
X60660Y23993
X67360Y25993
X70160Y27693
X61160Y26093
X70960Y22993
X70960Y22293
X70960Y21593
X73960Y21293
X75360Y21093
X75760Y21793
X74160Y22893
X77460Y20793
X75260Y20193
X75260Y19493
X76060Y19593
X79160Y19693
X79860Y20693
X87860Y21493
X93360Y23193
X95560Y23593
X96960Y23093
X100060Y23793
X100060Y26193
X93360Y28793
X95160Y29293
X91660Y30293
X90960Y30693
X89760Y30093
X89960Y28893
X88660Y28493
X87760Y27393
X87360Y25993
X102860Y29993
X105960Y31393
X88760Y31893
X83260Y31393
X80660Y30593
X71760Y30893
X68160Y30893
X59760Y31993
X51060Y22293
X50660Y21793
X51960Y21893
X52260Y21443
X54360Y21393
X54860Y21893
X56060Y21893
X59660Y19793
X62560Y19293
X58060Y17893
X57960Y17393
X56960Y17393
X56860Y17893
X53760Y17393
X51660Y17293
X50760Y17293
X49760Y17293
X49310Y17943
X48760Y17393
X47760Y17293
X47060Y16593
X46260Y16393
X46660Y15793
X47160Y15693
X47460Y15393
X46760Y15193
X46260Y15193
X45460Y14693
X46560Y14593
X47970Y14123
X48350Y14123
X48760Y13793
X49160Y13793
X49710Y14103
X50360Y14093
X50960Y14093
X51260Y13793
X52060Y13793
X52060Y14293
X52560Y14493
X52960Y14193
X53460Y13993
X53960Y14593
X54260Y14093
X54360Y13493
X54460Y12893
X53360Y12693
X52660Y12293
X53360Y12093
X53560Y11493
X54360Y11393
X54460Y11893
X54460Y12393
X56360Y12593
X53460Y13393
X52060Y12893
X49760Y13393
X48160Y13093
X47560Y12493
X48060Y12193
X46760Y11993
X46760Y11493
X46360Y11493
X45160Y11993
X44560Y12293
X45260Y12593
X46060Y13093
X46560Y13093
X46660Y12493
X43760Y13093
X43160Y13093
X43260Y12493
X43660Y12493
X42160Y12793
X41760Y13093
X41260Y13093
X40550Y12903
X40160Y12893
X39760Y12893
X38050Y13003
X37450Y13003
X36850Y13003
X36350Y13003
X35950Y13003
X38350Y13603
X38350Y14103
X38350Y14603
X39450Y14603
X39450Y14103
X39450Y13603
X36760Y14393
X38350Y15203
X38950Y15603
X39450Y15103
X41660Y15693
X43460Y15093
X42560Y14293
X43660Y13693
X44960Y13893
X46260Y13793
X46760Y13793
X48560Y14993
X48960Y14793
X49360Y14993
X49760Y14993
X50360Y14993
X50860Y14993
X51260Y14793
X50760Y15693
X49760Y15693
X48760Y15693
X52360Y15693
X53160Y15693
X55360Y16193
X57060Y16593
X57860Y16593
X66660Y14493
X68460Y15493
X71460Y17393
X67660Y18893
X68960Y19693
X69060Y20393
X79160Y18293
X78960Y16993
X86960Y16593
X96260Y15493
X101060Y15593
X98060Y16893
X99160Y17693
X101160Y17593
X107360Y16893
X102660Y19493
X101760Y19493
X101060Y20093
X101360Y20893
X102560Y20893
X97760Y21093
X110660Y19893
X92760Y13793
X92060Y13493
X89360Y13793
X89260Y11793
X89360Y11193
X91260Y11793
X94360Y10293
X101160Y10293
X103060Y10093
X102060Y9393
X102860Y11293
X101260Y11493
X79060Y13593
X75360Y12793
X71660Y11893
X69360Y13293
X66260Y11993
X62460Y10993
X58860Y10393
X54160Y10793
X53760Y10393
X53260Y10193
X52760Y10193
X52260Y10193
X51460Y10193
X50860Y10193
X50260Y10193
X49790Y10173
X49260Y9893
X48760Y9893
X48360Y10213
X47660Y9993
X46660Y9693
X46360Y9893
X45860Y9893
X45160Y10093
X44560Y9893
X43960Y9693
X43660Y10593
X42760Y10393
X42510Y11143
X43160Y11493
X43260Y11993
X43660Y11993
X43760Y11493
X44760Y11293
X44860Y10693
X45560Y10793
X46660Y10993
X46660Y10293
X48760Y11093
X48460Y11393
X49260Y11093
X49760Y10993
X51360Y10993
X41560Y11693
X41560Y12093
X41060Y12093
X40560Y11993
X40060Y11993
X39460Y11893
X38960Y11893
X38460Y11893
X36750Y11703
X36750Y11203
X36750Y10703
X36050Y10503
X37450Y10303
X38150Y10603
X39360Y10793
X38150Y11203
X36130Y11758
X34550Y11303
X33950Y10403
X41460Y11193
X31490Y13953
X31490Y14553
X33290Y14353
X32890Y15053
X30890Y16053
X30390Y16453
X29890Y16053
X36460Y16793
X39360Y17693
X41660Y17693
X42160Y18093
X44460Y17693
X43460Y17093
X57260Y13693
X61060Y13893
X72860Y9993
X73560Y9193
X45960Y21293
X12160Y14293
X22420Y10108
X21820Y9708
X11160Y25193
X10860Y27393
X9260Y28493
T02
X23120Y21033
X48760Y25743
X51710Y23793
X51960Y22643
X50310Y22443
X55360Y22593
X68360Y17693
X83160Y18893
X83860Y18793
X83160Y19493
X83860Y19793
X83160Y20193
X83860Y20593
X83160Y20993
X83860Y17893
X85460Y17893
X87460Y14543
X90260Y27693
X91260Y27593
X92460Y28093
X91960Y28593
X88960Y27943
X88063Y28990
X88710Y29493
X94060Y30593
X94760Y30593
X35160Y9893
T03
X113960Y17843
X114960Y17843
X115960Y17843
X116960Y17843
X116960Y18843
X115960Y18843
X114960Y18843
X113960Y18843
X123660Y17993
X124660Y17993
X124660Y16993
X123660Y16993
X123660Y15993
X124660Y15993
X124660Y14993
X123660Y14993
X123660Y13993
X124660Y13993
X124660Y12993
X123660Y12993
X123660Y11993
X124660Y11993
X124660Y10993
X123660Y10993
T04
X120960Y11393
X120960Y12393
X120960Y13393
X120960Y14393
X120960Y15393
X119960Y15393
X118960Y15393
X117960Y15393
X116960Y15393
X115960Y15393
X114960Y15393
X113960Y15393
X112960Y15393
X111960Y15393
X110960Y15393
X109960Y15393
X108960Y15393
X107960Y15393
X120960Y10393
X120960Y9393
X119960Y9393
X118960Y9393
X117960Y9393
X116960Y9393
X115960Y9393
X114960Y9393
X113960Y9393
X112960Y9393
X111960Y9393
X110960Y9393
X109960Y9393
X108960Y9393
X107960Y9393
T05
X115360Y12393
X116360Y12393
X100983Y22941
X99999Y22941
X99015Y22941
X83460Y25893
X82460Y25893
X65960Y25893
X64960Y25893
X43460Y25893
X42460Y25893
X25960Y25893
X24960Y25893
X57460Y15893
X58460Y15893
X99015Y28649
X100983Y28649
T06
X89360Y22693
X89360Y21693
X89460Y18493
X89460Y17493
X80560Y15393
X79560Y15393
X76560Y12193
X76560Y11193
X90360Y10293
X91360Y10293
X100110Y16543
X101110Y16543
X102110Y16543
X48260Y21993
X47260Y21993
X20220Y15883
X19220Y15883
T07
X15970Y11833
X51660Y12293
X52760Y17293
T08
X53760Y18293
X51760Y18293
X51760Y16293
X53760Y16293
X52660Y13293
X50660Y13293
X50660Y11293
X52660Y11293
X16970Y10833
X14970Y10833
X14970Y12833
X16970Y12833
T09
X55460Y17893
X59460Y13893
X66960Y23893
X62960Y27893
X80460Y27893
X84460Y23893
X113360Y14393
X117360Y10393
X44460Y23893
X40460Y27893
X26960Y23893
X22960Y27893
T10
X18410Y27743
X16510Y27743
X16510Y25893
X18410Y25893
X18410Y24043
X16460Y24043
X33960Y24043
X35910Y24043
X35910Y25893
X34010Y25893
X34010Y27743
X35910Y27743
X56510Y27743
X58410Y27743
X58410Y25893
X56510Y25893
X56460Y24043
X58410Y24043
X73960Y24043
X75910Y24043
X75910Y25893
X74010Y25893
X74010Y27743
X75910Y27743
T11
X97735Y25893
X102263Y25893
T12
X99960Y30893
X104960Y10893
X9960Y10893
X9960Y30893
T13
X74960Y15893
M30
