%
M48
M72
T01C0.0100
T02C0.0236
T03C0.0360
T04C0.0380
T05C0.0394
T06C0.0400
T07C0.0590
T08C0.0670
T09C0.0787
T10C0.0850
T11C0.1102
T12C0.1160
T13C0.5000
%
T01
X16070Y9383
X13870Y10083
X16570Y11483
X17070Y11483
X17670Y11483
X18270Y11483
X18770Y11383
X19270Y11383
X20820Y11308
X20820Y10708
X20070Y10383
X19670Y9983
X19070Y10783
X21960Y11493
X22170Y11783
X22570Y11683
X23070Y11683
X23570Y11683
X23970Y11783
X24370Y11783
X24770Y11783
X25370Y11983
X25870Y11883
X26470Y11883
X26950Y12003
X27350Y12003
X27950Y11803
X28450Y11903
X28950Y11903
X29490Y11953
X29990Y11753
X30490Y11753
X30990Y11753
X31490Y11753
X31990Y11753
X32490Y11753
X32990Y11753
X33490Y11853
X34050Y12003
X34450Y12003
X35000Y11758
X35590Y11758
X35600Y12208
X35600Y12618
X35350Y13003
X34850Y13003
X34450Y12803
X33940Y12803
X33450Y12703
X33190Y13153
X31490Y13053
X31590Y12353
X29590Y13153
X28950Y13003
X28450Y13003
X27950Y13003
X27450Y13003
X26950Y13003
X26470Y12783
X25870Y12783
X25470Y12683
X25070Y12783
X24360Y12793
X23570Y12483
X23070Y12583
X22570Y12583
X22070Y12483
X21570Y12483
X20820Y12408
X20820Y11908
X19270Y12283
X18770Y12283
X18270Y12183
X17670Y12183
X17370Y12383
X17070Y12183
X16570Y12183
X19170Y13383
X19770Y13383
X23670Y13483
X24470Y13483
X24970Y13883
X24470Y14083
X23670Y14083
X25270Y14483
X24470Y14683
X24470Y15283
X23670Y15283
X23670Y14683
X22670Y15083
X22970Y15483
X24570Y15783
X24770Y16183
X23570Y16383
X22970Y16283
X22170Y16983
X21570Y16983
X25365Y17329
X21870Y18583
X21970Y19283
X20070Y19183
X19370Y19983
X17160Y20293
X21970Y20383
X26370Y19983
X30690Y18653
X33090Y17653
X33490Y18053
X33890Y18453
X34290Y18753
X34690Y19053
X35190Y19353
X35790Y19553
X36390Y19753
X36990Y19853
X37590Y19853
X38360Y19793
X38860Y19793
X39460Y19793
X40060Y19793
X40460Y19793
X41060Y19793
X41660Y19793
X42160Y19793
X43060Y19793
X43660Y19793
X44260Y19793
X44860Y19793
X45460Y19793
X46060Y19793
X46660Y19793
X47360Y19793
X47960Y19793
X48560Y19793
X49160Y19793
X49760Y19793
X50360Y19793
X50960Y19793
X51560Y19793
X52160Y19793
X52760Y19793
X53560Y19793
X54260Y19793
X54960Y19793
X55660Y19793
X56260Y19793
X56960Y19693
X57460Y19293
X57860Y18793
X57960Y18393
X56960Y18393
X56860Y18893
X56260Y19193
X55660Y19193
X54960Y19193
X54260Y19193
X53560Y19193
X52760Y19193
X52160Y19193
X51560Y19193
X50960Y19193
X50360Y19193
X49760Y19193
X49160Y19193
X48560Y19193
X47960Y19193
X47360Y19193
X46660Y19193
X46060Y19193
X45460Y19193
X44860Y19193
X44260Y19193
X43660Y19193
X43060Y19193
X42160Y19193
X41660Y19193
X41060Y19193
X40460Y19193
X40060Y19193
X39460Y19193
X38860Y19193
X38360Y19193
X37560Y19093
X36890Y19053
X36390Y18953
X35890Y18753
X35390Y18553
X34890Y18153
X34390Y17753
X33890Y17353
X33690Y16953
X32790Y17153
X32490Y16553
X33390Y16453
X33190Y15953
X32990Y15553
X32890Y15053
X32190Y15453
X31790Y15053
X30790Y15053
X30090Y15053
X29490Y14353
X31490Y14553
X31490Y13953
X33190Y14353
X36760Y14393
X38350Y14603
X38350Y14103
X38350Y13603
X39450Y13603
X39450Y14103
X39450Y14603
X39450Y15103
X38950Y15603
X38350Y15203
X41660Y15693
X43460Y15093
X45460Y14693
X46260Y15193
X46760Y15193
X47160Y15693
X47460Y15393
X48560Y14993
X48960Y14793
X49360Y14993
X49760Y14993
X50360Y14993
X50860Y14993
X51260Y14793
X52560Y14493
X52960Y14193
X53460Y13993
X53960Y14593
X54260Y14093
X54360Y13493
X54460Y12893
X53360Y12693
X52660Y12293
X53360Y12093
X53560Y11493
X54360Y11393
X54460Y11893
X54460Y12393
X56360Y12593
X53460Y13393
X52060Y13793
X52060Y14293
X51260Y13793
X50960Y14093
X50360Y14093
X49710Y14103
X49160Y13793
X48760Y13793
X48350Y14123
X47970Y14123
X46760Y13793
X46260Y13793
X46060Y13093
X46560Y13093
X46360Y12493
X47560Y12493
X48060Y12193
X46760Y11993
X46760Y11493
X46360Y11493
X45160Y11993
X44560Y12293
X43660Y12493
X43260Y12493
X43160Y13093
X43760Y13093
X42160Y12793
X41760Y13093
X41260Y13093
X40550Y12903
X40160Y12893
X39760Y12893
X38050Y13003
X37450Y13003
X36850Y13003
X36350Y13003
X35950Y13003
X36130Y11758
X36750Y11703
X36750Y11203
X36750Y10703
X36050Y10503
X37450Y10303
X38150Y10603
X39360Y10793
X38150Y11203
X38460Y11893
X38960Y11893
X39460Y11893
X40060Y11993
X40560Y11993
X41060Y12093
X41560Y12093
X41560Y11693
X41460Y11193
X43160Y11493
X43260Y11993
X43660Y11993
X43760Y11493
X44360Y11493
X44760Y11293
X44860Y10693
X45560Y10793
X46660Y10993
X46660Y10293
X47660Y9993
X48360Y10213
X48760Y9893
X49260Y9893
X49790Y10173
X50260Y10193
X50860Y10193
X51460Y10193
X52260Y10193
X52760Y10193
X53260Y10193
X53760Y10393
X54160Y10793
X51360Y10993
X49760Y10993
X49260Y11093
X48760Y11093
X48460Y11393
X43660Y10593
X42760Y10393
X41760Y10093
X43960Y9693
X45160Y10093
X45360Y9593
X45860Y9893
X46360Y9893
X46660Y9593
X34550Y11303
X33950Y10403
X22420Y10108
X21820Y9708
X12160Y14293
X19570Y15083
X21570Y14783
X22170Y14783
X29890Y16053
X30390Y16453
X30890Y16053
X32290Y16053
X36460Y16793
X39360Y17693
X41660Y17693
X42160Y18093
X44460Y17693
X43460Y17093
X46260Y16393
X46660Y15793
X47060Y16593
X47760Y17293
X48760Y17393
X49760Y17293
X50760Y17293
X51660Y17293
X53760Y17393
X56960Y17893
X57060Y17393
X57860Y17393
X57960Y17893
X57860Y16593
X57060Y16593
X55360Y16193
X53160Y15693
X52360Y15693
X50760Y15693
X49760Y15693
X48760Y15693
X46560Y14593
X43660Y13693
X42560Y14293
X48960Y13093
X49760Y13393
X52060Y12893
X57260Y13693
X61060Y13893
X66660Y14493
X68460Y15493
X71460Y17393
X67660Y18893
X68960Y19693
X69060Y20393
X70960Y21593
X70960Y22293
X70960Y22993
X74160Y22893
X75760Y21793
X75360Y21093
X73960Y21293
X73660Y20193
X75260Y19493
X76060Y19593
X79160Y19693
X79860Y20693
X77460Y20793
X79160Y18293
X78960Y16993
X86960Y16593
X96260Y15493
X101060Y15293
X98060Y16893
X99160Y17693
X103160Y19393
X104060Y20193
X101860Y20793
X103460Y20993
X97060Y21693
X87860Y21493
X99060Y25093
X99960Y24993
X100960Y24993
X100960Y26893
X93360Y28793
X95160Y29293
X91660Y30293
X90960Y30693
X89760Y30093
X89960Y28893
X88660Y28493
X87760Y27393
X87360Y25993
X70160Y27693
X67360Y25993
X61160Y26093
X54460Y25393
X52460Y25393
X51960Y24393
X53860Y24393
X47960Y24293
X47860Y26293
X50860Y26993
X50860Y27693
X53460Y28393
X47860Y27693
X44360Y27393
X40660Y26493
X30660Y28293
X26360Y27693
X26960Y26593
X30360Y26493
X30060Y23993
X23860Y24093
X23670Y22063
X21770Y21633
X25840Y21773
X16060Y18293
X13560Y18293
X10360Y19093
X11160Y25193
X9260Y28493
X16560Y31293
X26160Y31593
X32460Y30693
X40760Y30893
X46560Y31693
X52360Y31293
X59760Y31993
X68160Y30893
X71760Y30893
X80660Y30593
X83260Y31393
X88760Y31893
X105960Y31393
X110660Y19893
X107360Y16893
X92760Y13793
X92160Y13293
X89360Y13793
X89260Y11793
X91260Y11793
X94360Y10293
X101160Y10293
X103060Y10093
X102060Y9393
X102860Y11293
X101260Y11493
X79060Y13593
X75360Y12793
X71660Y12593
X71660Y11893
X71660Y13293
X69360Y13293
X66260Y11993
X62460Y10993
X58860Y10393
X72860Y9993
X73560Y9193
X48760Y18193
X59660Y19793
X62560Y19293
X54360Y21393
X54860Y21893
X56060Y21893
X53060Y21893
X51960Y21893
X51060Y22293
X50660Y21793
X45960Y21793
X60660Y23993
T02
X55360Y22593
X51960Y22593
X50310Y22443
X51710Y23793
X48760Y25743
X23120Y21033
X35160Y9893
X68360Y17693
X83160Y18893
X83860Y18793
X83160Y19493
X83860Y19793
X83160Y20193
X83860Y20593
X83160Y20993
X85360Y20993
X85360Y19493
X85460Y17893
X83860Y17893
X87460Y14543
X90260Y27693
X91260Y27593
X92460Y28093
X91960Y28593
X88960Y27943
X88063Y28990
X88710Y29493
X94060Y30593
X94760Y30593
T03
X114060Y18943
X115060Y18943
X116060Y18943
X117060Y18943
X117060Y17943
X116060Y17943
X115060Y17943
X114060Y17943
X123660Y17993
X124660Y17993
X124660Y16993
X123660Y16993
X123660Y15993
X124660Y15993
X124660Y14993
X123660Y14993
X123660Y13993
X124660Y13993
X124660Y12993
X123660Y12993
X123660Y11993
X124660Y11993
X124660Y10993
X123660Y10993
T04
X120960Y11393
X120960Y12393
X120960Y13393
X120960Y14393
X120960Y15393
X119960Y15393
X118960Y15393
X117960Y15393
X116960Y15393
X115960Y15393
X114960Y15393
X113960Y15393
X112960Y15393
X111960Y15393
X110960Y15393
X109960Y15393
X108960Y15393
X107960Y15393
X120960Y10393
X120960Y9393
X119960Y9393
X118960Y9393
X117960Y9393
X116960Y9393
X115960Y9393
X114960Y9393
X113960Y9393
X112960Y9393
X111960Y9393
X110960Y9393
X109960Y9393
X108960Y9393
X107960Y9393
T05
X115360Y12393
X115360Y13393
X100983Y23098
X99999Y23098
X99015Y23098
X83460Y25893
X82460Y25893
X65960Y25893
X64960Y25893
X43460Y25893
X42460Y25893
X25960Y25893
X24960Y25893
X57460Y15893
X58460Y15893
X99015Y28807
X100983Y28807
T06
X89360Y22693
X89360Y21693
X89460Y18493
X89460Y17493
X80560Y15393
X79560Y15393
X76560Y12193
X76560Y11193
X90360Y10293
X91360Y10293
X100110Y16543
X101110Y16543
X102110Y16543
X48260Y21993
X47260Y21993
X20220Y15883
X19220Y15883
T07
X15970Y11833
X51660Y12293
X52760Y17293
T08
X53760Y18293
X51760Y18293
X51760Y16293
X53760Y16293
X52660Y13293
X50660Y13293
X50660Y11293
X52660Y11293
X16970Y10833
X14970Y10833
X14970Y12833
X16970Y12833
T09
X55460Y17893
X59460Y13893
X66960Y23893
X62960Y27893
X80460Y27893
X84460Y23893
X117360Y14393
X113360Y10393
X44460Y23893
X40460Y27893
X26960Y23893
X22960Y27893
T10
X18410Y27743
X16510Y27743
X16510Y25893
X18410Y25893
X18410Y24043
X16460Y24043
X33960Y24043
X35910Y24043
X35910Y25893
X34010Y25893
X34010Y27743
X35910Y27743
X56510Y27743
X58410Y27743
X58410Y25893
X56510Y25893
X56460Y24043
X58410Y24043
X73960Y24043
X75910Y24043
X75910Y25893
X74010Y25893
X74010Y27743
X75910Y27743
T11
X97735Y26051
X102263Y26051
T12
X99960Y30893
X104960Y10893
X9960Y10893
X9960Y30893
T13
X74960Y15893
M30
