G75*
%MOIN*%
%OFA0B0*%
%FSLAX24Y24*%
%IPPOS*%
%LPD*%
%AMOC8*
5,1,8,0,0,1.08239X$1,22.5*
%
%ADD10C,0.0600*%
%ADD11C,0.1050*%
%ADD12C,0.0570*%
%ADD13C,0.0591*%
%ADD14C,0.0987*%
%ADD15C,0.0790*%
%ADD16C,0.0870*%
%ADD17C,0.0540*%
%ADD18C,0.0260*%
%ADD19C,0.0100*%
%ADD20C,0.0396*%
D10*
X019220Y015883D03*
X020220Y015883D03*
X047260Y021993D03*
X048260Y021993D03*
X079560Y015393D03*
X080560Y015393D03*
X089460Y017493D03*
X089460Y018493D03*
X100110Y016543D03*
X101110Y016543D03*
X102110Y016543D03*
X089360Y021693D03*
X089360Y022693D03*
X076560Y012193D03*
X076560Y011193D03*
X090360Y010293D03*
X091360Y010293D03*
D11*
X075910Y024043D03*
X073960Y024043D03*
X074010Y025893D03*
X075910Y025893D03*
X075910Y027743D03*
X074010Y027743D03*
X058410Y027743D03*
X056510Y027743D03*
X056510Y025893D03*
X058410Y025893D03*
X058410Y024043D03*
X056460Y024043D03*
X035910Y024043D03*
X033960Y024043D03*
X034010Y025893D03*
X035910Y025893D03*
X035910Y027743D03*
X034010Y027743D03*
X018410Y027743D03*
X016510Y027743D03*
X016510Y025893D03*
X018410Y025893D03*
X018410Y024043D03*
X016460Y024043D03*
D12*
X107960Y015393D03*
X108960Y015393D03*
X109960Y015393D03*
X110960Y015393D03*
X111960Y015393D03*
X112960Y015393D03*
X113960Y015393D03*
X114960Y015393D03*
X115960Y015393D03*
X116960Y015393D03*
X117960Y015393D03*
X118960Y015393D03*
X119960Y015393D03*
X120960Y015393D03*
X120960Y014393D03*
X120960Y013393D03*
X120960Y012393D03*
X120960Y011393D03*
X120960Y010393D03*
X120960Y009393D03*
X119960Y009393D03*
X118960Y009393D03*
X117960Y009393D03*
X116960Y009393D03*
X115960Y009393D03*
X114960Y009393D03*
X113960Y009393D03*
X112960Y009393D03*
X111960Y009393D03*
X110960Y009393D03*
X109960Y009393D03*
X108960Y009393D03*
X107960Y009393D03*
D13*
X115360Y012393D03*
X115360Y013393D03*
X100983Y023098D03*
X099999Y023098D03*
X099015Y023098D03*
X083460Y025893D03*
X082460Y025893D03*
X065960Y025893D03*
X064960Y025893D03*
X043460Y025893D03*
X042460Y025893D03*
X025960Y025893D03*
X024960Y025893D03*
X057460Y015893D03*
X058460Y015893D03*
X099015Y028807D03*
X100983Y028807D03*
D14*
X084460Y023893D03*
X080460Y027893D03*
X066960Y023893D03*
X062960Y027893D03*
X044460Y023893D03*
X040460Y027893D03*
X026960Y023893D03*
X022960Y027893D03*
X055460Y017893D03*
X059460Y013893D03*
X113360Y010393D03*
X117360Y014393D03*
D15*
X052760Y017293D03*
X051660Y012293D03*
X015970Y011833D03*
D16*
X016970Y010833D03*
X014970Y010833D03*
X014970Y012833D03*
X016970Y012833D03*
X050660Y013293D03*
X052660Y013293D03*
X052660Y011293D03*
X050660Y011293D03*
X051760Y016293D03*
X053760Y016293D03*
X053760Y018293D03*
X051760Y018293D03*
D17*
X114060Y017943D03*
X115060Y017943D03*
X116060Y017943D03*
X117060Y017943D03*
X117060Y018943D03*
X116060Y018943D03*
X115060Y018943D03*
X114060Y018943D03*
X123660Y017993D03*
X124660Y017993D03*
X124660Y016993D03*
X123660Y016993D03*
X123660Y015993D03*
X124660Y015993D03*
X124660Y014993D03*
X123660Y014993D03*
X123660Y013993D03*
X124660Y013993D03*
X124660Y012993D03*
X123660Y012993D03*
X123660Y011993D03*
X124660Y011993D03*
X124660Y010993D03*
X123660Y010993D03*
D18*
X103060Y010093D03*
X102060Y009393D03*
X101160Y010293D03*
X102860Y011293D03*
X101260Y011493D03*
X094360Y010293D03*
X091260Y011793D03*
X089260Y011793D03*
X092160Y013293D03*
X092760Y013793D03*
X089360Y013793D03*
X096260Y015493D03*
X101060Y015293D03*
X098060Y016893D03*
X099160Y017693D03*
X103160Y019393D03*
X104060Y020193D03*
X101860Y020793D03*
X103460Y020993D03*
X097060Y021693D03*
X087860Y021493D03*
X079860Y020693D03*
X077460Y020793D03*
X075360Y021093D03*
X073960Y021293D03*
X075760Y021793D03*
X074160Y022893D03*
X070960Y022993D03*
X070960Y022293D03*
X070960Y021593D03*
X069060Y020393D03*
X068960Y019693D03*
X067660Y018893D03*
X071460Y017393D03*
X068460Y015493D03*
X066660Y014493D03*
X069360Y013293D03*
X071660Y013293D03*
X071660Y012593D03*
X071660Y011893D03*
X075360Y012793D03*
X079060Y013593D03*
X086960Y016593D03*
X079160Y018293D03*
X078960Y016993D03*
X079160Y019693D03*
X076060Y019593D03*
X075260Y019493D03*
X073660Y020193D03*
X062560Y019293D03*
X059660Y019793D03*
X057460Y019293D03*
X057860Y018793D03*
X057960Y018393D03*
X056960Y018393D03*
X056860Y018893D03*
X056260Y019193D03*
X055660Y019193D03*
X054960Y019193D03*
X054260Y019193D03*
X053560Y019193D03*
X052760Y019193D03*
X052160Y019193D03*
X051560Y019193D03*
X050960Y019193D03*
X050360Y019193D03*
X049760Y019193D03*
X049160Y019193D03*
X048560Y019193D03*
X047960Y019193D03*
X047360Y019193D03*
X046660Y019193D03*
X046060Y019193D03*
X045460Y019193D03*
X044860Y019193D03*
X044260Y019193D03*
X043660Y019193D03*
X043060Y019193D03*
X042160Y019193D03*
X041660Y019193D03*
X041060Y019193D03*
X040460Y019193D03*
X040060Y019193D03*
X039460Y019193D03*
X038860Y019193D03*
X038360Y019193D03*
X037560Y019093D03*
X036890Y019053D03*
X036390Y018953D03*
X035890Y018753D03*
X035390Y018553D03*
X034890Y018153D03*
X034390Y017753D03*
X033890Y017353D03*
X033690Y016953D03*
X032790Y017153D03*
X032490Y016553D03*
X033390Y016453D03*
X033190Y015953D03*
X032990Y015553D03*
X032890Y015053D03*
X032190Y015453D03*
X031790Y015053D03*
X030790Y015053D03*
X030090Y015053D03*
X029490Y014353D03*
X031490Y014553D03*
X031490Y013953D03*
X033190Y014353D03*
X036760Y014393D03*
X038350Y014603D03*
X038350Y014103D03*
X038350Y013603D03*
X039450Y013603D03*
X039450Y014103D03*
X039450Y014603D03*
X039450Y015103D03*
X038950Y015603D03*
X038350Y015203D03*
X041660Y015693D03*
X043460Y015093D03*
X045460Y014693D03*
X046260Y015193D03*
X046760Y015193D03*
X047160Y015693D03*
X047460Y015393D03*
X048560Y014993D03*
X048960Y014793D03*
X049360Y014993D03*
X049760Y014993D03*
X050360Y014993D03*
X050860Y014993D03*
X051260Y014793D03*
X052560Y014493D03*
X052960Y014193D03*
X053460Y013993D03*
X053960Y014593D03*
X054260Y014093D03*
X054360Y013493D03*
X054460Y012893D03*
X053360Y012693D03*
X052660Y012293D03*
X053360Y012093D03*
X053560Y011493D03*
X054360Y011393D03*
X054460Y011893D03*
X054460Y012393D03*
X056360Y012593D03*
X053460Y013393D03*
X052060Y013793D03*
X052060Y014293D03*
X051260Y013793D03*
X050960Y014093D03*
X050360Y014093D03*
X049710Y014103D03*
X049160Y013793D03*
X048760Y013793D03*
X048350Y014123D03*
X047970Y014123D03*
X046760Y013793D03*
X046260Y013793D03*
X046060Y013093D03*
X046560Y013093D03*
X046360Y012493D03*
X047560Y012493D03*
X048060Y012193D03*
X046760Y011993D03*
X046760Y011493D03*
X046360Y011493D03*
X045160Y011993D03*
X044560Y012293D03*
X043660Y012493D03*
X043260Y012493D03*
X043160Y013093D03*
X043760Y013093D03*
X042160Y012793D03*
X041760Y013093D03*
X041260Y013093D03*
X040550Y012903D03*
X040160Y012893D03*
X039760Y012893D03*
X038050Y013003D03*
X037450Y013003D03*
X036850Y013003D03*
X036350Y013003D03*
X035950Y013003D03*
X035600Y012618D03*
X035600Y012208D03*
X035590Y011758D03*
X036130Y011758D03*
X036750Y011703D03*
X036750Y011203D03*
X036750Y010703D03*
X036050Y010503D03*
X037450Y010303D03*
X038150Y010603D03*
X039360Y010793D03*
X038150Y011203D03*
X038460Y011893D03*
X038960Y011893D03*
X039460Y011893D03*
X040060Y011993D03*
X040560Y011993D03*
X041060Y012093D03*
X041560Y012093D03*
X041560Y011693D03*
X041460Y011193D03*
X043160Y011493D03*
X043260Y011993D03*
X043660Y011993D03*
X043760Y011493D03*
X044360Y011493D03*
X044760Y011293D03*
X044860Y010693D03*
X045560Y010793D03*
X046660Y010993D03*
X046660Y010293D03*
X047660Y009993D03*
X048360Y010213D03*
X048760Y009893D03*
X049260Y009893D03*
X049790Y010173D03*
X050260Y010193D03*
X050860Y010193D03*
X051460Y010193D03*
X052260Y010193D03*
X052760Y010193D03*
X053260Y010193D03*
X053760Y010393D03*
X054160Y010793D03*
X051360Y010993D03*
X049760Y010993D03*
X049260Y011093D03*
X048760Y011093D03*
X048460Y011393D03*
X043660Y010593D03*
X042760Y010393D03*
X041760Y010093D03*
X043960Y009693D03*
X045160Y010093D03*
X045360Y009593D03*
X045860Y009893D03*
X046360Y009893D03*
X046660Y009593D03*
X035000Y011758D03*
X034450Y012003D03*
X034050Y012003D03*
X033490Y011853D03*
X032990Y011753D03*
X032490Y011753D03*
X031990Y011753D03*
X031490Y011753D03*
X030990Y011753D03*
X030490Y011753D03*
X029990Y011753D03*
X029490Y011953D03*
X028950Y011903D03*
X028450Y011903D03*
X027950Y011803D03*
X027350Y012003D03*
X026950Y012003D03*
X026470Y011883D03*
X025870Y011883D03*
X025370Y011983D03*
X024770Y011783D03*
X024370Y011783D03*
X023970Y011783D03*
X023570Y011683D03*
X023070Y011683D03*
X022570Y011683D03*
X022170Y011783D03*
X021960Y011493D03*
X020820Y011308D03*
X020820Y010708D03*
X020070Y010383D03*
X019670Y009983D03*
X019070Y010783D03*
X019270Y011383D03*
X018770Y011383D03*
X018270Y011483D03*
X017670Y011483D03*
X017070Y011483D03*
X016570Y011483D03*
X016570Y012183D03*
X017070Y012183D03*
X017370Y012383D03*
X017670Y012183D03*
X018270Y012183D03*
X018770Y012283D03*
X019270Y012283D03*
X020820Y012408D03*
X020820Y011908D03*
X021570Y012483D03*
X022070Y012483D03*
X022570Y012583D03*
X023070Y012583D03*
X023570Y012483D03*
X024360Y012793D03*
X025070Y012783D03*
X025470Y012683D03*
X025870Y012783D03*
X026470Y012783D03*
X026950Y013003D03*
X027450Y013003D03*
X027950Y013003D03*
X028450Y013003D03*
X028950Y013003D03*
X029590Y013153D03*
X031490Y013053D03*
X033190Y013153D03*
X033450Y012703D03*
X033940Y012803D03*
X034450Y012803D03*
X034850Y013003D03*
X035350Y013003D03*
X031590Y012353D03*
X034550Y011303D03*
X033950Y010403D03*
X024470Y013483D03*
X024970Y013883D03*
X024470Y014083D03*
X023670Y014083D03*
X025270Y014483D03*
X024470Y014683D03*
X024470Y015283D03*
X023670Y015283D03*
X023670Y014683D03*
X022670Y015083D03*
X022970Y015483D03*
X024570Y015783D03*
X024770Y016183D03*
X023570Y016383D03*
X022970Y016283D03*
X022170Y016983D03*
X021570Y016983D03*
X025365Y017329D03*
X021870Y018583D03*
X021970Y019283D03*
X020070Y019183D03*
X019370Y019983D03*
X017160Y020293D03*
X021970Y020383D03*
X026370Y019983D03*
X030690Y018653D03*
X033090Y017653D03*
X033490Y018053D03*
X033890Y018453D03*
X034290Y018753D03*
X034690Y019053D03*
X035190Y019353D03*
X035790Y019553D03*
X036390Y019753D03*
X036990Y019853D03*
X037590Y019853D03*
X038360Y019793D03*
X038860Y019793D03*
X039460Y019793D03*
X040060Y019793D03*
X040460Y019793D03*
X041060Y019793D03*
X041660Y019793D03*
X042160Y019793D03*
X043060Y019793D03*
X043660Y019793D03*
X044260Y019793D03*
X044860Y019793D03*
X045460Y019793D03*
X046060Y019793D03*
X046660Y019793D03*
X047360Y019793D03*
X047960Y019793D03*
X048560Y019793D03*
X049160Y019793D03*
X049760Y019793D03*
X050360Y019793D03*
X050960Y019793D03*
X051560Y019793D03*
X052160Y019793D03*
X052760Y019793D03*
X053560Y019793D03*
X054260Y019793D03*
X054960Y019793D03*
X055660Y019793D03*
X056260Y019793D03*
X056960Y019693D03*
X056960Y017893D03*
X057060Y017393D03*
X057860Y017393D03*
X057960Y017893D03*
X057860Y016593D03*
X057060Y016593D03*
X055360Y016193D03*
X053160Y015693D03*
X052360Y015693D03*
X050760Y015693D03*
X049760Y015693D03*
X048760Y015693D03*
X046660Y015793D03*
X046260Y016393D03*
X047060Y016593D03*
X047760Y017293D03*
X048760Y017393D03*
X049760Y017293D03*
X050760Y017293D03*
X051660Y017293D03*
X053760Y017393D03*
X048760Y018193D03*
X044460Y017693D03*
X043460Y017093D03*
X041660Y017693D03*
X042160Y018093D03*
X039360Y017693D03*
X036460Y016793D03*
X032290Y016053D03*
X030890Y016053D03*
X030390Y016453D03*
X029890Y016053D03*
X022170Y014783D03*
X021570Y014783D03*
X019570Y015083D03*
X019770Y013383D03*
X019170Y013383D03*
X023670Y013483D03*
X012160Y014293D03*
X013560Y018293D03*
X016060Y018293D03*
X010360Y019093D03*
X021770Y021633D03*
X023670Y022063D03*
X025840Y021773D03*
X023860Y024093D03*
X030060Y023993D03*
X030360Y026493D03*
X026960Y026593D03*
X026360Y027693D03*
X030660Y028293D03*
X032460Y030693D03*
X026160Y031593D03*
X016560Y031293D03*
X009260Y028493D03*
X011160Y025193D03*
X040660Y026493D03*
X044360Y027393D03*
X047860Y027693D03*
X050860Y027693D03*
X050860Y026993D03*
X047860Y026293D03*
X052460Y025393D03*
X054460Y025393D03*
X053860Y024393D03*
X051960Y024393D03*
X047960Y024293D03*
X051060Y022293D03*
X050660Y021793D03*
X051960Y021893D03*
X053060Y021893D03*
X054360Y021393D03*
X054860Y021893D03*
X056060Y021893D03*
X060660Y023993D03*
X067360Y025993D03*
X070160Y027693D03*
X061160Y026093D03*
X053460Y028393D03*
X052360Y031293D03*
X046560Y031693D03*
X040760Y030893D03*
X059760Y031993D03*
X068160Y030893D03*
X071760Y030893D03*
X080660Y030593D03*
X083260Y031393D03*
X088760Y031893D03*
X090960Y030693D03*
X091660Y030293D03*
X089760Y030093D03*
X089960Y028893D03*
X088660Y028493D03*
X087760Y027393D03*
X087360Y025993D03*
X093360Y028793D03*
X095160Y029293D03*
X100960Y026893D03*
X100960Y024993D03*
X099960Y024993D03*
X099060Y025093D03*
X110660Y019893D03*
X107360Y016893D03*
X073560Y009193D03*
X072860Y009993D03*
X066260Y011993D03*
X062460Y010993D03*
X058860Y010393D03*
X052060Y012893D03*
X049760Y013393D03*
X048960Y013093D03*
X046560Y014593D03*
X043660Y013693D03*
X042560Y014293D03*
X057260Y013693D03*
X061060Y013893D03*
X045960Y021793D03*
X022420Y010108D03*
X021820Y009708D03*
X016070Y009383D03*
X013870Y010083D03*
X105960Y031393D03*
D19*
X007910Y032943D02*
X007910Y008843D01*
X127010Y008843D01*
X127010Y020443D01*
X107370Y020443D01*
X107205Y020512D01*
X107078Y020638D01*
X107010Y020804D01*
X107010Y032943D01*
X007910Y032943D01*
X007910Y032920D02*
X107010Y032920D01*
X107010Y032821D02*
X007910Y032821D01*
X007910Y032723D02*
X107010Y032723D01*
X107010Y032624D02*
X007910Y032624D01*
X007910Y032526D02*
X107010Y032526D01*
X107010Y032427D02*
X007910Y032427D01*
X007910Y032329D02*
X107010Y032329D01*
X107010Y032230D02*
X007910Y032230D01*
X007910Y032132D02*
X107010Y032132D01*
X107010Y032033D02*
X007910Y032033D01*
X007910Y031935D02*
X107010Y031935D01*
X107010Y031836D02*
X100386Y031836D01*
X100357Y031853D02*
X100095Y031923D01*
X099824Y031923D01*
X099562Y031853D01*
X099327Y031718D01*
X099135Y031526D01*
X099000Y031291D01*
X098930Y031029D01*
X098930Y030758D01*
X099000Y030496D01*
X099135Y030261D01*
X099327Y030069D01*
X099562Y029934D01*
X099824Y029863D01*
X100095Y029863D01*
X100357Y029934D01*
X100592Y030069D01*
X100784Y030261D01*
X100919Y030496D01*
X100990Y030758D01*
X100990Y031029D01*
X100919Y031291D01*
X100784Y031526D01*
X100592Y031718D01*
X100357Y031853D01*
X100557Y031738D02*
X107010Y031738D01*
X107010Y031639D02*
X100670Y031639D01*
X100769Y031541D02*
X107010Y031541D01*
X107010Y031442D02*
X100832Y031442D01*
X100889Y031344D02*
X107010Y031344D01*
X107010Y031245D02*
X100932Y031245D01*
X100958Y031147D02*
X107010Y031147D01*
X107010Y031048D02*
X100984Y031048D01*
X100990Y030950D02*
X107010Y030950D01*
X107010Y030851D02*
X100990Y030851D01*
X100988Y030753D02*
X107010Y030753D01*
X107010Y030654D02*
X100962Y030654D01*
X100935Y030556D02*
X107010Y030556D01*
X107010Y030457D02*
X100897Y030457D01*
X100840Y030359D02*
X107010Y030359D01*
X107010Y030260D02*
X100783Y030260D01*
X100685Y030162D02*
X107010Y030162D01*
X107010Y030063D02*
X100582Y030063D01*
X100411Y029965D02*
X107010Y029965D01*
X107010Y029866D02*
X100107Y029866D01*
X099813Y029866D02*
X088970Y029866D01*
X088963Y029873D02*
X088799Y029941D01*
X088620Y029941D01*
X088456Y029873D01*
X088330Y029747D01*
X088261Y029582D01*
X088261Y029404D01*
X088267Y029391D01*
X088152Y029438D01*
X087974Y029438D01*
X087809Y029370D01*
X087683Y029244D01*
X087615Y029079D01*
X087615Y028901D01*
X087683Y028736D01*
X087809Y028610D01*
X087974Y028542D01*
X088152Y028542D01*
X088316Y028610D01*
X088443Y028736D01*
X088511Y028901D01*
X088511Y029079D01*
X088505Y029093D01*
X088620Y029045D01*
X088799Y029045D01*
X088963Y029113D01*
X089089Y029239D01*
X089158Y029404D01*
X089158Y029582D01*
X089089Y029747D01*
X088963Y029873D01*
X089069Y029768D02*
X107010Y029768D01*
X107010Y029669D02*
X089122Y029669D01*
X089158Y029571D02*
X107010Y029571D01*
X107010Y029472D02*
X089158Y029472D01*
X089145Y029374D02*
X107010Y029374D01*
X107010Y029275D02*
X101277Y029275D01*
X101292Y029269D02*
X101092Y029352D01*
X100875Y029352D01*
X100674Y029269D01*
X100521Y029116D01*
X100438Y028915D01*
X100438Y028698D01*
X100521Y028498D01*
X100674Y028344D01*
X100875Y028261D01*
X101092Y028261D01*
X101292Y028344D01*
X101445Y028498D01*
X101528Y028698D01*
X101528Y028915D01*
X101445Y029116D01*
X101292Y029269D01*
X101384Y029177D02*
X107010Y029177D01*
X107010Y029078D02*
X101461Y029078D01*
X101502Y028980D02*
X107010Y028980D01*
X107010Y028881D02*
X101528Y028881D01*
X101528Y028783D02*
X107010Y028783D01*
X107010Y028684D02*
X101523Y028684D01*
X101482Y028586D02*
X107010Y028586D01*
X107010Y028487D02*
X101435Y028487D01*
X101336Y028389D02*
X107010Y028389D01*
X107010Y028290D02*
X101161Y028290D01*
X100805Y028290D02*
X092863Y028290D01*
X092839Y028347D02*
X092713Y028473D01*
X092549Y028541D01*
X092408Y028541D01*
X092408Y028682D01*
X092339Y028847D01*
X092213Y028973D01*
X092049Y029041D01*
X091870Y029041D01*
X091706Y028973D01*
X091580Y028847D01*
X091511Y028682D01*
X091511Y028504D01*
X091580Y028339D01*
X091706Y028213D01*
X091870Y028145D01*
X092011Y028145D01*
X092011Y028004D01*
X092080Y027839D01*
X092206Y027713D01*
X092370Y027645D01*
X092549Y027645D01*
X092713Y027713D01*
X092839Y027839D01*
X092908Y028004D01*
X092908Y028182D01*
X092839Y028347D01*
X092798Y028389D02*
X100630Y028389D01*
X100531Y028487D02*
X092679Y028487D01*
X092408Y028586D02*
X100484Y028586D01*
X100444Y028684D02*
X092407Y028684D01*
X092366Y028783D02*
X100438Y028783D01*
X100438Y028881D02*
X092305Y028881D01*
X092197Y028980D02*
X100465Y028980D01*
X100505Y029078D02*
X088879Y029078D01*
X089027Y029177D02*
X100582Y029177D01*
X100690Y029275D02*
X089104Y029275D01*
X088540Y029078D02*
X088511Y029078D01*
X088511Y028980D02*
X091722Y028980D01*
X091614Y028881D02*
X088503Y028881D01*
X088462Y028783D02*
X091553Y028783D01*
X091512Y028684D02*
X088391Y028684D01*
X088258Y028586D02*
X091511Y028586D01*
X091518Y028487D02*
X080917Y028487D01*
X080881Y028524D02*
X080607Y028637D01*
X080312Y028637D01*
X080038Y028524D01*
X079829Y028315D01*
X079716Y028041D01*
X079716Y027745D01*
X079829Y027472D01*
X080038Y027263D01*
X080312Y027150D01*
X080607Y027150D01*
X080881Y027263D01*
X081090Y027472D01*
X081203Y027745D01*
X081203Y028041D01*
X081090Y028315D01*
X080881Y028524D01*
X080731Y028586D02*
X087868Y028586D01*
X087735Y028684D02*
X007910Y028684D01*
X007910Y028586D02*
X022688Y028586D01*
X022812Y028637D02*
X022538Y028524D01*
X022329Y028315D01*
X022216Y028041D01*
X022216Y027745D01*
X022329Y027472D01*
X022538Y027263D01*
X022812Y027150D01*
X023107Y027150D01*
X023381Y027263D01*
X023590Y027472D01*
X023703Y027745D01*
X023703Y028041D01*
X023590Y028315D01*
X023381Y028524D01*
X023107Y028637D01*
X022812Y028637D01*
X022502Y028487D02*
X018638Y028487D01*
X018564Y028518D02*
X018255Y028518D01*
X017971Y028400D01*
X017753Y028182D01*
X017635Y027897D01*
X017635Y027589D01*
X017753Y027304D01*
X017971Y027086D01*
X018255Y026968D01*
X018564Y026968D01*
X018849Y027086D01*
X019067Y027304D01*
X019185Y027589D01*
X019185Y027897D01*
X019067Y028182D01*
X018849Y028400D01*
X018564Y028518D01*
X018860Y028389D02*
X022403Y028389D01*
X022319Y028290D02*
X018958Y028290D01*
X019057Y028192D02*
X022278Y028192D01*
X022237Y028093D02*
X019103Y028093D01*
X019144Y027995D02*
X022216Y027995D01*
X022216Y027896D02*
X019185Y027896D01*
X019185Y027798D02*
X022216Y027798D01*
X022235Y027699D02*
X019185Y027699D01*
X019185Y027601D02*
X022276Y027601D01*
X022316Y027502D02*
X019149Y027502D01*
X019108Y027404D02*
X022397Y027404D01*
X022496Y027305D02*
X019067Y027305D01*
X018969Y027207D02*
X022673Y027207D01*
X023246Y027207D02*
X035350Y027207D01*
X035253Y027304D02*
X035471Y027086D01*
X035755Y026968D01*
X036064Y026968D01*
X036349Y027086D01*
X036567Y027304D01*
X036685Y027589D01*
X036685Y027897D01*
X036567Y028182D01*
X036349Y028400D01*
X036064Y028518D01*
X035755Y028518D01*
X035471Y028400D01*
X035253Y028182D01*
X035135Y027897D01*
X035135Y027589D01*
X035253Y027304D01*
X035252Y027305D02*
X023423Y027305D01*
X023522Y027404D02*
X035211Y027404D01*
X035170Y027502D02*
X023603Y027502D01*
X023643Y027601D02*
X035135Y027601D01*
X035135Y027699D02*
X023684Y027699D01*
X023703Y027798D02*
X035135Y027798D01*
X035135Y027896D02*
X023703Y027896D01*
X023703Y027995D02*
X035175Y027995D01*
X035216Y028093D02*
X023682Y028093D01*
X023641Y028192D02*
X035262Y028192D01*
X035361Y028290D02*
X023600Y028290D01*
X023516Y028389D02*
X035459Y028389D01*
X035681Y028487D02*
X023417Y028487D01*
X023231Y028586D02*
X040188Y028586D01*
X040312Y028637D02*
X040038Y028524D01*
X039829Y028315D01*
X039716Y028041D01*
X039716Y027745D01*
X039829Y027472D01*
X040038Y027263D01*
X040312Y027150D01*
X040607Y027150D01*
X040881Y027263D01*
X041090Y027472D01*
X041203Y027745D01*
X041203Y028041D01*
X041090Y028315D01*
X040881Y028524D01*
X040607Y028637D01*
X040312Y028637D01*
X040002Y028487D02*
X036138Y028487D01*
X036360Y028389D02*
X039903Y028389D01*
X039819Y028290D02*
X036458Y028290D01*
X036557Y028192D02*
X039778Y028192D01*
X039737Y028093D02*
X036603Y028093D01*
X036644Y027995D02*
X039716Y027995D01*
X039716Y027896D02*
X036685Y027896D01*
X036685Y027798D02*
X039716Y027798D01*
X039735Y027699D02*
X036685Y027699D01*
X036685Y027601D02*
X039776Y027601D01*
X039816Y027502D02*
X036649Y027502D01*
X036608Y027404D02*
X039897Y027404D01*
X039996Y027305D02*
X036567Y027305D01*
X036469Y027207D02*
X040173Y027207D01*
X040746Y027207D02*
X050537Y027207D01*
X050537Y027209D02*
X050480Y027069D01*
X050480Y026918D01*
X050537Y026778D01*
X050644Y026671D01*
X050784Y026613D01*
X050935Y026613D01*
X051075Y026671D01*
X051182Y026778D01*
X051240Y026918D01*
X051240Y027069D01*
X051182Y027209D01*
X051075Y027315D01*
X051008Y027343D01*
X051075Y027371D01*
X051182Y027478D01*
X051240Y027618D01*
X051240Y027769D01*
X051182Y027909D01*
X051075Y028015D01*
X050935Y028073D01*
X050784Y028073D01*
X050644Y028015D01*
X050537Y027909D01*
X050480Y027769D01*
X050480Y027618D01*
X050537Y027478D01*
X050644Y027371D01*
X050712Y027343D01*
X050644Y027315D01*
X050537Y027209D01*
X050496Y027108D02*
X036371Y027108D01*
X036164Y027010D02*
X050480Y027010D01*
X050482Y026911D02*
X007910Y026911D01*
X007910Y026813D02*
X050523Y026813D01*
X050601Y026714D02*
X007910Y026714D01*
X007910Y026616D02*
X016229Y026616D01*
X016355Y026668D02*
X016071Y026550D01*
X015853Y026332D01*
X015735Y026047D01*
X015735Y025739D01*
X015853Y025454D01*
X016071Y025236D01*
X016355Y025118D01*
X016664Y025118D01*
X016949Y025236D01*
X017167Y025454D01*
X017285Y025739D01*
X017285Y026047D01*
X017167Y026332D01*
X016949Y026550D01*
X016664Y026668D01*
X016355Y026668D01*
X016038Y026517D02*
X007910Y026517D01*
X007910Y026419D02*
X015939Y026419D01*
X015848Y026320D02*
X007910Y026320D01*
X007910Y026222D02*
X015807Y026222D01*
X015766Y026123D02*
X007910Y026123D01*
X007910Y026025D02*
X015735Y026025D01*
X015735Y025926D02*
X007910Y025926D01*
X007910Y025828D02*
X015735Y025828D01*
X015739Y025729D02*
X007910Y025729D01*
X007910Y025631D02*
X015779Y025631D01*
X015820Y025532D02*
X007910Y025532D01*
X007910Y025434D02*
X015873Y025434D01*
X015971Y025335D02*
X007910Y025335D01*
X007910Y025237D02*
X016070Y025237D01*
X016307Y025138D02*
X007910Y025138D01*
X007910Y025040D02*
X107010Y025040D01*
X107010Y025138D02*
X102676Y025138D01*
X102830Y025202D02*
X103111Y025484D01*
X103264Y025852D01*
X103264Y026250D01*
X103111Y026618D01*
X102830Y026900D01*
X102462Y027052D01*
X102064Y027052D01*
X101696Y026900D01*
X101414Y026618D01*
X101261Y026250D01*
X101261Y025852D01*
X101414Y025484D01*
X101696Y025202D01*
X102064Y025050D01*
X102462Y025050D01*
X102830Y025202D01*
X102865Y025237D02*
X107010Y025237D01*
X107010Y025335D02*
X102963Y025335D01*
X103062Y025434D02*
X107010Y025434D01*
X107010Y025532D02*
X103132Y025532D01*
X103172Y025631D02*
X107010Y025631D01*
X107010Y025729D02*
X103213Y025729D01*
X103254Y025828D02*
X107010Y025828D01*
X107010Y025926D02*
X103264Y025926D01*
X103264Y026025D02*
X107010Y026025D01*
X107010Y026123D02*
X103264Y026123D01*
X103264Y026222D02*
X107010Y026222D01*
X107010Y026320D02*
X103235Y026320D01*
X103194Y026419D02*
X107010Y026419D01*
X107010Y026517D02*
X103153Y026517D01*
X103112Y026616D02*
X107010Y026616D01*
X107010Y026714D02*
X103015Y026714D01*
X102916Y026813D02*
X107010Y026813D01*
X107010Y026911D02*
X102801Y026911D01*
X102563Y027010D02*
X107010Y027010D01*
X107010Y027108D02*
X076371Y027108D01*
X076349Y027086D02*
X076567Y027304D01*
X076685Y027589D01*
X076685Y027897D01*
X076567Y028182D01*
X076349Y028400D01*
X076064Y028518D01*
X075755Y028518D01*
X075471Y028400D01*
X075253Y028182D01*
X075135Y027897D01*
X075135Y027589D01*
X075253Y027304D01*
X075471Y027086D01*
X075755Y026968D01*
X076064Y026968D01*
X076349Y027086D01*
X076469Y027207D02*
X080173Y027207D01*
X079996Y027305D02*
X076567Y027305D01*
X076608Y027404D02*
X079897Y027404D01*
X079816Y027502D02*
X076649Y027502D01*
X076685Y027601D02*
X079776Y027601D01*
X079735Y027699D02*
X076685Y027699D01*
X076685Y027798D02*
X079716Y027798D01*
X079716Y027896D02*
X076685Y027896D01*
X076644Y027995D02*
X079716Y027995D01*
X079737Y028093D02*
X076603Y028093D01*
X076557Y028192D02*
X079778Y028192D01*
X079819Y028290D02*
X076458Y028290D01*
X076360Y028389D02*
X079903Y028389D01*
X080002Y028487D02*
X076138Y028487D01*
X075681Y028487D02*
X063417Y028487D01*
X063381Y028524D02*
X063107Y028637D01*
X062812Y028637D01*
X062538Y028524D01*
X062329Y028315D01*
X062216Y028041D01*
X062216Y027745D01*
X062329Y027472D01*
X062538Y027263D01*
X062812Y027150D01*
X063107Y027150D01*
X063381Y027263D01*
X063590Y027472D01*
X063703Y027745D01*
X063703Y028041D01*
X063590Y028315D01*
X063381Y028524D01*
X063231Y028586D02*
X080188Y028586D01*
X081016Y028389D02*
X088864Y028389D01*
X088870Y028391D02*
X088706Y028323D01*
X088580Y028197D01*
X088511Y028032D01*
X088511Y027854D01*
X088580Y027689D01*
X088706Y027563D01*
X088870Y027495D01*
X089049Y027495D01*
X089213Y027563D01*
X089339Y027689D01*
X089408Y027854D01*
X089408Y028032D01*
X089339Y028197D01*
X089213Y028323D01*
X089049Y028391D01*
X088870Y028391D01*
X089055Y028389D02*
X091559Y028389D01*
X091629Y028290D02*
X089246Y028290D01*
X089342Y028192D02*
X091758Y028192D01*
X092011Y028093D02*
X090465Y028093D01*
X090513Y028073D02*
X090349Y028141D01*
X090170Y028141D01*
X090006Y028073D01*
X089880Y027947D01*
X089811Y027782D01*
X089811Y027604D01*
X089880Y027439D01*
X090006Y027313D01*
X090170Y027245D01*
X090349Y027245D01*
X090513Y027313D01*
X090639Y027439D01*
X090708Y027604D01*
X090708Y027782D01*
X090639Y027947D01*
X090513Y028073D01*
X090592Y027995D02*
X091058Y027995D01*
X091006Y027973D02*
X090880Y027847D01*
X090811Y027682D01*
X090811Y027504D01*
X090880Y027339D01*
X091006Y027213D01*
X091170Y027145D01*
X091349Y027145D01*
X091513Y027213D01*
X091639Y027339D01*
X091708Y027504D01*
X091708Y027682D01*
X091639Y027847D01*
X091513Y027973D01*
X091349Y028041D01*
X091170Y028041D01*
X091006Y027973D01*
X090929Y027896D02*
X090660Y027896D01*
X090701Y027798D02*
X090859Y027798D01*
X090818Y027699D02*
X090708Y027699D01*
X090706Y027601D02*
X090811Y027601D01*
X090812Y027502D02*
X090665Y027502D01*
X090604Y027404D02*
X090853Y027404D01*
X090914Y027305D02*
X090494Y027305D01*
X090025Y027305D02*
X080923Y027305D01*
X081022Y027404D02*
X089915Y027404D01*
X089854Y027502D02*
X089066Y027502D01*
X089251Y027601D02*
X089813Y027601D01*
X089811Y027699D02*
X089343Y027699D01*
X089384Y027798D02*
X089818Y027798D01*
X089859Y027896D02*
X089408Y027896D01*
X089408Y027995D02*
X089927Y027995D01*
X090054Y028093D02*
X089382Y028093D01*
X088673Y028290D02*
X081100Y028290D01*
X081141Y028192D02*
X088577Y028192D01*
X088537Y028093D02*
X081182Y028093D01*
X081203Y027995D02*
X088511Y027995D01*
X088511Y027896D02*
X081203Y027896D01*
X081203Y027798D02*
X088535Y027798D01*
X088576Y027699D02*
X081184Y027699D01*
X081143Y027601D02*
X088668Y027601D01*
X088853Y027502D02*
X081103Y027502D01*
X080746Y027207D02*
X091022Y027207D01*
X091498Y027207D02*
X107010Y027207D01*
X107010Y027305D02*
X091605Y027305D01*
X091666Y027404D02*
X107010Y027404D01*
X107010Y027502D02*
X091707Y027502D01*
X091708Y027601D02*
X107010Y027601D01*
X107010Y027699D02*
X092679Y027699D01*
X092798Y027798D02*
X107010Y027798D01*
X107010Y027896D02*
X092863Y027896D01*
X092904Y027995D02*
X107010Y027995D01*
X107010Y028093D02*
X092908Y028093D01*
X092904Y028192D02*
X107010Y028192D01*
X101962Y027010D02*
X098036Y027010D01*
X097934Y027052D02*
X097536Y027052D01*
X097168Y026900D01*
X096886Y026618D01*
X096734Y026250D01*
X096734Y025852D01*
X096886Y025484D01*
X097168Y025202D01*
X097536Y025050D01*
X097934Y025050D01*
X098302Y025202D01*
X098584Y025484D01*
X098736Y025852D01*
X098736Y026250D01*
X098584Y026618D01*
X098302Y026900D01*
X097934Y027052D01*
X098274Y026911D02*
X101724Y026911D01*
X101609Y026813D02*
X098389Y026813D01*
X098487Y026714D02*
X101510Y026714D01*
X101413Y026616D02*
X098585Y026616D01*
X098626Y026517D02*
X101372Y026517D01*
X101331Y026419D02*
X098666Y026419D01*
X098707Y026320D02*
X101291Y026320D01*
X101261Y026222D02*
X098736Y026222D01*
X098736Y026123D02*
X101261Y026123D01*
X101261Y026025D02*
X098736Y026025D01*
X098736Y025926D02*
X101261Y025926D01*
X101271Y025828D02*
X098726Y025828D01*
X098686Y025729D02*
X101312Y025729D01*
X101353Y025631D02*
X098645Y025631D01*
X098604Y025532D02*
X101394Y025532D01*
X101464Y025434D02*
X098534Y025434D01*
X098436Y025335D02*
X101562Y025335D01*
X101661Y025237D02*
X098337Y025237D01*
X098148Y025138D02*
X101849Y025138D01*
X097322Y025138D02*
X076112Y025138D01*
X076064Y025118D02*
X076349Y025236D01*
X076567Y025454D01*
X076685Y025739D01*
X076685Y026047D01*
X076567Y026332D01*
X076349Y026550D01*
X076064Y026668D01*
X075755Y026668D01*
X075471Y026550D01*
X075253Y026332D01*
X075135Y026047D01*
X075135Y025739D01*
X075253Y025454D01*
X075471Y025236D01*
X075755Y025118D01*
X076064Y025118D01*
X076064Y024818D02*
X075755Y024818D01*
X075471Y024700D01*
X075253Y024482D01*
X075135Y024197D01*
X075135Y023889D01*
X075253Y023604D01*
X075471Y023386D01*
X075755Y023268D01*
X076064Y023268D01*
X076349Y023386D01*
X076567Y023604D01*
X076685Y023889D01*
X076685Y024197D01*
X076567Y024482D01*
X076349Y024700D01*
X076064Y024818D01*
X076242Y024744D02*
X107010Y024744D01*
X107010Y024646D02*
X076403Y024646D01*
X076501Y024547D02*
X084095Y024547D01*
X084038Y024524D02*
X083829Y024315D01*
X083716Y024041D01*
X083716Y023745D01*
X083829Y023472D01*
X084038Y023263D01*
X084312Y023150D01*
X084607Y023150D01*
X084881Y023263D01*
X085090Y023472D01*
X085203Y023745D01*
X085203Y024041D01*
X085090Y024315D01*
X084881Y024524D01*
X084607Y024637D01*
X084312Y024637D01*
X084038Y024524D01*
X083963Y024449D02*
X076580Y024449D01*
X076621Y024350D02*
X083865Y024350D01*
X083803Y024252D02*
X076662Y024252D01*
X076685Y024153D02*
X083762Y024153D01*
X083721Y024055D02*
X076685Y024055D01*
X076685Y023956D02*
X083716Y023956D01*
X083716Y023858D02*
X076672Y023858D01*
X076631Y023759D02*
X083716Y023759D01*
X083751Y023661D02*
X076590Y023661D01*
X076525Y023562D02*
X083792Y023562D01*
X083837Y023464D02*
X076426Y023464D01*
X076298Y023365D02*
X083936Y023365D01*
X084034Y023267D02*
X071223Y023267D01*
X071175Y023315D02*
X071035Y023373D01*
X070884Y023373D01*
X070744Y023315D01*
X070637Y023209D01*
X070580Y023069D01*
X070580Y022918D01*
X070637Y022778D01*
X070744Y022671D01*
X070812Y022643D01*
X070744Y022615D01*
X070637Y022509D01*
X070580Y022369D01*
X070580Y022218D01*
X070637Y022078D01*
X070744Y021971D01*
X070812Y021943D01*
X070744Y021915D01*
X070637Y021809D01*
X070580Y021669D01*
X070580Y021518D01*
X070637Y021378D01*
X070744Y021271D01*
X070884Y021213D01*
X071035Y021213D01*
X071175Y021271D01*
X071282Y021378D01*
X071340Y021518D01*
X071340Y021669D01*
X071282Y021809D01*
X071175Y021915D01*
X071108Y021943D01*
X071175Y021971D01*
X071282Y022078D01*
X071340Y022218D01*
X071340Y022369D01*
X071282Y022509D01*
X071175Y022615D01*
X071108Y022643D01*
X071175Y022671D01*
X071282Y022778D01*
X071340Y022918D01*
X071340Y023069D01*
X071282Y023209D01*
X071175Y023315D01*
X071054Y023365D02*
X073571Y023365D01*
X073521Y023386D02*
X073805Y023268D01*
X074114Y023268D01*
X074399Y023386D01*
X074617Y023604D01*
X074735Y023889D01*
X074735Y024197D01*
X074617Y024482D01*
X074399Y024700D01*
X074114Y024818D01*
X073805Y024818D01*
X073521Y024700D01*
X073303Y024482D01*
X073185Y024197D01*
X073185Y023889D01*
X073303Y023604D01*
X073521Y023386D01*
X073443Y023464D02*
X067582Y023464D01*
X067590Y023472D02*
X067703Y023745D01*
X067703Y024041D01*
X067590Y024315D01*
X067381Y024524D01*
X067107Y024637D01*
X066812Y024637D01*
X066538Y024524D01*
X066329Y024315D01*
X066216Y024041D01*
X066216Y023745D01*
X066329Y023472D01*
X066538Y023263D01*
X066812Y023150D01*
X067107Y023150D01*
X067381Y023263D01*
X067590Y023472D01*
X067627Y023562D02*
X073344Y023562D01*
X073279Y023661D02*
X067668Y023661D01*
X067703Y023759D02*
X073238Y023759D01*
X073197Y023858D02*
X067703Y023858D01*
X067703Y023956D02*
X073185Y023956D01*
X073185Y024055D02*
X067698Y024055D01*
X067657Y024153D02*
X073185Y024153D01*
X073207Y024252D02*
X067616Y024252D01*
X067554Y024350D02*
X073248Y024350D01*
X073289Y024449D02*
X067456Y024449D01*
X067324Y024547D02*
X073368Y024547D01*
X073466Y024646D02*
X056953Y024646D01*
X056899Y024700D02*
X056614Y024818D01*
X056305Y024818D01*
X056021Y024700D01*
X055803Y024482D01*
X055685Y024197D01*
X055685Y023889D01*
X055803Y023604D01*
X056021Y023386D01*
X056305Y023268D01*
X056614Y023268D01*
X056899Y023386D01*
X057117Y023604D01*
X057235Y023889D01*
X057235Y024197D01*
X057117Y024482D01*
X056899Y024700D01*
X056792Y024744D02*
X073627Y024744D01*
X073807Y025138D02*
X058612Y025138D01*
X058564Y025118D02*
X058849Y025236D01*
X059067Y025454D01*
X059185Y025739D01*
X059185Y026047D01*
X059067Y026332D01*
X058849Y026550D01*
X058564Y026668D01*
X058255Y026668D01*
X057971Y026550D01*
X057753Y026332D01*
X057635Y026047D01*
X057635Y025739D01*
X057753Y025454D01*
X057971Y025236D01*
X058255Y025118D01*
X058564Y025118D01*
X058849Y025237D02*
X073570Y025237D01*
X073571Y025236D02*
X073855Y025118D01*
X074164Y025118D01*
X074449Y025236D01*
X074667Y025454D01*
X074785Y025739D01*
X074785Y026047D01*
X074667Y026332D01*
X074449Y026550D01*
X074164Y026668D01*
X073855Y026668D01*
X073571Y026550D01*
X073353Y026332D01*
X073235Y026047D01*
X073235Y025739D01*
X073353Y025454D01*
X073571Y025236D01*
X073471Y025335D02*
X058948Y025335D01*
X059046Y025434D02*
X064648Y025434D01*
X064651Y025431D02*
X064851Y025348D01*
X065068Y025348D01*
X065268Y025431D01*
X065422Y025584D01*
X065505Y025785D01*
X065505Y026002D01*
X065422Y026202D01*
X065268Y026356D01*
X065068Y026439D01*
X064851Y026439D01*
X064651Y026356D01*
X064497Y026202D01*
X064414Y026002D01*
X064414Y025785D01*
X064497Y025584D01*
X064651Y025431D01*
X064549Y025532D02*
X059099Y025532D01*
X059140Y025631D02*
X064478Y025631D01*
X064437Y025729D02*
X059180Y025729D01*
X059185Y025828D02*
X064414Y025828D01*
X064414Y025926D02*
X059185Y025926D01*
X059185Y026025D02*
X064424Y026025D01*
X064465Y026123D02*
X059153Y026123D01*
X059112Y026222D02*
X064517Y026222D01*
X064615Y026320D02*
X059071Y026320D01*
X058980Y026419D02*
X064803Y026419D01*
X065116Y026419D02*
X073439Y026419D01*
X073348Y026320D02*
X065304Y026320D01*
X065402Y026222D02*
X073307Y026222D01*
X073266Y026123D02*
X065454Y026123D01*
X065495Y026025D02*
X073235Y026025D01*
X073235Y025926D02*
X065505Y025926D01*
X065505Y025828D02*
X073235Y025828D01*
X073239Y025729D02*
X065482Y025729D01*
X065441Y025631D02*
X073279Y025631D01*
X073320Y025532D02*
X065370Y025532D01*
X065271Y025434D02*
X073373Y025434D01*
X074212Y025138D02*
X075707Y025138D01*
X075470Y025237D02*
X074449Y025237D01*
X074548Y025335D02*
X075371Y025335D01*
X075273Y025434D02*
X074646Y025434D01*
X074699Y025532D02*
X075220Y025532D01*
X075179Y025631D02*
X074740Y025631D01*
X074780Y025729D02*
X075139Y025729D01*
X075135Y025828D02*
X074785Y025828D01*
X074785Y025926D02*
X075135Y025926D01*
X075135Y026025D02*
X074785Y026025D01*
X074753Y026123D02*
X075166Y026123D01*
X075207Y026222D02*
X074712Y026222D01*
X074671Y026320D02*
X075248Y026320D01*
X075339Y026419D02*
X074580Y026419D01*
X074481Y026517D02*
X075438Y026517D01*
X075629Y026616D02*
X074290Y026616D01*
X073729Y026616D02*
X058690Y026616D01*
X058881Y026517D02*
X073538Y026517D01*
X075448Y027108D02*
X058871Y027108D01*
X058849Y027086D02*
X059067Y027304D01*
X059185Y027589D01*
X059185Y027897D01*
X059067Y028182D01*
X058849Y028400D01*
X058564Y028518D01*
X058255Y028518D01*
X057971Y028400D01*
X057753Y028182D01*
X057635Y027897D01*
X057635Y027589D01*
X057753Y027304D01*
X057971Y027086D01*
X058255Y026968D01*
X058564Y026968D01*
X058849Y027086D01*
X058969Y027207D02*
X062673Y027207D01*
X062496Y027305D02*
X059067Y027305D01*
X059108Y027404D02*
X062397Y027404D01*
X062316Y027502D02*
X059149Y027502D01*
X059185Y027601D02*
X062276Y027601D01*
X062235Y027699D02*
X059185Y027699D01*
X059185Y027798D02*
X062216Y027798D01*
X062216Y027896D02*
X059185Y027896D01*
X059144Y027995D02*
X062216Y027995D01*
X062237Y028093D02*
X059103Y028093D01*
X059057Y028192D02*
X062278Y028192D01*
X062319Y028290D02*
X058958Y028290D01*
X058860Y028389D02*
X062403Y028389D01*
X062502Y028487D02*
X058638Y028487D01*
X058181Y028487D02*
X040917Y028487D01*
X041016Y028389D02*
X057959Y028389D01*
X057861Y028290D02*
X041100Y028290D01*
X041141Y028192D02*
X057762Y028192D01*
X057716Y028093D02*
X041182Y028093D01*
X041203Y027995D02*
X050624Y027995D01*
X050532Y027896D02*
X041203Y027896D01*
X041203Y027798D02*
X050492Y027798D01*
X050480Y027699D02*
X041184Y027699D01*
X041143Y027601D02*
X050486Y027601D01*
X050527Y027502D02*
X041103Y027502D01*
X041022Y027404D02*
X050612Y027404D01*
X050634Y027305D02*
X040923Y027305D01*
X042151Y026356D02*
X042351Y026439D01*
X042568Y026439D01*
X042768Y026356D01*
X042922Y026202D01*
X043005Y026002D01*
X043005Y025785D01*
X042922Y025584D01*
X042768Y025431D01*
X042568Y025348D01*
X042351Y025348D01*
X042151Y025431D01*
X041997Y025584D01*
X041914Y025785D01*
X041914Y026002D01*
X041997Y026202D01*
X042151Y026356D01*
X042115Y026320D02*
X036571Y026320D01*
X036567Y026332D02*
X036349Y026550D01*
X036064Y026668D01*
X035755Y026668D01*
X035471Y026550D01*
X035253Y026332D01*
X035135Y026047D01*
X035135Y025739D01*
X035253Y025454D01*
X035471Y025236D01*
X035755Y025118D01*
X036064Y025118D01*
X036349Y025236D01*
X036567Y025454D01*
X036685Y025739D01*
X036685Y026047D01*
X036567Y026332D01*
X036612Y026222D02*
X042017Y026222D01*
X041965Y026123D02*
X036653Y026123D01*
X036685Y026025D02*
X041924Y026025D01*
X041914Y025926D02*
X036685Y025926D01*
X036685Y025828D02*
X041914Y025828D01*
X041937Y025729D02*
X036680Y025729D01*
X036640Y025631D02*
X041978Y025631D01*
X042049Y025532D02*
X036599Y025532D01*
X036546Y025434D02*
X042148Y025434D01*
X042771Y025434D02*
X048435Y025434D01*
X048380Y025489D02*
X048506Y025363D01*
X048670Y025295D01*
X048849Y025295D01*
X049013Y025363D01*
X049139Y025489D01*
X049208Y025654D01*
X049208Y025832D01*
X049139Y025997D01*
X049013Y026123D01*
X055766Y026123D01*
X055735Y026047D02*
X055735Y025739D01*
X055853Y025454D01*
X056071Y025236D01*
X056355Y025118D01*
X056664Y025118D01*
X056949Y025236D01*
X057167Y025454D01*
X057285Y025739D01*
X057285Y026047D01*
X057167Y026332D01*
X056949Y026550D01*
X056664Y026668D01*
X056355Y026668D01*
X056071Y026550D01*
X055853Y026332D01*
X055735Y026047D01*
X055735Y026025D02*
X049112Y026025D01*
X049169Y025926D02*
X055735Y025926D01*
X055735Y025828D02*
X049208Y025828D01*
X049208Y025729D02*
X055739Y025729D01*
X055779Y025631D02*
X049198Y025631D01*
X049157Y025532D02*
X055820Y025532D01*
X055873Y025434D02*
X049084Y025434D01*
X048946Y025335D02*
X055971Y025335D01*
X056070Y025237D02*
X036349Y025237D01*
X036448Y025335D02*
X048573Y025335D01*
X048380Y025489D02*
X048311Y025654D01*
X048311Y025832D01*
X048380Y025997D01*
X048506Y026123D01*
X042954Y026123D01*
X042995Y026025D02*
X048407Y026025D01*
X048350Y025926D02*
X043005Y025926D01*
X043005Y025828D02*
X048311Y025828D01*
X048311Y025729D02*
X042982Y025729D01*
X042941Y025631D02*
X048321Y025631D01*
X048362Y025532D02*
X042870Y025532D01*
X042902Y026222D02*
X055807Y026222D01*
X055848Y026320D02*
X042804Y026320D01*
X042616Y026419D02*
X055939Y026419D01*
X056038Y026517D02*
X036381Y026517D01*
X036480Y026419D02*
X042303Y026419D01*
X036190Y026616D02*
X050778Y026616D01*
X050941Y026616D02*
X056229Y026616D01*
X056790Y026616D02*
X058129Y026616D01*
X057938Y026517D02*
X056981Y026517D01*
X057080Y026419D02*
X057839Y026419D01*
X057748Y026320D02*
X057171Y026320D01*
X057212Y026222D02*
X057707Y026222D01*
X057666Y026123D02*
X057253Y026123D01*
X057285Y026025D02*
X057635Y026025D01*
X057635Y025926D02*
X057285Y025926D01*
X057285Y025828D02*
X057635Y025828D01*
X057639Y025729D02*
X057280Y025729D01*
X057240Y025631D02*
X057679Y025631D01*
X057720Y025532D02*
X057199Y025532D01*
X057146Y025434D02*
X057773Y025434D01*
X057871Y025335D02*
X057048Y025335D01*
X056949Y025237D02*
X057970Y025237D01*
X058207Y025138D02*
X056712Y025138D01*
X056307Y025138D02*
X036112Y025138D01*
X035707Y025138D02*
X034212Y025138D01*
X034164Y025118D02*
X034449Y025236D01*
X034667Y025454D01*
X034785Y025739D01*
X034785Y026047D01*
X034667Y026332D01*
X034449Y026550D01*
X034164Y026668D01*
X033855Y026668D01*
X033571Y026550D01*
X033353Y026332D01*
X033235Y026047D01*
X033235Y025739D01*
X033353Y025454D01*
X033571Y025236D01*
X033855Y025118D01*
X034164Y025118D01*
X034114Y024818D02*
X033805Y024818D01*
X033521Y024700D01*
X033303Y024482D01*
X033185Y024197D01*
X033185Y023889D01*
X033303Y023604D01*
X033521Y023386D01*
X033805Y023268D01*
X034114Y023268D01*
X034399Y023386D01*
X034617Y023604D01*
X034735Y023889D01*
X034735Y024197D01*
X034617Y024482D01*
X034399Y024700D01*
X034114Y024818D01*
X034292Y024744D02*
X056127Y024744D01*
X055966Y024646D02*
X034453Y024646D01*
X034551Y024547D02*
X044095Y024547D01*
X044038Y024524D02*
X043829Y024315D01*
X043716Y024041D01*
X043716Y023745D01*
X043829Y023472D01*
X044038Y023263D01*
X044312Y023150D01*
X044607Y023150D01*
X044881Y023263D01*
X045090Y023472D01*
X045203Y023745D01*
X045203Y024041D01*
X045090Y024315D01*
X044881Y024524D01*
X044607Y024637D01*
X044312Y024637D01*
X044038Y024524D01*
X043963Y024449D02*
X034630Y024449D01*
X034671Y024350D02*
X043865Y024350D01*
X043803Y024252D02*
X034712Y024252D01*
X034735Y024153D02*
X043762Y024153D01*
X043721Y024055D02*
X034735Y024055D01*
X034735Y023956D02*
X043716Y023956D01*
X043716Y023858D02*
X034722Y023858D01*
X034681Y023759D02*
X043716Y023759D01*
X043751Y023661D02*
X034640Y023661D01*
X034575Y023562D02*
X043792Y023562D01*
X043837Y023464D02*
X034476Y023464D01*
X034348Y023365D02*
X043936Y023365D01*
X044034Y023267D02*
X027385Y023267D01*
X027381Y023263D02*
X027590Y023472D01*
X027703Y023745D01*
X027703Y024041D01*
X027590Y024315D01*
X027381Y024524D01*
X027107Y024637D01*
X026812Y024637D01*
X026538Y024524D01*
X026329Y024315D01*
X026216Y024041D01*
X026216Y023745D01*
X026329Y023472D01*
X026538Y023263D01*
X026812Y023150D01*
X027107Y023150D01*
X027381Y023263D01*
X027483Y023365D02*
X033571Y023365D01*
X033443Y023464D02*
X027582Y023464D01*
X027627Y023562D02*
X033344Y023562D01*
X033279Y023661D02*
X027668Y023661D01*
X027703Y023759D02*
X033238Y023759D01*
X033197Y023858D02*
X027703Y023858D01*
X027703Y023956D02*
X033185Y023956D01*
X033185Y024055D02*
X027698Y024055D01*
X027657Y024153D02*
X033185Y024153D01*
X033207Y024252D02*
X027616Y024252D01*
X027554Y024350D02*
X033248Y024350D01*
X033289Y024449D02*
X027456Y024449D01*
X027324Y024547D02*
X033368Y024547D01*
X033466Y024646D02*
X018903Y024646D01*
X018849Y024700D02*
X018564Y024818D01*
X018255Y024818D01*
X017971Y024700D01*
X017753Y024482D01*
X017635Y024197D01*
X017635Y023889D01*
X017753Y023604D01*
X017971Y023386D01*
X018255Y023268D01*
X018564Y023268D01*
X018849Y023386D01*
X019067Y023604D01*
X019185Y023889D01*
X019185Y024197D01*
X019067Y024482D01*
X018849Y024700D01*
X018742Y024744D02*
X033627Y024744D01*
X033807Y025138D02*
X018612Y025138D01*
X018564Y025118D02*
X018849Y025236D01*
X019067Y025454D01*
X019185Y025739D01*
X019185Y026047D01*
X019067Y026332D01*
X018849Y026550D01*
X018564Y026668D01*
X018255Y026668D01*
X017971Y026550D01*
X017753Y026332D01*
X017635Y026047D01*
X017635Y025739D01*
X017753Y025454D01*
X017971Y025236D01*
X018255Y025118D01*
X018564Y025118D01*
X018849Y025237D02*
X033570Y025237D01*
X033471Y025335D02*
X018948Y025335D01*
X019046Y025434D02*
X024648Y025434D01*
X024651Y025431D02*
X024851Y025348D01*
X025068Y025348D01*
X025268Y025431D01*
X025422Y025584D01*
X025505Y025785D01*
X025505Y026002D01*
X025422Y026202D01*
X025268Y026356D01*
X025068Y026439D01*
X024851Y026439D01*
X024651Y026356D01*
X024497Y026202D01*
X024414Y026002D01*
X024414Y025785D01*
X024497Y025584D01*
X024651Y025431D01*
X024549Y025532D02*
X019099Y025532D01*
X019140Y025631D02*
X024478Y025631D01*
X024437Y025729D02*
X019180Y025729D01*
X019185Y025828D02*
X024414Y025828D01*
X024414Y025926D02*
X019185Y025926D01*
X019185Y026025D02*
X024424Y026025D01*
X024465Y026123D02*
X019153Y026123D01*
X019112Y026222D02*
X024517Y026222D01*
X024615Y026320D02*
X019071Y026320D01*
X018980Y026419D02*
X024803Y026419D01*
X025116Y026419D02*
X033439Y026419D01*
X033348Y026320D02*
X025304Y026320D01*
X025402Y026222D02*
X033307Y026222D01*
X033266Y026123D02*
X025454Y026123D01*
X025495Y026025D02*
X033235Y026025D01*
X033235Y025926D02*
X025505Y025926D01*
X025505Y025828D02*
X033235Y025828D01*
X033239Y025729D02*
X025482Y025729D01*
X025441Y025631D02*
X033279Y025631D01*
X033320Y025532D02*
X025370Y025532D01*
X025271Y025434D02*
X033373Y025434D01*
X034449Y025237D02*
X035470Y025237D01*
X035371Y025335D02*
X034548Y025335D01*
X034646Y025434D02*
X035273Y025434D01*
X035220Y025532D02*
X034699Y025532D01*
X034740Y025631D02*
X035179Y025631D01*
X035139Y025729D02*
X034780Y025729D01*
X034785Y025828D02*
X035135Y025828D01*
X035135Y025926D02*
X034785Y025926D01*
X034785Y026025D02*
X035135Y026025D01*
X035166Y026123D02*
X034753Y026123D01*
X034712Y026222D02*
X035207Y026222D01*
X035248Y026320D02*
X034671Y026320D01*
X034580Y026419D02*
X035339Y026419D01*
X035438Y026517D02*
X034481Y026517D01*
X034290Y026616D02*
X035629Y026616D01*
X035655Y027010D02*
X018664Y027010D01*
X018871Y027108D02*
X035448Y027108D01*
X033729Y026616D02*
X018690Y026616D01*
X018881Y026517D02*
X033538Y026517D01*
X040731Y028586D02*
X062688Y028586D01*
X063516Y028389D02*
X075459Y028389D01*
X075361Y028290D02*
X063600Y028290D01*
X063641Y028192D02*
X075262Y028192D01*
X075216Y028093D02*
X063682Y028093D01*
X063703Y027995D02*
X075175Y027995D01*
X075135Y027896D02*
X063703Y027896D01*
X063703Y027798D02*
X075135Y027798D01*
X075135Y027699D02*
X063684Y027699D01*
X063643Y027601D02*
X075135Y027601D01*
X075170Y027502D02*
X063603Y027502D01*
X063522Y027404D02*
X075211Y027404D01*
X075252Y027305D02*
X063423Y027305D01*
X063246Y027207D02*
X075350Y027207D01*
X075655Y027010D02*
X058664Y027010D01*
X058155Y027010D02*
X051240Y027010D01*
X051237Y026911D02*
X097196Y026911D01*
X097081Y026813D02*
X051196Y026813D01*
X051118Y026714D02*
X096983Y026714D01*
X096885Y026616D02*
X076190Y026616D01*
X076381Y026517D02*
X096845Y026517D01*
X096804Y026419D02*
X082616Y026419D01*
X082568Y026439D02*
X082351Y026439D01*
X082151Y026356D01*
X081997Y026202D01*
X081914Y026002D01*
X081914Y025785D01*
X081997Y025584D01*
X082151Y025431D01*
X082351Y025348D01*
X082568Y025348D01*
X082768Y025431D01*
X082922Y025584D01*
X083005Y025785D01*
X083005Y026002D01*
X082922Y026202D01*
X082768Y026356D01*
X082568Y026439D01*
X082804Y026320D02*
X096763Y026320D01*
X096734Y026222D02*
X082902Y026222D01*
X082954Y026123D02*
X096734Y026123D01*
X096734Y026025D02*
X082995Y026025D01*
X083005Y025926D02*
X096734Y025926D01*
X096744Y025828D02*
X083005Y025828D01*
X082982Y025729D02*
X096785Y025729D01*
X096825Y025631D02*
X082941Y025631D01*
X082870Y025532D02*
X096866Y025532D01*
X096936Y025434D02*
X082771Y025434D01*
X082148Y025434D02*
X076546Y025434D01*
X076599Y025532D02*
X082049Y025532D01*
X081978Y025631D02*
X076640Y025631D01*
X076680Y025729D02*
X081937Y025729D01*
X081914Y025828D02*
X076685Y025828D01*
X076685Y025926D02*
X081914Y025926D01*
X081924Y026025D02*
X076685Y026025D01*
X076653Y026123D02*
X081965Y026123D01*
X082017Y026222D02*
X076612Y026222D01*
X076571Y026320D02*
X082115Y026320D01*
X082303Y026419D02*
X076480Y026419D01*
X076164Y027010D02*
X097434Y027010D01*
X097035Y025335D02*
X076448Y025335D01*
X076349Y025237D02*
X097133Y025237D01*
X098706Y023560D02*
X098552Y023407D01*
X098469Y023206D01*
X098469Y022990D01*
X098552Y022789D01*
X098706Y022636D01*
X098906Y022553D01*
X099123Y022553D01*
X099324Y022636D01*
X099477Y022789D01*
X099560Y022990D01*
X099560Y023206D01*
X099477Y023407D01*
X099324Y023560D01*
X099123Y023643D01*
X098906Y023643D01*
X098706Y023560D01*
X098711Y023562D02*
X085127Y023562D01*
X085168Y023661D02*
X107010Y023661D01*
X107010Y023759D02*
X085203Y023759D01*
X085203Y023858D02*
X107010Y023858D01*
X107010Y023956D02*
X085203Y023956D01*
X085198Y024055D02*
X107010Y024055D01*
X107010Y024153D02*
X085157Y024153D01*
X085116Y024252D02*
X107010Y024252D01*
X107010Y024350D02*
X085054Y024350D01*
X084956Y024449D02*
X107010Y024449D01*
X107010Y024547D02*
X084824Y024547D01*
X085082Y023464D02*
X098609Y023464D01*
X098535Y023365D02*
X084983Y023365D01*
X084885Y023267D02*
X098494Y023267D01*
X098469Y023168D02*
X089650Y023168D01*
X089671Y023160D02*
X089469Y023243D01*
X089250Y023243D01*
X089048Y023160D01*
X088893Y023005D01*
X088810Y022803D01*
X088810Y022584D01*
X088893Y022382D01*
X089048Y022227D01*
X089250Y022143D01*
X089469Y022143D01*
X089671Y022227D01*
X089826Y022382D01*
X089910Y022584D01*
X089910Y022803D01*
X089826Y023005D01*
X089671Y023160D01*
X089761Y023070D02*
X098469Y023070D01*
X098477Y022971D02*
X089840Y022971D01*
X089880Y022873D02*
X098518Y022873D01*
X098567Y022774D02*
X089910Y022774D01*
X089910Y022676D02*
X098666Y022676D01*
X098847Y022577D02*
X089907Y022577D01*
X089866Y022479D02*
X107010Y022479D01*
X107010Y022577D02*
X101151Y022577D01*
X101092Y022553D02*
X101292Y022636D01*
X101445Y022789D01*
X101528Y022990D01*
X101528Y023206D01*
X101445Y023407D01*
X101292Y023560D01*
X101092Y023643D01*
X100875Y023643D01*
X100674Y023560D01*
X100521Y023407D01*
X100438Y023206D01*
X100438Y022990D01*
X100521Y022789D01*
X100674Y022636D01*
X100875Y022553D01*
X101092Y022553D01*
X101332Y022676D02*
X107010Y022676D01*
X107010Y022774D02*
X101431Y022774D01*
X101480Y022873D02*
X107010Y022873D01*
X107010Y022971D02*
X101521Y022971D01*
X101528Y023070D02*
X107010Y023070D01*
X107010Y023168D02*
X101528Y023168D01*
X101503Y023267D02*
X107010Y023267D01*
X107010Y023365D02*
X101463Y023365D01*
X101388Y023464D02*
X107010Y023464D01*
X107010Y023562D02*
X101287Y023562D01*
X100679Y023562D02*
X099319Y023562D01*
X099420Y023464D02*
X100578Y023464D01*
X100504Y023365D02*
X099494Y023365D01*
X099535Y023267D02*
X100463Y023267D01*
X100438Y023168D02*
X099560Y023168D01*
X099560Y023070D02*
X100438Y023070D01*
X100445Y022971D02*
X099552Y022971D01*
X099512Y022873D02*
X100486Y022873D01*
X100536Y022774D02*
X099462Y022774D01*
X099364Y022676D02*
X100634Y022676D01*
X100815Y022577D02*
X099182Y022577D01*
X107010Y022380D02*
X089824Y022380D01*
X089726Y022282D02*
X107010Y022282D01*
X107010Y022183D02*
X089566Y022183D01*
X089153Y022183D02*
X071325Y022183D01*
X071340Y022282D02*
X088993Y022282D01*
X088895Y022380D02*
X071335Y022380D01*
X071294Y022479D02*
X088853Y022479D01*
X088812Y022577D02*
X071213Y022577D01*
X071179Y022676D02*
X088810Y022676D01*
X088810Y022774D02*
X071278Y022774D01*
X071321Y022873D02*
X088839Y022873D01*
X088879Y022971D02*
X071340Y022971D01*
X071339Y023070D02*
X088958Y023070D01*
X089069Y023168D02*
X084653Y023168D01*
X084266Y023168D02*
X071298Y023168D01*
X070865Y023365D02*
X067483Y023365D01*
X067385Y023267D02*
X070696Y023267D01*
X070621Y023168D02*
X067153Y023168D01*
X066766Y023168D02*
X044653Y023168D01*
X044885Y023267D02*
X066534Y023267D01*
X066436Y023365D02*
X056848Y023365D01*
X056976Y023464D02*
X066337Y023464D01*
X066292Y023562D02*
X057075Y023562D01*
X057140Y023661D02*
X066251Y023661D01*
X066216Y023759D02*
X057181Y023759D01*
X057222Y023858D02*
X066216Y023858D01*
X066216Y023956D02*
X057235Y023956D01*
X057235Y024055D02*
X066221Y024055D01*
X066262Y024153D02*
X057235Y024153D01*
X057212Y024252D02*
X066303Y024252D01*
X066365Y024350D02*
X057171Y024350D01*
X057130Y024449D02*
X066463Y024449D01*
X066595Y024547D02*
X057051Y024547D01*
X055868Y024547D02*
X044824Y024547D01*
X044956Y024449D02*
X055789Y024449D01*
X055748Y024350D02*
X045054Y024350D01*
X045116Y024252D02*
X055707Y024252D01*
X055685Y024153D02*
X051983Y024153D01*
X051963Y024173D02*
X051799Y024241D01*
X051620Y024241D01*
X051456Y024173D01*
X051330Y024047D01*
X051261Y023882D01*
X051261Y023704D01*
X051330Y023539D01*
X051456Y023413D01*
X051620Y023345D01*
X051799Y023345D01*
X051963Y023413D01*
X052089Y023539D01*
X052158Y023704D01*
X052158Y023882D01*
X052089Y024047D01*
X051963Y024173D01*
X052082Y024055D02*
X055685Y024055D01*
X055685Y023956D02*
X052127Y023956D01*
X052158Y023858D02*
X055697Y023858D01*
X055738Y023759D02*
X052158Y023759D01*
X052140Y023661D02*
X055779Y023661D01*
X055844Y023562D02*
X052099Y023562D01*
X052014Y023464D02*
X055943Y023464D01*
X056071Y023365D02*
X051847Y023365D01*
X051572Y023365D02*
X044983Y023365D01*
X045082Y023464D02*
X051405Y023464D01*
X051320Y023562D02*
X045127Y023562D01*
X045168Y023661D02*
X051279Y023661D01*
X051261Y023759D02*
X045203Y023759D01*
X045203Y023858D02*
X051261Y023858D01*
X051292Y023956D02*
X045203Y023956D01*
X045198Y024055D02*
X051337Y024055D01*
X051436Y024153D02*
X045157Y024153D01*
X044266Y023168D02*
X027153Y023168D01*
X026766Y023168D02*
X007910Y023168D01*
X007910Y023070D02*
X070580Y023070D01*
X070580Y022971D02*
X055615Y022971D01*
X055613Y022973D02*
X055449Y023041D01*
X055270Y023041D01*
X055106Y022973D01*
X054980Y022847D01*
X054911Y022682D01*
X054911Y022504D01*
X054980Y022339D01*
X055106Y022213D01*
X055270Y022145D01*
X055449Y022145D01*
X055613Y022213D01*
X055739Y022339D01*
X055808Y022504D01*
X055808Y022682D01*
X055739Y022847D01*
X055613Y022973D01*
X055714Y022873D02*
X070598Y022873D01*
X070641Y022774D02*
X055770Y022774D01*
X055808Y022676D02*
X070740Y022676D01*
X070706Y022577D02*
X055808Y022577D01*
X055797Y022479D02*
X070625Y022479D01*
X070584Y022380D02*
X055756Y022380D01*
X055682Y022282D02*
X070580Y022282D01*
X070594Y022183D02*
X056307Y022183D01*
X056275Y022215D02*
X056135Y022273D01*
X055984Y022273D01*
X055844Y022215D01*
X055737Y022109D01*
X055680Y021969D01*
X055680Y021818D01*
X055737Y021678D01*
X055844Y021571D01*
X055984Y021513D01*
X056135Y021513D01*
X056275Y021571D01*
X056382Y021678D01*
X056440Y021818D01*
X056440Y021969D01*
X056382Y022109D01*
X056275Y022215D01*
X056391Y022085D02*
X070635Y022085D01*
X070729Y021986D02*
X056432Y021986D01*
X056440Y021888D02*
X070717Y021888D01*
X070629Y021789D02*
X056428Y021789D01*
X056387Y021691D02*
X070589Y021691D01*
X070580Y021592D02*
X056296Y021592D01*
X055823Y021592D02*
X048636Y021592D01*
X048571Y021527D02*
X048726Y021682D01*
X048810Y021884D01*
X048810Y022103D01*
X048726Y022305D01*
X048571Y022460D01*
X048369Y022543D01*
X048150Y022543D01*
X047948Y022460D01*
X047793Y022305D01*
X047710Y022103D01*
X047710Y021884D01*
X047793Y021682D01*
X047948Y021527D01*
X048150Y021443D01*
X048369Y021443D01*
X048571Y021527D01*
X048491Y021494D02*
X070589Y021494D01*
X070630Y021395D02*
X025920Y021395D01*
X025915Y021393D02*
X026055Y021451D01*
X026162Y021558D01*
X026220Y021698D01*
X026220Y021849D01*
X026162Y021989D01*
X026055Y022095D01*
X025915Y022153D01*
X025764Y022153D01*
X025624Y022095D01*
X025517Y021989D01*
X025460Y021849D01*
X025460Y021698D01*
X025517Y021558D01*
X025624Y021451D01*
X025764Y021393D01*
X025915Y021393D01*
X025759Y021395D02*
X023391Y021395D01*
X023373Y021413D02*
X023209Y021481D01*
X023030Y021481D01*
X022866Y021413D01*
X022740Y021287D01*
X022671Y021122D01*
X022671Y020944D01*
X022740Y020779D01*
X022866Y020653D01*
X023030Y020585D01*
X023209Y020585D01*
X023373Y020653D01*
X023499Y020779D01*
X023568Y020944D01*
X023568Y021122D01*
X023499Y021287D01*
X023373Y021413D01*
X023490Y021297D02*
X070719Y021297D01*
X071200Y021297D02*
X075033Y021297D01*
X075037Y021309D02*
X074980Y021169D01*
X074980Y021018D01*
X075037Y020878D01*
X075144Y020771D01*
X075284Y020713D01*
X075435Y020713D01*
X075575Y020771D01*
X075682Y020878D01*
X075740Y021018D01*
X075740Y021169D01*
X075682Y021309D01*
X075575Y021415D01*
X075435Y021473D01*
X075284Y021473D01*
X075144Y021415D01*
X075037Y021309D01*
X074992Y021198D02*
X023536Y021198D01*
X023568Y021100D02*
X074980Y021100D01*
X074986Y021001D02*
X023568Y021001D01*
X023551Y020903D02*
X075027Y020903D01*
X075111Y020804D02*
X023510Y020804D01*
X023426Y020706D02*
X068835Y020706D01*
X068844Y020715D02*
X068737Y020609D01*
X068680Y020469D01*
X068680Y020318D01*
X068737Y020178D01*
X068844Y020071D01*
X068862Y020064D01*
X068744Y020015D01*
X068637Y019909D01*
X068580Y019769D01*
X068580Y019618D01*
X068637Y019478D01*
X068744Y019371D01*
X068884Y019313D01*
X069035Y019313D01*
X069175Y019371D01*
X069282Y019478D01*
X069340Y019618D01*
X069340Y019769D01*
X069282Y019909D01*
X069175Y020015D01*
X069158Y020023D01*
X069275Y020071D01*
X069382Y020178D01*
X069440Y020318D01*
X069440Y020469D01*
X069382Y020609D01*
X069275Y020715D01*
X069135Y020773D01*
X068984Y020773D01*
X068844Y020715D01*
X068737Y020607D02*
X023262Y020607D01*
X022977Y020607D02*
X007910Y020607D01*
X007910Y020509D02*
X068696Y020509D01*
X068680Y020410D02*
X007910Y020410D01*
X007910Y020312D02*
X068682Y020312D01*
X068723Y020213D02*
X007910Y020213D01*
X007910Y020115D02*
X068801Y020115D01*
X068746Y020016D02*
X007910Y020016D01*
X007910Y019918D02*
X068647Y019918D01*
X068600Y019819D02*
X007910Y019819D01*
X007910Y019721D02*
X068580Y019721D01*
X068580Y019622D02*
X007910Y019622D01*
X007910Y019524D02*
X068618Y019524D01*
X068690Y019425D02*
X007910Y019425D01*
X007910Y019327D02*
X068851Y019327D01*
X069068Y019327D02*
X074917Y019327D01*
X074937Y019278D02*
X075044Y019171D01*
X075184Y019113D01*
X075335Y019113D01*
X075475Y019171D01*
X075582Y019278D01*
X075640Y019418D01*
X075640Y019569D01*
X075582Y019709D01*
X075475Y019815D01*
X075335Y019873D01*
X075184Y019873D01*
X075044Y019815D01*
X074937Y019709D01*
X074880Y019569D01*
X074880Y019418D01*
X074937Y019278D01*
X074987Y019228D02*
X067844Y019228D01*
X067875Y019215D02*
X067735Y019273D01*
X067584Y019273D01*
X067444Y019215D01*
X067337Y019109D01*
X067280Y018969D01*
X067280Y018818D01*
X067337Y018678D01*
X067444Y018571D01*
X067584Y018513D01*
X067735Y018513D01*
X067875Y018571D01*
X067982Y018678D01*
X068040Y018818D01*
X068040Y018969D01*
X067982Y019109D01*
X067875Y019215D01*
X067960Y019130D02*
X075144Y019130D01*
X075375Y019130D02*
X082772Y019130D01*
X082780Y019147D02*
X082711Y018982D01*
X082711Y018804D01*
X082780Y018639D01*
X082906Y018513D01*
X083070Y018445D01*
X083249Y018445D01*
X083413Y018513D01*
X083468Y018568D01*
X083480Y018539D01*
X083439Y018539D01*
X083480Y018539D02*
X083606Y018413D01*
X083770Y018345D01*
X083949Y018345D01*
X084113Y018413D01*
X084239Y018539D01*
X115729Y018539D01*
X115765Y018502D02*
X115908Y018443D01*
X115765Y018384D01*
X115619Y018238D01*
X115560Y018095D01*
X115500Y018238D01*
X115354Y018384D01*
X115163Y018463D01*
X114956Y018463D01*
X114765Y018384D01*
X114619Y018238D01*
X114560Y018095D01*
X114500Y018238D01*
X114354Y018384D01*
X114163Y018463D01*
X113956Y018463D01*
X113765Y018384D01*
X113619Y018238D01*
X113540Y018047D01*
X113540Y017840D01*
X113619Y017649D01*
X113765Y017502D01*
X113956Y017423D01*
X114163Y017423D01*
X114354Y017502D01*
X114500Y017649D01*
X114560Y017792D01*
X114619Y017649D01*
X114765Y017502D01*
X114956Y017423D01*
X115163Y017423D01*
X115354Y017502D01*
X115500Y017649D01*
X115560Y017792D01*
X115619Y017649D01*
X115765Y017502D01*
X115956Y017423D01*
X116163Y017423D01*
X116354Y017502D01*
X116500Y017649D01*
X116560Y017792D01*
X116619Y017649D01*
X116765Y017502D01*
X116956Y017423D01*
X117163Y017423D01*
X117354Y017502D01*
X117500Y017649D01*
X117580Y017840D01*
X117580Y018047D01*
X117500Y018238D01*
X117354Y018384D01*
X117211Y018443D01*
X117354Y018502D01*
X117500Y018649D01*
X117580Y018840D01*
X117580Y019047D01*
X117500Y019238D01*
X117354Y019384D01*
X117163Y019463D01*
X116956Y019463D01*
X116765Y019384D01*
X116619Y019238D01*
X116560Y019095D01*
X116500Y019238D01*
X116354Y019384D01*
X116163Y019463D01*
X115956Y019463D01*
X115765Y019384D01*
X115619Y019238D01*
X115540Y019047D01*
X115540Y018840D01*
X115619Y018649D01*
X115765Y018502D01*
X115901Y018440D02*
X115218Y018440D01*
X115396Y018342D02*
X115723Y018342D01*
X115624Y018243D02*
X115495Y018243D01*
X115539Y018145D02*
X115580Y018145D01*
X115576Y017751D02*
X115543Y017751D01*
X115502Y017652D02*
X115617Y017652D01*
X115714Y017554D02*
X115405Y017554D01*
X115240Y017455D02*
X115879Y017455D01*
X116240Y017455D02*
X116879Y017455D01*
X116714Y017554D02*
X116405Y017554D01*
X116502Y017652D02*
X116617Y017652D01*
X116576Y017751D02*
X116543Y017751D01*
X117240Y017455D02*
X123416Y017455D01*
X123365Y017434D02*
X123219Y017288D01*
X123140Y017097D01*
X123140Y016890D01*
X123219Y016699D01*
X123365Y016552D01*
X123508Y016493D01*
X123365Y016434D01*
X123219Y016288D01*
X123140Y016097D01*
X123140Y015890D01*
X123219Y015699D01*
X123365Y015552D01*
X123508Y015493D01*
X123365Y015434D01*
X123219Y015288D01*
X123140Y015097D01*
X123140Y014890D01*
X123219Y014699D01*
X123365Y014552D01*
X123508Y014493D01*
X123365Y014434D01*
X123219Y014288D01*
X123140Y014097D01*
X123140Y013890D01*
X123219Y013699D01*
X123365Y013552D01*
X123508Y013493D01*
X123365Y013434D01*
X123219Y013288D01*
X123140Y013097D01*
X123140Y012890D01*
X123219Y012699D01*
X123365Y012552D01*
X123508Y012493D01*
X123365Y012434D01*
X123219Y012288D01*
X123140Y012097D01*
X123140Y011890D01*
X123219Y011699D01*
X123365Y011552D01*
X123508Y011493D01*
X123365Y011434D01*
X123219Y011288D01*
X123140Y011097D01*
X123140Y010890D01*
X123219Y010699D01*
X123365Y010552D01*
X123556Y010473D01*
X123763Y010473D01*
X123954Y010552D01*
X124100Y010699D01*
X124180Y010890D01*
X124180Y011097D01*
X124100Y011288D01*
X123954Y011434D01*
X123811Y011493D01*
X123954Y011552D01*
X124100Y011699D01*
X124180Y011890D01*
X124180Y012097D01*
X124100Y012288D01*
X123954Y012434D01*
X123811Y012493D01*
X123954Y012552D01*
X124100Y012699D01*
X124180Y012890D01*
X124180Y013097D01*
X124100Y013288D01*
X123954Y013434D01*
X123811Y013493D01*
X123954Y013552D01*
X124100Y013699D01*
X124180Y013890D01*
X124180Y014097D01*
X124100Y014288D01*
X123954Y014434D01*
X123811Y014493D01*
X123954Y014552D01*
X124100Y014699D01*
X124180Y014890D01*
X124180Y015097D01*
X124100Y015288D01*
X127010Y015288D01*
X127010Y015190D02*
X124141Y015190D01*
X124180Y015091D02*
X127010Y015091D01*
X127010Y014993D02*
X124180Y014993D01*
X124180Y014894D02*
X127010Y014894D01*
X127010Y014796D02*
X124141Y014796D01*
X124099Y014697D02*
X127010Y014697D01*
X127010Y014599D02*
X124000Y014599D01*
X123986Y014402D02*
X127010Y014402D01*
X127010Y014500D02*
X123828Y014500D01*
X124085Y014303D02*
X127010Y014303D01*
X127010Y014205D02*
X124135Y014205D01*
X124176Y014106D02*
X127010Y014106D01*
X127010Y014008D02*
X124180Y014008D01*
X124180Y013909D02*
X127010Y013909D01*
X127010Y013811D02*
X124147Y013811D01*
X124106Y013712D02*
X127010Y013712D01*
X127010Y013614D02*
X124015Y013614D01*
X123864Y013515D02*
X127010Y013515D01*
X127010Y013417D02*
X123971Y013417D01*
X124070Y013318D02*
X127010Y013318D01*
X127010Y013220D02*
X124129Y013220D01*
X124169Y013121D02*
X127010Y013121D01*
X127010Y013023D02*
X124180Y013023D01*
X124180Y012924D02*
X127010Y012924D01*
X127010Y012826D02*
X124153Y012826D01*
X124112Y012727D02*
X127010Y012727D01*
X127010Y012629D02*
X124030Y012629D01*
X123901Y012530D02*
X127010Y012530D01*
X127010Y012432D02*
X123956Y012432D01*
X124055Y012333D02*
X127010Y012333D01*
X127010Y012235D02*
X124122Y012235D01*
X124163Y012136D02*
X127010Y012136D01*
X127010Y012038D02*
X124180Y012038D01*
X124180Y011939D02*
X127010Y011939D01*
X127010Y011841D02*
X124159Y011841D01*
X124118Y011742D02*
X127010Y011742D01*
X127010Y011644D02*
X124045Y011644D01*
X123937Y011545D02*
X127010Y011545D01*
X127010Y011447D02*
X123923Y011447D01*
X124040Y011348D02*
X127010Y011348D01*
X127010Y011250D02*
X124116Y011250D01*
X124157Y011151D02*
X127010Y011151D01*
X127010Y011053D02*
X124180Y011053D01*
X124180Y010954D02*
X127010Y010954D01*
X127010Y010856D02*
X124165Y010856D01*
X124125Y010757D02*
X127010Y010757D01*
X127010Y010659D02*
X124060Y010659D01*
X123962Y010560D02*
X127010Y010560D01*
X127010Y010462D02*
X121495Y010462D01*
X121495Y010500D02*
X121413Y010696D01*
X121263Y010847D01*
X121150Y010893D01*
X121263Y010940D01*
X121413Y011090D01*
X121495Y011287D01*
X121495Y011500D01*
X121413Y011696D01*
X121263Y011847D01*
X121066Y011928D01*
X120853Y011928D01*
X120656Y011847D01*
X120506Y011696D01*
X120425Y011500D01*
X120425Y011287D01*
X120506Y011090D01*
X120656Y010940D01*
X120769Y010893D01*
X120656Y010847D01*
X120506Y010696D01*
X120425Y010500D01*
X120425Y010287D01*
X120506Y010090D01*
X120656Y009940D01*
X120769Y009893D01*
X120656Y009847D01*
X120506Y009696D01*
X120460Y009584D01*
X120413Y009696D01*
X120263Y009847D01*
X120066Y009928D01*
X119853Y009928D01*
X119656Y009847D01*
X119506Y009696D01*
X119460Y009584D01*
X119413Y009696D01*
X119263Y009847D01*
X119066Y009928D01*
X118853Y009928D01*
X118656Y009847D01*
X118506Y009696D01*
X118460Y009584D01*
X118413Y009696D01*
X118263Y009847D01*
X118066Y009928D01*
X117853Y009928D01*
X117656Y009847D01*
X117506Y009696D01*
X117460Y009584D01*
X117413Y009696D01*
X117263Y009847D01*
X117066Y009928D01*
X116853Y009928D01*
X116656Y009847D01*
X116506Y009696D01*
X116460Y009584D01*
X116413Y009696D01*
X116263Y009847D01*
X116066Y009928D01*
X115853Y009928D01*
X115656Y009847D01*
X115506Y009696D01*
X115460Y009584D01*
X115413Y009696D01*
X115263Y009847D01*
X115066Y009928D01*
X114853Y009928D01*
X114656Y009847D01*
X114506Y009696D01*
X114460Y009584D01*
X114413Y009696D01*
X114263Y009847D01*
X114066Y009928D01*
X113946Y009928D01*
X113990Y009972D01*
X114103Y010245D01*
X114103Y010541D01*
X113990Y010815D01*
X113781Y011024D01*
X113507Y011137D01*
X113212Y011137D01*
X112938Y011024D01*
X112729Y010815D01*
X112616Y010541D01*
X112616Y010245D01*
X112729Y009972D01*
X112796Y009905D01*
X112656Y009847D01*
X112506Y009696D01*
X112460Y009584D01*
X112413Y009696D01*
X112263Y009847D01*
X112066Y009928D01*
X111853Y009928D01*
X111656Y009847D01*
X111506Y009696D01*
X111460Y009584D01*
X111413Y009696D01*
X111263Y009847D01*
X111066Y009928D01*
X110853Y009928D01*
X110656Y009847D01*
X110506Y009696D01*
X110460Y009584D01*
X110413Y009696D01*
X110263Y009847D01*
X110066Y009928D01*
X109853Y009928D01*
X109656Y009847D01*
X109506Y009696D01*
X109460Y009584D01*
X109413Y009696D01*
X109263Y009847D01*
X109066Y009928D01*
X108853Y009928D01*
X108656Y009847D01*
X108506Y009696D01*
X108425Y009500D01*
X108425Y009287D01*
X108506Y009090D01*
X108656Y008940D01*
X108853Y008858D01*
X109066Y008858D01*
X109263Y008940D01*
X109413Y009090D01*
X109460Y009202D01*
X109506Y009090D01*
X109656Y008940D01*
X109853Y008858D01*
X110066Y008858D01*
X110263Y008940D01*
X110413Y009090D01*
X110460Y009202D01*
X110506Y009090D01*
X110656Y008940D01*
X110853Y008858D01*
X111066Y008858D01*
X111263Y008940D01*
X111413Y009090D01*
X111460Y009202D01*
X111506Y009090D01*
X111656Y008940D01*
X111853Y008858D01*
X112066Y008858D01*
X112263Y008940D01*
X112413Y009090D01*
X112460Y009202D01*
X112506Y009090D01*
X112656Y008940D01*
X112853Y008858D01*
X113066Y008858D01*
X113263Y008940D01*
X113413Y009090D01*
X113460Y009202D01*
X113506Y009090D01*
X113656Y008940D01*
X113853Y008858D01*
X114066Y008858D01*
X114263Y008940D01*
X114413Y009090D01*
X114460Y009202D01*
X114506Y009090D01*
X114656Y008940D01*
X114853Y008858D01*
X115066Y008858D01*
X115263Y008940D01*
X115413Y009090D01*
X115460Y009202D01*
X115506Y009090D01*
X115656Y008940D01*
X115853Y008858D01*
X116066Y008858D01*
X116263Y008940D01*
X116413Y009090D01*
X116460Y009202D01*
X116506Y009090D01*
X116656Y008940D01*
X116853Y008858D01*
X117066Y008858D01*
X117263Y008940D01*
X117413Y009090D01*
X117460Y009202D01*
X117506Y009090D01*
X117656Y008940D01*
X117853Y008858D01*
X118066Y008858D01*
X118263Y008940D01*
X118413Y009090D01*
X118460Y009202D01*
X118506Y009090D01*
X118656Y008940D01*
X118853Y008858D01*
X119066Y008858D01*
X119263Y008940D01*
X119413Y009090D01*
X119460Y009202D01*
X119506Y009090D01*
X119656Y008940D01*
X119853Y008858D01*
X120066Y008858D01*
X120263Y008940D01*
X120413Y009090D01*
X120460Y009202D01*
X120506Y009090D01*
X120656Y008940D01*
X120853Y008858D01*
X121066Y008858D01*
X121263Y008940D01*
X121413Y009090D01*
X121495Y009287D01*
X121495Y009500D01*
X121413Y009696D01*
X121263Y009847D01*
X121150Y009893D01*
X121263Y009940D01*
X121413Y010090D01*
X121495Y010287D01*
X121495Y010500D01*
X121469Y010560D02*
X123357Y010560D01*
X123259Y010659D02*
X121429Y010659D01*
X121352Y010757D02*
X123194Y010757D01*
X123154Y010856D02*
X121241Y010856D01*
X121277Y010954D02*
X123140Y010954D01*
X123140Y011053D02*
X121376Y011053D01*
X121438Y011151D02*
X123162Y011151D01*
X123203Y011250D02*
X121479Y011250D01*
X121495Y011348D02*
X123279Y011348D01*
X123396Y011447D02*
X121495Y011447D01*
X121476Y011545D02*
X123382Y011545D01*
X123274Y011644D02*
X121435Y011644D01*
X121367Y011742D02*
X123201Y011742D01*
X123160Y011841D02*
X121269Y011841D01*
X120650Y011841D02*
X105378Y011841D01*
X105357Y011853D02*
X105095Y011923D01*
X104824Y011923D01*
X104562Y011853D01*
X104327Y011718D01*
X104135Y011526D01*
X104000Y011291D01*
X103930Y011029D01*
X103930Y010758D01*
X104000Y010496D01*
X104135Y010261D01*
X104327Y010069D01*
X104562Y009934D01*
X104824Y009863D01*
X105095Y009863D01*
X105357Y009934D01*
X105592Y010069D01*
X105784Y010261D01*
X105919Y010496D01*
X105990Y010758D01*
X105990Y011029D01*
X105919Y011291D01*
X105784Y011526D01*
X105592Y011718D01*
X105357Y011853D01*
X105549Y011742D02*
X120552Y011742D01*
X120484Y011644D02*
X105666Y011644D01*
X105764Y011545D02*
X120443Y011545D01*
X120425Y011447D02*
X105829Y011447D01*
X105886Y011348D02*
X120425Y011348D01*
X120440Y011250D02*
X105930Y011250D01*
X105957Y011151D02*
X120481Y011151D01*
X120543Y011053D02*
X113711Y011053D01*
X113850Y010954D02*
X120642Y010954D01*
X120678Y010856D02*
X113949Y010856D01*
X114014Y010757D02*
X120567Y010757D01*
X120490Y010659D02*
X114055Y010659D01*
X114095Y010560D02*
X120450Y010560D01*
X120425Y010462D02*
X114103Y010462D01*
X114103Y010363D02*
X120425Y010363D01*
X120434Y010265D02*
X114103Y010265D01*
X114070Y010166D02*
X120474Y010166D01*
X120528Y010068D02*
X114030Y010068D01*
X113987Y009969D02*
X120627Y009969D01*
X120714Y009871D02*
X120205Y009871D01*
X120337Y009772D02*
X120582Y009772D01*
X120497Y009674D02*
X120422Y009674D01*
X120451Y009181D02*
X120468Y009181D01*
X120513Y009083D02*
X120406Y009083D01*
X120307Y008984D02*
X120612Y008984D01*
X120787Y008886D02*
X120132Y008886D01*
X119787Y008886D02*
X119132Y008886D01*
X119307Y008984D02*
X119612Y008984D01*
X119513Y009083D02*
X119406Y009083D01*
X119451Y009181D02*
X119468Y009181D01*
X119497Y009674D02*
X119422Y009674D01*
X119337Y009772D02*
X119582Y009772D01*
X119714Y009871D02*
X119205Y009871D01*
X118714Y009871D02*
X118205Y009871D01*
X118337Y009772D02*
X118582Y009772D01*
X118497Y009674D02*
X118422Y009674D01*
X118451Y009181D02*
X118468Y009181D01*
X118513Y009083D02*
X118406Y009083D01*
X118307Y008984D02*
X118612Y008984D01*
X118787Y008886D02*
X118132Y008886D01*
X117787Y008886D02*
X117132Y008886D01*
X117307Y008984D02*
X117612Y008984D01*
X117513Y009083D02*
X117406Y009083D01*
X117451Y009181D02*
X117468Y009181D01*
X117497Y009674D02*
X117422Y009674D01*
X117337Y009772D02*
X117582Y009772D01*
X117714Y009871D02*
X117205Y009871D01*
X116714Y009871D02*
X116205Y009871D01*
X116337Y009772D02*
X116582Y009772D01*
X116497Y009674D02*
X116422Y009674D01*
X116451Y009181D02*
X116468Y009181D01*
X116513Y009083D02*
X116406Y009083D01*
X116307Y008984D02*
X116612Y008984D01*
X116787Y008886D02*
X116132Y008886D01*
X115787Y008886D02*
X115132Y008886D01*
X115307Y008984D02*
X115612Y008984D01*
X115513Y009083D02*
X115406Y009083D01*
X115451Y009181D02*
X115468Y009181D01*
X115497Y009674D02*
X115422Y009674D01*
X115337Y009772D02*
X115582Y009772D01*
X115714Y009871D02*
X115205Y009871D01*
X114714Y009871D02*
X114205Y009871D01*
X114337Y009772D02*
X114582Y009772D01*
X114497Y009674D02*
X114422Y009674D01*
X114451Y009181D02*
X114468Y009181D01*
X114513Y009083D02*
X114406Y009083D01*
X114307Y008984D02*
X114612Y008984D01*
X114787Y008886D02*
X114132Y008886D01*
X113787Y008886D02*
X113132Y008886D01*
X113307Y008984D02*
X113612Y008984D01*
X113513Y009083D02*
X113406Y009083D01*
X113451Y009181D02*
X113468Y009181D01*
X112787Y008886D02*
X112132Y008886D01*
X112307Y008984D02*
X112612Y008984D01*
X112513Y009083D02*
X112406Y009083D01*
X112451Y009181D02*
X112468Y009181D01*
X112497Y009674D02*
X112422Y009674D01*
X112337Y009772D02*
X112582Y009772D01*
X112714Y009871D02*
X112205Y009871D01*
X111714Y009871D02*
X111205Y009871D01*
X111337Y009772D02*
X111582Y009772D01*
X111497Y009674D02*
X111422Y009674D01*
X111451Y009181D02*
X111468Y009181D01*
X111513Y009083D02*
X111406Y009083D01*
X111307Y008984D02*
X111612Y008984D01*
X111787Y008886D02*
X111132Y008886D01*
X110787Y008886D02*
X110132Y008886D01*
X110307Y008984D02*
X110612Y008984D01*
X110513Y009083D02*
X110406Y009083D01*
X110451Y009181D02*
X110468Y009181D01*
X110497Y009674D02*
X110422Y009674D01*
X110337Y009772D02*
X110582Y009772D01*
X110714Y009871D02*
X110205Y009871D01*
X109714Y009871D02*
X109205Y009871D01*
X109337Y009772D02*
X109582Y009772D01*
X109497Y009674D02*
X109422Y009674D01*
X109451Y009181D02*
X109468Y009181D01*
X109513Y009083D02*
X109406Y009083D01*
X109307Y008984D02*
X109612Y008984D01*
X109787Y008886D02*
X109132Y008886D01*
X108787Y008886D02*
X007910Y008886D01*
X007910Y008984D02*
X108612Y008984D01*
X108513Y009083D02*
X007910Y009083D01*
X007910Y009181D02*
X108468Y009181D01*
X108427Y009280D02*
X007910Y009280D01*
X007910Y009378D02*
X108425Y009378D01*
X108425Y009477D02*
X035325Y009477D01*
X035249Y009445D02*
X035413Y009513D01*
X035539Y009639D01*
X035608Y009804D01*
X035608Y009982D01*
X035539Y010147D01*
X035413Y010273D01*
X035249Y010341D01*
X035070Y010341D01*
X034906Y010273D01*
X034780Y010147D01*
X034711Y009982D01*
X034711Y009804D01*
X034780Y009639D01*
X034906Y009513D01*
X035070Y009445D01*
X035249Y009445D01*
X034994Y009477D02*
X007910Y009477D01*
X007910Y009575D02*
X034844Y009575D01*
X034765Y009674D02*
X007910Y009674D01*
X007910Y009772D02*
X034725Y009772D01*
X034711Y009871D02*
X010123Y009871D01*
X010095Y009863D02*
X010357Y009934D01*
X010592Y010069D01*
X010784Y010261D01*
X010919Y010496D01*
X010990Y010758D01*
X010990Y011029D01*
X010919Y011291D01*
X010784Y011526D01*
X010592Y011718D01*
X010357Y011853D01*
X010095Y011923D01*
X009824Y011923D01*
X009562Y011853D01*
X009327Y011718D01*
X009135Y011526D01*
X009000Y011291D01*
X008930Y011029D01*
X008930Y010758D01*
X009000Y010496D01*
X009135Y010261D01*
X009327Y010069D01*
X009562Y009934D01*
X009824Y009863D01*
X010095Y009863D01*
X009796Y009871D02*
X007910Y009871D01*
X007910Y009969D02*
X009500Y009969D01*
X009329Y010068D02*
X007910Y010068D01*
X007910Y010166D02*
X009230Y010166D01*
X009133Y010265D02*
X007910Y010265D01*
X007910Y010363D02*
X009076Y010363D01*
X009019Y010462D02*
X007910Y010462D01*
X007910Y010560D02*
X008982Y010560D01*
X008956Y010659D02*
X007910Y010659D01*
X007910Y010757D02*
X008930Y010757D01*
X008930Y010856D02*
X007910Y010856D01*
X007910Y010954D02*
X008930Y010954D01*
X008936Y011053D02*
X007910Y011053D01*
X007910Y011151D02*
X008962Y011151D01*
X008989Y011250D02*
X007910Y011250D01*
X007910Y011348D02*
X009033Y011348D01*
X009090Y011447D02*
X007910Y011447D01*
X007910Y011545D02*
X009155Y011545D01*
X009253Y011644D02*
X007910Y011644D01*
X007910Y011742D02*
X009370Y011742D01*
X009541Y011841D02*
X007910Y011841D01*
X007910Y011939D02*
X015325Y011939D01*
X015325Y011962D02*
X015325Y011705D01*
X015423Y011468D01*
X015604Y011287D01*
X015841Y011188D01*
X016098Y011188D01*
X016335Y011287D01*
X016516Y011468D01*
X016615Y011705D01*
X016615Y011962D01*
X016516Y012199D01*
X016335Y012380D01*
X016098Y012478D01*
X015841Y012478D01*
X015604Y012380D01*
X015423Y012199D01*
X015325Y011962D01*
X015356Y012038D02*
X007910Y012038D01*
X007910Y012136D02*
X015397Y012136D01*
X015459Y012235D02*
X007910Y012235D01*
X007910Y012333D02*
X015557Y012333D01*
X015729Y012432D02*
X007910Y012432D01*
X007910Y012530D02*
X044259Y012530D01*
X044237Y012509D02*
X044180Y012369D01*
X044180Y012218D01*
X044237Y012078D01*
X044344Y011971D01*
X044484Y011913D01*
X044635Y011913D01*
X044775Y011971D01*
X044882Y012078D01*
X044940Y012218D01*
X044940Y012369D01*
X044882Y012509D01*
X044775Y012615D01*
X044635Y012673D01*
X044484Y012673D01*
X044344Y012615D01*
X044237Y012509D01*
X044206Y012432D02*
X016210Y012432D01*
X016382Y012333D02*
X044180Y012333D01*
X044180Y012235D02*
X016480Y012235D01*
X016542Y012136D02*
X044213Y012136D01*
X044278Y012038D02*
X041721Y012038D01*
X041775Y012015D02*
X041635Y012073D01*
X041484Y012073D01*
X041344Y012015D01*
X041237Y011909D01*
X041180Y011769D01*
X041180Y011618D01*
X041237Y011478D01*
X041344Y011371D01*
X041484Y011313D01*
X041635Y011313D01*
X041775Y011371D01*
X041882Y011478D01*
X041940Y011618D01*
X041940Y011769D01*
X041882Y011909D01*
X041775Y012015D01*
X041851Y011939D02*
X044421Y011939D01*
X044698Y011939D02*
X051108Y011939D01*
X051113Y011928D02*
X051294Y011747D01*
X051531Y011648D01*
X051788Y011648D01*
X052025Y011747D01*
X052206Y011928D01*
X052305Y012165D01*
X052305Y012422D01*
X052206Y012659D01*
X052025Y012840D01*
X051788Y012938D01*
X051531Y012938D01*
X051294Y012840D01*
X051113Y012659D01*
X051015Y012422D01*
X051015Y012165D01*
X051113Y011928D01*
X051067Y012038D02*
X044841Y012038D01*
X044906Y012136D02*
X047428Y012136D01*
X047484Y012113D02*
X047635Y012113D01*
X047775Y012171D01*
X047882Y012278D01*
X047940Y012418D01*
X047940Y012569D01*
X047882Y012709D01*
X047775Y012815D01*
X047635Y012873D01*
X047484Y012873D01*
X047344Y012815D01*
X047237Y012709D01*
X047180Y012569D01*
X047180Y012418D01*
X047237Y012278D01*
X047344Y012171D01*
X047484Y012113D01*
X047691Y012136D02*
X051026Y012136D01*
X051015Y012235D02*
X047838Y012235D01*
X047905Y012333D02*
X051015Y012333D01*
X051019Y012432D02*
X047940Y012432D01*
X047940Y012530D02*
X051060Y012530D01*
X051100Y012629D02*
X047915Y012629D01*
X047863Y012727D02*
X051181Y012727D01*
X051280Y012826D02*
X047750Y012826D01*
X047369Y012826D02*
X007910Y012826D01*
X007910Y012924D02*
X051497Y012924D01*
X051822Y012924D02*
X071466Y012924D01*
X071444Y012915D02*
X071337Y012809D01*
X071280Y012669D01*
X071280Y012518D01*
X071337Y012378D01*
X071444Y012271D01*
X071512Y012243D01*
X071444Y012215D01*
X071337Y012109D01*
X071280Y011969D01*
X071280Y011818D01*
X071337Y011678D01*
X071444Y011571D01*
X071584Y011513D01*
X071735Y011513D01*
X071875Y011571D01*
X071982Y011678D01*
X072040Y011818D01*
X072040Y011969D01*
X071982Y012109D01*
X071875Y012215D01*
X071808Y012243D01*
X071875Y012271D01*
X071982Y012378D01*
X072040Y012518D01*
X072040Y012669D01*
X071982Y012809D01*
X071875Y012915D01*
X071808Y012943D01*
X071875Y012971D01*
X071982Y013078D01*
X072040Y013218D01*
X072040Y013369D01*
X071982Y013509D01*
X071875Y013615D01*
X071735Y013673D01*
X071584Y013673D01*
X071444Y013615D01*
X071337Y013509D01*
X071280Y013369D01*
X071280Y013218D01*
X071337Y013078D01*
X071444Y012971D01*
X071512Y012943D01*
X071444Y012915D01*
X071393Y013023D02*
X019892Y013023D01*
X019845Y013003D02*
X019985Y013061D01*
X020092Y013168D01*
X020150Y013308D01*
X020150Y013459D01*
X020092Y013599D01*
X019985Y013705D01*
X019845Y013763D01*
X019694Y013763D01*
X019554Y013705D01*
X019447Y013599D01*
X019390Y013459D01*
X019390Y013308D01*
X019447Y013168D01*
X019554Y013061D01*
X019694Y013003D01*
X019845Y013003D01*
X019647Y013023D02*
X007910Y013023D01*
X007910Y013121D02*
X019494Y013121D01*
X019426Y013220D02*
X007910Y013220D01*
X007910Y013318D02*
X019390Y013318D01*
X019390Y013417D02*
X007910Y013417D01*
X007910Y013515D02*
X019413Y013515D01*
X019463Y013614D02*
X007910Y013614D01*
X007910Y013712D02*
X019571Y013712D01*
X019968Y013712D02*
X058730Y013712D01*
X058716Y013745D02*
X058829Y013472D01*
X059038Y013263D01*
X059312Y013150D01*
X059607Y013150D01*
X059881Y013263D01*
X060090Y013472D01*
X060203Y013745D01*
X060203Y014041D01*
X060090Y014315D01*
X059881Y014524D01*
X059607Y014637D01*
X059312Y014637D01*
X059038Y014524D01*
X058829Y014315D01*
X058716Y014041D01*
X058716Y013745D01*
X058716Y013811D02*
X007910Y013811D01*
X007910Y013909D02*
X058716Y013909D01*
X058716Y014008D02*
X042811Y014008D01*
X042775Y013971D02*
X042882Y014078D01*
X042940Y014218D01*
X042940Y014369D01*
X042882Y014509D01*
X042775Y014615D01*
X042635Y014673D01*
X042484Y014673D01*
X042344Y014615D01*
X042237Y014509D01*
X042180Y014369D01*
X042180Y014218D01*
X042237Y014078D01*
X042344Y013971D01*
X042484Y013913D01*
X042635Y013913D01*
X042775Y013971D01*
X042893Y014106D02*
X058743Y014106D01*
X058784Y014205D02*
X042934Y014205D01*
X042940Y014303D02*
X058824Y014303D01*
X058916Y014402D02*
X045705Y014402D01*
X045675Y014371D02*
X045782Y014478D01*
X045840Y014618D01*
X045840Y014769D01*
X045782Y014909D01*
X045675Y015015D01*
X045535Y015073D01*
X045384Y015073D01*
X045244Y015015D01*
X045137Y014909D01*
X045080Y014769D01*
X045080Y014618D01*
X045137Y014478D01*
X045244Y014371D01*
X045384Y014313D01*
X045535Y014313D01*
X045675Y014371D01*
X045791Y014500D02*
X059015Y014500D01*
X059219Y014599D02*
X045832Y014599D01*
X045840Y014697D02*
X072262Y014697D01*
X072303Y014599D02*
X059700Y014599D01*
X059904Y014500D02*
X072343Y014500D01*
X072345Y014496D02*
X072668Y014013D01*
X073079Y013602D01*
X073562Y013279D01*
X074099Y013057D01*
X074669Y012943D01*
X075250Y012943D01*
X075820Y013057D01*
X076357Y013279D01*
X076840Y013602D01*
X077251Y014013D01*
X077574Y014496D01*
X077796Y015033D01*
X077910Y015603D01*
X077910Y016184D01*
X077796Y016754D01*
X077574Y017291D01*
X077251Y017774D01*
X076840Y018185D01*
X076357Y018508D01*
X075820Y018730D01*
X075250Y018843D01*
X074669Y018843D01*
X074099Y018730D01*
X073562Y018508D01*
X073079Y018185D01*
X072668Y017774D01*
X072345Y017291D01*
X072123Y016754D01*
X072010Y016184D01*
X072010Y015603D01*
X072123Y015033D01*
X072345Y014496D01*
X072408Y014402D02*
X060003Y014402D01*
X060095Y014303D02*
X072474Y014303D01*
X072540Y014205D02*
X060135Y014205D01*
X060176Y014106D02*
X072606Y014106D01*
X072673Y014008D02*
X060203Y014008D01*
X060203Y013909D02*
X072772Y013909D01*
X072870Y013811D02*
X060203Y013811D01*
X060190Y013712D02*
X072969Y013712D01*
X073067Y013614D02*
X071876Y013614D01*
X071975Y013515D02*
X073209Y013515D01*
X073356Y013417D02*
X072020Y013417D01*
X072040Y013318D02*
X073503Y013318D01*
X073705Y013220D02*
X072040Y013220D01*
X072000Y013121D02*
X073943Y013121D01*
X074269Y013023D02*
X071926Y013023D01*
X071853Y012924D02*
X115217Y012924D01*
X115251Y012939D02*
X115051Y012856D01*
X114897Y012702D01*
X114814Y012502D01*
X114814Y012285D01*
X114897Y012084D01*
X115051Y011931D01*
X115251Y011848D01*
X115468Y011848D01*
X115668Y011931D01*
X115822Y012084D01*
X115905Y012285D01*
X115905Y012502D01*
X115822Y012702D01*
X115668Y012856D01*
X115468Y012939D01*
X115251Y012939D01*
X115502Y012924D02*
X120694Y012924D01*
X120656Y012940D02*
X120853Y012858D01*
X121066Y012858D01*
X121263Y012940D01*
X121413Y013090D01*
X121495Y013287D01*
X121495Y013500D01*
X121413Y013696D01*
X121263Y013847D01*
X121150Y013893D01*
X121263Y013940D01*
X121413Y014090D01*
X121495Y014287D01*
X121495Y014500D01*
X121413Y014696D01*
X121263Y014847D01*
X121150Y014893D01*
X121263Y014940D01*
X121413Y015090D01*
X121495Y015287D01*
X121495Y015500D01*
X121413Y015696D01*
X121263Y015847D01*
X121066Y015928D01*
X120853Y015928D01*
X120656Y015847D01*
X120506Y015696D01*
X120460Y015584D01*
X120413Y015696D01*
X120263Y015847D01*
X120066Y015928D01*
X119853Y015928D01*
X119656Y015847D01*
X119506Y015696D01*
X119460Y015584D01*
X119413Y015696D01*
X119263Y015847D01*
X119066Y015928D01*
X118853Y015928D01*
X118656Y015847D01*
X118506Y015696D01*
X118460Y015584D01*
X118413Y015696D01*
X118263Y015847D01*
X118066Y015928D01*
X117853Y015928D01*
X117656Y015847D01*
X117506Y015696D01*
X117460Y015584D01*
X117413Y015696D01*
X117263Y015847D01*
X117066Y015928D01*
X116853Y015928D01*
X116656Y015847D01*
X116506Y015696D01*
X116460Y015584D01*
X116413Y015696D01*
X116263Y015847D01*
X116066Y015928D01*
X115853Y015928D01*
X115656Y015847D01*
X115506Y015696D01*
X115460Y015584D01*
X115413Y015696D01*
X115263Y015847D01*
X115066Y015928D01*
X114853Y015928D01*
X114656Y015847D01*
X114506Y015696D01*
X114460Y015584D01*
X114413Y015696D01*
X114263Y015847D01*
X114066Y015928D01*
X113853Y015928D01*
X113656Y015847D01*
X113506Y015696D01*
X113460Y015584D01*
X113413Y015696D01*
X113263Y015847D01*
X113066Y015928D01*
X112853Y015928D01*
X112656Y015847D01*
X112506Y015696D01*
X112460Y015584D01*
X112413Y015696D01*
X112263Y015847D01*
X112066Y015928D01*
X111853Y015928D01*
X111656Y015847D01*
X111506Y015696D01*
X111460Y015584D01*
X111413Y015696D01*
X111263Y015847D01*
X111066Y015928D01*
X110853Y015928D01*
X110656Y015847D01*
X110506Y015696D01*
X110460Y015584D01*
X110413Y015696D01*
X110263Y015847D01*
X110066Y015928D01*
X109853Y015928D01*
X109656Y015847D01*
X109506Y015696D01*
X109460Y015584D01*
X109413Y015696D01*
X109263Y015847D01*
X109066Y015928D01*
X108853Y015928D01*
X108656Y015847D01*
X108506Y015696D01*
X108460Y015584D01*
X108413Y015696D01*
X108263Y015847D01*
X108066Y015928D01*
X107853Y015928D01*
X107656Y015847D01*
X107506Y015696D01*
X107425Y015500D01*
X107425Y015287D01*
X107506Y015090D01*
X107656Y014940D01*
X107853Y014858D01*
X108066Y014858D01*
X108263Y014940D01*
X108413Y015090D01*
X108460Y015202D01*
X108506Y015090D01*
X108656Y014940D01*
X108853Y014858D01*
X109066Y014858D01*
X109263Y014940D01*
X109413Y015090D01*
X109460Y015202D01*
X109506Y015090D01*
X109656Y014940D01*
X109853Y014858D01*
X110066Y014858D01*
X110263Y014940D01*
X110413Y015090D01*
X110460Y015202D01*
X110506Y015090D01*
X110656Y014940D01*
X110853Y014858D01*
X111066Y014858D01*
X111263Y014940D01*
X111413Y015090D01*
X111460Y015202D01*
X111506Y015090D01*
X111656Y014940D01*
X111853Y014858D01*
X112066Y014858D01*
X112263Y014940D01*
X112413Y015090D01*
X112460Y015202D01*
X112506Y015090D01*
X112656Y014940D01*
X112853Y014858D01*
X113066Y014858D01*
X113263Y014940D01*
X113413Y015090D01*
X113460Y015202D01*
X113506Y015090D01*
X113656Y014940D01*
X113853Y014858D01*
X114066Y014858D01*
X114263Y014940D01*
X114413Y015090D01*
X114460Y015202D01*
X114506Y015090D01*
X114656Y014940D01*
X114853Y014858D01*
X115066Y014858D01*
X115263Y014940D01*
X115413Y015090D01*
X115460Y015202D01*
X115506Y015090D01*
X115656Y014940D01*
X115853Y014858D01*
X116066Y014858D01*
X116263Y014940D01*
X116413Y015090D01*
X116460Y015202D01*
X116506Y015090D01*
X116656Y014940D01*
X116796Y014882D01*
X116729Y014815D01*
X116616Y014541D01*
X116616Y014245D01*
X116729Y013972D01*
X116938Y013763D01*
X117212Y013650D01*
X117507Y013650D01*
X117781Y013763D01*
X117990Y013972D01*
X118103Y014245D01*
X118103Y014541D01*
X117990Y014815D01*
X117946Y014858D01*
X118066Y014858D01*
X118263Y014940D01*
X118413Y015090D01*
X118460Y015202D01*
X118506Y015090D01*
X118656Y014940D01*
X118853Y014858D01*
X119066Y014858D01*
X119263Y014940D01*
X119413Y015090D01*
X119460Y015202D01*
X119506Y015090D01*
X119656Y014940D01*
X119853Y014858D01*
X120066Y014858D01*
X120263Y014940D01*
X120413Y015090D01*
X120460Y015202D01*
X120506Y015090D01*
X120656Y014940D01*
X120769Y014893D01*
X120656Y014847D01*
X120506Y014696D01*
X120425Y014500D01*
X118103Y014500D01*
X118103Y014402D02*
X120425Y014402D01*
X120425Y014500D02*
X120425Y014287D01*
X120506Y014090D01*
X120656Y013940D01*
X120769Y013893D01*
X120656Y013847D01*
X120506Y013696D01*
X120425Y013500D01*
X120425Y013287D01*
X120506Y013090D01*
X120656Y012940D01*
X120573Y013023D02*
X075650Y013023D01*
X075976Y013121D02*
X120493Y013121D01*
X120452Y013220D02*
X076214Y013220D01*
X076416Y013318D02*
X120425Y013318D01*
X120425Y013417D02*
X076563Y013417D01*
X076710Y013515D02*
X120431Y013515D01*
X120472Y013614D02*
X076852Y013614D01*
X076950Y013712D02*
X117060Y013712D01*
X116890Y013811D02*
X077049Y013811D01*
X077147Y013909D02*
X116792Y013909D01*
X116714Y014008D02*
X077246Y014008D01*
X077313Y014106D02*
X087344Y014106D01*
X087370Y014095D02*
X087549Y014095D01*
X087713Y014163D01*
X087839Y014289D01*
X087908Y014454D01*
X087908Y014632D01*
X087839Y014797D01*
X087713Y014923D01*
X087549Y014991D01*
X087370Y014991D01*
X087206Y014923D01*
X087080Y014797D01*
X087011Y014632D01*
X087011Y014454D01*
X087080Y014289D01*
X087206Y014163D01*
X087370Y014095D01*
X087576Y014106D02*
X116673Y014106D01*
X116633Y014205D02*
X087755Y014205D01*
X087845Y014303D02*
X116616Y014303D01*
X116616Y014402D02*
X087886Y014402D01*
X087908Y014500D02*
X116616Y014500D01*
X116640Y014599D02*
X087908Y014599D01*
X087881Y014697D02*
X116680Y014697D01*
X116721Y014796D02*
X087840Y014796D01*
X087742Y014894D02*
X107766Y014894D01*
X107603Y014993D02*
X080937Y014993D01*
X080871Y014927D02*
X081026Y015082D01*
X081110Y015284D01*
X081110Y015503D01*
X081026Y015705D01*
X080871Y015860D01*
X080669Y015943D01*
X080450Y015943D01*
X080248Y015860D01*
X080093Y015705D01*
X080010Y015503D01*
X080010Y015284D01*
X080093Y015082D01*
X080248Y014927D01*
X080450Y014843D01*
X080669Y014843D01*
X080871Y014927D01*
X080792Y014894D02*
X087177Y014894D01*
X087079Y014796D02*
X077698Y014796D01*
X077739Y014894D02*
X080327Y014894D01*
X080182Y014993D02*
X077780Y014993D01*
X077808Y015091D02*
X080089Y015091D01*
X080048Y015190D02*
X077827Y015190D01*
X077847Y015288D02*
X080010Y015288D01*
X080010Y015387D02*
X077867Y015387D01*
X077886Y015485D02*
X080010Y015485D01*
X080043Y015584D02*
X077906Y015584D01*
X077910Y015682D02*
X080084Y015682D01*
X080169Y015781D02*
X077910Y015781D01*
X077910Y015879D02*
X080296Y015879D01*
X080823Y015879D02*
X107735Y015879D01*
X107590Y015781D02*
X080950Y015781D01*
X081035Y015682D02*
X107500Y015682D01*
X107459Y015584D02*
X081076Y015584D01*
X081110Y015485D02*
X107425Y015485D01*
X107425Y015387D02*
X081110Y015387D01*
X081110Y015288D02*
X107425Y015288D01*
X107465Y015190D02*
X081071Y015190D01*
X081030Y015091D02*
X107506Y015091D01*
X108153Y014894D02*
X108766Y014894D01*
X108603Y014993D02*
X108316Y014993D01*
X108414Y015091D02*
X108506Y015091D01*
X108465Y015190D02*
X108454Y015190D01*
X108419Y015682D02*
X108500Y015682D01*
X108590Y015781D02*
X108329Y015781D01*
X108184Y015879D02*
X108735Y015879D01*
X109184Y015879D02*
X109735Y015879D01*
X109590Y015781D02*
X109329Y015781D01*
X109419Y015682D02*
X109500Y015682D01*
X109465Y015190D02*
X109454Y015190D01*
X109414Y015091D02*
X109506Y015091D01*
X109603Y014993D02*
X109316Y014993D01*
X109153Y014894D02*
X109766Y014894D01*
X110153Y014894D02*
X110766Y014894D01*
X110603Y014993D02*
X110316Y014993D01*
X110414Y015091D02*
X110506Y015091D01*
X110465Y015190D02*
X110454Y015190D01*
X110419Y015682D02*
X110500Y015682D01*
X110590Y015781D02*
X110329Y015781D01*
X110184Y015879D02*
X110735Y015879D01*
X111184Y015879D02*
X111735Y015879D01*
X111590Y015781D02*
X111329Y015781D01*
X111419Y015682D02*
X111500Y015682D01*
X111465Y015190D02*
X111454Y015190D01*
X111414Y015091D02*
X111506Y015091D01*
X111603Y014993D02*
X111316Y014993D01*
X111153Y014894D02*
X111766Y014894D01*
X112153Y014894D02*
X112766Y014894D01*
X112603Y014993D02*
X112316Y014993D01*
X112414Y015091D02*
X112506Y015091D01*
X112465Y015190D02*
X112454Y015190D01*
X112419Y015682D02*
X112500Y015682D01*
X112590Y015781D02*
X112329Y015781D01*
X112184Y015879D02*
X112735Y015879D01*
X113184Y015879D02*
X113735Y015879D01*
X113590Y015781D02*
X113329Y015781D01*
X113419Y015682D02*
X113500Y015682D01*
X113465Y015190D02*
X113454Y015190D01*
X113414Y015091D02*
X113506Y015091D01*
X113603Y014993D02*
X113316Y014993D01*
X113153Y014894D02*
X113766Y014894D01*
X114153Y014894D02*
X114766Y014894D01*
X114603Y014993D02*
X114316Y014993D01*
X114414Y015091D02*
X114506Y015091D01*
X114465Y015190D02*
X114454Y015190D01*
X114419Y015682D02*
X114500Y015682D01*
X114590Y015781D02*
X114329Y015781D01*
X114184Y015879D02*
X114735Y015879D01*
X115184Y015879D02*
X115735Y015879D01*
X115590Y015781D02*
X115329Y015781D01*
X115419Y015682D02*
X115500Y015682D01*
X115465Y015190D02*
X115454Y015190D01*
X115414Y015091D02*
X115506Y015091D01*
X115603Y014993D02*
X115316Y014993D01*
X115153Y014894D02*
X115766Y014894D01*
X116153Y014894D02*
X116766Y014894D01*
X116603Y014993D02*
X116316Y014993D01*
X116414Y015091D02*
X116506Y015091D01*
X116465Y015190D02*
X116454Y015190D01*
X116419Y015682D02*
X116500Y015682D01*
X116590Y015781D02*
X116329Y015781D01*
X116184Y015879D02*
X116735Y015879D01*
X117184Y015879D02*
X117735Y015879D01*
X117590Y015781D02*
X117329Y015781D01*
X117419Y015682D02*
X117500Y015682D01*
X118184Y015879D02*
X118735Y015879D01*
X118590Y015781D02*
X118329Y015781D01*
X118419Y015682D02*
X118500Y015682D01*
X118465Y015190D02*
X118454Y015190D01*
X118414Y015091D02*
X118506Y015091D01*
X118603Y014993D02*
X118316Y014993D01*
X118153Y014894D02*
X118766Y014894D01*
X119153Y014894D02*
X119766Y014894D01*
X119603Y014993D02*
X119316Y014993D01*
X119414Y015091D02*
X119506Y015091D01*
X119465Y015190D02*
X119454Y015190D01*
X119419Y015682D02*
X119500Y015682D01*
X119590Y015781D02*
X119329Y015781D01*
X119184Y015879D02*
X119735Y015879D01*
X120184Y015879D02*
X120735Y015879D01*
X120590Y015781D02*
X120329Y015781D01*
X120419Y015682D02*
X120500Y015682D01*
X120465Y015190D02*
X120454Y015190D01*
X120414Y015091D02*
X120506Y015091D01*
X120603Y014993D02*
X120316Y014993D01*
X120153Y014894D02*
X120766Y014894D01*
X120605Y014796D02*
X117998Y014796D01*
X118039Y014697D02*
X120507Y014697D01*
X120466Y014599D02*
X118079Y014599D01*
X118103Y014303D02*
X120425Y014303D01*
X120459Y014205D02*
X118086Y014205D01*
X118046Y014106D02*
X120499Y014106D01*
X120588Y014008D02*
X118005Y014008D01*
X117927Y013909D02*
X120730Y013909D01*
X120620Y013811D02*
X117829Y013811D01*
X117659Y013712D02*
X120522Y013712D01*
X121189Y013909D02*
X123140Y013909D01*
X123140Y014008D02*
X121331Y014008D01*
X121420Y014106D02*
X123143Y014106D01*
X123184Y014205D02*
X121461Y014205D01*
X121495Y014303D02*
X123234Y014303D01*
X123333Y014402D02*
X121495Y014402D01*
X121494Y014500D02*
X123491Y014500D01*
X123319Y014599D02*
X121453Y014599D01*
X121412Y014697D02*
X123220Y014697D01*
X123178Y014796D02*
X121314Y014796D01*
X121153Y014894D02*
X123140Y014894D01*
X123140Y014993D02*
X121316Y014993D01*
X121414Y015091D02*
X123140Y015091D01*
X123178Y015190D02*
X121454Y015190D01*
X121495Y015288D02*
X123219Y015288D01*
X123318Y015387D02*
X121495Y015387D01*
X121495Y015485D02*
X123489Y015485D01*
X123334Y015584D02*
X121460Y015584D01*
X121419Y015682D02*
X123235Y015682D01*
X123185Y015781D02*
X121329Y015781D01*
X121184Y015879D02*
X123144Y015879D01*
X123140Y015978D02*
X077910Y015978D01*
X077910Y016076D02*
X099800Y016076D01*
X099798Y016077D02*
X100000Y015993D01*
X100219Y015993D01*
X100421Y016077D01*
X100576Y016232D01*
X100660Y016434D01*
X100660Y016653D01*
X100576Y016855D01*
X100421Y017010D01*
X100219Y017093D01*
X100000Y017093D01*
X099798Y017010D01*
X099643Y016855D01*
X099560Y016653D01*
X099560Y016434D01*
X099643Y016232D01*
X099798Y016077D01*
X099700Y016175D02*
X077910Y016175D01*
X077892Y016273D02*
X099626Y016273D01*
X099585Y016372D02*
X077872Y016372D01*
X077853Y016470D02*
X099560Y016470D01*
X099560Y016569D02*
X077833Y016569D01*
X077813Y016667D02*
X099566Y016667D01*
X099606Y016766D02*
X077791Y016766D01*
X077750Y016864D02*
X099653Y016864D01*
X099751Y016963D02*
X089616Y016963D01*
X089569Y016943D02*
X089771Y017027D01*
X089926Y017182D01*
X090010Y017384D01*
X090010Y017603D01*
X089926Y017805D01*
X089771Y017960D01*
X089569Y018043D01*
X089350Y018043D01*
X089148Y017960D01*
X088993Y017805D01*
X088910Y017603D01*
X088910Y017384D01*
X088993Y017182D01*
X089148Y017027D01*
X089350Y016943D01*
X089569Y016943D01*
X089805Y017061D02*
X099923Y017061D01*
X100296Y017061D02*
X101923Y017061D01*
X102000Y017093D02*
X101798Y017010D01*
X101643Y016855D01*
X101560Y016653D01*
X101560Y016434D01*
X101643Y016232D01*
X101798Y016077D01*
X102000Y015993D01*
X102219Y015993D01*
X102421Y016077D01*
X102576Y016232D01*
X102660Y016434D01*
X102660Y016653D01*
X102576Y016855D01*
X102421Y017010D01*
X102219Y017093D01*
X102000Y017093D01*
X101751Y016963D02*
X100468Y016963D01*
X100566Y016864D02*
X101653Y016864D01*
X101606Y016766D02*
X100613Y016766D01*
X100653Y016667D02*
X101566Y016667D01*
X101560Y016569D02*
X100660Y016569D01*
X100660Y016470D02*
X101560Y016470D01*
X101585Y016372D02*
X100634Y016372D01*
X100593Y016273D02*
X101626Y016273D01*
X101700Y016175D02*
X100519Y016175D01*
X100419Y016076D02*
X101800Y016076D01*
X102419Y016076D02*
X123140Y016076D01*
X123172Y016175D02*
X102519Y016175D01*
X102593Y016273D02*
X123213Y016273D01*
X123303Y016372D02*
X102634Y016372D01*
X102660Y016470D02*
X123452Y016470D01*
X123349Y016569D02*
X107569Y016569D01*
X107575Y016571D02*
X107682Y016678D01*
X107740Y016818D01*
X107740Y016969D01*
X107682Y017109D01*
X107575Y017215D01*
X107435Y017273D01*
X107284Y017273D01*
X107144Y017215D01*
X107037Y017109D01*
X106980Y016969D01*
X106980Y016818D01*
X107037Y016678D01*
X107144Y016571D01*
X107284Y016513D01*
X107435Y016513D01*
X107575Y016571D01*
X107671Y016667D02*
X123250Y016667D01*
X123191Y016766D02*
X107718Y016766D01*
X107740Y016864D02*
X123150Y016864D01*
X123140Y016963D02*
X107740Y016963D01*
X107701Y017061D02*
X123140Y017061D01*
X123166Y017160D02*
X107630Y017160D01*
X107471Y017258D02*
X123206Y017258D01*
X123288Y017357D02*
X089998Y017357D01*
X090010Y017455D02*
X113879Y017455D01*
X113714Y017554D02*
X090010Y017554D01*
X089989Y017652D02*
X113617Y017652D01*
X113576Y017751D02*
X089948Y017751D01*
X089881Y017849D02*
X113540Y017849D01*
X113540Y017948D02*
X089783Y017948D01*
X089136Y017948D02*
X085908Y017948D01*
X085908Y017982D02*
X085908Y017804D01*
X085839Y017639D01*
X085713Y017513D01*
X085549Y017445D01*
X085370Y017445D01*
X085206Y017513D01*
X085080Y017639D01*
X085011Y017804D01*
X085011Y017982D01*
X085080Y018147D01*
X085206Y018273D01*
X085370Y018341D01*
X085549Y018341D01*
X085713Y018273D01*
X085839Y018147D01*
X085908Y017982D01*
X085881Y018046D02*
X113540Y018046D01*
X113580Y018145D02*
X085840Y018145D01*
X085743Y018243D02*
X113624Y018243D01*
X113723Y018342D02*
X076605Y018342D01*
X076457Y018440D02*
X083579Y018440D01*
X083606Y018273D02*
X083770Y018341D01*
X083949Y018341D01*
X084113Y018273D01*
X084239Y018147D01*
X084308Y017982D01*
X084308Y017804D01*
X084239Y017639D01*
X084113Y017513D01*
X083949Y017445D01*
X083770Y017445D01*
X083606Y017513D01*
X083480Y017639D01*
X083411Y017804D01*
X083411Y017982D01*
X083480Y018147D01*
X083606Y018273D01*
X083576Y018243D02*
X076752Y018243D01*
X076880Y018145D02*
X083479Y018145D01*
X083438Y018046D02*
X076978Y018046D01*
X077077Y017948D02*
X083411Y017948D01*
X083411Y017849D02*
X077175Y017849D01*
X077266Y017751D02*
X083433Y017751D01*
X083474Y017652D02*
X077332Y017652D01*
X077398Y017554D02*
X083565Y017554D01*
X083746Y017455D02*
X077464Y017455D01*
X077530Y017357D02*
X088921Y017357D01*
X088910Y017455D02*
X085573Y017455D01*
X085754Y017554D02*
X088910Y017554D01*
X088930Y017652D02*
X085845Y017652D01*
X085886Y017751D02*
X088971Y017751D01*
X089038Y017849D02*
X085908Y017849D01*
X085346Y017455D02*
X083973Y017455D01*
X084154Y017554D02*
X085165Y017554D01*
X085074Y017652D02*
X084245Y017652D01*
X084286Y017751D02*
X085033Y017751D01*
X085011Y017849D02*
X084308Y017849D01*
X084308Y017948D02*
X085011Y017948D01*
X085038Y018046D02*
X084281Y018046D01*
X084240Y018145D02*
X085079Y018145D01*
X085176Y018243D02*
X084143Y018243D01*
X084140Y018440D02*
X113901Y018440D01*
X114218Y018440D02*
X114901Y018440D01*
X114723Y018342D02*
X114396Y018342D01*
X114495Y018243D02*
X114624Y018243D01*
X114580Y018145D02*
X114539Y018145D01*
X114543Y017751D02*
X114576Y017751D01*
X114617Y017652D02*
X114502Y017652D01*
X114405Y017554D02*
X114714Y017554D01*
X114879Y017455D02*
X114240Y017455D01*
X117405Y017554D02*
X123364Y017554D01*
X123365Y017552D02*
X123508Y017493D01*
X123365Y017434D01*
X123365Y017552D02*
X123219Y017699D01*
X123140Y017890D01*
X123140Y018097D01*
X123219Y018288D01*
X123365Y018434D01*
X123556Y018513D01*
X123763Y018513D01*
X123954Y018434D01*
X124100Y018288D01*
X124180Y018097D01*
X124180Y017890D01*
X124100Y017699D01*
X123954Y017552D01*
X123811Y017493D01*
X123954Y017434D01*
X124100Y017288D01*
X124180Y017097D01*
X124180Y016890D01*
X124100Y016699D01*
X123954Y016552D01*
X123811Y016493D01*
X123954Y016434D01*
X124100Y016288D01*
X124180Y016097D01*
X124180Y015890D01*
X124100Y015699D01*
X123954Y015552D01*
X123811Y015493D01*
X123954Y015434D01*
X124100Y015288D01*
X124001Y015387D02*
X127010Y015387D01*
X127010Y015485D02*
X123831Y015485D01*
X123985Y015584D02*
X127010Y015584D01*
X127010Y015682D02*
X124084Y015682D01*
X124134Y015781D02*
X127010Y015781D01*
X127010Y015879D02*
X124175Y015879D01*
X124180Y015978D02*
X127010Y015978D01*
X127010Y016076D02*
X124180Y016076D01*
X124147Y016175D02*
X127010Y016175D01*
X127010Y016273D02*
X124106Y016273D01*
X124016Y016372D02*
X127010Y016372D01*
X127010Y016470D02*
X123867Y016470D01*
X123970Y016569D02*
X127010Y016569D01*
X127010Y016667D02*
X124069Y016667D01*
X124128Y016766D02*
X127010Y016766D01*
X127010Y016864D02*
X124169Y016864D01*
X124180Y016963D02*
X127010Y016963D01*
X127010Y017061D02*
X124180Y017061D01*
X124153Y017160D02*
X127010Y017160D01*
X127010Y017258D02*
X124113Y017258D01*
X124031Y017357D02*
X127010Y017357D01*
X127010Y017455D02*
X123903Y017455D01*
X123955Y017554D02*
X127010Y017554D01*
X127010Y017652D02*
X124054Y017652D01*
X124122Y017751D02*
X127010Y017751D01*
X127010Y017849D02*
X124163Y017849D01*
X124180Y017948D02*
X127010Y017948D01*
X127010Y018046D02*
X124180Y018046D01*
X124160Y018145D02*
X127010Y018145D01*
X127010Y018243D02*
X124119Y018243D01*
X124046Y018342D02*
X127010Y018342D01*
X127010Y018440D02*
X123939Y018440D01*
X123380Y018440D02*
X117218Y018440D01*
X117390Y018539D02*
X127010Y018539D01*
X127010Y018637D02*
X117489Y018637D01*
X117536Y018736D02*
X127010Y018736D01*
X127010Y018834D02*
X117577Y018834D01*
X117580Y018933D02*
X127010Y018933D01*
X127010Y019031D02*
X117580Y019031D01*
X117545Y019130D02*
X127010Y019130D01*
X127010Y019228D02*
X117504Y019228D01*
X117411Y019327D02*
X127010Y019327D01*
X127010Y019425D02*
X117255Y019425D01*
X116864Y019425D02*
X116255Y019425D01*
X116411Y019327D02*
X116708Y019327D01*
X116615Y019228D02*
X116504Y019228D01*
X116545Y019130D02*
X116574Y019130D01*
X115864Y019425D02*
X085808Y019425D01*
X085808Y019404D02*
X085739Y019239D01*
X085613Y019113D01*
X085449Y019045D01*
X085270Y019045D01*
X085106Y019113D01*
X084980Y019239D01*
X084911Y019404D01*
X084911Y019582D01*
X084980Y019747D01*
X085106Y019873D01*
X085270Y019941D01*
X085449Y019941D01*
X085613Y019873D01*
X085739Y019747D01*
X085808Y019582D01*
X085808Y019404D01*
X085776Y019327D02*
X115708Y019327D01*
X115615Y019228D02*
X085728Y019228D01*
X085630Y019130D02*
X115574Y019130D01*
X115540Y019031D02*
X084246Y019031D01*
X084239Y019047D02*
X084113Y019173D01*
X083949Y019241D01*
X083770Y019241D01*
X083606Y019173D01*
X083551Y019119D01*
X083539Y019147D01*
X083493Y019193D01*
X083539Y019239D01*
X083608Y019404D01*
X083608Y019413D01*
X083770Y019345D01*
X083949Y019345D01*
X084113Y019413D01*
X084239Y019539D01*
X084308Y019704D01*
X084308Y019882D01*
X084239Y020047D01*
X084113Y020173D01*
X084065Y020193D01*
X084113Y020213D01*
X127010Y020213D01*
X127010Y020115D02*
X084172Y020115D01*
X084113Y020213D02*
X084239Y020339D01*
X084308Y020504D01*
X084308Y020682D01*
X084239Y020847D01*
X084113Y020973D01*
X083949Y021041D01*
X083770Y021041D01*
X083608Y020974D01*
X083608Y021082D01*
X083539Y021247D01*
X083413Y021373D01*
X083249Y021441D01*
X083070Y021441D01*
X082906Y021373D01*
X082780Y021247D01*
X082711Y021082D01*
X082711Y020904D01*
X082780Y020739D01*
X082906Y020613D01*
X082954Y020593D01*
X082906Y020573D01*
X082780Y020447D01*
X082711Y020282D01*
X082711Y020104D01*
X082780Y019939D01*
X082876Y019843D01*
X082780Y019747D01*
X082711Y019582D01*
X082711Y019404D01*
X082780Y019239D01*
X082826Y019193D01*
X082780Y019147D01*
X082791Y019228D02*
X075532Y019228D01*
X075602Y019327D02*
X082743Y019327D01*
X082711Y019425D02*
X075640Y019425D01*
X075640Y019524D02*
X082711Y019524D01*
X082728Y019622D02*
X075617Y019622D01*
X075569Y019721D02*
X082769Y019721D01*
X082852Y019819D02*
X075465Y019819D01*
X075054Y019819D02*
X069319Y019819D01*
X069340Y019721D02*
X074950Y019721D01*
X074902Y019622D02*
X069340Y019622D01*
X069301Y019524D02*
X074880Y019524D01*
X074880Y019425D02*
X069229Y019425D01*
X068014Y019031D02*
X082732Y019031D01*
X082711Y018933D02*
X068040Y018933D01*
X068040Y018834D02*
X074624Y018834D01*
X074129Y018736D02*
X068006Y018736D01*
X067941Y018637D02*
X073875Y018637D01*
X073638Y018539D02*
X067797Y018539D01*
X067522Y018539D02*
X055844Y018539D01*
X055881Y018524D02*
X055607Y018637D01*
X055312Y018637D01*
X055038Y018524D01*
X054829Y018315D01*
X054716Y018041D01*
X054716Y017745D01*
X054829Y017472D01*
X055038Y017263D01*
X055312Y017150D01*
X055607Y017150D01*
X055881Y017263D01*
X056090Y017472D01*
X056203Y017745D01*
X056203Y018041D01*
X056090Y018315D01*
X055881Y018524D01*
X055964Y018440D02*
X073462Y018440D01*
X073314Y018342D02*
X056063Y018342D01*
X056120Y018243D02*
X073167Y018243D01*
X073039Y018145D02*
X056160Y018145D01*
X056201Y018046D02*
X068079Y018046D01*
X068106Y018073D02*
X067980Y017947D01*
X067911Y017782D01*
X067911Y017604D01*
X067980Y017439D01*
X068106Y017313D01*
X068270Y017245D01*
X068449Y017245D01*
X068613Y017313D01*
X068739Y017439D01*
X068808Y017604D01*
X068808Y017782D01*
X068739Y017947D01*
X068613Y018073D01*
X068449Y018141D01*
X068270Y018141D01*
X068106Y018073D01*
X067980Y017948D02*
X056203Y017948D01*
X056203Y017849D02*
X067939Y017849D01*
X067911Y017751D02*
X056203Y017751D01*
X056165Y017652D02*
X067911Y017652D01*
X067932Y017554D02*
X056124Y017554D01*
X056073Y017455D02*
X067973Y017455D01*
X068062Y017357D02*
X055975Y017357D01*
X055870Y017258D02*
X068239Y017258D01*
X068480Y017258D02*
X072332Y017258D01*
X072291Y017160D02*
X055632Y017160D01*
X055287Y017160D02*
X053402Y017160D01*
X053405Y017165D02*
X053306Y016928D01*
X053125Y016747D01*
X052888Y016648D01*
X052631Y016648D01*
X052394Y016747D01*
X052213Y016928D01*
X052115Y017165D01*
X052115Y017422D01*
X052213Y017659D01*
X052394Y017840D01*
X052631Y017938D01*
X052888Y017938D01*
X053125Y017840D01*
X053306Y017659D01*
X053405Y017422D01*
X053405Y017165D01*
X053405Y017258D02*
X055049Y017258D01*
X054944Y017357D02*
X053405Y017357D01*
X053391Y017455D02*
X054846Y017455D01*
X054795Y017554D02*
X053350Y017554D01*
X053309Y017652D02*
X054754Y017652D01*
X054716Y017751D02*
X053214Y017751D01*
X053103Y017849D02*
X054716Y017849D01*
X054716Y017948D02*
X007910Y017948D01*
X007910Y018046D02*
X054718Y018046D01*
X054759Y018145D02*
X007910Y018145D01*
X007910Y018243D02*
X054800Y018243D01*
X054856Y018342D02*
X007910Y018342D01*
X007910Y018440D02*
X054955Y018440D01*
X055075Y018539D02*
X007910Y018539D01*
X007910Y018637D02*
X067378Y018637D01*
X067313Y018736D02*
X007910Y018736D01*
X007910Y018834D02*
X067280Y018834D01*
X067280Y018933D02*
X007910Y018933D01*
X007910Y019031D02*
X067305Y019031D01*
X067359Y019130D02*
X007910Y019130D01*
X007910Y019228D02*
X067475Y019228D01*
X069173Y020016D02*
X082748Y020016D01*
X082711Y020115D02*
X069318Y020115D01*
X069396Y020213D02*
X082711Y020213D01*
X082724Y020312D02*
X069437Y020312D01*
X069440Y020410D02*
X082764Y020410D01*
X082841Y020509D02*
X077712Y020509D01*
X077675Y020471D02*
X077782Y020578D01*
X077840Y020718D01*
X077840Y020869D01*
X077782Y021009D01*
X077675Y021115D01*
X077535Y021173D01*
X077384Y021173D01*
X077244Y021115D01*
X077137Y021009D01*
X077080Y020869D01*
X077080Y020718D01*
X077137Y020578D01*
X077244Y020471D01*
X077384Y020413D01*
X077535Y020413D01*
X077675Y020471D01*
X077794Y020607D02*
X082920Y020607D01*
X082813Y020706D02*
X077835Y020706D01*
X077840Y020804D02*
X082753Y020804D01*
X082712Y020903D02*
X077825Y020903D01*
X077785Y021001D02*
X082711Y021001D01*
X082719Y021100D02*
X077690Y021100D01*
X077229Y021100D02*
X075740Y021100D01*
X075733Y021001D02*
X077134Y021001D01*
X077094Y020903D02*
X075692Y020903D01*
X075608Y020804D02*
X077080Y020804D01*
X077084Y020706D02*
X069284Y020706D01*
X069382Y020607D02*
X077125Y020607D01*
X077207Y020509D02*
X069423Y020509D01*
X069272Y019918D02*
X082801Y019918D01*
X084252Y020016D02*
X127010Y020016D01*
X127010Y019918D02*
X085506Y019918D01*
X085667Y019819D02*
X127010Y019819D01*
X127010Y019721D02*
X085750Y019721D01*
X085791Y019622D02*
X127010Y019622D01*
X127010Y019524D02*
X085808Y019524D01*
X085213Y019918D02*
X084293Y019918D01*
X084308Y019819D02*
X085052Y019819D01*
X084969Y019721D02*
X084308Y019721D01*
X084274Y019622D02*
X084928Y019622D01*
X084911Y019524D02*
X084224Y019524D01*
X084125Y019425D02*
X084911Y019425D01*
X084943Y019327D02*
X083576Y019327D01*
X083528Y019228D02*
X083739Y019228D01*
X083562Y019130D02*
X083547Y019130D01*
X083980Y019228D02*
X084991Y019228D01*
X085089Y019130D02*
X084157Y019130D01*
X084239Y019047D02*
X084308Y018882D01*
X084308Y018704D01*
X084239Y018539D01*
X084280Y018637D02*
X115630Y018637D01*
X115583Y018736D02*
X084308Y018736D01*
X084308Y018834D02*
X115542Y018834D01*
X115540Y018933D02*
X084287Y018933D01*
X082880Y018539D02*
X076281Y018539D01*
X076044Y018637D02*
X082782Y018637D01*
X082740Y018736D02*
X075790Y018736D01*
X075295Y018834D02*
X082711Y018834D01*
X084212Y020312D02*
X127010Y020312D01*
X127010Y020410D02*
X084269Y020410D01*
X084308Y020509D02*
X107212Y020509D01*
X107109Y020607D02*
X085599Y020607D01*
X085613Y020613D02*
X085739Y020739D01*
X085808Y020904D01*
X085808Y021082D01*
X085739Y021247D01*
X085613Y021373D01*
X085449Y021441D01*
X085270Y021441D01*
X085106Y021373D01*
X084980Y021247D01*
X084911Y021082D01*
X084911Y020904D01*
X084980Y020739D01*
X085106Y020613D01*
X085270Y020545D01*
X085449Y020545D01*
X085613Y020613D01*
X085706Y020706D02*
X107050Y020706D01*
X107010Y020804D02*
X085766Y020804D01*
X085807Y020903D02*
X107010Y020903D01*
X107010Y021001D02*
X085808Y021001D01*
X085800Y021100D02*
X107010Y021100D01*
X107010Y021198D02*
X085760Y021198D01*
X085690Y021297D02*
X107010Y021297D01*
X107010Y021395D02*
X085560Y021395D01*
X085159Y021395D02*
X083360Y021395D01*
X083490Y021297D02*
X085029Y021297D01*
X084959Y021198D02*
X083560Y021198D01*
X083600Y021100D02*
X084919Y021100D01*
X084911Y021001D02*
X084045Y021001D01*
X084184Y020903D02*
X084912Y020903D01*
X084953Y020804D02*
X084257Y020804D01*
X084298Y020706D02*
X085013Y020706D01*
X085120Y020607D02*
X084308Y020607D01*
X083674Y021001D02*
X083608Y021001D01*
X082959Y021395D02*
X075595Y021395D01*
X075684Y021413D02*
X075835Y021413D01*
X075975Y021471D01*
X076082Y021578D01*
X076140Y021718D01*
X076140Y021869D01*
X076082Y022009D01*
X075975Y022115D01*
X075835Y022173D01*
X075684Y022173D01*
X075544Y022115D01*
X075437Y022009D01*
X075380Y021869D01*
X075380Y021718D01*
X075437Y021578D01*
X075544Y021471D01*
X075684Y021413D01*
X075687Y021297D02*
X082829Y021297D01*
X082759Y021198D02*
X075727Y021198D01*
X075522Y021494D02*
X071330Y021494D01*
X071340Y021592D02*
X075431Y021592D01*
X075391Y021691D02*
X071330Y021691D01*
X071290Y021789D02*
X075380Y021789D01*
X075387Y021888D02*
X071202Y021888D01*
X071190Y021986D02*
X075428Y021986D01*
X075514Y022085D02*
X071284Y022085D01*
X071289Y021395D02*
X075124Y021395D01*
X075997Y021494D02*
X107010Y021494D01*
X107010Y021592D02*
X076088Y021592D01*
X076128Y021691D02*
X107010Y021691D01*
X107010Y021789D02*
X076140Y021789D01*
X076132Y021888D02*
X107010Y021888D01*
X107010Y021986D02*
X076091Y021986D01*
X076005Y022085D02*
X107010Y022085D01*
X107010Y024843D02*
X007910Y024843D01*
X007910Y024941D02*
X107010Y024941D01*
X092240Y027699D02*
X091701Y027699D01*
X091660Y027798D02*
X092121Y027798D01*
X092056Y027896D02*
X091590Y027896D01*
X091461Y027995D02*
X092015Y027995D01*
X087663Y028783D02*
X007910Y028783D01*
X007910Y028881D02*
X087623Y028881D01*
X087615Y028980D02*
X007910Y028980D01*
X007910Y029078D02*
X087615Y029078D01*
X087655Y029177D02*
X007910Y029177D01*
X007910Y029275D02*
X087714Y029275D01*
X087818Y029374D02*
X007910Y029374D01*
X007910Y029472D02*
X088261Y029472D01*
X088261Y029571D02*
X007910Y029571D01*
X007910Y029669D02*
X088297Y029669D01*
X088350Y029768D02*
X007910Y029768D01*
X007910Y029866D02*
X009813Y029866D01*
X009824Y029863D02*
X010095Y029863D01*
X010357Y029934D01*
X010592Y030069D01*
X010784Y030261D01*
X010919Y030496D01*
X010990Y030758D01*
X010990Y031029D01*
X010919Y031291D01*
X010784Y031526D01*
X010592Y031718D01*
X010357Y031853D01*
X010095Y031923D01*
X009824Y031923D01*
X009562Y031853D01*
X009327Y031718D01*
X009135Y031526D01*
X009000Y031291D01*
X008930Y031029D01*
X008930Y030758D01*
X009000Y030496D01*
X009135Y030261D01*
X009327Y030069D01*
X009562Y029934D01*
X009824Y029863D01*
X010107Y029866D02*
X088449Y029866D01*
X093611Y030504D02*
X093680Y030339D01*
X093806Y030213D01*
X093970Y030145D01*
X094149Y030145D01*
X094313Y030213D01*
X094410Y030310D01*
X094506Y030213D01*
X094670Y030145D01*
X094849Y030145D01*
X095013Y030213D01*
X095139Y030339D01*
X095208Y030504D01*
X095208Y030682D01*
X095139Y030847D01*
X095013Y030973D01*
X094849Y031041D01*
X094670Y031041D01*
X094506Y030973D01*
X094410Y030877D01*
X094313Y030973D01*
X094149Y031041D01*
X093970Y031041D01*
X093806Y030973D01*
X093680Y030847D01*
X093611Y030682D01*
X093611Y030504D01*
X093631Y030457D02*
X010897Y030457D01*
X010935Y030556D02*
X093611Y030556D01*
X093611Y030654D02*
X010962Y030654D01*
X010988Y030753D02*
X093641Y030753D01*
X093684Y030851D02*
X010990Y030851D01*
X010990Y030950D02*
X093782Y030950D01*
X094337Y030950D02*
X094482Y030950D01*
X095037Y030950D02*
X098930Y030950D01*
X098935Y031048D02*
X010984Y031048D01*
X010958Y031147D02*
X098961Y031147D01*
X098988Y031245D02*
X010932Y031245D01*
X010889Y031344D02*
X099030Y031344D01*
X099087Y031442D02*
X010832Y031442D01*
X010769Y031541D02*
X099150Y031541D01*
X099249Y031639D02*
X010670Y031639D01*
X010557Y031738D02*
X099362Y031738D01*
X099533Y031836D02*
X010386Y031836D01*
X009533Y031836D02*
X007910Y031836D01*
X007910Y031738D02*
X009362Y031738D01*
X009249Y031639D02*
X007910Y031639D01*
X007910Y031541D02*
X009150Y031541D01*
X009087Y031442D02*
X007910Y031442D01*
X007910Y031344D02*
X009030Y031344D01*
X008988Y031245D02*
X007910Y031245D01*
X007910Y031147D02*
X008961Y031147D01*
X008935Y031048D02*
X007910Y031048D01*
X007910Y030950D02*
X008930Y030950D01*
X008930Y030851D02*
X007910Y030851D01*
X007910Y030753D02*
X008931Y030753D01*
X008957Y030654D02*
X007910Y030654D01*
X007910Y030556D02*
X008984Y030556D01*
X009022Y030457D02*
X007910Y030457D01*
X007910Y030359D02*
X009079Y030359D01*
X009136Y030260D02*
X007910Y030260D01*
X007910Y030162D02*
X009234Y030162D01*
X009337Y030063D02*
X007910Y030063D01*
X007910Y029965D02*
X009508Y029965D01*
X010411Y029965D02*
X099508Y029965D01*
X099337Y030063D02*
X010582Y030063D01*
X010685Y030162D02*
X093930Y030162D01*
X093759Y030260D02*
X010783Y030260D01*
X010840Y030359D02*
X093672Y030359D01*
X094189Y030162D02*
X094630Y030162D01*
X094459Y030260D02*
X094360Y030260D01*
X094889Y030162D02*
X099234Y030162D01*
X099136Y030260D02*
X095060Y030260D01*
X095147Y030359D02*
X099079Y030359D01*
X099022Y030457D02*
X095188Y030457D01*
X095208Y030556D02*
X098984Y030556D01*
X098957Y030654D02*
X095208Y030654D01*
X095178Y030753D02*
X098931Y030753D01*
X098930Y030851D02*
X095135Y030851D01*
X075577Y024744D02*
X074292Y024744D01*
X074453Y024646D02*
X075416Y024646D01*
X075318Y024547D02*
X074551Y024547D01*
X074630Y024449D02*
X075239Y024449D01*
X075198Y024350D02*
X074671Y024350D01*
X074712Y024252D02*
X075157Y024252D01*
X075135Y024153D02*
X074735Y024153D01*
X074735Y024055D02*
X075135Y024055D01*
X075135Y023956D02*
X074735Y023956D01*
X074722Y023858D02*
X075147Y023858D01*
X075188Y023759D02*
X074681Y023759D01*
X074640Y023661D02*
X075229Y023661D01*
X075294Y023562D02*
X074575Y023562D01*
X074476Y023464D02*
X075393Y023464D01*
X075521Y023365D02*
X074348Y023365D01*
X057948Y027108D02*
X051223Y027108D01*
X051182Y027207D02*
X057850Y027207D01*
X057752Y027305D02*
X051085Y027305D01*
X051107Y027404D02*
X057711Y027404D01*
X057670Y027502D02*
X051192Y027502D01*
X051233Y027601D02*
X057635Y027601D01*
X057635Y027699D02*
X051240Y027699D01*
X051228Y027798D02*
X057635Y027798D01*
X057635Y027896D02*
X051187Y027896D01*
X051095Y027995D02*
X057675Y027995D01*
X049013Y026123D02*
X048849Y026191D01*
X048670Y026191D01*
X048506Y026123D01*
X050056Y022823D02*
X049930Y022697D01*
X049861Y022532D01*
X049861Y022354D01*
X049930Y022189D01*
X050056Y022063D01*
X050220Y021995D01*
X050399Y021995D01*
X050563Y022063D01*
X050689Y022189D01*
X050758Y022354D01*
X050758Y022532D01*
X050689Y022697D01*
X050563Y022823D01*
X050399Y022891D01*
X050220Y022891D01*
X050056Y022823D01*
X050007Y022774D02*
X007910Y022774D01*
X007910Y022676D02*
X049921Y022676D01*
X049880Y022577D02*
X007910Y022577D01*
X007910Y022479D02*
X047994Y022479D01*
X047869Y022380D02*
X023890Y022380D01*
X023885Y022385D02*
X023745Y022443D01*
X023594Y022443D01*
X023454Y022385D01*
X023347Y022279D01*
X023290Y022139D01*
X023290Y021988D01*
X023347Y021848D01*
X023454Y021741D01*
X023594Y021683D01*
X023745Y021683D01*
X023885Y021741D01*
X023992Y021848D01*
X024050Y021988D01*
X024050Y022139D01*
X023992Y022279D01*
X023885Y022385D01*
X023988Y022282D02*
X047784Y022282D01*
X047743Y022183D02*
X024031Y022183D01*
X024050Y022085D02*
X025614Y022085D01*
X025516Y021986D02*
X024049Y021986D01*
X024008Y021888D02*
X025476Y021888D01*
X025460Y021789D02*
X023933Y021789D01*
X023763Y021691D02*
X025462Y021691D01*
X025503Y021592D02*
X007910Y021592D01*
X007910Y021494D02*
X025582Y021494D01*
X026097Y021494D02*
X048028Y021494D01*
X047883Y021592D02*
X026176Y021592D01*
X026217Y021691D02*
X047789Y021691D01*
X047749Y021789D02*
X026220Y021789D01*
X026203Y021888D02*
X047710Y021888D01*
X047710Y021986D02*
X026163Y021986D01*
X026065Y022085D02*
X047710Y022085D01*
X048525Y022479D02*
X049861Y022479D01*
X049861Y022380D02*
X048650Y022380D01*
X048735Y022282D02*
X049891Y022282D01*
X049936Y022183D02*
X048776Y022183D01*
X048810Y022085D02*
X050034Y022085D01*
X050585Y022085D02*
X055728Y022085D01*
X055687Y021986D02*
X048810Y021986D01*
X048810Y021888D02*
X055680Y021888D01*
X055691Y021789D02*
X048770Y021789D01*
X048730Y021691D02*
X055732Y021691D01*
X055812Y022183D02*
X055541Y022183D01*
X055178Y022183D02*
X052141Y022183D01*
X052213Y022213D02*
X052339Y022339D01*
X052408Y022504D01*
X052408Y022682D01*
X052339Y022847D01*
X052213Y022973D01*
X052049Y023041D01*
X051870Y023041D01*
X051706Y022973D01*
X051580Y022847D01*
X051511Y022682D01*
X051511Y022504D01*
X051580Y022339D01*
X051706Y022213D01*
X051870Y022145D01*
X052049Y022145D01*
X052213Y022213D01*
X052282Y022282D02*
X055037Y022282D01*
X054963Y022380D02*
X052356Y022380D01*
X052397Y022479D02*
X054922Y022479D01*
X054911Y022577D02*
X052408Y022577D01*
X052408Y022676D02*
X054911Y022676D01*
X054949Y022774D02*
X052370Y022774D01*
X052314Y022873D02*
X055005Y022873D01*
X055104Y022971D02*
X052215Y022971D01*
X051704Y022971D02*
X007910Y022971D01*
X007910Y022873D02*
X050176Y022873D01*
X050443Y022873D02*
X051605Y022873D01*
X051549Y022774D02*
X050612Y022774D01*
X050698Y022676D02*
X051511Y022676D01*
X051511Y022577D02*
X050739Y022577D01*
X050758Y022479D02*
X051522Y022479D01*
X051563Y022380D02*
X050758Y022380D01*
X050728Y022282D02*
X051637Y022282D01*
X051778Y022183D02*
X050683Y022183D01*
X052416Y017849D02*
X007910Y017849D01*
X007910Y017751D02*
X052305Y017751D01*
X052210Y017652D02*
X025576Y017652D01*
X025580Y017651D02*
X025440Y017709D01*
X025289Y017709D01*
X025150Y017651D01*
X025043Y017544D01*
X024985Y017404D01*
X024985Y017253D01*
X025043Y017113D01*
X025150Y017006D01*
X025289Y016949D01*
X025440Y016949D01*
X025580Y017006D01*
X025687Y017113D01*
X025745Y017253D01*
X025745Y017404D01*
X025687Y017544D01*
X025580Y017651D01*
X025677Y017554D02*
X052169Y017554D01*
X052128Y017455D02*
X025724Y017455D01*
X025745Y017357D02*
X052115Y017357D01*
X052115Y017258D02*
X025745Y017258D01*
X025706Y017160D02*
X052117Y017160D01*
X052157Y017061D02*
X025635Y017061D01*
X025475Y016963D02*
X052198Y016963D01*
X052276Y016864D02*
X007910Y016864D01*
X007910Y016766D02*
X052375Y016766D01*
X052585Y016667D02*
X007910Y016667D01*
X007910Y016569D02*
X072086Y016569D01*
X072106Y016667D02*
X052934Y016667D01*
X053144Y016766D02*
X072128Y016766D01*
X072169Y016864D02*
X053243Y016864D01*
X053321Y016963D02*
X072209Y016963D01*
X072250Y017061D02*
X053362Y017061D01*
X056914Y016002D02*
X056997Y016202D01*
X057151Y016356D01*
X057351Y016439D01*
X057568Y016439D01*
X057768Y016356D01*
X057922Y016202D01*
X058005Y016002D01*
X058005Y015785D01*
X057922Y015584D01*
X057768Y015431D01*
X057568Y015348D01*
X057351Y015348D01*
X057151Y015431D01*
X056997Y015584D01*
X056914Y015785D01*
X056914Y016002D01*
X056914Y015978D02*
X020770Y015978D01*
X020770Y015993D02*
X020686Y016195D01*
X020531Y016350D01*
X020329Y016433D01*
X020110Y016433D01*
X019908Y016350D01*
X019753Y016195D01*
X019670Y015993D01*
X019670Y015774D01*
X019753Y015572D01*
X019908Y015417D01*
X020110Y015333D01*
X020329Y015333D01*
X020531Y015417D01*
X020686Y015572D01*
X020770Y015774D01*
X020770Y015993D01*
X020735Y016076D02*
X056945Y016076D01*
X056986Y016175D02*
X020694Y016175D01*
X020607Y016273D02*
X057068Y016273D01*
X057190Y016372D02*
X020477Y016372D01*
X019962Y016372D02*
X007910Y016372D01*
X007910Y016470D02*
X072066Y016470D01*
X072047Y016372D02*
X057729Y016372D01*
X057851Y016273D02*
X072027Y016273D01*
X072010Y016175D02*
X057933Y016175D01*
X057974Y016076D02*
X072010Y016076D01*
X072010Y015978D02*
X058005Y015978D01*
X058005Y015879D02*
X072010Y015879D01*
X072010Y015781D02*
X058003Y015781D01*
X057962Y015682D02*
X072010Y015682D01*
X072013Y015584D02*
X057921Y015584D01*
X057823Y015485D02*
X072033Y015485D01*
X072052Y015387D02*
X057662Y015387D01*
X057257Y015387D02*
X047840Y015387D01*
X047840Y015318D02*
X047782Y015178D01*
X047675Y015071D01*
X047535Y015013D01*
X047384Y015013D01*
X047244Y015071D01*
X047137Y015178D01*
X047080Y015318D01*
X047080Y015469D01*
X047137Y015609D01*
X047244Y015715D01*
X047384Y015773D01*
X047535Y015773D01*
X047675Y015715D01*
X047782Y015609D01*
X047840Y015469D01*
X047840Y015318D01*
X047827Y015288D02*
X072072Y015288D01*
X072092Y015190D02*
X047787Y015190D01*
X047695Y015091D02*
X072111Y015091D01*
X072139Y014993D02*
X045697Y014993D01*
X045788Y014894D02*
X072180Y014894D01*
X072221Y014796D02*
X045828Y014796D01*
X045222Y014993D02*
X007910Y014993D01*
X007910Y015091D02*
X047224Y015091D01*
X047132Y015190D02*
X007910Y015190D01*
X007910Y015288D02*
X047092Y015288D01*
X047080Y015387D02*
X020458Y015387D01*
X020599Y015485D02*
X047086Y015485D01*
X047127Y015584D02*
X020691Y015584D01*
X020732Y015682D02*
X047211Y015682D01*
X047708Y015682D02*
X056957Y015682D01*
X056998Y015584D02*
X047792Y015584D01*
X047833Y015485D02*
X057096Y015485D01*
X056916Y015781D02*
X020770Y015781D01*
X020770Y015879D02*
X056914Y015879D01*
X058770Y013614D02*
X020076Y013614D01*
X020126Y013515D02*
X058811Y013515D01*
X058884Y013417D02*
X020150Y013417D01*
X020150Y013318D02*
X058983Y013318D01*
X059142Y013220D02*
X020113Y013220D01*
X020045Y013121D02*
X071319Y013121D01*
X071280Y013220D02*
X059777Y013220D01*
X059936Y013318D02*
X071280Y013318D01*
X071299Y013417D02*
X060035Y013417D01*
X060108Y013515D02*
X071344Y013515D01*
X071443Y013614D02*
X060149Y013614D01*
X052300Y012432D02*
X071315Y012432D01*
X071280Y012530D02*
X052259Y012530D01*
X052219Y012629D02*
X071280Y012629D01*
X071304Y012727D02*
X052138Y012727D01*
X052039Y012826D02*
X071355Y012826D01*
X071382Y012333D02*
X052305Y012333D01*
X052305Y012235D02*
X071491Y012235D01*
X071365Y012136D02*
X052293Y012136D01*
X052252Y012038D02*
X071308Y012038D01*
X071280Y011939D02*
X052211Y011939D01*
X052119Y011841D02*
X071280Y011841D01*
X071311Y011742D02*
X052015Y011742D01*
X051304Y011742D02*
X048610Y011742D01*
X048675Y011715D02*
X048535Y011773D01*
X048384Y011773D01*
X048244Y011715D01*
X048137Y011609D01*
X048080Y011469D01*
X048080Y011318D01*
X048137Y011178D01*
X048244Y011071D01*
X048384Y011013D01*
X048535Y011013D01*
X048675Y011071D01*
X048782Y011178D01*
X048840Y011318D01*
X048840Y011469D01*
X048782Y011609D01*
X048675Y011715D01*
X048746Y011644D02*
X071372Y011644D01*
X071507Y011545D02*
X048808Y011545D01*
X048840Y011447D02*
X076069Y011447D01*
X076093Y011505D02*
X076010Y011303D01*
X076010Y011084D01*
X076093Y010882D01*
X076248Y010727D01*
X076450Y010643D01*
X076669Y010643D01*
X076871Y010727D01*
X077026Y010882D01*
X077110Y011084D01*
X077110Y011303D01*
X077026Y011505D01*
X076871Y011660D01*
X076669Y011743D01*
X076450Y011743D01*
X076248Y011660D01*
X076093Y011505D01*
X076134Y011545D02*
X071812Y011545D01*
X071947Y011644D02*
X076232Y011644D01*
X076448Y011742D02*
X072008Y011742D01*
X072040Y011841D02*
X104541Y011841D01*
X104370Y011742D02*
X076671Y011742D01*
X076887Y011644D02*
X104253Y011644D01*
X104155Y011545D02*
X076985Y011545D01*
X077050Y011447D02*
X104090Y011447D01*
X104033Y011348D02*
X077091Y011348D01*
X077110Y011250D02*
X103989Y011250D01*
X103962Y011151D02*
X077110Y011151D01*
X077097Y011053D02*
X103936Y011053D01*
X103930Y010954D02*
X077056Y010954D01*
X077000Y010856D02*
X103930Y010856D01*
X103930Y010757D02*
X091673Y010757D01*
X091671Y010760D02*
X091469Y010843D01*
X091250Y010843D01*
X091048Y010760D01*
X090893Y010605D01*
X090810Y010403D01*
X090810Y010184D01*
X090893Y009982D01*
X091048Y009827D01*
X091250Y009743D01*
X091469Y009743D01*
X091671Y009827D01*
X091826Y009982D01*
X091910Y010184D01*
X091910Y010403D01*
X091826Y010605D01*
X091671Y010760D01*
X091772Y010659D02*
X103956Y010659D01*
X103982Y010560D02*
X091844Y010560D01*
X091885Y010462D02*
X104019Y010462D01*
X104076Y010363D02*
X091910Y010363D01*
X091910Y010265D02*
X104133Y010265D01*
X104230Y010166D02*
X091902Y010166D01*
X091861Y010068D02*
X104329Y010068D01*
X104500Y009969D02*
X091813Y009969D01*
X091715Y009871D02*
X104796Y009871D01*
X105123Y009871D02*
X108714Y009871D01*
X108582Y009772D02*
X091539Y009772D01*
X091180Y009772D02*
X047976Y009772D01*
X047982Y009778D02*
X048040Y009918D01*
X048040Y010069D01*
X047982Y010209D01*
X047875Y010315D01*
X047735Y010373D01*
X047584Y010373D01*
X047444Y010315D01*
X047337Y010209D01*
X047280Y010069D01*
X047280Y009918D01*
X047337Y009778D01*
X047444Y009671D01*
X047584Y009613D01*
X047735Y009613D01*
X047875Y009671D01*
X047982Y009778D01*
X048020Y009871D02*
X091004Y009871D01*
X090906Y009969D02*
X048040Y009969D01*
X048040Y010068D02*
X090858Y010068D01*
X090817Y010166D02*
X047999Y010166D01*
X047925Y010265D02*
X090810Y010265D01*
X090810Y010363D02*
X047759Y010363D01*
X047560Y010363D02*
X010843Y010363D01*
X010786Y010265D02*
X034897Y010265D01*
X034799Y010166D02*
X010689Y010166D01*
X010590Y010068D02*
X034747Y010068D01*
X034711Y009969D02*
X010419Y009969D01*
X010900Y010462D02*
X018854Y010462D01*
X018854Y010461D02*
X018994Y010403D01*
X019145Y010403D01*
X019285Y010461D01*
X019392Y010568D01*
X019450Y010708D01*
X019450Y010859D01*
X019392Y010999D01*
X019285Y011105D01*
X019145Y011163D01*
X018994Y011163D01*
X018854Y011105D01*
X018747Y010999D01*
X018690Y010859D01*
X018690Y010708D01*
X018747Y010568D01*
X018854Y010461D01*
X018755Y010560D02*
X010937Y010560D01*
X010963Y010659D02*
X018710Y010659D01*
X018690Y010757D02*
X010989Y010757D01*
X010990Y010856D02*
X018690Y010856D01*
X018729Y010954D02*
X010990Y010954D01*
X010983Y011053D02*
X018802Y011053D01*
X018965Y011151D02*
X010957Y011151D01*
X010930Y011250D02*
X015693Y011250D01*
X015542Y011348D02*
X010886Y011348D01*
X010829Y011447D02*
X015444Y011447D01*
X015391Y011545D02*
X010764Y011545D01*
X010666Y011644D02*
X015350Y011644D01*
X015325Y011742D02*
X010549Y011742D01*
X010378Y011841D02*
X015325Y011841D01*
X016495Y011447D02*
X021580Y011447D01*
X021580Y011418D02*
X021637Y011278D01*
X021744Y011171D01*
X021884Y011113D01*
X022035Y011113D01*
X022175Y011171D01*
X022282Y011278D01*
X022340Y011418D01*
X022340Y011569D01*
X022282Y011709D01*
X022175Y011815D01*
X022035Y011873D01*
X021884Y011873D01*
X021744Y011815D01*
X021637Y011709D01*
X021580Y011569D01*
X021580Y011418D01*
X021608Y011348D02*
X016397Y011348D01*
X016246Y011250D02*
X021666Y011250D01*
X021792Y011151D02*
X019174Y011151D01*
X019337Y011053D02*
X045282Y011053D01*
X045237Y011009D02*
X045180Y010869D01*
X045180Y010718D01*
X045237Y010578D01*
X045344Y010471D01*
X045484Y010413D01*
X045635Y010413D01*
X045775Y010471D01*
X045882Y010578D01*
X045940Y010718D01*
X045940Y010869D01*
X045882Y011009D01*
X045775Y011115D01*
X045635Y011173D01*
X045484Y011173D01*
X045344Y011115D01*
X045237Y011009D01*
X045215Y010954D02*
X019410Y010954D01*
X019450Y010856D02*
X045180Y010856D01*
X045180Y010757D02*
X019450Y010757D01*
X019429Y010659D02*
X045204Y010659D01*
X045255Y010560D02*
X019384Y010560D01*
X019285Y010462D02*
X045367Y010462D01*
X045752Y010462D02*
X090834Y010462D01*
X090875Y010560D02*
X045864Y010560D01*
X045915Y010659D02*
X076413Y010659D01*
X076218Y010757D02*
X045940Y010757D01*
X045940Y010856D02*
X076119Y010856D01*
X076063Y010954D02*
X045904Y010954D01*
X045837Y011053D02*
X048289Y011053D01*
X048164Y011151D02*
X045688Y011151D01*
X045431Y011151D02*
X022127Y011151D01*
X022253Y011250D02*
X048108Y011250D01*
X048080Y011348D02*
X041720Y011348D01*
X041850Y011447D02*
X048080Y011447D01*
X048111Y011545D02*
X041910Y011545D01*
X041940Y011644D02*
X048173Y011644D01*
X048309Y011742D02*
X041940Y011742D01*
X041910Y011841D02*
X051200Y011841D01*
X048840Y011348D02*
X076028Y011348D01*
X076010Y011250D02*
X048811Y011250D01*
X048755Y011151D02*
X076010Y011151D01*
X076022Y011053D02*
X048630Y011053D01*
X047394Y010265D02*
X035422Y010265D01*
X035520Y010166D02*
X047320Y010166D01*
X047280Y010068D02*
X035572Y010068D01*
X035608Y009969D02*
X047280Y009969D01*
X047299Y009871D02*
X035608Y009871D01*
X035594Y009772D02*
X047343Y009772D01*
X047442Y009674D02*
X035554Y009674D01*
X035475Y009575D02*
X108456Y009575D01*
X108497Y009674D02*
X047877Y009674D01*
X041399Y011348D02*
X022311Y011348D01*
X022340Y011447D02*
X041269Y011447D01*
X041210Y011545D02*
X022340Y011545D01*
X022308Y011644D02*
X041180Y011644D01*
X041180Y011742D02*
X022248Y011742D01*
X022114Y011841D02*
X041209Y011841D01*
X041268Y011939D02*
X016615Y011939D01*
X016615Y011841D02*
X021805Y011841D01*
X021671Y011742D02*
X016615Y011742D01*
X016589Y011644D02*
X021611Y011644D01*
X021580Y011545D02*
X016548Y011545D01*
X016583Y012038D02*
X041398Y012038D01*
X044377Y012629D02*
X007910Y012629D01*
X007910Y012727D02*
X047256Y012727D01*
X047204Y012629D02*
X044743Y012629D01*
X044860Y012530D02*
X047180Y012530D01*
X047180Y012432D02*
X044913Y012432D01*
X044940Y012333D02*
X047214Y012333D01*
X047281Y012235D02*
X044940Y012235D01*
X042308Y014008D02*
X007910Y014008D01*
X007910Y014106D02*
X042226Y014106D01*
X042185Y014205D02*
X007910Y014205D01*
X007910Y014303D02*
X042180Y014303D01*
X042193Y014402D02*
X007910Y014402D01*
X007910Y014500D02*
X042234Y014500D01*
X042328Y014599D02*
X007910Y014599D01*
X007910Y014697D02*
X045080Y014697D01*
X045087Y014599D02*
X042791Y014599D01*
X042885Y014500D02*
X045128Y014500D01*
X045214Y014402D02*
X042926Y014402D01*
X045091Y014796D02*
X007910Y014796D01*
X007910Y014894D02*
X045131Y014894D01*
X025255Y016963D02*
X007910Y016963D01*
X007910Y017061D02*
X025095Y017061D01*
X025023Y017160D02*
X007910Y017160D01*
X007910Y017258D02*
X024985Y017258D01*
X024985Y017357D02*
X007910Y017357D01*
X007910Y017455D02*
X025006Y017455D01*
X025053Y017554D02*
X007910Y017554D01*
X007910Y017652D02*
X025153Y017652D01*
X019832Y016273D02*
X007910Y016273D01*
X007910Y016175D02*
X019745Y016175D01*
X019704Y016076D02*
X007910Y016076D01*
X007910Y015978D02*
X019670Y015978D01*
X019670Y015879D02*
X007910Y015879D01*
X007910Y015781D02*
X019670Y015781D01*
X019707Y015682D02*
X007910Y015682D01*
X007910Y015584D02*
X019748Y015584D01*
X019840Y015485D02*
X007910Y015485D01*
X007910Y015387D02*
X019981Y015387D01*
X022813Y020706D02*
X007910Y020706D01*
X007910Y020804D02*
X022729Y020804D01*
X022689Y020903D02*
X007910Y020903D01*
X007910Y021001D02*
X022671Y021001D01*
X022671Y021100D02*
X007910Y021100D01*
X007910Y021198D02*
X022703Y021198D01*
X022749Y021297D02*
X007910Y021297D01*
X007910Y021395D02*
X022848Y021395D01*
X023406Y021789D02*
X007910Y021789D01*
X007910Y021691D02*
X023576Y021691D01*
X023331Y021888D02*
X007910Y021888D01*
X007910Y021986D02*
X023290Y021986D01*
X023290Y022085D02*
X007910Y022085D01*
X007910Y022183D02*
X023308Y022183D01*
X023351Y022282D02*
X007910Y022282D01*
X007910Y022380D02*
X023449Y022380D01*
X026436Y023365D02*
X018798Y023365D01*
X018926Y023464D02*
X026337Y023464D01*
X026292Y023562D02*
X019025Y023562D01*
X019090Y023661D02*
X026251Y023661D01*
X026216Y023759D02*
X019131Y023759D01*
X019172Y023858D02*
X026216Y023858D01*
X026216Y023956D02*
X019185Y023956D01*
X019185Y024055D02*
X026221Y024055D01*
X026262Y024153D02*
X019185Y024153D01*
X019162Y024252D02*
X026303Y024252D01*
X026365Y024350D02*
X019121Y024350D01*
X019080Y024449D02*
X026463Y024449D01*
X026595Y024547D02*
X019001Y024547D01*
X018077Y024744D02*
X016792Y024744D01*
X016899Y024700D02*
X016614Y024818D01*
X016305Y024818D01*
X016021Y024700D01*
X015803Y024482D01*
X015685Y024197D01*
X015685Y023889D01*
X015803Y023604D01*
X016021Y023386D01*
X016305Y023268D01*
X016614Y023268D01*
X016899Y023386D01*
X017117Y023604D01*
X017235Y023889D01*
X017235Y024197D01*
X017117Y024482D01*
X016899Y024700D01*
X016953Y024646D02*
X017916Y024646D01*
X017818Y024547D02*
X017051Y024547D01*
X017130Y024449D02*
X017739Y024449D01*
X017698Y024350D02*
X017171Y024350D01*
X017212Y024252D02*
X017657Y024252D01*
X017635Y024153D02*
X017235Y024153D01*
X017235Y024055D02*
X017635Y024055D01*
X017635Y023956D02*
X017235Y023956D01*
X017222Y023858D02*
X017647Y023858D01*
X017688Y023759D02*
X017181Y023759D01*
X017140Y023661D02*
X017729Y023661D01*
X017794Y023562D02*
X017075Y023562D01*
X016976Y023464D02*
X017893Y023464D01*
X018021Y023365D02*
X016848Y023365D01*
X016071Y023365D02*
X007910Y023365D01*
X007910Y023267D02*
X026534Y023267D01*
X018207Y025138D02*
X016712Y025138D01*
X016949Y025237D02*
X017970Y025237D01*
X017871Y025335D02*
X017048Y025335D01*
X017146Y025434D02*
X017773Y025434D01*
X017720Y025532D02*
X017199Y025532D01*
X017240Y025631D02*
X017679Y025631D01*
X017639Y025729D02*
X017280Y025729D01*
X017285Y025828D02*
X017635Y025828D01*
X017635Y025926D02*
X017285Y025926D01*
X017285Y026025D02*
X017635Y026025D01*
X017666Y026123D02*
X017253Y026123D01*
X017212Y026222D02*
X017707Y026222D01*
X017748Y026320D02*
X017171Y026320D01*
X017080Y026419D02*
X017839Y026419D01*
X017938Y026517D02*
X016981Y026517D01*
X016790Y026616D02*
X018129Y026616D01*
X018155Y027010D02*
X007910Y027010D01*
X007910Y027108D02*
X017948Y027108D01*
X017850Y027207D02*
X007910Y027207D01*
X007910Y027305D02*
X017752Y027305D01*
X017711Y027404D02*
X007910Y027404D01*
X007910Y027502D02*
X017670Y027502D01*
X017635Y027601D02*
X007910Y027601D01*
X007910Y027699D02*
X017635Y027699D01*
X017635Y027798D02*
X007910Y027798D01*
X007910Y027896D02*
X017635Y027896D01*
X017675Y027995D02*
X007910Y027995D01*
X007910Y028093D02*
X017716Y028093D01*
X017762Y028192D02*
X007910Y028192D01*
X007910Y028290D02*
X017861Y028290D01*
X017959Y028389D02*
X007910Y028389D01*
X007910Y028487D02*
X018181Y028487D01*
X016127Y024744D02*
X007910Y024744D01*
X007910Y024646D02*
X015966Y024646D01*
X015868Y024547D02*
X007910Y024547D01*
X007910Y024449D02*
X015789Y024449D01*
X015748Y024350D02*
X007910Y024350D01*
X007910Y024252D02*
X015707Y024252D01*
X015685Y024153D02*
X007910Y024153D01*
X007910Y024055D02*
X015685Y024055D01*
X015685Y023956D02*
X007910Y023956D01*
X007910Y023858D02*
X015697Y023858D01*
X015738Y023759D02*
X007910Y023759D01*
X007910Y023661D02*
X015779Y023661D01*
X015844Y023562D02*
X007910Y023562D01*
X007910Y023464D02*
X015943Y023464D01*
X068640Y018046D02*
X072941Y018046D01*
X072842Y017948D02*
X068739Y017948D01*
X068780Y017849D02*
X072744Y017849D01*
X072653Y017751D02*
X068808Y017751D01*
X068808Y017652D02*
X072587Y017652D01*
X072521Y017554D02*
X068787Y017554D01*
X068746Y017455D02*
X072455Y017455D01*
X072389Y017357D02*
X068657Y017357D01*
X077587Y017258D02*
X088962Y017258D01*
X089015Y017160D02*
X077628Y017160D01*
X077669Y017061D02*
X089114Y017061D01*
X089303Y016963D02*
X077710Y016963D01*
X077657Y014697D02*
X087038Y014697D01*
X087011Y014599D02*
X077616Y014599D01*
X077576Y014500D02*
X087011Y014500D01*
X087033Y014402D02*
X077511Y014402D01*
X077445Y014303D02*
X087074Y014303D01*
X087164Y014205D02*
X077379Y014205D01*
X072015Y012727D02*
X114922Y012727D01*
X114867Y012629D02*
X072040Y012629D01*
X072040Y012530D02*
X114826Y012530D01*
X114814Y012432D02*
X072004Y012432D01*
X071937Y012333D02*
X114814Y012333D01*
X114835Y012235D02*
X071828Y012235D01*
X071954Y012136D02*
X114876Y012136D01*
X114944Y012038D02*
X072011Y012038D01*
X072040Y011939D02*
X115042Y011939D01*
X115677Y011939D02*
X123140Y011939D01*
X123140Y012038D02*
X115775Y012038D01*
X115843Y012136D02*
X123156Y012136D01*
X123197Y012235D02*
X115884Y012235D01*
X115905Y012333D02*
X123264Y012333D01*
X123363Y012432D02*
X115905Y012432D01*
X115893Y012530D02*
X123418Y012530D01*
X123289Y012629D02*
X115852Y012629D01*
X115797Y012727D02*
X123207Y012727D01*
X123166Y012826D02*
X115698Y012826D01*
X115021Y012826D02*
X071964Y012826D01*
X076706Y010659D02*
X090947Y010659D01*
X091046Y010757D02*
X076901Y010757D01*
X089904Y017160D02*
X107089Y017160D01*
X107018Y017061D02*
X102296Y017061D01*
X102468Y016963D02*
X106980Y016963D01*
X106980Y016864D02*
X102566Y016864D01*
X102613Y016766D02*
X107001Y016766D01*
X107048Y016667D02*
X102653Y016667D01*
X102660Y016569D02*
X107150Y016569D01*
X107248Y017258D02*
X089957Y017258D01*
X105983Y011053D02*
X113008Y011053D01*
X112869Y010954D02*
X105990Y010954D01*
X105990Y010856D02*
X112770Y010856D01*
X112705Y010757D02*
X105989Y010757D01*
X105963Y010659D02*
X112665Y010659D01*
X112624Y010560D02*
X105937Y010560D01*
X105900Y010462D02*
X112616Y010462D01*
X112616Y010363D02*
X105843Y010363D01*
X105786Y010265D02*
X112616Y010265D01*
X112649Y010166D02*
X105689Y010166D01*
X105590Y010068D02*
X112689Y010068D01*
X112732Y009969D02*
X105419Y009969D01*
X121132Y008886D02*
X127010Y008886D01*
X127010Y008984D02*
X121307Y008984D01*
X121406Y009083D02*
X127010Y009083D01*
X127010Y009181D02*
X121451Y009181D01*
X121492Y009280D02*
X127010Y009280D01*
X127010Y009378D02*
X121495Y009378D01*
X121495Y009477D02*
X127010Y009477D01*
X127010Y009575D02*
X121463Y009575D01*
X121422Y009674D02*
X127010Y009674D01*
X127010Y009772D02*
X121337Y009772D01*
X121205Y009871D02*
X127010Y009871D01*
X127010Y009969D02*
X121292Y009969D01*
X121391Y010068D02*
X127010Y010068D01*
X127010Y010166D02*
X121445Y010166D01*
X121485Y010265D02*
X127010Y010265D01*
X127010Y010363D02*
X121495Y010363D01*
X121225Y012924D02*
X123140Y012924D01*
X123140Y013023D02*
X121346Y013023D01*
X121426Y013121D02*
X123150Y013121D01*
X123190Y013220D02*
X121467Y013220D01*
X121495Y013318D02*
X123249Y013318D01*
X123348Y013417D02*
X121495Y013417D01*
X121488Y013515D02*
X123455Y013515D01*
X123304Y013614D02*
X121447Y013614D01*
X121397Y013712D02*
X123213Y013712D01*
X123172Y013811D02*
X121299Y013811D01*
X123265Y017652D02*
X117502Y017652D01*
X117543Y017751D02*
X123197Y017751D01*
X123156Y017849D02*
X117580Y017849D01*
X117580Y017948D02*
X123140Y017948D01*
X123140Y018046D02*
X117580Y018046D01*
X117539Y018145D02*
X123159Y018145D01*
X123200Y018243D02*
X117495Y018243D01*
X117396Y018342D02*
X123273Y018342D01*
D20*
X091260Y027593D03*
X090260Y027693D03*
X088960Y027943D03*
X091960Y028593D03*
X092460Y028093D03*
X088063Y028990D03*
X088710Y029493D03*
X094060Y030593D03*
X094760Y030593D03*
X085360Y020993D03*
X083860Y020593D03*
X083160Y020193D03*
X083860Y019793D03*
X083160Y019493D03*
X085360Y019493D03*
X083860Y018793D03*
X083160Y018893D03*
X083860Y017893D03*
X085460Y017893D03*
X083160Y020993D03*
X068360Y017693D03*
X055360Y022593D03*
X051960Y022593D03*
X050310Y022443D03*
X051710Y023793D03*
X048760Y025743D03*
X023120Y021033D03*
X035160Y009893D03*
X087460Y014543D03*
M02*
