%
M48
M72
T01C0.0100
T02C0.0138
T03C0.0400
%
T01
X4851Y5890
X4951Y7590
X6351Y6690
X6451Y5390
X7151Y5490
X7751Y5490
X8351Y5390
X9051Y5390
X9851Y5390
X9551Y4590
X10251Y4590
X10951Y4590
X11551Y4490
X12051Y3890
X12751Y4390
X13351Y4390
X13951Y3890
X14551Y4390
X15051Y4390
X15651Y4590
X15151Y5490
X14651Y5590
X13851Y5490
X13251Y5490
X12551Y5490
X12051Y5490
X11351Y5390
X10751Y5390
X8851Y4590
X8251Y4590
X7551Y4390
X6951Y4490
X6351Y4590
X6351Y3090
X5051Y2390
X5151Y4090
X8651Y3490
X11051Y2590
X13851Y1490
X16351Y2990
X18051Y4490
X18651Y4490
X19251Y4490
X19851Y4490
X20551Y4590
X21151Y4690
X20951Y5490
X21451Y5490
X21651Y6290
X22051Y5590
X22551Y5590
X23051Y5590
X23751Y5590
X24451Y5490
X25151Y5590
X25851Y5490
X26351Y5590
X25851Y4690
X26451Y4490
X27151Y4290
X26651Y3390
X27051Y2290
X27951Y4290
X28051Y5890
X27251Y5890
X25151Y4690
X24651Y4690
X24251Y4690
X24651Y3690
X24451Y1990
X23451Y3990
X21651Y3990
X21551Y1990
X19951Y5690
X19451Y5790
X18651Y5690
X17751Y6990
X16451Y6590
X16451Y9190
X14251Y7190
X12051Y12190
X10851Y15490
X10651Y17190
X11551Y17190
X11451Y18090
X12151Y18090
X12251Y17190
X12851Y17190
X12851Y18190
X13751Y18190
X13751Y17290
X14651Y17290
X15551Y17390
X15551Y18290
X14651Y18290
X16351Y18290
X16351Y17390
X17251Y17490
X17251Y18390
X17951Y18390
X18751Y18390
X19551Y18390
X19151Y17490
X18351Y17490
X18951Y15690
X20051Y17490
X20451Y18390
X21151Y18390
X21851Y18490
X22051Y17490
X22851Y18390
X23051Y17590
X23851Y17590
X23851Y18390
X24651Y17590
X24951Y18390
X25651Y18390
X26151Y18490
X26151Y17690
X25551Y17490
X26251Y16090
X26451Y15190
X27651Y17190
X27951Y18790
X27051Y18790
X26351Y19690
X27151Y20490
X28151Y20490
X28151Y23390
X27051Y23390
X26351Y24290
X26051Y25690
X25351Y25590
X25451Y26590
X24451Y26490
X23651Y26390
X23251Y25590
X22351Y25490
X22451Y26390
X21451Y25390
X21051Y26490
X20251Y25290
X19451Y25190
X19851Y26290
X18351Y26090
X18351Y25090
X17551Y25090
X17151Y25990
X16551Y24890
X16051Y25890
X15351Y24690
X15051Y25690
X13951Y25690
X14151Y24590
X13051Y24590
X12751Y25590
X11751Y25590
X11851Y24690
X10951Y24690
X10551Y25590
X10051Y24690
X9851Y25590
X9051Y25690
X9151Y24790
X8251Y24790
X7451Y24790
X7951Y25690
X7051Y25890
X6451Y25790
X6551Y24890
X8251Y23090
X7251Y20390
X7551Y18090
X7351Y17190
X8151Y17090
X8851Y17190
X9151Y18090
X9751Y18090
X9751Y17190
X10751Y18190
X10451Y20890
X8251Y17990
X6751Y17990
X6551Y17090
X6751Y11290
X10351Y8590
X16751Y13590
X19051Y10090
X19651Y10090
X20951Y11790
X21851Y11290
X22751Y11790
X21751Y8390
X21251Y7390
X20051Y7490
X19951Y6690
X18351Y2390
X27351Y12890
X28151Y15290
X23751Y23190
X24451Y25590
X26451Y26790
X26351Y27790
X27451Y26990
X27351Y25390
X28151Y25090
X27551Y28690
X28351Y28790
X28351Y31690
X27451Y31690
X26851Y32390
X26651Y33790
X26051Y33690
X26251Y34790
X26951Y34990
X26951Y35890
X27151Y36790
X28151Y36990
X28051Y34990
X28051Y33390
X25351Y34790
X25051Y33790
X24251Y33790
X24551Y34790
X23351Y34790
X23251Y33790
X22251Y33790
X22451Y34690
X21551Y34690
X21251Y33790
X20551Y33790
X20251Y34790
X19551Y33790
X18751Y33790
X17951Y33790
X17651Y34790
X18551Y34790
X19251Y34790
X17151Y33790
X16351Y33690
X16651Y34790
X15651Y34690
X15551Y33690
X14451Y33690
X14551Y34790
X13851Y34790
X13051Y34790
X13351Y33690
X12451Y33790
X12251Y34790
X11051Y34690
X11251Y33690
X10251Y33790
X10151Y34690
X9451Y34690
X9151Y33790
X8551Y34690
X8051Y33790
X7251Y33690
X7251Y34690
X6551Y34690
X6351Y33690
X5351Y33290
X6251Y32390
X5351Y31690
X4351Y31690
X4551Y33190
X4451Y35090
X5351Y35090
X6251Y35990
X5251Y36890
X4551Y36790
X4751Y39890
X5651Y39890
X6351Y40790
X6651Y42090
X7451Y41990
X7351Y42890
X6551Y42890
X5651Y43290
X6151Y44190
X6151Y45290
X5151Y45190
X4551Y45090
X4551Y43390
X4551Y41690
X5351Y41590
X7851Y37690
X8351Y41990
X8351Y42890
X9451Y42890
X9351Y42090
X10351Y42090
X10451Y42890
X11451Y42990
X11351Y42090
X12351Y42090
X12651Y43090
X13451Y42190
X13851Y43090
X14451Y42190
X15051Y43090
X15351Y42190
X16251Y43090
X16651Y42190
X17451Y43090
X18051Y42190
X18751Y43090
X19051Y42190
X20251Y43090
X20351Y42190
X21151Y43090
X21351Y42290
X22051Y43190
X22351Y42190
X23151Y43190
X23351Y42190
X24151Y42190
X24051Y43190
X25151Y43190
X25251Y42290
X25951Y42290
X25951Y43190
X26451Y44390
X27151Y45290
X28051Y45290
X28151Y43490
X27251Y43490
X28251Y41790
X27351Y41690
X26451Y40790
X27051Y40090
X27951Y39990
X23751Y46990
X22251Y50290
X20451Y46890
X16151Y38890
X13151Y45790
X15251Y47990
X14951Y51290
X10651Y39890
X10851Y36790
X10851Y29990
X11751Y27490
X15151Y22290
X18551Y20690
X21151Y17490
X20051Y30590
X15451Y30990
X22151Y38490
X27251Y49890
X7951Y49590
T02
X16473Y5568
X16725Y5568
X16977Y5568
X17229Y5568
X17229Y5316
X17229Y5064
X17229Y4812
X16977Y4812
X16977Y5064
X16977Y5316
X16725Y5316
X16725Y5064
X16725Y4812
X16473Y4812
X16473Y5064
X16473Y5316
T03
X23851Y9590
X24851Y9590
M30
