G75*
%MOIN*%
%OFA0B0*%
%FSLAX24Y24*%
%IPPOS*%
%LPD*%
%AMOC8*
5,1,8,0,0,1.08239X$1,22.5*
%
%ADD10C,0.0230*%
%ADD11R,0.1008X0.1008*%
%ADD12R,0.0474X0.0631*%
%ADD13R,0.0474X0.0513*%
%ADD14R,0.0513X0.0474*%
%ADD15R,0.1025X0.1104*%
%ADD16R,0.2080X0.0980*%
%ADD17C,0.0580*%
%ADD18R,0.0710X0.0790*%
%ADD19R,0.0395X0.0395*%
%ADD20C,0.0340*%
D10*
X016044Y004698D02*
X016170Y004698D01*
X016170Y004895D02*
X016044Y004895D01*
X016044Y005092D02*
X016170Y005092D01*
X016170Y005288D02*
X016044Y005288D01*
X016044Y005485D02*
X016170Y005485D01*
X016170Y005682D02*
X016044Y005682D01*
X016359Y005871D02*
X016359Y005997D01*
X016555Y005997D02*
X016555Y005871D01*
X016752Y005871D02*
X016752Y005997D01*
X016949Y005997D02*
X016949Y005871D01*
X017146Y005871D02*
X017146Y005997D01*
X017343Y005997D02*
X017343Y005871D01*
X017532Y005682D02*
X017658Y005682D01*
X017658Y005485D02*
X017532Y005485D01*
X017532Y005288D02*
X017658Y005288D01*
X017658Y005092D02*
X017532Y005092D01*
X017532Y004895D02*
X017658Y004895D01*
X017658Y004698D02*
X017532Y004698D01*
X017343Y004509D02*
X017343Y004383D01*
X017146Y004383D02*
X017146Y004509D01*
X016949Y004509D02*
X016949Y004383D01*
X016752Y004383D02*
X016752Y004509D01*
X016555Y004509D02*
X016555Y004383D01*
X016359Y004383D02*
X016359Y004509D01*
D11*
X016851Y005190D03*
D12*
X016577Y008257D03*
X016951Y009123D03*
X017325Y008257D03*
D13*
X015485Y007190D03*
X014816Y007190D03*
D14*
X015451Y008255D03*
X015451Y008925D03*
X018451Y008925D03*
X018451Y008255D03*
X018451Y007125D03*
X018451Y006455D03*
X020451Y005725D03*
X020451Y005055D03*
D15*
X021851Y009630D03*
X021851Y012150D03*
D16*
X004861Y003250D03*
X004861Y004990D03*
X004861Y006730D03*
X004861Y015850D03*
X004861Y017590D03*
X004861Y019330D03*
X004861Y023650D03*
X004861Y025390D03*
X004861Y027130D03*
X004861Y032450D03*
X004861Y034190D03*
X004861Y035930D03*
X004861Y040750D03*
X004861Y042490D03*
X004861Y044230D03*
X027841Y044430D03*
X027841Y042690D03*
X027841Y040950D03*
X028341Y036030D03*
X028341Y034290D03*
X028341Y032550D03*
X027841Y027830D03*
X027841Y026090D03*
X027841Y024350D03*
X027841Y019730D03*
X027841Y017990D03*
X027841Y016250D03*
X027891Y006830D03*
X027891Y005090D03*
X027891Y003350D03*
D17*
X024851Y009340D02*
X024851Y009840D01*
X023851Y009840D02*
X023851Y009340D01*
D18*
X019710Y005090D03*
X018591Y005090D03*
D19*
X018555Y007690D03*
X019146Y007690D03*
X019051Y008995D03*
X019051Y009585D03*
X019651Y009585D03*
X019651Y008995D03*
X020455Y006290D03*
X021046Y006290D03*
X021651Y005085D03*
X021651Y004495D03*
X022255Y005090D03*
X022846Y005090D03*
X023451Y005085D03*
X023451Y004495D03*
X025155Y005090D03*
X025746Y005090D03*
X015146Y004990D03*
X014555Y004990D03*
X013951Y004985D03*
X013951Y004395D03*
X013346Y004990D03*
X012755Y004990D03*
X012051Y004985D03*
X012051Y004395D03*
X007546Y004990D03*
X006955Y004990D03*
D20*
X006951Y004490D03*
X006351Y004590D03*
X006451Y005390D03*
X007151Y005490D03*
X007751Y005490D03*
X008351Y005390D03*
X009051Y005390D03*
X009851Y005390D03*
X009551Y004590D03*
X010251Y004590D03*
X010951Y004590D03*
X011551Y004490D03*
X012051Y003890D03*
X012751Y004390D03*
X013351Y004390D03*
X013951Y003890D03*
X014551Y004390D03*
X015051Y004390D03*
X015651Y004590D03*
X015151Y005490D03*
X014651Y005590D03*
X013851Y005490D03*
X013251Y005490D03*
X012551Y005490D03*
X012051Y005490D03*
X011351Y005390D03*
X010751Y005390D03*
X008851Y004590D03*
X008251Y004590D03*
X007551Y004390D03*
X006351Y003090D03*
X005051Y002390D03*
X005151Y004090D03*
X004851Y005890D03*
X004951Y007590D03*
X006351Y006690D03*
X008651Y003490D03*
X011051Y002590D03*
X013851Y001490D03*
X016351Y002990D03*
X018051Y004490D03*
X018651Y004490D03*
X019251Y004490D03*
X019851Y004490D03*
X020551Y004590D03*
X021151Y004690D03*
X020951Y005490D03*
X021451Y005490D03*
X021651Y006290D03*
X022051Y005590D03*
X022551Y005590D03*
X023051Y005590D03*
X023751Y005590D03*
X024451Y005490D03*
X025151Y005590D03*
X025851Y005490D03*
X026351Y005590D03*
X025851Y004690D03*
X026451Y004490D03*
X027151Y004290D03*
X026651Y003390D03*
X027051Y002290D03*
X027951Y004290D03*
X028051Y005890D03*
X027251Y005890D03*
X025151Y004690D03*
X024651Y004690D03*
X024251Y004690D03*
X024651Y003690D03*
X024451Y001990D03*
X023451Y003990D03*
X021651Y003990D03*
X021551Y001990D03*
X019951Y005690D03*
X019451Y005790D03*
X018651Y005690D03*
X017751Y006990D03*
X016451Y006590D03*
X016451Y009190D03*
X014251Y007190D03*
X012051Y012190D03*
X010851Y015490D03*
X010651Y017190D03*
X011551Y017190D03*
X011451Y018090D03*
X012151Y018090D03*
X012251Y017190D03*
X012851Y017190D03*
X012851Y018190D03*
X013751Y018190D03*
X013751Y017290D03*
X014651Y017290D03*
X015551Y017390D03*
X015551Y018290D03*
X014651Y018290D03*
X016351Y018290D03*
X016351Y017390D03*
X017251Y017490D03*
X017251Y018390D03*
X017951Y018390D03*
X018751Y018390D03*
X019551Y018390D03*
X019151Y017490D03*
X018351Y017490D03*
X018951Y015690D03*
X020051Y017490D03*
X020451Y018390D03*
X021151Y018390D03*
X021851Y018490D03*
X022051Y017490D03*
X022851Y018390D03*
X023051Y017590D03*
X023851Y017590D03*
X023851Y018390D03*
X024651Y017590D03*
X024951Y018390D03*
X025651Y018390D03*
X026151Y018490D03*
X026151Y017690D03*
X025551Y017490D03*
X026251Y016090D03*
X026451Y015190D03*
X027651Y017190D03*
X027951Y018790D03*
X027051Y018790D03*
X026351Y019690D03*
X027151Y020490D03*
X028151Y020490D03*
X028151Y023390D03*
X027051Y023390D03*
X026351Y024290D03*
X026051Y025690D03*
X025351Y025590D03*
X025451Y026590D03*
X024451Y026490D03*
X023651Y026390D03*
X023251Y025590D03*
X022351Y025490D03*
X022451Y026390D03*
X021451Y025390D03*
X021051Y026490D03*
X020251Y025290D03*
X019451Y025190D03*
X019851Y026290D03*
X018351Y026090D03*
X018351Y025090D03*
X017551Y025090D03*
X017151Y025990D03*
X016551Y024890D03*
X016051Y025890D03*
X015351Y024690D03*
X015051Y025690D03*
X013951Y025690D03*
X014151Y024590D03*
X013051Y024590D03*
X012751Y025590D03*
X011751Y025590D03*
X011851Y024690D03*
X010951Y024690D03*
X010551Y025590D03*
X010051Y024690D03*
X009851Y025590D03*
X009051Y025690D03*
X009151Y024790D03*
X008251Y024790D03*
X007451Y024790D03*
X007951Y025690D03*
X007051Y025890D03*
X006451Y025790D03*
X006551Y024890D03*
X008251Y023090D03*
X007251Y020390D03*
X007551Y018090D03*
X007351Y017190D03*
X008151Y017090D03*
X008851Y017190D03*
X009151Y018090D03*
X009751Y018090D03*
X009751Y017190D03*
X010751Y018190D03*
X010451Y020890D03*
X008251Y017990D03*
X006751Y017990D03*
X006551Y017090D03*
X006751Y011290D03*
X010351Y008590D03*
X016751Y013590D03*
X019051Y010090D03*
X019651Y010090D03*
X020951Y011790D03*
X021851Y011290D03*
X022751Y011790D03*
X021751Y008390D03*
X021251Y007390D03*
X020051Y007490D03*
X019951Y006690D03*
X018351Y002390D03*
X027351Y012890D03*
X028151Y015290D03*
X023751Y023190D03*
X024451Y025590D03*
X026451Y026790D03*
X026351Y027790D03*
X027451Y026990D03*
X027351Y025390D03*
X028151Y025090D03*
X027551Y028690D03*
X028351Y028790D03*
X028351Y031690D03*
X027451Y031690D03*
X026851Y032390D03*
X026651Y033790D03*
X026051Y033690D03*
X026251Y034790D03*
X026951Y034990D03*
X026951Y035890D03*
X027151Y036790D03*
X028151Y036990D03*
X028051Y034990D03*
X028051Y033390D03*
X025351Y034790D03*
X025051Y033790D03*
X024251Y033790D03*
X024551Y034790D03*
X023351Y034790D03*
X023251Y033790D03*
X022251Y033790D03*
X022451Y034690D03*
X021551Y034690D03*
X021251Y033790D03*
X020551Y033790D03*
X020251Y034790D03*
X019551Y033790D03*
X018751Y033790D03*
X017951Y033790D03*
X017651Y034790D03*
X018551Y034790D03*
X019251Y034790D03*
X017151Y033790D03*
X016351Y033690D03*
X016651Y034790D03*
X015651Y034690D03*
X015551Y033690D03*
X014451Y033690D03*
X014551Y034790D03*
X013851Y034790D03*
X013051Y034790D03*
X013351Y033690D03*
X012451Y033790D03*
X012251Y034790D03*
X011051Y034690D03*
X011251Y033690D03*
X010251Y033790D03*
X010151Y034690D03*
X009451Y034690D03*
X009151Y033790D03*
X008551Y034690D03*
X008051Y033790D03*
X007251Y033690D03*
X007251Y034690D03*
X006551Y034690D03*
X006351Y033690D03*
X005351Y033290D03*
X006251Y032390D03*
X005351Y031690D03*
X004351Y031690D03*
X004551Y033190D03*
X004451Y035090D03*
X005351Y035090D03*
X006251Y035990D03*
X005251Y036890D03*
X004551Y036790D03*
X004751Y039890D03*
X005651Y039890D03*
X006351Y040790D03*
X006651Y042090D03*
X007451Y041990D03*
X007351Y042890D03*
X006551Y042890D03*
X005651Y043290D03*
X006151Y044190D03*
X006151Y045290D03*
X005151Y045190D03*
X004551Y045090D03*
X004551Y043390D03*
X004551Y041690D03*
X005351Y041590D03*
X007851Y037690D03*
X008351Y041990D03*
X008351Y042890D03*
X009451Y042890D03*
X009351Y042090D03*
X010351Y042090D03*
X010451Y042890D03*
X011451Y042990D03*
X011351Y042090D03*
X012351Y042090D03*
X012651Y043090D03*
X013451Y042190D03*
X013851Y043090D03*
X014451Y042190D03*
X015051Y043090D03*
X015351Y042190D03*
X016251Y043090D03*
X016651Y042190D03*
X017451Y043090D03*
X018051Y042190D03*
X018751Y043090D03*
X019051Y042190D03*
X020251Y043090D03*
X020351Y042190D03*
X021151Y043090D03*
X021351Y042290D03*
X022051Y043190D03*
X022351Y042190D03*
X023151Y043190D03*
X023351Y042190D03*
X024151Y042190D03*
X024051Y043190D03*
X025151Y043190D03*
X025251Y042290D03*
X025951Y042290D03*
X025951Y043190D03*
X026451Y044390D03*
X027151Y045290D03*
X028051Y045290D03*
X028151Y043490D03*
X027251Y043490D03*
X028251Y041790D03*
X027351Y041690D03*
X026451Y040790D03*
X027051Y040090D03*
X027951Y039990D03*
X023751Y046990D03*
X022251Y050290D03*
X020451Y046890D03*
X016151Y038890D03*
X013151Y045790D03*
X015251Y047990D03*
X014951Y051290D03*
X010651Y039890D03*
X010851Y036790D03*
X010851Y029990D03*
X011751Y027490D03*
X015151Y022290D03*
X018551Y020690D03*
X021151Y017490D03*
X020051Y030590D03*
X015451Y030990D03*
X022151Y038490D03*
X027251Y049890D03*
X007951Y049590D03*
M02*
