G75*
%MOIN*%
%OFA0B0*%
%FSLAX24Y24*%
%IPPOS*%
%LPD*%
%AMOC8*
5,1,8,0,0,1.08239X$1,22.5*
%
%ADD10C,0.0338*%
%ADD11C,0.0600*%
%ADD12C,0.0180*%
%ADD13C,0.0260*%
D10*
X016473Y004812D03*
X016725Y004812D03*
X016977Y004812D03*
X017229Y004812D03*
X017229Y005064D03*
X017229Y005316D03*
X017229Y005568D03*
X016977Y005568D03*
X016977Y005316D03*
X016977Y005064D03*
X016725Y005064D03*
X016725Y005316D03*
X016725Y005568D03*
X016473Y005568D03*
X016473Y005316D03*
X016473Y005064D03*
D11*
X023851Y009590D03*
X024851Y009590D03*
D12*
X004341Y000680D02*
X004341Y044787D01*
X004341Y052700D01*
X028361Y052700D01*
X028361Y000680D01*
X004341Y000680D01*
X004341Y000831D02*
X028361Y000831D01*
X028361Y001010D02*
X004341Y001010D01*
X004341Y001188D02*
X028361Y001188D01*
X028361Y001367D02*
X004341Y001367D01*
X004341Y001545D02*
X028361Y001545D01*
X028361Y001724D02*
X004341Y001724D01*
X004341Y001902D02*
X028361Y001902D01*
X028361Y002081D02*
X004341Y002081D01*
X004341Y002259D02*
X028361Y002259D01*
X028361Y002438D02*
X004341Y002438D01*
X004341Y002616D02*
X028361Y002616D01*
X028361Y002795D02*
X004341Y002795D01*
X004341Y002973D02*
X028361Y002973D01*
X028361Y003152D02*
X004341Y003152D01*
X004341Y003330D02*
X028361Y003330D01*
X028361Y003509D02*
X004341Y003509D01*
X004341Y003687D02*
X028361Y003687D01*
X028361Y003866D02*
X004341Y003866D01*
X004341Y004044D02*
X028361Y004044D01*
X028361Y004223D02*
X004341Y004223D01*
X004341Y004401D02*
X028361Y004401D01*
X028361Y004580D02*
X004341Y004580D01*
X004341Y004758D02*
X028361Y004758D01*
X028361Y004937D02*
X004341Y004937D01*
X004341Y005115D02*
X028361Y005115D01*
X028361Y005294D02*
X004341Y005294D01*
X004341Y005472D02*
X028361Y005472D01*
X028361Y005651D02*
X004341Y005651D01*
X004341Y005829D02*
X028361Y005829D01*
X028361Y006008D02*
X004341Y006008D01*
X004341Y006186D02*
X028361Y006186D01*
X028361Y006365D02*
X004341Y006365D01*
X004341Y006543D02*
X028361Y006543D01*
X028361Y006722D02*
X004341Y006722D01*
X004341Y006900D02*
X028361Y006900D01*
X028361Y007079D02*
X004341Y007079D01*
X004341Y007257D02*
X028361Y007257D01*
X028361Y007436D02*
X004341Y007436D01*
X004341Y007614D02*
X028361Y007614D01*
X028361Y007793D02*
X004341Y007793D01*
X004341Y007971D02*
X028361Y007971D01*
X028361Y008150D02*
X004341Y008150D01*
X004341Y008328D02*
X028361Y008328D01*
X028361Y008507D02*
X004341Y008507D01*
X004341Y008685D02*
X028361Y008685D01*
X028361Y008864D02*
X004341Y008864D01*
X004341Y009042D02*
X028361Y009042D01*
X028361Y009221D02*
X025174Y009221D01*
X025170Y009216D02*
X025224Y009271D01*
X025270Y009333D01*
X025305Y009402D01*
X025329Y009475D01*
X025341Y009551D01*
X025341Y009580D01*
X024861Y009580D01*
X024861Y009600D01*
X025341Y009600D01*
X025341Y009629D01*
X025329Y009705D01*
X025305Y009778D01*
X025270Y009847D01*
X025224Y009909D01*
X025170Y009964D01*
X025107Y010009D01*
X025039Y010044D01*
X024965Y010068D01*
X024889Y010080D01*
X024861Y010080D01*
X024861Y009600D01*
X024841Y009600D01*
X024841Y010080D01*
X024812Y010080D01*
X024736Y010068D01*
X024663Y010044D01*
X024594Y010009D01*
X024531Y009964D01*
X024477Y009909D01*
X024432Y009847D01*
X024397Y009778D01*
X024373Y009705D01*
X024361Y009629D01*
X024361Y009600D01*
X024841Y009600D01*
X024841Y009580D01*
X024861Y009580D01*
X024861Y009100D01*
X024889Y009100D01*
X024965Y009112D01*
X025039Y009136D01*
X025107Y009171D01*
X025170Y009216D01*
X025303Y009399D02*
X028361Y009399D01*
X028361Y009578D02*
X025341Y009578D01*
X025312Y009756D02*
X028361Y009756D01*
X028361Y009935D02*
X025199Y009935D01*
X024861Y009935D02*
X024841Y009935D01*
X024841Y009756D02*
X024861Y009756D01*
X024841Y009580D02*
X024361Y009580D01*
X024361Y009551D01*
X024373Y009475D01*
X024397Y009402D01*
X024432Y009333D01*
X024477Y009271D01*
X024531Y009216D01*
X024594Y009171D01*
X024663Y009136D01*
X024736Y009112D01*
X024812Y009100D01*
X024841Y009100D01*
X024841Y009580D01*
X024841Y009578D02*
X024861Y009578D01*
X024861Y009399D02*
X024841Y009399D01*
X024841Y009221D02*
X024861Y009221D01*
X024527Y009221D02*
X024082Y009221D01*
X024094Y009225D02*
X024215Y009346D01*
X024281Y009504D01*
X024281Y009676D01*
X024215Y009834D01*
X024094Y009955D01*
X023936Y010020D01*
X023765Y010020D01*
X023607Y009955D01*
X023486Y009834D01*
X023421Y009676D01*
X023421Y009504D01*
X023486Y009346D01*
X023607Y009225D01*
X023765Y009160D01*
X023936Y009160D01*
X024094Y009225D01*
X024237Y009399D02*
X024398Y009399D01*
X024361Y009578D02*
X024281Y009578D01*
X024247Y009756D02*
X024389Y009756D01*
X024502Y009935D02*
X024114Y009935D01*
X023587Y009935D02*
X004341Y009935D01*
X004341Y010113D02*
X028361Y010113D01*
X028361Y010292D02*
X004341Y010292D01*
X004341Y010470D02*
X028361Y010470D01*
X028361Y010649D02*
X004341Y010649D01*
X004341Y010827D02*
X028361Y010827D01*
X028361Y011006D02*
X004341Y011006D01*
X004341Y011184D02*
X028361Y011184D01*
X028361Y011363D02*
X004341Y011363D01*
X004341Y011541D02*
X028361Y011541D01*
X028361Y011720D02*
X004341Y011720D01*
X004341Y011898D02*
X028361Y011898D01*
X028361Y012077D02*
X004341Y012077D01*
X004341Y012255D02*
X028361Y012255D01*
X028361Y012434D02*
X004341Y012434D01*
X004341Y012612D02*
X028361Y012612D01*
X028361Y012791D02*
X004341Y012791D01*
X004341Y012969D02*
X028361Y012969D01*
X028361Y013148D02*
X004341Y013148D01*
X004341Y013326D02*
X028361Y013326D01*
X028361Y013505D02*
X004341Y013505D01*
X004341Y013683D02*
X028361Y013683D01*
X028361Y013862D02*
X004341Y013862D01*
X004341Y014040D02*
X028361Y014040D01*
X028361Y014219D02*
X004341Y014219D01*
X004341Y014397D02*
X028361Y014397D01*
X028361Y014576D02*
X004341Y014576D01*
X004341Y014754D02*
X028361Y014754D01*
X028361Y014933D02*
X004341Y014933D01*
X004341Y015111D02*
X028361Y015111D01*
X028361Y015290D02*
X004341Y015290D01*
X004341Y015468D02*
X028361Y015468D01*
X028361Y015647D02*
X004341Y015647D01*
X004341Y015825D02*
X028361Y015825D01*
X028361Y016004D02*
X004341Y016004D01*
X004341Y016182D02*
X028361Y016182D01*
X028361Y016361D02*
X004341Y016361D01*
X004341Y016539D02*
X028361Y016539D01*
X028361Y016718D02*
X004341Y016718D01*
X004341Y016896D02*
X028361Y016896D01*
X028361Y017075D02*
X004341Y017075D01*
X004341Y017253D02*
X028361Y017253D01*
X028361Y017432D02*
X004341Y017432D01*
X004341Y017610D02*
X028361Y017610D01*
X028361Y017789D02*
X004341Y017789D01*
X004341Y017967D02*
X028361Y017967D01*
X028361Y018146D02*
X004341Y018146D01*
X004341Y018324D02*
X028361Y018324D01*
X028361Y018503D02*
X004341Y018503D01*
X004341Y018681D02*
X028361Y018681D01*
X028361Y018860D02*
X004341Y018860D01*
X004341Y019038D02*
X028361Y019038D01*
X028361Y019217D02*
X004341Y019217D01*
X004341Y019395D02*
X028361Y019395D01*
X028361Y019574D02*
X004341Y019574D01*
X004341Y019752D02*
X028361Y019752D01*
X028361Y019931D02*
X004341Y019931D01*
X004341Y020109D02*
X028361Y020109D01*
X028361Y020288D02*
X004341Y020288D01*
X004341Y020466D02*
X028361Y020466D01*
X028361Y020645D02*
X004341Y020645D01*
X004341Y020823D02*
X028361Y020823D01*
X028361Y021002D02*
X004341Y021002D01*
X004341Y021180D02*
X028361Y021180D01*
X028361Y021359D02*
X004341Y021359D01*
X004341Y021537D02*
X028361Y021537D01*
X028361Y021716D02*
X004341Y021716D01*
X004341Y021894D02*
X028361Y021894D01*
X028361Y022073D02*
X004341Y022073D01*
X004341Y022251D02*
X028361Y022251D01*
X028361Y022430D02*
X004341Y022430D01*
X004341Y022608D02*
X028361Y022608D01*
X028361Y022787D02*
X004341Y022787D01*
X004341Y022965D02*
X028361Y022965D01*
X028361Y023144D02*
X004341Y023144D01*
X004341Y023322D02*
X028361Y023322D01*
X028361Y023501D02*
X004341Y023501D01*
X004341Y023679D02*
X028361Y023679D01*
X028361Y023858D02*
X004341Y023858D01*
X004341Y024036D02*
X028361Y024036D01*
X028361Y024215D02*
X004341Y024215D01*
X004341Y024393D02*
X028361Y024393D01*
X028361Y024572D02*
X004341Y024572D01*
X004341Y024750D02*
X028361Y024750D01*
X028361Y024929D02*
X004341Y024929D01*
X004341Y025107D02*
X028361Y025107D01*
X028361Y025286D02*
X004341Y025286D01*
X004341Y025464D02*
X028361Y025464D01*
X028361Y025643D02*
X004341Y025643D01*
X004341Y025821D02*
X028361Y025821D01*
X028361Y026000D02*
X004341Y026000D01*
X004341Y026178D02*
X028361Y026178D01*
X028361Y026357D02*
X004341Y026357D01*
X004341Y026535D02*
X028361Y026535D01*
X028361Y026714D02*
X004341Y026714D01*
X004341Y026892D02*
X028361Y026892D01*
X028361Y027071D02*
X004341Y027071D01*
X004341Y027249D02*
X028361Y027249D01*
X028361Y027428D02*
X004341Y027428D01*
X004341Y027606D02*
X028361Y027606D01*
X028361Y027785D02*
X004341Y027785D01*
X004341Y027963D02*
X028361Y027963D01*
X028361Y028142D02*
X004341Y028142D01*
X004341Y028320D02*
X028361Y028320D01*
X028361Y028499D02*
X004341Y028499D01*
X004341Y028677D02*
X028361Y028677D01*
X028361Y028856D02*
X004341Y028856D01*
X004341Y029034D02*
X028361Y029034D01*
X028361Y029213D02*
X004341Y029213D01*
X004341Y029391D02*
X028361Y029391D01*
X028361Y029570D02*
X004341Y029570D01*
X004341Y029748D02*
X028361Y029748D01*
X028361Y029927D02*
X004341Y029927D01*
X004341Y030105D02*
X028361Y030105D01*
X028361Y030284D02*
X004341Y030284D01*
X004341Y030462D02*
X028361Y030462D01*
X028361Y030641D02*
X004341Y030641D01*
X004341Y030819D02*
X028361Y030819D01*
X028361Y030998D02*
X004341Y030998D01*
X004341Y031176D02*
X028361Y031176D01*
X028361Y031355D02*
X004341Y031355D01*
X004341Y031533D02*
X028361Y031533D01*
X028361Y031712D02*
X004341Y031712D01*
X004341Y031890D02*
X028361Y031890D01*
X028361Y032069D02*
X004341Y032069D01*
X004341Y032247D02*
X028361Y032247D01*
X028361Y032426D02*
X004341Y032426D01*
X004341Y032604D02*
X028361Y032604D01*
X028361Y032783D02*
X004341Y032783D01*
X004341Y032961D02*
X028361Y032961D01*
X028361Y033140D02*
X004341Y033140D01*
X004341Y033318D02*
X028361Y033318D01*
X028361Y033497D02*
X004341Y033497D01*
X004341Y033675D02*
X028361Y033675D01*
X028361Y033854D02*
X004341Y033854D01*
X004341Y034032D02*
X028361Y034032D01*
X028361Y034211D02*
X004341Y034211D01*
X004341Y034389D02*
X028361Y034389D01*
X028361Y034568D02*
X004341Y034568D01*
X004341Y034746D02*
X028361Y034746D01*
X028361Y034925D02*
X004341Y034925D01*
X004341Y035103D02*
X028361Y035103D01*
X028361Y035282D02*
X004341Y035282D01*
X004341Y035460D02*
X028361Y035460D01*
X028361Y035639D02*
X004341Y035639D01*
X004341Y035817D02*
X028361Y035817D01*
X028361Y035996D02*
X004341Y035996D01*
X004341Y036174D02*
X028361Y036174D01*
X028361Y036353D02*
X004341Y036353D01*
X004341Y036531D02*
X028361Y036531D01*
X028361Y036710D02*
X004341Y036710D01*
X004341Y036888D02*
X028361Y036888D01*
X028361Y037067D02*
X004341Y037067D01*
X004341Y037245D02*
X028361Y037245D01*
X028361Y037424D02*
X004341Y037424D01*
X004341Y037602D02*
X028361Y037602D01*
X028361Y037781D02*
X004341Y037781D01*
X004341Y037959D02*
X028361Y037959D01*
X028361Y038138D02*
X004341Y038138D01*
X004341Y038316D02*
X028361Y038316D01*
X028361Y038495D02*
X004341Y038495D01*
X004341Y038673D02*
X028361Y038673D01*
X028361Y038852D02*
X004341Y038852D01*
X004341Y039030D02*
X028361Y039030D01*
X028361Y039209D02*
X004341Y039209D01*
X004341Y039387D02*
X028361Y039387D01*
X028361Y039566D02*
X004341Y039566D01*
X004341Y039744D02*
X028361Y039744D01*
X028361Y039923D02*
X004341Y039923D01*
X004341Y040101D02*
X028361Y040101D01*
X028361Y040280D02*
X004341Y040280D01*
X004341Y040458D02*
X028361Y040458D01*
X028361Y040637D02*
X004341Y040637D01*
X004341Y040815D02*
X028361Y040815D01*
X028361Y040994D02*
X004341Y040994D01*
X004341Y041172D02*
X028361Y041172D01*
X028361Y041351D02*
X004341Y041351D01*
X004341Y041529D02*
X028361Y041529D01*
X028361Y041708D02*
X004341Y041708D01*
X004341Y041886D02*
X028361Y041886D01*
X028361Y042065D02*
X004341Y042065D01*
X004341Y042243D02*
X028361Y042243D01*
X028361Y042422D02*
X004341Y042422D01*
X004341Y042600D02*
X028361Y042600D01*
X028361Y042779D02*
X004341Y042779D01*
X004341Y042957D02*
X028361Y042957D01*
X028361Y043136D02*
X004341Y043136D01*
X004341Y043314D02*
X028361Y043314D01*
X028361Y043493D02*
X004341Y043493D01*
X004341Y043671D02*
X028361Y043671D01*
X028361Y043850D02*
X004341Y043850D01*
X004341Y044028D02*
X028361Y044028D01*
X028361Y044207D02*
X004341Y044207D01*
X004341Y044385D02*
X028361Y044385D01*
X028361Y044564D02*
X004341Y044564D01*
X004341Y044742D02*
X028361Y044742D01*
X028361Y044921D02*
X004341Y044921D01*
X004341Y045099D02*
X028361Y045099D01*
X028361Y045278D02*
X004341Y045278D01*
X004341Y045456D02*
X028361Y045456D01*
X028361Y045635D02*
X004341Y045635D01*
X004341Y045813D02*
X028361Y045813D01*
X028361Y045992D02*
X004341Y045992D01*
X004341Y046170D02*
X028361Y046170D01*
X028361Y046349D02*
X004341Y046349D01*
X004341Y046527D02*
X028361Y046527D01*
X028361Y046706D02*
X004341Y046706D01*
X004341Y046884D02*
X028361Y046884D01*
X028361Y047063D02*
X004341Y047063D01*
X004341Y047241D02*
X028361Y047241D01*
X028361Y047420D02*
X004341Y047420D01*
X004341Y047598D02*
X028361Y047598D01*
X028361Y047777D02*
X004341Y047777D01*
X004341Y047955D02*
X028361Y047955D01*
X028361Y048134D02*
X004341Y048134D01*
X004341Y048312D02*
X028361Y048312D01*
X028361Y048491D02*
X004341Y048491D01*
X004341Y048669D02*
X028361Y048669D01*
X028361Y048848D02*
X004341Y048848D01*
X004341Y049026D02*
X028361Y049026D01*
X028361Y049205D02*
X004341Y049205D01*
X004341Y049383D02*
X028361Y049383D01*
X028361Y049562D02*
X004341Y049562D01*
X004341Y049740D02*
X028361Y049740D01*
X028361Y049919D02*
X004341Y049919D01*
X004341Y050097D02*
X028361Y050097D01*
X028361Y050276D02*
X004341Y050276D01*
X004341Y050454D02*
X028361Y050454D01*
X028361Y050633D02*
X004341Y050633D01*
X004341Y050811D02*
X028361Y050811D01*
X028361Y050990D02*
X004341Y050990D01*
X004341Y051168D02*
X028361Y051168D01*
X028361Y051347D02*
X004341Y051347D01*
X004341Y051525D02*
X028361Y051525D01*
X028361Y051704D02*
X004341Y051704D01*
X004341Y051882D02*
X028361Y051882D01*
X028361Y052061D02*
X004341Y052061D01*
X004341Y052239D02*
X028361Y052239D01*
X028361Y052418D02*
X004341Y052418D01*
X004341Y052596D02*
X028361Y052596D01*
X023454Y009756D02*
X004341Y009756D01*
X004341Y009578D02*
X023421Y009578D01*
X023464Y009399D02*
X004341Y009399D01*
X004341Y009221D02*
X023619Y009221D01*
D13*
X022751Y011790D03*
X021851Y011290D03*
X020951Y011790D03*
X019651Y010090D03*
X019051Y010090D03*
X020051Y007490D03*
X019951Y006690D03*
X019951Y005690D03*
X019451Y005790D03*
X018651Y005690D03*
X018651Y004490D03*
X019251Y004490D03*
X019851Y004490D03*
X020551Y004590D03*
X021151Y004690D03*
X020951Y005490D03*
X021451Y005490D03*
X021651Y006290D03*
X022051Y005590D03*
X022551Y005590D03*
X023051Y005590D03*
X023751Y005590D03*
X024451Y005490D03*
X025151Y005590D03*
X025851Y005490D03*
X026351Y005590D03*
X025851Y004690D03*
X026451Y004490D03*
X027151Y004290D03*
X026651Y003390D03*
X027051Y002290D03*
X027951Y004290D03*
X028051Y005890D03*
X027251Y005890D03*
X025151Y004690D03*
X024651Y004690D03*
X024251Y004690D03*
X024651Y003690D03*
X024451Y001990D03*
X023451Y003990D03*
X021651Y003990D03*
X021551Y001990D03*
X018351Y002390D03*
X018051Y004490D03*
X016351Y002990D03*
X015651Y004590D03*
X015051Y004390D03*
X014551Y004390D03*
X013951Y003890D03*
X013351Y004390D03*
X012751Y004390D03*
X012051Y003890D03*
X011551Y004490D03*
X010951Y004590D03*
X010251Y004590D03*
X009551Y004590D03*
X008851Y004590D03*
X008251Y004590D03*
X007551Y004390D03*
X006951Y004490D03*
X006351Y004590D03*
X006451Y005390D03*
X007151Y005490D03*
X007751Y005490D03*
X008351Y005390D03*
X009051Y005390D03*
X009851Y005390D03*
X010751Y005390D03*
X011351Y005390D03*
X012051Y005490D03*
X012551Y005490D03*
X013251Y005490D03*
X013851Y005490D03*
X014651Y005590D03*
X015151Y005490D03*
X014251Y007190D03*
X016451Y006590D03*
X017751Y006990D03*
X016451Y009190D03*
X016751Y013590D03*
X018951Y015690D03*
X019151Y017490D03*
X018351Y017490D03*
X018751Y018390D03*
X019551Y018390D03*
X020051Y017490D03*
X020451Y018390D03*
X021151Y018390D03*
X021851Y018490D03*
X022051Y017490D03*
X022851Y018390D03*
X023051Y017590D03*
X023851Y017590D03*
X023851Y018390D03*
X024651Y017590D03*
X024951Y018390D03*
X025651Y018390D03*
X026151Y018490D03*
X026151Y017690D03*
X025551Y017490D03*
X026251Y016090D03*
X026451Y015190D03*
X027651Y017190D03*
X027951Y018790D03*
X027051Y018790D03*
X026351Y019690D03*
X027151Y020490D03*
X028151Y020490D03*
X028151Y023390D03*
X027051Y023390D03*
X026351Y024290D03*
X026051Y025690D03*
X025351Y025590D03*
X025451Y026590D03*
X024451Y026490D03*
X023651Y026390D03*
X023251Y025590D03*
X022351Y025490D03*
X022451Y026390D03*
X021451Y025390D03*
X021051Y026490D03*
X020251Y025290D03*
X019451Y025190D03*
X019851Y026290D03*
X018351Y026090D03*
X018351Y025090D03*
X017551Y025090D03*
X017151Y025990D03*
X016551Y024890D03*
X016051Y025890D03*
X015351Y024690D03*
X015051Y025690D03*
X013951Y025690D03*
X014151Y024590D03*
X013051Y024590D03*
X012751Y025590D03*
X011751Y025590D03*
X011851Y024690D03*
X010951Y024690D03*
X010551Y025590D03*
X010051Y024690D03*
X009851Y025590D03*
X009051Y025690D03*
X009151Y024790D03*
X008251Y024790D03*
X007451Y024790D03*
X007951Y025690D03*
X007051Y025890D03*
X006451Y025790D03*
X006551Y024890D03*
X008251Y023090D03*
X007251Y020390D03*
X007551Y018090D03*
X007351Y017190D03*
X008151Y017090D03*
X008851Y017190D03*
X009151Y018090D03*
X009751Y018090D03*
X009751Y017190D03*
X010651Y017190D03*
X011551Y017190D03*
X011451Y018090D03*
X012151Y018090D03*
X012251Y017190D03*
X012851Y017190D03*
X012851Y018190D03*
X013751Y018190D03*
X013751Y017290D03*
X014651Y017290D03*
X015551Y017390D03*
X015551Y018290D03*
X014651Y018290D03*
X016351Y018290D03*
X016351Y017390D03*
X017251Y017490D03*
X017251Y018390D03*
X017951Y018390D03*
X018551Y020690D03*
X021151Y017490D03*
X023751Y023190D03*
X024451Y025590D03*
X026451Y026790D03*
X026351Y027790D03*
X027451Y026990D03*
X027351Y025390D03*
X028151Y025090D03*
X027551Y028690D03*
X028351Y028790D03*
X028351Y031690D03*
X027451Y031690D03*
X026851Y032390D03*
X026651Y033790D03*
X026051Y033690D03*
X026251Y034790D03*
X026951Y034990D03*
X026951Y035890D03*
X027151Y036790D03*
X028151Y036990D03*
X028051Y034990D03*
X028051Y033390D03*
X025351Y034790D03*
X025051Y033790D03*
X024251Y033790D03*
X024551Y034790D03*
X023351Y034790D03*
X023251Y033790D03*
X022251Y033790D03*
X022451Y034690D03*
X021551Y034690D03*
X021251Y033790D03*
X020551Y033790D03*
X020251Y034790D03*
X019551Y033790D03*
X018751Y033790D03*
X017951Y033790D03*
X017651Y034790D03*
X018551Y034790D03*
X019251Y034790D03*
X017151Y033790D03*
X016351Y033690D03*
X016651Y034790D03*
X015651Y034690D03*
X015551Y033690D03*
X014451Y033690D03*
X014551Y034790D03*
X013851Y034790D03*
X013051Y034790D03*
X013351Y033690D03*
X012451Y033790D03*
X012251Y034790D03*
X011051Y034690D03*
X011251Y033690D03*
X010251Y033790D03*
X010151Y034690D03*
X009451Y034690D03*
X009151Y033790D03*
X008551Y034690D03*
X008051Y033790D03*
X007251Y033690D03*
X007251Y034690D03*
X006551Y034690D03*
X006351Y033690D03*
X005351Y033290D03*
X006251Y032390D03*
X005351Y031690D03*
X004351Y031690D03*
X004551Y033190D03*
X004451Y035090D03*
X005351Y035090D03*
X006251Y035990D03*
X005251Y036890D03*
X004551Y036790D03*
X004751Y039890D03*
X005651Y039890D03*
X006351Y040790D03*
X006651Y042090D03*
X007451Y041990D03*
X007351Y042890D03*
X006551Y042890D03*
X005651Y043290D03*
X006151Y044190D03*
X006151Y045290D03*
X005151Y045190D03*
X004551Y045090D03*
X004551Y043390D03*
X004551Y041690D03*
X005351Y041590D03*
X007851Y037690D03*
X008351Y041990D03*
X008351Y042890D03*
X009451Y042890D03*
X009351Y042090D03*
X010351Y042090D03*
X010451Y042890D03*
X011451Y042990D03*
X011351Y042090D03*
X012351Y042090D03*
X012651Y043090D03*
X013451Y042190D03*
X013851Y043090D03*
X014451Y042190D03*
X015051Y043090D03*
X015351Y042190D03*
X016251Y043090D03*
X016651Y042190D03*
X017451Y043090D03*
X018051Y042190D03*
X018751Y043090D03*
X019051Y042190D03*
X020251Y043090D03*
X020351Y042190D03*
X021151Y043090D03*
X021351Y042290D03*
X022051Y043190D03*
X022351Y042190D03*
X023151Y043190D03*
X023351Y042190D03*
X024151Y042190D03*
X024051Y043190D03*
X025151Y043190D03*
X025251Y042290D03*
X025951Y042290D03*
X025951Y043190D03*
X026451Y044390D03*
X027151Y045290D03*
X028051Y045290D03*
X028151Y043490D03*
X027251Y043490D03*
X028251Y041790D03*
X027351Y041690D03*
X026451Y040790D03*
X027051Y040090D03*
X027951Y039990D03*
X023751Y046990D03*
X022251Y050290D03*
X020451Y046890D03*
X016151Y038890D03*
X013151Y045790D03*
X015251Y047990D03*
X014951Y051290D03*
X010651Y039890D03*
X010851Y036790D03*
X010851Y029990D03*
X011751Y027490D03*
X015151Y022290D03*
X010751Y018190D03*
X010451Y020890D03*
X008251Y017990D03*
X006751Y017990D03*
X006551Y017090D03*
X006751Y011290D03*
X004951Y007590D03*
X004851Y005890D03*
X005151Y004090D03*
X005051Y002390D03*
X006351Y003090D03*
X008651Y003490D03*
X011051Y002590D03*
X013851Y001490D03*
X010351Y008590D03*
X012051Y012190D03*
X010851Y015490D03*
X006351Y006690D03*
X021251Y007390D03*
X021751Y008390D03*
X027351Y012890D03*
X028151Y015290D03*
X020051Y030590D03*
X015451Y030990D03*
X022151Y038490D03*
X027251Y049890D03*
X007951Y049590D03*
M02*
