G75*
%MOIN*%
%OFA0B0*%
%FSLAX24Y24*%
%IPPOS*%
%LPD*%
%AMOC8*
5,1,8,0,0,1.08239X$1,22.5*
%
%ADD10C,0.0000*%
%ADD11C,0.0040*%
%ADD12C,0.0039*%
%ADD13C,0.0080*%
%ADD14C,0.0060*%
%ADD15C,0.0050*%
D10*
X003851Y000190D02*
X028851Y000190D01*
X028851Y053190D01*
X003851Y053190D01*
X003851Y000190D01*
X003851Y002790D02*
X003851Y007190D01*
X003851Y015390D02*
X003851Y019790D01*
X003851Y023190D02*
X003851Y027590D01*
X003851Y031990D02*
X003851Y036390D01*
X003851Y040290D02*
X003851Y044690D01*
X028851Y044890D02*
X028851Y040490D01*
X029351Y036490D02*
X029351Y032090D01*
X028851Y028290D02*
X028851Y023890D01*
X028851Y020190D02*
X028851Y015790D01*
X028901Y007290D02*
X028901Y002890D01*
D11*
X013868Y025510D02*
X013561Y025510D01*
X013868Y025817D01*
X013868Y025894D01*
X013791Y025970D01*
X013638Y025970D01*
X013561Y025894D01*
X013408Y025894D02*
X013101Y025587D01*
X013178Y025510D01*
X013331Y025510D01*
X013408Y025587D01*
X013408Y025894D01*
X013331Y025970D01*
X013178Y025970D01*
X013101Y025894D01*
X013101Y025587D01*
X012947Y025587D02*
X012947Y025510D01*
X012871Y025510D01*
X012871Y025587D01*
X012947Y025587D01*
X012998Y018670D02*
X012922Y018594D01*
X012922Y018517D01*
X012998Y018440D01*
X013152Y018440D01*
X013229Y018363D01*
X013229Y018287D01*
X013152Y018210D01*
X012998Y018210D01*
X012922Y018287D01*
X012922Y018363D01*
X012998Y018440D01*
X013152Y018440D02*
X013229Y018517D01*
X013229Y018594D01*
X013152Y018670D01*
X012998Y018670D01*
X012768Y018210D02*
X012461Y018210D01*
X012615Y018210D02*
X012615Y018670D01*
X012461Y018517D01*
X012308Y018594D02*
X012001Y018287D01*
X012078Y018210D01*
X012231Y018210D01*
X012308Y018287D01*
X012308Y018594D01*
X012231Y018670D01*
X012078Y018670D01*
X012001Y018594D01*
X012001Y018287D01*
X011847Y018287D02*
X011847Y018210D01*
X011771Y018210D01*
X011771Y018287D01*
X011847Y018287D01*
X014471Y035610D02*
X014547Y035610D01*
X014547Y035687D01*
X014471Y035687D01*
X014471Y035610D01*
X014701Y035687D02*
X014701Y035994D01*
X014778Y036070D01*
X014931Y036070D01*
X015008Y035994D01*
X014701Y035687D01*
X014778Y035610D01*
X014931Y035610D01*
X015008Y035687D01*
X015008Y035994D01*
X015161Y035994D02*
X015238Y036070D01*
X015391Y036070D01*
X015468Y035994D01*
X015468Y035917D01*
X015161Y035610D01*
X015468Y035610D01*
X015622Y035610D02*
X015622Y035687D01*
X015929Y035994D01*
X015929Y036070D01*
X015622Y036070D01*
X012552Y043710D02*
X012552Y044170D01*
X012322Y043940D01*
X012629Y043940D01*
X012168Y043710D02*
X011861Y043710D01*
X012015Y043710D02*
X012015Y044170D01*
X011861Y044017D01*
X011708Y044094D02*
X011401Y043787D01*
X011478Y043710D01*
X011631Y043710D01*
X011708Y043787D01*
X011708Y044094D01*
X011631Y044170D01*
X011478Y044170D01*
X011401Y044094D01*
X011401Y043787D01*
X011247Y043787D02*
X011247Y043710D01*
X011171Y043710D01*
X011171Y043787D01*
X011247Y043787D01*
D12*
X015795Y006135D02*
X015797Y006155D01*
X015802Y006175D01*
X015812Y006193D01*
X015824Y006210D01*
X015839Y006224D01*
X015857Y006234D01*
X015876Y006242D01*
X015896Y006246D01*
X015916Y006246D01*
X015936Y006242D01*
X015955Y006234D01*
X015973Y006224D01*
X015988Y006210D01*
X016000Y006193D01*
X016010Y006175D01*
X016015Y006155D01*
X016017Y006135D01*
X016015Y006115D01*
X016010Y006095D01*
X016000Y006077D01*
X015988Y006060D01*
X015973Y006046D01*
X015955Y006036D01*
X015936Y006028D01*
X015916Y006024D01*
X015896Y006024D01*
X015876Y006028D01*
X015857Y006036D01*
X015839Y006046D01*
X015824Y006060D01*
X015812Y006077D01*
X015802Y006095D01*
X015797Y006115D01*
X015795Y006135D01*
D13*
X000603Y004242D02*
X000603Y003907D01*
X002099Y003907D01*
X002394Y004203D01*
X003240Y004203D01*
X003240Y003159D01*
X003811Y003159D01*
X003811Y003474D02*
X003811Y006506D01*
X003811Y006821D02*
X003240Y006821D01*
X003240Y005777D01*
X002394Y005777D01*
X002099Y006073D01*
X000603Y006073D01*
X000603Y005738D01*
X000140Y005738D01*
X000140Y004242D01*
X000603Y004242D01*
X003240Y015759D02*
X003811Y015759D01*
X003811Y016074D02*
X003811Y019106D01*
X003811Y019421D02*
X003240Y019421D01*
X003240Y018377D01*
X002394Y018377D01*
X002099Y018673D01*
X000603Y018673D01*
X000603Y018338D01*
X000140Y018338D01*
X000140Y016842D01*
X000603Y016842D01*
X000603Y016507D01*
X002099Y016507D01*
X002394Y016803D01*
X003240Y016803D01*
X003240Y015759D01*
X003240Y023559D02*
X003811Y023559D01*
X003811Y023874D02*
X003811Y026906D01*
X003811Y027221D02*
X003240Y027221D01*
X003240Y026177D01*
X002394Y026177D01*
X002099Y026473D01*
X000603Y026473D01*
X000603Y026138D01*
X000140Y026138D01*
X000140Y024642D01*
X000603Y024642D01*
X000603Y024307D01*
X002099Y024307D01*
X002394Y024603D01*
X003240Y024603D01*
X003240Y023559D01*
X003240Y032359D02*
X003811Y032359D01*
X003811Y032674D02*
X003811Y035706D01*
X003811Y036021D02*
X003240Y036021D01*
X003240Y034977D01*
X002394Y034977D01*
X002099Y035273D01*
X000603Y035273D01*
X000603Y034938D01*
X000140Y034938D01*
X000140Y033442D01*
X000603Y033442D01*
X000603Y033107D01*
X002099Y033107D01*
X002394Y033403D01*
X003240Y033403D01*
X003240Y032359D01*
X003240Y040659D02*
X003811Y040659D01*
X003811Y040974D02*
X003811Y044006D01*
X003811Y044321D02*
X003240Y044321D01*
X003240Y043277D01*
X002394Y043277D01*
X002099Y043573D01*
X000603Y043573D01*
X000603Y043238D01*
X000140Y043238D01*
X000140Y041742D01*
X000603Y041742D01*
X000603Y041407D01*
X002099Y041407D01*
X002394Y041703D01*
X003240Y041703D01*
X003240Y040659D01*
X028890Y040859D02*
X029461Y040859D01*
X029461Y041903D01*
X030307Y041903D01*
X030603Y041607D01*
X032099Y041607D01*
X032099Y041942D01*
X032561Y041942D01*
X032561Y043438D01*
X032099Y043438D01*
X032099Y043773D01*
X030603Y043773D01*
X030307Y043477D01*
X029461Y043477D01*
X029461Y044521D01*
X028890Y044521D01*
X028890Y044206D02*
X028890Y041174D01*
X029390Y036121D02*
X029961Y036121D01*
X029961Y035077D01*
X030807Y035077D01*
X031103Y035373D01*
X032599Y035373D01*
X032599Y035038D01*
X033061Y035038D01*
X033061Y033542D01*
X032599Y033542D01*
X032599Y033207D01*
X031103Y033207D01*
X030807Y033503D01*
X029961Y033503D01*
X029961Y032459D01*
X029390Y032459D01*
X029390Y032774D02*
X029390Y035806D01*
X029461Y027921D02*
X028890Y027921D01*
X028890Y027606D02*
X028890Y024574D01*
X028890Y024259D02*
X029461Y024259D01*
X029461Y025303D01*
X030307Y025303D01*
X030603Y025007D01*
X032099Y025007D01*
X032099Y025342D01*
X032561Y025342D01*
X032561Y026838D01*
X032099Y026838D01*
X032099Y027173D01*
X030603Y027173D01*
X030307Y026877D01*
X029461Y026877D01*
X029461Y027921D01*
X029461Y019821D02*
X028890Y019821D01*
X028890Y019506D02*
X028890Y016474D01*
X028890Y016159D02*
X029461Y016159D01*
X029461Y017203D01*
X030307Y017203D01*
X030603Y016907D01*
X032099Y016907D01*
X032099Y017242D01*
X032561Y017242D01*
X032561Y018738D01*
X032099Y018738D01*
X032099Y019073D01*
X030603Y019073D01*
X030307Y018777D01*
X029461Y018777D01*
X029461Y019821D01*
X029511Y006921D02*
X028940Y006921D01*
X028940Y006606D02*
X028940Y003574D01*
X028940Y003259D02*
X029511Y003259D01*
X029511Y004303D01*
X030357Y004303D01*
X030653Y004007D01*
X032149Y004007D01*
X032149Y004342D01*
X032611Y004342D01*
X032611Y005838D01*
X032149Y005838D01*
X032149Y006173D01*
X030653Y006173D01*
X030357Y005877D01*
X029511Y005877D01*
X029511Y006921D01*
D14*
X028356Y002561D02*
X028143Y002561D01*
X028036Y002454D01*
X027819Y002561D02*
X027392Y001920D01*
X027819Y001920D02*
X027392Y002561D01*
X028036Y001920D02*
X028463Y002347D01*
X028463Y002454D01*
X028356Y002561D01*
X028463Y001920D02*
X028036Y001920D01*
X025101Y009090D02*
X024601Y009090D01*
X024351Y009340D01*
X024101Y009090D01*
X023601Y009090D01*
X023351Y009340D01*
X023351Y009840D01*
X023601Y010090D01*
X024101Y010090D01*
X024351Y009840D01*
X024601Y010090D01*
X025101Y010090D01*
X025351Y009840D01*
X025351Y009340D01*
X025101Y009090D01*
X024351Y009340D02*
X024351Y009840D01*
X027342Y014820D02*
X027769Y015461D01*
X027986Y015354D02*
X027986Y015247D01*
X028093Y015140D01*
X028413Y015140D01*
X028413Y014927D02*
X028413Y015354D01*
X028306Y015461D01*
X028093Y015461D01*
X027986Y015354D01*
X027986Y014927D02*
X028093Y014820D01*
X028306Y014820D01*
X028413Y014927D01*
X027769Y014820D02*
X027342Y015461D01*
X027342Y022920D02*
X027769Y023561D01*
X027986Y023561D02*
X028413Y023561D01*
X028413Y023454D01*
X027986Y023027D01*
X027986Y022920D01*
X027769Y022920D02*
X027342Y023561D01*
X027842Y031120D02*
X028269Y031761D01*
X028486Y031654D02*
X028486Y031547D01*
X028593Y031440D01*
X028806Y031440D01*
X028913Y031334D01*
X028913Y031227D01*
X028806Y031120D01*
X028593Y031120D01*
X028486Y031227D01*
X028486Y031334D01*
X028593Y031440D01*
X028806Y031440D02*
X028913Y031547D01*
X028913Y031654D01*
X028806Y031761D01*
X028593Y031761D01*
X028486Y031654D01*
X028269Y031120D02*
X027842Y031761D01*
X027769Y039520D02*
X027342Y039520D01*
X027555Y039520D02*
X027555Y040161D01*
X027342Y039947D01*
X027124Y040161D02*
X026697Y039520D01*
X027124Y039520D02*
X026697Y040161D01*
X027986Y040054D02*
X028093Y040161D01*
X028306Y040161D01*
X028413Y040054D01*
X027986Y039627D01*
X028093Y039520D01*
X028306Y039520D01*
X028413Y039627D01*
X028413Y040054D01*
X027986Y040054D02*
X027986Y039627D01*
X005202Y037361D02*
X004775Y037361D01*
X004775Y037040D01*
X004989Y037147D01*
X005095Y037147D01*
X005202Y037040D01*
X005202Y036827D01*
X005095Y036720D01*
X004882Y036720D01*
X004775Y036827D01*
X004558Y036720D02*
X004131Y037361D01*
X004558Y037361D02*
X004131Y036720D01*
X004131Y028561D02*
X004558Y027920D01*
X004775Y028240D02*
X005202Y028240D01*
X005095Y027920D02*
X005095Y028561D01*
X004775Y028240D01*
X004558Y028561D02*
X004131Y027920D01*
X004131Y020761D02*
X004558Y020120D01*
X004775Y020227D02*
X004882Y020120D01*
X005095Y020120D01*
X005202Y020227D01*
X005202Y020334D01*
X005095Y020440D01*
X004989Y020440D01*
X005095Y020440D02*
X005202Y020547D01*
X005202Y020654D01*
X005095Y020761D01*
X004882Y020761D01*
X004775Y020654D01*
X004558Y020761D02*
X004131Y020120D01*
X004131Y008161D02*
X004558Y007520D01*
X004775Y007520D02*
X005202Y007520D01*
X004989Y007520D02*
X004989Y008161D01*
X004775Y007947D01*
X004558Y008161D02*
X004131Y007520D01*
X004131Y045020D02*
X004558Y045661D01*
X004775Y045340D02*
X005095Y045340D01*
X005202Y045234D01*
X005202Y045127D01*
X005095Y045020D01*
X004882Y045020D01*
X004775Y045127D01*
X004775Y045340D01*
X004989Y045554D01*
X005202Y045661D01*
X004558Y045020D02*
X004131Y045661D01*
D15*
X023496Y010785D02*
X023646Y010785D01*
X023571Y010785D02*
X023571Y010410D01*
X023496Y010335D01*
X023421Y010335D01*
X023346Y010410D01*
X023806Y010335D02*
X023806Y010785D01*
X024031Y010785D01*
X024106Y010710D01*
X024106Y010560D01*
X024031Y010485D01*
X023806Y010485D01*
X024266Y010335D02*
X024567Y010335D01*
X024417Y010335D02*
X024417Y010785D01*
X024266Y010635D01*
X021253Y006566D02*
X021253Y006014D01*
X020249Y006014D01*
X020249Y006566D01*
X021253Y006566D01*
X022049Y005366D02*
X022049Y004814D01*
X023053Y004814D01*
X023053Y005366D01*
X022049Y005366D01*
X021926Y005292D02*
X021926Y004288D01*
X021375Y004288D01*
X021375Y005292D01*
X021926Y005292D01*
X023175Y005292D02*
X023175Y004288D01*
X023726Y004288D01*
X023726Y005292D01*
X023175Y005292D01*
X024949Y005366D02*
X024949Y004814D01*
X025953Y004814D01*
X025953Y005366D01*
X024949Y005366D01*
X019926Y008788D02*
X019926Y009792D01*
X019375Y009792D01*
X019375Y008788D01*
X019926Y008788D01*
X019326Y008788D02*
X019326Y009792D01*
X018775Y009792D01*
X018775Y008788D01*
X019326Y008788D01*
X019353Y007966D02*
X018349Y007966D01*
X018349Y007414D01*
X019353Y007414D01*
X019353Y007966D01*
X015353Y005266D02*
X015353Y004714D01*
X014349Y004714D01*
X014349Y005266D01*
X015353Y005266D01*
X014226Y005192D02*
X014226Y004188D01*
X013675Y004188D01*
X013675Y005192D01*
X014226Y005192D01*
X013553Y005266D02*
X013553Y004714D01*
X012549Y004714D01*
X012549Y005266D01*
X013553Y005266D01*
X012326Y005192D02*
X012326Y004188D01*
X011775Y004188D01*
X011775Y005192D01*
X012326Y005192D01*
X007753Y005266D02*
X007753Y004714D01*
X006749Y004714D01*
X006749Y005266D01*
X007753Y005266D01*
M02*
